<?xml version="1.0" encoding="utf-8"?>
<!-- Generator: Adobe Illustrator 24.0.3, SVG Export Plug-In . SVG Version: 6.00 Build 0)  -->
<svg version="1.1" id="レイヤー_1" xmlns="http://www.w3.org/2000/svg" xmlns:xlink="http://www.w3.org/1999/xlink" x="0px"
	 y="0px" viewBox="0 0 69.6 69.6" style="enable-background:new 0 0 69.6 69.6;" xml:space="preserve">
<style type="text/css">
	.st0{fill:#D39200;}
	.st1{fill:#FFFFFF;}
</style>
<g>
	<rect x="0" y="0" class="st0" width="69.6" height="69.6"/>
	<g>
		<path class="st1" d="M6,8.7c-0.1,0.1-0.5,0.2-1,0.4C4.5,9.2,4.2,9.3,4.1,9.4V7.5c0.4-0.1,0.8-0.4,1.4-0.7c0.5-0.3,0.9-0.6,1.1-0.8
			h2v13.3H6V8.7z"/>
		<path class="st1" d="M9.9,17.5l3.2-5l0.2-0.3c0.4-0.6,0.7-1.1,0.9-1.6c0.2-0.4,0.3-0.9,0.3-1.4c0-0.4-0.1-0.8-0.2-1
			C14.1,8.1,13.9,8,13.6,8c-0.5,0-0.8,0.2-1,0.5c-0.2,0.3-0.3,0.8-0.3,1.4v0.6H9.9V9.9c0-1.2,0.3-2.2,0.9-3c0.6-0.7,1.5-1.1,2.7-1.1
			c1.1,0,2,0.3,2.6,0.9C16.7,7.4,17,8.3,17,9.4c0,0.5-0.1,1-0.2,1.4c-0.2,0.4-0.3,0.8-0.5,1.2c-0.2,0.3-0.5,0.8-1,1.5l-2.6,3.8h3.9
			v2H9.9V17.5z"/>
	</g>
	<path class="st1" d="M52.5,36.1c-3.1-2.4-7.2-2.5-8.7-2.1l-0.2,0c-1.7,0.4-4.5,1.1-7.7,5.1c0,0,0,0-0.1,0.1l0,0
		c0,0-0.1,0.1-0.1,0.2c0,0,0,0.1,0,0.1l0.1,0.1c0.4,0.7,0.9,1.5,1.3,2.3c0,0,0,0,0,0c0,0.1,0.1,0.2,0.2,0.2c0.1,0,0.1,0,0.2-0.1
		c0,0,0-0.1,0.1-0.1c2.9-3.9,5.1-4.5,6.6-4.9l0.2,0c0.8-0.2,3.8-0.2,5.9,1.5c1.7,1.3,2.5,3.5,2.5,6.3c0,4.8-2.3,6.7-4.3,7.4
		c-3,1.1-5.9-0.4-5.9-0.4l-0.1-0.1c-1.7-0.7-4.1-2.2-6.5-6.9C31.6,35.5,27.6,34.6,25,34l-0.1,0c-1.2-0.3-5.3-0.5-8.5,2.1
		c-1.7,1.3-3.7,4-3.7,8.8c0,2.9,0.6,4.9,2.2,6.9c0.3,0.5,3.8,4.9,10.6,3.7c1.1-0.2,2.5-0.7,4.1-1.9l1.5,1.3c0.1,0.1,0.3,0.1,0.3,0
		c0,0,0.1-0.1,0.1-0.2v0l1.1-6.6l0-0.1c0-0.1,0-0.1-0.1-0.2c0,0-0.1-0.1-0.2-0.1l0,0l-0.1,0l-6.3,1.8l-0.1,0c0,0-0.1,0-0.1,0.1
		c-0.1,0.1-0.1,0.3,0,0.3l0.1,0.1l1.4,1.3c-0.9,0.6-1.7,0.9-2.3,1c-4.9,0.9-7.3-2.3-7.4-2.4l0,0c-1.1-1.5-1.5-2.8-1.5-5
		c0-2.9,0.8-5,2.5-6.3c2.1-1.7,5-1.7,5.8-1.5l0.1,0c2.1,0.5,5.1,1.1,9.1,9.2c2.1,4.2,4.7,6.9,8,8.4c0.4,0.2,2.4,1.2,5,1.2
		c1.1,0,2.3-0.2,3.5-0.6c1.9-0.7,6.4-3.2,6.4-10.4C56.3,40.1,54.3,37.5,52.5,36.1"/>
	<g>
		<path class="st1" d="M27.6,10.6c-0.3,0.1-0.6,0.2-1,0.2c-0.2-0.2-0.3-0.4-0.5-0.6c0.4-0.1,0.8-0.1,1.2-0.3
			c0.6-0.2,1.1-0.6,1.1-1.4c0-0.8-0.4-1-1-1c-0.9,0-1.7,0.6-2.5,0.8c0-0.1-0.3-0.8-0.3-0.8c0-0.1,0.1,0,0.1,0c0.4,0,0.9-0.2,1.3-0.3
			c0.5-0.2,1-0.3,1.5-0.3c0.8,0,1.5,0.6,1.5,1.6C29.2,9.8,28.5,10.3,27.6,10.6z"/>
		<path class="st1" d="M33,11.2c-0.4-0.7-1-1.2-1.5-1.7C31.3,9.3,31.2,9.2,31,9c-0.1-0.1-0.2-0.1-0.3-0.2c-0.1-0.1-0.1-0.2-0.1-0.3
			c0-0.2,0.1-0.4,0.2-0.5c0.2-0.3,0.5-0.5,0.7-0.8C32,6.8,32.4,6.4,32.7,6c0.1,0.1,0.3,0.2,0.4,0.4c0.1,0,0.1,0.1,0.2,0.1
			c0,0,0,0,0,0.1c0,0.1-0.1,0.1-0.2,0.1c-0.3,0.3-0.7,0.6-1,1C32,7.7,31.9,7.9,31.7,8c-0.1,0.1-0.1,0.1-0.2,0.2
			c-0.1,0.1-0.1,0.1-0.1,0.2c0,0.1,0,0.1,0.1,0.2C31.7,8.8,32,9,32.2,9.2c0.5,0.4,0.9,0.9,1.4,1.5C33.4,10.8,33.2,11,33,11.2z"/>
		<path class="st1" d="M36.9,11c-0.4,0-1.1-0.2-1.1-0.8c0-0.4,0.4-0.7,0.7-0.7c0.3,0,0.6,0.2,0.7,0.5c0,0.1,0,0.2,0.1,0.3
			c0.4-0.1,0.7-0.4,0.7-0.9c0-0.6-0.4-0.9-0.9-0.9c-0.8,0-1.2,0.7-1.7,1.3c-0.2-0.2-0.3-0.3-0.5-0.5c0.7-0.7,1.4-1.6,1.9-2.5
			C36.4,7,36,7.1,35.5,7.2l-0.1-0.7c0.1,0,0.1,0,0.2,0c0.2,0,0.5,0,0.7-0.1c0.3,0,0.6-0.1,0.9-0.2c0.1,0,0.2-0.1,0.3-0.1
			c0.1,0.2,0.2,0.3,0.4,0.5c-0.1,0-0.1,0.1-0.2,0.1c-0.1,0.1-0.2,0.3-0.3,0.4c-0.2,0.3-0.5,0.7-0.7,1c0.2,0,0.3-0.1,0.5-0.1
			c0.7,0,1.4,0.4,1.4,1.3C38.5,10.6,37.7,11,36.9,11z M36.4,10.1c-0.1,0-0.2,0-0.2,0.2c0,0.2,0.3,0.3,0.4,0.3
			C36.7,10.3,36.6,10.1,36.4,10.1z"/>
		<path class="st1" d="M44.3,11.4c-0.5-0.1-1.2-0.3-1.6-0.6l0.3-0.4h-1.4l0.3,0.3c0,0,0,0.1-0.1,0.1c0,0-0.1,0-0.1,0
			c-0.4,0.2-1,0.5-1.4,0.6L40,10.8c0.4-0.1,1-0.2,1.3-0.4h-0.6V8.2H44v2.2h-0.6c0.3,0.2,0.9,0.3,1.3,0.4L44.3,11.4z M40,8V7.5h2V7.3
			h-1.4V6.9H42V6.7h-1.7V6.2H42V5.7l0.6,0c0,0,0.1,0,0.1,0.1c0,0.1,0,0.1-0.1,0.1v0.3h1.8v0.5h-1.8v0.2H44v0.4h-1.4v0.2h2V8H40z
			 M43.4,8.6h-2.2v0.2h2.2V8.6z M43.4,9.2h-2.2v0.2h2.2V9.2z M43.4,9.8h-2.2V10h2.2V9.8z"/>
		<path class="st1" d="M47.3,6.3C47.1,6.7,47,7,46.8,7.4v3.8h-0.6V8.4c-0.1,0.2-0.2,0.4-0.4,0.5l-0.4-0.5c0.6-0.7,1-1.7,1.2-2.7
			l0.7,0.3c0,0,0.1,0,0.1,0.1C47.4,6.2,47.3,6.3,47.3,6.3z M49,8.7v1.8h1.2v0.5h-3v-0.5h1.2V8.7h-1.3V8.2h1.3V7
			c-0.3,0.1-0.7,0.1-1,0.1l-0.2-0.5C47.9,6.6,49,6.4,49.7,6l0.5,0.7c0,0-0.1,0.1-0.1,0.1c0,0-0.1,0-0.1,0c-0.3,0.1-0.6,0.2-1,0.2
			v1.3h1.3v0.5H49z"/>
		<path class="st1" d="M27.5,18.3c-0.3,0.1-0.6,0.2-1,0.2c-0.2-0.2-0.3-0.4-0.5-0.6c0.4-0.1,0.8-0.1,1.2-0.3
			c0.6-0.2,1.1-0.6,1.1-1.4c0-0.8-0.4-1.1-1-1.1c-0.9,0-1.7,0.6-2.5,0.8c0-0.1-0.3-0.8-0.3-0.8c0-0.1,0.1,0,0.1,0
			c0.4,0,0.9-0.2,1.3-0.3c0.5-0.2,1-0.3,1.5-0.3c0.8,0,1.5,0.6,1.5,1.6C29.1,17.5,28.4,18,27.5,18.3z"/>
		<path class="st1" d="M32.5,18.4c-0.2,0.2-0.4,0.2-0.6,0.2c-0.2,0-0.3,0-0.5-0.1c0-0.2,0-0.5-0.1-0.7c0.2,0.1,0.4,0.2,0.6,0.2
			c0.4,0,0.4-1.3,0.4-1.7c0-0.2,0-0.7-0.3-0.7c-0.1,0-0.2,0-0.3,0c-0.2,0.9-0.6,2.2-1.1,3c-0.2-0.1-0.4-0.2-0.6-0.3
			c0.5-0.7,0.8-1.7,1-2.5c-0.2,0-0.5,0.1-0.7,0.2c0-0.1-0.1-0.6-0.1-0.7c0,0,0,0,0,0c0,0,0.1,0,0.1,0c0.3,0,0.6-0.1,0.8-0.1
			c0.1-0.5,0.2-0.9,0.2-1.4c0.2,0,0.3,0.1,0.5,0.1c0.1,0,0.1,0,0.2,0.1c0,0,0.1,0,0.1,0.1c0,0,0,0.1-0.1,0.1c-0.1,0.3-0.1,0.7-0.2,1
			c0.1,0,0.2,0,0.3,0c0.3,0,0.6,0.1,0.7,0.5c0.1,0.3,0.1,0.6,0.1,0.9C33,17,32.9,18,32.5,18.4z M33.8,17.3c-0.1-0.2-0.2-0.3-0.4-0.5
			c0.1,0,0.5-0.1,0.5-0.3c0-0.4-0.5-1.1-0.7-1.3c0.2-0.1,0.4-0.2,0.5-0.3c0.3,0.4,0.9,1.2,0.9,1.8C34.6,17,34.1,17.2,33.8,17.3z"/>
		<path class="st1" d="M36.9,19c-0.2-0.2-0.4-0.4-0.6-0.5c0.5-0.2,1.2-0.5,1.5-1c0.1-0.3,0.2-0.6,0.2-0.9c0-0.5-0.2-0.8-0.6-0.8
			c-0.3,0-1.1,0.4-1.4,0.6c0-0.1-0.3-0.7-0.3-0.8c0,0,0.1,0,0.1,0c0.1,0,0.5-0.1,0.6-0.2c0.4-0.1,0.8-0.3,1.2-0.3
			c0.8,0,1.2,0.6,1.2,1.5C38.7,17.9,37.8,18.7,36.9,19z M37.8,14.7c-0.5-0.2-0.9-0.4-1.4-0.5c0.1-0.2,0.2-0.4,0.3-0.6
			c0.5,0.1,1,0.3,1.5,0.5C38,14.3,37.9,14.5,37.8,14.7z"/>
		<path class="st1" d="M44.2,19.1c-0.5-0.1-1.2-0.3-1.6-0.6l0.3-0.4h-1.4l0.3,0.3c0,0,0,0.1-0.1,0.1c0,0-0.1,0-0.1,0
			c-0.4,0.3-1,0.5-1.4,0.6l-0.4-0.5c0.4-0.1,1-0.2,1.3-0.4h-0.6v-2.2h3.3v2.2h-0.6c0.3,0.2,0.9,0.3,1.3,0.4L44.2,19.1z M39.9,15.7
			v-0.5h2V15h-1.4v-0.4h1.4v-0.2h-1.7v-0.5h1.7v-0.5l0.6,0c0,0,0.1,0,0.1,0.1c0,0.1,0,0.1-0.1,0.1v0.3h1.8v0.5h-1.8v0.2h1.4V15h-1.4
			v0.2h2v0.5H39.9z M43.3,16.3h-2.2v0.2h2.2V16.3z M43.3,16.9h-2.2v0.2h2.2V16.9z M43.3,17.5h-2.2v0.2h2.2V17.5z"/>
		<path class="st1" d="M47.1,14c-0.1,0.4-0.3,0.8-0.5,1.2v3.8h-0.6v-2.8c-0.1,0.2-0.2,0.4-0.4,0.5l-0.4-0.5c0.6-0.7,1-1.7,1.2-2.7
			l0.7,0.3c0,0,0.1,0,0.1,0.1C47.3,13.9,47.2,14,47.1,14z M48.9,16.5v1.8h1.2v0.5h-3v-0.5h1.2v-1.8H47v-0.5h1.3v-1.2
			c-0.3,0.1-0.7,0.1-1,0.1L47,14.3c0.8-0.1,1.9-0.2,2.6-0.6l0.5,0.7c0,0-0.1,0.1-0.1,0.1c0,0-0.1,0-0.1,0c-0.3,0.1-0.6,0.2-1,0.2
			v1.3h1.3v0.5H48.9z"/>
	</g>
</g>
</svg>
