<?xml version="1.0" encoding="utf-8"?>
<!-- Generator: Adobe Illustrator 24.0.3, SVG Export Plug-In . SVG Version: 6.00 Build 0)  -->
<svg version="1.1" id="レイヤー_1" xmlns="http://www.w3.org/2000/svg" xmlns:xlink="http://www.w3.org/1999/xlink" x="0px"
	 y="0px" viewBox="0 0 69.6 69.6" style="enable-background:new 0 0 69.6 69.6;" xml:space="preserve">
<style type="text/css">
	.st0{fill:#427935;}
	.st1{fill:#FFFFFF;}
</style>
<g>
	
		<rect x="0" y="0" transform="matrix(1.362632e-03 -1 1 1.362632e-03 -4.738067e-02 69.5412)" class="st0" width="69.5" height="69.5"/>
	<g>
		<path class="st1" d="M6.2,8.7C6,8.7,5.7,8.9,5.1,9.1C4.7,9.2,4.4,9.3,4.2,9.4V7.5c0.4-0.1,0.8-0.4,1.4-0.7
			c0.5-0.3,0.9-0.6,1.1-0.8h2v13.3H6.2V8.7z"/>
		<path class="st1" d="M10.8,18.5c-0.6-0.7-0.8-1.7-0.8-3v-0.5h2.5v0.4c0,0.7,0.1,1.2,0.2,1.5c0.2,0.3,0.4,0.4,0.8,0.4
			c0.4,0,0.7-0.1,0.8-0.5c0.1-0.3,0.2-0.8,0.2-1.5c0-0.7-0.1-1.2-0.3-1.6c-0.2-0.3-0.6-0.5-1.1-0.5c0,0-0.2,0-0.5,0v-1.9h0.4
			c0.6,0,1-0.2,1.2-0.5c0.2-0.3,0.3-0.8,0.3-1.5c0-0.6-0.1-1-0.2-1.3C14.2,8,14,7.9,13.5,7.9c-0.4,0-0.6,0.1-0.8,0.4
			c-0.1,0.3-0.2,0.7-0.2,1.3v0.6H10V9.5c0-1.2,0.3-2.1,0.9-2.7c0.6-0.6,1.5-1,2.6-1c1.1,0,2,0.3,2.7,0.9c0.6,0.6,0.9,1.5,0.9,2.6
			c0,0.8-0.2,1.4-0.5,1.9c-0.3,0.5-0.7,0.8-1.2,1c1.1,0.4,1.7,1.5,1.7,3.1c0,1.3-0.3,2.3-0.9,3c-0.6,0.7-1.5,1.1-2.7,1.1
			C12.3,19.6,11.4,19.2,10.8,18.5z"/>
	</g>
	<path class="st1" d="M61,43.6c-1.8-2.6-10.2-12.9-25.6-12.9C19.8,30.7,11.5,41,9.6,43.6c-0.1,0.1-0.1,0.2-0.2,0.3
		c0.1,0.1,0.1,0.2,0.2,0.3c1.8,2.6,10.2,12.9,25.6,12.9c15.5,0,23.8-10.3,25.7-12.9c0.1-0.1,0.1-0.2,0.2-0.3
		C61.1,43.8,61,43.8,61,43.6 M26.7,37.2c0.1-0.2,0.6-0.8,0.7-0.9c0.1-0.2,0.4-0.2,0.5-0.2c0.2,0,0.4,0.1,0.4,0.2
		c0,0.1-0.1,0.6-0.1,0.7c-0.2,0.2-0.8,0.6-1.1,0.5C26.7,37.5,26.6,37.3,26.7,37.2 M26.1,38.3C26.1,38.3,26.2,38.3,26.1,38.3
		c0.3-0.3,0.6-0.3,0.9-0.4c0.3,0,0.6,0.1,0.7,0.3c0,0.2-0.7,0.5-0.8,0.6c-0.4,0.3-1,1-1.3,1.1c-0.1,0-0.2,0-0.3,0
		C25.5,39.4,25.8,38.8,26.1,38.3 M31.9,50.2c-0.2,0.8-0.5,1.1-0.7,1.4c-0.2,0.3-1,0.6-1.5,0.6c-0.5,0-0.6-1.3-0.6-2
		c0-0.2-0.3,0.5-0.5-0.9c-0.1-0.9-0.7,0.1-0.7-0.5c0-0.6-0.3-0.5-0.6-0.9c-0.3-0.4-0.7,0-1.1,0.2c-0.4,0.2-0.2,0.3-0.8,0.1
		c0,0,0,0,0,0c-0.5-1.3-0.8-2.7-0.8-4.2c0-0.4,0-0.7,0.1-1.1c0,0,0-0.1,0.1-0.1c0.6-0.7,0.6-0.8,0.6-0.8l0.6-0.2c0,0,1,0.2,1.8,0.4
		c0.6,0.2,1.6,0.8,2.2,0.5c0.4-0.2,0.7-0.4,0.7-0.7c0-0.4-0.4-0.5-0.8-0.2c-0.2,0.1-0.5-0.7-0.7-0.6c-0.3,0,0.3,0.9,0.1,0.9
		c-0.2,0-0.6-0.9-0.7-1c-0.1-0.1-0.4-0.5-0.7-0.2c-0.6,0.6-1.7,0.6-1.9,0.7c-0.6,0.5-0.8-0.2-0.8-0.5c0-0.1,0.1-0.2,0.1-0.3
		c0.2-0.2,0.9-0.3,1.2-0.1c0.3,0.2,0.5,0,0.6-0.2c0.1-0.1,0.1-0.3,0-0.4c-0.1-0.2,0.1-0.3,0.3-0.3c0.1,0,0.6-0.4,0.8-0.5
		c0.2-0.1,1.2-0.2,1.6,0c0.4,0.2,0.9,0,1.1-0.2c0.3-0.3,0.6-0.6,0.8-0.7c0.2-0.1-0.4-0.6-0.8,0c-0.4,0.5-0.7,0.6-0.9,0.6
		c-0.2,0-1.5-0.3-1.6-0.7c-0.2-0.4,0.4-0.7,0.9-0.9c0.5-0.2,1.7-0.2,2-0.3c0.7-0.1,1.5-0.5,1.9-0.2c0.4,0.3-1.8,0.8-1,1.2
		c0.3,0.1,1.4-0.7,1.8-0.9c0.9-0.5-0.9-0.6-0.7-1.6c0.3-1.1-2.2-0.7-3.5-0.6c1.7-1.1,3.7-1.7,5.8-1.7c5.1,0,9.3,3.5,10.5,8.3
		c0,0.2,0,0.4-0.1,0.5c-0.1,0.4-0.8,0.7-1.3,0.1c-0.1-0.2-0.6-0.6-0.6,0.2c0,0.7,0.7,0.8,0,1.3c-0.7,0.4-0.8,0.3-1.1,0.5
		c-0.3,0.1-0.6,0.9-0.6,1.3c0.1,0.4,1.1,1.5,0.3,1.5c-0.2,0-1.5-0.9-1.7-1.5c-0.2-0.6-0.5-1.2-0.6-1.6c-0.2-0.4-0.6-0.6-1-0.3
		c-0.4,0.3,0.1,0.5-0.2,1.1c-0.3,0.6-0.5,1.1-0.9,0.6c-1.1-1.2-2.6-0.6-2.8-2c-0.1-0.7-0.8-0.7-1.3-1.1c-0.5-0.4-0.8-0.6-0.9-0.3
		c-0.1,0.3,1.6,1.6,1.8,2c0.2,0.5-0.5,1-1,1.1c-0.5,0.1-0.7-0.3-1.2-0.8C32.2,43.4,32,43,32,43.4c-0.1,0.6,0.5,1.5,1,1.8
		c0.4,0.3,0.9,0.4,0.8,0.9c-0.1,0.4,0,0.2-0.5,0.7c-0.5,0.5-0.6,0.6-0.5,1.3c0,0.7-0.1,0.7-0.2,1.3C32.4,49.9,32.1,49.4,31.9,50.2
		 M43.5,45.9c0.4,0,0.9,0.5,0.7,0.7c-0.2,0.2-0.8,0.1-1-0.1C42.9,46.3,43.3,45.9,43.5,45.9 M43,45.6c-0.1,0-0.2-0.2-0.3-0.4
		c-0.1-0.3,0.1-0.4,0.4-0.3c0.2,0.1,0.5,0.4,0.5,0.6C43.6,45.7,43.1,45.6,43,45.6 M38.3,45.6c-0.2,0.2-0.8,0.1-1-0.1
		c-0.3-0.2,0.2-0.6,0.3-0.6C37.9,44.9,38.5,45.4,38.3,45.6 M33.8,47.7c-0.1,0.2-0.6,2.1-0.8,1.8c-0.3-0.2,0.1-2.1,0.2-2.2
		C33.6,46.5,34.6,46.6,33.8,47.7 M35.3,54.7c-1.1,0-2.1-0.2-3-0.4c-0.1-0.1-0.2-0.3-0.1-0.5c0.3-0.9,1.3-1.2,2.1-1.3
		c1.7-0.2,4,1.1,4.4,0.9c0.4-0.2,1.1-1.2,2.2-1.1c0.7,0,0.7,0.2,1,0.2C40,53.9,37.8,54.7,35.3,54.7 M42.9,51.6
		c-0.1,0-0.2-0.1-0.3-0.1c-0.6-0.3-0.5,0.2-0.8,0.1c-0.3-0.1,0.3-0.8-0.5-0.2c-0.9,0.6-0.6-0.1-1-1c-0.4-1,0.4-2.1,1.1-2.3
		c0.9-0.3,1.5-0.4,2-0.5c1.3-0.3,1.6-1.1,1.8-0.6c0,0.1,0.1,0.2,0.1,0.2c0.1,0.1,0.2,0.4,0.2,0.7C44.8,49.3,44,50.5,42.9,51.6
		 M45.9,46.2c-0.3-0.1-1.5-1.8-0.5-2.9c0.2-0.2-0.3-0.7-0.2-0.7c0.5,0,0.8,0.3,0.9,0.8c0,0.2,0,0.4,0,0.6
		C46.1,44.7,46,45.5,45.9,46.2"/>
	<g>
		<path class="st1" d="M23,7.4c-0.1,0.1-0.1,0.2-0.2,0.3l2.9,0v0.5h-2.9V7.8c-0.1,0.2-0.3,0.4-0.5,0.6l-0.5-0.4
			c0.5-0.5,0.8-1.1,1-1.9l0.6,0.2c0,0,0.1,0,0.1,0.1c0,0.1-0.1,0.1-0.1,0.1c0,0.1-0.1,0.2-0.1,0.3H26v0.5H23z M26,11.8
			c-0.9-0.5-1.2-1.5-1.1-2.6l-1,0l0.5,0.2c0,0,0.1,0,0.1,0.1c0,0.1-0.1,0.1-0.1,0.1c-0.1,0.3-0.2,0.5-0.4,0.7
			c0.3,0.2,0.5,0.5,0.8,0.7l-0.4,0.4c-0.2-0.2-0.4-0.5-0.7-0.7c-0.4,0.4-0.8,0.7-1.3,0.9l-0.4-0.4c0.4-0.2,1-0.5,1.3-0.9
			c-0.3-0.2-0.5-0.3-0.8-0.5c0.1-0.2,0.2-0.4,0.3-0.5c0.3,0.1,0.5,0.3,0.8,0.5c0.1-0.2,0.2-0.5,0.3-0.8l-1.8,0V8.6
			c1.2,0,2.4,0,3.6,0c0,0.3-0.1,0.5-0.1,0.8c0,0.9,0.3,1.5,1,1.9L26,11.8z"/>
		<path class="st1" d="M28.8,7.4v3.4h-0.5V7.3c-0.1,0.2-0.1,0.4-0.2,0.6v3.8h-0.6V9c-0.1,0.2-0.2,0.3-0.3,0.4L26.9,9
			c0.6-0.7,0.9-1.7,1.1-2.7l0.6,0.3c0,0,0.1,0,0.1,0.1c0,0.1-0.1,0.1-0.1,0.1l-0.2,0.4l0.5,0.1C28.9,7.2,28.9,7.3,28.8,7.4
			C28.9,7.3,28.9,7.4,28.8,7.4z M31.4,11.8c-0.5-0.2-1-0.8-1.3-1.3c-0.3,0.6-0.7,1-1.3,1.2l-0.3-0.4c0.5-0.2,1-0.6,1.2-1.2h-0.9V9.6
			h1c0-0.1,0-0.3,0-0.4V9.1h-0.3c-0.1,0.2-0.2,0.4-0.3,0.5l-0.4-0.3c0.2-0.4,0.4-0.7,0.5-1.2H29V7.7h1.5l0-0.6l-1.3,0V6.6H31
			c0,0.4,0,0.7,0,1.1h0.6v0.5h-1.9l0.2,0.1c0,0,0,0,0,0c0,0.1-0.1,0.1-0.1,0.1l-0.1,0.2h1.6v0.5h-0.9c0,0.2,0,0.4,0,0.5h1.2v0.5
			h-1.1c0.2,0.6,0.8,1,1.2,1.2L31.4,11.8z"/>
		<path class="st1" d="M34,8c-0.2,0.4-0.5,0.8-0.8,1l-0.4-0.4C33,8.4,33.3,8,33.5,7.5L34,7.8C34,7.8,34,7.9,34,8C34,7.9,34,8,34,8z
			 M36.9,11.8c-0.6-0.1-1.2-0.3-1.8-0.7c-0.6,0.4-1.3,0.6-2,0.7l-0.4-0.5c0.6,0,1.3-0.2,1.9-0.5c-0.2-0.1-0.3-0.3-0.5-0.5
			c-0.3,0.3-0.6,0.4-0.9,0.6l-0.4-0.4c0.6-0.2,1.2-0.8,1.5-1.4L35,9.2c0,0,0.1,0,0.1,0.1c0,0-0.1,0.1-0.1,0.1l-0.1,0.1h1.6v0.3
			c-0.2,0.3-0.5,0.7-0.8,0.9c0.4,0.3,1.2,0.4,1.7,0.5L36.9,11.8z M35.8,7.4c0,0.4,0,0.7,0,1.1c0,0.5-0.2,0.7-0.6,0.8l-0.4-0.4
			c0.3-0.1,0.4-0.1,0.4-0.5V7.4h-0.3c0,0.7-0.2,1.2-0.7,1.6c-0.1,0.1-0.3,0.3-0.5,0.3L33.4,9c0.1-0.1,0.3-0.2,0.4-0.3
			c0.4-0.3,0.5-0.8,0.5-1.3h-1.5V6.9h1.8V6.2l0.6,0.1c0,0,0.1,0,0.1,0.1c0,0.1-0.1,0.1-0.1,0.1v0.4h1.9v0.5H35.8z M34.5,9.8
			c0.2,0.2,0.4,0.4,0.6,0.6c0.2-0.1,0.4-0.4,0.5-0.6H34.5z M36.9,9.1c-0.3-0.3-0.7-0.8-0.9-1.2l0.5-0.4C36.7,8,37,8.4,37.4,8.7
			L36.9,9.1z"/>
		<path class="st1" d="M42.7,10.3c-0.1,0.8-0.2,1.2-1,1.4l-0.3-0.5c0.5-0.1,0.7-0.3,0.7-0.9c0-0.7,0-1.3,0-2h-0.3
			c-0.1,1.3-0.2,2.6-1.2,3.5l-0.5-0.4c0.1-0.1,0.2-0.2,0.3-0.3c-0.7,0.1-1.3,0.2-2,0.4c0,0,0,0.1-0.1,0.1c0,0,0,0-0.1-0.1l-0.2-0.6
			c0.4,0,0.8-0.1,1.1-0.1v-0.3h-1V10h1V9.8h-0.9V8.1h0.9V7.8h-1V7.4h1V7.1c-0.3,0-0.6,0-0.9,0.1l-0.2-0.5c0.2,0,0.3,0,0.5,0
			c0.6,0,1.1-0.1,1.7-0.3c0,0.1,0.4,0.5,0.4,0.6c0,0,0,0.1-0.1,0.1c0,0-0.1,0-0.1,0C40.5,7,40.2,7,39.9,7v0.3h0.9v0.4h0.5
			c0-0.5,0-0.9,0-1.4L42,6.4c0,0,0.1,0,0.1,0.1c0,0.1,0,0.1-0.1,0.1C42,7,42,7.4,42,7.7h0.8C42.8,8.6,42.8,9.4,42.7,10.3z M39.4,8.4
			H39v0.3h0.4V8.4z M39.4,9.1H39v0.3h0.4V9.1z M40.3,8.4h-0.3v0.3h0.3V8.4z M40.3,9.1h-0.4v0.3h0.4V9.1z M40.8,8.3V7.8h-0.9v0.2h0.9
			v1.7h-0.9V10h0.9v0.4h-0.9v0.3c0.3,0,0.6-0.1,0.9-0.1l0,0.4c0.5-0.7,0.6-1.7,0.6-2.6H40.8z"/>
		<path class="st1" d="M25,18c0.4,0.5,0.8,0.7,1.4,0.9L26,19.5c-0.4-0.1-1.2-0.7-1.5-1L25,18h-1.7c0.1,0,0.5,0.4,0.5,0.4
			c0,0.1-0.1,0.1-0.1,0.1c-0.4,0.4-0.9,0.8-1.4,0.9L21.9,19c0.5-0.2,1-0.5,1.3-1h-1.4v-0.5h4.6V18H25z M22.5,17.2v-3h3.2v3H22.5z
			 M25.1,14.7h-2.1v0.4h2.1V14.7z M25.1,15.5h-2.1v0.4h2.1V15.5z M25.1,16.4h-2.1v0.4h2.1V16.4z"/>
		<path class="st1" d="M31.4,18.4c-0.2-0.2-0.4-0.4-0.5-0.6v0.5h-0.6v1.2h-0.6v-1.2h-0.6v-0.5c-0.1,0.2-0.3,0.4-0.5,0.6L28.2,18v1.3
			h-0.6v-2.8c-0.1,0.2-0.3,0.4-0.4,0.5l-0.4-0.4c0.6-0.6,1-1.8,1.2-2.7l0.6,0.3c0,0,0.1,0,0.1,0.1c0,0.1-0.1,0.1-0.1,0.1
			c-0.1,0.4-0.3,0.8-0.5,1.1v2.4c0.5-0.5,1.1-1.5,1.3-2.2h-1v-0.6h1.2v-1.1l0.6,0c0,0,0.1,0,0.1,0.1c0,0.1-0.1,0.1-0.1,0.1v0.9h1.4
			v0.6h-1.2c0.3,0.8,0.9,1.7,1.5,2.2L31.4,18.4z M29.1,17.7h0.6l0-1.2C29.6,16.9,29.3,17.4,29.1,17.7z M30.3,16.5l0,1.2h0.6
			C30.6,17.3,30.4,16.9,30.3,16.5z"/>
		<path class="st1" d="M36.9,16.4c0,0.3,0,0.5,0,0.8c0,1.1-0.1,2-1.2,2.3l-0.4-0.5c0.5-0.1,0.9-0.3,1-0.9c0-0.2,0-0.4,0-0.6
			c0-0.1,0-0.3,0-0.4c0-0.4,0-0.9,0-1.3h-1c-0.1,0.3-0.3,0.6-0.5,0.9l-0.3-0.3V19h-1.9v-3.9h0.6c0.1-0.4,0.2-0.7,0.3-1.1l0.7,0.2
			c0,0,0.1,0,0.1,0.1c0,0.1-0.1,0.1-0.1,0.1c-0.1,0.2-0.2,0.5-0.4,0.7h0.8v0.8c0.3-0.5,0.5-1.3,0.6-1.9l0.6,0.3c0,0,0.1,0,0.1,0.1
			c0,0.1-0.1,0.1-0.1,0.1c-0.1,0.2-0.2,0.5-0.3,0.7h1.4L36.9,16.4z M34.1,15.6h-0.8v1.1h0.8V15.6z M34.1,17.2h-0.8v1.3h0.8V17.2z
			 M35.7,17.8c-0.2-0.3-0.5-0.7-0.8-0.9l0.4-0.5c0.2,0.3,0.5,0.7,0.7,1L35.7,17.8z"/>
		<path class="st1" d="M40.4,15.5c-0.3,0.1-0.5,0.1-0.7,0.2c-0.3,0.9-0.6,2-1.1,2.8c-0.2-0.1-0.4-0.2-0.6-0.3c0.4-0.7,0.8-1.6,1-2.4
			c-0.2,0-0.5,0.1-0.8,0.1c0-0.2-0.1-0.4-0.1-0.6c0.1,0,0.2,0,0.3,0c0.2,0,0.5,0,0.7,0c0.1-0.3,0.1-0.7,0.1-1c0.2,0,0.5,0.1,0.7,0.1
			c-0.1,0.3-0.1,0.6-0.2,0.8c0.2,0,0.4-0.1,0.6-0.2C40.4,15.1,40.4,15.3,40.4,15.5z M41.9,19c-0.2-0.2-0.4-0.4-0.7-0.6
			c0,0.1,0,0.1,0,0.2c0,0.6-0.4,0.8-0.9,0.8c-0.2,0-0.3,0-0.5-0.1c-0.3-0.1-0.6-0.4-0.6-0.8c0-0.6,0.4-0.9,0.9-0.9
			c0.1,0,0.3,0,0.4,0c0-0.3,0-0.6,0-0.8c0-0.1,0-0.3,0.1-0.4c0.2,0,0.3,0,0.5,0c0,0,0.2,0,0.2,0c0,0,0,0,0,0
			c-0.1,0.1-0.1,0.2-0.1,0.4c0,0.3,0,0.6,0,0.9c0.4,0.1,0.8,0.4,1.1,0.7C42.1,18.6,42,18.8,41.9,19z M40.5,18.2
			c-0.1-0.1-0.2-0.1-0.4-0.1c-0.2,0-0.4,0.1-0.4,0.3c0,0.3,0.3,0.4,0.5,0.4c0.2,0,0.3,0,0.3-0.3C40.6,18.4,40.6,18.3,40.5,18.2z
			 M41.9,16.4c-0.4-0.3-0.8-0.6-1.2-0.7l0.3-0.6c0.4,0.1,0.9,0.3,1.3,0.7L41.9,16.4z"/>
		<path class="st1" d="M45.4,19c-0.2-0.4-0.5-0.7-0.7-1c-0.3,0.5-0.7,1.1-1.1,1.4L43.1,19c0.5-0.3,0.9-0.8,1.2-1.4
			c-0.2-0.4-0.6-0.7-0.9-1l0.3-0.5c0.3,0.3,0.5,0.6,0.8,0.9c0.1-0.4,0.2-0.8,0.2-1.3h-1.5v-0.5h0.9v-1l0.6,0c0,0,0.1,0,0.1,0.1
			c0,0,0,0.1-0.1,0.1v0.8h0.7v0.5h-0.4c0.1,0,0.2,0.1,0.2,0.2c0,0,0,0.1-0.1,0.1c-0.1,0.5-0.2,1.1-0.4,1.5c0.3,0.4,0.6,0.7,0.8,1.1
			L45.4,19z M46.1,17.9c-0.2-0.4-0.5-0.7-0.7-1.1l0.5-0.4c0.2,0.4,0.4,0.7,0.6,1.1L46.1,17.9z M47.2,16v2.1c0,1-0.1,1.3-1,1.5
			L45.9,19c0.7-0.1,0.7-0.4,0.7-1.1V16h-1v-0.6h1v-1.3l0.6,0c0,0,0.1,0,0.1,0.1c0,0-0.1,0.1-0.1,0.1v1.1h0.6V16H47.2z"/>
		<path class="st1" d="M53,19.4c-0.7-0.3-1.2-0.7-1.7-1.3v1.4h-0.6v-1.5c-0.5,0.6-1.1,1-1.7,1.2l-0.4-0.4c0.8-0.3,1.6-0.9,2.1-1.7
			v-0.1h-0.9v1.1h-0.6v-1.5h1.5v-0.3h-1.9v-0.5h1.9v-0.4l0.3,0l-0.2-0.1c0.3-0.3,0.6-0.9,0.7-1.4l0.5,0.1c0.1,0,0.1,0,0.1,0.1
			c0,0.1-0.1,0.1-0.1,0.1c0,0.1-0.1,0.2-0.1,0.3h1.4V15h-0.6c-0.1,0.2-0.1,0.4-0.2,0.6l-0.4,0l0-0.6h-0.4c-0.1,0.2-0.2,0.3-0.3,0.5
			c0,0,0.1,0,0.1,0.1c0,0-0.1,0.1-0.1,0.1v0.2h1.9v0.5h-1.9v0.3h1.6v0.9c0,0.5-0.2,0.7-0.6,0.8l-0.3-0.4c0.4-0.1,0.4-0.3,0.4-0.8h-1
			v0.1c0.2,0.4,0.6,0.8,0.9,1c0.4,0.3,0.8,0.5,1.2,0.6L53,19.4z M50.5,15c0,0.2,0,0.3,0.1,0.5c-0.1,0-0.3,0.1-0.4,0.1
			C50,15.4,50,15.2,49.9,15h-0.2c-0.2,0.3-0.4,0.5-0.6,0.7l-0.4-0.3c0.4-0.4,0.7-0.9,0.9-1.5l0.6,0.1c0,0,0.1,0,0.1,0.1
			c0,0.1-0.1,0.1-0.1,0.1c0,0.1-0.1,0.2-0.1,0.3h1V15H50.5z"/>
		<path class="st1" d="M58.2,16.9C58.1,16.9,58.1,16.9,58.2,16.9c-0.4,0.1-1.2,0.4-1.5,0.5v0.9l-0.6,0c0-0.1,0-0.2,0-0.3v-0.3
			c-0.4,0.2-0.6,0.4-0.6,0.7c0,0.2,0.2,0.4,0.7,0.4c0.5,0,1-0.1,1.5-0.2l0,0.7c-0.4,0.2-0.9,0.2-1.3,0.2c-1,0-1.5-0.3-1.5-1
			c0-0.3,0.1-0.6,0.4-0.9c0.2-0.2,0.4-0.3,0.8-0.5c0-0.3-0.1-0.4-0.2-0.4c-0.2,0-0.4,0.1-0.5,0.2c-0.1,0.1-0.2,0.2-0.4,0.4
			c-0.2,0.2-0.3,0.4-0.4,0.4c-0.1-0.1-0.2-0.3-0.4-0.5c0.6-0.4,1-1,1.3-1.6c-0.3,0-0.6,0.1-0.9,0.1c0-0.2-0.1-0.4-0.1-0.6
			c0.5,0,0.9,0,1.2-0.1c0.1-0.2,0.1-0.4,0.2-0.8l0.7,0.2c0,0,0.1,0,0.1,0.1c0,0,0,0.1-0.1,0.1c0,0.1-0.1,0.3-0.1,0.5
			c0.2,0,0.6-0.1,1-0.2l-0.1,0.7c-0.3,0.1-0.7,0.1-1.1,0.2c-0.1,0.2-0.2,0.4-0.3,0.6c0.1,0,0.2,0,0.3,0c0.3,0,0.5,0.2,0.6,0.6
			c0.4-0.2,0.9-0.4,1.4-0.7L58.2,16.9C58.2,16.9,58.2,16.9,58.2,16.9z"/>
		<path class="st1" d="M45.1,11.5c-0.2,0-0.4,0-0.6,0.1c-0.2-0.7-0.3-1.6-0.3-2.3c0-0.9,0.1-1.8,0.3-2.6L45,6.7c0.1,0,0.2,0,0.2,0.1
			c0,0,0.1,0,0.1,0.1s0,0.1-0.1,0.1c-0.2,0.9-0.3,1.8-0.3,2.7c0,0.2,0,0.4,0,0.7c0.1-0.3,0.2-0.6,0.3-0.8c0.1,0.1,0.3,0.2,0.4,0.4
			C45.4,10.4,45.2,10.9,45.1,11.5z M48.4,11.2c-0.3,0.1-0.7,0.1-0.9,0.1c-0.7,0-1.4-0.1-1.5-1.3c0.2-0.1,0.3-0.3,0.5-0.4
			c0,0.6,0.3,0.9,0.8,0.9c0.4,0,0.8,0,1.2-0.1C48.4,10.7,48.4,10.9,48.4,11.2z M48.2,7.9c-0.4-0.1-0.8-0.1-1.2-0.1
			c-0.3,0-0.6,0.1-0.8,0.1c0-0.2,0-0.5-0.1-0.7c0.4-0.1,0.8-0.1,1.2-0.1c0.3,0,0.7,0,1,0C48.3,7.4,48.2,7.6,48.2,7.9z"/>
	</g>
</g>
</svg>
