<?xml version="1.0" encoding="utf-8"?>
<!-- Generator: Adobe Illustrator 24.0.3, SVG Export Plug-In . SVG Version: 6.00 Build 0)  -->
<svg version="1.1" id="レイヤー_1" xmlns="http://www.w3.org/2000/svg" xmlns:xlink="http://www.w3.org/1999/xlink" x="0px"
	 y="0px" viewBox="0 0 69.6 69.6" style="enable-background:new 0 0 69.6 69.6;" xml:space="preserve">
<style type="text/css">
	.st0{fill:#ED6A02;}
	.st1{fill:#FFFFFF;}
</style>
<g>
	<rect class="st0" width="69.6" height="69.6"/>
	<g>
		<path class="st1" d="M6.5,18.7c-0.5-0.6-0.8-1.4-0.8-2.5v-0.2h2.4c0,0.6,0.1,1,0.2,1.3c0.1,0.3,0.4,0.4,0.8,0.4
			c0.3,0,0.5-0.1,0.6-0.2c0.1-0.2,0.2-0.4,0.3-0.8c0.1-0.4,0.1-0.9,0.1-1.6v-1.3c-0.1,0.2-0.4,0.4-0.7,0.6c-0.3,0.1-0.7,0.2-1.1,0.2
			c-1,0-1.7-0.4-2.1-1.1c-0.4-0.7-0.7-1.7-0.7-2.9c0-3,1.2-4.5,3.6-4.5c1.2,0,2.1,0.4,2.7,1.1c0.6,0.8,0.9,1.8,0.9,3.1V15
			c0,1.4-0.3,2.5-0.8,3.3c-0.5,0.8-1.5,1.2-2.8,1.2C7.8,19.5,7,19.2,6.5,18.7z M10,11.8V9.7c0-0.6-0.1-1-0.2-1.4
			C9.6,7.9,9.4,7.8,9,7.8C8.6,7.8,8.4,8,8.2,8.3C8.1,8.7,8,9.3,8,10.1c0,0.6,0,1,0,1.3c0,0.3,0.1,0.5,0.3,0.7
			c0.1,0.2,0.4,0.3,0.7,0.3C9.4,12.4,9.8,12.2,10,11.8z"/>
	</g>
	<path class="st1" d="M52.7,45.8L44.3,41v-9.6c0-0.2-0.1-0.4-0.3-0.5l-8.6-5c-0.2-0.1-0.4-0.1-0.6,0l-8.6,5C26.1,31,26,31.2,26,31.4
		V41l-8.3,4.8c-0.2,0.1-0.3,0.3-0.3,0.5v9.9c0,0.2,0.1,0.4,0.3,0.5l8.6,5c0.1,0.1,0.2,0.1,0.3,0.1c0.1,0,0.2,0,0.3-0.1l8.3-4.8
		l8.3,4.8c0.1,0.1,0.2,0.1,0.3,0.1c0.1,0,0.2,0,0.3-0.1l8.6-5c0.2-0.1,0.3-0.3,0.3-0.5v-9.9C52.9,46.1,52.8,45.9,52.7,45.8z
		 M34.6,55.2l-6.9-4l6.9-4V55.2z M42.6,41.3l-6.9,4v-8L42.6,41.3z M34.6,45.3l-6.9-4l6.9-4V45.3z M36.3,46.3l7.5-4.3l7.5,4.3
		l-7.5,4.3L36.3,46.3z M43.2,40.3l-6.9-4l6.9-4V40.3z M34,36.4l-6.9,4v-8L34,36.4z M26,60.2l-7.5-4.3v-8.6l7.5,4.3V60.2z M27.2,60.2
		v-8l6.9,4L27.2,60.2z M51.8,55.9l-7.5,4.3v-8.6l7.5-4.3V55.9z"/>
	<g>
		<path class="st1" d="M20.5,8.5c0,0.2,0,0.3,0,0.5c0,0.6-0.1,1.3-0.2,1.9c-0.1,0.2-0.2,0.6-0.4,0.8l-0.5-0.3
			c0.4-0.6,0.5-1.5,0.5-2.2c0-0.4,0-0.7,0-1.1h1c-0.1-0.2-0.2-0.4-0.3-0.5L21,7.3h-1.1V6.8h1.7V6.1l0.6,0c0,0,0.1,0,0.1,0.1
			c0,0,0,0.1-0.1,0.1v0.4h1.7v0.5h-1.2l0.3,0.1c0,0,0.1,0,0.1,0.1c0,0,0,0.1-0.1,0.1C23,7.7,22.9,7.9,22.9,8h1.3v0.5H20.5z
			 M20.5,11.6v-0.5h1.5v-0.5h-0.8v-0.5h0.8V9.6h-0.6c-0.1,0.3-0.2,0.6-0.4,0.9l-0.4-0.3c0.2-0.5,0.4-1.1,0.4-1.6l0.5,0.2
			c0,0,0.1,0,0.1,0.1c0,0,0,0.1-0.1,0.1c0,0.1,0,0.1-0.1,0.2h0.5V8.6l0.6,0.1c0,0,0.1,0,0.1,0.1c0,0.1-0.1,0.1-0.1,0.1v0.3h1.3v0.5
			h-1.3v0.4h1.1v0.5h-1.1v0.5H24v0.5H20.5z M21.3,7.3c0.1,0.2,0.2,0.5,0.2,0.8c-0.1,0-0.2,0.1-0.3,0h1.1c0.1-0.2,0.1-0.5,0.2-0.7
			H21.3z"/>
		<path class="st1" d="M29.4,11.7c-0.6-0.2-1.4-0.5-1.8-1.1v1.2H27v-1.2c-0.4,0.5-1.2,0.9-1.8,1.1l-0.3-0.5c0.5-0.2,1.3-0.4,1.7-0.9
			h-1.5V9.7H27V9.5h-1.4V9H27V8.8h-1.7V8.3h1.1c-0.1-0.1-0.1-0.3-0.2-0.4H25V7.4h0.9c-0.1-0.2-0.3-0.5-0.4-0.7L26,6.4
			c0.1,0.3,0.2,0.6,0.4,0.9l-0.3,0.1h0.5V6.3l0.6,0.1c0,0,0.1,0,0.1,0.1c0,0,0,0.1-0.1,0.1v0.9h0.3V6.2l0.6,0c0,0,0.1,0,0.1,0.1
			c0,0-0.1,0.1-0.1,0.1v0.9h0.4l-0.3-0.1c0.1-0.3,0.2-0.6,0.3-0.9l0.6,0.3c0,0,0.1,0,0.1,0.1c0,0.1-0.1,0.1-0.1,0.1
			c-0.1,0.2-0.3,0.4-0.4,0.6h0.9v0.5h-1.1c-0.1,0.1-0.2,0.3-0.2,0.4h1.2v0.5h-1.8V9H29v0.4h-1.5v0.2h1.9v0.5H28
			c0.3,0.4,1.3,0.8,1.8,0.9L29.4,11.7z M26.8,7.9l0.1,0.4h0.8c0-0.1,0.1-0.3,0.1-0.4H26.8z"/>
		<path class="st1" d="M32.7,11.6c-0.7,0-1.9-0.1-1.9-1.3c0-0.8,0.6-1.3,1.2-1.5c-0.2-0.7-0.2-1.4-0.2-2.1c0.2,0,0.3,0,0.5,0
			c0.1,0,0.2,0,0.2,0c0,0,0.1,0,0.1,0.1c0,0,0,0,0,0.1c0,0.2,0,0.4,0,0.5c0,0.2,0,0.9,0.1,1.1c0,0,0,0,0,0c0.2,0,1.1-0.4,1.3-0.5
			C33.9,8.2,34,8.5,34,8.8c-0.6,0.1-2.6,0.5-2.6,1.5c0,0.6,0.7,0.7,1.1,0.7c0.6,0,1.1-0.1,1.6-0.3c0,0.2,0.1,0.5,0.1,0.8
			C33.7,11.6,33.2,11.6,32.7,11.6z"/>
		<path class="st1" d="M36.8,9.3v1.3c0,0.6-0.2,1-0.6,1.3l-0.4-0.4c0.4-0.2,0.5-0.5,0.5-1v-1c-0.1,0.1-0.3,0.2-0.4,0.3
			c0,0,0,0.1-0.1,0.1c0,0,0,0-0.1-0.1l-0.2-0.7C35.7,9.1,36,9,36.2,8.9V8h-0.6V7.5h0.6V6.3l0.6,0.1c0,0,0.1,0,0.1,0.1
			c0,0,0,0.1-0.1,0.1v0.9h0.4V8h-0.4v0.7l0.4-0.2V9C37,9.1,36.9,9.2,36.8,9.3z M39.9,11.8c-0.5-0.2-0.9-0.5-1.3-0.9
			c-0.4,0.4-0.9,0.7-1.3,0.9l-0.4-0.5c0.5-0.1,1-0.4,1.4-0.8c-0.3-0.4-0.5-0.8-0.7-1.2L37.7,9h-0.4V8.5h0.9V7.7h-1V7.2h1V6.3
			l0.6,0.1c0,0,0.1,0,0.1,0.1c0,0-0.1,0.1-0.1,0.1v0.6h1.2v0.5h-1.3v0.8h1v0.4c0,0-0.1,0.2-0.1,0.3c-0.2,0.5-0.4,1-0.7,1.4
			c0.3,0.4,0.9,0.6,1.3,0.8L39.9,11.8z M38,9c0.1,0.4,0.3,0.8,0.6,1.1C38.8,9.8,39,9.4,39.1,9H38z"/>
		<path class="st1" d="M43.4,8.3v3.5h-0.6V8.3h-0.6V8.2c-0.1,0.2-0.2,0.5-0.4,0.7v2.9h-0.6V9.6c-0.1,0.1-0.2,0.2-0.3,0.3l-0.3-0.5
			c0.5-0.5,0.9-1.1,1.1-1.8L42.2,8V7.8h0.6V6.5l0.6,0.1c0,0,0.1,0,0.1,0.1c0,0.1-0.1,0.1-0.1,0.1v1.1h0.7v0.5H43.4z M42.2,7
			c-0.3,0.4-0.6,0.8-1,1.1l-0.4-0.4c0.4-0.3,0.7-0.8,0.9-1.3l0.5,0.4c0,0,0.1,0,0.1,0.1C42.3,7,42.2,7,42.2,7z M42.7,9.1
			c0,0.5-0.1,1.6-0.3,2.1L42,10.8c0.2-0.7,0.2-1.4,0.2-2L42.7,9C42.7,9,42.8,9,42.7,9.1C42.8,9.1,42.7,9.1,42.7,9.1z M43.9,10.8
			c-0.2-0.5-0.2-1.2-0.3-1.8L44,8.9c0,0.6,0.1,1.1,0.3,1.7L43.9,10.8z M44.3,7.4V6.9c0,0,0,0-0.1,0c-0.1,0.2-0.2,0.4-0.2,0.7
			l-0.4-0.2c0.1-0.3,0.1-0.5,0.2-0.8l0.5,0.2l0,0V6.8h1.1v0.6H44.3z M45.1,8.8v1.9c0,0.6-0.2,0.9-0.7,1.1L44,11.4
			c0.3-0.1,0.5-0.3,0.5-0.7V8.8h-0.4V8.3h1.4v0.5H45.1z"/>
		<path class="st1" d="M48.7,11v0.9h-0.6V11h-2v-0.5h2v-0.4h-1.4V8.5h1.4V8.2h-0.8V7.4h-1.1V6.9h1V6.3l0.6,0c0,0,0.1,0,0.1,0.1
			c0,0-0.1,0.1-0.1,0.1v0.4h1V6.3l0.6,0c0,0,0.1,0,0.1,0.1c0,0-0.1,0.1-0.1,0.1v0.4h1v0.5h-1v0.7h-0.8v0.3h1.5v1.6h-1.5v0.4h2V11
			H48.7z M48.2,8.9h-0.9v0.7h0.9V8.9z M49,7.4h-1v0.3h1V7.4z M49.6,8.9h-0.9v0.7h0.9V8.9z"/>
		<path class="st1" d="M53,8.8l0,0.4h0.8v0.5h-0.7c0.2,0.3,0.4,0.5,0.6,0.6l-0.3,0.4c-0.2-0.1-0.3-0.2-0.4-0.4v1.5h-0.5v-1.4
			c-0.2,0.3-0.4,0.6-0.7,0.8l-0.4-0.4c0.3-0.3,0.7-0.6,0.9-1.1h-0.7V9.2h0.9V8.8h-0.9V8.4h0.6c-0.1-0.2-0.2-0.5-0.3-0.7l0.4-0.1
			h-0.6V7h0.8V6.3l0.6,0c0,0,0.1,0,0.1,0.1c0,0.1,0,0.1-0.1,0.1V7h0.7v0.5h-0.6l0.3,0.2c0,0,0,0,0,0.1c0,0.1-0.1,0.1-0.1,0.1
			c-0.1,0.2-0.1,0.3-0.2,0.5h0.5v0.5H53z M52.5,7.6c0.1,0.2,0.2,0.7,0.2,1c-0.1,0-0.3-0.2-0.4-0.1h0.5C52.9,8.1,53,7.8,53,7.6H52.5z
			 M55.5,8.9v2.9H55V8.9h-0.4c0,1-0.2,2.3-0.9,2.9l-0.4-0.4C54,10.7,54,9.6,54,8.6c0-0.6,0-1.1,0-1.7l0.3,0c0.1,0,0.2,0,0.3-0.1
			c0.2-0.1,0.7-0.3,0.9-0.4l0.4,0.7c0,0.1,0,0.1-0.1,0.1c0,0-0.1,0-0.1,0c-0.4,0.1-0.8,0.1-1.2,0.2v0.9H56v0.5H55.5z"/>
		<path class="st1" d="M59.3,11.6c-0.2-0.2-0.3-0.4-0.4-0.5c0.8-0.2,1.5-0.6,1.5-1.7c0-0.8-0.4-1.5-1-1.7c-0.1,1.1-0.4,2.8-1.2,3.4
			c-0.1,0.1-0.3,0.2-0.5,0.2c-0.2,0-0.4-0.2-0.5-0.4c-0.2-0.3-0.3-0.8-0.3-1.3c0-1.5,1-2.6,2.2-2.6c1.1,0,2,0.8,2,2.2
			C61,10.6,60.3,11.3,59.3,11.6z M57.5,8.8c-0.1,0.3-0.1,0.6-0.1,0.8c0,0.3,0,0.9,0.3,0.9c0.1,0,0.2-0.1,0.2-0.2
			c0.5-0.6,0.7-1.9,0.7-2.7C58.2,7.8,57.7,8.2,57.5,8.8z"/>
		<path class="st1" d="M23.9,18.3c-0.3-0.1-0.6-0.3-0.9-0.5v0.4h-1v0.4h1.5V19h-3.6v-0.5h1.5v-0.4h-0.9v-0.4
			c-0.3,0.2-0.6,0.4-0.9,0.6l-0.3-0.5c0.5-0.2,1-0.5,1.3-1h-1.2v-0.5h1.1v-1.6h-0.9v-0.5h0.9v-0.6l0.6,0c0,0,0.1,0,0.1,0.1
			c0,0,0,0.1-0.1,0.1v0.4h1.3v-0.6l0.6,0c0,0,0.1,0,0.1,0.1c0,0,0,0.1-0.1,0.1v0.4h0.8v0.5h-0.8v1.6h1v0.5h-1.2
			c0.3,0.4,1,0.7,1.4,0.9L23.9,18.3z M22.2,16.8h-0.8c-0.2,0.3-0.5,0.6-0.7,0.8h0.8v-0.5l0.6,0c0,0,0.1,0,0.1,0.1c0,0,0,0.1-0.1,0.1
			v0.3h0.8C22.7,17.4,22.4,17.2,22.2,16.8z M22.5,14.8h-1.3V15h1.3V14.8z M22.5,15.5h-1.3v0.2h1.3V15.5z M22.5,16.1h-1.3v0.3h1.3
			V16.1z"/>
		<path class="st1" d="M29.5,17.2c-0.4-0.1-0.8-0.2-1.1-0.5c-0.3,0.2-0.6,0.3-0.9,0.4l-0.3-0.4c-0.1,0.3-0.3,0.4-0.5,0.4l-0.3-0.4
			c0.3-0.1,0.4-0.2,0.4-0.5v-0.7l-0.2,0v1h-0.4v-0.9l-0.1,0c0,0.6-0.1,1.2-0.5,1.6L25.1,17c0.3-0.3,0.4-0.8,0.4-1.3
			c-0.1,0-0.2,0-0.2,0.1c0,0,0,0.1-0.1,0.1c0,0-0.1,0-0.1-0.1L25,15.2c0.2,0,0.3,0,0.5,0c0-0.4,0-0.8,0-1.2H26
			c0.1-0.2,0.1-0.3,0.2-0.5l0.6,0.1c0,0,0.1,0,0.1,0.1c0,0.1-0.1,0.1-0.1,0.1c-0.1,0.1-0.1,0.1-0.2,0.2h0.7v2.1c0,0.2,0,0.4-0.1,0.5
			c0.3-0.1,0.5-0.2,0.8-0.3c-0.2-0.1-0.3-0.3-0.4-0.5c0.1-0.1,0.1-0.1,0.2-0.1h-0.4v-0.4h0.4l-0.4-0.2c0.2-0.3,0.2-0.5,0.2-0.9
			c0-0.1,0-0.3,0-0.4H29c0,0.2,0,0.5,0,0.7c0,0.1,0,0.2,0.2,0.2c0.2,0,0.4-0.2,0.6-0.3l0,0.6c-0.2,0.1-0.4,0.2-0.6,0.2
			c-0.4,0-0.6,0-0.6-0.5c0-0.1,0-0.3,0-0.4H28c0,0.4-0.1,0.8-0.3,1h1.7v0.3c-0.1,0.3-0.4,0.5-0.6,0.7c0.3,0.2,0.7,0.3,1,0.3
			L29.5,17.2z M25.1,19v-0.5h0.6v-1.4h3.4v1.4h0.5V19H25.1z M26.7,14.4H26v0.3c0.1-0.1,0.2-0.2,0.4-0.2c0.1,0.1,0.2,0.3,0.3,0.4
			l-0.3,0.3l0.3,0V14.4z M26,14.7v0.5l0.3,0C26.2,15,26.1,14.9,26,14.7z M26.7,17.6h-0.4v0.9h0.4V17.6z M27.6,17.6h-0.4v0.9h0.4
			V17.6z M28,15.7c0.1,0.1,0.2,0.2,0.4,0.3c0.1-0.1,0.2-0.2,0.3-0.3H28z M28.5,17.6h-0.4v0.9h0.4V17.6z"/>
		<path class="st1" d="M34.7,16.4C34.6,16.4,34.6,16.4,34.7,16.4c-0.4,0.1-1.2,0.4-1.5,0.5v0.9l-0.6,0c0-0.1,0-0.2,0-0.3v-0.3
			C32.2,17.4,32,17.7,32,18c0,0.2,0.2,0.4,0.7,0.4c0.5,0,1-0.1,1.5-0.2l0,0.7c-0.4,0.2-0.9,0.2-1.3,0.2c-1,0-1.5-0.3-1.5-1
			c0-0.3,0.1-0.6,0.4-0.9c0.2-0.2,0.4-0.3,0.8-0.5c0-0.3-0.1-0.4-0.2-0.4c-0.2,0-0.4,0.1-0.5,0.2c-0.1,0.1-0.2,0.2-0.4,0.4
			c-0.2,0.2-0.3,0.4-0.4,0.4c-0.1-0.1-0.2-0.3-0.4-0.5c0.6-0.4,1-1,1.3-1.6c-0.3,0-0.6,0.1-0.9,0.1c0-0.2-0.1-0.4-0.1-0.6
			c0.5,0,0.9,0,1.2-0.1c0.1-0.2,0.1-0.4,0.2-0.8l0.7,0.2c0,0,0.1,0,0.1,0.1s0,0.1-0.1,0.1c0,0.1-0.1,0.3-0.1,0.5
			c0.2,0,0.6-0.1,1-0.2L33.7,15c-0.3,0.1-0.7,0.1-1.1,0.2c-0.1,0.2-0.2,0.4-0.3,0.6c0.1,0,0.2,0,0.3,0c0.3,0,0.5,0.2,0.6,0.6
			c0.4-0.2,0.9-0.4,1.4-0.7L34.7,16.4C34.7,16.4,34.7,16.4,34.7,16.4z"/>
		<path class="st1" d="M38.6,18.4c-0.3,0.1-0.6,0.2-0.9,0.2c-0.2-0.2-0.3-0.4-0.5-0.6c0.4-0.1,0.8-0.2,1.2-0.3
			c0.6-0.2,1.1-0.6,1.1-1.4c0-0.8-0.4-1-1-1c-0.8,0-1.6,0.6-2.4,0.9c0-0.1-0.3-0.7-0.3-0.8c0-0.1,0.1,0,0.1,0c0.4,0,0.8-0.2,1.2-0.3
			c0.5-0.2,1-0.4,1.5-0.4c0.8,0,1.5,0.6,1.5,1.6C40.1,17.5,39.5,18.1,38.6,18.4z"/>
		<path class="st1" d="M43.8,19c-0.4-0.7-1-1.2-1.5-1.7c-0.1-0.1-0.3-0.3-0.4-0.4c-0.1-0.1-0.2-0.1-0.3-0.2
			c-0.1-0.1-0.1-0.2-0.1-0.3c0-0.2,0.1-0.4,0.2-0.5c0.2-0.3,0.5-0.5,0.7-0.8c0.4-0.4,0.7-0.8,1.1-1.2c0.1,0.1,0.3,0.2,0.4,0.4
			c0.1,0,0.1,0.1,0.2,0.1c0,0,0,0,0,0.1c0,0.1-0.1,0.1-0.2,0.1c-0.3,0.3-0.7,0.6-1,1c-0.1,0.1-0.3,0.3-0.4,0.4
			c-0.1,0.1-0.1,0.1-0.2,0.2c-0.1,0.1-0.1,0.1-0.1,0.2c0,0.1,0,0.1,0.1,0.2c0.2,0.2,0.5,0.4,0.7,0.6c0.5,0.4,1,0.9,1.4,1.5
			C44.1,18.7,43.9,18.9,43.8,19z"/>
		<path class="st1" d="M47.1,19c-0.1-0.2-0.2-0.3-0.3-0.5c0,0,0,0,0-0.1c0,0,0,0,0,0c0.3,0,0.5,0,0.8-0.1c0.5-0.1,1-0.4,1-1.1
			c0-0.6-0.4-0.8-0.8-0.8c-0.6,0-1,0.4-1.3,0.8c-0.2,0.3-0.4,0.5-0.6,0.8c-0.2-0.2-0.3-0.3-0.5-0.5c0.6-0.7,1-1.3,1.5-2
			c0.1-0.2,0.4-0.5,0.4-0.8c-0.1,0-0.3,0.1-0.4,0.1c-0.2,0.1-0.5,0.1-0.7,0.2c0-0.2-0.1-0.5-0.1-0.7c0.6-0.1,1.1-0.1,1.7-0.3
			c0.1,0,0.2-0.1,0.4-0.1c0,0.1,0.3,0.5,0.3,0.5c0,0.1-0.1,0.1-0.1,0.1c-0.2,0.1-0.9,1.1-1,1.4c0.2-0.1,0.4-0.1,0.7-0.1
			c0.8,0,1.4,0.5,1.4,1.4C49.3,18.5,48,18.9,47.1,19z"/>
		<path class="st1" d="M51.7,19.1c-0.2-0.2-0.4-0.4-0.6-0.5c0.5-0.2,1.2-0.5,1.5-1.1c0.1-0.3,0.2-0.6,0.2-0.9c0-0.5-0.2-0.9-0.6-0.9
			c-0.3,0-1.1,0.4-1.4,0.7c0-0.1-0.3-0.7-0.3-0.8c0,0,0.1,0,0.1,0c0.1,0,0.5-0.1,0.6-0.2c0.4-0.1,0.8-0.3,1.2-0.3
			c0.8,0,1.2,0.7,1.2,1.6C53.5,17.9,52.6,18.7,51.7,19.1z M52.6,14.7c-0.5-0.2-0.9-0.4-1.4-0.6c0.1-0.2,0.2-0.4,0.3-0.7
			c0.5,0.1,1,0.3,1.5,0.6C52.8,14.2,52.7,14.4,52.6,14.7z"/>
	</g>
</g>
</svg>
