<?xml version="1.0" encoding="utf-8"?>
<!-- Generator: Adobe Illustrator 24.0.3, SVG Export Plug-In . SVG Version: 6.00 Build 0)  -->
<svg version="1.1" id="レイヤー_1" xmlns="http://www.w3.org/2000/svg" xmlns:xlink="http://www.w3.org/1999/xlink" x="0px"
	 y="0px" viewBox="0 0 650 340" style="enable-background:new 0 0 650 340;" xml:space="preserve">
<style type="text/css">
	.st0{clip-path:url(#SVGID_2_);}
	.st1{fill:#FFFFFF;}
	.st2{fill:#00A6D9;}
	.st3{fill:#808080;}
	.st4{fill:#19205E;}
	.st5{fill:#F2A38C;}
	.st6{fill:#1D2087;}
	.st7{fill:#C8C9CA;}
	.st8{fill:#E68569;}
	.st9{fill:#CECAE4;}
	.st10{opacity:0.5;fill:#CECAE4;}
	.st11{fill:#F5A700;}
	.st12{fill:#F9C149;}
</style>
<g>
	<defs>
		<rect id="SVGID_1_" width="650" height="340"/>
	</defs>
	<use xlink:href="#SVGID_1_"  style="overflow:visible;fill:#D1EFF8;"/>
	<clipPath id="SVGID_2_">
		<use xlink:href="#SVGID_1_"  style="overflow:visible;"/>
	</clipPath>
	<g class="st0">
		<defs>
			<rect id="SVGID_3_" x="-95" width="745" height="322"/>
		</defs>
		<clipPath id="SVGID_4_">
			<use xlink:href="#SVGID_3_"  style="overflow:visible;"/>
		</clipPath>
	</g>
</g>
<g>
	<g>
		<g>
			<g>
				<g>
					<polygon class="st1" points="185.7,183.9 185.7,136.2 113.7,183.9 113.7,254.9 257.7,254.9 257.7,183.9 257.7,136.2 					"/>
					<path class="st2" d="M257.7,256.1H113.7c-0.6,0-1.2-0.5-1.2-1.2v-71c0-0.4,0.2-0.8,0.5-1l72-47.7c0.4-0.2,0.8-0.3,1.2-0.1
						c0.4,0.2,0.6,0.6,0.6,1v45.5l70.1-46.5c0.4-0.2,0.8-0.3,1.2-0.1c0.4,0.2,0.6,0.6,0.6,1v118.7
						C258.8,255.6,258.3,256.1,257.7,256.1z M114.9,253.7h141.6V138.4l-70.1,46.5c-0.4,0.2-0.8,0.3-1.2,0.1c-0.4-0.2-0.6-0.6-0.6-1
						v-45.5l-69.6,46.1V253.7z"/>
				</g>
				<g>
					<g>
						<path class="st2" d="M139.5,212.7h-9.7c-0.4,0-0.8-0.3-0.8-0.8v-13c0-0.4,0.3-0.8,0.8-0.8h9.7c0.4,0,0.8,0.3,0.8,0.8v13
							C140.2,212.4,139.9,212.7,139.5,212.7z M130.6,211.2h8.2v-11.5h-8.2V211.2z"/>
						<path class="st2" d="M156,212.7h-9.7c-0.4,0-0.8-0.3-0.8-0.8v-13c0-0.4,0.3-0.8,0.8-0.8h9.7c0.4,0,0.8,0.3,0.8,0.8v13
							C156.7,212.4,156.4,212.7,156,212.7z M147.1,211.2h8.2v-11.5h-8.2V211.2z"/>
						<path class="st2" d="M172.5,212.7h-9.7c-0.4,0-0.8-0.3-0.8-0.8v-13c0-0.4,0.3-0.8,0.8-0.8h9.7c0.4,0,0.8,0.3,0.8,0.8v13
							C173.2,212.4,172.9,212.7,172.5,212.7z M163.6,211.2h8.2v-11.5h-8.2V211.2z"/>
					</g>
					<g>
						<path class="st2" d="M206.2,225.3h-9.7c-0.4,0-0.8-0.3-0.8-0.8v-13c0-0.4,0.3-0.8,0.8-0.8h9.7c0.4,0,0.8,0.3,0.8,0.8v13
							C207,225,206.6,225.3,206.2,225.3z M197.3,223.8h8.2v-11.5h-8.2V223.8z"/>
						<path class="st2" d="M222.7,225.3h-9.7c-0.4,0-0.8-0.3-0.8-0.8v-13c0-0.4,0.3-0.8,0.8-0.8h9.7c0.4,0,0.8,0.3,0.8,0.8v13
							C223.5,225,223.1,225.3,222.7,225.3z M213.8,223.8h8.2v-11.5h-8.2V223.8z"/>
						<path class="st2" d="M239.2,225.3h-9.7c-0.4,0-0.8-0.3-0.8-0.8v-13c0-0.4,0.3-0.8,0.8-0.8h9.7c0.4,0,0.8,0.3,0.8,0.8v13
							C240,225,239.6,225.3,239.2,225.3z M230.3,223.8h8.2v-11.5h-8.2V223.8z"/>
					</g>
				</g>
			</g>
			<g>
				<g>
					<polygon class="st1" points="465.5,183.9 465.5,136.2 537.4,183.9 537.4,254.9 393.5,254.9 393.5,183.9 393.5,136.2 					"/>
					<path class="st2" d="M537.4,256.1H393.5c-0.6,0-1.2-0.5-1.2-1.2V136.2c0-0.4,0.2-0.8,0.6-1c0.4-0.2,0.8-0.2,1.2,0.1l70.1,46.5
						v-45.5c0-0.4,0.2-0.8,0.6-1c0.4-0.2,0.8-0.2,1.2,0.1l72,47.7c0.3,0.2,0.5,0.6,0.5,1v71C538.6,255.6,538.1,256.1,537.4,256.1z
						 M394.7,253.7h141.6v-69.2l-69.6-46.1v45.5c0,0.4-0.2,0.8-0.6,1c-0.4,0.2-0.8,0.2-1.2-0.1l-70.1-46.5V253.7z"/>
				</g>
				<g>
					<g>
						<path class="st2" d="M521.3,212.7h-9.7c-0.4,0-0.8-0.3-0.8-0.8v-13c0-0.4,0.3-0.8,0.8-0.8h9.7c0.4,0,0.8,0.3,0.8,0.8v13
							C522.1,212.4,521.8,212.7,521.3,212.7z M512.4,211.2h8.2v-11.5h-8.2V211.2z"/>
						<path class="st2" d="M504.8,212.7h-9.7c-0.4,0-0.8-0.3-0.8-0.8v-13c0-0.4,0.3-0.8,0.8-0.8h9.7c0.4,0,0.8,0.3,0.8,0.8v13
							C505.6,212.4,505.3,212.7,504.8,212.7z M495.9,211.2h8.2v-11.5h-8.2V211.2z"/>
						<path class="st2" d="M488.3,212.7h-9.7c-0.4,0-0.8-0.3-0.8-0.8v-13c0-0.4,0.3-0.8,0.8-0.8h9.7c0.4,0,0.8,0.3,0.8,0.8v13
							C489.1,212.4,488.8,212.7,488.3,212.7z M479.4,211.2h8.2v-11.5h-8.2V211.2z"/>
					</g>
					<g>
						<path class="st2" d="M454.6,199.2H445c-0.4,0-0.8-0.3-0.8-0.8v-13c0-0.4,0.3-0.8,0.8-0.8h9.7c0.4,0,0.8,0.3,0.8,0.8v13
							C455.4,198.9,455,199.2,454.6,199.2z M445.7,197.7h8.2v-11.5h-8.2V197.7z"/>
						<path class="st2" d="M438.1,199.2h-9.7c-0.4,0-0.8-0.3-0.8-0.8v-13c0-0.4,0.3-0.8,0.8-0.8h9.7c0.4,0,0.8,0.3,0.8,0.8v13
							C438.9,198.9,438.5,199.2,438.1,199.2z M429.2,197.7h8.2v-11.5h-8.2V197.7z"/>
						<path class="st2" d="M421.6,199.2H412c-0.4,0-0.8-0.3-0.8-0.8v-13c0-0.4,0.3-0.8,0.8-0.8h9.7c0.4,0,0.8,0.3,0.8,0.8v13
							C422.4,198.9,422,199.2,421.6,199.2z M412.7,197.7h8.2v-11.5h-8.2V197.7z"/>
					</g>
				</g>
			</g>
		</g>
		<g>
			<g>
				<path class="st3" d="M367.3,70.6c-0.9-3.1-3-5.5-5.6-6.9c1.8-2.7,2.4-6.2,1.4-9.6c-1.8-6.1-8.2-9.6-14.3-7.8
					c-6.1,1.8-9.6,8.2-7.8,14.3c0,0.2,0.1,0.3,0.2,0.5c-0.5,0.1-1.1,0.2-1.6,0.3c-4.4,1.3-7.5,5.1-8.1,9.4c-2-0.5-4.1-0.5-6.1,0.1
					c-1.6,0.5-3.1,1.3-4.3,2.4c-2.5-3.8-6.5-6.7-11.3-7.9c-10-2.3-20,3.9-22.3,13.9c-0.7,2.9-0.6,5.7,0,8.4
					c-7.6,0.8-14.3,6.4-16.1,14.3c-1.7,7.4,1.3,14.9,7,19.1c-6.2,1.6-11.3,6.4-12.8,13.1c-2.2,9.5,3.7,19,13.2,21.2
					c2.2,0.5,4.5,0.6,6.6,0.2c-0.1,0.4-0.2,0.7-0.3,1.1c-2.3,10,3.9,20,13.9,22.3c4.5,1.1,9.1,0.3,12.9-1.7
					c0.9,7.6,6.4,14.1,14.2,15.9c10,2.3,20-3.9,22.3-13.9c1.9-8-1.7-15.9-8.3-20c0.4-0.9,0.7-1.9,1-2.9c2.1-9-3.5-18-12.5-20.1
					c-1.7-0.4-3.4-0.5-5.1-0.4c0.3-0.8,0.6-1.7,0.8-2.5c1.1-4.6,0.3-9.1-1.7-13c5.1-1.1,9.5-4.8,11.2-10c1.5,0.2,3,0,4.5-0.4
					c6.1-1.8,9.6-8.2,7.8-14.3c0,0,0,0,0,0c4.8-1.5,7.9-5.8,8.1-10.6c1.8,0.4,3.7,0.3,5.6-0.2C365.6,83.2,369.1,76.7,367.3,70.6z"/>
				<path class="st3" d="M305.6,180.9c0.6,1.9,1.8,3.4,3.5,4.3c-1.1,1.7-1.5,3.9-0.9,6c1.1,3.8,5.1,6,8.9,4.8c3.8-1.1,6-5.1,4.8-8.9
					c0-0.1-0.1-0.2-0.1-0.3c0.3,0,0.7-0.1,1-0.2c2.8-0.8,4.7-3.2,5.1-5.8c1.2,0.3,2.5,0.3,3.8-0.1c1-0.3,1.9-0.8,2.7-1.5
					c1.6,2.4,4,4.2,7,4.9c6.2,1.4,12.5-2.4,13.9-8.7c0.4-1.8,0.4-3.6,0-5.3c4.8-0.5,8.9-4,10-8.9c1.1-4.6-0.8-9.2-4.4-11.9
					c3.8-1,7-4,8-8.1c1.4-5.9-2.3-11.8-8.2-13.2c-1.4-0.3-2.8-0.4-4.1-0.2c0.1-0.2,0.1-0.4,0.2-0.7c1.4-6.2-2.4-12.5-8.7-13.9
					c-2.8-0.7-5.6-0.2-8,1c-0.6-4.7-4-8.8-8.9-9.9c-6.2-1.4-12.5,2.4-13.9,8.7c-1.2,5,1.1,9.9,5.2,12.5c-0.2,0.6-0.5,1.2-0.6,1.8
					c-1.3,5.6,2.2,11.2,7.8,12.5c1.1,0.2,2.1,0.3,3.2,0.2c-0.2,0.5-0.4,1-0.5,1.6c-0.7,2.8-0.2,5.7,1.1,8.1c-3.2,0.7-5.9,3-6.9,6.3
					c-0.9-0.1-1.9,0-2.8,0.3c-3.8,1.1-6,5.1-4.8,8.9c0,0,0,0,0,0c-3,0.9-4.9,3.6-5,6.6c-1.1-0.2-2.3-0.2-3.5,0.1
					C306.7,173.1,304.5,177.1,305.6,180.9z"/>
				<g>
					<path class="st1" d="M361.9,267.9l-11.2-31.4c-3-8.4-4.5-17.2-4.5-26.1v-24.6c0-0.9-0.8-1.7-1.7-1.7h-37.9
						c-0.9,0-1.7,0.8-1.7,1.7v24.6c0,8.9-1.5,17.8-4.5,26.1l-11.2,31.4H361.9z"/>
					<g>
						<path class="st2" d="M363.5,267.4L352.3,236c-2.9-8.2-4.4-16.8-4.4-25.6v-24.6c0-1.9-1.5-3.4-3.4-3.4h-37.9
							c-1.9,0-3.4,1.5-3.4,3.4v24.6c0,8.7-1.5,17.3-4.4,25.6l-11.2,31.4c-0.2,0.5-0.1,1.1,0.2,1.5c0.3,0.4,0.8,0.7,1.4,0.7h72.6
							c0.6,0,1.1-0.3,1.4-0.7C363.6,268.5,363.7,267.9,363.5,267.4z M344.5,185.8v3.3h-37.9l0-3.3L344.5,185.8z M291.7,266.3
							l10.3-29.2c3.1-8.6,4.6-17.6,4.6-26.7l0-20.2h37.9v20.2c0,9.1,1.5,18.1,4.6,26.7l10.3,29.2H291.7z"/>
						<g>
							<path class="st2" d="M340.1,236.7c-3-8.5-4.5-17.3-4.5-26.3V207h1.2v3.4c0,8.9,1.5,17.6,4.5,26L340.1,236.7z"/>
							
								<rect x="343" y="241.1" transform="matrix(0.9421 -0.3353 0.3353 0.9421 -62.4284 129.4201)" class="st2" width="1.2" height="8.8"/>
						</g>
					</g>
				</g>
			</g>
			<g>
				<path class="st1" d="M313.8,139h-7.1v-2.2c0-1-0.1-1.7-0.3-1.9s-0.5-0.4-0.9-0.4c-0.5,0-0.8,0.2-1,0.6c-0.2,0.4-0.4,0.9-0.4,1.7
					c0,1,0.1,1.7,0.4,2.2c0.3,0.5,1,1.1,2.1,1.8c3.4,2,5.5,3.7,6.4,4.9c0.9,1.3,1.3,3.4,1.3,6.2c0,2.1-0.2,3.6-0.7,4.6
					c-0.5,1-1.4,1.8-2.8,2.5c-1.4,0.7-3,1-4.9,1c-2,0-3.8-0.4-5.2-1.2c-1.4-0.8-2.4-1.8-2.8-2.9c-0.4-1.2-0.7-2.9-0.7-5.1v-1.9h7.1
					v3.6c0,1.1,0.1,1.8,0.3,2.1c0.2,0.3,0.6,0.5,1.1,0.5s0.9-0.2,1.1-0.6c0.2-0.4,0.4-1,0.4-1.8c0-1.7-0.2-2.8-0.7-3.4
					c-0.5-0.5-1.7-1.4-3.6-2.7c-1.9-1.3-3.1-2.2-3.8-2.7c-0.6-0.6-1.1-1.3-1.5-2.3c-0.4-1-0.6-2.3-0.6-3.8c0-2.2,0.3-3.9,0.9-4.9
					c0.6-1,1.5-1.8,2.8-2.4c1.3-0.6,2.8-0.9,4.6-0.9c2,0,3.7,0.3,5.1,1s2.3,1.4,2.8,2.4c0.5,1,0.7,2.6,0.7,4.9V139z"/>
				<path class="st1" d="M333.1,143.9v5.9c0,2.2-0.1,3.7-0.3,4.7s-0.7,1.9-1.4,2.8c-0.7,0.9-1.6,1.5-2.7,1.9
					c-1.1,0.4-2.4,0.6-3.8,0.6c-1.6,0-3-0.2-4.1-0.5c-1.1-0.4-2-0.9-2.6-1.6c-0.6-0.7-1.1-1.6-1.3-2.6c-0.3-1-0.4-2.5-0.4-4.6v-6.1
					c0-2.2,0.2-4,0.7-5.2c0.5-1.3,1.3-2.3,2.6-3c1.3-0.8,2.9-1.1,4.8-1.1c1.6,0,3,0.2,4.2,0.7s2.1,1.1,2.7,1.9
					c0.6,0.8,1.1,1.6,1.3,2.4S333.1,142.2,333.1,143.9z M325.8,142.1c0-1.2-0.1-2-0.2-2.3c-0.1-0.3-0.4-0.5-0.8-0.5
					s-0.7,0.2-0.9,0.5s-0.2,1.1-0.2,2.3v10.8c0,1.1,0.1,1.9,0.2,2.2c0.1,0.3,0.4,0.5,0.8,0.5c0.4,0,0.7-0.2,0.9-0.5
					c0.1-0.3,0.2-1,0.2-2V142.1z"/>
				<path class="st1" d="M349.6,135.4l-2.9,11.5l3.5,12.5h-7.1c-0.7-3.2-1.2-5.9-1.6-8.2c-0.5,2.8-1,5.6-1.6,8.2h-6.1l3.1-12.5
					l-3.1-11.5h6.1c1,4.9,1.5,7.7,1.6,8.3c0.7-4.1,1.2-6.9,1.6-8.3H349.6z"/>
			</g>
		</g>
		<g>
			<path class="st1" d="M325.6,58.6L325.6,58.6c-43.3,0-78.4,35.1-78.4,78.4v78.4c0,43.3,35.1,78.4,78.4,78.4h0
				c43.3,0,78.4-35.1,78.4-78.4V137C404,93.7,368.9,58.6,325.6,58.6z M377.2,215.5c0,28.5-23.2,51.6-51.6,51.6s-51.6-23.2-51.6-51.6
				V137c0-28.5,23.2-51.6,51.6-51.6s51.6,23.2,51.6,51.6V215.5z"/>
			<g>
				<path class="st2" d="M325.6,295.6c-44.2,0-80.1-35.9-80.1-80.1V137c0-44.2,35.9-80.1,80.1-80.1c44.2,0,80.1,35.9,80.1,80.1v78.4
					C405.7,259.7,369.8,295.6,325.6,295.6z M325.6,60.3c-42.3,0-76.7,34.4-76.7,76.7v78.4c0,42.3,34.4,76.7,76.7,76.7
					s76.7-34.4,76.7-76.7V137C402.3,94.7,367.9,60.3,325.6,60.3z"/>
				<path class="st2" d="M325.6,268.8c-29.4,0-53.3-23.9-53.3-53.3V137c0-29.4,23.9-53.3,53.3-53.3c29.4,0,53.3,23.9,53.3,53.3v78.4
					C378.9,244.9,355,268.8,325.6,268.8z M325.6,87.1c-27.5,0-50,22.4-50,50v78.4c0,27.5,22.4,50,50,50s50-22.4,50-50V137
					C375.5,109.5,353.1,87.1,325.6,87.1z"/>
			</g>
		</g>
		<g>
			<g>
				<path class="st1" d="M261.2,64.9c0-3.8-3.1-6.8-6.8-6.8c-0.2,0-0.5,0-0.7,0c0-0.2,0-0.3,0-0.5c0-3.4-2.8-6.2-6.2-6.2
					c-1.9,0-3.6,0.9-4.7,2.2c-0.6-4.6-4.5-8.2-9.3-8.2c-5.2,0-9.4,4.2-9.4,9.4c0,0.6,0.1,1.3,0.2,1.9c-3.9,0.2-7.1,3.5-7.1,7.5
					c0,4.2,3.4,7.5,7.5,7.5h30v0C258.3,71.6,261.2,68.6,261.2,64.9z"/>
				<path class="st2" d="M254.7,72.8h-30c-4.7,0-8.6-3.8-8.6-8.6c0-4.1,3-7.6,6.9-8.4c0-0.3,0-0.6,0-1c0-5.8,4.7-10.4,10.4-10.4
					c4.6,0,8.6,3,10,7.3c1.2-0.8,2.6-1.3,4.1-1.3c3.8,0,6.9,2.9,7.2,6.6c4.2,0.2,7.6,3.7,7.6,7.9c0,4.2-3.2,7.6-7.4,7.9
					C254.9,72.8,254.8,72.8,254.7,72.8z M233.5,46.5c-4.6,0-8.3,3.7-8.3,8.3c0,0.6,0.1,1.1,0.2,1.7c0.1,0.3,0,0.6-0.2,0.9
					c-0.2,0.2-0.5,0.4-0.8,0.4c-3.4,0.2-6.1,3-6.1,6.5c0,3.6,2.9,6.5,6.5,6.5h29.8c0,0,0.1,0,0.1,0c3.1-0.2,5.5-2.7,5.5-5.8
					c0-3.2-2.6-5.8-5.8-5.8c-0.2,0-0.4,0-0.6,0c-0.3,0-0.6-0.1-0.8-0.3c-0.2-0.2-0.3-0.5-0.3-0.8c0-0.1,0-0.3,0-0.4
					c0-2.8-2.3-5.1-5.1-5.1c-1.5,0-2.9,0.7-3.9,1.8c-0.3,0.3-0.7,0.5-1.1,0.3c-0.4-0.1-0.7-0.5-0.7-0.9
					C241.2,49.6,237.7,46.5,233.5,46.5z"/>
			</g>
			<g>
				<path class="st1" d="M161.5,136.3c0-3.6-2.8-6.6-6.4-6.8c0.1-0.5,0.2-1.1,0.2-1.6c0-4.7-3.8-8.5-8.5-8.5c-1.9,0-3.7,0.7-5.2,1.8
					c-1.7-2.6-4.6-4.3-7.9-4.3c-5.2,0-9.4,4.2-9.4,9.4c0,0.6,0.1,1.3,0.2,1.9c-3.9,0.2-7.1,3.5-7.1,7.5c0,4.2,3.4,7.5,7.5,7.5h2.5
					h27.1h0.3v0c0,0,0.1,0,0.1,0c0.2,0,0.3,0,0.5,0c0,0,0.1,0,0.1,0c0.2,0,0.4-0.1,0.6-0.1c0,0,0,0,0,0
					C159.3,142.2,161.5,139.6,161.5,136.3C161.5,136.4,161.5,136.4,161.5,136.3C161.5,136.4,161.5,136.4,161.5,136.3z"/>
				<path class="st2" d="M155,144.2h-30c-4.7,0-8.6-3.8-8.6-8.6c0-4.1,3-7.6,6.9-8.4c0-0.3,0-0.6,0-1c0-5.8,4.7-10.4,10.4-10.4
					c3.2,0,6.1,1.4,8.1,3.9c1.5-0.9,3.2-1.4,4.9-1.4c5.3,0,9.6,4.3,9.6,9.6c0,0.2,0,0.5,0,0.7c3.6,0.8,6.3,4,6.3,7.7
					c0,0,0,0.1,0,0.1h0c-0.1,3.6-2.5,6.7-6,7.6c-0.2,0.1-0.5,0.1-0.7,0.1l-0.2,0c-0.2,0-0.3,0-0.5,0.1
					C155.2,144.2,155.1,144.2,155,144.2z M133.8,117.9c-4.6,0-8.3,3.7-8.3,8.3c0,0.6,0.1,1.1,0.2,1.7c0.1,0.3,0,0.6-0.2,0.9
					c-0.2,0.2-0.5,0.4-0.8,0.4c-3.4,0.2-6.1,3-6.1,6.5c0,3.6,2.9,6.5,6.5,6.5h29.9c0,0,0.1,0,0.1,0l0.1,0c0.1,0,0.3,0,0.4,0l0.1,0
					c0.2,0,0.3-0.1,0.5-0.1c2.6-0.6,4.4-2.9,4.4-5.6c0,0,0,0,0,0l0,0c0-3-2.4-5.6-5.4-5.8c-0.3,0-0.6-0.2-0.8-0.4
					c-0.2-0.2-0.3-0.5-0.2-0.8c0.1-0.5,0.1-1,0.1-1.4c0-4.1-3.3-7.4-7.4-7.4c-1.6,0-3.2,0.5-4.5,1.5c-0.2,0.2-0.5,0.3-0.8,0.2
					c-0.3,0-0.5-0.2-0.7-0.5C139.2,119.3,136.6,117.9,133.8,117.9z"/>
			</g>
			<g>
				<path class="st1" d="M487.5,108.2c0-3.6-2.8-6.6-6.4-6.8c0.1-0.5,0.2-1.1,0.2-1.6c0-4.7-3.8-8.5-8.5-8.5c-1.9,0-3.7,0.7-5.2,1.8
					c-1.7-2.6-4.6-4.3-7.9-4.3c-5.2,0-9.4,4.2-9.4,9.4c0,0.6,0.1,1.3,0.2,1.9c-3.9,0.2-7.1,3.5-7.1,7.5c0,4.2,3.4,7.5,7.5,7.5h2.5
					h27.1h0.3v0c0,0,0.1,0,0.1,0c0.2,0,0.3,0,0.5,0c0,0,0.1,0,0.1,0c0.2,0,0.4-0.1,0.6-0.1c0,0,0,0,0,0
					C485.3,114.1,487.5,111.4,487.5,108.2C487.5,108.2,487.5,108.2,487.5,108.2C487.5,108.2,487.5,108.2,487.5,108.2z"/>
				<path class="st2" d="M481,116.1h-30c-4.7,0-8.6-3.8-8.6-8.6c0-4.1,3-7.6,6.9-8.4c0-0.3,0-0.6,0-1c0-5.8,4.7-10.4,10.4-10.4
					c3.2,0,6.1,1.4,8.1,3.9c1.5-0.9,3.2-1.4,4.9-1.4c5.3,0,9.6,4.3,9.6,9.6c0,0.2,0,0.5,0,0.7c3.6,0.8,6.3,4,6.3,7.7
					c0,0,0,0.1,0,0.1h0c-0.1,3.6-2.5,6.7-6,7.6c-0.2,0.1-0.5,0.1-0.7,0.1l-0.2,0c-0.2,0-0.3,0-0.5,0.1
					C481.1,116,481.1,116.1,481,116.1z M459.7,89.7c-4.6,0-8.3,3.7-8.3,8.3c0,0.6,0.1,1.1,0.2,1.7c0.1,0.3,0,0.6-0.2,0.9
					c-0.2,0.2-0.5,0.4-0.8,0.4c-3.4,0.2-6.1,3-6.1,6.5c0,3.6,2.9,6.5,6.5,6.5h29.8c0,0,0.1,0,0.1,0l0.1,0c0.1,0,0.3,0,0.4,0l0.1,0
					c0.2,0,0.3-0.1,0.5-0.1c2.6-0.6,4.4-2.9,4.4-5.6c0,0,0,0,0,0l0,0c0-3-2.4-5.6-5.4-5.8c-0.3,0-0.6-0.2-0.8-0.4
					c-0.2-0.2-0.3-0.5-0.2-0.8c0.1-0.5,0.1-1,0.1-1.4c0-4.1-3.3-7.4-7.4-7.4c-1.6,0-3.2,0.5-4.5,1.5c-0.2,0.2-0.5,0.3-0.8,0.2
					c-0.3,0-0.5-0.2-0.7-0.5C465.2,91.2,462.6,89.7,459.7,89.7z"/>
			</g>
		</g>
	</g>
	<g>
		<g>
			<polygon class="st4" points="580.7,173.7 584.9,173.2 583.6,164.8 579.8,165.2 578.2,157.4 577.9,157.5 			"/>
			<g>
				<g>
					<g>
						<g>
							<g>
								<g>
									<path class="st4" d="M605,280.8c0,0,0.8,0.4,0.8,0.6c0,0.3,0.4,3.7,0.2,4.3c-0.2,0.6-10.7,1.8-10.7,1.8s-5.3-0.3-5.9-0.9
										c-0.6-0.7-0.3-1.2,0-1.3c0.3-0.1,12.5-4.7,12.5-4.7L605,280.8z"/>
									<path class="st4" d="M614.9,283.3c0,0-1.2-0.6-1.8-0.5c-0.6,0-1.9,0.8-1.9,0.8s2.2-1.3-1.5-0.1c0,0-10.3,6.7-10.2,7
										c0.1,0.4,2.5,1.6,8.8,0.3c0,0,5.7-2,6.7-3C615.1,287.7,615.7,283.8,614.9,283.3z"/>
									<path class="st5" d="M614.6,279.2c0,0,0.1,4.1,0.1,4.2c-0.2,0.6-2,0.7-2.5,0.2l-1-4L614.6,279.2z"/>
									<path class="st5" d="M605.4,277.7c0,0,0.1,4.1,0,4.2c-0.2,0.6-1.9,0.7-2.4,0.3l-0.8-4.1L605.4,277.7z"/>
									<path class="st4" d="M594.6,203.8c0,0,1.2,29.7,2.6,43.6c0,0,7.5-1.2,8.3-4.4c0.8-3.2-0.7-37.8-0.7-37.8L594.6,203.8z"/>
									<path class="st6" d="M606.1,204.9c-0.1,1.5-11.1-0.7-11.2,0.9c-0.4,5.8,8.9,22,8.9,22.2c3.6,25,4.9,50.1,6.2,55.3
										c0.6,2.2,5.7,0.7,5.7,0.7c0.8-28.5,1.1-76.8,1.1-76.8C614,205.3,609.9,204.8,606.1,204.9z"/>
									<path class="st4" d="M603.2,241.4c0,0,2-0.3,2.3,0.7c0.3,1.1,1.5,32.8,1.5,40.4c0,0-5.3,0.9-6.2-0.5
										c-1.4-2.1-3.6-34.5-3.6-34.5L603.2,241.4z"/>
								</g>
							</g>
							<g>
								<g>
									<g>
										<g>
											<g>
												<g>
													<g>
														<g>
															<path class="st7" d="M599.5,173.8c0,0,3.6-4.2,5.2-0.8c6.3,13.8,0,28.6-26.4,35.1c0,0-3.7,1.3-2.9-1.7
																c0.8-3.1,13.7-12.8,13.7-12.8C590.5,187.1,593.5,180.5,599.5,173.8z"/>
														</g>
														<path class="st6" d="M601.7,168.9c0,0,2.4-1,5.1-0.7c1.6,0.2,3.8,0.3,5.1,1.8c3.3,4.2,3.5,6.6,3.5,6.6
															c3,7.4,2.1,23.8,1.4,30.7c0,0-18.9,11.5-22.3-2.7l-0.1-7.6c-1.1-6.4-3.8-13.2-0.3-20.6
															C594.2,176.3,597.5,169.5,601.7,168.9z"/>
														<path class="st1" d="M607.7,168.7c0,0-5.2,3-7,6.2c-1.8,3.2-3.8,10.8-5.2,9.3c-1.4-1.5,1-11.9,4.4-14.2
															c3.4-2.2,6.9-1.6,6.9-1.6L607.7,168.7z"/>
														<path class="st1" d="M602.4,181c0,6.1,2.8,11,6.4,11c3.5,0,6.4-4.9,6.4-11c0-6.1-2.8-11-6.4-11
															C605.2,170,602.4,174.9,602.4,181z"/>
														<path class="st8" d="M605.8,161.9c0,0,0.4,5.2,2,6.8c0.4,0.4-5.7,2.4-7.7,1.5c-0.4-0.2-1.2-5.4-1.2-5.4L605.8,161.9z"
															/>
														<path class="st5" d="M600.4,150.7c0,0-6.5-0.5-8.6,4.6c0,0,0,5.2,3.9,10.7c1.3,1.8,2,2.6,4.1,2.1c0,0,7.4-1.9,6.3-7.2
															C605.1,156,602.5,151.1,600.4,150.7z"/>
														<path class="st6" d="M594.5,157.3c0,0-1.6,0.7-1.1,1.6c0,0-3.2,0.1-3.5-2.3c-0.3-2.4,2.5-0.4,2.8-0.3
															C593.1,156.4,594.5,157.3,594.5,157.3z"/>
														<path class="st6" d="M604,160.9c0,0,0.6-1.9-5.1-2.1c-4.9-0.2-6.7-2.6-7.4-2.8c-1.6-0.6,2.1-3.1,2.1-3.1
															s-1.1-1.4,2.2-3c1-0.5,9.5-2.5,12.5,4.5c2.1,4.7-1.6,10.5-2.2,11.7C605.7,167.2,604,160.9,604,160.9z"/>
														<path class="st4" d="M592,158.9c0,0,1.1,0.5,1.4,0.7c0,0,0.7,0.3,1.1,0.2c0.4-0.1,2-1,6.4-1.3l6.8-0.2
															c0,0,0.2,1.1,0.2,1.5c0.1,0.4-1-0.7-1-0.7l-5.1,0.3c0,0,0.6,3.9-2.9,4.4c-3.5,0.4-4.6-1.9-4.6-1.9l-0.7-0.2
															c0,0-0.1,1.6-0.4,1.8C592.9,163.8,591.7,160.5,592,158.9z"/>
														<path class="st5" d="M603.1,160.7c0.1,1.5,0.9,2.7,1.8,2.6c0.9-0.1,1.5-1.4,1.3-2.9c-0.1-1.5-0.9-2.7-1.8-2.6
															c-0.6,0.1-1.1,0.7-1.3,1.6C603,159.8,603,160.3,603.1,160.7z"/>
													</g>
												</g>
											</g>
										</g>
									</g>
									<g>
										<path class="st8" d="M575.8,203.7c0,0-0.5-1.7-0.4-2.4c0.1-0.6,0.5-0.7,0.5-0.7l2,2.8l0.5,1.7l-2.6-0.5L575.8,203.7z"/>
										<path class="st8" d="M577.5,203.6l1,1.2c0,0-0.2,2.6-1.1,3.5c-0.9,0.9-6.3-0.8-6.6-1c-0.3-0.1-2.6-1.6-2.6-1.6l0.8-0.9
											l2.7-1.2c0,0,2.9,0.3,3,0.2c0.1-0.1,2.2-0.3,2.2-0.3L577.5,203.6z"/>
									</g>
								</g>
								<g>
									<path class="st1" d="M608.4,170c0,0-9.4,0.2-17.1,10.6c0,0-4.2-0.8-9.4-8.6c0,0-4.1-2.6-4.3,1.6c-0.6,12.8,7.4,16.7,9.3,17
										c9.7,1.5,25.1-7.7,24.3-10.7L608.4,170z"/>
									<g>
										<path class="st5" d="M578.4,166.5c-0.1,0-0.2,0.1-0.3,0.1c-0.2,0.1-0.7,0.7-0.9,0.8c-0.5,1.3-0.9,4.9,0.2,7.2
											c0,0,2.7,0.3,5.4-2.2c0,0,1.5-2.1,0.5-3.9c-0.2-0.3,0.4-0.6-0.1-1.3C581.6,165.7,580.3,166.2,578.4,166.5z"/>
									</g>
								</g>
								<path class="st6" d="M608.2,160.6l-2.3,5.5c0,0,0.8,3,4.6,1.9c0,0-2.3-1.9-2.3-4.2C608.2,161.6,608.2,160.6,608.2,160.6z"/>
							</g>
						</g>
						<path class="st1" d="M594.9,203.6c0,0,5.9,0.4,9.4,0.8l-0.7,3.1c0,0-8.7-1.7-8.9-2.4C594.6,204.5,594.9,203.6,594.9,203.6z"/>
						<path class="st1" d="M604.3,216.1c0,0,6.3,8,8.6,9.4l-1,0.9c0,0-7.7-6.9-8.1-9.6L604.3,216.1z"/>
					</g>
					<g>
						<g>
							<path class="st1" d="M593.1,157.5c0,0,10.1,2.1,16.3-0.5c0,0,2.3-10.2-8.7-10.6c0,0-8.7-0.3-9.5,8.1c0,0-4.4,0.5-4.7,1.1
								C586.1,156.3,589.5,157.2,593.1,157.5z"/>
							<path class="st7" d="M592,154.8c0,0,1.4,1.3,5.9,2.1c0,0,1.9-10.4,7.8-9.4c0,0-0.7-0.9-1.9-1.2c-0.7-0.1-4.4-1.1-6.4,0.1
								C595.4,147.7,593.2,150.7,592,154.8z"/>
						</g>
					</g>
				</g>
				<g>
					<path class="st9" d="M568.7,198c0.5-0.5,1.3-0.5,1.8,0l16.4,16c0.5,0.5,0.5,1.3,0,1.8l0,0c-0.5,0.5-1.3,0.5-1.8,0l-16.4-16
						C568.2,199.3,568.2,198.5,568.7,198L568.7,198z"/>
					<path class="st10" d="M570.9,200.1c0.3-0.3,0.8-0.3,1.2,0l10.3,10.1c0.3,0.3,0.3,0.8,0,1.2l0,0c-0.3,0.3-0.8,0.3-1.2,0
						l-10.3-10.1C570.6,201,570.6,200.4,570.9,200.1L570.9,200.1z"/>
					<path class="st9" d="M568,193.4c-0.4,0.2-0.5,0.7-0.2,1c0.2,0.4,0.7,0.5,1,0.2c0.4-0.2,0.5-0.7,0.2-1
						C568.8,193.3,568.4,193.2,568,193.4z"/>
					<path class="st9" d="M568.8,193.4c4.3,2.7,1.4,6.3,1.4,6.3l-1.7-1.6c1.5-1.8-0.6-3.4-0.6-3.4L568.8,193.4z"/>
					<path class="st9" d="M563.9,197.7c0.2-0.4,0.7-0.5,1-0.3c0.4,0.2,0.5,0.7,0.3,1c-0.2,0.4-0.7,0.5-1,0.3
						C563.8,198.5,563.7,198,563.9,197.7z"/>
					<path class="st9" d="M563.9,198.5c2.8,4.3,6.3,1.3,6.3,1.3l-1.7-1.6c-1.8,1.5-3.4-0.5-3.4-0.5L563.9,198.5z"/>
				</g>
			</g>
		</g>
	</g>
	<g>
		<g>
			<g>
				<g>
					<g>
						<g>
							<path class="st8" d="M41.1,206.6c0,0,3,0.3,5-1.3c0,0,0.2,0,0.4,0.3c0.1,0.4-0.6,2-1.3,2.4c-0.7,0.5-2.3,0.1-2.3,0.1
								L41.1,206.6z"/>
							<g>
								<path class="st8" d="M39.9,195.1c0,0-2.8,5.6,2.4,11.9c0,0,2.7,4.4-0.9,4c-3.6-0.3-8.3-6.1-8.9-12.3
									C32.2,195.1,34.6,184.9,39.9,195.1z"/>
								<path class="st6" d="M42,170.9c0,0-4,0.5-9.1,22.2c0,0-0.2,1.8,5.6,0.9c3.5-0.5,2.3-2.1,7.8-13.6
									C46.2,180.4,44.2,169.5,42,170.9z"/>
								<path class="st8" d="M46.7,209.5c0.7,1.3,0,2.7-1,3.7c-1.2,0-3.4,1-6.2-3c0,0-0.2-2.7,3.1-3.3c0,0-0.6-0.9,1.5,0.4
									c0.6,0.4,1.4,0.7,2.2,0.9C46.4,208.7,46.5,209.1,46.7,209.5z"/>
							</g>
						</g>
						<g>
							<g>
								<path class="st4" d="M54,276.3c0,0,0.9,0.4,0.9,0.7c0,0.3,0.4,4,0.2,4.7c-0.2,0.7-11.7,1.9-11.7,1.9s-5.8-0.3-6.4-1
									c-0.6-0.8-0.3-1.3,0-1.4c0.3-0.1,13.8-5.2,13.8-5.2L54,276.3z"/>
								<path class="st4" d="M65.1,276.5c0,0-1.1,2.8-1,3c0,0.3,0.3,4.4,0.5,5c0.3,0.6,7.4,6,7.4,6s5.3,1.1,6.1,0.7
									c3.4-2-0.6-5.5-1-5.5c-0.3-0.1-6.5-6.9-6.5-6.9L65.1,276.5z"/>
								<path class="st11" d="M55.4,248.1c0,0-0.6,15.1-0.6,19.4c0,1.1,1.1,10.2,0.1,10.7c0,0-7.2,1.1-8.5,0.2
									c-3.1-2.1-6.9-34.9-6.9-34.9L55.4,248.1z"/>
								<path class="st11" d="M38.5,213.4c0,0-0.4,16.7,1,30.1c0,0,15,9.2,15.7,6.1c0.7-3.1-1.6-42.3-1.6-42.3L38.5,213.4z"/>
								<path class="st12" d="M38.5,213.4c0,0,3.1,7.5,11.5,11.9c0,0,0.9-10.8,0.9-11s-1.6-9.9-1.8-10
									C48.9,204.3,38.5,213.4,38.5,213.4z"/>
								<path class="st12" d="M52,205.5c-0.1,1.5-4.3,1.9-4.2,3.4c0.7,16.4,7.7,34.5,8.3,39.1c2.1,21.1,4.2,26.5,5.2,31.8
									c0.2,1,9.1,2.8,10.6,0.2c0,0-0.4-24.4-1.1-32.6c-2.6-29.5-3.8-33.6-3.8-33.6C64.1,212,55.6,205.5,52,205.5z"/>
								<path class="st6" d="M54.7,169.6c0,0,9.6,0.5,11.9,4.4c0,0-1.4,21.3-4,33.7c0,0-13.4,6.2-21.4-1.5c0,0-6.5-23.1,0.5-34.2
									C41.6,172,43.8,169.2,54.7,169.6z"/>
								<path class="st8" d="M58.4,161.6c0,0-1.6,6-1.8,9.5c0,0-2.7,2.4-5.1,0.2c0,0-0.9-9-2.8-10.4
									C46.8,159.4,58.4,161.6,58.4,161.6z"/>
							</g>
							<g>
								<path class="st6" d="M61.8,170.8c0,0,9.2,0.6,13.2,26.1c0,0-1.4,2-7.5,1.4c-3.7-0.3-1.2-4.6-7.2-12.9
									C60.3,185.4,59.4,169.4,61.8,170.8z"/>
							</g>
						</g>
					</g>
				</g>
				<g>
					<path class="st5" d="M58.4,152.8c0,0-4.9-3.5-8.7,0.2c0,0-2.7,2.5-1.9,9.3c0.4,3.6,3.9,7.8,6.6,7.9c0,0,6-1.3,6.6-10.4
						C61.4,154.5,60.2,153.9,58.4,152.8z"/>
					<path class="st4" d="M62,158.8c0-0.8,0.5-1,0.6-1.3c-1.5-1.3-2.6-3.6-2.6-5.6c0,0,0,0-0.1,0c-1.5-1-1.4-1.6-4.5-2.6
						c-3.1-1-3.7,0.4-3.7,0.4c-3.4-0.5-4,1.6-4.1,3c0.3,1.8-0.5,2.9-1.5,4.3c0.1,0.2,0.3,1.3,0.4,1.6c0.4,0.8,0.1,1,0.1,1
						s1.3,0.2,1.4,0.1c0-0.1,0.1-0.4,0.2-0.6c0.1-0.2,0.3-0.9,0.3-1.1c0-0.2,0.2-1.3,0.2-1.3s0.6-0.8,0.8-0.7
						c0.2,0.1,0.9,0.5,2.3-0.2c1.4-0.7,1.5-0.8,1.9-0.8c0.4,0,0-0.1,1.2,0.5c1.4,0.7,3.1,0.1,3.5,0.3c0.5,0.3,0.9,0.5,1.2,0.8
						c0.3,0.2,0.4,2.1,0.5,3c0.1,0.9,0.5,1.2,0.5,1.2l0.7,0.3l1-1C62.5,160,62,159.3,62,158.8z"/>
					<path class="st5" d="M60.9,159.8c0,0,0.3-1.3,0.8-0.6c0.6,0.6,0.9,3-0.4,4.7c-1.3,1.7-1.2-1.5-1.2-1.6
						C60.1,162.1,60.9,159.8,60.9,159.8z"/>
					<path class="st5" d="M47.7,159.4c0,0-0.3-1.3-0.9-0.7c-0.6,0.6-0.9,3.1,0.4,4.9c1.3,1.7,1.3-1.6,1.3-1.7
						C48.6,161.8,47.7,159.4,47.7,159.4z"/>
					<path class="st4" d="M53.6,154.2c0,0,1,2.5,6.2,2.4c0,0-4.8,1.5-7.5-2L53.6,154.2z"/>
				</g>
			</g>
			<path class="st8" d="M52.2,170.9l4.4,0.1c0,0-2,1.5-4.8,4l-0.6,0.3c0,0-2.1-2.1,0.3-4.5H52.2z"/>
			<path class="st12" d="M48.5,185.2l8.1-14.2l0.2-2.2l9.7,2.9c0,0-5.3,17.1-1.6,23.4l1.9,18.6c0,0-6.2,3.7-17.6,1.7
				C49.2,215.5,47.2,195.5,48.5,185.2z"/>
			<path class="st1" d="M59.3,199.4c0.1-20,3.7-28.7,3.7-28.7l-2.7-0.8c-4.6,8.7-4.4,20-4.7,29.3C56.8,199,58.2,199,59.3,199.4z"/>
			<path class="st12" d="M51.2,168.9c0,0-3.6,6.1-2.7,16.3l0.7,30.2l-10.7-2.1c0,0-0.6-8,0-14.7c0.1-1,0-2.1,0-3.2
				c0-9,0.7-18.9,3-24.7L51.2,168.9z"/>
			<path class="st1" d="M43,198.2c0.4,0.1,0.8,0.3,1.1,0.4c-0.4-20.4,4.1-29.2,4.1-29.2l-3.1,0.6c-3.8,8.6-4.7,19.3-4.6,28
				C41.4,198,42.3,198,43,198.2z"/>
			<path class="st6" d="M51.4,170.5c-1.7,1.2-2.6,7.6-2.6,7.6l-1.9-7.6l4.2-1.6"/>
			<polygon class="st6" points="52.6,178.1 61.1,170.7 56.8,169.2 			"/>
			<path class="st1" d="M65.5,200.4l-0.3-2.5c0,0-12.8,2.2-26.7-2.5l0,2.9C38.6,198.4,54.3,203,65.5,200.4z"/>
			<g>
				<path class="st12" d="M49.1,156.6c2.2,0.5,4.5,0.9,6.7,1.1c1.2,0.1,2.4,0.2,3.6,0.2h0.1c0.8-0.5,1.6-0.9,2.6-1.2
					c0,0,0.1,0,0.1,0c0.1-0.4,0.1-0.8,0.1-1.3c0-4.8-3.6-8.7-8-8.7s-8,3.9-8,8.7c0,0.4,0,0.8,0.1,1.2
					C47.3,156.3,48.2,156.4,49.1,156.6z"/>
				<path class="st11" d="M51.8,156.1c0,0-1-8.7-0.5-9.1c0.5-0.4,4-1.4,6.3,0c0,0,0.4,1.4-1.6,9.2l-1.6,1.2L51.8,156.1z"/>
				<path class="st12" d="M63.1,156.8c0,1.5-3.9,2.7-8.8,2.7c-4.8,0-8.8-1.2-8.8-2.7c0-1.5,4.2-0.7,9.1-0.7S63.1,155.3,63.1,156.8z"
					/>
				<path class="st11" d="M45.6,157.1c0.4,1.4,4.1,2.5,8.7,2.5c4.8,0,8.8-1.2,8.8-2.7c0,0,0,0,0-0.1C57.8,159.3,51,159.9,45.6,157.1
					z"/>
				<path class="st11" d="M55.3,146.8c0,0.7-0.4,1.3-0.9,1.3c-0.5,0-0.9-0.6-0.9-1.3c0-0.7,0.4-1.3,0.9-1.3
					C54.9,145.5,55.3,146.1,55.3,146.8z"/>
			</g>
		</g>
		<path class="st5" d="M52.9,197.2c0,0,1.6-2.6,0.2-8.7c0,0-0.1-0.3-0.5-0.3c-0.5,0-2,3-2.2,4c-0.2,1,0.8,2.6,0.8,2.6L52.9,197.2z"
			/>
		<path class="st5" d="M65.5,191c0,0-3.9,2.4-12.5,3.6c0,0-7.7,0.9-4.7,3.2c3,2.3,21.4,2,24.7,0.2C76.3,196.3,75.7,190.4,65.5,191z"
			/>
		<g>
			<path class="st9" d="M51.6,180.9c0.7,0.1,1.2,0.8,1.1,1.6L48.9,206c-0.1,0.7-0.8,1.2-1.6,1.1l0,0c-0.7-0.1-1.2-0.8-1.1-1.6
				L50,182C50.1,181.3,50.8,180.8,51.6,180.9L51.6,180.9z"/>
			<path class="st10" d="M51,184.1c0.5,0.1,0.8,0.5,0.7,1l-2.4,14.9c-0.1,0.5-0.5,0.8-1,0.7l0,0c-0.5-0.1-0.8-0.5-0.7-1l2.4-14.9
				C50.1,184.3,50.6,184,51,184.1L51,184.1z"/>
			<path class="st9" d="M55,177.6c-0.4-0.2-0.9,0-1,0.4c-0.2,0.4,0,0.9,0.4,1c0.4,0.2,0.9,0,1-0.4C55.6,178.3,55.4,177.8,55,177.6z"
				/>
			<path class="st9" d="M55.5,178.3c0.3,5.3-4.5,5-4.5,5l0.4-2.4c2.4,0.2,2.6-2.5,2.6-2.5L55.5,178.3z"/>
			<path class="st9" d="M48.9,176.7c0.4,0,0.8,0.3,0.9,0.7c0,0.4-0.3,0.8-0.7,0.9c-0.4,0-0.8-0.3-0.9-0.7
				C48.2,177.1,48.5,176.7,48.9,176.7z"/>
			<path class="st9" d="M48.3,177.1c-1.9,5,2.7,6.2,2.7,6.2l0.4-2.4c-2.4-0.6-1.6-3.2-1.6-3.2L48.3,177.1z"/>
		</g>
		<path class="st5" d="M52.5,194c0,0-1.3-2.6-4.2-3.2c-2.9-0.6-1.2,0.2-1.9,1.1c-0.7,0.9-2.2,1-1.9,1.8c0,0,0.1,0.7,0,1.1
			c-0.1,0.2,0.2,1.1,0.4,1.3c0.1,0.2,0.3,0.7,0.4,1c0.8,1.2,0.8,0.9,6.3,2C51.6,198.9,54.9,197.1,52.5,194z"/>
	</g>
</g>
</svg>
