<?xml version="1.0" encoding="utf-8"?>
<!-- Generator: Adobe Illustrator 24.0.3, SVG Export Plug-In . SVG Version: 6.00 Build 0)  -->
<svg version="1.1" id="レイヤー_1" xmlns="http://www.w3.org/2000/svg" xmlns:xlink="http://www.w3.org/1999/xlink" x="0px"
	 y="0px" viewBox="0 0 1119.4 460.3" style="enable-background:new 0 0 1119.4 460.3;" xml:space="preserve">
<style type="text/css">
	.st0{fill:none;stroke:#231815;stroke-width:0.7267;stroke-miterlimit:10;}
	.st1{fill:#00AF90;}
	.st2{fill:#0065B7;}
	.st3{fill:#FF9649;}
	.st4{fill:#9FD269;}
	.st5{fill:#FF5867;}
	.st6{fill:#18C5F4;}
</style>
<line class="st0" x1="0" y1="28.1" x2="1119.4" y2="28.1"/>
<line class="st0" x1="0" y1="434" x2="1119.4" y2="434"/>
<g>
	<path class="st1" d="M300.1,459.9v-15.6h15.7v15.6H300.1z"/>
	<path d="M331.4,458.4c-1.3-1.2-2-2.4-2.7-3.9c-0.4,1.5-1.4,3.6-3.9,5.8c-0.3-0.4-0.6-0.6-1.2-1c2.3-1.9,3.7-3.9,4.1-6.6h-3.7v-1.4
		h3.9c0-0.3,0-0.7,0-0.8v-2.8h-1.4c-0.6,1.5-1.1,2.2-1.4,2.7c-0.5-0.3-0.8-0.4-1.4-0.6c1.4-2.1,2.1-4.1,2.5-6.1l1.5,0.3
		c0.2,0,0.3,0.2,0.3,0.3c0,0.2-0.2,0.2-0.5,0.3c-0.1,0.3-0.2,0.7-0.5,1.7h4.9v1.4h-2.6v2.7c0,0.5,0,0.6,0,0.9h3.2v1.4h-3.2
		c0.3,0.9,1.1,2.9,3.3,4.7C332.1,457.6,331.7,457.9,331.4,458.4z M338.1,459.7v-1.6h-3.4v1.7h-1.5v-14.3h6.4v14.2H338.1z
		 M338.1,446.9h-3.4v9.9h3.4V446.9z"/>
	<path d="M342.6,460.3c-0.1-0.5-0.3-0.9-0.7-1.4c2.8-0.1,5.7-0.7,8.2-1.9c-0.8-1-1.6-1.7-2.2-2.2c-0.8,0.5-2.1,1.3-3.8,1.9
		c-0.3-0.4-0.6-0.8-1.1-1.1c4.9-1.7,7.2-4.3,8.6-5.9l1.3,0.4c0.1,0,0.4,0.1,0.4,0.3c0,0.2-0.3,0.2-0.5,0.3c-0.3,0.3-0.6,0.6-1.3,1.3
		h5.3l0.7,0.6C354.3,457.5,348.5,459.7,342.6,460.3z M342.9,453.4c-0.1-0.5-0.3-0.7-0.8-1.3c3.1-0.6,5.3-1.8,6.3-2.3
		c-0.3-0.3-1.2-1.5-2.3-2.2c-1.1,0.8-1.7,1.2-2.9,1.8c-0.2-0.2-0.5-0.7-1.2-1.1c2.1-0.9,4.5-2.3,6.3-5l1.5,0.3
		c0.1,0,0.4,0.1,0.4,0.2c0,0.1-0.1,0.2-0.5,0.3c-0.3,0.4-0.5,0.5-0.7,0.8h6.2l0.6,0.7C354.6,447.1,350,451.6,342.9,453.4z M348,446
		c-0.2,0.2-0.4,0.3-0.7,0.7c0.8,0.7,1.8,1.6,2.5,2.4c1.1-0.7,2.7-1.8,3.8-3H348z M350.1,453.2c-0.2,0.2-0.5,0.4-1,0.8
		c0.3,0.2,1.5,1.3,2.3,2.3c1.5-0.9,3.1-2.1,3.8-3.1H350.1z"/>
	<path d="M358.1,458.8v-1.5h7.5v-10.7h-6.3v-1.5h14.2v1.5h-6.3v10.7h7.5v1.5H358.1z"/>
	<path d="M382.1,454.4c-0.9,0.3-3.2,1.3-5.2,2c0,0.2,0,0.5-0.3,0.5c-0.1,0-0.2-0.1-0.3-0.4l-0.4-1.4c0.9-0.2,2-0.6,2.5-0.7v-5.2
		h-2.3v-1.4h2.3v-4.1l1.5,0.1c0.2,0,0.4,0,0.4,0.2s-0.2,0.2-0.4,0.3v3.4h2.3v1.4h-2.3v4.7c0.3-0.1,1.5-0.5,2.3-0.9
		C382.1,453.4,382,453.9,382.1,454.4z M385.4,452.3c-0.2,0.4-0.4,0.7-0.7,1.1h7.3c0,1.6-0.3,5.2-1.2,6.2c-0.3,0.3-0.8,0.7-2.7,0.6
		c0-0.4-0.1-0.8-0.5-1.6c0.5,0.1,1.1,0.1,1.4,0.1c0.4,0,0.9,0,1.1-1.1c0.3-1.6,0.4-2.5,0.4-3h-1.1c-1.5,3.2-3.6,5-4.4,5.7
		c-0.2-0.2-0.4-0.4-1.1-0.8c1.1-0.8,2.7-2.2,4.2-4.9h-1.4c-0.7,1.2-2.3,3.3-5.2,5.1c-0.3-0.4-0.6-0.6-1-0.9c2.7-1.3,4.2-3.3,4.8-4.2
		h-1.5c-0.7,0.8-1.5,1.6-2.6,2.4c-0.3-0.4-0.7-0.6-1.1-0.8c0.9-0.6,2.4-1.7,3.9-3.9h-2.3v-1.2h10.9v1.2H385.4z M383.2,450.2v-6.1
		h7.7v6.1H383.2z M389.6,445.3h-4.9v1.3h4.9V445.3z M389.6,447.7h-4.9v1.4h4.9V447.7z"/>
	<path class="st2" d="M412.9,459.9v-15.6h15.7v15.6H412.9z"/>
	<path d="M436.6,459.5v-1.3h7.6v-1.8h-4.8v-1.2h4.8v-1.7h-4.3c-0.1,0.1-0.9,1.1-2.2,2.4c-0.6-0.5-1-0.7-1.3-0.9
		c0.8-0.6,2.5-2.1,3.6-4.4l1.4,0.7c0.1,0,0.2,0.1,0.2,0.3c0,0.2-0.4,0.2-0.6,0.2c-0.2,0.3-0.2,0.3-0.3,0.5h3.5v-1.6l1.5,0.2
		c0.4,0,0.6,0.1,0.6,0.3s-0.2,0.3-0.6,0.4v0.8h6.1v1.2h-6.1v1.7h4.8v1.2h-4.8v1.8h7.4v1.3H436.6z M438.7,450.4v-6.2H451v6.2H438.7z
		 M449.6,445.3h-9.4v1.4h9.4V445.3z M449.6,447.8h-9.4v1.4h9.4V447.8z"/>
	<path d="M460.8,446.8v10.9h-1.2v-1.5h-3.5v2.3H455v-12.2l1.4,0.1c0.1,0,0.3,0.1,0.3,0.2c0,0.2-0.1,0.2-0.4,0.3v7.9h1.2v-11.2
		l1.3,0.1c0.2,0,0.3,0.1,0.3,0.2c0,0.2-0.1,0.2-0.4,0.3v10.7h1.2v-8.6l1.3,0.1c0.1,0,0.3,0,0.3,0.2
		C461.2,446.6,461.1,446.6,460.8,446.8z M470,450.5c-1-0.4-2.9-1.1-4.3-3.4c-0.6,1.2-1.7,2.4-3.6,3.4c-0.5-0.8-0.8-0.9-1.1-1.1
		c0.6-0.3,2.6-1.1,3.5-2.6h-2.8v-1.2h3.2c0.1-0.7,0.1-1.3,0.1-2.1l1.5,0.1c0.2,0,0.3,0,0.3,0.2c0,0.2-0.2,0.2-0.4,0.3
		c0,0.6-0.1,1.3-0.1,1.5h4.5v1.2h-3.8c0.4,0.5,1.4,1.7,4.1,2.6C470.5,449.8,470.2,450.1,470,450.5z M469.6,451.8v6.3
		c0,1.3-0.3,2.1-3,2.1c-0.1-0.9-0.5-1.4-0.6-1.7c0.3,0.1,0.6,0.2,1.2,0.2c0.9,0,0.9-0.1,0.9-0.7v-6.2h-6.9v-1.3h9.9v1.3H469.6z
		 M463.3,457.6v1.3h-1.3V453h4.9v4.6H463.3z M465.5,454.3h-2.2v2.1h2.2V454.3z"/>
	<path d="M472.1,458.8v-1.5h7.5v-10.7h-6.3v-1.5h14.2v1.5h-6.3v10.7h7.5v1.5H472.1z"/>
	<path d="M496.1,454.4c-0.9,0.3-3.2,1.3-5.2,2c0,0.2,0,0.5-0.3,0.5c-0.1,0-0.2-0.1-0.3-0.4l-0.4-1.4c0.9-0.2,2-0.6,2.5-0.7v-5.2
		h-2.3v-1.4h2.3v-4.1l1.5,0.1c0.2,0,0.4,0,0.4,0.2s-0.2,0.2-0.4,0.3v3.4h2.3v1.4H494v4.7c0.3-0.1,1.5-0.5,2.3-0.9
		C496.1,453.4,496.1,453.9,496.1,454.4z M499.5,452.3c-0.2,0.4-0.4,0.7-0.7,1.1h7.3c0,1.6-0.3,5.2-1.2,6.2c-0.3,0.3-0.8,0.7-2.7,0.6
		c0-0.4-0.1-0.8-0.5-1.6c0.5,0.1,1.1,0.1,1.4,0.1c0.4,0,0.9,0,1.1-1.1c0.3-1.6,0.4-2.5,0.4-3h-1.1c-1.5,3.2-3.6,5-4.4,5.7
		c-0.2-0.2-0.4-0.4-1.1-0.8c1.1-0.8,2.7-2.2,4.2-4.9h-1.4c-0.7,1.2-2.3,3.3-5.2,5.1c-0.3-0.4-0.6-0.6-1-0.9c2.7-1.3,4.2-3.3,4.8-4.2
		h-1.5c-0.7,0.8-1.5,1.6-2.6,2.4c-0.3-0.4-0.7-0.6-1.1-0.8c0.9-0.6,2.4-1.7,3.9-3.9h-2.3v-1.2h10.9v1.2H499.5z M497.3,450.2v-6.1
		h7.7v6.1H497.3z M503.6,445.3h-4.9v1.3h4.9V445.3z M503.6,447.7h-4.9v1.4h4.9V447.7z"/>
	<path class="st3" d="M527,459.9v-15.6h15.7v15.6H527z"/>
	<path d="M553.4,451.1c-1.1-0.8-1.9-1.3-3.1-1.8l0.8-1.3c1,0.5,2.1,1.1,3.2,1.8C553.9,450.2,553.7,450.6,553.4,451.1z M552.2,459.3
		c0.1,0.1,0.1,0.2,0.1,0.4c0,0.1-0.1,0.3-0.2,0.3c-0.1,0-0.2,0-0.3-0.1l-1.3-0.9c1.4-1.7,2.8-4.4,3.6-6.4c0.1,0.2,0.4,0.7,1.1,1.2
		C554.8,454.5,553.7,457.1,552.2,459.3z M555,447.1c-1.3-1.1-2.3-1.6-3.1-2l0.9-1.2c1,0.5,2.2,1.3,3.1,2
		C555.6,446.2,555.4,446.4,555,447.1z M554.8,451v-1.3h2.1v-5.1l1.5,0.1c0.3,0,0.4,0.1,0.4,0.3c0,0.2-0.2,0.3-0.5,0.4v4.3h2.3v-6.1
		l1.6,0.1c0.3,0,0.3,0.1,0.3,0.2c0,0.2-0.1,0.2-0.5,0.4v1.7h4.6v1.3h-4.6v2.3h5.1v1.3H554.8z M556.2,459.6c0,0.2,0,0.5-0.2,0.5
		c-0.1,0-0.2-0.1-0.3-0.2l-0.7-1.3c1.4-0.6,4.1-2.1,5.2-2.9c-0.1,0.3,0.1,1.2,0.2,1.5C559.5,457.7,557.6,458.9,556.2,459.6z
		 M559.5,455c-0.8-0.7-2.2-1.9-3.4-2.6l1-1.1c1,0.7,2.4,1.7,3.4,2.6C560.2,454.2,559.9,454.5,559.5,455z M566,452.5
		c-0.1,0-0.2,0-0.3,0c-1.3,1.2-1.6,1.4-3,2.5c-0.2-0.3-0.5-0.5-1.2-1c1.2-0.8,2.3-1.7,3.3-2.8l1.2,0.8c0.1,0.1,0.3,0.2,0.3,0.3
		C566.3,452.4,566.2,452.5,566,452.5z M565.8,460.1c-1.7-1.6-2.7-2.3-4.2-3.2l0.9-1.1c1.4,0.8,3,1.9,4.3,3.1
		C566.2,459.5,566,459.9,565.8,460.1z"/>
	<path d="M572.7,444.4v4.7c0,4.9,0,7.9-2.7,11.2c-0.7-0.6-1.2-0.7-1.4-0.9c2.5-3,2.5-5.3,2.5-10.5v-5.2l1.6,0.1
		c0.1,0,0.5,0.1,0.5,0.3C573.1,444.2,572.9,444.3,572.7,444.4z M578.1,445.4v13.1h-1.6v-13.8l1.6,0.1c0.2,0,0.4,0.1,0.4,0.3
		C578.5,445.2,578.4,445.3,578.1,445.4z M583.6,444.3v15.9h-1.5v-16.6l1.6,0.1c0.2,0,0.4,0.1,0.4,0.3
		C584.1,444.2,583.9,444.2,583.6,444.3z"/>
	<path d="M586.2,458.8v-1.5h7.5v-10.7h-6.3v-1.5h14.2v1.5h-6.3v10.7h7.5v1.5H586.2z"/>
	<path d="M610.2,454.4c-0.9,0.3-3.2,1.3-5.2,2c0,0.2,0,0.5-0.3,0.5c-0.1,0-0.2-0.1-0.3-0.4l-0.4-1.4c0.9-0.2,2-0.6,2.5-0.7v-5.2
		h-2.3v-1.4h2.3v-4.1l1.5,0.1c0.2,0,0.4,0,0.4,0.2s-0.2,0.2-0.4,0.3v3.4h2.3v1.4H608v4.7c0.3-0.1,1.5-0.5,2.3-0.9
		C610.2,453.4,610.1,453.9,610.2,454.4z M613.5,452.3c-0.2,0.4-0.4,0.7-0.7,1.1h7.3c0,1.6-0.3,5.2-1.2,6.2c-0.3,0.3-0.8,0.7-2.7,0.6
		c0-0.4-0.1-0.8-0.5-1.6c0.5,0.1,1.1,0.1,1.4,0.1c0.4,0,0.9,0,1.1-1.1c0.3-1.6,0.4-2.5,0.4-3h-1.1c-1.5,3.2-3.6,5-4.4,5.7
		c-0.2-0.2-0.4-0.4-1.1-0.8c1.1-0.8,2.7-2.2,4.2-4.9h-1.4c-0.7,1.2-2.3,3.3-5.2,5.1c-0.3-0.4-0.6-0.6-1-0.9c2.7-1.3,4.2-3.3,4.8-4.2
		h-1.5c-0.7,0.8-1.5,1.6-2.6,2.4c-0.3-0.4-0.7-0.6-1.1-0.8c0.9-0.6,2.4-1.7,3.9-3.9h-2.3v-1.2h10.9v1.2H613.5z M611.3,450.2v-6.1
		h7.7v6.1H611.3z M617.7,445.3h-4.9v1.3h4.9V445.3z M617.7,447.7h-4.9v1.4h4.9V447.7z"/>
	<path class="st4" d="M641,459.9v-15.6h15.7v15.6H641z"/>
	<path d="M669.9,446.2c0.2,0.5,0.3,0.9,0.5,1.6c-0.4,0-1.1,0.1-1.4,0.2c-0.2-0.9-0.3-1.2-0.5-1.8H667c-0.6,0.9-1.1,1.4-1.5,1.8
		c-0.4-0.3-0.8-0.5-1.3-0.6c1.2-1.2,2.2-2.7,2.8-4.1l1.4,0.3c0.2,0.1,0.3,0.1,0.3,0.3c0,0.3-0.4,0.3-0.5,0.3
		c-0.2,0.5-0.3,0.6-0.4,0.8h5.1v1.2H669.9z M679.8,453.7h-1c-1.1,0-1.3-0.5-1.3-1.4v-2.9h-2.6c0,0.7-0.1,2.6-1.6,4l0.5,0.1
		c0.1,0,0.3,0,0.3,0.2s-0.2,0.2-0.4,0.3v0.6h7.6v1.2h-6.7c1.1,0.8,3.7,2.3,6.7,3c-0.4,0.3-0.8,0.8-1,1.3c-2.8-0.9-5.3-2.6-6.7-3.8
		v3.9h-1.4v-3.9c-1.3,1.2-3.6,2.9-6.5,3.8c-0.4-0.6-1-1.1-1.2-1.2c1.2-0.3,4.1-1,6.7-3.1h-6.6v-1.2h7.6v-0.8
		c-0.4-0.3-0.6-0.4-0.8-0.6c1.6-1,2.2-1.7,2.2-4.1c0-0.4,0-0.6,0-0.8h5.2v3.7c0,0.5,0.1,0.5,0.7,0.5c0.7,0,0.7-0.8,0.8-1.7
		c0.3,0.3,0.6,0.6,1.2,0.8C681.2,453.2,680.7,453.7,679.8,453.7z M672.3,452.4c-1.1,0.3-4.4,1-6.2,1.3c-0.1,0.2-0.1,0.4-0.3,0.4
		c-0.2,0-0.2-0.1-0.3-0.3l-0.3-1.4c0.8-0.1,1.8-0.2,3.2-0.4v-2.4h-2.8v-1.2h6.8v1.2h-2.6v2.2c0.8-0.2,2-0.4,2.8-0.6
		C672.4,451.6,672.3,451.9,672.3,452.4z M677.4,446.2c0.1,0.3,0.3,0.9,0.4,1.5c-0.5,0-1,0.1-1.4,0.2c-0.1-0.7-0.3-1.3-0.4-1.7h-1.4
		c-0.7,1.1-1.2,1.6-1.4,1.9c-0.3-0.2-0.8-0.5-1.3-0.7c1-1.1,2.1-2.6,2.8-4.1l1.3,0.3c0.1,0,0.3,0.1,0.3,0.3c0,0.3-0.4,0.3-0.6,0.3
		c-0.1,0.3-0.2,0.5-0.4,0.7h5.7v1.2H677.4z M676.1,453c-0.3-0.9-0.7-1.6-1.3-2.4l1-0.6c0.7,0.9,1,1.6,1.3,2.3
		C676.7,452.5,676.5,452.7,676.1,453z"/>
	<path d="M689,457c-1.5,0.6-4,1.3-5.4,1.7c0,0.2,0,0.5-0.3,0.5c-0.2,0-0.2-0.1-0.3-0.4l-0.4-1.5c0.6-0.1,1.2-0.2,2.7-0.6V450h-2.3
		v-1.4h2.3V444l1.6,0.1c0.2,0,0.4,0.1,0.4,0.2c0,0.2-0.3,0.2-0.5,0.3v4.1h2.1v1.4h-2.1v6.3c1.3-0.4,1.7-0.6,2.3-0.8
		C689,456.4,688.9,456.5,689,457z M696.6,459.8H693c-2.1,0-2.6-0.7-2.6-2.2v-5.4l-2.2,0.9l-0.5-1.3l2.7-1.1v-5.8l1.6,0.1
		c0.3,0,0.4,0.1,0.4,0.2c0,0.2-0.1,0.2-0.5,0.3v4.5l1.9-0.8v-5.7l1.5,0.1c0.1,0,0.4,0.1,0.4,0.2c0,0.2-0.1,0.2-0.5,0.3v4.4l2.9-1.2
		l0.8,0.4v5.8c0,1.5-0.3,2-2.5,2.1c-0.2-0.9-0.4-1.2-0.5-1.5c0.2,0,0.5,0.1,0.8,0.1c0.8,0,0.8-0.3,0.8-1v-4l-2.2,0.9v6.1h-1.5v-5.5
		l-1.9,0.8v5.8c0,0.8,0.3,1,1.5,1h3.1c1.5,0,1.9,0,2.1-2c0.4,0.4,0.7,0.6,1.4,0.8C699.4,459.7,698.5,459.8,696.6,459.8z"/>
	<path d="M710.1,451.2c0,2-0.1,6.7-6.2,8.7c-0.3-0.4-0.6-0.8-1.2-1.3c5.1-1.4,5.8-4.5,5.8-7.4h-7.2v-1.5h15.2v1.5H710.1z
		 M703.8,446.3v-1.5H714v1.5H703.8z"/>
	<path d="M732.4,448.4c-1.7,4.1-3.9,9.2-10.6,11.9c-0.2-0.3-0.4-0.5-1.2-1.2c3.2-1.3,7.6-3.6,10-11h-6c-1.7,2.7-3.9,4.5-4.6,5.2
		c-0.3-0.3-0.8-0.8-1.2-1.1c2.9-2.2,5.1-5.2,6.3-8.4l1.5,0.7c0.1,0,0.3,0.1,0.3,0.3c0,0.2-0.3,0.3-0.4,0.3c-0.5,0.9-0.7,1.3-0.9,1.7
		h5.4c0.6,0,0.9-0.1,1.2-0.3l0.9,0.9C732.6,447.8,732.5,448.1,732.4,448.4z"/>
	<path d="M744.5,445.5c-1.1,4.2-2.8,9.9-10.6,13.7c-0.3-0.4-0.7-0.8-1.2-1.2c3.4-1.5,9-4.8,10.2-13.6l1.8,0.6
		c0.2,0.1,0.3,0.1,0.3,0.2C745,445.4,744.6,445.5,744.5,445.5z"/>
	<path d="M762.1,449.7c-1.9,2.6-2.3,3.1-4.1,4.9c-0.3-0.3-0.5-0.5-1.4-0.9c1.3-1.1,2.6-2.6,3.6-4.1l-6.4,0.9v4.8
		c0,2.1,0.2,2.4,2.9,2.4c1.4,0,4.1-0.1,5.4-0.3c-0.1,0.7-0.2,0.9-0.2,1.7c-1.3,0-3.5,0-5.7,0c-3.4,0-4.1-1-4.1-3.6v-4.9l-4.6,0.7
		l-0.1-1.5l4.8-0.7v-5.1l1.6,0.1c0.2,0,0.4,0,0.4,0.2s-0.2,0.3-0.4,0.3v4.3l6.6-0.9c0.8-0.1,1.1-0.2,1.3-0.3l1.1,1
		C762.5,449.1,762.5,449.2,762.1,449.7z"/>
	<path d="M770.3,449.3c-2.5-2.3-4.4-3.1-5.2-3.5l0.9-1.3c1.4,0.7,3.2,1.7,5.2,3.4C770.8,448.5,770.5,449,770.3,449.3z M766.8,459.1
		c0,0.3-0.1,0.4-0.3,0.4c-0.1,0-0.2-0.1-0.3-0.2l-1-1.6c5.8-1.3,10.8-4.9,13.9-10c0.4,0.6,0.6,1,1,1.4
		C776.1,455.7,769.8,458,766.8,459.1z"/>
	<path d="M794.9,448.1c-1.4,3.4-1.7,4.1-2.7,5.6c1.3,1.2,1.9,1.9,2.3,2.3c-0.3,0.3-0.6,0.6-1.1,1.3c-0.4-0.6-0.9-1.2-2.2-2.4
		c-1.4,1.6-3.6,3.5-7.6,5.1c-0.3-0.4-0.4-0.6-1.1-1.4c1.9-0.5,5.2-2,7.4-4.7c-1.2-1-2.5-1.8-3.8-2.6l1-1.1c0.8,0.5,2.1,1.3,3.8,2.5
		c1-1.5,1.6-3.2,2-4.5h-5.6c-0.7,1-2.1,3-4.4,4.7c-0.3-0.4-0.6-0.7-1.2-1.1c3.3-2.1,5.2-5.6,6.1-8.1l1.6,0.5
		c0.2,0.1,0.3,0.1,0.3,0.3c0,0.2-0.3,0.2-0.4,0.2c-0.3,0.7-0.8,1.5-1.2,2.2h5c0.6,0,0.9-0.1,1.2-0.2l0.8,0.7
		C795,447.7,795,447.9,794.9,448.1z"/>
	<path d="M797.4,452.7v-1.6h15.5v1.6H797.4z"/>
	<path class="st5" d="M833.7,459.9v-15.6h15.7v15.6H833.7z"/>
	<path d="M861.3,444.4v4.7c0,4.9,0,7.9-2.7,11.2c-0.7-0.6-1.2-0.7-1.4-0.9c2.5-3,2.5-5.3,2.5-10.5v-5.2l1.6,0.1
		c0.1,0,0.5,0.1,0.5,0.3C861.7,444.2,861.5,444.3,861.3,444.4z M866.7,445.4v13.1h-1.6v-13.8l1.6,0.1c0.2,0,0.4,0.1,0.4,0.3
		C867.1,445.2,867,445.3,866.7,445.4z M872.2,444.3v15.9h-1.5v-16.6l1.6,0.1c0.2,0,0.4,0.1,0.4,0.3
		C872.7,444.2,872.5,444.2,872.2,444.3z"/>
	<path d="M881.2,446.8v10.9H880v-1.5h-3.5v2.3h-1.2v-12.2l1.4,0.1c0.1,0,0.3,0.1,0.3,0.2c0,0.2-0.1,0.2-0.4,0.3v7.9h1.2v-11.2
		l1.3,0.1c0.2,0,0.3,0.1,0.3,0.2c0,0.2-0.1,0.2-0.4,0.3v10.7h1.2v-8.6l1.3,0.1c0.1,0,0.3,0,0.3,0.2
		C881.6,446.6,881.5,446.6,881.2,446.8z M890.4,450.5c-1-0.4-2.9-1.1-4.3-3.4c-0.6,1.2-1.7,2.4-3.6,3.4c-0.5-0.8-0.8-0.9-1.1-1.1
		c0.6-0.3,2.6-1.1,3.5-2.6H882v-1.2h3.2c0.1-0.7,0.1-1.3,0.1-2.1l1.5,0.1c0.2,0,0.3,0,0.3,0.2c0,0.2-0.2,0.2-0.4,0.3
		c0,0.6-0.1,1.3-0.1,1.5h4.5v1.2h-3.8c0.4,0.5,1.4,1.7,4.1,2.6C890.8,449.8,890.6,450.1,890.4,450.5z M890,451.8v6.3
		c0,1.3-0.3,2.1-3,2.1c-0.1-0.9-0.5-1.4-0.6-1.7c0.3,0.1,0.6,0.2,1.2,0.2c0.9,0,0.9-0.1,0.9-0.7v-6.2h-6.9v-1.3h9.9v1.3H890z
		 M883.6,457.6v1.3h-1.3V453h4.9v4.6H883.6z M885.9,454.3h-2.2v2.1h2.2V454.3z"/>
	<path d="M902.4,451.2c0,2-0.1,6.7-6.2,8.7c-0.3-0.4-0.6-0.8-1.2-1.3c5.1-1.4,5.8-4.5,5.8-7.4h-7.2v-1.5h15.2v1.5H902.4z
		 M896.1,446.3v-1.5h10.2v1.5H896.1z"/>
	<path d="M924.7,448.4c-1.7,4.1-3.9,9.2-10.6,11.9c-0.2-0.3-0.4-0.5-1.2-1.2c3.2-1.3,7.6-3.6,10-11h-6c-1.7,2.7-3.9,4.5-4.6,5.2
		c-0.3-0.3-0.8-0.8-1.2-1.1c2.9-2.2,5.1-5.2,6.3-8.4l1.5,0.7c0.1,0,0.3,0.1,0.3,0.3c0,0.2-0.3,0.3-0.4,0.3c-0.5,0.9-0.7,1.3-0.9,1.7
		h5.4c0.6,0,0.9-0.1,1.2-0.3l0.9,0.9C924.9,447.8,924.8,448.1,924.7,448.4z"/>
	<path d="M936.8,445.5c-1.1,4.2-2.8,9.9-10.6,13.7c-0.3-0.4-0.7-0.8-1.2-1.2c3.4-1.5,9-4.8,10.2-13.6l1.8,0.6
		c0.2,0.1,0.3,0.1,0.3,0.2C937.3,445.4,937,445.5,936.8,445.5z"/>
	<path d="M954.4,449.7c-1.9,2.6-2.3,3.1-4.1,4.9c-0.3-0.3-0.5-0.5-1.4-0.9c1.3-1.1,2.6-2.6,3.6-4.1l-6.4,0.9v4.8
		c0,2.1,0.2,2.4,2.9,2.4c1.4,0,4.1-0.1,5.4-0.3c-0.1,0.7-0.2,0.9-0.2,1.7c-1.3,0-3.5,0-5.7,0c-3.4,0-4.1-1-4.1-3.6v-4.9l-4.6,0.7
		l-0.1-1.5l4.8-0.7v-5.1l1.6,0.1c0.2,0,0.4,0,0.4,0.2s-0.2,0.3-0.4,0.3v4.3l6.6-0.9c0.8-0.1,1.1-0.2,1.3-0.3l1.1,1
		C954.8,449.1,954.8,449.2,954.4,449.7z"/>
	<path d="M962.7,449.3c-2.5-2.3-4.4-3.1-5.2-3.5l0.9-1.3c1.4,0.7,3.2,1.7,5.2,3.4C963.1,448.5,962.8,449,962.7,449.3z M959.1,459.1
		c0,0.3-0.1,0.4-0.3,0.4c-0.1,0-0.2-0.1-0.3-0.2l-1-1.6c5.8-1.3,10.8-4.9,13.9-10c0.4,0.6,0.6,1,1,1.4
		C968.4,455.7,962.1,458,959.1,459.1z"/>
	<path d="M987.2,448.1c-1.4,3.4-1.7,4.1-2.7,5.6c1.3,1.2,1.9,1.9,2.3,2.3c-0.3,0.3-0.6,0.6-1.1,1.3c-0.4-0.6-0.9-1.2-2.2-2.4
		c-1.4,1.6-3.6,3.5-7.6,5.1c-0.3-0.4-0.4-0.6-1.1-1.4c1.9-0.5,5.2-2,7.4-4.7c-1.2-1-2.5-1.8-3.8-2.6l1-1.1c0.8,0.5,2.1,1.3,3.8,2.5
		c1-1.5,1.6-3.2,2-4.5h-5.6c-0.7,1-2.1,3-4.4,4.7c-0.3-0.4-0.6-0.7-1.2-1.1c3.3-2.1,5.2-5.6,6.1-8.1l1.6,0.5
		c0.2,0.1,0.3,0.1,0.3,0.3c0,0.2-0.3,0.2-0.4,0.2c-0.3,0.7-0.8,1.5-1.2,2.2h5c0.6,0,0.9-0.1,1.2-0.2l0.8,0.7
		C987.4,447.7,987.3,447.9,987.2,448.1z"/>
	<path d="M989.7,452.7v-1.6h15.5v1.6H989.7z"/>
	<path class="st6" d="M1026.1,459.9v-15.6h15.7v15.6H1026.1z"/>
	<path d="M1049.6,459.5v-1.4h7.5v-5.6h-5.5v-1.4h5.5V446h-6.5v-1.4h14.6v1.4h-6.5v5.1h5.5v1.4h-5.5v5.6h7.6v1.4H1049.6z"/>
	<path d="M1076.1,452.4v5.2c0,2.4-0.7,2.6-4,2.7c-0.1-0.6-0.2-1-0.5-1.7c0.7,0.1,1,0.2,1.7,0.2c1.2,0,1.2-0.3,1.2-1.4v-4.9h-7.7V451
		h7.7v-2.7l1.1,0.2c0.7-0.4,2.2-1.5,3.1-2.6h-10.2v-1.4h11.9l0.9,0.9c-0.8,0.9-2.8,2.7-5.3,4.5v1.1h7.5v1.4H1076.1z"/>
	<path d="M1083.6,458.8v-1.5h7.5v-10.7h-6.3v-1.5h14.2v1.5h-6.3v10.7h7.5v1.5H1083.6z"/>
	<path d="M1107.6,454.4c-0.9,0.3-3.2,1.3-5.2,2c0,0.2,0,0.5-0.3,0.5c-0.1,0-0.2-0.1-0.3-0.4l-0.4-1.4c0.9-0.2,2-0.6,2.5-0.7v-5.2
		h-2.3v-1.4h2.3v-4.1l1.5,0.1c0.2,0,0.4,0,0.4,0.2s-0.2,0.2-0.4,0.3v3.4h2.3v1.4h-2.3v4.7c0.3-0.1,1.5-0.5,2.3-0.9
		C1107.6,453.4,1107.5,453.9,1107.6,454.4z M1110.9,452.3c-0.2,0.4-0.4,0.7-0.7,1.1h7.3c0,1.6-0.3,5.2-1.2,6.2
		c-0.3,0.3-0.8,0.7-2.7,0.6c0-0.4-0.1-0.8-0.5-1.6c0.5,0.1,1.1,0.1,1.4,0.1c0.4,0,0.9,0,1.1-1.1c0.3-1.6,0.4-2.5,0.4-3h-1.1
		c-1.5,3.2-3.6,5-4.4,5.7c-0.2-0.2-0.4-0.4-1.1-0.8c1.1-0.8,2.7-2.2,4.2-4.9h-1.4c-0.7,1.2-2.3,3.3-5.2,5.1c-0.3-0.4-0.6-0.6-1-0.9
		c2.7-1.3,4.2-3.3,4.8-4.2h-1.5c-0.7,0.8-1.5,1.6-2.6,2.4c-0.3-0.4-0.7-0.6-1.1-0.8c0.9-0.6,2.4-1.7,3.9-3.9h-2.3v-1.2h10.9v1.2
		H1110.9z M1108.7,450.2v-6.1h7.7v6.1H1108.7z M1115.1,445.3h-4.9v1.3h4.9V445.3z M1115.1,447.7h-4.9v1.4h4.9V447.7z"/>
</g>
<g>
	<path d="M114.5,406.2c0.2,1.7,1.5,2.5,2.9,2.5c3.6,0,3.9-3.8,4-5.7c-0.4,0.5-1.5,1.7-4.1,1.7c-3.2,0-4.9-2.1-4.9-4.7
		c0-2.8,2-4.9,5.2-4.9c5.2,0,5.6,5.2,5.6,7.3c0,0.8-0.1,4.4-2,6.3c-0.9,0.9-2.4,1.5-3.8,1.5c-0.4,0-4.3,0-4.8-4H114.5z M114.3,400
		c0,1.9,1.1,3.3,3.3,3.3c2.6,0,3.7-1.7,3.7-3.2c0-2-1.6-3.4-3.6-3.4C116,396.7,114.3,397.7,114.3,400z"/>
	<path d="M136,402.7c0,2.9-0.7,7.6-5.4,7.6c-4.7,0-5.4-4.8-5.4-7.6c0-2.7,0.7-7.6,5.4-7.6C135.3,395.1,136,399.9,136,402.7z
		 M126.9,402.7c0,2.4,0.5,6,3.6,6c3.1,0,3.6-3.6,3.6-6c0-2.4-0.5-6-3.6-6C127.4,396.7,126.9,400.2,126.9,402.7z"/>
</g>
<g>
	<path d="M8.3,1c-1.1,1-4,3.6-4,8.6s2.8,7.5,4,8.6l-1,1c-4.2-3.6-4.4-7.9-4.4-9.6s0.2-6,4.4-9.6L8.3,1z"/>
	<path d="M20.4,9.8v8.9h-1.8V9.8h-8.3V8.1h8.3V3.5c-2.2,0.3-3.8,0.4-6.1,0.5c-0.3-0.9-0.7-1.5-0.9-1.7c5.6,0.1,9.9-0.7,13.4-2.1
		l1.2,1.3c0.1,0.1,0.2,0.2,0.2,0.3C26.4,2,26.2,2,26.1,2c-0.2,0-0.3-0.1-0.5-0.1c-1.9,0.6-3.3,1-5.2,1.3v4.9h8.3v1.7H20.4z"/>
	<path d="M42.7,12.7c-1.9-1.9-4.3-3.6-7.4-5.1v10.5h-1.8V0.8L35.3,1c0.3,0,0.4,0.1,0.4,0.2c0,0.2-0.3,0.3-0.4,0.3v5.7l0.8-1.1
		c1.8,0.9,4.8,2.5,7.7,5.1C43.2,11.8,42.8,12.5,42.7,12.7z"/>
	<path d="M51,6.7c-2.8-2.5-4.9-3.4-5.7-3.8l1-1.5c1.5,0.8,3.5,1.9,5.7,3.8C51.5,5.8,51.2,6.4,51,6.7z M47.1,17.5
		c0,0.3-0.1,0.5-0.3,0.5c-0.1,0-0.3-0.1-0.3-0.2l-1.1-1.8c6.4-1.4,11.9-5.4,15.3-11c0.4,0.7,0.7,1.1,1.1,1.6
		C57.3,13.7,50.4,16.3,47.1,17.5z"/>
	<path d="M59.5,18.6L59,18.1L76.6,0.5L77.1,1L59.5,18.6z"/>
	<path d="M88.2,14.3v4.4h-1.7v-4.4H77v-1.5h3.4V7.5h6V4.4h-5.3c-1.2,1.8-2.1,2.9-2.9,3.7c-0.9-0.6-1.3-0.8-1.6-0.9
		c1.5-1.4,3.4-3.5,4.6-7l1.6,0.5c0.2,0.1,0.3,0.1,0.3,0.3c0,0.3-0.3,0.3-0.6,0.3c-0.3,0.8-0.5,1.2-0.7,1.5h12.5v1.5h-6.4v3.2h4.7V9
		h-4.7v3.7h7.1v1.5H88.2z M86.5,9h-4.3v3.7h4.3V9z"/>
	<path d="M98.3,19.1l-1-1c1.1-1,4-3.6,4-8.6S98.4,2,97.3,1l1-1c3.8,3.3,4.4,7.2,4.4,9.6S102.1,15.8,98.3,19.1z"/>
</g>
<g>
	<path d="M293.3,146.2c-1.3-1.2-2-2.4-2.7-3.9c-0.4,1.5-1.4,3.6-3.9,5.8c-0.3-0.4-0.6-0.6-1.2-1c2.3-1.9,3.7-3.9,4.1-6.6h-3.7V139
		h3.9c0-0.3,0-0.7,0-0.8v-2.8h-1.4c-0.6,1.5-1.1,2.2-1.4,2.7c-0.5-0.3-0.8-0.4-1.4-0.6c1.4-2.1,2.1-4.1,2.5-6.1l1.5,0.3
		c0.2,0,0.3,0.2,0.3,0.3c0,0.2-0.2,0.2-0.5,0.3c-0.1,0.3-0.2,0.7-0.5,1.7h4.9v1.4h-2.6v2.7c0,0.5,0,0.6,0,0.9h3.2v1.4h-3.2
		c0.3,0.9,1.1,2.9,3.3,4.7C294.1,145.4,293.7,145.7,293.3,146.2z M300,147.5v-1.6h-3.4v1.7h-1.5v-14.3h6.4v14.2H300z M300,134.7
		h-3.4v9.9h3.4V134.7z"/>
	<path d="M304.5,148.2c-0.1-0.5-0.3-0.9-0.7-1.4c2.8-0.1,5.7-0.7,8.2-1.9c-0.8-1-1.6-1.7-2.2-2.2c-0.8,0.5-2.1,1.3-3.8,1.9
		c-0.3-0.4-0.6-0.8-1.1-1.1c4.9-1.7,7.2-4.3,8.6-5.9l1.3,0.4c0.1,0,0.4,0.1,0.4,0.3c0,0.2-0.3,0.2-0.5,0.3c-0.3,0.3-0.6,0.6-1.3,1.3
		h5.3l0.7,0.6C316.3,145.3,310.4,147.5,304.5,148.2z M304.9,141.3c-0.1-0.5-0.3-0.7-0.8-1.3c3.1-0.6,5.3-1.8,6.3-2.3
		c-0.3-0.3-1.2-1.5-2.3-2.2c-1.1,0.8-1.7,1.2-2.9,1.8c-0.2-0.2-0.5-0.7-1.2-1.1c2.1-0.9,4.5-2.3,6.3-5l1.5,0.3
		c0.1,0,0.4,0.1,0.4,0.2c0,0.1-0.1,0.2-0.5,0.3c-0.3,0.4-0.5,0.5-0.7,0.8h6.2l0.6,0.7C316.5,134.9,311.9,139.4,304.9,141.3z
		 M309.9,133.9c-0.2,0.2-0.4,0.3-0.7,0.7c0.8,0.7,1.8,1.6,2.5,2.4c1.1-0.7,2.7-1.8,3.8-3H309.9z M312,141c-0.2,0.2-0.5,0.4-1,0.8
		c0.3,0.2,1.5,1.3,2.3,2.3c1.5-0.9,3.1-2.1,3.8-3.1H312z"/>
	<path d="M320,146.6v-1.5h7.5v-10.7h-6.3V133h14.2v1.5h-6.3v10.7h7.5v1.5H320z"/>
	<path d="M344,142.2c-0.9,0.3-3.2,1.3-5.2,2c0,0.2,0,0.5-0.3,0.5c-0.1,0-0.2-0.1-0.3-0.4l-0.4-1.4c0.9-0.2,2-0.6,2.5-0.7v-5.2H338
		v-1.4h2.3v-4.1l1.5,0.1c0.2,0,0.4,0,0.4,0.2s-0.2,0.2-0.4,0.3v3.4h2.3v1.4h-2.3v4.7c0.3-0.1,1.5-0.5,2.3-0.9
		C344,141.2,344,141.8,344,142.2z M347.4,140.1c-0.2,0.4-0.4,0.7-0.7,1.1h7.3c0,1.6-0.3,5.2-1.2,6.2c-0.3,0.3-0.8,0.7-2.7,0.6
		c0-0.4-0.1-0.8-0.5-1.6c0.5,0.1,1.1,0.1,1.4,0.1c0.4,0,0.9,0,1.1-1.1c0.3-1.6,0.4-2.5,0.4-3h-1.1c-1.5,3.2-3.6,5-4.4,5.7
		c-0.2-0.2-0.4-0.4-1.1-0.8c1.1-0.8,2.7-2.2,4.2-4.9h-1.4c-0.7,1.2-2.3,3.3-5.2,5.1c-0.3-0.4-0.6-0.6-1-0.9c2.7-1.3,4.2-3.3,4.8-4.2
		h-1.5c-0.7,0.8-1.5,1.6-2.6,2.4c-0.3-0.4-0.7-0.6-1.1-0.8c0.9-0.6,2.4-1.7,3.9-3.9h-2.3v-1.2h10.9v1.2H347.4z M345.2,138v-6.1h7.7
		v6.1H345.2z M351.5,133.1h-4.9v1.3h4.9V133.1z M351.5,135.5h-4.9v1.4h4.9V135.5z"/>
	<path d="M291,158.3c0.2,0.1,0.3,0.2,0.3,0.3c0,0.3-0.4,0.3-0.5,0.3c-0.8,2.9-2.6,6.3-4,8.1c-0.5-0.3-1.1-0.6-1.6-0.7
		c3-3.8,4.1-7.8,4.2-8.4L291,158.3z M294.8,154.1c0.1,0,0.4,0.1,0.4,0.2s-0.2,0.3-0.4,0.3V168c0,2.4-1,2.7-3.7,2.7
		c-0.1-0.7-0.3-1.2-0.6-1.7c0.7,0.1,1.2,0.1,1.4,0.1c1.3,0,1.3-0.4,1.3-1.2v-14L294.8,154.1z M298.1,157.8c0.9,2.1,2.4,5.6,4.5,8.3
		c-0.6,0.3-1,0.5-1.5,0.9c-1.6-2.3-3.1-5.2-4.4-8.5L298.1,157.8z"/>
	<path d="M303.1,170v-1.3h7.5v-2.4h-5.3v-1.3h5.3v-1.8l1.6,0.1c0.1,0,0.3,0,0.3,0.2c0,0.2-0.2,0.3-0.4,0.3v1.2h5.4v1.3h-5.4v2.4h7.6
		v1.3H303.1z M310.1,159.5v4.3h-1.5v-4.3h-1.7c-0.2,2.1-0.7,3.3-2.1,4.6c-0.4-0.3-0.9-0.6-1.4-0.7c1.5-1.3,1.9-2.3,2-3.9h-2.1v-1.3
		h2.2V156h-1.6v-1.3h7.9v1.3h-1.7v2.2h2.1v1.3H310.1z M308.6,156h-1.7v2.2h1.7V156z M314.5,155.6v6.1h-1.5v-6.7l1.5,0.1
		c0.2,0,0.3,0,0.3,0.2C314.9,155.4,314.7,155.5,314.5,155.6z M318.5,154.6v7.7c0,1.7-0.7,1.8-3.1,1.9c-0.1-0.7-0.2-1-0.5-1.6
		c0.7,0.1,1.2,0.1,1.3,0.1c0.8,0,0.8-0.2,0.8-0.8v-7.8l1.6,0.1c0.1,0,0.3,0.1,0.3,0.2C318.9,154.5,318.7,154.5,318.5,154.6z"/>
	<path d="M324.8,156.2v3.2c0,4.8,0,7.7-2.1,11.3c-0.3-0.3-0.6-0.6-1.4-0.9c2-3.1,2-5.3,2-10.1v-5h14.8v1.4H324.8z M325.1,170v-1.4
		h5.9v-5.8h-4.7v-1.4h4.7v-4.6l1.6,0.1c0.1,0,0.4,0.1,0.4,0.3c0,0.2-0.3,0.3-0.5,0.3v3.9h4.8v1.4h-4.8v5.8h5.7v1.4H325.1z"/>
	<path d="M356.5,170.1h-6.9c-3.8,0-5.2-0.9-6.2-1.8c-0.9,1.3-1.8,2.1-2.3,2.5c-0.3-0.3-0.6-0.5-1.3-0.9c1.1-0.8,1.9-1.6,2.6-2.6
		c-1-1.2-1.6-2.3-2.1-3.8l1.2-0.5c0.1,0.5,0.6,1.8,1.6,3.1c0.4-0.8,0.9-2,1.2-4.7h-2c-0.4,0.7-0.4,0.8-0.6,1.2
		c-0.4-0.2-0.7-0.4-1.4-0.6c0.9-1.5,2.7-5.5,2.8-5.8h-3V155h4.3l0.6,0.6c-1,2.4-1.7,3.9-2,4.5h2.7c0,1.2-0.1,4.2-1.7,7.1
		c1.6,1.4,3.1,1.6,6.5,1.6c2.9,0,4.5-0.1,6.4-0.3C356.6,169.2,356.5,169.8,356.5,170.1z M345.7,167.1v-1.4h1.5V158l1.5,0.1
		c0.2,0,0.4,0.1,0.4,0.3c0,0.2-0.3,0.3-0.5,0.3v7.2h2v-9.4c-2.3,0.3-3.6,0.3-4.7,0.3c-0.3-0.9-0.3-1-0.5-1.4c3,0.1,7.4-0.3,10-1.5
		l0.8,1.1c0.1,0.1,0.1,0.2,0.1,0.3c0,0.1-0.1,0.2-0.2,0.2c-0.1,0-0.2,0-0.3-0.1c-1.4,0.5-2.2,0.6-3.7,0.9v3.9h3.7v1.4h-3.7v4.4h4.4
		v1.4H345.7z"/>
	<path d="M285.6,192.8v-1.2h7.6v-1.4H287v-1.1h6.2V188h-5.5v-5.6h5.5v-1.1h-7.4V180h7.4v-1.2c-2.4,0.2-3.2,0.3-6,0.3
		c-0.2-0.5-0.4-0.7-0.8-1.2c2,0,8.1,0,12.5-1.5l0.9,1c0.1,0.1,0.2,0.3,0.2,0.3c0,0.1-0.1,0.2-0.2,0.2c-0.1,0-0.3-0.1-0.5-0.2
		c-1.2,0.3-3.2,0.8-4.7,1v1.3h7.5v1.2h-7.5v1.1h5.6v5.6h-5.6v1.2h6.3v1.1h-6.3v1.4h7.7v1.2H285.6z M293.2,183.4h-4v1.2h4V183.4z
		 M293.2,185.6h-4v1.3h4V185.6z M298.8,183.4h-4.1v1.2h4.1V183.4z M298.8,185.6h-4.1v1.3h4.1V185.6z"/>
	<path d="M304.5,181.4c1.4,0.7,2.2,1.3,3.2,2.1c-0.5,0.5-0.7,1-0.9,1.2c-1-0.9-1.9-1.5-3.2-2.1L304.5,181.4z M304,192.2
		c1.5-2.4,2.3-4.7,2.8-6.4c0.4,0.4,0.7,0.6,1.2,0.9c-0.8,2.3-1,2.8-2.4,5.9c0.1,0.1,0.2,0.3,0.2,0.4c0,0.1-0.1,0.2-0.2,0.2
		c-0.1,0-0.2-0.1-0.3-0.1L304,192.2z M306,176.5c0.6,0.4,1.7,1.1,3,2.2c-0.4,0.4-0.7,0.7-0.9,1.1c-1.1-0.9-2.1-1.7-3-2.2L306,176.5z
		 M310.9,192.1v1.1h-1.5v-12.8h4.6v-3.9l1.7,0.1c0.2,0,0.3,0.1,0.3,0.2c0,0.2-0.2,0.3-0.5,0.4v3.2h4.6v12.8h-1.5v-1.1H310.9z
		 M314,185.4v-3.7h-3.1v3.7H314z M314,190.7v-3.9h-3.1v3.9H314z M318.7,185.4v-3.7h-3.1v3.7H318.7z M318.7,190.7v-3.9h-3.1v3.9
		H318.7z"/>
	<path d="M331.3,187h4.9v1.4h-4.9v2.8h7.1v1.4h-15.7v-1.4h7.1v-2.8h-4.8V187h4.8v-2.6h-4.2v-1.2c-1,0.7-1.6,1.1-2.4,1.5
		c-0.3-0.5-1-1.1-1.2-1.2c2.3-1,6.1-3.4,8-7.2l1.6,0.3c0.1,0,0.3,0.1,0.3,0.3c0,0.2-0.1,0.2-0.6,0.3c0.7,1,3.1,4.1,7.8,6.1
		c-0.3,0.3-0.8,0.9-1,1.3c-1.1-0.5-1.5-0.7-2.5-1.4v1.2h-4.3V187z M335.3,183c-2.6-1.8-3.6-3.1-4.9-4.6c-1.6,2.3-3.4,3.7-4.6,4.6
		H335.3z"/>
	<path d="M343.2,179.5v3.5c0,3.9-0.1,7-1.7,10.3c-0.4-0.3-0.9-0.5-1.4-0.7c1.6-3,1.6-6.2,1.6-9.5v-5h6.4v-1.8l1.7,0.1
		c0.1,0,0.3,0,0.3,0.2c0,0.2-0.4,0.3-0.5,0.4v1.2h7.4v1.3H343.2z M356,186.8c-1.5-0.8-2.3-1.6-2.4-1.7v0.7H352v1.9h4v1.3h-4v1.7
		c0,0.7,0.1,0.9,0.8,0.9h1.5c0.6,0,1-0.1,1.2-1.9c0.2,0.2,0.6,0.5,1.4,0.5c-0.4,2.5-1.2,2.7-2.5,2.7h-1.8c-1.4,0-1.9-0.5-1.9-1.8
		V189h-2.1c-0.3,1.8-1.4,3.3-4.4,4.3c-0.1-0.4-0.4-1-0.8-1.3c2.7-0.7,3.5-1.8,3.9-3h-3.3v-1.3h3.4v-1.9H346v-0.3
		c-0.9,0.7-1.4,1.1-1.8,1.4c-0.3-0.4-0.5-0.7-1.1-1.1c0.5-0.3,1-0.5,2-1.4c-0.5-0.6-1.1-1.1-1.6-1.5l1-0.8c0.5,0.4,1,1,1.5,1.5
		c0.5-0.5,1.1-1.2,1.5-1.8h-3.3v-1.1h4.7l0.6,0.5c-0.4,0.7-1.2,1.9-2.6,3.3h6c-1-1.1-1.9-2-2.8-3.8l1.2-0.6c0.2,0.4,0.4,0.8,0.9,1.4
		c0.3-0.2,0.9-0.7,1.6-1.6l1,0.8c0.1,0.1,0.2,0.2,0.2,0.3c0,0.1-0.1,0.1-0.2,0.1c-0.1,0-0.2,0-0.3,0c-0.6,0.7-1.4,1.3-1.5,1.3
		c0.3,0.3,0.7,0.7,0.8,0.8c0.3-0.3,1.3-1,1.9-1.7l1,0.8c0.1,0.1,0.3,0.3,0.3,0.4c0,0.1-0.1,0.2-0.2,0.2c-0.2,0-0.3-0.1-0.4-0.1
		c-0.6,0.5-1.3,1-1.7,1.2c0.7,0.6,1.5,1.2,2.5,1.6C356.5,186.1,356.1,186.7,356,186.8z M350.6,185.9h-2v1.9h2V185.9z"/>
</g>
<g>
	<path d="M836.8,262.4c-1.3-1.2-2-2.4-2.7-3.9c-0.4,1.5-1.4,3.6-3.9,5.8c-0.3-0.4-0.6-0.6-1.2-1c2.3-1.9,3.7-3.9,4.1-6.6h-3.7v-1.4
		h3.9c0-0.3,0-0.7,0-0.8v-2.8h-1.4c-0.6,1.5-1.1,2.2-1.4,2.7c-0.5-0.3-0.8-0.4-1.4-0.6c1.4-2.1,2.1-4.1,2.5-6.1l1.5,0.3
		c0.2,0,0.3,0.2,0.3,0.3c0,0.2-0.2,0.2-0.5,0.3c-0.1,0.3-0.2,0.7-0.5,1.7h4.9v1.4h-2.6v2.7c0,0.5,0,0.6,0,0.9h3.2v1.4h-3.2
		c0.3,0.9,1.1,2.9,3.3,4.7C837.5,261.6,837.2,261.9,836.8,262.4z M843.5,263.7v-1.6h-3.4v1.7h-1.5v-14.3h6.4v14.2H843.5z
		 M843.5,250.9h-3.4v9.9h3.4V250.9z"/>
	<path d="M848,264.4c-0.1-0.5-0.3-0.9-0.7-1.4c2.8-0.1,5.7-0.7,8.2-1.9c-0.8-1-1.6-1.7-2.2-2.2c-0.8,0.5-2.1,1.3-3.8,1.9
		c-0.3-0.4-0.6-0.8-1.1-1.1c4.9-1.7,7.2-4.3,8.6-5.9l1.3,0.4c0.1,0,0.4,0.1,0.4,0.3c0,0.2-0.3,0.2-0.5,0.3c-0.3,0.3-0.6,0.6-1.3,1.3
		h5.3l0.7,0.6C859.7,261.5,853.9,263.7,848,264.4z M848.4,257.5c-0.1-0.5-0.3-0.7-0.8-1.3c3.1-0.6,5.3-1.8,6.3-2.3
		c-0.3-0.3-1.2-1.5-2.3-2.2c-1.1,0.8-1.7,1.2-2.9,1.8c-0.2-0.2-0.5-0.7-1.2-1.1c2.1-0.9,4.5-2.3,6.3-5l1.5,0.3
		c0.1,0,0.4,0.1,0.4,0.2c0,0.1-0.1,0.2-0.5,0.3c-0.3,0.4-0.5,0.5-0.7,0.8h6.2l0.6,0.7C860,251.1,855.4,255.6,848.4,257.5z
		 M853.4,250.1c-0.2,0.2-0.4,0.3-0.7,0.7c0.8,0.7,1.8,1.6,2.5,2.4c1.1-0.7,2.7-1.8,3.8-3H853.4z M855.5,257.2
		c-0.2,0.2-0.5,0.4-1,0.8c0.3,0.2,1.5,1.3,2.3,2.3c1.5-0.9,3.1-2.1,3.8-3.1H855.5z"/>
	<path d="M863.5,262.8v-1.5h7.5v-10.7h-6.3v-1.5h14.2v1.5h-6.3v10.7h7.5v1.5H863.5z"/>
	<path d="M887.5,258.4c-0.9,0.3-3.2,1.3-5.2,2c0,0.2,0,0.5-0.3,0.5c-0.1,0-0.2-0.1-0.3-0.4l-0.4-1.4c0.9-0.2,2-0.6,2.5-0.7v-5.2
		h-2.3v-1.4h2.3v-4.1l1.5,0.1c0.2,0,0.4,0,0.4,0.2s-0.2,0.2-0.4,0.3v3.4h2.3v1.4h-2.3v4.7c0.3-0.1,1.5-0.5,2.3-0.9
		C887.5,257.4,887.4,258,887.5,258.4z M890.8,256.3c-0.2,0.4-0.4,0.7-0.7,1.1h7.3c0,1.6-0.3,5.2-1.2,6.2c-0.3,0.3-0.8,0.7-2.7,0.6
		c0-0.4-0.1-0.8-0.5-1.6c0.5,0.1,1.1,0.1,1.4,0.1c0.4,0,0.9,0,1.1-1.1c0.3-1.6,0.4-2.5,0.4-3h-1.1c-1.5,3.2-3.6,5-4.4,5.7
		c-0.2-0.2-0.4-0.4-1.1-0.8c1.1-0.8,2.7-2.2,4.2-4.9h-1.4c-0.7,1.2-2.3,3.3-5.2,5.1c-0.3-0.4-0.6-0.6-1-0.9c2.7-1.3,4.2-3.3,4.8-4.2
		h-1.5c-0.7,0.8-1.5,1.6-2.6,2.4c-0.3-0.4-0.7-0.6-1.1-0.8c0.9-0.6,2.4-1.7,3.9-3.9h-2.3v-1.2H898v1.2H890.8z M888.6,254.3v-6.1h7.7
		v6.1H888.6z M895,249.3h-4.9v1.3h4.9V249.3z M895,251.7h-4.9v1.4h4.9V251.7z"/>
	<path d="M835.9,271.8c0.1,0.1,0.2,0.2,0.2,0.3c0,0.2-0.3,0.2-0.6,0.2c-1.4,2.3-2.7,4.1-5.7,6.4c-0.4-0.6-0.8-0.9-1.2-1.2
		c2.1-1.5,4.2-3.3,5.8-6.6L835.9,271.8z M832.6,278.1v-1.5h9.8c0,0.4,0,6.9-1.1,8.6c-0.5,0.8-1.1,1.5-4.1,1.5
		c-0.1-0.8-0.3-1.4-0.5-1.7c0.3,0.1,0.7,0.1,1.4,0.1c1.5,0,1.9-0.4,2.2-1.7c0.4-1.9,0.4-4.3,0.4-5.3H837c-0.1,1.3-0.3,3.7-2.3,5.9
		c-0.4,0.4-1.6,1.8-3.8,2.8c-0.3-0.7-0.9-1.1-1.1-1.3c5.5-2.3,5.7-6.2,5.7-7.4H832.6z M841,270.7c0.6,2.9,2.9,5.3,5.1,6.6
		c-0.6,0.5-0.8,0.9-1.1,1.4c-0.3-0.2-3.8-2.6-5.3-6.6h-2.7v-1.4H841z"/>
	<path d="M853.2,282.6c-2,0.9-3.8,1.4-5.3,1.9c0,0.2-0.1,0.5-0.4,0.5c-0.1,0-0.2-0.2-0.2-0.4l-0.2-1.5c0.4-0.1,0.9-0.2,2.3-0.6v-6.3
		h-2.2v-1.4h2.2v-4.6l1.4,0.1c0.2,0,0.4,0,0.4,0.2s-0.2,0.3-0.4,0.4v3.9h2.1v1.4h-2.1v5.9c1.1-0.4,1.8-0.7,2.5-0.9
		C853.3,281.6,853.2,282.2,853.2,282.6z M861.4,286.5h-1.5c-1.4,0-1.9-0.4-1.9-2v-5.2h-2.3l1.3,0.4c0.1,0,0.4,0.1,0.4,0.3
		c0,0.2-0.3,0.2-0.5,0.3c-0.6,2.5-1.5,4.9-4.7,6.6c-0.2-0.3-0.3-0.6-1.1-1.1c4-1.9,4.4-5.2,4.5-6.4h-2.1v-7.2h3c0.2-0.4,0.4-1,0.7-2
		l1.5,0.2c0.1,0,0.3,0.1,0.3,0.3c0,0.2-0.3,0.2-0.6,0.3c-0.2,0.6-0.4,1-0.5,1.2h5v7.2h-3.5v3.1c0.2,0,0.3,0,0.5-0.1
		c0.1-0.4,0.5-1.8,0.6-2.8l1.1,0.2c0.1,0,0.4,0.1,0.4,0.3c0,0.2-0.2,0.2-0.4,0.2c-0.1,0.3-0.1,0.7-0.5,2c0.9-0.1,1-0.1,1.3-0.2
		c-0.1-0.4-0.2-0.6-0.3-0.8l1-0.3c0.2,0.6,0.5,1.7,0.7,2.2c-0.5,0.1-0.8,0.2-1,0.3c0-0.2-0.1-0.4-0.1-0.5c-1.1,0.2-1.9,0.4-2.5,0.5
		c-0.1,0.2-0.1,0.4-0.3,0.4c-0.1,0-0.2-0.2-0.2-0.3l-0.2-0.8v1.7c0,0.5,0.1,0.8,0.7,0.8h1.4c0.9,0,1.1-1,1.2-1.7
		c0.5,0.4,1.1,0.5,1.3,0.6C863.4,286.4,862.6,286.5,861.4,286.5z M857.5,273.3h-2.6v1.7h2.6V273.3z M857.5,276.2h-2.6v1.8h2.6V276.2
		z M861.4,273.3h-2.7v1.7h2.7V273.3z M861.4,276.2h-2.7v1.8h2.7V276.2z"/>
	<path d="M868.6,272.4v3.2c0,4.8,0,7.7-2.1,11.3c-0.3-0.3-0.6-0.6-1.4-0.9c2-3.1,2-5.3,2-10.1v-5h14.8v1.4H868.6z M868.9,286.3v-1.4
		h5.9v-5.8h-4.7v-1.4h4.7v-4.6l1.6,0.1c0.1,0,0.4,0.1,0.4,0.3c0,0.2-0.3,0.3-0.5,0.3v3.9h4.8v1.4h-4.8v5.8h5.7v1.4H868.9z"/>
	<path d="M900.3,286.3h-6.9c-3.8,0-5.2-0.9-6.2-1.8c-0.9,1.3-1.8,2.1-2.3,2.5c-0.3-0.3-0.6-0.5-1.3-0.9c1.1-0.8,1.9-1.6,2.6-2.6
		c-1-1.2-1.6-2.3-2.1-3.8l1.2-0.5c0.1,0.5,0.6,1.8,1.6,3.1c0.4-0.8,0.9-2,1.2-4.7h-2c-0.4,0.7-0.4,0.8-0.6,1.2
		c-0.4-0.2-0.7-0.4-1.4-0.6c0.9-1.5,2.7-5.5,2.8-5.8h-3v-1.3h4.3l0.6,0.6c-1,2.4-1.7,3.9-2,4.5h2.7c0,1.2-0.1,4.2-1.7,7.1
		c1.6,1.4,3.1,1.6,6.5,1.6c2.9,0,4.5-0.1,6.4-0.3C900.5,285.4,900.4,286,900.3,286.3z M889.5,283.4V282h1.5v-7.8l1.5,0.1
		c0.2,0,0.4,0.1,0.4,0.3c0,0.2-0.3,0.3-0.5,0.3v7.2h2v-9.4c-2.3,0.3-3.6,0.3-4.7,0.3c-0.3-0.9-0.3-1-0.5-1.4c3,0.1,7.4-0.3,10-1.5
		l0.8,1.1c0.1,0.1,0.1,0.2,0.1,0.3c0,0.1-0.1,0.2-0.2,0.2c-0.1,0-0.2,0-0.3-0.1c-1.4,0.5-2.2,0.6-3.7,0.9v3.9h3.7v1.4h-3.7v4.4h4.4
		v1.4H889.5z"/>
	<path d="M835.2,302.2c-0.1-0.3-0.1-0.5-0.3-0.9c-0.6,0.1-0.9,0.2-1.7,0.3v7.9h-1.4v-7.7c-0.4,0.1-1.9,0.2-2.3,0.3
		c0,0.1-0.1,0.4-0.3,0.4c-0.2,0-0.2-0.1-0.3-0.5l-0.2-1.3c0.5,0,0.9,0,1.5-0.1c0.5-0.6,0.8-1.1,1.2-1.7c-0.4-0.4-1.5-1.7-2.7-2.6
		l0.9-1.2c0.2,0.2,0.4,0.3,0.9,0.8c0.4-0.6,1.3-2.1,1.8-3.3l1.2,0.6c0.1,0.1,0.3,0.2,0.3,0.3c0,0.2-0.2,0.2-0.4,0.2h-0.1
		c-0.8,1.4-1.1,1.9-1.9,3.2c0.3,0.3,0.6,0.6,0.9,0.9c1.1-1.7,1.5-2.4,1.9-3.1l1.2,0.7c0.1,0.1,0.2,0.1,0.2,0.3
		c0,0.2-0.1,0.2-0.5,0.2c-1.4,2.2-1.8,2.9-3.3,4.8c0.9-0.1,1.4-0.1,2.7-0.3c-0.3-0.8-0.4-1.2-0.6-1.5l1.1-0.4c0.5,1.1,1,2.3,1.4,3.4
		C836.1,301.8,835.6,302,835.2,302.2z M831.1,303.6c-0.2,2-0.6,3.3-0.8,4c-0.5-0.2-0.7-0.2-1.4-0.3c0.5-1.1,0.9-3,1-4.4l1.2,0.1
		c0.1,0,0.3,0.1,0.3,0.2C831.5,303.5,831.3,303.6,831.1,303.6z M834.6,306.3c-0.3-1-0.5-2.3-0.7-3.5l1.1-0.3
		c0.1,0.9,0.3,1.9,0.8,3.4C835.2,306.1,835,306.1,834.6,306.3z M836.2,308.9c-0.4-0.5-1-0.8-1.2-0.8c1.7-1.5,2.5-3.1,3-4.5h-1.8
		v-1.3h2.8l0.6,0.5C839.4,303.6,838.8,306.3,836.2,308.9z M845.1,308.8c-2.3-2-3.1-3.9-3.5-4.7v3.1c0,2.2-1,2.3-3,2.3
		c0-0.3-0.1-0.7-0.6-1.5c0.3,0.1,0.6,0.2,1.2,0.2c0.7,0,1-0.1,1-0.9v-6.5h-3.1v-6.2h2.3c0.4-0.7,0.6-1.1,0.8-2l1.4,0.2
		c0.2,0,0.3,0.1,0.3,0.3c0,0.2-0.2,0.2-0.5,0.3c-0.3,0.5-0.5,0.9-0.7,1.3h3.9v6.2h-3.1v1.2c0.4,0.8,0.6,1.3,0.8,1.6
		c1.1-1,1.7-1.7,2.1-2.1l1.1,0.7c0.2,0.1,0.3,0.2,0.3,0.4s-0.2,0.2-0.3,0.2s-0.2,0-0.4,0c-0.7,0.7-1.8,1.6-2.2,1.9
		c0.8,1.2,1.9,2.3,3.1,3.2C845.7,308,845.5,308.2,845.1,308.8z M843.3,295.7h-4.8v1.4h4.8V295.7z M843.3,298.2h-4.8v1.5h4.8V298.2z"
		/>
	<path d="M853.3,303.7c-0.7-1.2-0.9-1.8-1.5-3.2v8.9h-1.4v-8.7c-0.7,1.9-1.5,3.7-2.6,5.4c-0.3-0.3-0.6-0.5-1.3-0.9
		c2-2.5,3.3-5.7,3.8-7.4h-3.4v-1.3h3.5v-3.9l1.5,0.1c0.2,0,0.4,0.1,0.4,0.2c0,0.2-0.2,0.3-0.5,0.4v3.2h2.5v1.3h-2.5v0.4
		c0.7,1.6,1.7,3,2.6,4.3C854.1,302.9,853.6,303.4,853.3,303.7z M861.1,297.9v9.5c0,1.3-0.2,2.1-3.4,2.1c-0.1-0.7-0.3-1.2-0.7-1.7
		c0.5,0.1,1.1,0.1,1.7,0.1c0.9,0,0.9-0.2,0.9-0.7V300c-1.8,4-4.2,6.3-5.1,7.1c-0.5-0.5-0.7-0.6-1.4-0.9c3.1-2.5,5-5.4,6.2-8.3h-4.1
		v-1.3h4.5v-3.9l1.5,0.1c0.3,0,0.4,0.1,0.4,0.2s-0.1,0.3-0.5,0.4v3.1h2.5v1.3H861.1z"/>
	<path d="M867.6,295v3.2c0,4.8,0,7.7-2.1,11.3c-0.3-0.3-0.6-0.6-1.4-0.9c2-3.1,2-5.3,2-10.1v-5h14.8v1.4H867.6z M867.8,308.9v-1.4
		h5.9v-5.8h-4.7v-1.4h4.7v-4.6l1.6,0.1c0.1,0,0.4,0.1,0.4,0.3c0,0.2-0.3,0.3-0.5,0.3v3.9h4.8v1.4h-4.8v5.8h5.7v1.4H867.8z"/>
	<path d="M899.3,308.9h-6.9c-3.8,0-5.2-0.9-6.2-1.8c-0.9,1.3-1.8,2.1-2.3,2.5c-0.3-0.3-0.6-0.5-1.3-0.9c1.1-0.8,1.9-1.6,2.6-2.6
		c-1-1.2-1.6-2.3-2.1-3.8l1.2-0.5c0.1,0.5,0.6,1.8,1.6,3.1c0.4-0.8,0.9-2,1.2-4.7h-2c-0.4,0.7-0.4,0.8-0.6,1.2
		c-0.4-0.2-0.7-0.4-1.4-0.6c0.9-1.5,2.7-5.5,2.8-5.8h-3v-1.3h4.3l0.6,0.6c-1,2.4-1.7,3.9-2,4.5h2.7c0,1.2-0.1,4.2-1.7,7.1
		c1.6,1.4,3.1,1.6,6.5,1.6c2.9,0,4.5-0.1,6.4-0.3C899.4,308,899.3,308.6,899.3,308.9z M888.5,306v-1.4h1.5v-7.8l1.5,0.1
		c0.2,0,0.4,0.1,0.4,0.3c0,0.2-0.3,0.3-0.5,0.3v7.2h2v-9.4c-2.3,0.3-3.6,0.3-4.7,0.3c-0.3-0.9-0.3-1-0.5-1.4c3,0.1,7.4-0.3,10-1.5
		l0.8,1.1c0.1,0.1,0.1,0.2,0.1,0.3c0,0.1-0.1,0.2-0.2,0.2c-0.1,0-0.2,0-0.3-0.1c-1.4,0.5-2.2,0.6-3.7,0.9v3.9h3.7v1.4h-3.7v4.4h4.4
		v1.4H888.5z"/>
	<path d="M829.1,331.6v-1.2h7.6V329h-6.2V328h6.2v-1.2h-5.5v-5.6h5.5V320h-7.4v-1.2h7.4v-1.2c-2.4,0.2-3.2,0.3-6,0.3
		c-0.2-0.5-0.4-0.7-0.8-1.2c2,0,8.1,0,12.5-1.5l0.9,1c0.1,0.1,0.2,0.3,0.2,0.3c0,0.1-0.1,0.2-0.2,0.2c-0.1,0-0.3-0.1-0.5-0.2
		c-1.2,0.3-3.2,0.8-4.7,1v1.3h7.5v1.2h-7.5v1.1h5.6v5.6h-5.6v1.2h6.3v1.1h-6.3v1.4h7.7v1.2H829.1z M836.7,322.2h-4v1.2h4V322.2z
		 M836.7,324.4h-4v1.3h4V324.4z M842.2,322.2h-4.1v1.2h4.1V322.2z M842.2,324.4h-4.1v1.3h4.1V324.4z"/>
	<path d="M847.9,320.2c1.4,0.7,2.2,1.3,3.2,2.1c-0.5,0.5-0.7,1-0.9,1.2c-1-0.9-1.9-1.5-3.2-2.1L847.9,320.2z M847.4,331
		c1.5-2.4,2.3-4.7,2.8-6.4c0.4,0.4,0.7,0.6,1.2,0.9c-0.8,2.3-1,2.8-2.4,5.9c0.1,0.1,0.2,0.3,0.2,0.4c0,0.1-0.1,0.2-0.2,0.2
		c-0.1,0-0.2-0.1-0.3-0.1L847.4,331z M849.5,315.3c0.6,0.4,1.7,1.1,3,2.2c-0.4,0.4-0.7,0.7-0.9,1.1c-1.1-0.9-2.1-1.7-3-2.2
		L849.5,315.3z M854.4,330.9v1.1h-1.5v-12.8h4.6v-3.9l1.7,0.1c0.2,0,0.3,0.1,0.3,0.2c0,0.2-0.2,0.3-0.5,0.4v3.2h4.6V332h-1.5v-1.1
		H854.4z M857.5,324.2v-3.7h-3.1v3.7H857.5z M857.5,329.5v-3.9h-3.1v3.9H857.5z M862.1,324.2v-3.7H859v3.7H862.1z M862.1,329.5v-3.9
		H859v3.9H862.1z"/>
	<path d="M874.8,325.8h4.9v1.4h-4.9v2.8h7.1v1.4h-15.7V330h7.1v-2.8h-4.8v-1.4h4.8v-2.6H869v-1.2c-1,0.7-1.6,1.1-2.4,1.5
		c-0.3-0.5-1-1.1-1.2-1.2c2.3-1,6.1-3.4,8-7.2l1.6,0.3c0.1,0,0.3,0.1,0.3,0.3c0,0.2-0.1,0.2-0.6,0.3c0.7,1,3.1,4.1,7.8,6.1
		c-0.3,0.3-0.8,0.9-1,1.3c-1.1-0.5-1.5-0.7-2.5-1.4v1.2h-4.3V325.8z M878.8,321.8c-2.6-1.8-3.6-3.1-4.9-4.6
		c-1.6,2.3-3.4,3.7-4.6,4.6H878.8z"/>
	<path d="M886.6,318.3v3.5c0,3.9-0.1,7-1.7,10.3c-0.4-0.3-0.9-0.5-1.4-0.7c1.6-3,1.6-6.2,1.6-9.5v-5h6.4v-1.8l1.7,0.1
		c0.1,0,0.3,0,0.3,0.2c0,0.2-0.4,0.3-0.5,0.4v1.2h7.4v1.3H886.6z M899.5,325.7c-1.5-0.8-2.3-1.6-2.4-1.7v0.7h-1.6v1.9h4v1.3h-4v1.7
		c0,0.7,0.1,0.9,0.8,0.9h1.5c0.6,0,1-0.1,1.2-1.9c0.2,0.2,0.6,0.5,1.4,0.5c-0.4,2.5-1.2,2.7-2.5,2.7h-1.8c-1.4,0-1.9-0.5-1.9-1.8
		v-2.1H892c-0.3,1.8-1.4,3.3-4.4,4.3c-0.1-0.4-0.4-1-0.8-1.3c2.7-0.7,3.5-1.8,3.9-3h-3.3v-1.3h3.4v-1.9h-1.2v-0.3
		c-0.9,0.7-1.4,1.1-1.8,1.4c-0.3-0.4-0.5-0.7-1.1-1.1c0.5-0.3,1-0.5,2-1.4c-0.5-0.6-1.1-1.1-1.6-1.5l1-0.8c0.5,0.4,1,1,1.5,1.5
		c0.5-0.5,1.1-1.2,1.5-1.8h-3.3v-1.1h4.7l0.6,0.5c-0.4,0.7-1.2,1.9-2.6,3.3h6c-1-1.1-1.9-2-2.8-3.8l1.2-0.6c0.2,0.4,0.4,0.8,0.9,1.4
		c0.3-0.2,0.9-0.7,1.6-1.6l1,0.8c0.1,0.1,0.2,0.2,0.2,0.3c0,0.1-0.1,0.1-0.2,0.1c-0.1,0-0.2,0-0.3,0c-0.6,0.7-1.4,1.3-1.5,1.3
		c0.3,0.3,0.7,0.7,0.8,0.8c0.3-0.3,1.3-1,1.9-1.7l1,0.8c0.1,0.1,0.3,0.3,0.3,0.4c0,0.1-0.1,0.2-0.2,0.2c-0.2,0-0.3-0.1-0.4-0.1
		c-0.6,0.5-1.3,1-1.7,1.2c0.7,0.6,1.5,1.2,2.5,1.6C900,324.9,899.6,325.5,899.5,325.7z M894,324.7h-2v1.9h2V324.7z"/>
</g>
<g>
	<path d="M600.1,171.3V170h7.6v-1.8h-4.8V167h4.8v-1.7h-4.3c-0.1,0.1-0.9,1.1-2.2,2.4c-0.6-0.5-1-0.7-1.3-0.9
		c0.8-0.6,2.5-2.1,3.6-4.4l1.4,0.7c0.1,0,0.2,0.1,0.2,0.3c0,0.2-0.4,0.2-0.6,0.2c-0.2,0.3-0.2,0.3-0.3,0.5h3.5v-1.6l1.5,0.2
		c0.4,0,0.6,0.1,0.6,0.3s-0.2,0.3-0.6,0.4v0.8h6.1v1.2h-6.1v1.7h4.8v1.2h-4.8v1.8h7.4v1.3H600.1z M602.3,162.1v-6.2h12.3v6.2H602.3z
		 M613.1,157.1h-9.4v1.4h9.4V157.1z M613.1,159.5h-9.4v1.4h9.4V159.5z"/>
	<path d="M624.4,158.5v10.9h-1.2v-1.5h-3.5v2.3h-1.2V158l1.4,0.1c0.1,0,0.3,0.1,0.3,0.2c0,0.2-0.1,0.2-0.4,0.3v7.9h1.2v-11.2
		l1.3,0.1c0.2,0,0.3,0.1,0.3,0.2c0,0.2-0.1,0.2-0.4,0.3v10.7h1.2v-8.6l1.3,0.1c0.1,0,0.3,0,0.3,0.2
		C624.8,158.3,624.7,158.4,624.4,158.5z M633.6,162.3c-1-0.4-2.9-1.1-4.3-3.4c-0.6,1.2-1.7,2.4-3.6,3.4c-0.5-0.8-0.8-0.9-1.1-1.1
		c0.6-0.3,2.6-1.1,3.5-2.6h-2.8v-1.2h3.2c0.1-0.7,0.1-1.3,0.1-2.1l1.5,0.1c0.2,0,0.3,0,0.3,0.2c0,0.2-0.2,0.2-0.4,0.3
		c0,0.6-0.1,1.3-0.1,1.5h4.5v1.2h-3.8c0.4,0.5,1.4,1.7,4.1,2.6C634,161.5,633.8,161.8,633.6,162.3z M633.2,163.6v6.3
		c0,1.3-0.3,2.1-3,2.1c-0.1-0.9-0.5-1.4-0.6-1.7c0.3,0.1,0.6,0.2,1.2,0.2c0.9,0,0.9-0.1,0.9-0.7v-6.2h-6.9v-1.3h9.9v1.3H633.2z
		 M626.8,169.4v1.3h-1.3v-5.9h4.9v4.6H626.8z M629.1,166h-2.2v2.1h2.2V166z"/>
	<path d="M635.7,170.5v-1.5h7.5v-10.7h-6.3v-1.5H651v1.5h-6.3v10.7h7.5v1.5H635.7z"/>
	<path d="M659.7,166.1c-0.9,0.3-3.2,1.3-5.2,2c0,0.2,0,0.5-0.3,0.5c-0.1,0-0.2-0.1-0.3-0.4l-0.4-1.4c0.9-0.2,2-0.6,2.5-0.7v-5.2
		h-2.3v-1.4h2.3v-4.1l1.5,0.1c0.2,0,0.4,0,0.4,0.2s-0.2,0.2-0.4,0.3v3.4h2.3v1.4h-2.3v4.7c0.3-0.1,1.5-0.5,2.3-0.9
		C659.7,165.1,659.7,165.7,659.7,166.1z M663,164c-0.2,0.4-0.4,0.7-0.7,1.1h7.3c0,1.6-0.3,5.2-1.2,6.2c-0.3,0.3-0.8,0.7-2.7,0.6
		c0-0.4-0.1-0.8-0.5-1.6c0.5,0.1,1.1,0.1,1.4,0.1c0.4,0,0.9,0,1.1-1.1c0.3-1.6,0.4-2.5,0.4-3h-1.1c-1.5,3.2-3.6,5-4.4,5.7
		c-0.2-0.2-0.4-0.4-1.1-0.8c1.1-0.8,2.7-2.2,4.2-4.9h-1.4c-0.7,1.2-2.3,3.3-5.2,5.1c-0.3-0.4-0.6-0.6-1-0.9c2.7-1.3,4.2-3.3,4.8-4.2
		h-1.5c-0.7,0.8-1.5,1.6-2.6,2.4c-0.3-0.4-0.7-0.6-1.1-0.8c0.9-0.6,2.4-1.7,3.9-3.9h-2.3v-1.2h10.9v1.2H663z M660.9,162v-6.1h7.7
		v6.1H660.9z M667.2,157h-4.9v1.3h4.9V157z M667.2,159.4h-4.9v1.4h4.9V159.4z"/>
	<path d="M600.1,194.1v-1.2h7.6v-1.4h-6.2v-1.1h6.2v-1.2h-5.5v-5.6h5.5v-1.1h-7.4v-1.2h7.4v-1.2c-2.4,0.2-3.2,0.3-6,0.3
		c-0.2-0.5-0.4-0.7-0.8-1.2c2,0,8.1,0,12.5-1.5l0.9,1c0.1,0.1,0.2,0.3,0.2,0.3c0,0.1-0.1,0.2-0.2,0.2c-0.1,0-0.3-0.1-0.5-0.2
		c-1.2,0.3-3.2,0.8-4.7,1v1.3h7.5v1.2h-7.5v1.1h5.6v5.6h-5.6v1.2h6.3v1.1h-6.3v1.4h7.7v1.2H600.1z M607.7,184.7h-4v1.2h4V184.7z
		 M607.7,186.9h-4v1.3h4V186.9z M613.2,184.7h-4.1v1.2h4.1V184.7z M613.2,186.9h-4.1v1.3h4.1V186.9z"/>
	<path d="M618.9,182.7c1.4,0.7,2.2,1.3,3.2,2.1c-0.5,0.5-0.7,1-0.9,1.2c-1-0.9-1.9-1.5-3.2-2.1L618.9,182.7z M618.4,193.5
		c1.5-2.4,2.3-4.7,2.8-6.4c0.4,0.4,0.7,0.6,1.2,0.9c-0.8,2.3-1,2.8-2.4,5.9c0.1,0.1,0.2,0.3,0.2,0.4c0,0.1-0.1,0.2-0.2,0.2
		c-0.1,0-0.2-0.1-0.3-0.1L618.4,193.5z M620.5,177.8c0.6,0.4,1.7,1.1,3,2.2c-0.4,0.4-0.7,0.7-0.9,1.1c-1.1-0.9-2.1-1.7-3-2.2
		L620.5,177.8z M625.4,193.4v1.1h-1.5v-12.8h4.6v-3.9l1.7,0.1c0.2,0,0.3,0.1,0.3,0.2c0,0.2-0.2,0.3-0.5,0.4v3.2h4.6v12.8h-1.5v-1.1
		H625.4z M628.5,186.7v-3.7h-3.1v3.7H628.5z M628.5,192v-3.9h-3.1v3.9H628.5z M633.1,186.7v-3.7H630v3.7H633.1z M633.1,192v-3.9H630
		v3.9H633.1z"/>
	<path d="M645.8,188.3h4.9v1.4h-4.9v2.8h7.1v1.4h-15.7v-1.4h7.1v-2.8h-4.8v-1.4h4.8v-2.6H640v-1.2c-1,0.7-1.6,1.1-2.4,1.5
		c-0.3-0.5-1-1.1-1.2-1.2c2.3-1,6.1-3.4,8-7.2l1.6,0.3c0.1,0,0.3,0.1,0.3,0.3c0,0.2-0.1,0.2-0.6,0.3c0.7,1,3.1,4.1,7.8,6.1
		c-0.3,0.3-0.8,0.9-1,1.3c-1.1-0.5-1.5-0.7-2.5-1.4v1.2h-4.3V188.3z M649.7,184.3c-2.6-1.8-3.6-3.1-4.9-4.6
		c-1.6,2.3-3.4,3.7-4.6,4.6H649.7z"/>
	<path d="M657.6,180.9v3.5c0,3.9-0.1,7-1.7,10.3c-0.4-0.3-0.9-0.5-1.4-0.7c1.6-3,1.6-6.2,1.6-9.5v-5h6.4v-1.8l1.7,0.1
		c0.1,0,0.3,0,0.3,0.2c0,0.2-0.4,0.3-0.5,0.4v1.2h7.4v1.3H657.6z M670.4,188.2c-1.5-0.8-2.3-1.6-2.4-1.7v0.7h-1.6v1.9h4v1.3h-4v1.7
		c0,0.7,0.1,0.9,0.8,0.9h1.5c0.6,0,1-0.1,1.2-1.9c0.2,0.2,0.6,0.5,1.4,0.5c-0.4,2.5-1.2,2.7-2.5,2.7h-1.8c-1.4,0-1.9-0.5-1.9-1.8
		v-2.1h-2.1c-0.3,1.8-1.4,3.3-4.4,4.3c-0.1-0.4-0.4-1-0.8-1.3c2.7-0.7,3.5-1.8,3.9-3h-3.3v-1.3h3.4v-1.9h-1.2v-0.3
		c-0.9,0.7-1.4,1.1-1.8,1.4c-0.3-0.4-0.5-0.7-1.1-1.1c0.5-0.3,1-0.5,2-1.4c-0.5-0.6-1.1-1.1-1.6-1.5l1-0.8c0.5,0.4,1,1,1.5,1.5
		c0.5-0.5,1.1-1.2,1.5-1.8h-3.3v-1.1h4.7l0.6,0.5c-0.4,0.7-1.2,1.9-2.6,3.3h6c-1-1.1-1.9-2-2.8-3.8l1.2-0.6c0.2,0.4,0.4,0.8,0.9,1.4
		c0.3-0.2,0.9-0.7,1.6-1.6l1,0.8c0.1,0.1,0.2,0.2,0.2,0.3c0,0.1-0.1,0.1-0.2,0.1c-0.1,0-0.2,0-0.3,0c-0.6,0.7-1.4,1.3-1.5,1.3
		c0.3,0.3,0.7,0.7,0.8,0.8c0.3-0.3,1.3-1,1.9-1.7l1,0.8c0.1,0.1,0.3,0.3,0.3,0.4c0,0.1-0.1,0.2-0.2,0.2c-0.2,0-0.3-0.1-0.4-0.1
		c-0.6,0.5-1.3,1-1.7,1.2c0.7,0.6,1.5,1.2,2.5,1.6C670.9,187.4,670.6,188,670.4,188.2z M665,187.2h-2v1.9h2V187.2z"/>
</g>
<g>
	<path d="M90.9,385.6c0,2.9-0.7,7.6-5.4,7.6c-4.7,0-5.4-4.8-5.4-7.6c0-2.7,0.7-7.6,5.4-7.6S90.9,382.9,90.9,385.6z M81.9,385.6
		c0,2.4,0.5,6,3.6,6c3.1,0,3.6-3.6,3.6-6c0-2.4-0.5-6-3.6-6C82.4,379.6,81.9,383.2,81.9,385.6z"/>
</g>
<g>
	<path d="M65.8,281.8v1.6H55.1c0.1-2.9,1.8-4.2,4.4-6c3.6-2.4,4.4-2.9,4.4-4.6c0-1.9-1.7-2.6-3.2-2.6c-3.4,0-3.5,2.9-3.6,3.9h-1.8
		c0.1-1.7,0.4-2.9,1.3-3.9c1.2-1.3,2.8-1.6,4.1-1.6c2.8,0,5,1.5,5,4.2c0,1.9-0.8,3.1-3.8,4.9c-3.3,2.1-4,2.8-4.4,4H65.8z"/>
	<path d="M78.2,276.2c0,2.9-0.7,7.6-5.4,7.6c-4.7,0-5.4-4.8-5.4-7.6c0-2.7,0.7-7.6,5.4-7.6S78.2,273.5,78.2,276.2z M69.2,276.2
		c0,2.4,0.5,6,3.6,6c3.1,0,3.6-3.6,3.6-6c0-2.4-0.5-6-3.6-6C69.7,270.2,69.2,273.8,69.2,276.2z"/>
	<path d="M90.9,276.2c0,2.9-0.7,7.6-5.4,7.6c-4.7,0-5.4-4.8-5.4-7.6c0-2.7,0.7-7.6,5.4-7.6C90.3,268.6,90.9,273.5,90.9,276.2z
		 M81.9,276.2c0,2.4,0.5,6,3.6,6c3.1,0,3.6-3.6,3.6-6c0-2.4-0.5-6-3.6-6C82.4,270.2,81.9,273.8,81.9,276.2z"/>
</g>
<g>
	<path d="M63.5,165.6h2.3v1.6h-2.3v3.4h-1.8v-3.4h-6.9v-1.7l6.9-9.3h1.8V165.6z M61.7,165.6v-7l-5.2,7H61.7z"/>
	<path d="M78.2,163.4c0,2.9-0.7,7.6-5.4,7.6c-4.7,0-5.4-4.8-5.4-7.6c0-2.7,0.7-7.6,5.4-7.6C77.6,155.8,78.2,160.7,78.2,163.4z
		 M69.2,163.4c0,2.4,0.5,6,3.6,6c3.1,0,3.6-3.6,3.6-6c0-2.4-0.5-6-3.6-6C69.7,157.4,69.2,161,69.2,163.4z"/>
	<path d="M90.9,163.4c0,2.9-0.7,7.6-5.4,7.6c-4.7,0-5.4-4.8-5.4-7.6c0-2.7,0.7-7.6,5.4-7.6C90.3,155.8,90.9,160.7,90.9,163.4z
		 M81.9,163.4c0,2.4,0.5,6,3.6,6c3.1,0,3.6-3.6,3.6-6c0-2.4-0.5-6-3.6-6C82.4,157.4,81.9,161,81.9,163.4z"/>
</g>
<g>
	<path d="M63.6,48.8c-0.2-1.7-1.5-2.5-2.9-2.5c-3.6,0-3.9,3.8-4,5.7c0.4-0.5,1.4-1.7,4.1-1.7c3.2,0,4.9,2.1,4.9,4.7
		c0,2.8-2,4.9-5.2,4.9c-5.2,0-5.6-5.2-5.6-7.3c0-0.8,0.1-4.4,2-6.3c0.9-0.9,2.4-1.5,3.8-1.5c0.4,0,4.3,0,4.8,4H63.6z M58,52.5
		c-0.7,0.5-1.1,1.5-1.1,2.5c0,2.2,1.7,3.4,3.7,3.4c1.5,0,3.3-0.9,3.3-3.3c0-2.9-2.4-3.3-3.1-3.3C59.1,51.7,58.4,52.2,58,52.5z"/>
	<path d="M78.2,52.3c0,2.9-0.7,7.6-5.4,7.6c-4.7,0-5.4-4.8-5.4-7.6c0-2.7,0.7-7.6,5.4-7.6S78.2,49.6,78.2,52.3z M69.2,52.3
		c0,2.4,0.5,6,3.6,6c3.1,0,3.6-3.6,3.6-6c0-2.4-0.5-6-3.6-6C69.7,46.3,69.2,49.9,69.2,52.3z"/>
	<path d="M90.9,52.3c0,2.9-0.7,7.6-5.4,7.6c-4.7,0-5.4-4.8-5.4-7.6c0-2.7,0.7-7.6,5.4-7.6C90.3,44.8,90.9,49.6,90.9,52.3z
		 M81.9,52.3c0,2.4,0.5,6,3.6,6c3.1,0,3.6-3.6,3.6-6c0-2.4-0.5-6-3.6-6C82.4,46.3,81.9,49.9,81.9,52.3z"/>
</g>
<g>
	<path d="M153.8,406.2c0.2,1.7,1.5,2.5,2.9,2.5c3.6,0,3.9-3.8,4-5.7c-0.4,0.5-1.5,1.7-4.1,1.7c-3.2,0-4.9-2.1-4.9-4.7
		c0-2.8,2-4.9,5.2-4.9c5.2,0,5.6,5.2,5.6,7.3c0,0.8-0.1,4.4-2,6.3c-0.9,0.9-2.4,1.5-3.8,1.5c-0.4,0-4.3,0-4.8-4H153.8z M153.5,400
		c0,1.9,1.1,3.3,3.3,3.3c2.6,0,3.7-1.7,3.7-3.2c0-2-1.6-3.4-3.6-3.4C155.2,396.7,153.5,397.7,153.5,400z"/>
	<path d="M173,399.1c-0.2-1.7-1.5-2.5-2.9-2.5c-3.6,0-3.9,3.8-4,5.7c0.4-0.5,1.4-1.7,4.1-1.7c3.2,0,4.9,2.1,4.9,4.7
		c0,2.8-2,4.9-5.2,4.9c-5.2,0-5.6-5.2-5.6-7.3c0-0.8,0.1-4.4,2-6.3c0.9-0.9,2.4-1.5,3.8-1.5c0.4,0,4.3,0,4.8,4H173z M167.5,402.8
		c-0.7,0.5-1.1,1.5-1.1,2.5c0,2.2,1.7,3.4,3.7,3.4c1.5,0,3.3-0.9,3.3-3.3c0-2.9-2.4-3.3-3.1-3.3
		C168.6,402.1,167.8,402.5,167.5,402.8z"/>
</g>
<g>
	<path d="M192.9,406.2c0.2,1.7,1.5,2.5,2.9,2.5c3.6,0,3.9-3.8,4-5.7c-0.4,0.5-1.5,1.7-4.1,1.7c-3.2,0-4.9-2.1-4.9-4.7
		c0-2.8,2-4.9,5.2-4.9c5.2,0,5.6,5.2,5.6,7.3c0,0.8-0.1,4.4-2,6.3c-0.9,0.9-2.4,1.5-3.8,1.5c-0.4,0-4.3,0-4.8-4H192.9z M192.7,400
		c0,1.9,1.1,3.3,3.3,3.3c2.6,0,3.7-1.7,3.7-3.2c0-2-1.6-3.4-3.6-3.4C194.4,396.7,192.7,397.7,192.7,400z"/>
	<path d="M213.3,395.5v1.6c-2.1,1.7-5.4,6-5.6,12.8h-1.9c0.1-5,2.6-10,5.5-12.8h-8.5v-1.6H213.3z"/>
</g>
<g>
	<path d="M231.3,406.2c0.2,1.7,1.5,2.5,2.9,2.5c3.6,0,3.9-3.8,4-5.7c-0.4,0.5-1.5,1.7-4.1,1.7c-3.2,0-4.9-2.1-4.9-4.7
		c0-2.8,2-4.9,5.2-4.9c5.2,0,5.6,5.2,5.6,7.3c0,0.8-0.1,4.4-2,6.3c-0.9,0.9-2.4,1.5-3.8,1.5c-0.4,0-4.3,0-4.8-4H231.3z M231,400
		c0,1.9,1.1,3.3,3.3,3.3c2.6,0,3.7-1.7,3.7-3.2c0-2-1.6-3.4-3.6-3.4C232.7,396.7,231,397.7,231,400z"/>
	<path d="M252.5,405.8c0,1.6-0.8,4.4-5.4,4.4c-4.6,0-5.4-2.8-5.4-4.4c0-3,2.3-3.6,2.9-3.8c-1.6-0.5-2.5-1.5-2.5-3.2
		c0-2.3,1.9-3.8,5-3.8c3.2,0,5,1.6,5,3.8c0,1.7-0.9,2.7-2.5,3.2C250.2,402.2,252.5,402.8,252.5,405.8z M243.6,405.7
		c0,2.6,2.3,2.9,3.5,2.9c1.3,0,3.6-0.4,3.6-2.9c0-1.8-1.3-2.9-3.6-2.9C244.9,402.8,243.6,403.9,243.6,405.7z M244,399.1
		c0,2.3,2.5,2.3,3.1,2.3c0.7,0,3.2-0.1,3.2-2.3c0-0.5-0.2-1-0.5-1.5c-0.5-0.6-1.2-0.9-2.6-0.9C244,396.7,244,398.8,244,399.1z"/>
</g>
<g>
	<path d="M270.3,406.2c0.2,1.7,1.5,2.5,2.9,2.5c3.6,0,3.9-3.8,4-5.7c-0.4,0.5-1.5,1.7-4.1,1.7c-3.2,0-4.9-2.1-4.9-4.7
		c0-2.8,2-4.9,5.2-4.9c5.2,0,5.6,5.2,5.6,7.3c0,0.8-0.1,4.4-2,6.3c-0.9,0.9-2.4,1.5-3.8,1.5c-0.4,0-4.3,0-4.8-4H270.3z M270.1,400
		c0,1.9,1.1,3.3,3.3,3.3c2.6,0,3.7-1.7,3.7-3.2c0-2-1.6-3.4-3.6-3.4C271.8,396.7,270.1,397.7,270.1,400z"/>
	<path d="M282.9,406.2c0.2,1.7,1.5,2.5,2.9,2.5c3.6,0,3.9-3.8,4-5.7c-0.4,0.5-1.5,1.7-4.1,1.7c-3.2,0-4.9-2.1-4.9-4.7
		c0-2.8,2-4.9,5.2-4.9c5.2,0,5.6,5.2,5.6,7.3c0,0.8-0.1,4.4-2,6.3c-0.9,0.9-2.4,1.5-3.8,1.5c-0.4,0-4.3,0-4.8-4H282.9z M282.6,400
		c0,1.9,1.1,3.3,3.3,3.3c2.6,0,3.7-1.7,3.7-3.2c0-2-1.6-3.4-3.6-3.4C284.3,396.7,282.6,397.7,282.6,400z"/>
</g>
<g>
	<path d="M318.1,402.7c0,2.9-0.7,7.6-5.4,7.6c-4.7,0-5.4-4.8-5.4-7.6c0-2.7,0.7-7.6,5.4-7.6S318.1,399.9,318.1,402.7z M309.1,402.7
		c0,2.4,0.5,6,3.6,6c3.1,0,3.6-3.6,3.6-6c0-2.4-0.5-6-3.6-6C309.6,396.7,309.1,400.2,309.1,402.7z"/>
	<path d="M330.8,402.7c0,2.9-0.7,7.6-5.4,7.6c-4.7,0-5.4-4.8-5.4-7.6c0-2.7,0.7-7.6,5.4-7.6C330.2,395.1,330.8,399.9,330.8,402.7z
		 M321.8,402.7c0,2.4,0.5,6,3.6,6c3.1,0,3.6-3.6,3.6-6c0-2.4-0.5-6-3.6-6C322.3,396.7,321.8,400.2,321.8,402.7z"/>
</g>
<g>
	<path d="M357.4,402.7c0,2.9-0.7,7.6-5.4,7.6c-4.7,0-5.4-4.8-5.4-7.6c0-2.7,0.7-7.6,5.4-7.6S357.4,399.9,357.4,402.7z M348.3,402.7
		c0,2.4,0.5,6,3.6,6c3.1,0,3.6-3.6,3.6-6c0-2.4-0.5-6-3.6-6C348.8,396.7,348.3,400.2,348.3,402.7z"/>
	<path d="M364.7,409.8h-1.8v-10.3H360v-1.4c1.5-0.1,2.8-0.4,3.3-2.7h1.4V409.8z"/>
</g>
<g>
	<path d="M395.2,402.7c0,2.9-0.7,7.6-5.4,7.6c-4.7,0-5.4-4.8-5.4-7.6c0-2.7,0.7-7.6,5.4-7.6C394.6,395.1,395.2,399.9,395.2,402.7z
		 M386.2,402.7c0,2.4,0.5,6,3.6,6c3.1,0,3.6-3.6,3.6-6c0-2.4-0.5-6-3.6-6C386.7,396.7,386.2,400.2,386.2,402.7z"/>
	<path d="M407.5,408.3v1.6h-10.7c0.1-2.9,1.8-4.2,4.4-6c3.6-2.4,4.4-2.9,4.4-4.6c0-1.9-1.7-2.6-3.2-2.6c-3.4,0-3.5,2.9-3.6,3.9H397
		c0.1-1.7,0.4-2.9,1.3-3.9c1.2-1.3,2.8-1.6,4.1-1.6c2.8,0,5,1.5,5,4.2c0,1.9-0.8,3.1-3.8,4.9c-3.3,2.1-4,2.8-4.4,4H407.5z"/>
</g>
<g>
	<path d="M434.1,402.7c0,2.9-0.7,7.6-5.4,7.6c-4.7,0-5.4-4.8-5.4-7.6c0-2.7,0.7-7.6,5.4-7.6S434.1,399.9,434.1,402.7z M425.1,402.7
		c0,2.4,0.5,6,3.6,6c3.1,0,3.6-3.6,3.6-6c0-2.4-0.5-6-3.6-6C425.6,396.7,425.1,400.2,425.1,402.7z"/>
	<path d="M437.6,405.1c0.1,1.1,0.3,3.5,3.4,3.5c2.6,0,3.6-1.5,3.6-2.9c0-2.4-2-2.8-3.1-2.8h-1.4v-1.4h1.2c2,0,3.1-1,3.1-2.5
		c0-1.5-1.3-2.4-3-2.4c-3,0-3.2,2.2-3.3,3.1h-1.9c0.1-0.9,0.5-4.7,5.3-4.7c2.8,0,4.7,1.5,4.7,3.8c0,2.5-2,3.1-2.6,3.2
		c1.9,0.4,2.8,1.8,2.8,3.5c0,1.9-1.1,4.6-5.2,4.6c-1.7,0-5.1-0.3-5.4-5.1H437.6z"/>
</g>
<g>
	<path d="M473,402.7c0,2.9-0.7,7.6-5.4,7.6c-4.7,0-5.4-4.8-5.4-7.6c0-2.7,0.7-7.6,5.4-7.6C472.4,395.1,473,399.9,473,402.7z
		 M464,402.7c0,2.4,0.5,6,3.6,6c3.1,0,3.6-3.6,3.6-6c0-2.4-0.5-6-3.6-6C464.5,396.7,464,400.2,464,402.7z"/>
	<path d="M483.3,404.9h2.3v1.6h-2.3v3.4h-1.8v-3.4h-6.9v-1.7l6.9-9.3h1.8V404.9z M481.6,404.9v-7l-5.2,7H481.6z"/>
</g>
<g>
	<path d="M512.1,402.7c0,2.9-0.7,7.6-5.4,7.6c-4.7,0-5.4-4.8-5.4-7.6c0-2.7,0.7-7.6,5.4-7.6C511.4,395.1,512.1,399.9,512.1,402.7z
		 M503.1,402.7c0,2.4,0.5,6,3.6,6c3.1,0,3.6-3.6,3.6-6c0-2.4-0.5-6-3.6-6C503.6,396.7,503.1,400.2,503.1,402.7z"/>
	<path d="M523.6,397.1h-6.5l-0.9,4.6c0.8-0.9,2-1.3,3.3-1.3c2.5,0,4.9,1.7,4.9,4.8c0,2.5-1.7,5-5.2,5c-2,0-3.4-0.7-4.2-1.5
		c-1-0.9-1.2-2.1-1.3-2.9h1.9c0.3,1.9,1.5,2.8,3.4,2.8c1.6,0,3.5-0.9,3.5-3.4c0-1.9-1.2-3.3-3.4-3.3c-1.8,0-2.6,0.9-3,1.4h-2
		l1.4-7.8h8V397.1z"/>
</g>
<g>
	<path d="M551,402.7c0,2.9-0.7,7.6-5.4,7.6c-4.7,0-5.4-4.8-5.4-7.6c0-2.7,0.7-7.6,5.4-7.6C550.4,395.1,551,399.9,551,402.7z
		 M542,402.7c0,2.4,0.5,6,3.6,6c3.1,0,3.6-3.6,3.6-6c0-2.4-0.5-6-3.6-6C542.5,396.7,542,400.2,542,402.7z"/>
	<path d="M561.6,399.1c-0.2-1.7-1.5-2.5-2.9-2.5c-3.6,0-3.9,3.8-4,5.7c0.4-0.5,1.4-1.7,4.1-1.7c3.2,0,4.9,2.1,4.9,4.7
		c0,2.8-2,4.9-5.2,4.9c-5.2,0-5.6-5.2-5.6-7.3c0-0.8,0.1-4.4,2-6.3c0.9-0.9,2.4-1.5,3.8-1.5c0.4,0,4.3,0,4.8,4H561.6z M556,402.8
		c-0.7,0.5-1.1,1.5-1.1,2.5c0,2.2,1.7,3.4,3.7,3.4c1.5,0,3.3-0.9,3.3-3.3c0-2.9-2.4-3.3-3.1-3.3C557.1,402.1,556.4,402.5,556,402.8z
		"/>
</g>
<g>
	<path d="M590.2,402.7c0,2.9-0.7,7.6-5.4,7.6c-4.7,0-5.4-4.8-5.4-7.6c0-2.7,0.7-7.6,5.4-7.6S590.2,399.9,590.2,402.7z M581.2,402.7
		c0,2.4,0.5,6,3.6,6c3.1,0,3.6-3.6,3.6-6c0-2.4-0.5-6-3.6-6C581.7,396.7,581.2,400.2,581.2,402.7z"/>
	<path d="M601.9,395.5v1.6c-2.1,1.7-5.4,6-5.6,12.8h-1.9c0.1-5,2.6-10,5.5-12.8h-8.5v-1.6H601.9z"/>
</g>
<g>
	<path d="M628.6,402.7c0,2.9-0.7,7.6-5.4,7.6c-4.7,0-5.4-4.8-5.4-7.6c0-2.7,0.7-7.6,5.4-7.6S628.6,399.9,628.6,402.7z M619.6,402.7
		c0,2.4,0.5,6,3.6,6c3.1,0,3.6-3.6,3.6-6c0-2.4-0.5-6-3.6-6C620.1,396.7,619.6,400.2,619.6,402.7z"/>
	<path d="M641.1,405.8c0,1.6-0.8,4.4-5.4,4.4c-4.6,0-5.4-2.8-5.4-4.4c0-3,2.3-3.6,2.9-3.8c-1.6-0.5-2.5-1.5-2.5-3.2
		c0-2.3,1.9-3.8,5-3.8c3.2,0,5,1.6,5,3.8c0,1.7-0.9,2.7-2.5,3.2C638.8,402.2,641.1,402.8,641.1,405.8z M632.2,405.7
		c0,2.6,2.3,2.9,3.5,2.9c1.3,0,3.6-0.4,3.6-2.9c0-1.8-1.3-2.9-3.6-2.9C633.5,402.8,632.2,403.9,632.2,405.7z M632.6,399.1
		c0,2.3,2.5,2.3,3.1,2.3c0.7,0,3.2-0.1,3.2-2.3c0-0.5-0.2-1-0.5-1.5c-0.5-0.6-1.2-0.9-2.6-0.9C632.6,396.7,632.6,398.8,632.6,399.1z
		"/>
</g>
<g>
	<path d="M667.3,402.7c0,2.9-0.7,7.6-5.4,7.6c-4.7,0-5.4-4.8-5.4-7.6c0-2.7,0.7-7.6,5.4-7.6S667.3,399.9,667.3,402.7z M658.2,402.7
		c0,2.4,0.5,6,3.6,6c3.1,0,3.6-3.6,3.6-6c0-2.4-0.5-6-3.6-6C658.7,396.7,658.2,400.2,658.2,402.7z"/>
	<path d="M671.1,406.2c0.2,1.7,1.5,2.5,2.9,2.5c3.6,0,3.9-3.8,4-5.7c-0.4,0.5-1.5,1.7-4.1,1.7c-3.2,0-4.9-2.1-4.9-4.7
		c0-2.8,2-4.9,5.2-4.9c5.2,0,5.6,5.2,5.6,7.3c0,0.8-0.1,4.4-2,6.3c-0.9,0.9-2.4,1.5-3.8,1.5c-0.4,0-4.3,0-4.8-4H671.1z M670.8,400
		c0,1.9,1.1,3.3,3.3,3.3c2.6,0,3.7-1.7,3.7-3.2c0-2-1.6-3.4-3.6-3.4C672.5,396.7,670.8,397.7,670.8,400z"/>
</g>
<g>
	<path d="M703.7,409.8h-1.8v-10.3H699v-1.4c1.5-0.1,2.8-0.4,3.3-2.7h1.4V409.8z"/>
	<path d="M718.6,402.7c0,2.9-0.7,7.6-5.4,7.6c-4.7,0-5.4-4.8-5.4-7.6c0-2.7,0.7-7.6,5.4-7.6S718.6,399.9,718.6,402.7z M709.6,402.7
		c0,2.4,0.5,6,3.6,6c3.1,0,3.6-3.6,3.6-6c0-2.4-0.5-6-3.6-6C710.1,396.7,709.6,400.2,709.6,402.7z"/>
</g>
<g>
	<path d="M742.5,409.8h-1.8v-10.3h-2.9v-1.4c1.5-0.1,2.8-0.4,3.3-2.7h1.4V409.8z"/>
	<path d="M751.9,409.8h-1.8v-10.3h-2.9v-1.4c1.5-0.1,2.8-0.4,3.3-2.7h1.4V409.8z"/>
</g>
<g>
	<path d="M779.8,409.8H778v-10.3H775v-1.4c1.5-0.1,2.8-0.4,3.3-2.7h1.4V409.8z"/>
	<path d="M794.3,408.3v1.6h-10.7c0.1-2.9,1.8-4.2,4.4-6c3.6-2.4,4.4-2.9,4.4-4.6c0-1.9-1.7-2.6-3.2-2.6c-3.4,0-3.5,2.9-3.6,3.9h-1.8
		c0.1-1.7,0.4-2.9,1.3-3.9c1.2-1.3,2.8-1.6,4.1-1.6c2.8,0,5,1.5,5,4.2c0,1.9-0.8,3.1-3.8,4.9c-3.3,2.1-4,2.8-4.4,4H794.3z"/>
</g>
<g>
	<path d="M818.2,409.8h-1.8v-10.3h-2.9v-1.4c1.5-0.1,2.8-0.4,3.3-2.7h1.4V409.8z"/>
	<path d="M824,405.1c0.1,1.1,0.3,3.5,3.4,3.5c2.6,0,3.6-1.5,3.6-2.9c0-2.4-2-2.8-3.1-2.8h-1.4v-1.4h1.2c2,0,3.1-1,3.1-2.5
		c0-1.5-1.3-2.4-3-2.4c-3,0-3.2,2.2-3.3,3.1h-1.9c0.1-0.9,0.5-4.7,5.3-4.7c2.8,0,4.7,1.5,4.7,3.8c0,2.5-2,3.1-2.6,3.2
		c1.9,0.4,2.8,1.8,2.8,3.5c0,1.9-1.1,4.6-5.2,4.6c-1.7,0-5.1-0.3-5.4-5.1H824z"/>
</g>
<g>
	<path d="M856.7,409.8h-1.8v-10.3H852v-1.4c1.5-0.1,2.8-0.4,3.3-2.7h1.4V409.8z"/>
	<path d="M869,404.9h2.3v1.6H869v3.4h-1.8v-3.4h-6.9v-1.7l6.9-9.3h1.8V404.9z M867.3,404.9v-7l-5.2,7H867.3z"/>
</g>
<g>
	<path d="M895.1,409.8h-1.8v-10.3h-2.9v-1.4c1.5-0.1,2.8-0.4,3.3-2.7h1.4V409.8z"/>
	<path d="M908.9,397.1h-6.5l-0.9,4.6c0.8-0.9,2-1.3,3.3-1.3c2.5,0,4.9,1.7,4.9,4.8c0,2.5-1.7,5-5.2,5c-2,0-3.4-0.7-4.2-1.5
		c-1-0.9-1.2-2.1-1.3-2.9h1.9c0.3,1.9,1.5,2.8,3.4,2.8c1.6,0,3.5-0.9,3.5-3.4c0-1.9-1.2-3.3-3.4-3.3c-1.8,0-2.6,0.9-3,1.4h-2
		l1.4-7.8h8V397.1z"/>
</g>
<g>
	<path d="M933.6,409.8h-1.8v-10.3h-2.9v-1.4c1.5-0.1,2.8-0.4,3.3-2.7h1.4V409.8z"/>
	<path d="M946.4,399.1c-0.2-1.7-1.5-2.5-2.9-2.5c-3.6,0-3.9,3.8-4,5.7c0.4-0.5,1.4-1.7,4.1-1.7c3.2,0,4.9,2.1,4.9,4.7
		c0,2.8-2,4.9-5.2,4.9c-5.2,0-5.6-5.2-5.6-7.3c0-0.8,0.1-4.4,2-6.3c0.9-0.9,2.4-1.5,3.8-1.5c0.4,0,4.3,0,4.8,4H946.4z M940.8,402.8
		c-0.7,0.5-1.1,1.5-1.1,2.5c0,2.2,1.7,3.4,3.7,3.4c1.5,0,3.3-0.9,3.3-3.3c0-2.9-2.4-3.3-3.1-3.3
		C941.9,402.1,941.2,402.5,940.8,402.8z"/>
</g>
<g>
	<path d="M972.4,409.8h-1.8v-10.3h-2.9v-1.4c1.5-0.1,2.8-0.4,3.3-2.7h1.4V409.8z"/>
	<path d="M986.6,395.5v1.6c-2.1,1.7-5.4,6-5.6,12.8h-1.9c0.1-5,2.6-10,5.5-12.8h-8.5v-1.6H986.6z"/>
</g>
<g>
	<path d="M1010.6,409.8h-1.8v-10.3h-2.9v-1.4c1.5-0.1,2.8-0.4,3.3-2.7h1.4V409.8z"/>
	<path d="M1025.4,405.8c0,1.6-0.8,4.4-5.4,4.4c-4.6,0-5.4-2.8-5.4-4.4c0-3,2.3-3.6,2.9-3.8c-1.6-0.5-2.5-1.5-2.5-3.2
		c0-2.3,1.9-3.8,5-3.8c3.2,0,5,1.6,5,3.8c0,1.7-0.9,2.7-2.5,3.2C1023.1,402.2,1025.4,402.8,1025.4,405.8z M1016.5,405.7
		c0,2.6,2.3,2.9,3.5,2.9c1.3,0,3.6-0.4,3.6-2.9c0-1.8-1.3-2.9-3.6-2.9C1017.8,402.8,1016.5,403.9,1016.5,405.7z M1016.9,399.1
		c0,2.3,2.5,2.3,3.1,2.3c0.7,0,3.2-0.1,3.2-2.3c0-0.5-0.2-1-0.5-1.5c-0.5-0.6-1.2-0.9-2.6-0.9
		C1016.9,396.7,1016.9,398.8,1016.9,399.1z"/>
</g>
<g>
	<path d="M1041.8,395.1c-1,0.9-3.6,3.3-3.6,7.8c0,4.5,2.6,6.8,3.6,7.8l-0.9,0.9c-3.8-3.3-4-7.1-4-8.7c0-1.5,0.2-5.4,4-8.7
		L1041.8,395.1z"/>
	<path d="M1053.7,407.2v4h-1.6v-4h-8.6v-1.4h3.1v-4.7h5.5v-2.9h-4.9c-1.1,1.7-1.9,2.7-2.7,3.4c-0.8-0.6-1.2-0.7-1.4-0.8
		c1.4-1.3,3.1-3.2,4.2-6.4l1.5,0.5c0.2,0.1,0.3,0.1,0.3,0.3c0,0.2-0.3,0.3-0.5,0.3c-0.3,0.7-0.5,1.1-0.6,1.4h11.4v1.4h-5.8v2.9h4.2
		v1.4h-4.2v3.4h6.4v1.4H1053.7z M1052.1,402.4h-3.9v3.4h3.9V402.4z"/>
	<path d="M1074,397.4c0.1,0,0.2,0.1,0.2,0.2c0,0.2-0.3,0.3-0.5,0.3v1.2h3.6v1.2h-3.6v2.8h-6.3v-2.8h-2.8v-1.2h2.8v-1.7h-3.1v4.1
		c0,3.9-0.5,7.3-2.1,9.7c-0.5-0.4-1.1-0.6-1.4-0.7c0.7-1.1,2-3.2,2-9.1v-5.3h6.2v-1.6l1.6,0.1c0.2,0,0.4,0.1,0.4,0.2
		c0,0.2-0.2,0.3-0.4,0.3v0.9h7.3v1.3H1074z M1077,411.2c-2.3-0.4-4.3-1-6.3-2.1c-1.1,0.6-3,1.5-5.4,2.1c-0.2-0.4-0.5-0.9-0.9-1.3
		c2.4-0.4,4.1-1.2,4.9-1.6c-1.6-1.1-2.3-2-2.6-2.4l1-0.6h-2.3V404h9.6l0.7,0.7c-1.1,1.6-2.5,2.7-3.6,3.5c0.7,0.3,2.9,1.3,5.8,1.5
		C1077.7,410,1077.3,410.4,1077,411.2z M1067.9,405.3c0.9,1,1.9,1.8,2.8,2.3c1.2-0.8,2.1-1.5,2.8-2.3H1067.9z M1072.3,397.4h-3.3
		c0.1,0,0.3,0.1,0.3,0.2c0,0.2-0.3,0.2-0.5,0.2v1.2h3.5V397.4z M1072.3,400.3h-3.5v1.6h3.5V400.3z"/>
	<path d="M1080.6,411.6l-0.9-0.9c1-0.9,3.6-3.3,3.6-7.8c0-4.5-2.6-6.8-3.6-7.8l0.9-0.9c3.5,3,4,6.5,4,8.7
		C1084.6,405.1,1084.1,408.6,1080.6,411.6z"/>
</g>
<g>
	<rect x="154.7" y="205.9" class="st3" width="16" height="56.4"/>
	<rect x="154.7" y="262.3" class="st2" width="16" height="5.1"/>
	<rect x="154.7" y="267.4" class="st1" width="16" height="121.3"/>
</g>
<g>
	<rect x="193.5" y="228.1" class="st3" width="16" height="32.5"/>
	<rect x="193.5" y="260.6" class="st2" width="16" height="3.4"/>
	<rect x="193.5" y="264" class="st1" width="16" height="124.8"/>
</g>
<g>
	<rect x="232.3" y="265.7" class="st3" width="16" height="25.6"/>
	<rect x="232.3" y="291.3" class="st2" width="16" height="3.4"/>
	<rect x="232.3" y="294.8" class="st1" width="16" height="94"/>
</g>
<g>
	<rect x="271.1" y="279.4" class="st3" width="16" height="22.2"/>
	<rect x="271.1" y="301.6" class="st2" width="16" height="3.4"/>
	<rect x="271.1" y="305" class="st1" width="16" height="83.7"/>
</g>
<g>
	<rect x="309.8" y="269.1" class="st3" width="16" height="18.8"/>
	<rect x="309.8" y="287.9" class="st2" width="16" height="3.4"/>
	<rect x="309.8" y="291.3" class="st1" width="16" height="97.4"/>
</g>
<g>
	<rect x="348.6" y="279.4" class="st3" width="16" height="13.7"/>
	<rect x="348.6" y="293" class="st2" width="16" height="3.4"/>
	<rect x="348.6" y="296.5" class="st1" width="16" height="92.3"/>
</g>
<g>
	<rect x="387.4" y="255.4" class="st3" width="16" height="15.4"/>
	<rect x="387.4" y="270.8" class="st2" width="16" height="3.4"/>
	<rect x="387.4" y="274.2" class="st1" width="16" height="114.5"/>
</g>
<g>
	<rect x="426.2" y="262.3" class="st3" width="16" height="109.4"/>
	<rect x="426.2" y="276" class="st2" width="16" height="109.4"/>
	<rect x="426.2" y="279.4" class="st1" width="16" height="109.4"/>
</g>
<g>
	<rect x="465" y="257.2" class="st3" width="16" height="12"/>
	<rect x="465" y="269.1" class="st2" width="16" height="3.4"/>
	<rect x="465" y="272.5" class="st1" width="16" height="116.2"/>
</g>
<g>
	<rect x="503.8" y="255.4" class="st3" width="16" height="10.3"/>
	<rect x="503.8" y="265.7" class="st2" width="16" height="5.1"/>
	<rect x="503.8" y="270.8" class="st1" width="16" height="117.9"/>
</g>
<g>
	<rect x="542.6" y="287.9" class="st3" width="16" height="8.5"/>
	<rect x="542.6" y="296.5" class="st2" width="16" height="5.1"/>
	<rect x="542.6" y="299.9" class="st1" width="16" height="88.9"/>
</g>
<g>
	<rect x="581.4" y="289.6" class="st3" width="16" height="87.2"/>
	<rect x="581.4" y="301.6" class="st1" width="16" height="87.2"/>
</g>
<g>
	<rect x="620.2" y="306.7" class="st3" width="16" height="71.8"/>
	<rect x="620.2" y="317" class="st1" width="16" height="71.8"/>
</g>
<g>
	<rect x="658.9" y="334.1" class="st3" width="16" height="49.6"/>
	<rect x="658.9" y="339.2" class="st1" width="16" height="49.6"/>
</g>
<g>
	<rect x="697.7" y="323.8" class="st3" width="16" height="54.7"/>
	<rect x="697.7" y="334.1" class="st1" width="16" height="54.7"/>
</g>
<g>
	<rect x="736.5" y="325.5" class="st3" width="16" height="58.1"/>
	<rect x="736.5" y="330.6" class="st1" width="16" height="58.1"/>
</g>
<rect x="775.3" y="381.9" class="st1" width="16" height="6.8"/>
<rect x="814.1" y="385.3" class="st1" width="16" height="3.4"/>
<rect x="852.9" y="385.3" class="st1" width="16" height="3.4"/>
<rect x="891.7" y="385.3" class="st1" width="16" height="3.4"/>
<rect x="930.5" y="385.3" class="st1" width="16" height="3.4"/>
<rect x="969.2" y="385.3" class="st1" width="16" height="3.4"/>
<rect x="1008" y="385.3" class="st1" width="16" height="3.4"/>
<g>
	<rect x="115.9" y="262.3" class="st1" width="16" height="126.5"/>
	<rect x="115.9" y="229.8" class="st2" width="16" height="32.5"/>
	<rect x="115.9" y="93.1" class="st4" width="16" height="135"/>
	<rect x="115.9" y="94.8" class="st3" width="16" height="135"/>
</g>
<polyline class="st0" points="241,257.2 241,140.9 282,140.9 "/>
<polyline class="st0" points="550.3,281.1 550.3,164.9 591.3,164.9 "/>
<polyline class="st0" points="782.7,376.8 782.7,255.4 823.8,255.4 "/>
</svg>
