<?xml version="1.0" encoding="utf-8"?>
<!-- Generator: Adobe Illustrator 24.0.3, SVG Export Plug-In . SVG Version: 6.00 Build 0)  -->
<svg version="1.1" id="レイヤー_1" xmlns="http://www.w3.org/2000/svg" xmlns:xlink="http://www.w3.org/1999/xlink" x="0px"
	 y="0px" viewBox="0 0 77.4 26.2" style="enable-background:new 0 0 77.4 26.2;" xml:space="preserve">
<style type="text/css">
	.st0{fill-rule:evenodd;clip-rule:evenodd;fill:#0F0F0F;}
	.st1{fill-rule:evenodd;clip-rule:evenodd;fill:#121212;}
	.st2{fill-rule:evenodd;clip-rule:evenodd;fill:#1A1A1A;}
	.st3{fill-rule:evenodd;clip-rule:evenodd;fill:#FFFFFF;}
	.st4{fill-rule:evenodd;clip-rule:evenodd;fill:#5C5F5F;}
	.st5{fill-rule:evenodd;clip-rule:evenodd;fill:#282929;}
	.st6{fill-rule:evenodd;clip-rule:evenodd;fill:#727675;}
	.st7{fill-rule:evenodd;clip-rule:evenodd;fill:#09886D;}
	.st8{fill-rule:evenodd;clip-rule:evenodd;fill:#097A61;}
	.st9{fill-rule:evenodd;clip-rule:evenodd;fill:#C61717;}
	.st10{fill-rule:evenodd;clip-rule:evenodd;fill:#2E333D;}
	.st11{fill-rule:evenodd;clip-rule:evenodd;fill:#141414;}
	.st12{fill-rule:evenodd;clip-rule:evenodd;fill:#0B0C0B;}
	.st13{fill-rule:evenodd;clip-rule:evenodd;fill:#050505;}
	.st14{fill-rule:evenodd;clip-rule:evenodd;fill:#B0B0B0;}
	.st15{fill-rule:evenodd;clip-rule:evenodd;fill:#212121;}
</style>
<g id="_x31_2">
	<path class="st0" d="M71.1,25.6H6.5c-0.2,0-0.3,0.1-0.3,0.3l0,0c0,0.2,0.1,0.3,0.3,0.3h64.5c0.2,0,0.3-0.1,0.3-0.3l0,0
		C71.4,25.7,71.2,25.6,71.1,25.6L71.1,25.6z M76.1,25.6h-2.5c-0.2,0-0.3,0.1-0.3,0.3l0,0c0,0.2,0.1,0.3,0.3,0.3h2.5
		c0.2,0,0.3-0.1,0.3-0.3l0,0C76.4,25.7,76.3,25.6,76.1,25.6L76.1,25.6z M3.9,25.6H1.4c-0.2,0-0.3,0.1-0.3,0.3l0,0
		c0,0.2,0.1,0.3,0.3,0.3h2.5c0.2,0,0.3-0.1,0.3-0.3l0,0C4.2,25.7,4,25.6,3.9,25.6z"/>
	<path class="st1" d="M65.3,25.9H68c2.3,0,4.1-2.8,4.1-6.3c0-3.5-1.8-6.3-4.1-6.3h-2.7c-2.3,0-4.1,2.8-4.1,6.3
		C61.2,23,63.1,25.9,65.3,25.9L65.3,25.9z M30,25.9h2.7c2.3,0,4.1-2.8,4.1-6.3c0-3.5-1.8-6.3-4.1-6.3H30c-2.3,0-4.1,2.8-4.1,6.3
		C25.9,23,27.7,25.9,30,25.9z"/>
	<rect x="3.2" y="10.5" class="st1" width="11.2" height="11.5"/>
	<rect x="38.6" y="12.1" class="st1" width="11.2" height="11.5"/>
	<g>
		<path class="st0" d="M43.9,25.9h2.7c2.3,0,4.1-2.8,4.1-6.3c0-3.5-1.8-6.3-4.1-6.3h-2.7C41.4,13.2,41.3,25.9,43.9,25.9z"/>
		<path class="st2" d="M43.9,25.9c2.3,0,4.1-2.8,4.1-6.3c0-3.5-1.8-6.3-4.1-6.3c-2.3,0-4.1,2.8-4.1,6.3C39.8,23,41.6,25.9,43.9,25.9
			z"/>
		<g>
			<path class="st3" d="M43.9,24.2c1.7,0,3-2.1,3-4.6c0-2.5-1.3-4.6-3-4.6c-1.7,0-3,2.1-3,4.6C40.9,22.1,42.2,24.2,43.9,24.2z"/>
			<path class="st4" d="M43.9,23.5c1.4,0,2.6-1.8,2.6-4c0-2.2-1.2-4-2.6-4s-2.6,1.8-2.6,4C41.3,21.7,42.5,23.5,43.9,23.5z"/>
			<path class="st2" d="M44.4,23.4c1.2-0.4,2.1-2,2.1-3.9c0-1.9-0.9-3.5-2.1-3.9c-1.2,0.4-2.1,2-2.1,3.9
				C42.3,21.5,43.2,23.1,44.4,23.4z"/>
			<path class="st5" d="M44.3,15.7V17l-0.6,0.4l-0.7-0.8l-0.4,0l-0.2,1.1l0.7,0.8l-0.1,1l-0.8,0.3L42,21.1h0.4l0.8-0.3l0.4,0.8
				l0,1.8l0.4,0l0.4-1.2h0.6l0,0.9c0.4-0.3,0.7-0.7,0.9-1.2l-0.1-0.2l0.4-0.8l0,0c0.1-0.4,0.1-0.9,0.1-1.3c0-0.1,0-0.3,0-0.4
				l-0.1-0.6l0,0c-0.1-0.5-0.3-1-0.5-1.4l-0.1,0.4L45.2,17v-0.9C45,15.9,44.7,15.8,44.3,15.7C44.4,15.7,44.4,15.7,44.3,15.7z"/>
			<path class="st3" d="M43.9,15.7V17l-0.6,0.4l-0.7-0.8c-0.2,0.3-0.4,0.7-0.6,1.1l0.7,0.8l-0.1,1l-0.8,0.3c0,0.5,0.1,0.9,0.2,1.4
				l0.8-0.3l0.4,0.8l-0.4,1.2c0.2,0.3,0.5,0.5,0.8,0.6l0.4-1.2h0.6l0.3,0.9c0.3-0.2,0.5-0.5,0.7-0.8l-0.2-0.7l0.4-0.8l0.4,0.1
				c0.1-0.4,0.2-0.9,0.2-1.4l-0.4-0.1l-0.1-1l0.3-0.4c-0.1-0.4-0.3-0.8-0.5-1.2l-0.4,0.5L44.8,17v-1.2c-0.2-0.1-0.4-0.2-0.5-0.2
				C44.2,15.6,44,15.7,43.9,15.7z"/>
			<path class="st6" d="M44.4,18.6c-0.3,0-0.6,0.4-0.6,1c0,0.5,0.3,1,0.6,1c0.3,0,0.6-0.4,0.6-1C45,19.1,44.7,18.6,44.4,18.6z"/>
		</g>
	</g>
	<g>
		<path class="st0" d="M8.6,25.9h2.7c2.3,0,4.1-2.8,4.1-6.3c0-3.5-1.8-6.3-4.1-6.3H8.6C6.1,13.2,6,25.9,8.6,25.9z"/>
		<path class="st2" d="M8.6,25.9c2.3,0,4.1-2.8,4.1-6.3c0-3.5-1.8-6.3-4.1-6.3c-2.3,0-4.1,2.8-4.1,6.3C4.5,23,6.3,25.9,8.6,25.9z"/>
		<g>
			<path class="st3" d="M8.6,24.2c1.7,0,3-2.1,3-4.6c0-2.5-1.3-4.6-3-4.6s-3,2.1-3,4.6C5.6,22.1,6.9,24.2,8.6,24.2z"/>
			<path class="st4" d="M8.6,23.5c1.4,0,2.6-1.8,2.6-4c0-2.2-1.2-4-2.6-4S6,17.4,6,19.6C6,21.7,7.2,23.5,8.6,23.5z"/>
			<ellipse class="st2" cx="9.1" cy="19.6" rx="2.1" ry="3.9"/>
			<path class="st5" d="M7,19.3l0.8,0.3l0.1,1l-0.7,0.8l0.1,1.1h0.4l0.7-0.8L9,22.1l0.1,1.3c0.3-0.1,0.5-0.3,0.8-0.5l0-0.8l0.6-0.4
				l0.1,0.3c0.4-0.7,0.6-1.6,0.6-2.5c0-0.4,0-0.9-0.1-1.2l-0.3-0.7l0.1-0.2c-0.2-0.6-0.5-1-0.9-1.3l0,0.9l-0.6,0l-0.3-1.2l-0.4,0
				l0,1.8L8,18.3l-0.8-0.3l-0.4,0L7,19.3z"/>
			<path class="st3" d="M6.5,19.3l0.8,0.3l0.1,1l-0.7,0.8c0.1,0.4,0.3,0.8,0.5,1.1L8,21.7l0.6,0.5l0,1.3c0,0,0.1,0,0.1,0
				c0.3,0,0.5-0.1,0.8-0.2l0-1.1l0.6-0.4l0.4,0.5c0.2-0.3,0.4-0.7,0.5-1.2l-0.3-0.4l0.2-0.9l0.3-0.1c0,0,0-0.1,0-0.1
				c0-0.4,0-0.8-0.1-1.2l-0.4,0.1l-0.4-0.8l0.2-0.7c-0.2-0.4-0.4-0.7-0.7-0.9L9.5,17l-0.6,0l-0.3-1.2c-0.3,0.1-0.6,0.3-0.8,0.6
				L8,17.5l-0.4,0.7l-0.8-0.3c-0.1,0.2-0.1,0.4-0.2,0.7C6.5,18.8,6.5,19,6.5,19.3z"/>
			<path class="st6" d="M8.5,19.3c-0.1,0.5,0.1,1,0.4,1.2c0.3,0.1,0.7-0.2,0.8-0.7c0.1-0.5-0.1-1-0.4-1.2
				C8.9,18.5,8.6,18.8,8.5,19.3z"/>
		</g>
	</g>
	<path class="st7" d="M58.8,6.9c7.5,0,14.6,2.3,16.5,3.9c0.2,0.2,0.3,0.4,0.3,0.7l0,0.7l0,1.9l0.6,0.4c0.3,0.2,0.5,0.5,0.7,0.8
		l0.4,1c0.1,0.3,0.1,0.6,0.1,1l-0.7,1.8l-0.6,2.5l0.4,0.6l0.4,0.6c0.1,0.1,0.1,0.2,0.1,0.3c0,0.3-0.2,0.5-0.5,0.5h-0.3h-3.4
		c-6.9,0-13.9,0-20.8,0l-3.2-10.6l-11.6-0.8L19.1,0.6C23.9-0.1,31.5,0,36.2,0c2.5,0,6.2,0,9.2,0.5C49.2,1.3,53.6,3.4,58.8,6.9z"/>
	<path class="st8" d="M77.4,17.3l-0.2,1.2c-0.1,0.2-0.2,0.4-0.5,0.6l-0.6,2.5c0.2,0.1,0.4,0.2,0.4,0.5l0,0.1H52.3l0.1-5.3l1.9-1.4
		c0.2,0.3,1.1,1.2,2.5,1.4l6,0.5H77.4z"/>
	<path class="st8" d="M77.4,17.3l-0.2,1.2c-0.1,0.2-0.2,0.4-0.5,0.6l-0.6,2.5c0.2,0.1,0.4,0.2,0.4,0.5l0,0.1h-21l2.1-5.3l5.3,0.4
		H77.4z"/>
	<path class="st8" d="M30.9,1.3c1.9,1.2,6,4.9,7.3,6.8c7.4-0.3,15.5,2.1,16.6,3.6l-0.9,3l1.2,1.7c0.5,0.8,0.4,1.4,0.2,1.8L54,22.2
		L54,22.6l0.6,1h-5.1c-0.4,0-0.6-0.3-0.7-0.7v-2.4c0-4.1-2.2-7.5-5-7.5c-2.7,0-4.9,3.3-4.8,7.5c0,0.8,0.1,1.6,0.2,2.4
		c0,0.4-0.2,0.6-0.7,0.7l-24.5,0c-0.4,0-0.6-0.3-0.6-0.7v-2.4c0-4.1-2.2-7.5-5-7.5c-2.5,0-4.5,2.1-4.7,6.8c0,0.4,0,1,0,1.4
		c-0.1,0.4-0.3,0.6-0.7,0.7L1,21.1c-0.4-0.2-0.7-0.7-0.7-1.3L0,15.6c-0.1-1.2,0.5-1.7,0.8-2.2c0.1-1.5,0.6-3,0.7-4.5
		c0-0.8,0.8-1.6,1.5-1.7c1.3-0.2,2.6-0.5,2.9-0.6C7.9,5.9,7.3,6,9.6,4.4c3.1-2.2,5.9-3.4,8.3-3.7C21.4,0.3,27.9-0.6,30.9,1.3z"/>
	<path class="st7" d="M39.2,22.2c0,0.2,0.1,0.5,0.1,0.7c0,0.4-0.2,0.6-0.7,0.7l-24.5,0c-0.4,0-0.6-0.3-0.6-0.7v-0.7H39.2z"/>
	<path class="st9" d="M0.9,12c0.2-0.9,0.4-1.8,0.5-2.6h0.7c0.5,0,0.8,0.5,0.6,0.8l-0.6,1.1C1.9,11.7,1.6,12,0.9,12L0.9,12z"/>
	<path class="st7" d="M49.8,23.5h-0.3c-0.4,0-0.6-0.3-0.7-0.7v-2.4c0-4.1-2.2-7.5-5-7.5c-2.7,0-4.9,3.3-4.8,7.5
		c0,0.8,0.1,1.6,0.2,2.4c0,0.4-0.2,0.6-0.7,0.7h-0.7v-3c0-4.9,2.6-8.9,5.9-8.9c3.3,0,5.9,4,5.9,8.9V23.5z"/>
	<path class="st7" d="M14.6,23.5h-0.5c-0.4,0-0.6-0.3-0.6-0.7v-2.4c0-4.1-2.2-7.5-5-7.5c-2.5,0-4.5,2.1-4.7,6.8c0,0.4,0,1,0,1.4
		c-0.1,0.4-0.3,0.6-0.7,0.7l-0.4-0.2v-1.2c0-2.5,0.4-4.8,1.5-6.4c1.1-1.6,2.8-2.5,4.4-2.5c3.3,0,5.9,4,5.9,8.9V23.5z"/>
	<path class="st10" d="M46,0.7c4.7,1,8.7,3.1,12.5,6L44.7,6.9L39,7.3c-1.1-1.4-2.5-2.9-3.9-4.1c-0.9-0.8-1.9-1.6-2.9-2.3L46,0.7z"/>
	<path class="st2" d="M56.7,6.7l-12,0.2L39,7.3c-1.1-1.4-2.5-2.8-3.8-4c1.4-0.1,2.8-0.2,4.2-0.2C46.4,3.1,52.6,4.5,56.7,6.7z"/>
	<path class="st3" d="M55.5,11.9l-2.6-0.2c-0.3,0-0.5,0-0.7,0.2l-0.4,0.5c-0.1,0.1-0.1,0.3,0,0.5l1.8,1.7c0.2,0.1,0.4,0.2,0.6,0.3
		l7.3,0.6c0.2,0,0.2-0.2,0.1-0.3l-0.5-0.6c-0.1-0.1-0.2-0.2-0.4-0.2l-2.4-0.2l-0.1,0l-2.1-2C56,12,55.8,11.9,55.5,11.9L55.5,11.9z
		 M60.9,12.3c0.1,0,0.2,0.2,0.2,0.3l-0.2,0.6c-0.1,0.2-0.2,0.2-0.3,0.2l-1.7-0.1c-0.2,0-0.3-0.1-0.4-0.2l-0.8-0.8
		c-0.1-0.1,0-0.4,0.2-0.3L60.9,12.3z"/>
	<path class="st0" d="M28.1,1.2C24.5,0.7,20.3,1,17.5,1.6c-2.9,0.6-4.7,1.9-6.5,3.1c-0.5,0.3-0.8,1-0.8,1.7l0,1.1
		c0,0.3,0.2,0.5,0.5,0.5l25.6,0.2c0.3,0,0.4-0.2,0.1-0.5c-1.4-1.6-3.1-3.3-4.8-4.6C30.3,2,29.3,1.4,28.1,1.2z"/>
	<path class="st2" d="M62.6,12.3c-0.2,0-0.4,0.1-0.5,0.3l-0.3,0.9c-0.1,0.2,0,0.5,0.1,0.7l0.9,1c0.2,0.2,0.4,0.3,0.6,0.3l10.1,0
		c0.2,0,0.4-0.1,0.5-0.4l0.4-1c0.1-0.3,0.1-0.4,0.1-0.7l-0.1-0.7c0-0.2-0.2-0.4-0.4-0.4H62.6z"/>
	<path class="st11" d="M62.6,12.3c-0.2,0-0.4,0.1-0.5,0.3l-0.3,0.9c-0.1,0.2,0,0.5,0.1,0.7l0.9,1c0.2,0.2,0.4,0.3,0.6,0.3l9.4,0
		c0.2,0,0.4-0.1,0.5-0.4l0.4-1c0.1-0.3,0.1-0.4,0.1-0.7l-0.1-0.7c0-0.2-0.2-0.4-0.4-0.4H62.6z"/>
	<path class="st0" d="M76.2,19.3c0.1-0.3-0.1-0.5-0.4-0.5c-4.3,0-8.7,0-13,0c-0.4,0-0.7,0.2-0.8,0.5c-0.4,0.8-0.5,1.1-0.9,1.8
		c-0.1,0.3,0.1,0.5,0.3,0.5H75c0.4,0,0.6-0.2,0.7-0.4L76.2,19.3z"/>
	<path class="st0" d="M75,18.7L75,18.7c-4,0-8.2,0-12.2,0c-0.4,0-0.7,0.2-0.8,0.5c-0.4,0.8-0.5,1.1-0.9,1.8
		c-0.1,0.3,0.1,0.5,0.3,0.5h12.9c0.4,0,0.6-0.2,0.7-0.4l0.5-1.9C75.5,19,75.3,18.7,75,18.7z"/>
	<path class="st0" d="M59.3,19.3c0.1-0.3,0-0.5-0.3-0.5l-3.4-0.3c-0.4,0-0.7,0.2-0.8,0.5l-1,2.1c-0.1,0.3,0,0.5,0.3,0.5l3.5,0
		c0.4,0,0.7-0.2,0.8-0.4L59.3,19.3z"/>
	<path class="st10" d="M28,1.5c1.4,0.2,2.4,1,3.5,1.8c1.6,1.3,3.2,2.9,4.6,4.4L22,7.7c0,0,0,0,0,0c0.1-2.2,0.5-4.1,1.2-6.1
		c0,0,0.1-0.2,0.1-0.3C24.9,1.3,26.6,1.4,28,1.5L28,1.5z M20.1,7.7l-6,0c0.1-0.8,0.3-1.6,0.5-2.4c0.2-0.8,0.5-1.7,0.8-2.5
		c0,0,0-0.1,0.1-0.2c0.6-0.2,1.3-0.4,2.1-0.6c1.3-0.3,2.7-0.5,4.1-0.6C20.9,3.4,20.4,5.5,20.1,7.7C20.1,7.6,20.1,7.6,20.1,7.7
		L20.1,7.7z M13.7,7.6C13.7,7.6,13.7,7.6,13.7,7.6c0.1-0.9,0.3-1.7,0.6-2.5c0.2-0.8,0.5-1.6,0.7-2.3c-1.2,0.5-2.2,1.1-3.2,1.8
		c-0.3,1-0.5,2-0.5,3L13.7,7.6z"/>
	<path class="st2" d="M32.8,4.5c1.1,1,2.2,2.1,3.2,3.3L22,7.7c0,0,0,0,0,0c0.1-1.1,0.2-2.1,0.4-3c2-0.2,4.1-0.2,6.2-0.2
		C30,4.4,31.4,4.4,32.8,4.5L32.8,4.5z M20.6,4.8c-2.1,0.2-4.1,0.5-6,0.9c-0.2,0.6-0.3,1.3-0.4,1.9l6,0c0,0,0-0.1,0-0.1
		C20.3,6.6,20.4,5.7,20.6,4.8L20.6,4.8z M14.1,5.8c-0.9,0.2-1.8,0.4-2.7,0.6c0,0.4-0.1,0.8-0.1,1.1l2.4,0c0,0,0,0,0,0
		C13.8,7,13.9,6.4,14.1,5.8z"/>
	<path class="st0" d="M55.6,18.4c-0.4,0-0.7,0.2-0.8,0.5l-1,2.1c-0.1,0.3,0,0.5,0.3,0.5l2.6,0c0.4,0,0.6-0.2,0.8-0.4l1-1.9
		c0.1-0.3,0-0.5-0.3-0.5L55.6,18.4z"/>
	<path class="st1" d="M45.4,0.5L32,0.7c-0.2,0-0.3,0.1-0.1,0.2c2.5,1.7,5.4,4.4,7,6.5l5.8-0.4l14.1-0.2C55.6,4.2,51.1,1.7,45.4,0.5
		L45.4,0.5z M46.1,0.7c4.5,1,8.6,3,12.2,5.9l-0.2,0L44.7,6.8L39,7.2c-1.1-1.4-2.5-2.8-3.8-4c-0.9-0.8-1.8-1.5-2.8-2.2l13-0.2
		L46.1,0.7z"/>
	<path class="st12" d="M14.3,10h-1.9c-0.2,0-0.4,0.2-0.4,0.4v0c0,0.2,0.2,0.4,0.4,0.4h1.9c0.2,0,0.4-0.2,0.4-0.4v0
		C14.7,10.1,14.5,10,14.3,10z"/>
	<path class="st12" d="M25,10h-1.9c-0.2,0-0.4,0.2-0.4,0.4v0c0,0.2,0.2,0.4,0.4,0.4H25c0.2,0,0.4-0.2,0.4-0.4v0
		C25.5,10.1,25.3,10,25,10z"/>
	<path class="st13" d="M70.1,13.5h-1.9c-0.2,0-0.4,0.2-0.4,0.4v0c0,0.2,0.2,0.4,0.4,0.4h1.9c0.2,0,0.4-0.2,0.4-0.4v0
		C70.5,13.7,70.4,13.5,70.1,13.5z"/>
	<path class="st14" d="M70.6,13.5h-1.9c-0.2,0-0.4,0.2-0.4,0.4v0c0,0.2,0.2,0.4,0.4,0.4h1.9c0.2,0,0.4-0.2,0.4-0.4v0
		C71,13.7,70.8,13.5,70.6,13.5z"/>
	<g>
		<path class="st8" d="M35.6,8.4c0.6,0.4,1.4-0.4,0.8-1l-2-2c-0.6-0.6-2,1-1.4,1.6L35.6,8.4z"/>
		<path class="st8" d="M30.9,5.2L33.5,5c1.6-0.2,1.8,3,0.3,2.9l-2.6-0.2C29.6,7.5,29.4,5.4,30.9,5.2z"/>
		<path class="st7" d="M33.3,5.5l-1.9,0.2c-0.6,0.1-0.5,0.8,0.1,0.8l2.4,0.2C34.4,6.7,34.2,5.4,33.3,5.5z"/>
	</g>
	<path class="st8" d="M53.8,20.8c-0.1,0,0.1-0.5,0.2-0.5l3.8,0.1c0.3,0,0.2,0.5-0.1,0.5C56.4,20.9,55.1,20.8,53.8,20.8L53.8,20.8z
		 M58.4,19.3c0.3,0,0.2,0.5-0.1,0.5c-1.3-0.1-2.6-0.1-3.9-0.2c-0.1,0,0.1-0.5,0.2-0.5C55.9,19.2,57.1,19.3,58.4,19.3z"/>
	<path class="st8" d="M61.2,20.9c-0.1,0,0.1-0.5,0.2-0.5h13.7c0.3,0,0.3,0.5-0.1,0.5H61.2L61.2,20.9z M75.3,19.4
		c0.3,0,0.3,0.5-0.1,0.5H61.7c-0.1,0,0.1-0.5,0.2-0.5H75.3z"/>
	<path class="st3" d="M75.7,15.1L75,15.2c-0.2,0.1-0.3-0.2-0.2-0.3l0.2-0.6c0-0.1,0.1-0.2,0.2-0.2l0.5-0.2
		C75.9,14.1,76,15,75.7,15.1L75.7,15.1z M75.2,12.2l0.5-0.2c0.4,0.4,0.2,1.2,0,1.2l-0.3,0.1c-0.1,0-0.2,0-0.2-0.2L75,12.5
		C75,12.4,75,12.2,75.2,12.2z"/>
	<path class="st15" d="M39.8,11.6h-0.9c-0.2,0-0.5,0.2-0.7,0.4l-0.6,0.8c-0.2,0.2-0.1,0.4,0.1,0.4h0.9c0.2,0,0.5-0.2,0.7-0.4
		l0.6-0.8C40.1,11.8,40.1,11.6,39.8,11.6z"/>
</g>
</svg>
