<?xml version="1.0" encoding="utf-8"?>
<!-- Generator: Adobe Illustrator 24.0.3, SVG Export Plug-In . SVG Version: 6.00 Build 0)  -->
<svg version="1.1" id="レイヤー_1" xmlns="http://www.w3.org/2000/svg" xmlns:xlink="http://www.w3.org/1999/xlink" x="0px"
	 y="0px" viewBox="0 0 136.1 105.1" style="enable-background:new 0 0 136.1 105.1;" xml:space="preserve">
<style type="text/css">
	.st0{opacity:0;}
	.st1{opacity:1.428571e-02;fill:#050505;}
	.st2{opacity:2.857143e-02;fill:#090909;}
	.st3{opacity:4.285714e-02;fill:#0E0E0E;}
	.st4{opacity:5.714286e-02;fill:#131313;}
	.st5{opacity:7.142857e-02;fill:#181818;}
	.st6{opacity:8.571429e-02;fill:#1C1C1C;}
	.st7{opacity:0.1;fill:#212121;}
	.st8{opacity:0.1143;fill:#262626;}
	.st9{opacity:0.1286;fill:#2A2A2A;}
	.st10{opacity:0.1429;fill:#2F2F2F;}
	.st11{opacity:0.1571;fill:#343434;}
	.st12{opacity:0.1714;fill:#393939;}
	.st13{opacity:0.1857;fill:#3D3D3D;}
	.st14{opacity:0.2;fill:#424242;}
	.st15{opacity:0.2143;fill:#474747;}
	.st16{opacity:0.2286;fill:#4B4B4B;}
	.st17{opacity:0.2429;fill:#505050;}
	.st18{opacity:0.2571;fill:#555555;}
	.st19{opacity:0.2714;fill:#5A5A5A;}
	.st20{opacity:0.2857;fill:#5E5E5E;}
	.st21{opacity:0.3;fill:#636363;}
	.st22{fill:url(#SVGID_1_);}
	.st23{fill:#C1C1C1;}
	.st24{fill:#74797C;}
	.st25{fill:#DADBDB;}
	.st26{fill:#A4A49D;}
	.st27{fill:url(#SVGID_2_);}
	.st28{fill:url(#SVGID_3_);}
	.st29{fill:url(#SVGID_4_);}
	.st30{fill:url(#SVGID_5_);}
	.st31{fill:url(#SVGID_6_);}
	.st32{fill:url(#SVGID_7_);}
	.st33{fill:url(#SVGID_8_);}
	.st34{fill:url(#SVGID_9_);}
	.st35{fill:url(#SVGID_10_);}
</style>
<g>
	<g>
		<ellipse class="st0" cx="97.2" cy="101.5" rx="38.9" ry="3.6"/>
		<ellipse class="st1" cx="97.2" cy="101.5" rx="38.1" ry="3.4"/>
		<ellipse class="st2" cx="97.2" cy="101.5" rx="37.2" ry="3.3"/>
		<ellipse class="st3" cx="97.2" cy="101.5" rx="36.4" ry="3.2"/>
		<ellipse class="st4" cx="97.2" cy="101.5" rx="35.5" ry="3"/>
		<ellipse class="st5" cx="97.2" cy="101.5" rx="34.7" ry="2.9"/>
		<ellipse class="st6" cx="97.2" cy="101.5" rx="33.8" ry="2.7"/>
		<ellipse class="st7" cx="97.2" cy="101.5" rx="33" ry="2.6"/>
		<ellipse class="st8" cx="97.2" cy="101.5" rx="32.1" ry="2.4"/>
		<ellipse class="st9" cx="97.2" cy="101.5" rx="31.3" ry="2.3"/>
		<ellipse class="st10" cx="97.2" cy="101.5" rx="30.4" ry="2.1"/>
		<ellipse class="st11" cx="97.2" cy="101.5" rx="29.6" ry="2"/>
		<ellipse class="st12" cx="97.3" cy="101.5" rx="28.7" ry="1.8"/>
		<ellipse class="st13" cx="97.3" cy="101.5" rx="27.9" ry="1.7"/>
		<ellipse class="st14" cx="97.3" cy="101.5" rx="27.1" ry="1.5"/>
		<ellipse class="st15" cx="97.3" cy="101.5" rx="26.2" ry="1.4"/>
		<ellipse class="st16" cx="97.3" cy="101.5" rx="25.4" ry="1.2"/>
		<ellipse class="st17" cx="97.3" cy="101.5" rx="24.5" ry="1.1"/>
		<path class="st18" d="M121,101.5c0,0.5-10.6,1-23.7,1c-13.1,0-23.7-0.4-23.7-1c0-0.5,10.6-1,23.7-1C110.4,100.6,121,101,121,101.5
			z"/>
		<path class="st19" d="M120.1,101.5c0,0.4-10.2,0.8-22.8,0.8c-12.6,0-22.8-0.4-22.8-0.8c0-0.4,10.2-0.8,22.8-0.8
			C109.9,100.7,120.1,101.1,120.1,101.5z"/>
		<path class="st20" d="M119.3,101.5c0,0.4-9.8,0.7-22,0.7c-12.1,0-22-0.3-22-0.7c0-0.4,9.8-0.7,22-0.7
			C109.4,100.9,119.3,101.1,119.3,101.5z"/>
		<path class="st21" d="M118.4,101.5c0,0.3-9.5,0.5-21.1,0.5c-11.7,0-21.1-0.2-21.1-0.5c0-0.3,9.5-0.5,21.1-0.5
			C109,101,118.4,101.2,118.4,101.5z"/>
	</g>
	<g>
		<g>
			<g>
				<g>
					
						<radialGradient id="SVGID_1_" cx="40.0814" cy="89.7273" r="24.5718" gradientTransform="matrix(1.1057 0 0 1.1057 51.9547 -7.0963)" gradientUnits="userSpaceOnUse">
						<stop  offset="0" style="stop-color:#B1B1B1"/>
						<stop  offset="1" style="stop-color:#808080"/>
					</radialGradient>
					<path class="st22" d="M128.3,85.9c0-0.4,0.1-0.7,0.4-1c0.6,0,0.6,0.5,0.6,0.9c0.2,1.1,0.3,2.1,0.5,3.2c0.1,0.5,0.4,0.9,0.3,1.4
						c0,0,0,0,0,0c0,0,0,0,0,0c0.7-0.1,1.1-0.4,1.1-1c0.2,0.1,0.4,0.2,0.6,0.3c-0.1,0.1-0.2,0.2-0.3,0.3c0,0.1-0.1,0.1,0,0.2
						c0.1,0.1,0.2,0,0.2,0c0.2-0.6,1-0.4,1.2-1.1c0.3,0.9,0.4,1.8,0.4,2.7c0,0.2,0,0.5-0.1,0.7c-0.2,0.4-0.1,0.8-0.2,1.3
						c0,0.2-0.1,0.5,0.1,0.6c0,0.1,0,0.3-0.1,0.4c-0.1,0.1-0.1,0.1,0,0.2c-0.1,0.6-0.1,1.2-0.4,1.8c-0.2,0.4-0.4,0.7-0.9,0.7
						c-0.6,0-1.3,0.1-1.9,0.1c-0.7,0-1-0.3-1.2-1c0.1-0.2,0-0.4-0.2-0.4c0,0,0,0,0,0c0-0.4-0.3-0.3-0.5-0.3c-0.4,0-0.9,0.1-1.3-0.2
						c-0.3-0.2-0.7,0.2-0.6,0.6c-0.2,0.5-0.5,0.8-1,0.8c-0.2,0-0.3,0.1-0.4,0.3c0,0.5-0.1,0.9-0.4,1.3c-0.1,0.2-0.3,0.4-0.5,0.5
						c-0.8,0-1.7,0.2-2.5-0.3c-0.5-0.7-0.4-1.6-0.5-2.4c-0.3,0.2-0.4,0.4-0.4,0.7c0,0.6-0.1,1.2-0.1,1.8c-0.1,0.8-0.3,1.5-0.6,2.2
						c-0.1,0.3-0.4,0.5-0.7,0.5c-0.3,0-0.5,0-0.8,0c-0.8,0-1.6,0.1-2.3-0.5c-0.4-0.3-1.3-0.2-1.7,0.2c-0.4,0.4-0.9,0.4-1.4,0
						c-0.2-0.2-0.4-0.4-0.5-0.7c-0.2-0.6-0.3-1.1-0.5-1.7c-0.2-0.7-0.3-1.4-0.5-2.1c-0.1-0.5-0.4-0.7-0.8-0.7c-0.8,0-1.6,0-2.4,0.2
						c-0.7,0.2-1.2-0.1-1.3-0.8c-0.2-0.7-0.2-1.3-0.3-2c-0.1-1.1-0.2-2.2-0.3-3.3c-0.1-0.6-1.1-1-1.6-0.6c-0.1,0-0.1,0.1-0.1,0.2
						c0,0.4-0.2,0.8-0.2,1.2c-0.1,0.9-0.1,1.9-0.2,2.8c0,0.6-0.1,1.3-0.1,1.9c-0.1,0.8-0.2,0.9-1,0.9c-0.6,0-1.1,0-1.7,0
						c-0.2,0-0.6,0-0.6-0.3c0-0.7-0.3-1.4-0.3-2.1c0-0.9-0.1-1.8-0.1-2.7c0-0.6-0.2-0.8-0.8-0.9c-0.9-0.1-1.5,0.2-1.5,1.4
						c0,1.2-0.2,2.4-0.4,3.6c-0.1,0.7-0.7,1.1-1.4,0.9c-0.8-0.2-1.6-0.2-2.4-0.2c-0.6,0-0.8,0.2-1,0.8c-0.2,0.5-0.1,1-0.2,1.5
						c-0.1,0.5-0.5,0.8-0.7,1.3c-0.2,0.5-1,0.7-1.4,0.4c-0.7-0.5-1.4-0.5-2.1,0c-0.1,0.1-0.2,0.1-0.4,0.1c-0.8,0.2-1.7,0.1-2.5,0.1
						c-0.5,0-0.7-0.3-0.7-0.8c0-0.4,0.1-0.7-0.1-1.1c-0.1-1-0.2-2-0.3-3c-0.1-1.1-0.3-2.2-0.6-3.3c-0.2-0.7-0.7-0.8-1.3-0.5
						c-0.2,0.1-0.2,0.2,0,0.3c0.3,0.2,0.3,0.4,0.2,0.8c-0.1,0.6-0.4,1.2-0.5,1.9c-0.2,1.3-0.2,2.6-0.3,3.9c-0.1,0.5-0.1,1-0.2,1.5
						c-0.2,0.9-0.3,1.8-1.5,2.1c-0.6,0.2-1.6-0.1-1.8-0.6c-0.1-0.3-0.3-0.6-0.5-0.9c-0.1-0.1-0.1-0.2-0.1-0.4c0-0.6-0.1-1.2-0.1-1.8
						c0-0.7,0-1.3-0.1-2c0.1-0.4,0-0.8,0-1.2c0,0.4-0.1,0.8-0.1,1.2c-0.7,0.1-1.4,0-2.1,0.1c-0.3,0.1-0.5-0.1-0.8-0.2
						c0,0-0.1-0.1-0.1-0.1c-0.2-0.2-0.2-0.5-0.2-0.8c0.1-0.3,0.1-0.5-0.1-0.6c-0.2-0.1-0.3,0.1-0.5,0.2c-0.1,0-0.3,0-0.4,0
						c0,0-0.1-0.1-0.1-0.1c-0.7,0-1.4-0.1-2.1,0c-0.7,0.1-1.3-0.4-2-0.4c-0.1,0-0.2,0-0.2-0.1c-0.2-0.2-0.4-0.2-0.7-0.1
						c-0.3,0.1-0.4,0-0.5-0.3c-0.1-0.3-0.2-0.3-0.4-0.2c-0.7,0.2-1.4,0.1-2.1,0.1c-1.3,0-2.7-0.1-4,0.1c-0.4,0.1-0.7,0-1.1,0
						c-0.3,0-0.5-0.2-0.5-0.6c0-0.2,0-0.3-0.1-0.5c-0.3-0.6,0.1-1.4,0.6-1.4c0.5,0,1-0.1,1.5-0.1c1.8,0,3.5-0.1,5.3-0.1
						c0.1,0,0.3,0.1,0.4-0.1c0-0.2-0.2-0.2-0.3-0.3c-0.1,0-0.1,0-0.2,0c0.4,0,0.5-0.3,0.4-0.6c0-0.4,0.2-0.7-0.1-1.1
						c-0.1-0.1,0-0.3,0.1-0.3c0.3-0.1,0.4-0.4,0.7-0.6c0.2,0.2,0.2,0.4,0.1,0.5c-0.3,0.4-0.2,0.8-0.2,1.2c0,0.6,0.1,0.7,0.6,0.7
						c0.3,0,0.7,0.1,0.8-0.3c0.1-0.5,0.3-1,0.2-1.5c-0.1-0.2,0.1-0.3,0.1-0.5c0-0.1,0.1-0.2,0.2-0.2c0.1,0,0.2,0.2,0.1,0.3
						c-0.2,0.5-0.1,1-0.1,1.5c0,0.4,0.2,0.6,0.6,0.6c0.1,0,0.2-0.1,0.3,0c0.4,0.2,0.9,0.2,1.3,0.2c0.3,0,0.5-0.1,0.8,0
						c0.1,0,0.2,0,0.2,0.1c0,0.1-0.1,0.1-0.2,0.1c-0.5,0-1,0.1-1.5,0c-0.5,0-1-0.2-1.4,0.2c-0.1,0.1-0.3,0-0.4,0
						c-0.5-0.2-1-0.2-1.5,0.1c-0.1,0-0.2,0-0.2,0.1c0,0.1,0.1,0.1,0.2,0.2c0.1,0.1,0.2,0.1,0.3,0.1c0.6-0.1,1.2,0,1.8,0
						c1.2,0,2.3-0.1,3.5-0.2c0.3,0,0.3-0.1,0.3-0.4c0-0.2-0.1-0.5,0-0.7c0.2-0.5,0.2-0.9,0.2-1.4c0-0.3,0-0.7,0.2-1
						c0.1-0.1,0.1-0.3,0.2-0.2c0.2,0,0.2,0.2,0.2,0.3c-0.1,0.6,0,1.1,0,1.6c0,0.5,0.2,0.4,0.5,0.4c0.6,0,1.1-0.2,1.7-0.3
						c0.2,0,0.1-0.1,0.2-0.2c0.1-0.6,0.3-1.2,0.4-1.8c0-0.3,0.2-0.6,0.3-0.8c0.1,0.9-0.3,1.6-0.1,2.5c0.2-0.3,0.1-0.6,0.1-0.9
						c0-0.1,0-0.2,0.1-0.2c0.1,0,0.1,0.1,0.1,0.2c0,0.2,0,0.4,0,0.6c0.1,0.4,0.1,0.8,0.6,0.8c0.3,0,0.7,0.3,1,0
						c0.1-0.1,0.1,0,0.2,0.1c0.3,0.4,0.5,0.4,0.9,0.1c-0.2-0.1-0.6,0.1-0.6-0.3c0.2,0.1,0.5-0.2,0.7,0.1c0.2,0.4,0.4,0,0.4-0.1
						c0-0.3,0.2-0.5,0.2-0.8c0.2-1.3,0.2-2.5,0.2-3.8c0-0.5,0-0.9,0.2-1.4c0,0.3,0,0.6,0,1c0.1,0.5-0.3,1.1,0.4,1.5
						c0.1,0.7,0.6,1.4,0.6,2.2c0,0.4,0.3,0.8,0.6,0.8c0.4,0,0.4-0.4,0.4-0.7c0.1-0.6,0.1-1.2,0.3-1.8c0.1-0.4,0.2-0.8,0.2-1.2
						c0.2-0.9,0.1-1.9,0.2-2.8c0.3-0.1,0.3,0.1,0.3,0.3c0,0.3,0,0.6-0.1,0.9c-0.1,1.2,0.1,2.3,0.1,3.5c0,0.1,0.1,0.3,0.1,0.4l0,0
						c-0.1,0-0.1,0.1-0.1,0.2c0.2,0.5,0.1,1.2,0.7,1.5l0,0c-0.3-0.2-0.4,0-0.4,0.3c0,0.3,0,0.5,0.4,0.5c0.5,0,0.9-0.2,0.9-0.5
						c0,0,0,0,0,0c0,0,0,0,0,0c0,0,0,0,0,0c-0.1,0-0.3,0-0.2-0.2c0.3-0.5,0.5-1.1,0.5-1.6c0-0.4,0.2-0.4,0.5-0.4
						c0.3,0,0.3,0.2,0.2,0.4c0,0.1,0,0.2,0.1,0.2c0,0,0,0,0,0c0,0,0,0,0,0c0.2,0,0.3-0.1,0.3-0.3c0-0.5,0-1,0-1.4
						c0-0.5-0.1-0.9,0.1-1.4c0.1,0.5,0.1,0.9,0.1,1.4c0,0.1-0.1,0.3,0.1,0.4c0,0.8,0.1,1.7,0.1,2.5c-0.1,0.2,0,0.4-0.1,0.7
						c0,0.3,0,0.6,0.2,0.7c0.7,0.5,0.8,1.3,0.9,2.1c0,0.1,0,0.2,0.1,0.3c0.1,0,0.2,0,0.3-0.1c0.2-0.2,0.2-0.4,0.2-0.7
						c0-0.6,0-1.2,0.5-1.6c0.1-0.1,0.1-0.2,0.1-0.3c0.2-0.3,0.3-0.7,0.3-1c0-0.6,0.1-1.1,0.1-1.7c0.2-0.2,0.2-0.5,0.2-0.8
						c0-0.3,0.2-0.5,0.4-0.8c0,0.5,0.1,0.8,0,1.2c-0.1,0.4-0.3,0.9-0.1,1.4c0,0,0,0-0.1,0.1c-0.1,0.4,0,0.8,0,1.1
						c0,0.3,0.5,0.7,0.9,0.6c0.1,0,0.1-0.1,0.1-0.1c0.2-0.3,0.3-0.7,0.2-1.1c0,0,0-0.1,0-0.1c0.1-0.1,0.1-0.2,0-0.4
						c0-0.1,0-0.2,0-0.3c0.3-0.2,0-0.6,0.4-0.8c-0.3,1.1,0.2,2.1,0.2,3.1c-0.1,0-0.1,0-0.2,0.1c-0.3,0-0.5,0.2-0.8,0.4
						c-0.1,0-0.1,0.1-0.1,0.2c0,0.1,0.1,0,0.1,0c0.2,0.1,0.4,0.1,0.6,0c0.5-0.3,1-0.3,1.5-0.3c0.3,0,0.5,0,0.7-0.2c0,0,0.1,0,0.1,0
						c0,0-0.1,0-0.1,0c0,0,0-0.1-0.1-0.1c0-0.3,0-0.7,0-1c0-0.3,0.2-0.6,0.1-0.9c0-0.1,0-0.2,0-0.2c0.3-0.2,0.2-0.5,0.2-0.7
						c0.1-0.5,0.1-1,0.2-1.5c0-0.2,0.1-0.6,0.5-0.5c0.3,0.1,0.4,0,0.5-0.3c0.1-0.4,0.1-0.7,0.2-1.1c0.1,0.3,0.2,0.5,0.3,0.8
						c0.1,0.1,0.2,0.2,0.3,0.1c0.1-0.3,0.5-0.5,0.4-0.9c0.2-0.5,0.1-0.9,0.1-1.4c0.2-0.4,0-0.7,0.1-1.1c0-0.2,0-0.4,0.2-0.4
						c0,0,0,0,0,0c0.5,0.7,0.5,1.5,0.4,2.2c-0.1,0.6-0.1,1.1,0.2,1.5c0.1,0.2,0,0.3-0.2,0.4c-0.1,0.1-0.3,0.2-0.5,0.2
						c-0.5,0.2-0.8,0.5-1,1c-0.1,0.1-0.1,0.3,0.1,0.4c0.1,0.1,0.2,0.1,0.4,0c0.3-0.2,0.6-0.4,0.7-0.7c0.1-0.2,0.2-0.3,0.4-0.4
						c0.2,0,0.4,0,0.6,0c0.2,0,0.4-0.1,0.4-0.4c0-0.1,0.1-0.1,0.1-0.2c0-0.7,0.1-1.4,0.2-2.1c0-0.1,0-0.2,0.1-0.2
						c0,0.8,0.2,1.6,0.2,2.4c0,0.1,0.1,0.2,0.2,0.2c0,0.3,0.3,0.3,0.5,0.3c1,0,2.1,0,3.1,0c0.1,0.1,0.3,0.1,0.4,0
						c0.1-0.1,0.1-0.1,0-0.2c-0.4-0.9-0.3-1.8-0.6-2.7c-0.2-0.7,0.1-1.6-1.1-1.7c-0.1,0-0.2-0.1-0.3-0.2c-0.2-0.1-0.1-0.2,0-0.3
						c0.3-0.3,0.7-0.4,1.1-0.4c0.3,0,0.4,0.5,0.5,0.8c0,0,0,0.1,0,0.1c0.2,0.6,0.1,1.2,0.4,1.8c0.1,0.4,0.2,0.8,0.1,1.2
						c-0.1,0.2,0.1,0.2,0.2,0.2c0.2,0,0.5,0,0.7,0.1c0.1,0.2,0.2,0.1,0.4,0.2c-0.2-0.2-0.2-0.4-0.4-0.4l0,0c0-0.3-0.1-0.5-0.1-0.8
						c0.1-0.6,0.1-1.1,0.1-1.7c0-0.2,0-0.5,0.1-0.7c0-0.1,0-0.2,0.1-0.2c0.1,0,0.1,0.1,0.2,0.2c0.6,0.9,0.9,1.8,0.7,2.8
						c-0.1,0.3-0.2,0.6,0.1,0.8c0,0,0,0,0,0.1c0,0.2,0,0.3-0.2,0.4c-0.2,0-0.2,0.3-0.2,0.5c0.1,0.5,0.4,0.8,0.7,1.1
						c0-0.1,0-0.2,0-0.2c0-0.1-0.1-0.2,0-0.3c0.1-0.1,0.2,0,0.2,0.1c0.1,0.1,0.2,0.4,0.1,0.4c-0.3,0.1-0.2,0.4-0.2,0.6
						c0.1,0.7,0.8,1.1,0.9,1.8c0,0,0.1,0.1,0.1,0.1c0.2,0,0.2,0.2,0.3,0.4c0.1-0.1,0.1-0.3,0.1-0.4c0-0.1,0.1-0.1,0.1-0.1
						c0.1,0,0.1,0,0.1,0.1c0,0.2,0.2,0.4,0.2,0.6c-0.2,0.1-0.5,0-0.5,0.2c0,0.1,0.1,0.2,0.3,0.2c0.7,0.4,1.5,0.3,2.2,0
						c0,0,0.1,0.1,0.1,0c0,0,0,0,0,0c0-0.1-0.1-0.1-0.1,0c0,0,0-0.1,0-0.1c0.1-0.3,0-0.7,0.1-1c0.1-0.1,0-0.3,0.2-0.4
						c0.2,0,0.3,0.2,0.3,0.3c0.1,0.2,0.2,0.4,0.2,0.7c0,0.3-0.1,0.6,0,0.9c0,0.3-0.1,0.6,0.2,0.8c0.1,0.3,0.3,0.4,0.6,0.3
						c0.3-0.2,0.6-0.4,0.5-0.9c0-0.2-0.1-0.4-0.1-0.7c0-1.8-0.1-3.5-0.6-5.2c0.4,0.3,0.4,0.7,0.5,1.1c0.2,1.5,0.5,2.9,0.6,4.4
						c0,0.5,0.4,0.8,0.9,0.9c0.2,0,0.4,0.1,0.3,0.4c-0.1,0.3-0.1,0.6-0.2,0.9c0,0.5-0.2,0.9,0.1,1.4c0,0.1,0,0.2,0,0.3
						c-0.2,0.1-0.1,0.3,0,0.4c0.4,0.4,0.1,0.7-0.2,1c0,0.1-0.1,0.1-0.1,0.2c0.1,0,0.2,0,0.3,0c0.2,0,0.6,0.3,0.7-0.3
						c0.2-0.4,0.2-0.9,0-1.3c0.1-0.4,0.1-0.7,0-1.1c0.1-0.2,0.2-0.3-0.1-0.5c0-0.1,0-0.1,0-0.2c0.1-0.2,0-0.4-0.1-0.6
						c-0.2-0.3-0.2-0.7,0.1-0.9c0.2-0.1,0.2-0.3,0.3-0.5c0.1-0.4,0-0.8,0.1-1.2c0.2-0.8,0.3-1.5,0.1-2.3c-0.1-0.4-0.3-0.6-0.7-0.5
						c-0.2,0-0.5,0-0.7-0.2c0-0.4,0-0.7,0-1.1c0.6-0.1,0.9,0,1.2,0.6c0.1,0.2,0.1,0.5,0.3,0.5c0.5,0.1,0.4,0.5,0.4,0.8
						c0,0.4,0,0.8,0,1.1c0,0.7,0,0.7,0.6,0.4c0.1,0,0.1,0,0.2-0.1c0.2-0.1,0.3-0.1,0.4,0.2c0,0.3,0.2,0.6,0.2,0.8
						c0,0.3,0.2,0.5,0.5,0.6c0.3,0.1,0.6,0.5,0.8,0.4c0.5-0.2,0.5,0.2,0.6,0.4c0.1-0.1,0.1-0.2,0.2-0.2c0.2-0.5,0.3-1.1,0.3-1.7
						c0-0.3,0.1-0.6,0.1-0.9c0.1,0.1,0.2,0.2,0.2,0.4c0,0.5,0.2,0.9,0.5,1.3c0.2,0.4,0.5,0.6-0.1,0.8c0,0,0,0.1,0,0.1
						c0,0.2,0.1,0.2,0.3,0.2c0.3,0,0.6,0,0.8,0c0.2,0.2,0.4,0.3,0.7,0.3c0.3,0,0.5,0,0.8-0.1c0,0.2,0,0.4,0.3,0.4
						c0.2,0,0.2-0.1,0.2-0.3c0-0.3-0.1-0.3-0.3-0.3c-0.4-0.1-0.8-0.2-1.2-0.3c-0.4,0-0.6-0.3-0.5-0.8c0-0.2,0.3-0.4,0.2-0.7
						c0-0.1,0-0.2,0.1-0.2c0.1,0,0.2,0.1,0.2,0.2c0,0.2,0.1,0.5,0.1,0.7c0,0.2,0.2,0.3,0.4,0.3c0.2,0,0.6-0.2,0.6-0.3
						c-0.1-0.4,0.2-0.7,0.2-1.1c0.1-0.5,0.2-1.2,0.5-1.5c0.6-0.5,0.6-1.4,1.3-1.8c0,0,0-0.1,0-0.2c0-0.1,0-0.2,0.1-0.2
						c0.1,0,0.1,0.1,0.2,0.2c0.2,0.7,0.5,1.3,0.4,2.1c0,0.5,0.2,1,0.3,1.5c0.1,0.4,0.5,0.5,0.8,0.3c0.1-0.1,0.2,0,0.4,0
						c0.8,0,1.1-0.2,0.9-1c-0.1-0.2,0-0.4,0-0.5c0.1-0.1,0.1-0.2,0.1-0.3c0-0.4-0.1-0.7-0.1-1.1c0-0.4-0.1-0.7-0.3-1
						C128.4,86.4,128.3,86.2,128.3,85.9z M81.3,93.8C81.3,93.8,81.3,93.8,81.3,93.8C81.3,93.8,81.3,93.8,81.3,93.8
						C81.3,93.8,81.3,93.8,81.3,93.8c0-0.1,0-0.2-0.2-0.2l0,0c0-0.5-0.2-0.6-0.6-0.6c-0.6,0-1.1,0-1.7,0.1c-0.2,0-0.5,0.1-0.7,0.3
						c-0.1,0.1-0.2,0.2-0.1,0.3c0,0.2,0.2,0.1,0.3,0.1c0.5,0,0.9-0.1,1.4-0.1c0.5,0,0.9-0.2,1.4,0C81.1,93.8,81.2,93.8,81.3,93.8z
						 M117.7,96.9c0-0.3,0.2-0.5,0.4-0.7c0.3-0.3,0.6-0.7,0.8-1.1c0.4-0.7,0.7-1.4,1.5-1.8c0.1,0,0.1-0.1,0.1-0.2
						c0-0.1,0.1-0.2,0-0.2c-0.1-0.1-0.2,0-0.2,0c-0.3,0.2-0.6,0.4-0.8,0.7c-0.3,0.4-0.4,1-0.8,1.3c-0.4,0.4-0.7,1-1,1.5
						C117.6,96.5,117.5,96.7,117.7,96.9z M85.9,93c-0.3,0.1-0.7,0.2-1,0.3c-0.1,0.1-0.2,0.2-0.2,0.3c0,0.1,0.1,0.1,0.2,0.1
						c0.7-0.2,1.5-0.1,2.3-0.2c0.1,0,0.3,0,0.3-0.2c0-0.1-0.1-0.3-0.4-0.3C86.7,93,86.3,93.2,85.9,93z M127.6,91.6
						c0.4,0,0.7-0.1,1.1-0.1c0.3,0,0.4-0.1,0.2-0.5c-0.2-0.3-0.3-0.1-0.5,0c-0.4,0.2-0.9,0.2-1.3,0c-0.2-0.1-0.3,0-0.4,0.1
						c-0.1,0.1,0,0.3,0.1,0.4C127.1,91.6,127.4,91.6,127.6,91.6z M132.7,91.7c-0.4-0.3-2.4-0.4-3-0.1c0.2,0.3,0.4,0.3,0.7,0.2
						c0.5-0.1,1-0.1,1.6-0.1C132.1,91.8,132.4,91.9,132.7,91.7z M83.3,90.1c-0.1,0-0.1,0-0.2,0c-0.3,0-0.4,0.2-0.4,0.5
						c0,0.3,0.3,0.2,0.4,0.2c0.1,0,0.2,0,0.3-0.1c0.2-0.1,0.5-0.1,0.4-0.4C83.7,90.2,83.6,90,83.3,90.1z M117.3,94
						c0,0.3-0.1,0.6,0.3,0.6c0.3,0,0.4-0.3,0.4-0.6c0-0.3-0.2-0.5-0.5-0.5C117.2,93.6,117.4,93.9,117.3,94z M75.6,92.3
						C75.6,92.3,75.6,92.3,75.6,92.3c0.3,0,0.5,0,0.8,0c0.1,0,0.3,0,0.3-0.2c0-0.2-0.2-0.2-0.4-0.2c-0.3,0.1-0.6,0.1-1,0.1
						c-0.2,0-0.5,0-0.7,0c-0.1,0-0.2,0-0.2,0.1c0,0.1,0.1,0.2,0.2,0.2C75,92.3,75.3,92.3,75.6,92.3z"/>
					<path class="st23" d="M84.4,86.3c0,0.4-0.1,0.8-0.2,1.2c-0.2,0.6-0.2,1.2-0.3,1.8c0,0.3,0,0.6-0.4,0.7c-0.3,0-0.6-0.3-0.6-0.8
						c0-0.8-0.4-1.4-0.6-2.2c-0.7-0.3-0.3-1-0.4-1.5c0-0.3,0-0.6,0-1c-0.1,0.5-0.2,0.9-0.2,1.4c0,1.3,0,2.5-0.2,3.8
						c0,0.3-0.2,0.5-0.2,0.8c0,0-0.2,0.5-0.4,0.1c-0.2-0.3-0.4,0-0.7-0.1c0,0.5,0.4,0.3,0.6,0.3c-0.5,0.3-0.6,0.3-0.9-0.1
						c0-0.1-0.1-0.2-0.2-0.1c-0.3,0.3-0.7,0-1,0c-0.5,0-0.6-0.4-0.6-0.8c0-0.2,0-0.4,0-0.6c0-0.1,0-0.2-0.1-0.2
						c-0.1,0-0.1,0.1-0.1,0.2c0,0.3,0,0.6-0.1,0.9c-0.2-0.8,0.2-1.6,0.1-2.5c-0.2,0.3-0.3,0.5-0.3,0.8c-0.1,0.6-0.3,1.2-0.4,1.8
						c0,0.1,0,0.2-0.2,0.2c-0.6,0-1.1,0.3-1.7,0.3c-0.3,0-0.5,0.1-0.5-0.4c-0.1-0.5-0.1-1.1,0-1.6c0-0.2-0.1-0.3-0.2-0.3
						c-0.2,0-0.1,0.1-0.2,0.2c-0.2,0.3-0.3,0.6-0.2,1c0,0.5,0,0.9-0.2,1.4c-0.1,0.2,0,0.5,0,0.7c0,0.2,0,0.4-0.3,0.4
						c-1.2,0.1-2.3,0.2-3.5,0.2c-0.6,0-1.2-0.1-1.8,0c-0.1,0-0.2,0-0.3-0.1c-0.1,0-0.2-0.1-0.2-0.2c0-0.1,0.1-0.1,0.2-0.1
						c0.5-0.2,1-0.2,1.5-0.1c0.1,0.1,0.3,0.1,0.4,0c0.4-0.4,1-0.2,1.4-0.2c0.5,0,1-0.1,1.5,0c0.1,0,0.2,0,0.2-0.1
						c0-0.1-0.1-0.1-0.2-0.1c-0.3-0.1-0.5-0.1-0.8,0c-0.5,0.1-0.9,0.1-1.3-0.2c-0.1-0.1-0.2,0-0.3,0c-0.4,0.1-0.6-0.2-0.6-0.6
						c0-0.5-0.1-1,0.1-1.5c0-0.1,0-0.3-0.1-0.3c-0.1,0-0.2,0.1-0.2,0.2c0,0.2-0.1,0.3-0.1,0.5c0.2,0.5,0,1-0.2,1.5
						c-0.1,0.4-0.5,0.3-0.8,0.3c-0.5,0-0.6-0.1-0.6-0.7c0-0.4-0.1-0.8,0.2-1.2c0.1-0.2,0.1-0.4-0.1-0.5c-0.2,0.2-0.3,0.5-0.7,0.6
						c-0.1,0-0.2,0.2-0.1,0.3c0.2,0.4,0,0.7,0.1,1.1c0,0.3-0.1,0.5-0.4,0.6c0.1,0,0.1,0,0.2,0c0.1,0.1,0.3,0.1,0.3,0.3
						c0,0.2-0.2,0.1-0.4,0.1c-1.8,0.1-3.5,0.1-5.3,0.1c-0.5,0-1,0.1-1.5,0.1c-0.5,0-0.9,0.8-0.6,1.4c0.1,0.2,0.1,0.3,0.1,0.5
						c0,0.3,0.2,0.6,0.5,0.6c0.4,0,0.7,0,1.1,0c1.3-0.2,2.7-0.1,4-0.1c0.7,0,1.4,0.1,2.1-0.1c0.2-0.1,0.3-0.1,0.4,0.2
						c0.1,0.2,0.2,0.3,0.5,0.3c0.2-0.1,0.5-0.1,0.7,0.1c0.1,0.1,0.2,0.1,0.2,0.1c0.7-0.1,1.2,0.5,2,0.4c0.7-0.1,1.4,0,2.1,0
						c0,0,0.1,0,0.1,0.1c-0.6,0.2-1.3,0.1-1.9,0.1c-0.6,0-1.3,0.1-1.9-0.2c-0.3-0.1-0.7,0-1.1,0c-0.3,0-0.5-0.1-0.7-0.3
						c-0.2-0.2-0.4-0.3-0.7-0.3c-1.4,0-2.8,0-4.1,0c-0.9,0-1.8,0-2.8,0.1c-0.3,0-0.5-0.1-0.6-0.3c-0.3-1-0.3-2-0.1-3
						c0.1,0.3,0.5,0.4,0.7,0.3c0.7-0.2,1.4-0.1,2.1-0.1c1.3,0,2.6-0.1,3.9-0.1c0.2,0,0.4,0,0.5-0.3c0,0,0,0,0,0c0,0,0,0,0,0
						c-0.6-0.1-1.2-0.2-1.8-0.1c-0.7,0.1-1.5-0.1-2.2,0.1c-0.7,0.2-1.4-0.1-2.2,0c-0.1,0-0.1,0-0.2,0c-0.2-0.4-0.6-0.2-0.9-0.3
						c-0.1-0.6,0-1.2,0.4-1.7c0.1-0.2,0.3-0.3,0.5-0.2c1,0,2,0,3,0.1c1.3,0.1,2.7,0,4-0.1c0.1,0,0.2,0,0.2,0
						c0.5-0.6,1.3-0.4,1.9-0.6c1.3-0.4,2.7-0.2,4-0.3c0.7,0,0.9-0.2,1.1-0.8c0.1-0.4,0.4-0.6,0.8-0.6c0.6,0,1.2,0,1.8,0
						c0.6,0,0.7-0.1,0.8-0.7c0.1-1.2,0.3-2.4,0.3-3.5c0-0.4,0.1-0.8,0.2-1.1c0.2-0.5,0.5-0.7,1-0.7c0.6,0,1.1-0.1,1.7,0.3
						c0.6,0.4,0.8,1.1,1,1.8C82,83.4,82,84.2,82,85c0,0.5,0.2,0.7,0.6,1C83.1,86.4,83.7,86.5,84.4,86.3z M78.9,87.1c0,0-0.1,0-0.1,0
						c-0.1,0-0.2-0.3-0.3,0c-0.1,0.1,0.1,0.2,0.3,0.2c0.3,0,0.6,0.2,1,0.1c0.3-0.1,0.7,0.2,1.2,0.2c0.4-0.1,0.4-0.2,0.4-0.4
						c-0.1-0.5,0.1-1.1,0-1.6c0-0.2,0-0.4-0.1-0.6c-0.1-0.5-0.3-1-0.3-1.5c0,0-0.1-0.1-0.1-0.1c-0.5-0.1-1-0.3-1.5-0.4
						c-0.2,0-0.4-0.1-0.4,0.3c0,0.4-0.1,0.8-0.1,1.2C78.8,85.3,78.5,86.2,78.9,87.1z M73.6,89.6c-0.1,0-0.2,0.1-0.3,0.1
						c-0.6,0-1.2-0.1-1.8,0.1c-0.1,0-0.2,0-0.1-0.1c0-0.2-0.1-0.2-0.2-0.2c-0.2,0.1-0.4,0-0.7,0c-0.2,0-0.4,0.1-0.5,0.3
						c-0.2,0.2-0.1,0.4,0.2,0.5c0.3,0.1,0.5,0.3,0.6-0.1c0,0,0.1,0,0.1,0c0.1,0.1,0.4-0.3,0.5,0.2c0,0,0,0,0,0
						c0.3-0.2,0.6,0.1,0.9,0.2c0.3,0.1,0.6,0,0.9,0C73.6,90.4,73.6,90,73.6,89.6z M76.7,89.4c0.1-0.6,0-0.6-0.5-0.6
						c-0.2,0-0.5,0.2-0.7,0.1c-0.2-0.1-0.4-0.1-0.6,0c-0.2,0.1-0.2,0.3-0.1,0.5c0.1,0.1,0.1,0.3,0.1,0.4c0,0.3,0.2,0.4,0.4,0.3
						c0.3-0.1,0.6-0.1,0.9-0.1C76.7,90,76.8,89.8,76.7,89.4z M83.7,88.4c0-0.2,0-0.3-0.2-0.4c-0.1-0.1-0.2,0-0.2,0
						c-0.2,0.2-0.4,0.8-0.2,1.1c0.1,0.1,0.1,0.2,0.2,0.1c0.1,0,0.3,0,0.3-0.1C83.5,88.8,83.8,88.6,83.7,88.4z M78.6,81.9
						c0.3-0.2,0.4-0.4,0.3-0.6C78.8,81.4,78.5,81.5,78.6,81.9z M73.1,91.4C73.1,91.4,73.1,91.4,73.1,91.4
						C73,91.4,73.1,91.4,73.1,91.4C73.1,91.4,73.1,91.4,73.1,91.4z M79,90.4L79,90.4L79,90.4L79,90.4z"/>
					<path class="st23" d="M123,92.8c-0.3,0-0.5-0.1-0.7-0.3c0.2-0.3-0.1-0.3-0.2-0.3c-0.3,0-0.6,0-0.9,0.1c0,0,0-0.1,0-0.1
						c0.6-0.2,0.3-0.5,0.1-0.8c-0.2-0.4-0.4-0.8-0.5-1.3c0-0.1-0.1-0.3-0.2-0.4c0,0.3-0.1,0.6-0.1,0.9c0,0.6-0.1,1.1-0.3,1.7
						c0,0.1-0.1,0.1-0.2,0.2c-0.2-0.2-0.1-0.7-0.6-0.4c-0.2,0.1-0.5-0.3-0.8-0.4c-0.3-0.1-0.5-0.3-0.5-0.6c0-0.3-0.2-0.6-0.2-0.8
						c0-0.3-0.2-0.3-0.4-0.2c-0.1,0-0.1,0-0.2,0.1c-0.6,0.2-0.6,0.2-0.6-0.4c0-0.4,0-0.8,0-1.1c0-0.3,0.1-0.7-0.4-0.8
						c-0.2,0-0.2-0.4-0.3-0.5c-0.3-0.6-0.6-0.7-1.2-0.6c0-1.8,0.2-3.6,0.3-5.4c0-0.3,0-0.6,0.1-0.8c0.1-0.6,0.3-0.8,0.9-0.8
						c0.5,0,1.1,0,1.6,0c0.3,0,0.6,0.1,0.7,0.4c-0.3-0.1-0.5,0-0.5,0.3c0,0.1-0.1,0.2-0.2,0.2c-0.3-0.1-0.4,0.1-0.5,0.3
						c-0.1,0.1-0.2,0.2-0.4,0.2c-0.2,0-0.4-0.2-0.6,0.1c-0.1,0.1-0.2-0.1-0.2-0.2c0.1-0.5-0.3-0.5-0.6-0.8c-0.1,1.4,0,2.7,0.3,3.9
						c0.1-0.3,0-0.6,0.1-0.9c0-0.5,0.1-0.9,0.6-1.2c0.1-0.1,0.4,0,0.2-0.3c-0.1-0.1,0.1-0.3,0.2-0.4c0.2-0.1,0.1,0.2,0.1,0.2
						c0.2,0.3,0.3,0.7,0.5,1c0.4,0.5,0.4,1,0.1,1.6c-0.1,0.3-0.4,0.6,0,0.9c0.1,0,0.1,0.2,0.1,0.3c0.2,0.5,0.5,1,1.2,1.1
						c0.3,0.4,0.6,0.7,1,0.9c0.3,0.5,0.7,0.9,1.3,0.8c0.3-0.1,1.2-0.9,1.3-1.3c0-0.1,0-0.1,0-0.2c-0.1-0.7-0.1-1.5,0.2-2.2
						c0.1-0.2,0.1-0.4,0.1-0.6c0.1-1.1-0.2-2.1,0.2-3.2c0.2-0.4,0-1-0.1-1.6c-0.2,0.7-0.1,1.3-0.3,1.9c-0.4-0.4-0.3-0.9-0.3-1.3
						c0-0.4-0.2-0.5-0.6-0.3c-0.1,0.1-0.2,0.2-0.3,0.3c-0.2,0.6-0.4,1.1-0.6,1.7c0-1.3,0.4-2.4,1.6-3.1c0.8-0.4,2.1-0.1,2.4,0.6
						c0.1,0.1,0.1,0.3,0.1,0.4c-0.2-0.1-0.1-0.3-0.4-0.4c-0.1,0.2-0.2,0.4-0.1,0.5c0.3,0.5,0,0.8-0.1,1.2c0,0.1,0,0.1,0,0.2
						c0.2,0.3,0.3,0.7,0.4,1.1c0.1,0.6,0.2,1.1,0.3,1.7c0,0.2,0,0.4,0.2,0.5c0.2,0.4,0.2,0.8,0.4,1.2c0.2,0.2,0.3,0.4,0.6,0.4
						c0.7,0,1.3,0.1,2-0.1c0,0.3,0,0.5,0.2,0.8c0.2,0.3,0.3,0.6,0.3,1c0,0.4,0.1,0.7,0.1,1.1c0,0.1,0,0.2-0.1,0.3
						c-0.2-0.2-0.1-0.6-0.2-0.8c-0.1-0.3-0.2-0.4-0.5-0.3c-0.2,0.1-0.4,0.2-0.6,0.2c-0.3-0.1-0.4,0.1-0.5,0.3c-0.2,0.3,0,0.5,0,0.7
						c0,0.1-0.1,0.4,0.2,0.3c0.1,0,0.3,0.2,0.5,0.1c0.2-0.2,0.4-0.1,0.6,0c0.1,0.1,0.3,0.1,0.5,0.1c0.2,0.9-0.1,1.1-0.9,1
						c-0.1,0-0.2-0.1-0.4,0c-0.3,0.2-0.7,0.1-0.8-0.3c-0.1-0.5-0.3-1-0.3-1.5c0-0.7-0.2-1.4-0.4-2.1c0-0.1,0-0.2-0.2-0.2
						c-0.1,0-0.1,0.1-0.1,0.2c0,0.1,0,0.2,0,0.2c-0.7,0.4-0.6,1.3-1.3,1.8c-0.4,0.3-0.4,1-0.5,1.5c-0.1,0.4-0.3,0.7-0.2,1.1
						c0,0.1-0.3,0.3-0.6,0.3c-0.2,0-0.3-0.1-0.4-0.3c0-0.2-0.1-0.5-0.1-0.7c0-0.1-0.1-0.2-0.2-0.2c-0.1,0-0.1,0.1-0.1,0.2
						c0,0.3-0.2,0.4-0.2,0.7c-0.1,0.4,0.1,0.7,0.5,0.8c0.4,0,0.8,0.2,1.2,0.3c0.2,0,0.3,0,0.3,0.3c0,0.2-0.1,0.3-0.2,0.3
						c-0.3,0-0.2-0.2-0.3-0.4c-0.1-0.2-0.7-0.3-0.9-0.1C122.9,92.7,122.9,92.8,123,92.8z M118,88.1c0,0.6-0.5,1.1-0.6,1.7
						c0.6-0.2,1.1-0.6,1.4-1.2c0.1-0.2,0.2-0.4-0.1-0.6C118.5,87.9,118.3,87.8,118,88.1c-0.1-0.2,0-0.4-0.2-0.4
						c-0.3,0-0.6-0.1-0.9,0.1c-0.1,0.1-0.1,0.2,0,0.2C117.4,88,117.7,88.2,118,88.1z M119,91.2c0.3-0.1,0.6-0.2,0.8-0.1
						c0,0,0.1,0,0.1,0c0-0.4,0.4-0.7,0.2-1.1c-0.1-0.2-0.1-0.3-0.1-0.5c0-0.3-0.3-0.6-0.6-0.4c-0.4,0.2-0.9,0.3-1.2,0.8
						c-0.1,0.2-0.1,0.4,0,0.6c0.1,0.2,0.2,0.3,0.4,0.2c0.2,0,0.4,0,0.5,0.2C119.3,91,119,91,119,91.2z M124.4,82.8
						c-0.1-0.2-0.1-0.5-0.2-0.8c-0.1-0.2-0.3-0.2-0.5-0.2c-0.5,0-0.5,0-0.5,0.5c0,0.4,0,0.8,0,1.2c0,0.2-0.1,0.4,0.1,0.4
						c0.3,0,0.6,0.2,0.9-0.1C124.6,83.5,124.3,83.1,124.4,82.8z M122.8,90c0,0.2,0.1,0.3,0.1,0.5c0,0.2,0.1,0.4,0.3,0.4
						c0.2,0,0.4-0.2,0.4-0.4c0.1-0.4,0.2-0.7,0.3-1.1c0-0.1,0.1-0.1,0-0.2c-0.1-0.1-0.8-0.3-1-0.2c-0.1,0.1-0.2,0.2-0.2,0.3
						C123,89.5,122.9,89.7,122.8,90z M122.2,90.5c0-0.3,0-0.6-0.1-0.9c-0.1-0.3-0.3-0.3-0.5-0.4c-0.2-0.1-0.2,0.2-0.3,0.3
						c-0.3,0.3-0.1,0.7-0.1,1c0.1,0.3-0.1,0.9,0.6,0.5c0,0,0.1,0,0.1,0c0.2,0,0.2-0.1,0.2-0.2C122.2,90.7,122.2,90.6,122.2,90.5z
						 M116.7,83c-0.5,0-0.7,0.2-0.7,0.6c0,0.5,0.5,0.2,0.8,0.3c0.2,0.1,0.4,0,0.4-0.3C117,83.4,117.3,82.9,116.7,83z M124.2,80.3
						c0.1-0.3,0-0.6-0.3-0.8c-0.1-0.1-0.3-0.2-0.4-0.1c-0.2,0.2-0.2,0.4-0.1,0.6c0.1,0.2,0.2,0.2,0.3,0.2
						C123.8,80.2,124,80.2,124.2,80.3z M116.5,80.4c0.2,0,0.3,0,0.3-0.2c0-0.3-0.2-0.1-0.3-0.1c-0.1,0-0.3-0.1-0.4,0.1
						C116.1,80.4,116.3,80.5,116.5,80.4z M122.7,90.1c0-0.2,0.1-0.4-0.1-0.5c0,0-0.1,0-0.1,0.1C122.4,89.8,122.4,90,122.7,90.1z
						 M124.1,86.1c-0.2-0.1-0.3-0.2-0.4,0c0,0,0,0.1,0,0.1C123.9,86.3,124,86.2,124.1,86.1z M122.7,90.3
						C122.6,90.3,122.6,90.3,122.7,90.3C122.6,90.4,122.6,90.4,122.7,90.3C122.6,90.4,122.7,90.4,122.7,90.3
						C122.7,90.4,122.7,90.3,122.7,90.3z"/>
					<path class="st23" d="M106.9,86.2c-0.3-0.2-0.2-0.6-0.1-0.8c0.2-1.1-0.1-2-0.7-2.8c0-0.1-0.1-0.2-0.2-0.2
						c-0.1,0-0.1,0.1-0.1,0.2c-0.1,0.2-0.1,0.5-0.1,0.7c0,0.6,0,1.1-0.1,1.7c-0.1,0.3,0,0.5,0.1,0.8c-0.2,0-0.5-0.3-0.7,0.1
						c-0.1,0-0.3,0-0.2-0.2c0.1-0.4,0-0.8-0.1-1.2c-0.2-0.6-0.2-1.2-0.4-1.8c0,0,0-0.1,0-0.1c-0.1-0.3-0.2-0.8-0.5-0.8
						c-0.3,0-0.8,0.1-1.1,0.4c-0.1,0.1-0.2,0.2,0,0.3c0.1,0,0.2,0.2,0.3,0.2c1.2,0.1,0.9,1,1.1,1.7c0.2,0.9,0.2,1.9,0.6,2.7
						c0,0.1,0.1,0.2,0,0.2c-0.1,0.1-0.3,0.1-0.4,0c-0.2-0.4-0.5-0.5-0.9-0.4c-0.9,0.1-1.7,0.1-2.6,0.1c-0.1,0-0.2-0.1-0.2-0.2
						c0-0.8-0.2-1.6-0.2-2.4c-0.2,0-0.1,0.1-0.1,0.2c-0.1,0.7-0.2,1.4-0.2,2.1c0,0.1,0,0.1-0.1,0.2c-0.2,0-0.3-0.1-0.5-0.1
						c-0.3,0-0.6,0-0.6,0.4c-0.2,0.1-0.3,0.2-0.4,0.4c-0.1,0.3-0.4,0.5-0.7,0.7c-0.1,0.1-0.3,0.1-0.4,0c-0.1-0.1-0.1-0.2-0.1-0.4
						c0.2-0.4,0.5-0.8,1-1c0.2-0.1,0.3-0.1,0.5-0.2c0.2-0.1,0.3-0.3,0.2-0.4c-0.4-0.5-0.3-1-0.2-1.5c0.1-0.7,0.1-1.5-0.4-2.2
						c0.3,0,0.5,0.2,0.8,0.2c0.7,0,1.1-0.5,1.2-1.1c0-0.3,0.1-0.7,0.1-1c0.1-0.7,0.2-0.7,0.9-0.7c0.5,0,0.9,0,1.4-0.1
						c0.7-0.1,0.9,0.2,1,0.7c0.1,0.4,0.1,0.8,0.5,1.1c0.4,0.3,0.9,0.3,1.4-0.2c0.4-0.3,0.8-0.5,1.3-0.2c0.2,0.1,0.3,0.2,0.4,0.4
						c0.4,1,0.6,2,1,3.1c0,0.1,0,0.1,0,0.2c-0.1,0-0.2,0-0.2,0c-0.2,0-0.4-0.2-0.5-0.3c-0.3-0.1-0.4-0.1-0.4,0.3
						C107,85.2,106.9,85.7,106.9,86.2z M101.6,83c-0.4,0.1-0.4,0.7-0.9,0.6c0,0-0.1,0.1-0.1,0.1c-0.1,0.4-0.1,0.7-0.1,1.1
						c0,0.2,0,0.6,0.5,0.4c0.1,0,0.2,0,0.2,0c0.2,0.2,0.3,0.1,0.4-0.1c0,0,0.1-0.2,0.1-0.1c0.3,0.2,0.6,0.2,0.9,0.4
						c0.2,0.1,0.9,0.2,1.1,0.1c0.1,0,0.1-0.1,0.1-0.2c0-0.1-0.1-0.1-0.2-0.1c-0.6-0.2-1.2-0.4-1.6-1c-0.1-0.2-0.2-0.4-0.4-0.6
						C101.5,83.5,101.3,83.3,101.6,83z M99.6,84.8c-0.1-0.1,0.1-0.6-0.3-0.6c-0.5,0-0.3,0.4-0.3,0.6c0,0,0,0,0,0
						c0,0.2-0.1,0.5,0.2,0.4C99.6,85.3,99.8,85.2,99.6,84.8z M105.3,83.9c0.1-0.1,0-0.3,0-0.4c0-0.1-0.1-0.2-0.2-0.2
						c-0.4,0.1-0.2,0.4-0.2,0.6c0,0.2,0,0.5,0.3,0.5c0.1,0,0.3-0.1,0.3-0.2C105.4,84,105.4,84,105.3,83.9z"/>
					<path class="st23" d="M112.1,91.8c-0.1-0.3,0-0.6,0-0.9c0-0.2-0.1-0.5-0.2-0.7c-0.1-0.1-0.2-0.3-0.3-0.3
						c-0.2,0-0.1,0.2-0.2,0.4c-0.1,0.3-0.1,0.7-0.1,1c-0.7,0-1.4,0.2-2.1,0.1c0,0-0.1,0.1-0.1,0.1c-0.2,0.1-0.3-0.1-0.3-0.2
						c0-0.2,0.3-0.2,0.5-0.2c0-0.2-0.3-0.4-0.2-0.6c0-0.1-0.1-0.1-0.1-0.1c-0.1,0-0.1,0-0.1,0.1c0,0.1,0,0.3-0.1,0.4
						c0-0.2-0.1-0.3-0.3-0.4c0,0-0.1,0-0.1-0.1c-0.1-0.7-0.8-1.1-0.9-1.8c0-0.2-0.2-0.4,0.2-0.6c0.1,0,0-0.3-0.1-0.4
						c0-0.1-0.1-0.2-0.2-0.1c-0.1,0.1-0.1,0.2,0,0.3c0,0.1,0,0.1,0,0.2c-0.3-0.3-0.6-0.7-0.7-1.1c0-0.2,0-0.4,0.2-0.5
						c0.3-0.1,0.2-0.2,0.2-0.4c0.2-0.1,0.3-0.3,0.6-0.2c0.1,0,0.2-0.1,0.3-0.2c0.2-0.2,0-0.6,0.3-0.8c0.1,0.1,0.1,0.3,0.2,0.4
						c0.1,0.9,0,1.8,0.1,2.8c0,0.3,0.1,0.5,0.4,0.7c0.2-1,0.2-2-0.2-3c0.9,0.4,1.8,0.4,2.7,0c0.5-0.2,1-0.1,1.5,0.1c0,0,0,0.1,0,0.2
						c0.6,1.7,0.6,3.4,0.6,5.2c0,0.2,0,0.4,0.1,0.7c0.1,0.5-0.2,0.7-0.5,0.9c-0.3,0.1-0.5,0-0.6-0.3c0.1-0.1,0.3-0.1,0.5-0.1
						c0.3,0,0.4-0.3,0.4-0.5c0.1-0.3,0-0.6-0.1-0.8c-0.1-0.2-0.6,0-0.8,0.2C112.3,91.6,112.3,91.8,112.1,91.8z M109.3,89.4
						c0,0,0,0.1,0,0.3c0,0.1,0,0.3,0.1,0.2c0.5-0.1,1.1,0.2,1.6-0.1c0.4-0.2,0.5-1.5,0.1-1.8c0,0-0.1,0-0.2,0
						c-0.5,0.1-0.9-0.1-1.3-0.2c-0.2,0-0.2,0-0.3,0.2C109.2,88.4,109.3,88.8,109.3,89.4z M112.8,89.1c0.1-0.6-0.5-0.7-0.7-0.9
						c-0.1-0.1-0.3-0.2-0.5-0.1c-0.2,0.1,0.1,0.3,0.1,0.4c0,0.1,0,0.2,0,0.3c0,0.4,0.1,0.7,0.3,1c0,0.1,0,0.2,0.2,0.2
						c0.2-0.1,0.5-0.2,0.7-0.3C112.9,89.5,112.8,89.2,112.8,89.1z"/>
					<path class="st23" d="M86.4,90.6c0,0.3-0.4,0.5-0.9,0.5c-0.4,0-0.4-0.2-0.4-0.5c0-0.3,0.1-0.5,0.4-0.3c0,0,0,0,0,0c0,0,0,0,0,0
						c-0.6-0.3-0.5-1-0.7-1.5c0-0.1,0-0.2,0.1-0.2c0,0,0,0,0,0l0,0c0-0.1-0.1-0.3-0.1-0.4c0-1.2-0.2-2.3-0.1-3.5
						c0-0.3,0.1-0.6,0.1-0.9c0-0.2,0-0.3-0.3-0.3c0-0.8,0.4-1.2,1.2-1.2c0.5,0,0.9,0,1.4,0c0.6,0,0.8,0.2,0.9,0.9
						c0,0.5,0.1,0.9,0.1,1.4c0,1.1,0.2,2.2,0.1,3.2c-0.2-0.1-0.1-0.3-0.1-0.4c0-0.5,0-0.9-0.1-1.4c-0.2,0.5-0.1,0.9-0.1,1.4
						c0,0.5,0,1,0,1.4c0,0.2,0,0.3-0.3,0.3l0,0c0-0.1-0.1-0.2-0.1-0.2c0.1-0.2,0.1-0.5-0.2-0.4c-0.3,0-0.5,0-0.5,0.4
						c0,0.6-0.2,1.1-0.5,1.6C86,90.6,86.3,90.5,86.4,90.6L86.4,90.6z M86.3,84.8c-0.1-0.2,0-0.5-0.3-0.5c-0.4,0-0.5,0.3-0.4,0.6
						c0,0.1,0.1,0.3,0.1,0.4c-0.4,0.6,0.2,1,0,1.5c0.2,0,0.2-0.1,0.2-0.1c0.1-0.1-0.1-0.3,0.1-0.3c0.2,0,0.3,0,0.5,0
						c0.1,0.1,0.1,0.4,0.3,0.2c0.2-0.1-0.1-0.3,0-0.5c0-0.1,0-0.1,0-0.2c0.3,0,0.1,0.4,0.4,0.5c0.1-0.1,0.2-0.3,0.1-0.4
						C87,85.8,87,85.3,86.9,85C86.7,84.6,86.6,84.7,86.3,84.8z"/>
					<path class="st23" d="M98.3,82.5c-0.2,0-0.2,0.2-0.2,0.4c0,0.4,0.1,0.7-0.1,1.1c-0.3-0.1-0.5,0-0.6,0.3
						c-0.1,0.2-0.1,0.5-0.1,0.7c0,0.5,0.1,0.5,0.5,0.4c0.1,0.4-0.3,0.6-0.4,0.9c0,0.1-0.2,0-0.3-0.1c-0.2-0.2-0.2-0.5-0.3-0.8
						c-0.1,0.4-0.2,0.7-0.2,1.1c0,0.3-0.1,0.4-0.5,0.3c-0.4-0.1-0.4,0.2-0.5,0.5c-0.1,0.5-0.1,1-0.2,1.5c0,0.2,0,0.5-0.2,0.7
						c0-0.2,0-0.4,0-0.6c0-0.4-0.3-0.6-0.7-0.4c-0.1,0.1-0.2,0-0.4,0c-0.4-0.2-0.9,0.1-0.9,0.6c0,0.1,0,0.3,0,0.4
						c0.1,0.3-0.1,0.6,0.1,0.8c0.2,0.1,0.5,0,0.8,0c0.6,0,0.8,0,1.2-0.4c0.2,0.3-0.1,0.6-0.1,0.9c0,0.3-0.1,0.7,0,1
						c-0.6,0-1.3,0.1-1.9,0.1c0-1-0.5-2-0.2-3.1c-0.4,0.2-0.1,0.7-0.4,0.8c0.1-0.3-0.1-0.6-0.1-0.8c0-0.2,0-0.5-0.3-0.6
						c-0.4-0.1-0.6,0.1-0.7,0.5c-0.1,0.3-0.1,0.6,0,0.9c0,0.1,0,0.2-0.1,0.1c-0.2-0.5-0.1-0.9,0.1-1.4c0.1-0.4,0-0.7,0-1.2
						c-0.2,0.3-0.4,0.5-0.4,0.8c0,0.3,0,0.6-0.2,0.8c0-0.7,0.1-1.3,0.3-1.9c0.1-0.4,0.4-0.5,0.7-0.5c0.4,0,0.8,0,1.2,0.1
						c0.7,0.2,1.4,0.2,2.1,0c0.6-0.1,0.7-0.7,0.7-1.1c-0.1-1,0.5-1.8,0.8-2.6C96.9,81.8,97.9,81.9,98.3,82.5z"/>
					<path class="st23" d="M133.1,94.3c-0.2-0.2-0.2-0.5-0.1-0.6c0.1-0.4,0-0.8,0.2-1.3c0.1-0.2,0.1-0.4,0.1-0.7
						c-0.1-0.9-0.1-1.7-0.4-2.7c-0.2,0.7-1,0.5-1.2,1.1c0,0.1-0.1,0.1-0.2,0c-0.1-0.1,0-0.1,0-0.2c0.1-0.1,0.2-0.2,0.3-0.3
						c-0.2-0.1-0.4-0.2-0.6-0.3c0.1,0.6-0.3,0.9-1.1,1l0,0c0-0.5-0.3-0.9-0.3-1.4c-0.1-1.1-0.3-2.1-0.5-3.2c-0.1-0.4,0-0.9-0.6-0.9
						c0.1-0.3,0.3-0.4,0.6-0.4c0.8,0,1.5,0,2.3,0c0.3,0,0.5,0.1,0.6,0.4c0.3,0.5,0.5,1.1,0.5,1.7c-0.3-0.2-0.3-0.2-0.6-0.1
						c0.3,0.2,0.5,0.7,0.4,1.1c-0.1,0.3,0.1,0.7,0.1,1c0.6,0,0.4,0.5,0.5,0.9c0.1,0.6,0.1,1.2,0.2,1.8c0.1,0.4,0.1,0.9-0.1,1.3
						c-0.1,0.4-0.2,0.8-0.2,1.3c0,0,0,0,0,0.1c0,0,0,0,0,0c0,0,0,0.1,0.1,0.1C133.2,94.1,133.2,94.2,133.1,94.3z"/>
					<path class="st24" d="M120.8,81.5c0.2-0.6,0.4-1.1,0.6-1.7c0.1-0.1,0.1-0.3,0.3-0.3c0.3-0.2,0.5-0.1,0.6,0.3
						c0,0.4-0.1,0.9,0.3,1.3c0.3-0.6,0.1-1.2,0.3-1.9c0.2,0.6,0.3,1.2,0.1,1.6c-0.4,1.1-0.1,2.1-0.2,3.2c0,0.2,0,0.4-0.1,0.6
						c-0.3,0.7-0.3,1.5-0.2,2.2c0,0.1,0,0.1,0,0.2c-0.1,0.3-1,1.2-1.3,1.3c-0.7,0.1-1-0.3-1.3-0.8c0.5,0.2,0.5,0.2,0.5-0.4
						c0.1-1.2,0-2.4,0.2-3.6C120.7,82.9,120.6,82.2,120.8,81.5z"/>
					<path class="st24" d="M118.8,86.6c-0.6-0.1-0.9-0.6-1.2-1.1c0-0.1,0-0.2-0.1-0.3c-0.5-0.3-0.2-0.7,0-0.9c0.3-0.6,0.3-1-0.1-1.6
						c-0.2-0.3-0.2-0.7-0.5-1c-0.1-0.1,0.1-0.3-0.1-0.2c-0.1,0-0.3,0.2-0.2,0.4c0.2,0.3,0,0.2-0.2,0.3c-0.5,0.2-0.5,0.7-0.6,1.2
						c0,0.3,0,0.6-0.1,0.9c-0.3-1.3-0.4-2.6-0.3-3.9c0.3,0.2,0.7,0.3,0.6,0.8c0,0.1,0.1,0.2,0.2,0.2c0.2-0.2,0.4-0.1,0.6-0.1
						c0.2,0,0.3-0.1,0.4-0.2c0.1-0.2,0.2-0.4,0.5-0.3c0.1,0,0.2-0.1,0.2-0.2c0-0.4,0.2-0.4,0.5-0.3c0,0,0,0.1,0,0.1
						c-0.1,0.1-0.1,0.1,0,0.2c0.2,1,0.2,2.1,0.2,3.2C118.8,84.5,118.8,85.6,118.8,86.6z"/>
					<path class="st23" d="M115,95.4c-0.3-0.4-0.1-0.9-0.1-1.4c0-0.3,0.1-0.6,0.2-0.9c0.1-0.3,0-0.4-0.3-0.4c0-1.2-0.1-2.4-0.1-3.7
						c0-0.4,0.1-0.9,0.2-1.3c0.2,0.2,0.4,0.2,0.7,0.2c0.4,0,0.6,0.2,0.7,0.5c0.1,0.8,0.1,1.5-0.1,2.3c-0.1,0.4,0,0.8-0.1,1.2
						c0,0.2-0.1,0.4-0.3,0.5c-0.3,0.3-0.3,0.6-0.1,0.9c0.1,0.2,0.2,0.4,0.1,0.6c-0.3-0.1-0.6,0-0.6,0.4C115,94.7,115,95,115,95.4z"
						/>
					<path class="st24" d="M66.5,91.3c-0.1,0.3-0.3,0.3-0.5,0.3c-1.3,0-2.6,0.1-3.9,0.1c-0.7,0-1.4-0.1-2.1,0.1
						c-0.2,0.1-0.6,0-0.7-0.3c0-0.2,0-0.3,0-0.5c0.3,0.1,0.7-0.1,0.9,0.3c0,0,0.1,0,0.2,0c0.7-0.1,1.4,0.2,2.2,0
						c0.7-0.2,1.5,0,2.2-0.1C65.3,91.1,65.9,91.2,66.5,91.3L66.5,91.3z"/>
					<path class="st24" d="M133.2,93.8c0-0.4,0.1-0.8,0.2-1.3c0.1-0.4,0.1-0.9,0.1-1.3c-0.1-0.6-0.1-1.2-0.2-1.8
						c0-0.3,0.1-0.8-0.5-0.9c0-0.3-0.2-0.6-0.1-1c0.1-0.4-0.1-0.9-0.4-1.1c0.2-0.1,0.2-0.1,0.6,0.1c0.2,1,0.8,2,0.8,3
						c0,0.6,0.2,1.1,0.2,1.7c0,0.8-0.2,1.7-0.4,2.5C133.3,93.8,133.2,93.8,133.2,93.8z"/>
					<path class="st24" d="M125.3,84.5c-0.2-0.1-0.2-0.3-0.2-0.5c-0.1-0.6-0.1-1.2-0.3-1.7c-0.1-0.4-0.2-0.8-0.4-1.1
						c-0.1-0.1,0-0.1,0-0.2c0.1-0.4,0.4-0.8,0.1-1.2c-0.1-0.1-0.1-0.3,0.1-0.5c0.2,0,0.2,0.3,0.4,0.4
						C125,81.1,125.2,82.8,125.3,84.5z"/>
					<path class="st23" d="M90.5,91.3c0,0.1,0,0.2-0.1,0.3c-0.5,0.4-0.6,1-0.5,1.6c0,0.2,0,0.5-0.2,0.7c-0.1,0.1-0.2,0.1-0.3,0.1
						c-0.1,0-0.1-0.2-0.1-0.3c-0.1-0.8-0.2-1.5-0.9-2.1c-0.2-0.2-0.2-0.5-0.2-0.7c0-0.2,0-0.5,0.1-0.7c0.1,0.1,0.1,0.3,0.1,0.5
						c0,0.6,0.2,0.9,0.8,1.1c0.4,0.1,0.8-0.1,1.1-0.4C90.4,91.4,90.4,91.3,90.5,91.3z"/>
					<path class="st24" d="M108.5,86c0.3,1,0.3,2,0.2,3c-0.2-0.2-0.3-0.4-0.4-0.7c-0.2-0.9,0-1.8-0.1-2.8c0-0.2,0-0.3-0.2-0.4
						c0-0.1,0-0.2,0-0.3c0.1,0,0.2,0,0.2,0C108.2,85.2,108.2,85.6,108.5,86z"/>
					<path class="st23" d="M73.6,95.3c0.1-0.1,0.3-0.3,0.5-0.2c0.2,0.1,0.3,0.4,0.1,0.6C74,95.6,73.8,95.5,73.6,95.3z"/>
					<path class="st23" d="M77.4,96.7c0-0.4,0.1-0.8,0.1-1.2c0,0.4,0.2,0.8,0,1.2C77.5,96.7,77.4,96.7,77.4,96.7z"/>
					<path class="st23" d="M128.4,96c0.2,0.1,0.3,0.2,0.2,0.4C128.5,96.4,128.4,96.2,128.4,96z"/>
					<path class="st23" d="M118.5,80.4c-0.1,0-0.1-0.1,0-0.2C118.5,80.2,118.6,80.3,118.5,80.4z"/>
					<path class="st23" d="M133,94.9c-0.1-0.1,0-0.1,0-0.2C133.1,94.8,133.1,94.8,133,94.9z"/>
					<path class="st23" d="M74.4,96.6C74.4,96.6,74.5,96.6,74.4,96.6C74.4,96.7,74.4,96.6,74.4,96.6z"/>
					<path class="st24" d="M133.2,94c0,0,0-0.1-0.1-0.1C133.2,93.9,133.2,93.9,133.2,94z"/>
					<path class="st25" d="M95.3,89.7c-0.4,0.4-0.5,0.4-1.2,0.4c-0.3,0-0.6,0.1-0.8,0c-0.2-0.1,0-0.5-0.1-0.8c0-0.1,0-0.3,0-0.4
						c0-0.4,0.5-0.8,0.9-0.6c0.1,0.1,0.2,0.1,0.4,0c0.4-0.1,0.6,0,0.7,0.4c0,0.2,0,0.4,0,0.6C95.3,89.5,95.3,89.6,95.3,89.7z"/>
					<path class="st25" d="M128.9,89.6c-0.2,0-0.3,0-0.5-0.1c-0.2-0.1-0.4-0.2-0.6,0c-0.1,0.1-0.4-0.1-0.5-0.1
						c-0.4,0.1-0.2-0.2-0.2-0.3c-0.1-0.2-0.2-0.4,0-0.7c0.1-0.2,0.2-0.4,0.5-0.3c0.2,0.1,0.4-0.1,0.6-0.2c0.3-0.1,0.4,0.1,0.5,0.3
						c0.1,0.3-0.1,0.6,0.2,0.8C128.8,89.3,128.8,89.4,128.9,89.6z"/>
					<path class="st25" d="M91.5,89.5c0.1,0,0.2,0,0.1-0.1c-0.1-0.3,0-0.6,0-0.9c0.1-0.4,0.3-0.6,0.7-0.5c0.3,0.1,0.3,0.3,0.3,0.6
						c0,0.3,0.2,0.6,0.1,0.8c0,0.1,0,0.2,0,0.3c-0.2,0.1-0.2,0.2,0,0.4c0,0,0,0.1,0,0.1c-0.2,0.1-0.4,0-0.6-0.1
						C91.8,90,91.6,89.8,91.5,89.5C91.4,89.6,91.5,89.5,91.5,89.5z"/>
					<path class="st23" d="M117.7,96.9c-0.2-0.2-0.1-0.4,0-0.5c0.3-0.5,0.6-1,1-1.5c0.4-0.4,0.5-0.9,0.8-1.3
						c0.2-0.3,0.5-0.5,0.8-0.7c0.1,0,0.2-0.1,0.2,0c0,0,0,0.2,0,0.2c0,0.1-0.1,0.2-0.1,0.2c-0.8,0.4-1.1,1.1-1.5,1.8
						c-0.2,0.4-0.5,0.8-0.8,1.1C118,96.3,117.8,96.5,117.7,96.9z"/>
					<path class="st23" d="M91.4,89.6c0.2,0.2,0.3,0.4,0.6,0.5c0.2,0.1,0.4,0.1,0.6,0.1c0.1,0.4,0,0.8-0.2,1.1c0,0,0,0.1-0.1,0.1
						c-0.3,0.1-0.9-0.3-0.9-0.6C91.4,90.4,91.4,90,91.4,89.6z"/>
					<path class="st25" d="M108,84.8c0,0.1,0,0.2,0,0.3c-0.2,0.2-0.1,0.5-0.3,0.8c-0.1,0.1-0.1,0.2-0.3,0.2
						c-0.3-0.1-0.4,0.1-0.6,0.2c0,0,0,0,0-0.1c0-0.5,0.1-1,0.1-1.4c0-0.4,0.2-0.4,0.4-0.3C107.6,84.6,107.7,84.8,108,84.8z"/>
					<path class="st25" d="M100.6,86.9c0.9,0,1.7,0,2.6-0.1c0.4,0,0.7,0.1,0.9,0.4c-1,0-2.1,0-3.1,0
						C100.9,87.2,100.6,87.2,100.6,86.9z"/>
					<path class="st25" d="M112.1,91.8c0.2-0.1,0.1-0.2,0.2-0.4c0.1-0.2,0.7-0.4,0.8-0.2c0.1,0.2,0.2,0.5,0.1,0.8
						c-0.1,0.2-0.2,0.5-0.4,0.5c-0.2,0-0.3,0.1-0.5,0.1C112.1,92.4,112.1,92.1,112.1,91.8z"/>
					<path class="st23" d="M85.9,93c0.4,0.2,0.9,0,1.3,0c0.2,0,0.3,0.2,0.4,0.3c0.1,0.2-0.2,0.2-0.3,0.2c-0.8,0.1-1.5-0.1-2.3,0.2
						c-0.1,0-0.2,0.1-0.2-0.1c0-0.1,0-0.3,0.2-0.3C85.2,93.2,85.6,93.1,85.9,93z"/>
					<path class="st25" d="M115,95.4c0-0.3,0-0.6,0-0.9c0-0.4,0.3-0.5,0.6-0.4c0,0.1,0,0.1,0,0.2c0,0.2-0.1,0.3,0.1,0.5
						c0.1,0.4,0.1,0.7,0,1.1c-0.2,0.1-0.4,0.4-0.5-0.1c0-0.1-0.1,0.1-0.2,0.1C115,95.6,115,95.5,115,95.4z"/>
					<path class="st25" d="M93.3,91.7c0.6,0,1.3-0.1,1.9-0.1c0,0,0,0.1,0.1,0.1c0,0,0,0.1,0,0.1C95.1,92,94.8,92,94.5,92
						c-0.5,0-1,0-1.5,0.3c-0.2,0.1-0.4,0-0.6,0c0.2-0.3,0.6-0.2,0.7-0.6C93.2,91.7,93.3,91.7,93.3,91.7z"/>
					<path class="st23" d="M127.6,91.6c-0.2-0.1-0.5,0-0.8-0.2c-0.2-0.1-0.2-0.2-0.1-0.4c0.1-0.1,0.2-0.2,0.4-0.1
						c0.4,0.2,0.9,0.2,1.3,0c0.1-0.1,0.3-0.2,0.5,0c0.2,0.3,0.1,0.4-0.2,0.5C128.3,91.6,128,91.6,127.6,91.6z"/>
					<path class="st23" d="M78.3,93.7c-0.1,0-0.3,0.1-0.3-0.1c0-0.1,0-0.2,0.1-0.3c0.2-0.2,0.4-0.2,0.7-0.3c0.6-0.1,1.1-0.1,1.7-0.1
						c0.4,0,0.6,0.1,0.6,0.6c-0.2,0-0.3-0.2-0.5-0.2c-0.6-0.1-1.2,0-1.9,0C78.5,93.4,78.3,93.4,78.3,93.7z"/>
					<path class="st23" d="M132.7,91.7c-0.3,0.1-0.5,0.1-0.8,0.1c-0.5,0-1,0-1.6,0.1c-0.3,0.1-0.5,0-0.7-0.2
						C130.2,91.4,132.2,91.4,132.7,91.7z"/>
					<path class="st23" d="M115,95.7c0.1,0,0.1-0.2,0.2-0.1c0.1,0.4,0.3,0.2,0.5,0.1c0.1,0.4,0.2,0.9,0,1.3
						c-0.3-0.1-0.6-0.3-0.7,0.3c-0.1,0-0.2,0-0.3,0c0-0.1,0-0.1,0.1-0.2c0.3-0.3,0.6-0.6,0.2-1C115,96,114.8,95.8,115,95.7z"/>
					<path class="st25" d="M78.3,93.7c0-0.3,0.2-0.4,0.4-0.4c0.6,0,1.2-0.1,1.9,0c0.2,0,0.3,0.2,0.5,0.2c0,0,0,0,0,0
						c0,0,0,0.1,0,0.1c-0.5-0.2-0.9,0-1.4,0C79.2,93.7,78.7,93.7,78.3,93.7z"/>
					<path class="st25" d="M97.9,85.4c-0.5,0.1-0.5,0-0.5-0.4c0-0.2,0-0.5,0.1-0.7c0.1-0.3,0.3-0.4,0.6-0.3
						C98,84.4,98.1,84.9,97.9,85.4z"/>
					<path class="st25" d="M109.1,91.6C109.1,91.6,109.1,91.5,109.1,91.6c0.8,0,1.5-0.2,2.2-0.2c0,0,0,0.1,0,0.1c0,0,0,0,0,0
						C110.5,91.8,109.8,92,109.1,91.6z"/>
					<path class="st23" d="M83.3,90.1c0.3-0.2,0.4,0,0.5,0.2c0.1,0.3-0.2,0.3-0.4,0.4c-0.1,0-0.2,0.1-0.3,0.1
						c-0.2,0-0.4,0.1-0.4-0.2c0-0.3,0.1-0.5,0.4-0.5C83.1,90.1,83.2,90.1,83.3,90.1z"/>
					<path class="st23" d="M117.3,94c0.1-0.1-0.1-0.4,0.2-0.4c0.3,0,0.5,0.2,0.5,0.5c0,0.3-0.2,0.6-0.4,0.6
						C117.3,94.6,117.4,94.3,117.3,94z"/>
					<path class="st25" d="M75.6,92.3c-0.3,0-0.6,0-0.9,0c-0.1,0-0.2,0-0.2-0.2c0-0.1,0.1-0.1,0.2-0.1c0.2,0,0.5,0,0.7,0
						c0.3,0,0.6,0,1-0.1c0.1,0,0.3,0,0.4,0.2c0,0.2-0.2,0.2-0.3,0.2C76.1,92.2,75.8,92.2,75.6,92.3C75.6,92.3,75.6,92.3,75.6,92.3z"
						/>
					<path class="st25" d="M98.8,87.1c0-0.4,0.3-0.4,0.6-0.4c0.2,0,0.3,0,0.5,0.1c0,0.3-0.2,0.4-0.4,0.4
						C99.2,87.1,99,87.1,98.8,87.1z"/>
					<path class="st25" d="M121.1,92.4c0.3-0.1,0.6-0.1,0.9-0.1c0.1,0,0.4,0,0.2,0.3c-0.3,0-0.6,0.1-0.8,0
						C121.2,92.6,121.1,92.6,121.1,92.4z"/>
					<path class="st25" d="M115,97.3c0-0.6,0.4-0.4,0.7-0.3C115.6,97.5,115.3,97.3,115,97.3z"/>
					<path class="st25" d="M123,92.8c0-0.1-0.1-0.2-0.1-0.2c0.1-0.2,0.7-0.1,0.9,0.1C123.5,92.8,123.2,92.8,123,92.8z"/>
					<path class="st23" d="M93.2,91.7c-0.1,0.4-0.5,0.3-0.7,0.6c0,0.1-0.1,0.1-0.1,0c-0.1-0.1,0-0.2,0.1-0.2
						C92.6,92,92.9,91.8,93.2,91.7z"/>
					<path class="st25" d="M105,85.8c0.1-0.4,0.4-0.1,0.7-0.1c0,0,0,0,0,0c0,0.1,0,0.1,0,0.2C105.4,85.8,105.2,85.8,105,85.8z"/>
					<path class="st23" d="M105.7,85.8c0-0.1,0-0.1,0-0.2c0.2,0,0.2,0.2,0.4,0.4C105.9,86,105.7,86,105.7,85.8z"/>
					<path class="st23" d="M115.7,94.6c-0.2-0.1-0.1-0.3-0.1-0.5C115.9,94.3,115.8,94.5,115.7,94.6z"/>
					<path class="st23" d="M92.6,90.1c-0.2-0.1-0.2-0.3,0-0.4C92.7,89.8,92.8,89.9,92.6,90.1z"/>
					<path class="st23" d="M111.3,91.5C111.3,91.5,111.3,91.5,111.3,91.5c0.1-0.1,0.1-0.1,0.2,0c0,0,0,0,0,0
						C111.4,91.6,111.3,91.6,111.3,91.5z"/>
					<path class="st23" d="M81.1,93.7c0,0,0-0.1,0-0.1c0.1,0,0.2,0.1,0.2,0.2l0,0C81.2,93.8,81.1,93.8,81.1,93.7z"/>
					<path class="st23" d="M95.3,91.8C95.3,91.8,95.3,91.8,95.3,91.8c0-0.1,0.1-0.1,0.1,0C95.4,91.8,95.3,91.8,95.3,91.8z"/>
					<path class="st23" d="M81.3,93.8C81.3,93.8,81.3,93.8,81.3,93.8C81.3,93.8,81.3,93.8,81.3,93.8C81.3,93.8,81.3,93.8,81.3,93.8
						C81.3,93.8,81.3,93.8,81.3,93.8z"/>
					<path class="st23" d="M87.5,89C87.5,89,87.5,89,87.5,89C87.5,89,87.5,89,87.5,89C87.5,89,87.5,89,87.5,89z"/>
					<path class="st23" d="M130.1,90.4C130.1,90.4,130.1,90.4,130.1,90.4C130.1,90.4,130.1,90.4,130.1,90.4
						C130.1,90.4,130.1,90.4,130.1,90.4z"/>
					<path class="st23" d="M86.4,90.6C86.4,90.6,86.4,90.6,86.4,90.6C86.4,90.5,86.4,90.6,86.4,90.6C86.4,90.6,86.4,90.6,86.4,90.6
						C86.4,90.6,86.4,90.6,86.4,90.6z"/>
					<path class="st25" d="M78.9,87.1c-0.4-0.9-0.1-1.8-0.1-2.7c0-0.4,0.1-0.8,0.1-1.2c0-0.4,0.2-0.3,0.4-0.3c0.5,0.1,1,0.3,1.5,0.4
						c0.1,0,0.1,0,0.1,0.1c0.1,0.5,0.2,1,0.3,1.5c0,0.2,0,0.4,0.1,0.6c0.1,0.6-0.1,1.1,0,1.6c0,0.2,0,0.4-0.4,0.4
						c-0.5,0.1-0.8-0.2-1.2-0.2c-0.4,0.1-0.6-0.1-1-0.1c-0.1,0-0.3-0.1-0.3-0.2c0.1-0.2,0.2,0.1,0.3,0
						C78.9,87.1,78.9,87.1,78.9,87.1z"/>
					<path class="st25" d="M73.6,89.6c0,0.4,0,0.9-0.4,1c-0.3,0-0.6,0.1-0.9,0c-0.3-0.1-0.5-0.3-0.9-0.2c0,0,0,0,0,0
						c0-0.4-0.3,0-0.5-0.2c0,0-0.1,0-0.1,0c-0.2,0.3-0.4,0.2-0.6,0.1c-0.3-0.1-0.4-0.3-0.2-0.5c0.1-0.2,0.3-0.3,0.5-0.3
						c0.2,0,0.4,0,0.7,0c0.1,0,0.2,0,0.2,0.2c0,0.1,0,0.2,0.1,0.1c0.6-0.2,1.2-0.1,1.8-0.1C73.3,89.6,73.4,89.6,73.6,89.6z"/>
					<path class="st25" d="M76.7,89.4c0.1,0.4-0.1,0.6-0.6,0.6c-0.3,0-0.6,0-0.9,0.1c-0.2,0.1-0.4,0-0.4-0.3c0-0.1,0-0.3-0.1-0.4
						c-0.1-0.2-0.1-0.4,0.1-0.5c0.2-0.1,0.4-0.1,0.6,0c0.2,0.1,0.5-0.1,0.7-0.1C76.8,88.8,76.8,88.8,76.7,89.4z M75.5,89.2
						C75.5,89.2,75.5,89.2,75.5,89.2C75.6,89.2,75.6,89.2,75.5,89.2C75.5,89.2,75.5,89.2,75.5,89.2C75.5,89.2,75.5,89.2,75.5,89.2z"
						/>
					<path class="st25" d="M83.7,88.4c0.1,0.3-0.3,0.4-0.2,0.7c0,0.1-0.2,0-0.3,0.1c-0.1,0.1-0.2,0-0.2-0.1c-0.1-0.3,0-0.9,0.2-1.1
						c0.1-0.1,0.2-0.1,0.2,0C83.7,88.1,83.7,88.2,83.7,88.4z"/>
					<path class="st25" d="M78.6,81.9c-0.1-0.4,0.2-0.5,0.3-0.6C79,81.5,78.8,81.7,78.6,81.9z"/>
					<path class="st24" d="M73.1,91.4C73.1,91.4,73.1,91.4,73.1,91.4C73.1,91.4,73,91.4,73.1,91.4C73.1,91.4,73.1,91.4,73.1,91.4z"
						/>
					<polygon class="st24" points="79,90.4 79,90.4 79,90.5 					"/>
					<path class="st24" d="M66.5,91.3C66.5,91.3,66.5,91.3,66.5,91.3C66.5,91.3,66.5,91.3,66.5,91.3C66.5,91.3,66.5,91.3,66.5,91.3z
						"/>
					<path class="st25" d="M119,91.2c0-0.2,0.3-0.2,0.2-0.4c-0.1-0.2-0.4-0.2-0.5-0.2c-0.2,0-0.3,0-0.4-0.2c-0.1-0.2-0.1-0.4,0-0.6
						c0.3-0.4,0.8-0.6,1.2-0.8c0.3-0.1,0.6,0.1,0.6,0.4c0,0.2,0,0.3,0.1,0.5c0.2,0.4-0.2,0.7-0.2,1.1c0,0-0.1,0-0.1,0
						C119.5,90.9,119.2,91.1,119,91.2z"/>
					<path class="st25" d="M124.4,82.8c-0.1,0.4,0.2,0.8-0.2,1.1c-0.3,0.3-0.6,0.1-0.9,0.1c-0.2,0-0.1-0.3-0.1-0.4
						c0-0.4,0-0.8,0-1.2c0-0.5,0-0.5,0.5-0.5c0.2,0,0.5,0,0.5,0.2C124.3,82.3,124.3,82.5,124.4,82.8z"/>
					<path class="st25" d="M122.8,90c0.1-0.3,0.1-0.5,0-0.8c0-0.1,0-0.2,0.2-0.3c0.2-0.1,0.9,0.1,1,0.2c0.1,0.1,0,0.1,0,0.2
						c-0.1,0.3-0.2,0.7-0.3,1.1c-0.1,0.2-0.2,0.4-0.4,0.4c-0.2,0-0.3-0.1-0.3-0.4C122.9,90.3,122.9,90.2,122.8,90z"/>
					<path class="st25" d="M122.2,90.5c0,0.1,0,0.2,0,0.4c0,0.1,0,0.2-0.2,0.2c0,0-0.1,0-0.1,0c-0.7,0.5-0.5-0.2-0.6-0.5
						c-0.1-0.3-0.2-0.7,0.1-1c0.1-0.1,0-0.4,0.3-0.3c0.2,0.1,0.4,0.1,0.5,0.4C122.2,89.9,122.3,90.2,122.2,90.5z"/>
					<path class="st24" d="M118,88c0.2-0.2,0.4-0.2,0.7,0c0.2,0.2,0.2,0.4,0.1,0.6c-0.3,0.6-0.7,0.9-1.4,1.2
						C117.5,89.2,118,88.8,118,88C118,88.1,118,88.1,118,88z"/>
					<path class="st25" d="M116.7,83c0.6-0.1,0.4,0.4,0.4,0.6c0.1,0.3-0.1,0.4-0.4,0.3c-0.3-0.1-0.7,0.2-0.8-0.3
						C116,83.2,116.2,83,116.7,83z"/>
					<path class="st25" d="M124.2,80.3c-0.2,0-0.4,0-0.6-0.1c-0.1,0-0.3,0-0.3-0.2c-0.1-0.3,0-0.5,0.1-0.6c0.1-0.1,0.3,0,0.4,0.1
						C124.2,79.6,124.2,79.9,124.2,80.3z"/>
					<path class="st25" d="M118,88C118,88.1,118,88.1,118,88c-0.4,0.2-0.7-0.1-1-0.1c-0.1,0-0.1-0.1,0-0.2c0.3-0.1,0.6-0.1,0.9-0.1
						C118.1,87.7,118,87.9,118,88z"/>
					<path class="st25" d="M116.5,80.4c-0.2,0-0.4,0-0.4-0.2c0-0.2,0.2-0.1,0.4-0.1c0.1,0,0.3-0.1,0.3,0.1
						C116.8,80.4,116.6,80.5,116.5,80.4z"/>
					<path class="st24" d="M122.7,90.1c-0.3-0.1-0.3-0.3-0.2-0.5c0-0.1,0.1-0.1,0.1-0.1C122.7,89.7,122.7,89.9,122.7,90.1z"/>
					<path class="st25" d="M124.1,86.1c-0.1,0.1-0.3,0.2-0.4,0.1c0,0,0-0.1,0-0.1C123.8,85.9,124,86,124.1,86.1z"/>
					<path class="st24" d="M122.7,90.3C122.7,90.3,122.7,90.4,122.7,90.3C122.7,90.4,122.6,90.4,122.7,90.3
						C122.6,90.4,122.6,90.4,122.7,90.3C122.6,90.3,122.6,90.3,122.7,90.3z"/>
					<path class="st25" d="M101.6,83c-0.3,0.3-0.1,0.5,0.1,0.7c0.2,0.1,0.3,0.4,0.4,0.6c0.4,0.5,1,0.8,1.6,1c0.1,0,0.2,0,0.2,0.1
						c0,0.1-0.1,0.1-0.1,0.2c-0.2,0.1-0.9,0-1.1-0.1c-0.3-0.2-0.6-0.2-0.9-0.4c-0.1,0-0.1,0.1-0.1,0.1c-0.1,0.1-0.2,0.2-0.4,0.1
						c-0.1-0.1-0.2-0.1-0.2,0c-0.4,0.2-0.4-0.2-0.5-0.4c-0.1-0.3,0-0.7,0.1-1.1c0-0.1,0.1-0.1,0.1-0.1C101.2,83.6,101.2,83,101.6,83
						z"/>
					<path class="st25" d="M99.6,84.8c0.1,0.4-0.1,0.5-0.3,0.6c-0.4,0-0.2-0.3-0.2-0.4c0,0,0,0,0,0c0-0.3-0.2-0.6,0.3-0.6
						C99.8,84.2,99.6,84.7,99.6,84.8z"/>
					<path class="st25" d="M105.3,83.9c0,0.1,0.1,0.2,0.1,0.2c0,0.2-0.1,0.3-0.3,0.2c-0.3-0.1-0.3-0.3-0.3-0.5
						c0-0.2-0.2-0.5,0.2-0.6c0.1,0,0.2,0,0.2,0.2C105.3,83.6,105.5,83.7,105.3,83.9z"/>
					<path class="st25" d="M109.3,89.4c0-0.5-0.1-0.9,0-1.3c0-0.2,0.1-0.3,0.3-0.2c0.4,0.1,0.9,0.3,1.3,0.2c0.1,0,0.1,0,0.2,0
						c0.4,0.3,0.3,1.5-0.1,1.8c-0.5,0.3-1.1,0-1.6,0.1c-0.1,0-0.2-0.1-0.1-0.2C109.3,89.5,109.3,89.4,109.3,89.4z"/>
					<path class="st25" d="M112.8,89.1c0,0.2,0.1,0.4-0.1,0.5c-0.2,0.1-0.4,0.2-0.7,0.3c-0.1,0-0.1-0.1-0.2-0.2
						c-0.2-0.3-0.3-0.6-0.3-1c0-0.1,0-0.2,0-0.3c0-0.2-0.3-0.3-0.1-0.4c0.2-0.1,0.4,0,0.5,0.1C112.3,88.4,112.9,88.5,112.8,89.1z"/>
					<path class="st25" d="M86.3,84.8c0.2-0.1,0.4-0.2,0.5,0.2c0.1,0.4,0.1,0.8,0.4,1.1c0.1,0.1,0,0.3-0.1,0.4
						C87,86.4,87.1,86,86.8,86c-0.1,0,0,0.1,0,0.2c0,0.2,0.2,0.4,0,0.5c-0.2,0.1-0.2-0.2-0.3-0.2c-0.1-0.1-0.3,0-0.5,0
						c-0.3-0.1,0,0.2-0.1,0.3c-0.1,0-0.1,0.1-0.2,0.1c0.2-0.5-0.5-1,0-1.5c0.1-0.1,0-0.2-0.1-0.4c-0.1-0.3,0-0.6,0.4-0.6
						C86.4,84.3,86.2,84.6,86.3,84.8z"/>
					<polygon class="st24" points="84.9,88.6 84.9,88.6 84.9,88.5 					"/>
					<path class="st24" d="M85.5,90.3C85.5,90.3,85.5,90.3,85.5,90.3C85.5,90.3,85.5,90.3,85.5,90.3C85.5,90.3,85.5,90.3,85.5,90.3z
						"/>
					<path class="st23" d="M75.5,89.2C75.5,89.2,75.5,89.2,75.5,89.2C75.5,89.2,75.5,89.2,75.5,89.2C75.6,89.2,75.6,89.2,75.5,89.2
						C75.5,89.2,75.5,89.2,75.5,89.2z"/>
				</g>
			</g>
		</g>
	</g>
</g>
<g>
	<g>
		<ellipse class="st0" cx="37.7" cy="79.6" rx="12.2" ry="3.7"/>
		<ellipse class="st1" cx="37.7" cy="79.6" rx="11.9" ry="3.6"/>
		<ellipse class="st2" cx="37.7" cy="79.6" rx="11.6" ry="3.4"/>
		<ellipse class="st3" cx="37.7" cy="79.6" rx="11.4" ry="3.3"/>
		<ellipse class="st4" cx="37.7" cy="79.6" rx="11.1" ry="3.1"/>
		<ellipse class="st5" cx="37.7" cy="79.6" rx="10.8" ry="3"/>
		<ellipse class="st6" cx="37.7" cy="79.6" rx="10.6" ry="2.8"/>
		<ellipse class="st7" cx="37.7" cy="79.6" rx="10.3" ry="2.7"/>
		<ellipse class="st8" cx="37.7" cy="79.6" rx="10" ry="2.5"/>
		<ellipse class="st9" cx="37.7" cy="79.6" rx="9.8" ry="2.4"/>
		<ellipse class="st10" cx="37.7" cy="79.6" rx="9.5" ry="2.2"/>
		<ellipse class="st11" cx="37.7" cy="79.6" rx="9.3" ry="2"/>
		<ellipse class="st12" cx="37.7" cy="79.6" rx="9" ry="1.9"/>
		<ellipse class="st13" cx="37.7" cy="79.6" rx="8.7" ry="1.7"/>
		<ellipse class="st14" cx="37.7" cy="79.6" rx="8.5" ry="1.6"/>
		<ellipse class="st15" cx="37.7" cy="79.6" rx="8.2" ry="1.4"/>
		<ellipse class="st16" cx="37.7" cy="79.6" rx="7.9" ry="1.3"/>
		<ellipse class="st17" cx="37.7" cy="79.6" rx="7.7" ry="1.1"/>
		<path class="st18" d="M45.1,79.6c0,0.5-3.3,1-7.4,1c-4.1,0-7.4-0.4-7.4-1c0-0.5,3.3-1,7.4-1C41.8,78.6,45.1,79.1,45.1,79.6z"/>
		<path class="st19" d="M44.8,79.6c0,0.5-3.2,0.8-7.1,0.8c-3.9,0-7.1-0.4-7.1-0.8c0-0.5,3.2-0.8,7.1-0.8
			C41.6,78.8,44.8,79.2,44.8,79.6z"/>
		<path class="st20" d="M44.6,79.6c0,0.4-3.1,0.7-6.9,0.7c-3.8,0-6.9-0.3-6.9-0.7c0-0.4,3.1-0.7,6.9-0.7
			C41.5,78.9,44.6,79.3,44.6,79.6z"/>
		<path class="st21" d="M44.3,79.6c0,0.3-3,0.5-6.6,0.5c-3.6,0-6.6-0.2-6.6-0.5c0-0.3,3-0.5,6.6-0.5C41.4,79.1,44.3,79.3,44.3,79.6z
			"/>
	</g>
	<g>
		<ellipse class="st0" cx="24.8" cy="84.8" rx="12.2" ry="3.7"/>
		<ellipse class="st1" cx="24.8" cy="84.8" rx="11.9" ry="3.6"/>
		<ellipse class="st2" cx="24.8" cy="84.8" rx="11.6" ry="3.4"/>
		<ellipse class="st3" cx="24.8" cy="84.8" rx="11.4" ry="3.3"/>
		<ellipse class="st4" cx="24.8" cy="84.8" rx="11.1" ry="3.1"/>
		<ellipse class="st5" cx="24.8" cy="84.8" rx="10.8" ry="3"/>
		<ellipse class="st6" cx="24.8" cy="84.8" rx="10.6" ry="2.8"/>
		<ellipse class="st7" cx="24.8" cy="84.8" rx="10.3" ry="2.7"/>
		<ellipse class="st8" cx="24.8" cy="84.8" rx="10" ry="2.5"/>
		<ellipse class="st9" cx="24.8" cy="84.8" rx="9.8" ry="2.4"/>
		<ellipse class="st10" cx="24.8" cy="84.8" rx="9.5" ry="2.2"/>
		<ellipse class="st11" cx="24.8" cy="84.8" rx="9.3" ry="2"/>
		<ellipse class="st12" cx="24.8" cy="84.8" rx="9" ry="1.9"/>
		<ellipse class="st13" cx="24.8" cy="84.8" rx="8.7" ry="1.7"/>
		<ellipse class="st14" cx="24.8" cy="84.8" rx="8.5" ry="1.6"/>
		<ellipse class="st15" cx="24.8" cy="84.8" rx="8.2" ry="1.4"/>
		<ellipse class="st16" cx="24.8" cy="84.8" rx="7.9" ry="1.3"/>
		<ellipse class="st17" cx="24.8" cy="84.8" rx="7.7" ry="1.1"/>
		<path class="st18" d="M32.2,84.8c0,0.5-3.3,1-7.4,1c-4.1,0-7.4-0.4-7.4-1c0-0.5,3.3-1,7.4-1C28.9,83.8,32.2,84.2,32.2,84.8z"/>
		<path class="st19" d="M32,84.8c0,0.5-3.2,0.8-7.1,0.8c-3.9,0-7.1-0.4-7.1-0.8c0-0.5,3.2-0.8,7.1-0.8C28.8,84,32,84.3,32,84.8z"/>
		<path class="st20" d="M31.7,84.8c0,0.4-3.1,0.7-6.9,0.7c-3.8,0-6.9-0.3-6.9-0.7c0-0.4,3.1-0.7,6.9-0.7
			C28.6,84.1,31.7,84.4,31.7,84.8z"/>
		<path class="st21" d="M31.4,84.8c0,0.3-3,0.5-6.6,0.5c-3.6,0-6.6-0.2-6.6-0.5c0-0.3,3-0.5,6.6-0.5C28.5,84.3,31.4,84.5,31.4,84.8z
			"/>
	</g>
	<g>
		<ellipse class="st0" cx="11" cy="89.9" rx="11" ry="3.7"/>
		<ellipse class="st1" cx="11" cy="89.9" rx="10.7" ry="3.6"/>
		<ellipse class="st2" cx="11" cy="89.9" rx="10.5" ry="3.4"/>
		<ellipse class="st3" cx="11" cy="89.9" rx="10.2" ry="3.3"/>
		<ellipse class="st4" cx="11" cy="89.9" rx="10" ry="3.1"/>
		<ellipse class="st5" cx="11" cy="89.9" rx="9.8" ry="3"/>
		<ellipse class="st6" cx="11" cy="89.9" rx="9.5" ry="2.8"/>
		<ellipse class="st7" cx="11" cy="89.9" rx="9.3" ry="2.7"/>
		<ellipse class="st8" cx="11" cy="89.9" rx="9" ry="2.5"/>
		<ellipse class="st9" cx="11" cy="89.9" rx="8.8" ry="2.4"/>
		<ellipse class="st10" cx="11" cy="89.9" rx="8.6" ry="2.2"/>
		<ellipse class="st11" cx="11" cy="89.9" rx="8.3" ry="2"/>
		<ellipse class="st12" cx="11" cy="89.9" rx="8.1" ry="1.9"/>
		<ellipse class="st13" cx="11" cy="89.9" rx="7.9" ry="1.7"/>
		<ellipse class="st14" cx="11" cy="89.9" rx="7.6" ry="1.6"/>
		<ellipse class="st15" cx="11" cy="89.9" rx="7.4" ry="1.4"/>
		<ellipse class="st16" cx="11" cy="89.9" rx="7.1" ry="1.3"/>
		<ellipse class="st17" cx="11" cy="89.9" rx="6.9" ry="1.1"/>
		<path class="st18" d="M17.6,89.9c0,0.5-3,1-6.7,1c-3.7,0-6.7-0.4-6.7-1c0-0.5,3-1,6.7-1C14.7,89,17.6,89.4,17.6,89.9z"/>
		<path class="st19" d="M17.4,89.9c0,0.5-2.9,0.8-6.4,0.8c-3.6,0-6.4-0.4-6.4-0.8c0-0.5,2.9-0.8,6.4-0.8
			C14.5,89.1,17.4,89.5,17.4,89.9z"/>
		<path class="st20" d="M17.2,89.9c0,0.4-2.8,0.7-6.2,0.7c-3.4,0-6.2-0.3-6.2-0.7c0-0.4,2.8-0.7,6.2-0.7
			C14.4,89.3,17.2,89.6,17.2,89.9z"/>
		<path class="st21" d="M16.9,89.9c0,0.3-2.7,0.5-6,0.5c-3.3,0-6-0.2-6-0.5c0-0.3,2.7-0.5,6-0.5C14.3,89.4,16.9,89.6,16.9,89.9z"/>
	</g>
	<g>
		<path class="st26" d="M48.8,77L48.8,77c-0.1-0.9-1.5-1.7-3.5-2.2C45.2,74.8,43,74,43,74s-3-0.8-3-4.7C40,65.5,40,0,40,0h-1.7H38
			h-1.7c0,0,0,65.5,0,69.3c0,3.9-3,4.7-3,4.7s-2.2,0.8-2.3,0.8c-2.1,0.6-3.4,1.3-3.5,2.2h0v0.1c0,0,0,0.1,0,0.1c0,0,0,0,0,0v1.5V79
			c2.3,2.4,4.7,2.2,6.6,1.1c1.2,0.2,2.6,0.2,4,0.2c1.4,0,2.8-0.1,4-0.2c1.9,1,4.3,1.3,6.6-1.1v-0.1v-1.5c0,0,0,0,0,0
			c0,0,0-0.1,0-0.1V77z"/>
		<path class="st23" d="M31.4,80.1c0,0,2.2-2.8,3-3.6c1.9-1.7,2.5-2.2,3-7.2V0h0.8v69.3c0,7.7,0.8,6.1,2.2,11.3
			C40.8,81.7,32.3,80.8,31.4,80.1z"/>
		
			<radialGradient id="SVGID_2_" cx="-10.5867" cy="42.8823" r="25.8082" gradientTransform="matrix(1.1057 0 0 1.1057 51.9547 -7.0963)" gradientUnits="userSpaceOnUse">
			<stop  offset="0" style="stop-color:#FFFFFF"/>
			<stop  offset="1" style="stop-color:#808080"/>
		</radialGradient>
		<path class="st27" d="M38.3,0v69.3c0,7.7,0.8,6.1,2.2,11.3h1.7c0,0-3.6-5.2-3.6-10.7S38.7,0,38.7,0H38.3z"/>
		
			<radialGradient id="SVGID_3_" cx="-12.4531" cy="78.4058" r="6.9474" gradientTransform="matrix(1.1057 0 0 1.1057 51.9547 -7.0963)" gradientUnits="userSpaceOnUse">
			<stop  offset="0" style="stop-color:#FFFFFF"/>
			<stop  offset="1" style="stop-color:#808080"/>
		</radialGradient>
		<path class="st28" d="M48.4,78c-0.3,0.3-0.8,0.7-1.5,1c-1.9,0.8-5.1,1.4-8.7,1.4s-6.8-0.5-8.7-1.4c-0.7-0.3-1.2-0.6-1.5-1
			c-0.2-0.3-0.4-0.5-0.4-0.8v1.7c0,0,0,0.1,0,0.1c0.2,1.7,4.9,3,10.6,3s10.3-1.3,10.6-3c0,0,0-0.1,0-0.1v-1.7
			C48.8,77.5,48.7,77.7,48.4,78z"/>
		
			<radialGradient id="SVGID_4_" cx="-12.4531" cy="75.1506" r="4.7509" gradientTransform="matrix(1.1057 0 0 1.1057 51.9547 -7.0963)" gradientUnits="userSpaceOnUse">
			<stop  offset="0" style="stop-color:#FFFFFF"/>
			<stop  offset="1" style="stop-color:#808080"/>
		</radialGradient>
		<path class="st29" d="M38.2,77.1c-3.9,0-7.2-0.9-7.3-2.1c0,0,0,0,0-0.1l0.2,0c0,0,0,0.1,0,0.1c0.2,1.1,3.4,2,7.2,2
			c3.8,0,7-0.9,7.2-2c0,0,0-0.1,0-0.1l0.2,0c0,0,0,0,0,0.1C45.3,76.2,42.1,77.1,38.2,77.1z"/>
	</g>
	<g>
		<path class="st26" d="M34.7,83.3L34.7,83.3c-0.1-0.8-1.3-1.5-3.2-2c0,0-2-0.7-2-0.7s-2.8-0.8-2.8-4.3s0-63,0-63h-1.5H25h-1.5
			c0,0,0,59.5,0,63s-2.8,4.3-2.8,4.3s-2,0.8-2,0.7c-1.9,0.5-3.1,1.2-3.2,2h0v0.1c0,0,0,0.1,0,0.1c0,0,0,0,0,0v1.4V85
			c2.1,2.2,4.2,2,6,1c1.1,0.1,2.4,0.2,3.6,0.2s2.5-0.1,3.6-0.2c1.7,0.9,3.9,1.2,6-1v-0.1v-1.4c0,0,0,0,0,0c0,0,0-0.1,0-0.1V83.3z"/>
		<path class="st23" d="M19,86c0,0,2-2.6,2.8-3.3c1.8-1.5,2.3-2,2.8-6.5v-63h0.8v63c0,7,0.8,5.5,2,10.3C27.5,87.5,19.7,86.7,19,86z"
			/>
		
			<radialGradient id="SVGID_5_" cx="-22.5768" cy="51.5355" r="23.462" gradientTransform="matrix(1.1057 0 0 1.1057 51.9547 -7.0963)" gradientUnits="userSpaceOnUse">
			<stop  offset="0" style="stop-color:#FFFFFF"/>
			<stop  offset="1" style="stop-color:#808080"/>
		</radialGradient>
		<path class="st30" d="M25.2,13.2v63c0,7,0.8,5.5,2,10.3h1.5c0,0-3.3-4.8-3.3-9.8c0-5,0.1-63.5,0.1-63.5H25.2z"/>
		
			<radialGradient id="SVGID_6_" cx="-24.2735" cy="83.8296" r="6.3158" gradientTransform="matrix(1.1057 0 0 1.1057 51.9547 -7.0963)" gradientUnits="userSpaceOnUse">
			<stop  offset="0" style="stop-color:#FFFFFF"/>
			<stop  offset="1" style="stop-color:#808080"/>
		</radialGradient>
		<path class="st31" d="M34.4,84.2c-0.3,0.3-0.7,0.6-1.4,0.9c-1.7,0.8-4.6,1.3-7.9,1.3s-6.2-0.5-7.9-1.3c-0.6-0.3-1.1-0.6-1.4-0.9
			c-0.2-0.2-0.3-0.5-0.3-0.8v1.5c0,0,0,0.1,0,0.1c0.2,1.5,4.4,2.8,9.6,2.8s9.4-1.2,9.6-2.8c0,0,0-0.1,0-0.1v-1.5
			C34.7,83.7,34.6,83.9,34.4,84.2z"/>
		
			<radialGradient id="SVGID_7_" cx="-24.2735" cy="80.8703" r="4.319" gradientTransform="matrix(1.1057 0 0 1.1057 51.9547 -7.0963)" gradientUnits="userSpaceOnUse">
			<stop  offset="0" style="stop-color:#FFFFFF"/>
			<stop  offset="1" style="stop-color:#808080"/>
		</radialGradient>
		<path class="st32" d="M25.1,83.3c-3.6,0-6.5-0.9-6.7-1.9c0,0,0,0,0-0.1l0.1,0c0,0,0,0.1,0,0.1c0.1,1,3.1,1.8,6.5,1.8
			s6.4-0.8,6.5-1.8c0,0,0-0.1,0-0.1l0.1,0c0,0,0,0,0,0.1C31.6,82.5,28.7,83.3,25.1,83.3z"/>
	</g>
	<g>
		<path class="st26" d="M19.9,87.7L19.9,87.7c-0.1-0.8-1.3-1.5-3.2-2c0,0-2-0.7-2-0.7s-2.8-0.8-2.8-4.3c0-3.5,0-58.9,0-58.9h-1.5
			h-0.3H8.6c0,0,0,55.4,0,58.9c0,3.5-2.8,4.3-2.8,4.3s-2,0.8-2,0.7c-1.9,0.5-3.1,1.2-3.2,2h0v0.1c0,0,0,0.1,0,0.1c0,0,0,0,0,0v1.4
			v0.1c2.1,2.2,4.2,2,6,1c1.1,0.1,2.4,0.2,3.6,0.2s2.5-0.1,3.6-0.2c1.7,0.9,3.9,1.2,6-1v-0.1v-1.4c0,0,0,0,0,0c0,0,0-0.1,0-0.1V87.7
			z"/>
		<path class="st23" d="M4.1,90.4c0,0,2-2.6,2.8-3.3c1.8-1.5,2.3-2,2.8-6.5V21.8h0.8v58.9c0,7,0.8,5.5,2,10.3
			C12.7,91.9,4.9,91.1,4.1,90.4z"/>
		
			<radialGradient id="SVGID_8_" cx="-36.0148" cy="57.3835" r="22.1439" gradientTransform="matrix(1.1057 0 0 1.1057 51.9547 -7.0963)" gradientUnits="userSpaceOnUse">
			<stop  offset="0" style="stop-color:#FFFFFF"/>
			<stop  offset="1" style="stop-color:#808080"/>
		</radialGradient>
		<path class="st33" d="M10.4,21.8v58.9c0,7,0.8,5.5,2,10.3h1.5c0,0-3.3-4.8-3.3-9.8c0-5,0.1-59.4,0.1-59.4H10.4z"/>
		
			<radialGradient id="SVGID_9_" cx="-37.7115" cy="87.8113" r="6.3158" gradientTransform="matrix(1.1057 0 0 1.1057 51.9547 -7.0963)" gradientUnits="userSpaceOnUse">
			<stop  offset="0" style="stop-color:#FFFFFF"/>
			<stop  offset="1" style="stop-color:#808080"/>
		</radialGradient>
		<path class="st34" d="M19.6,88.6c-0.3,0.3-0.7,0.6-1.4,0.9c-1.7,0.8-4.6,1.3-7.9,1.3s-6.2-0.5-7.9-1.3c-0.6-0.3-1.1-0.6-1.4-0.9
			c-0.2-0.2-0.3-0.5-0.3-0.8v1.5c0,0,0,0.1,0,0.1c0.2,1.5,4.4,2.8,9.6,2.8s9.4-1.2,9.6-2.8c0,0,0-0.1,0-0.1v-1.5
			C19.9,88.1,19.8,88.3,19.6,88.6z"/>
		
			<radialGradient id="SVGID_10_" cx="-37.7115" cy="84.852" r="4.319" gradientTransform="matrix(1.1057 0 0 1.1057 51.9547 -7.0963)" gradientUnits="userSpaceOnUse">
			<stop  offset="0" style="stop-color:#FFFFFF"/>
			<stop  offset="1" style="stop-color:#808080"/>
		</radialGradient>
		<path class="st35" d="M10.3,87.8c-3.6,0-6.5-0.9-6.7-1.9c0,0,0,0,0-0.1l0.1,0c0,0,0,0.1,0,0.1c0.1,1,3.1,1.8,6.5,1.8
			s6.4-0.8,6.5-1.8c0,0,0-0.1,0-0.1l0.1,0c0,0,0,0,0,0.1C16.8,86.9,13.8,87.8,10.3,87.8z"/>
	</g>
</g>
</svg>
