<?xml version="1.0" encoding="utf-8"?>
<!-- Generator: Adobe Illustrator 24.0.3, SVG Export Plug-In . SVG Version: 6.00 Build 0)  -->
<svg version="1.1" id="レイヤー_1" xmlns="http://www.w3.org/2000/svg" xmlns:xlink="http://www.w3.org/1999/xlink" x="0px"
	 y="0px" viewBox="0 0 191.8 138.1" style="enable-background:new 0 0 191.8 138.1;" xml:space="preserve">
<style type="text/css">
	.st0{fill:#97D1FF;}
	.st1{fill:#FFBBA1;}
	.st2{fill:#144075;}
	.st3{fill:#D1EBFF;}
	.st4{fill:#1770C7;}
	.st5{fill:#FFA483;}
	.st6{fill:#FFFFFF;}
	.st7{fill:#008937;}
	.st8{fill:#BDBEC1;}
	.st9{fill:#2C3352;}
	.st10{fill:#444B69;}
	.st11{fill:#A7A9B4;}
	.st12{fill:#7B7D83;}
	.st13{fill:#3B3C40;}
	.st14{fill:#D73D3D;}
	.st15{fill:#F75B6C;}
	.st16{fill:#8DE3FF;}
	.st17{fill:#BB3535;}
	.st18{opacity:0.3;fill:#FFFFFF;}
	.st19{fill:#A1204E;}
	.st20{opacity:0.4;}
	.st21{fill:#B8D8DE;}
	.st22{fill:#FFB745;}
	.st23{opacity:0.2;fill:#2C3352;}
	.st24{opacity:0.3;fill:#BB3535;}
</style>
<g>
	
		<rect x="157.4" y="43.3" transform="matrix(-1 -1.224647e-16 1.224647e-16 -1 322.063 102.6353)" class="st0" width="7.3" height="16"/>
	<path class="st1" d="M153.6,134.5c1.1-0.8,1.8-2.9,2.4-6.5c0.9-7.2-1.6-46.9-1-57.6c0.6-10.7,5.1-17.2,5.1-17.2s2.5,0,5.3,0
		c-0.1-0.1-0.1-0.2-0.1-0.2s0.8,0.1,2.1,0.2c0.2,0,0.4,0,0.6,0v0c1.5,0.1,3.4,0.1,5.4,0c9.8,6.8,7.8,24.4,7.8,24.4s-4,18.6-4.4,21.6
		c-0.5,3,1.2,6.6,1.9,11s-2.3,13.3-3.4,17.1c-1.1,3.8,0,5.2,0,5.2s-2.1,2.1-3.3,3.3c-1.1,1.1-6,0.2-6,0.2s1.1-0.8,2.3-1.6
		c1.1-0.8,1.8-2.9,2.4-6.5c0.8-6.1-2.1-36.5-2.7-52.3c-0.3,1-5.5,20.7-6,23.6c-0.5,3,1.2,6.6,1.9,11c0.7,4.4-2.3,13.3-3.4,17.1
		c-1.1,3.8,0,5.2,0,5.2s-2.1,2.1-3.3,3.3c-1.1,1.1-6,0.2-6,0.2S152.5,135.2,153.6,134.5z"/>
	<path class="st2" d="M173.5,53.1h-13.3c0,0-5.7,5.2-6.3,16.8s0.6,25,0.6,25c9.4,3.2,13.7,3,24.4,0.2c2.3-10.7,3.9-20.6,2.9-28.1
		C181,63.1,179,55.2,173.5,53.1z"/>
	<path class="st1" d="M134.7,50.3c-1.6,0.5-2.3,0.7-3.6,0.5c-1.3-0.2-2.4,0.5-3.1,0.9c-0.7,0.5-2,1.2-2,1.6c0,0.4,1.2,0.4,2.6-0.4
		c-0.7,1.6-1.2,1.8-2.3,2.3s-2.5,1.7-2.6,2.4c-0.1,0.6,1.1,0.5,2.1,0.4c1-0.1,2.9-0.1,3.8-0.8c0.9-0.7,1.9-2.8,3-3.2
		c1.1-0.4,2.4-0.4,2.4-0.4L134.7,50.3z"/>
	<path class="st3" d="M154.7,51.7c-0.7,1.2-1.9,2-3.2,2.3c-9,1.8-17.8,1.7-17.8,1.7s-1.6-3.3-0.4-6.9c4.8,0,14.4-1.6,14.4-1.6
		c2.7-5.6,5.9-17.9,8.4-20.1c2.5-2.2,4,11.6,3,14.6C158.2,44.8,155.8,49.8,154.7,51.7z"/>
	<path class="st2" d="M173.6,3.1c0,0,1.8,3,1.2,5.9c-0.5,2.9,1.7,2.9,0,6c-0.3,1.7,1.9,0.5,3.3,3.3c1.4,2.9-0.8,4.3,0.3,5.7
		c1.1,1.4,4.5,3.9,1.4,7.8s-8.4,0.8-9.3-1.6c-0.9-2.4-0.7-3.5,0-5.2c0.7-1.7,2.1-2.7,1-4.6c-1.1-1.9,0.5-4.1,0.5-4.1s0.2-1-1.4-0.1
		c-1.6,0.9-4,0.3-4,0.3L169.6,6L173.6,3.1z"/>
	<path class="st4" d="M154.3,38.4c0.3,2.3,1.5,4.6,3.1,7.4c0.2,0.4,0.4,0.9,0.7,1.3c1.2,2.7,2,6,2,6c2.4,1.3,5.6,1.3,9.3,0.8
		c1.3-0.2,2.6-0.5,4-0.8c0,0,4.5-12.8,6.5-25.6c-2.4-1.5-5-2.7-6.8-3.5c-1.2-0.5-2-0.8-2-0.8l-8.5,0.3c0,0-0.7,0.3-1.7,0.7
		c-1.4,0.7-3.4,1.7-4.7,2.7C155.5,31.9,154.4,34.5,154.3,38.4z"/>
	<path class="st2" d="M160.2,131.1c-1,0.4-2.6,4.2-4.1,4.4c-1.6,0.2-3.8-0.1-3.8-0.1s-2.9,0.3-3.5,2.4c0,0.1,0.1,0.2,0.2,0.2h7.4
		c0.5,0,0.9-0.2,1.2-0.6c0.6-0.8,1.6-2.2,2.2-2.5c0,1.6-0.1,3.2-0.1,3.2h0.9l0.7-4C161.2,134,162,131.5,160.2,131.1z"/>
	<path class="st2" d="M174.9,131.1c-1,0.4-2.6,4.2-4.1,4.4c-1.6,0.2-3.8-0.1-3.8-0.1s-2.9,0.3-3.5,2.4c0,0.1,0.1,0.2,0.2,0.2h7.4
		c0.5,0,0.9-0.2,1.2-0.6c0.6-0.8,1.6-2.2,2.2-2.5c0,1.6-0.1,3.2-0.1,3.2h0.9l0.7-4C175.9,134,176.7,131.5,174.9,131.1z"/>
	<path class="st5" d="M170.3,13.1c-0.1,3.5,0.1,7.3,0.9,10.2c-2.5,1.3-6.4,1.8-8.5,0.3c0.6-2.7,0.4-6.1,0.3-8.6c0,0,3.1-2.7,4.5-2.9
		C168.8,12,170.3,13.1,170.3,13.1z"/>
	<path class="st1" d="M169.7,15c0,0-0.3,2.8-2,3.9c-1.7,1.1-4.9,2.5-5.6,2.5s-2.7-2-2.8-5.8c-0.2-3.8-0.6-8.9,0-10.6
		c0.6-1.7,3-4.6,7.9-4.4c4.9,0.3,7.7,3.2,7,8.6C173.4,14.6,169.7,15,169.7,15z"/>
	<path class="st2" d="M158.4,9.1c0-0.7,0-1.4,0-1.4l0,0c0.2-2.9,1.4-7.8,7.8-7.6c9,0.2,8.9,6.9,8.8,7.8c-0.1,0.9-0.3,4.6-1.6,5.6
		c-1.3,1-2.6,1.1-2.6,1.1l0.6-2.2c-1.5-1.5-3.8-1.3-4.3-3.6c-0.6-2.3-0.6-3.9-1.2-4.3c-0.6-0.4-3.9-0.7-5.4,1
		c-0.3,0.3-0.5,0.6-0.7,1c0,0-0.9,2.6-0.8,4.6c-0.3-0.2-0.5-0.7-0.5-1.3c0,0,0,0.1,0,0.1S158.4,9.5,158.4,9.1z"/>
	<path class="st1" d="M169.2,11.7c0,0,1-2.4,2.3-2c1.3,0.4,0.9,2.7,0.6,3.6c-0.3,0.9-1.1,2-2.5,1.6C168.5,14,168.9,12.4,169.2,11.7z
		"/>
	<path class="st6" d="M169.2,45.8c0,2.4,0.1,5.2,0.2,8.2c0.5,14.4,1.5,35.2,1.5,35.2c4.3,0.1,8.5-0.6,12.6-1.9
		c0,0,0.6-15.9-1.4-23.1c-1.9-7.2-6.1-9.6-5.4-15.1c0.7-5.5,3.3-18.4,3.2-21.5c-0.2-0.1-0.4-0.3-0.6-0.4c-2.2-1.4-4.5-2.4-6.1-3.1
		c-0.9,2.5-3.3,9.5-3.8,14.4C169.2,39.7,169.2,42.3,169.2,45.8z"/>
	<path class="st1" d="M173.7,70.2c1.8,1.3,3.5,2.2,4.9,2.7c0.2-0.2,0.3-0.5,0.4-0.7c0.1-0.5,0-1.2-0.1-1.9c-0.1-1.1-0.3-2.3,0-2.9
		c0.6-1.1,1.6-2.1,1.6-2.1l-2.8-2.4c-0.8,1.6-1.3,2.3-2.5,3.1c-0.6,0.4-1,1.1-1.3,1.7c-0.2,0.5-0.4,1-0.4,1.4
		C173.6,69,173.5,69.6,173.7,70.2z"/>
	<path class="st3" d="M171.4,68.9c0.8,1,1.8,1.8,2.7,2.5c1.5,1.1,3.1,1.9,4.3,2.4c1.4,0.6,2.3,0.8,2.3,0.8s0,0,0.7-2
		c-1-0.4-1.9-0.7-2.7-1.1c-1.9-0.9-3.3-1.7-4.3-2.4c-1.5-1-2-1.8-2-1.8S171.8,68.3,171.4,68.9z"/>
	<path class="st3" d="M169.2,45.8c1.8-5.8,6.4-10.6,6.4-10.6s-0.8-1.7-1.1-4c1.1-1.4,3.2-3,4.8-4c-2.2-1.4-4.5-2.4-6.1-3.1
		c-0.9,2.5-3.3,9.5-3.8,14.4C169.2,39.7,169.2,42.3,169.2,45.8z"/>
	<path class="st3" d="M183.6,50.8c0,0-4.9,8.4-8,12.1c2,3.3,5.5,4.1,5.5,4.1s5.7-6.7,10.1-14.7c0.7-1.2,0.8-2.6,0.3-3.9
		c-1.4-4.1-5-13.5-11.6-20.8c-3.5,5.7-4,10.1-2.1,14C180.9,45.7,183.6,50.8,183.6,50.8z"/>
	<path class="st6" d="M150.8,87.4c1.6,1.3,3.7,1.8,6.1,1.9c0,0,0.8-27.4,1.2-42.1c0-0.5,0-1.1,0-1.6c0.1-4.4,0.2-7.6,0.2-8.4
		c0-2.9,1.9-10.1,2.6-12.7c-1.3,0.6-3.2,1.6-4.5,2.6c-0.1,0.1-0.2,0.1-0.2,0.2c-0.7,4.7-1.9,7.4-1.9,11.2c0,1.5,0.5,3.6,1.8,6.5
		c1.2,2.9,1.6,7.1-1.2,14.5C152,66.9,150.8,87.4,150.8,87.4z"/>
	<path class="st3" d="M155.2,35c0,0,0.7,5.4,2.9,10.5c0.1-4.4,0.2-7.6,0.2-8.4c0-2.9,1.9-10.1,2.6-12.7c-1.3,0.6-3.2,1.6-4.5,2.6
		c0.3,1.1,0.8,2.7,1.6,3.9C156.4,32.6,155.2,35,155.2,35z"/>
</g>
<ellipse class="st6" cx="57.5" cy="39" rx="57" ry="39"/>
<g>
	<path class="st7" d="M38.4,19c0.3,0,0.5,0,0.9,0c0.9,0,2.3-0.1,3-0.1c0.2,0,0.4-0.1,0.6-0.1l0.4,0.5c-0.2,0.1-0.2,0.2-0.5,0.4
		c-1,1-2.3,2-3.3,2.5c0.5-0.1,0.9-0.1,2.4-0.3c0.4,0,1-0.1,1.8-0.2c0.4,0,0.7-0.1,0.9-0.1c0.1,0,0.2,0,0.3,0l0.1,0.7
		c-0.1,0-0.2,0-0.2,0c-1,0-2,0.2-2.7,0.5c-0.5,0.2-1,0.6-1.2,0.9c-0.2,0.3-0.3,0.5-0.3,0.8c0,0.8,0.9,1.3,2.4,1.3
		c0.3,0,0.5,0,0.7-0.1l0,0.8c-0.2,0-0.2,0-0.7,0c-1.2,0-2-0.2-2.5-0.6c-0.4-0.3-0.6-0.8-0.6-1.3c0-0.9,0.7-1.7,2.2-2.3
		c-0.1,0-0.1,0-0.5,0.1c-0.2,0-1.1,0.1-1.6,0.2c-1.6,0.2-2.6,0.3-2.9,0.5l-0.1-0.8c0,0,0,0,0.1,0c0.3,0,1.1-0.1,1.7-0.2
		c1-0.6,2.3-1.6,3.3-2.6c0.2-0.1,0.2-0.2,0.3-0.3c-0.6,0.1-1.7,0.2-3.1,0.2c-0.4,0-0.4,0-0.6,0L38.4,19z"/>
	<path class="st7" d="M48.2,18.7c-0.1,0.3-0.1,0.8-0.1,2.1c0,1.2-0.1,2.6-0.1,3c0,0.1,0,0.4,0,0.6c0,0.6,0.2,0.9,0.5,1.2
		c0.3,0.2,0.7,0.4,1.2,0.4c1.2,0,2.1-0.6,2.7-1.7c0.2-0.5,0.3-0.9,0.5-1.6c0.3,0.2,0.4,0.3,0.7,0.5c-0.4,1.2-0.7,1.8-1.1,2.3
		c-0.7,0.8-1.6,1.2-2.8,1.2c-0.8,0-1.5-0.2-1.9-0.7c-0.4-0.5-0.5-1-0.5-2c0-0.7,0-0.9,0.1-4.1c0-0.3,0-0.5,0-0.6c0-0.2,0-0.3,0-0.5
		H48.2z"/>
	<path class="st7" d="M54.4,19.9c0.2,0,0.3,0,0.4,0c0.1,0,0.3,0,0.6,0c1.2-0.1,4.4-0.3,5.7-0.3c0.6,0,1-0.1,1.2-0.1l0.1,0.8
		c-0.4,0-0.7,0-1.1,0.1c-0.7,0.2-1.4,0.5-1.9,1C58.4,22,58,22.8,58,23.6c0,0.8,0.5,1.5,1.4,1.8c0.5,0.2,1.1,0.3,1.5,0.3
		c0,0,0.1,0,0.1,0l-0.1,0.8c-0.1,0-0.1,0-0.3-0.1c-1-0.2-1.6-0.4-2.2-0.8c-0.7-0.5-1.1-1.2-1.1-2c0-1.2,0.7-2.3,1.9-3.1
		c0.3-0.2,0.6-0.3,1-0.5c-0.6,0.1-1.1,0.1-2.2,0.2c-2.1,0.1-3,0.2-3.4,0.3L54.4,19.9z"/>
	<path class="st7" d="M71.1,26.4c-0.5-0.5-1.2-1-2-1.4c-0.2-0.1-0.4-0.2-0.7-0.3c0,0.2,0,0.2,0,0.4c0,0.5-0.1,0.8-0.2,1.1
		c-0.3,0.4-0.9,0.6-1.7,0.6c-0.7,0-1.2-0.1-1.5-0.4c-0.3-0.2-0.5-0.6-0.5-1c0-0.7,0.5-1.2,1.4-1.4c0.3-0.1,0.6-0.1,1-0.1
		c0.3,0,0.5,0,0.9,0.1c0,0,0,0,0-0.1c0,0,0,0,0-0.1c0-0.1,0-0.3,0-0.6c0-0.1,0-0.3,0-0.6c-0.4,0-0.9,0-1.2,0c-0.6,0-1.1,0-1.7-0.1
		c-0.1,0-0.2,0-0.2,0c0,0,0,0-0.1,0l0-0.7c0.5,0.1,1.3,0.2,2.3,0.2c0.3,0,0.6,0,0.9,0l0-1.4c-0.3,0-0.4,0-0.7,0
		c-0.7,0-1.5,0-2.4-0.1c-0.1,0-0.1,0-0.2,0c0,0-0.1,0-0.1,0l0-0.7c0.4,0.1,1.5,0.2,2.6,0.2c0.2,0,0.5,0,0.9,0c0-1.2,0-1.2,0-1.4h0.8
		c0,0.2-0.1,0.7-0.1,1.4c1.4-0.1,2.4-0.2,3-0.4l0,0.7c-0.2,0-0.2,0-0.7,0.1c-0.9,0.1-1.2,0.2-2.3,0.2c0,0.8,0,0.8,0,1.3
		c1.4-0.1,2.2-0.2,2.8-0.4l0,0.7c-0.1,0-0.2,0-0.6,0.1c-0.7,0.1-1.5,0.2-2.2,0.2c0,0.6,0,0.6,0.1,1.5c0.9,0.2,1.7,0.7,2.8,1.5
		c0.2,0.1,0.2,0.1,0.3,0.2L71.1,26.4z M67.7,24.5c-0.4-0.1-0.6-0.1-1-0.1c-1,0-1.6,0.4-1.6,0.9c0,0.5,0.5,0.8,1.4,0.8
		c0.5,0,0.9-0.1,1.1-0.3c0.1-0.1,0.2-0.4,0.2-0.9L67.7,24.5z"/>
	<path class="st7" d="M73.2,20.2c0.3,0.1,0.7,0.1,1.2,0.1c0.2,0,0.3,0,0.6,0c0.2-1.2,0.2-1.4,0.2-1.8l0.8,0.1
		c-0.1,0.2-0.1,0.2-0.2,0.9c0,0.3-0.1,0.5-0.1,0.8c0.8-0.1,1.3-0.2,1.8-0.3l0,0.7c-0.1,0-0.1,0-0.3,0.1c-0.5,0.1-1.2,0.2-1.7,0.2
		c-0.2,0.8-0.4,1.9-0.7,2.8c-0.3,1.1-0.6,1.8-1.1,3l-0.7-0.3c0.7-1.3,1.5-3.6,1.9-5.5c-0.2,0-0.3,0-0.7,0c-0.3,0-0.4,0-0.8,0
		c0,0,0,0,0,0c0,0-0.1,0-0.2,0V20.2z M77.7,23.9c-0.2,0.2-0.2,0.3-0.3,0.4c-0.2,0.2-0.2,0.5-0.2,0.7c0,0.6,0.6,0.9,1.7,0.9
		c0.7,0,1.6-0.1,2.2-0.3l0.1,0.8c-0.1,0-0.1,0-0.4,0.1c-0.7,0.1-1.2,0.2-1.8,0.2c-1.6,0-2.5-0.5-2.5-1.5c0-0.4,0.1-0.8,0.7-1.4
		L77.7,23.9z M80.8,22.1c-0.5,0-0.8-0.1-1.2-0.1c-0.9,0-1.6,0.1-2.5,0.3L77,21.7c1.2-0.2,1.8-0.3,2.6-0.3c0.2,0,0.3,0,1.1,0
		L80.8,22.1z"/>
	<path class="st7" d="M20.7,37.3c-0.2,0-0.4,0-0.7,0v-0.5c-0.2,0.2-0.3,0.3-0.6,0.5C19.3,37,19.3,37,19,36.8c1-0.7,1.5-1.4,2-2.4
		h0.7c0.4,0.8,0.8,1.2,1.5,1.8c-0.2,0.2-0.2,0.3-0.4,0.5c-0.7-0.7-1-1-1.5-1.8c-0.4,0.8-0.7,1.2-1.3,1.8c0.2,0,0.4,0,0.6,0h1.2
		c0.3,0,0.5,0,0.7,0v0.6c-0.2,0-0.4,0-0.7,0h-0.3v1.1H22c0.4,0,0.7,0,0.9,0V39c-0.3,0-0.5,0-0.9,0h-0.4v2.8c0.5-0.1,0.7-0.2,1.4-0.5
		l0,0.6c-1,0.4-1.8,0.7-3.1,1c-0.2,0.1-0.3,0.1-0.6,0.2l-0.2-0.7c0.4,0,0.8-0.1,1.9-0.4v-3h-0.8c-0.4,0-0.6,0-0.9,0v-0.6
		c0.2,0,0.5,0,0.9,0H21v-1.1H20.7z M20,41.7c-0.1-0.8-0.2-1.3-0.5-2.1l0.5-0.2c0.2,0.7,0.4,1.2,0.5,2L20,41.7z M22,41.1
		c0.2-0.6,0.3-1,0.4-1.7l0.5,0.2c-0.2,0.8-0.3,1-0.5,1.7L22,41.1z M24,36.7c-0.2,0.6-0.3,0.9-0.6,1.4c-0.2-0.2-0.3-0.3-0.5-0.3
		c0.5-0.7,0.8-1.5,1-2.4c0-0.2,0.1-0.4,0.1-0.6l0.6,0.1c-0.1,0.2-0.1,0.3-0.1,0.5c-0.1,0.3-0.1,0.5-0.2,0.7h1c0-0.3,0-0.4,0-0.6
		c0-0.8,0-1-0.1-1.3h0.7c0,0.3,0,0.3-0.1,1.9h1c0.5,0,0.8,0,1-0.1v0.7c-0.3,0-0.7-0.1-1-0.1h-1c0,0.9-0.1,1.3-0.1,1.9H27
		c0.4,0,0.8,0,1-0.1v0.7c-0.3,0-0.7-0.1-1-0.1h-1.2c0.2,0.6,0.4,1.2,0.8,1.7c0.5,0.7,1,1.2,1.8,1.7c-0.2,0.2-0.3,0.3-0.4,0.6
		c-1.3-0.9-2.1-1.9-2.5-3.4c-0.5,1.5-1.2,2.5-2.6,3.4c-0.1-0.2-0.2-0.4-0.5-0.5c0.8-0.4,1.2-0.8,1.7-1.3c0.5-0.6,0.8-1.2,1-2.1h-0.8
		c-0.4,0-0.8,0-1,0.1v-0.7c0.2,0,0.6,0.1,1,0.1h0.9c0.1-0.5,0.1-1,0.1-1.9H24z"/>
	<path class="st7" d="M36.9,42.6c-0.8-1-1.9-2.1-3.2-3.1c-0.7,0.8-1.2,1.3-1.9,1.8c-0.7,0.5-1.2,0.8-2,1.2c-0.2-0.3-0.2-0.4-0.5-0.7
		c0.8-0.3,1.3-0.6,2-1.1c1.6-1.2,2.8-2.8,3.6-4.5c0-0.1,0-0.1,0-0.1c0,0,0,0,0-0.1c-0.1,0-0.1,0-0.2,0L31.5,36c-0.5,0-0.7,0-1,0.1
		l0-0.8c0.3,0,0.5,0.1,0.8,0.1c0,0,0.1,0,0.3,0l3.6,0c0.3,0,0.5,0,0.6-0.1l0.4,0.4c-0.1,0.1-0.2,0.2-0.3,0.5c-0.6,1.2-1,2-1.6,2.8
		c1.3,1,2.2,1.8,3.3,3L36.9,42.6z"/>
	<path class="st7" d="M42.5,34.6c-0.1,0.1-0.1,0.1-0.2,0.4c-0.3,0.5-0.4,0.7-0.5,0.9c0.1,0,0.1,0,3-0.1c0.3,0,0.4,0,0.5-0.1l0.4,0.4
		c-0.1,0.1-0.1,0.1-0.2,0.5c-0.4,1.4-1.1,2.8-2,3.8c-0.9,1-2,1.8-3.5,2.5c-0.2-0.3-0.2-0.4-0.5-0.6c1.5-0.6,2.6-1.4,3.5-2.5
		c0.8-0.9,1.4-2.1,1.7-3.3l-3.4,0.1c-0.6,1-1.4,1.9-2.4,2.6c-0.2-0.2-0.3-0.3-0.6-0.5c1.1-0.7,1.8-1.5,2.5-2.7
		c0.4-0.7,0.6-1.1,0.6-1.5L42.5,34.6z"/>
	<path class="st7" d="M47.8,37.3c0.4,0,0.6,0.1,1.2,0.1h5.1c0.4,0,0.5,0,0.6-0.1l0.4,0.4c-0.1,0.1-0.1,0.2-0.3,0.6
		c-0.8,2.3-2.2,3.6-4.8,4.5c-0.1-0.3-0.2-0.4-0.4-0.7c1.3-0.4,2.2-0.8,3-1.5c0.7-0.6,1.2-1.4,1.6-2.6H49c-0.5,0-0.8,0-1.2,0.1V37.3z
		 M48.7,34.9c0.3,0.1,0.5,0.1,1,0.1h3.3c0.6,0,0.8,0,1-0.1v0.8c-0.3,0-0.5-0.1-1-0.1h-3.4c-0.5,0-0.8,0-1,0.1V34.9z"/>
	<path class="st7" d="M57.9,37c0.4,0.7,0.6,1.2,1,2.2l-0.7,0.2c-0.2-0.9-0.5-1.5-0.9-2.2L57.9,37z M63.5,37
		c-0.1,0.2-0.1,0.2-0.2,0.8c-0.2,0.7-0.5,1.6-0.9,2.2c-0.7,1.2-1.8,2.1-3.3,2.9c-0.1-0.2-0.2-0.3-0.5-0.6c1.5-0.7,2.5-1.5,3.2-2.6
		c0.4-0.6,0.7-1.4,0.8-2.1c0.1-0.3,0.1-0.6,0.1-0.7v0c0,0,0,0,0-0.1L63.5,37z M59.9,36.6c0.5,0.9,0.7,1.3,1,2.1L60.3,39
		c-0.2-0.7-0.5-1.4-0.9-2.2L59.9,36.6z"/>
	<path class="st7" d="M71.2,35.5c0-0.1,0-0.2,0-0.3c0-0.6,0.5-1.1,1.1-1.1c0.6,0,1.1,0.5,1.1,1.1c0,0.6-0.5,1.1-1.1,1.1
		c-0.1,0-0.2,0-0.3,0c0,0,0,0,0,0.1c-0.5,1.8-1.1,3-2,4c-1,1.1-2.2,1.8-3.6,2.4c-0.1-0.3-0.2-0.5-0.5-0.7c1.3-0.4,2.8-1.2,3.7-2.3
		c0.8-0.9,1.4-2.1,1.7-3.6h-5.1c-0.6,0-0.8,0-1.1,0.1v-0.8c0.4,0,0.6,0.1,1.1,0.1H71H71.2z M71.6,35.2c0,0.4,0.3,0.7,0.7,0.7
		c0.4,0,0.7-0.3,0.7-0.7c0-0.4-0.3-0.7-0.7-0.7C71.9,34.5,71.6,34.8,71.6,35.2z"/>
	<path class="st7" d="M76.4,34.5c0,0.7,0.4,2.3,0.8,3.3c0.6-0.2,0.9-0.3,2.4-0.9c0.4-0.1,0.4-0.2,0.6-0.3l0.3,0.8
		c-0.7,0.1-2.1,0.6-3,1c-1.7,0.7-2.4,1.3-2.4,2.2c0,0.9,0.8,1.3,2.7,1.3c1.1,0,2.3-0.1,2.9-0.3l0.1,0.8c-0.2,0-0.2,0-0.7,0.1
		c-1,0.1-1.5,0.1-2.2,0.1c-1,0-1.7-0.1-2.2-0.3c-0.8-0.3-1.2-0.8-1.2-1.6c0-0.6,0.3-1.2,0.9-1.7c0.4-0.3,0.7-0.5,1.3-0.8
		c-0.3-0.8-0.5-1.5-0.7-2.8c-0.1-0.4-0.1-0.5-0.2-0.6L76.4,34.5z"/>
	<path class="st7" d="M84.3,34.7c-0.1,0.3-0.1,0.8-0.1,2.1c0,1.2-0.1,2.6-0.1,3c0,0.1,0,0.4,0,0.6c0,0.6,0.2,0.9,0.5,1.2
		c0.3,0.2,0.7,0.4,1.2,0.4c1.2,0,2.1-0.6,2.7-1.7c0.2-0.5,0.3-0.9,0.5-1.6c0.3,0.2,0.4,0.3,0.7,0.5c-0.4,1.2-0.7,1.8-1.1,2.3
		c-0.7,0.8-1.6,1.2-2.8,1.2c-0.8,0-1.5-0.2-1.9-0.7c-0.4-0.5-0.5-1-0.5-2c0-0.7,0-0.9,0.1-4.1c0-0.3,0-0.5,0-0.6c0-0.2,0-0.3,0-0.5
		H84.3z"/>
	<path class="st7" d="M90.4,35.9c0.2,0,0.3,0,0.4,0c0.1,0,0.3,0,0.6,0c1.2-0.1,4.4-0.3,5.7-0.3c0.6,0,1-0.1,1.2-0.1l0.1,0.8
		c-0.4,0-0.7,0-1.1,0.1c-0.7,0.2-1.4,0.5-1.9,1C94.5,38,94,38.8,94,39.6c0,0.8,0.5,1.5,1.4,1.8c0.5,0.2,1.1,0.3,1.5,0.3
		c0,0,0.1,0,0.1,0l-0.1,0.8c-0.1,0-0.1,0-0.3-0.1c-1-0.2-1.6-0.4-2.2-0.8c-0.7-0.5-1.1-1.2-1.1-2c0-1.2,0.7-2.3,1.9-3.1
		c0.3-0.2,0.6-0.3,1-0.5c-0.6,0.1-1.1,0.1-2.2,0.2c-2.1,0.1-3,0.2-3.4,0.3L90.4,35.9z"/>
	<path class="st7" d="M31.8,52.9c-0.1,0.6-0.2,0.9-0.4,1.5c-0.2-0.1-0.3-0.2-0.5-0.3c0.2-0.6,0.4-1,0.5-1.6c0.1-0.5,0.1-0.9,0.1-1.3
		c0-0.1,0-0.1,0-0.3l0.6,0.1c0,0.1,0,0.2,0,0.3c0,0.2-0.1,0.5-0.1,0.9h0.7V51c0-0.3,0-0.6-0.1-0.8h0.7c0,0.3-0.1,0.5-0.1,0.8v1.3
		h0.2c0.4,0,0.6,0,0.9-0.1v0.7c-0.3,0-0.5,0-0.8,0h-0.2v2c0.4-0.2,0.6-0.3,1-0.5l0,0.6l0,0c0.2,0,0.5,0,0.9,0H38v-1.2h-2.9
		c-0.4,0-0.7,0-1,0.1v-0.7c0.3,0,0.6,0.1,1,0.1h1.4v-1.3h-1.1c-0.4,0-0.7,0-1,0v-0.7c0.2,0,0.5,0.1,1,0.1h1.1V51
		c0-0.3,0-0.6-0.1-0.8h0.7c0,0.3-0.1,0.5-0.1,0.8v0.4h1.4c0.4,0,0.7,0,0.9-0.1V52c-0.3,0-0.6,0-0.9,0h-1.4v1.3h1.7
		c0.5,0,0.7,0,1-0.1v0.7c-0.3,0-0.6-0.1-1-0.1h-0.2V55h0.3c0.4,0,0.7,0,1-0.1v0.7c-0.3,0-0.6-0.1-1-0.1h-0.3v2.8
		c0,0.6-0.2,0.7-1,0.7c-0.3,0-0.6,0-1,0c0-0.3-0.1-0.4-0.2-0.7c0.5,0.1,0.9,0.1,1.1,0.1c0.4,0,0.4,0,0.4-0.3v-2.7h-2.9
		c-0.4,0-0.7,0-1,0.1V55c-0.4,0.2-0.5,0.2-0.9,0.5v2.8c0,0.4,0,0.7,0.1,1h-0.7c0-0.3,0.1-0.6,0.1-1v-2.5c-0.1,0-0.1,0-0.4,0.1
		c-0.2,0.1-0.5,0.2-0.6,0.3c-0.1,0-0.1,0-0.2,0.1c-0.1,0-0.1,0.1-0.2,0.1l-0.2-0.7c0.4-0.1,0.9-0.2,1.7-0.6v-2.2H31.8z M35.3,55.9
		c0.6,0.6,0.9,1,1.4,1.6l-0.5,0.4c-0.4-0.7-0.8-1.1-1.4-1.7L35.3,55.9z"/>
	<path class="st7" d="M42.4,54.4c0.4,0.3,0.7,0.6,1,0.9c0.2-0.7,0.3-1.2,0.5-2.1h-1.3c-0.3,1-0.7,1.7-1.2,2.4
		c-0.1-0.2-0.2-0.3-0.4-0.5c0.5-0.7,0.9-1.3,1.1-2.2c0.2-0.5,0.2-0.9,0.3-1.6H42c-0.4,0-0.6,0-0.9,0v-0.6c0.2,0,0.5,0,0.9,0h1.8
		c0.4,0,0.7,0,1,0v0.6c-0.2,0-0.5,0-0.9,0h-1c-0.1,0.5-0.1,0.9-0.3,1.4h0.9c0.4,0,0.6,0,0.8,0c0,0.1,0,0.2-0.1,0.6
		c-0.1,1.2-0.5,2.4-0.9,3.4c-0.5,1-1,1.7-2,2.6c-0.1-0.2-0.2-0.3-0.5-0.5c1.1-0.9,1.7-1.6,2.2-2.8c-0.4-0.5-0.7-0.7-1-1L42.4,54.4z
		 M47,51.1c0-0.5,0-0.8,0-0.9h0.7c0,0.2,0,0.2,0,0.9V52h1.2c0.4,0,0.7,0,0.9-0.1v0.7c-0.3,0-0.5,0-0.9,0h-1.2v1.7h1.6
		c0.4,0,0.7,0,0.9-0.1v0.7c-0.3,0-0.6,0-0.9,0h-1.5c0.3,0.6,0.6,1,1.1,1.5c0.6,0.6,1,1,1.7,1.5c-0.2,0.3-0.3,0.3-0.4,0.6
		c-0.5-0.4-1-0.9-1.4-1.4c-0.6-0.6-0.7-0.8-1.1-1.6c0,0.3,0.1,0.6,0.1,1v1.8c0,0.4,0,0.7,0.1,1h-0.7c0-0.2,0.1-0.6,0.1-1v-1.8
		c0-0.4,0-0.7,0.1-1c-0.4,0.8-0.7,1.2-1.2,1.7c-0.5,0.6-0.9,0.9-1.6,1.4c-0.1-0.2-0.3-0.3-0.4-0.5c0.8-0.5,1.4-1.1,1.9-1.7
		c0.5-0.6,0.8-1,1.1-1.6h-1.3c-0.4,0-0.6,0-0.9,0.1v-0.7c0.3,0,0.5,0.1,1,0.1H47v-1.7h-1.2c-0.2,0.5-0.3,0.7-0.6,1.2
		c-0.1-0.1-0.2-0.2-0.5-0.3c0.5-0.7,0.7-1.3,0.9-2.2c0-0.3,0.1-0.4,0.1-0.6l0.6,0.1c0,0.1,0,0.1-0.2,0.6c0,0.2-0.1,0.4-0.1,0.6h1
		V51.1z"/>
	<path class="st7" d="M53.5,50.2c0.2,0.6,0.7,1.2,1.4,1.8c-0.1,0.2-0.2,0.3-0.4,0.5c-0.7-0.7-0.9-1-1.3-1.8c-0.5,1-0.9,1.6-1.8,2.5
		c-0.1-0.3-0.2-0.3-0.3-0.5c0.5-0.5,0.8-0.8,1.2-1.4c0.3-0.4,0.4-0.7,0.5-1H53.5z M52.8,54.7h-0.7c-0.4,0-0.6,0-0.8,0.1v-0.6
		c0.2,0,0.4,0.1,0.8,0.1h0.7v-1.1h-0.3c-0.2,0-0.4,0-0.6,0v-0.6c0.2,0,0.3,0,0.6,0h1.2c0.3,0,0.4,0,0.6,0v0.6c-0.2,0-0.3,0-0.6,0
		h-0.3v1.1h0.5c0.4,0,0.6,0,0.8-0.1v0.6c-0.2,0-0.4,0-0.8,0h-0.5v3c0.5-0.2,0.7-0.2,1.3-0.5v0.6c-1,0.4-1.4,0.5-3,0.9
		c-0.2,0.1-0.2,0.1-0.3,0.1l-0.1-0.6c0.3,0,0.6-0.1,1.5-0.3V54.7z M51.9,57.5c-0.1-0.9-0.3-1.4-0.5-2.1l0.5-0.2
		c0.2,0.7,0.3,1.1,0.5,2.1L51.9,57.5z M53.7,57c0.2-0.7,0.3-1,0.3-1.8l0.5,0.2c-0.1,0.8-0.2,1.1-0.4,1.7L53.7,57z M55,51.5
		c0-0.6,0-0.8,0-1.1c0.3,0,0.5,0,1,0h3c0.7,0,0.8,0,1.1,0c0,0.3,0,0.6,0,1.2v6.7c0,0.6-0.2,0.8-0.9,0.8c-0.3,0-0.7,0-1.1,0
		c0-0.3,0-0.4-0.1-0.6c0.4,0.1,0.8,0.1,1.1,0.1c0.4,0,0.4,0,0.4-0.3V51h-3.9v7c0,0.6,0,0.9,0,1.2h-0.7c0-0.3,0.1-0.6,0.1-1.2V51.5z
		 M57.6,53.1c0.3-0.6,0.5-1.1,0.6-1.8l0.5,0.2c-0.2,0.7-0.4,1.1-0.6,1.6h0.3c0.4,0,0.5,0,0.8,0v0.6c-0.2,0-0.4,0-0.8,0h-0.7v3.2h0.7
		v-1.6c0-0.5,0-0.7,0-0.9h0.6c0,0.2,0,0.5,0,0.9V57c0,0.4,0,0.6,0,0.8h-0.5v-0.5h-1.8v0.6H56c0-0.3,0-0.5,0-0.9v-1.8
		c0-0.4,0-0.7,0-0.9h0.6c0,0.2,0,0.4,0,0.9v1.6h0.6v-3.2h-0.6c-0.3,0-0.5,0-0.8,0v-0.6c0.2,0,0.4,0,0.8,0H57.6z M56.6,51.4
		c0.3,0.5,0.4,0.8,0.6,1.4l-0.5,0.2c-0.2-0.5-0.3-0.9-0.6-1.3L56.6,51.4z"/>
	<path class="st7" d="M61.3,55.3c0.4-0.2,1.2-1.1,2-2.2c0.3-0.4,0.4-0.5,0.5-0.6c0.3-0.2,0.5-0.4,0.8-0.4c0.3,0,0.5,0.1,0.9,0.5
		c0.1,0.1,0.3,0.3,0.7,0.8c0.9,1.1,2.3,2.4,3.2,3.1c0.4,0.3,0.6,0.4,0.8,0.5l-0.3,0.9c-0.1-0.1-0.1-0.1-0.2-0.2
		c-0.6-0.5-1.8-1.5-2.4-2.2c-0.6-0.6-1-1-1.9-2.1c-0.3-0.3-0.4-0.4-0.6-0.4c-0.2,0-0.3,0.1-0.8,0.7c-0.6,0.8-1.1,1.4-1.7,2.1
		c-0.2,0.2-0.2,0.2-0.3,0.3L61.3,55.3z"/>
	<path class="st7" d="M72,54.7c0,0.3-0.3,0.6-0.6,0.6s-0.6-0.3-0.6-0.6s0.3-0.6,0.6-0.6C71.8,54.1,72,54.4,72,54.7z M75.4,54.7
		c0,0.3-0.3,0.6-0.6,0.6s-0.6-0.3-0.6-0.6s0.3-0.6,0.6-0.6C75.1,54.1,75.4,54.4,75.4,54.7z M78.7,54.7c0,0.3-0.3,0.6-0.6,0.6
		s-0.6-0.3-0.6-0.6s0.3-0.6,0.6-0.6C78.4,54.1,78.7,54.4,78.7,54.7z"/>
	<path class="st7" d="M82.3,56.6c0-0.3,0-0.4,0-0.7v-0.4L82.3,52c0-0.4,0-0.7-0.1-1.1h1c0,0.4,0,0.7-0.1,1.1L83,55.6
		c0,0.4,0,0.4,0,0.5c0,0.2,0,0.4,0,0.6H82.3z M82.2,58.5v-0.9h1v0.9H82.2z"/>
</g>
<polygon class="st6" points="107.3,38 123,25.5 104.7,23.9 "/>
<g>
	<path class="st8" d="M114.9,132.3c0,0.6-25.4,1-56.6,1s-56.6-0.5-56.6-1c0-0.6,25.4-1,56.6-1S114.9,131.7,114.9,132.3z"/>
	<path class="st9" d="M5.5,126.3l1.2,1.9c0,0,95.5,0.5,96.9,0.3c1.4-0.2,4.4-2.3,4.4-2.3l-9-13.4l-83.5,0.2L5.5,126.3z"/>
	<g>
		<circle class="st10" cx="22.2" cy="124.3" r="8"/>
		<circle class="st11" cx="22.2" cy="124.3" r="5"/>
		<circle class="st12" cx="22.2" cy="124.3" r="4.4"/>
		<path class="st11" d="M23.5,124.3c0,0.7-0.6,1.3-1.3,1.3c-0.7,0-1.3-0.6-1.3-1.3c0-0.7,0.6-1.3,1.3-1.3
			C22.9,123,23.5,123.6,23.5,124.3z"/>
		<g>
			<polygon class="st13" points="22.4,122.8 22,122.8 21.8,120.2 22.6,120.2 			"/>
			<polygon class="st13" points="21.6,122.9 21.3,123.1 19.8,120.9 20.5,120.5 			"/>
			<polygon class="st13" points="21,123.3 20.8,123.7 18.4,122.6 18.9,121.8 			"/>
			<polygon class="st13" points="20.7,124.1 20.7,124.5 18.1,124.7 18.1,123.8 			"/>
			<polygon class="st13" points="20.8,124.9 21,125.2 18.9,126.7 18.4,126 			"/>
			<polygon class="st13" points="21.3,125.5 21.6,125.7 20.5,128.1 19.8,127.6 			"/>
			<polygon class="st13" points="22,125.8 22.4,125.8 22.6,128.4 21.8,128.4 			"/>
			<polygon class="st13" points="22.8,125.7 23.2,125.5 24.7,127.6 23.9,128.1 			"/>
			<polygon class="st13" points="23.4,125.2 23.6,124.9 26,126 25.6,126.7 			"/>
			<polygon class="st13" points="23.7,124.5 23.7,124.1 26.3,123.8 26.3,124.7 			"/>
			<polygon class="st13" points="23.6,123.7 23.4,123.3 25.6,121.8 26,122.6 			"/>
			<polygon class="st13" points="23.2,123.1 22.8,122.9 23.9,120.5 24.7,120.9 			"/>
		</g>
	</g>
	<g>
		<circle class="st10" cx="92.7" cy="124.3" r="8"/>
		<path class="st11" d="M97.7,124.3c0,2.8-2.2,5-5,5c-2.8,0-5-2.2-5-5s2.2-5,5-5C95.5,119.3,97.7,121.5,97.7,124.3z"/>
		<path class="st12" d="M97.1,124.3c0,2.4-2,4.4-4.4,4.4c-2.4,0-4.4-2-4.4-4.4c0-2.4,2-4.4,4.4-4.4
			C95.1,119.9,97.1,121.9,97.1,124.3z"/>
		<path class="st11" d="M94,124.3c0,0.7-0.6,1.3-1.3,1.3c-0.7,0-1.3-0.6-1.3-1.3c0-0.7,0.6-1.3,1.3-1.3C93.4,123,94,123.6,94,124.3z
			"/>
		<g>
			<polygon class="st13" points="92.9,122.8 92.5,122.8 92.3,120.2 93.2,120.2 			"/>
			<polygon class="st13" points="92.2,122.9 91.8,123.1 90.3,120.9 91,120.5 			"/>
			<polygon class="st13" points="91.5,123.3 91.3,123.7 88.9,122.6 89.4,121.8 			"/>
			<polygon class="st13" points="91.2,124.1 91.2,124.5 88.6,124.7 88.6,123.8 			"/>
			<polygon class="st13" points="91.3,124.9 91.5,125.2 89.4,126.7 88.9,126 			"/>
			<polygon class="st13" points="91.8,125.5 92.2,125.7 91,128.1 90.3,127.6 			"/>
			<polygon class="st13" points="92.5,125.8 92.9,125.8 93.2,128.4 92.3,128.4 			"/>
			<polygon class="st13" points="93.3,125.7 93.7,125.5 95.2,127.6 94.4,128.1 			"/>
			<polygon class="st13" points="93.9,125.2 94.2,124.9 96.5,126 96.1,126.7 			"/>
			<polygon class="st13" points="94.2,124.5 94.2,124.1 96.8,123.8 96.8,124.7 			"/>
			<polygon class="st13" points="94.2,123.7 93.9,123.3 96.1,121.8 96.5,122.6 			"/>
			<polygon class="st13" points="93.7,123.1 93.3,122.9 94.4,120.5 95.2,120.9 			"/>
		</g>
	</g>
	<path class="st14" d="M117.3,123.2c-0.3,1-0.7,1.9-1,2.3c-0.3,0.5-1.7,0.8-3.5,1.1c-2.7,0.4-6.6,0.6-9.4,0.8
		c-0.5,0-1.1,0.1-1.5,0.1c-0.2,0-0.3,0-0.5,0c0.3-0.9,0.5-1.9,0.6-2.8c0-0.1,0-0.2,0-0.3c0-5.1-4.1-9.2-9.2-9.2
		c-5.1,0-9.2,4.1-9.2,9.2c0,0.3,0,0.5,0,0.8c0.1,0.9,0.3,1.7,0.6,2.5c-0.7,0-1.4,0-2,0H30.8c0.3-0.7,0.5-1.5,0.5-2.2
		c0-0.3,0.1-0.7,0.1-1.1c0-5.1-4.1-9.2-9.2-9.2c-5.1,0-9.2,4.1-9.2,9.2c0,0.3,0,0.5,0,0.8c0.1,0.9,0.3,1.7,0.6,2.5h-1
		c-0.4,0-0.7,0-1,0c-3.3,0-6.1-0.2-7.5-0.8c-0.4-0.2-0.7-0.5-1-0.9c-0.3-0.4-0.5-0.9-0.6-1.3c-0.4-1.1-0.6-2.3-0.6-2.6
		c-1,0-1.3-0.4-1.6-0.8c-0.3-0.4-0.3-2.3-0.2-3.1c0.2-0.8,2.3-2,2.3-2s0.3-2.1,0.6-3.4c0.1-0.2,0.1-0.3,0.2-0.5
		c0-0.1,0.1-0.2,0.1-0.2c0.3-0.5,2.6-1.8,8.5-3c4-0.9,9.7-1.7,17.7-2.2c0.7-0.5,1.4-1,2.1-1.5c7.1-4.8,16.2-8.6,23.1-10.5
		c1-0.3,2-0.5,3-0.7c6.4-1.3,17.7-0.9,26.2,0.4c11.1,1.8,20.2,9.7,20.5,9.9c0,0,0,0,0,0s0,0,0,0c0.4,0,9.3,0.8,10.4,2
		c0,0,0.1,0.1,0.1,0.1c0.2,0.3,0.5,0.9,0.7,1.6c0.4,1.4,0.8,3.2,1,4.7c0.2,1.4,0.4,2.4,0.4,2.4s1.3,1.1,1.6,2.1
		C118.7,118.2,118,121,117.3,123.2z"/>
	<path class="st15" d="M114.9,106.7c-8.8,0.3-67.9,2.5-106.2,5.1l3.2-2.7c4-0.9,9.7-1.7,17.7-2.2c0.7-0.5,1.4-1,2.1-1.5
		c7.1-4.8,16.2-8.6,23.1-10.5c1-0.3,2-0.5,3-0.7c6.4-1.3,17.7-0.9,26.2,0.4c11.1,1.8,20.2,9.7,20.5,9.9c0,0,0,0,0,0s9.3,0.8,10.5,2
		C114.9,106.6,114.9,106.6,114.9,106.7z"/>
	<path class="st15" d="M32.8,107.1c-0.6,0.6-3,1.1-5.7,1.4c-2.5,0.3-9.7,0.5-14.1,1.6c-4.4,1.1-5,2.1-5,2.1l-5,0.5
		c0.1-0.2,0.1-0.3,0.2-0.5c0-0.1,0.1-0.2,0.1-0.2c0.3-0.5,2.9-1.9,9.6-3.2c3.9-0.8,9.3-1.5,16.5-1.9c0.7-0.5,1.4-1,2.1-1.5l0.2,0
		C31.8,105.4,33.5,106.5,32.8,107.1z"/>
	<path class="st16" d="M54.7,94.9c-9.7,3.7-19.4,12.3-20.3,12.4c-0.9,0.1-4.9-0.4-4.9-0.4C36.8,101.4,47.1,97,54.7,94.9z"/>
	<path class="st15" d="M11.8,117.7c0,0-8.8,1.3-11.7,0.4c0.2-0.8,2.3-2,2.3-2C6.1,117.5,11.8,117.7,11.8,117.7z"/>
	<path class="st17" d="M3,125.9c-0.9-1.3-1.2-3.5-1.2-3.9c3,0.3,3.4,0.9,3.8,3.3C5.9,126.7,4.3,126.4,3,125.9z"/>
	<path class="st17" d="M13.6,127.6h-1c-0.4,0-0.7,0-1,0c-3.3,0-6.1-0.2-7.5-0.8c-0.4-0.2-0.7-0.5-1-0.9c-0.3-0.4-0.5-0.9-0.6-1.3
		c1.6,0.2,4.6,0.4,8.7,0.5c0.6,0,1.3,0,1.9,0.1C13.1,126,13.3,126.8,13.6,127.6z"/>
	<path class="st17" d="M83.5,125.1c0.1,0.9,0.3,1.7,0.6,2.5c-0.7,0-1.4,0-2,0H30.8c0.3-0.7,0.5-1.5,0.5-2.2c0.6,0,1.3,0,1.9,0
		C49.7,125.4,69.3,125.3,83.5,125.1z"/>
	<path class="st17" d="M117.3,123.2c-0.3,1-0.7,1.9-1,2.3c-0.8,1.2-8.1,1.6-12.9,1.8c-0.5,0-1.1,0.1-1.5,0.1c-0.2,0-0.3,0-0.5,0
		c0.3-0.9,0.5-1.9,0.6-2.8c0.2,0,0.5,0,0.6,0c0.4,0,0.9-0.1,1.3-0.1C110.4,124,115.1,123.5,117.3,123.2z"/>
	<path class="st15" d="M33.3,124.3c0,0.4,0,0.7-0.1,1.1c-0.1,0.8-0.2,1.5-0.4,2.2h-2c0.3-0.7,0.5-1.5,0.5-2.2c0-0.3,0.1-0.7,0.1-1.1
		c0-5.1-4.1-9.2-9.2-9.2c-5.1,0-9.2,4.1-9.2,9.2c0,0.3,0,0.5,0,0.8c0.1,0.9,0.3,1.7,0.6,2.5h-1c-0.4,0-0.7,0-1,0
		c-0.2-0.8-0.4-1.7-0.5-2.5c0-0.2,0-0.5,0-0.8c0-6.1,5-11.1,11.1-11.1C28.4,113.1,33.3,118.1,33.3,124.3z"/>
	<path class="st15" d="M103.9,124.3c0,0.1,0,0.1,0,0.2c0,1-0.2,2-0.4,2.9c-0.5,0-1.1,0.1-1.5,0.1c-0.2,0-0.3,0-0.5,0
		c0.3-0.9,0.5-1.9,0.6-2.8c0-0.1,0-0.2,0-0.3c0-5.1-4.1-9.2-9.2-9.2c-5.1,0-9.2,4.1-9.2,9.2c0,0.3,0,0.5,0,0.8
		c0.1,0.9,0.3,1.7,0.6,2.5c-0.7,0-1.4,0-2,0c-0.3-1-0.5-2.2-0.5-3.3c0-6.1,5-11.1,11.1-11.1C98.9,113.1,103.9,118.1,103.9,124.3z"/>
	<path class="st16" d="M104.4,104.5c0,0-2.9,0.2-3.3,0.1c-0.4-0.1-6.3-6.7-17.2-10C94.9,96.4,104.1,104.3,104.4,104.5
		C104.4,104.5,104.4,104.5,104.4,104.5z"/>
	<path class="st16" d="M94.9,105.4c-0.7,0.2-2.5,0.4-5.2,0.6c-1.1,0.1-2.4,0.2-3.8,0.3c-3.3,0.2-7.3,0.5-11.6,0.7
		c-1.7,0.1-3.5,0.2-5.3,0.3c-0.9,0-1.9,0.1-2.8,0.1c-2,0.1-4,0.2-6,0.2c-2.4,0.1-4.8,0.2-7,0.2c-1.4,0-2.7,0.1-3.9,0.1
		c-4.3,0.1-7.8,0-9.9-0.2c3.6-2.8,9.1-7.2,15.6-9.8c1.8-0.7,3.7-1.3,5.6-1.7v0c0.9-0.2,1.9-0.3,2.8-0.4c0.7-0.1,1.4-0.1,2.2-0.1
		c0.3,0,0.7,0,1,0c2.4,0,4.7,0.2,6.8,0.4c2.5,0.3,4.9,0.7,7.1,1.2c0.3,0.1,0.6,0.1,0.9,0.2c1.4,0.3,2.7,0.7,3.8,1.1
		C90.5,100.3,94,102.8,94.9,105.4z"/>
	<path class="st18" d="M60.7,96.2c-2.3,3.5-5.4,8.4-7.4,11.7c-1.4,0-2.7,0.1-3.9,0.1c1.3-2.3,3.7-6.5,5.7-10
		C56.9,97.2,58.8,96.6,60.7,96.2z"/>
	<path class="st18" d="M80.6,97.2l-6.3,9.8c-1.7,0.1-3.5,0.2-5.3,0.3c1-2.7,2.9-7.4,4.4-11.2C76,96.3,78.4,96.7,80.6,97.2z"/>
	<path class="st17" d="M66.7,95.6l-0.4,11.7c-2,0.1-4,0.2-6,0.2l3.2-11.9c0.7-0.1,1.4-0.1,2.2-0.1C66,95.6,66.3,95.6,66.7,95.6z"/>
	<path class="st17" d="M89.7,106c-1.1,0.1-2.4,0.2-3.8,0.3l-4.4-8.8c1.4,0.3,2.7,0.7,3.8,1.1L89.7,106z"/>
	<path class="st17" d="M59.1,111.7h-4.2c-0.3,0-0.6-0.3-0.6-0.6l0,0c0-0.3,0.3-0.6,0.6-0.6h4.2c0.3,0,0.6,0.3,0.6,0.6l0,0
		C59.7,111.4,59.4,111.7,59.1,111.7z"/>
	<path class="st17" d="M84.5,111.7h-4.2c-0.3,0-0.6-0.3-0.6-0.6l0,0c0-0.3,0.3-0.6,0.6-0.6h4.2c0.3,0,0.6,0.3,0.6,0.6l0,0
		C85.1,111.4,84.8,111.7,84.5,111.7z"/>
	<path class="st15" d="M118.6,117.5c-8.4,0.6-12.3-0.6-12.3-0.6s7.6,0.2,10.8-1.5C117,115.4,118.3,116.5,118.6,117.5z"/>
	<path class="st19" d="M116.6,113c-1.6,0.1-6.3,0.5-6.6,0.1c-0.3-0.5-0.8-3.2-0.2-3.7c0.4-0.4,4.2-0.9,5.8-1.1
		C116,109.6,116.4,111.5,116.6,113z"/>
	<path class="st17" d="M43.2,104.5c0.8,0.2,1.1,3,0.5,4.2c-0.6,1.1-3.2,0.1-3.5,0c-0.4-0.1-1.6,0.3-1.6,0.3s-0.8-0.6-0.1-1.3
		C39.2,107,41,104,43.2,104.5z"/>
	<g class="st20">
		<path class="st9" d="M7.8,112.7l-0.2-0.2c2.2-2.4,9-3.1,15-3.6c4.4-0.4,8.6-0.8,10-1.8l0.2,0.2c-1.4,1.1-5.5,1.5-10.1,1.9
			C16.6,109.7,9.9,110.3,7.8,112.7z"/>
	</g>
	<path class="st21" d="M10.9,115.4c-0.1,0.1-0.6,0.3-1.2,0.4c-2,0.4-5.9,0.8-7.3,0.3c0,0,0.3-2.8,0.8-3.8c1.4-0.1,4.6-0.4,6.4-0.4
		c0.7,0,1.2,0.1,1.3,0.2C11.6,112.8,11.3,114.8,10.9,115.4z"/>
	<path class="st22" d="M10.9,115.4c-0.1,0.1-0.6,0.3-1.2,0.4v-3.9c0.7,0,1.2,0.1,1.3,0.2C11.6,112.8,11.3,114.8,10.9,115.4z"/>
	<path class="st23" d="M88.6,109.9c-1.4-4-5.1-13-5.6-13.6c-0.7-0.8-9.6-2-17.3-2c-0.1,0-0.2,0-0.3,0c-0.2,0-0.4,0-0.7,0
		c-8.2,0.2-13.7,2.2-28.3,13.3l0,0c-1.1,1.9-1,15.6-0.7,16.7c0,0.2,0.2,0.7,16.6,0.7h1.5c2.8,0,5.7,0,8.5-0.1c0.1,0,0.2,0,0.3,0
		c6.7-0.1,12.7-0.2,15.7-0.4c0.8,0,1.4-0.7,1.5-1.5c0.4-4.8,3.5-9,7.9-10.9C88.5,111.8,88.9,110.8,88.6,109.9z M35.9,124.2
		c-0.3-1.4-0.3-14.6,0.7-16.4c14.6-11,20-13.1,28.1-13.2c0.2,0,0.4,0,0.6,0c-0.6,2.8-2.7,12-3.1,14.5c-0.4,2.5-0.2,12.5-0.1,15.5
		C50.2,124.8,36.8,124.7,35.9,124.2z M87.4,111.9c-4.5,1.9-7.7,6.2-8.1,11.1c-0.1,0.6-0.6,1.1-1.2,1.2c-3.2,0.2-9.2,0.3-15.7,0.4
		c-0.1-3-0.3-13,0.1-15.5c0.4-2.5,2.5-11.8,3.1-14.5c8,0,16.6,1.3,17.1,1.9c0.5,0.5,4.1,9.4,5.6,13.5
		C88.6,110.8,88.2,111.6,87.4,111.9z"/>
	<path class="st24" d="M117.3,123.2c-0.3,1-0.7,1.9-1,2.3c-0.3,0.5-1.7,0.8-3.5,1.1c0.4-2.2,1.2-8.2,1-8.7c-0.3-0.6-1.2-1.2-1.2-1.2
		s-1.1-8.7-2.5-9.7c-1.4-0.9-5.4-2.3-5.7-2.4c0.4,0,9.3,0.8,10.4,2c0,0,0.1,0.1,0.1,0.1c0.2,0.3,0.5,0.9,0.7,1.6
		c0.4,1.4,0.8,3.2,1,4.7c0.2,1.4,0.4,2.4,0.4,2.4s1.3,1.1,1.6,2.1C118.7,118.2,118,121,117.3,123.2z"/>
</g>
</svg>
