<?xml version="1.0" encoding="utf-8"?>
<!-- Generator: Adobe Illustrator 24.0.3, SVG Export Plug-In . SVG Version: 6.00 Build 0)  -->
<svg version="1.1" id="レイヤー_1" xmlns="http://www.w3.org/2000/svg" xmlns:xlink="http://www.w3.org/1999/xlink" x="0px"
	 y="0px" viewBox="0 0 135.4 46.7" style="enable-background:new 0 0 135.4 46.7;" xml:space="preserve">
<style type="text/css">
	.st0{opacity:0;}
	.st1{opacity:1.428571e-02;fill:#050505;}
	.st2{opacity:2.857143e-02;fill:#090909;}
	.st3{opacity:4.285714e-02;fill:#0E0E0E;}
	.st4{opacity:5.714286e-02;fill:#131313;}
	.st5{opacity:7.142857e-02;fill:#181818;}
	.st6{opacity:8.571429e-02;fill:#1C1C1C;}
	.st7{opacity:0.1;fill:#212121;}
	.st8{opacity:0.1143;fill:#262626;}
	.st9{opacity:0.1286;fill:#2A2A2A;}
	.st10{opacity:0.1429;fill:#2F2F2F;}
	.st11{opacity:0.1571;fill:#343434;}
	.st12{opacity:0.1714;fill:#393939;}
	.st13{opacity:0.1857;fill:#3D3D3D;}
	.st14{opacity:0.2;fill:#424242;}
	.st15{opacity:0.2143;fill:#474747;}
	.st16{opacity:0.2286;fill:#4B4B4B;}
	.st17{opacity:0.2429;fill:#505050;}
	.st18{opacity:0.2571;fill:#555555;}
	.st19{opacity:0.2714;fill:#5A5A5A;}
	.st20{opacity:0.2857;fill:#5E5E5E;}
	.st21{opacity:0.3;fill:#636363;}
	.st22{fill:url(#SVGID_1_);}
	.st23{fill:#C1C1C1;}
	.st24{fill:#74797C;}
	.st25{fill:#DADBDB;}
</style>
<g>
	<g>
		<ellipse class="st0" cx="67.7" cy="40.4" rx="67.7" ry="6.3"/>
		<ellipse class="st1" cx="67.7" cy="40.4" rx="66.2" ry="6"/>
		<ellipse class="st2" cx="67.7" cy="40.4" rx="64.7" ry="5.7"/>
		<ellipse class="st3" cx="67.7" cy="40.4" rx="63.3" ry="5.5"/>
		<ellipse class="st4" cx="67.7" cy="40.4" rx="61.8" ry="5.2"/>
		<ellipse class="st5" cx="67.7" cy="40.4" rx="60.3" ry="5"/>
		<ellipse class="st6" cx="67.7" cy="40.4" rx="58.9" ry="4.7"/>
		<ellipse class="st7" cx="67.8" cy="40.4" rx="57.4" ry="4.5"/>
		<ellipse class="st8" cx="67.8" cy="40.4" rx="55.9" ry="4.2"/>
		<ellipse class="st9" cx="67.8" cy="40.4" rx="54.4" ry="4"/>
		<ellipse class="st10" cx="67.8" cy="40.4" rx="53" ry="3.7"/>
		<ellipse class="st11" cx="67.8" cy="40.4" rx="51.5" ry="3.4"/>
		<ellipse class="st12" cx="67.8" cy="40.4" rx="50" ry="3.2"/>
		<ellipse class="st13" cx="67.8" cy="40.4" rx="48.6" ry="2.9"/>
		<ellipse class="st14" cx="67.8" cy="40.4" rx="47.1" ry="2.7"/>
		<ellipse class="st15" cx="67.8" cy="40.4" rx="45.6" ry="2.4"/>
		<ellipse class="st16" cx="67.8" cy="40.4" rx="44.1" ry="2.2"/>
		<ellipse class="st17" cx="67.8" cy="40.4" rx="42.7" ry="1.9"/>
		<path class="st18" d="M109,40.4c0,0.9-18.4,1.7-41.2,1.7c-22.8,0-41.2-0.7-41.2-1.7c0-0.9,18.4-1.7,41.2-1.7
			C90.6,38.8,109,39.5,109,40.4z"/>
		<path class="st19" d="M107.6,40.4c0,0.8-17.8,1.4-39.7,1.4c-21.9,0-39.7-0.6-39.7-1.4c0-0.8,17.8-1.4,39.7-1.4
			C89.8,39,107.6,39.7,107.6,40.4z"/>
		<path class="st20" d="M106.1,40.4c0,0.6-17.1,1.1-38.3,1.1c-21.1,0-38.3-0.5-38.3-1.1c0-0.6,17.1-1.1,38.3-1.1
			C89,39.3,106.1,39.8,106.1,40.4z"/>
		<path class="st21" d="M104.6,40.4c0,0.5-16.5,0.9-36.8,0.9c-20.3,0-36.8-0.4-36.8-0.9c0-0.5,16.5-0.9,36.8-0.9
			C88.2,39.6,104.6,39.9,104.6,40.4z"/>
	</g>
	<g>
		<g>
			<g>
				<g>
					<radialGradient id="SVGID_1_" cx="66.0858" cy="24.0877" r="47.2785" gradientUnits="userSpaceOnUse">
						<stop  offset="0" style="stop-color:#B1B1B1"/>
						<stop  offset="1" style="stop-color:#808080"/>
					</radialGradient>
					<path class="st22" d="M121.9,13.3c0.1-0.6,0.2-1.2,0.6-1.7c1,0.1,1,0.9,1.1,1.6c0.3,1.9,0.6,3.7,0.8,5.6
						c0.1,0.8,0.6,1.5,0.6,2.4c0,0,0,0,0,0.1c0,0,0,0,0-0.1c1.3-0.1,2-0.7,1.8-1.7c0.4,0.2,0.7,0.4,1,0.5c-0.2,0.2-0.3,0.3-0.5,0.5
						c-0.1,0.1-0.1,0.2,0,0.3c0.1,0.1,0.3,0,0.3,0c0.3-1.1,1.8-0.8,2-2c0.6,1.6,0.7,3.1,0.8,4.6c0,0.4,0,0.8-0.2,1.2
						c-0.3,0.7-0.2,1.5-0.4,2.2c-0.1,0.3-0.2,0.8,0.2,1.1c0,0.2-0.1,0.5-0.1,0.7c-0.1,0.1-0.2,0.2-0.1,0.4c-0.1,1.1-0.2,2.1-0.6,3.1
						c-0.3,0.7-0.7,1.2-1.6,1.2c-1.1,0-2.2,0.1-3.4,0.1c-1.2,0-1.8-0.5-2.1-1.7c0.1-0.3,0.1-0.6-0.3-0.8c0,0,0,0,0,0
						c0-0.7-0.6-0.5-1-0.6c-0.8-0.1-1.5,0.1-2.3-0.4c-0.5-0.3-1.1,0.4-1,1.1c-0.3,0.8-0.8,1.4-1.8,1.3c-0.4,0-0.6,0.1-0.6,0.6
						c0,0.8-0.3,1.5-0.6,2.2c-0.2,0.4-0.5,0.7-0.9,0.9c-1.5-0.1-3,0.3-4.4-0.5c-0.8-1.2-0.6-2.7-0.8-4.1c-0.5,0.3-0.6,0.7-0.7,1.2
						c0,1-0.1,2.1-0.2,3.1c-0.2,1.3-0.6,2.6-1.1,3.8c-0.2,0.6-0.7,0.9-1.2,0.8c-0.5-0.1-1,0-1.4,0c-1.4,0.1-2.8,0.2-4.1-0.8
						c-0.7-0.5-2.2-0.3-2.9,0.3c-0.8,0.7-1.6,0.7-2.4,0.1c-0.4-0.3-0.7-0.7-0.8-1.2c-0.3-1-0.6-1.9-0.8-2.9
						c-0.3-1.2-0.6-2.4-0.9-3.6c-0.2-0.8-0.6-1.1-1.5-1.1c-1.4,0-2.8,0-4.2,0.4c-1.2,0.3-2.1-0.2-2.3-1.4c-0.3-1.1-0.4-2.3-0.5-3.5
						c-0.2-1.9-0.4-3.8-0.6-5.7c-0.1-1-1.9-1.7-2.7-1.1C80.1,19.9,80,20,80,20.2c0,0.7-0.3,1.4-0.3,2.1c-0.2,1.6-0.2,3.3-0.3,4.9
						c-0.1,1.1-0.1,2.2-0.2,3.4c-0.1,1.4-0.3,1.6-1.7,1.6c-1,0-2,0-3,0c-0.4,0-1,0-1-0.5c0-1.3-0.5-2.5-0.5-3.7
						c0-1.6-0.1-3.1-0.2-4.7c0-1-0.4-1.4-1.4-1.5c-1.5-0.2-2.6,0.4-2.6,2.4c-0.1,2.1-0.4,4.2-0.7,6.2c-0.2,1.2-1.2,2-2.4,1.6
						c-1.4-0.4-2.7-0.4-4.1-0.4c-1,0-1.5,0.4-1.8,1.3c-0.3,0.9-0.2,1.8-0.3,2.6c-0.1,0.9-0.9,1.5-1.2,2.3c-0.3,0.9-1.7,1.2-2.5,0.6
						c-1.2-0.9-2.4-0.8-3.6,0.1c-0.2,0.1-0.4,0.2-0.6,0.2c-1.4,0.3-2.9,0.2-4.3,0.1c-0.9,0-1.2-0.5-1.3-1.4c0-0.6,0.2-1.3-0.2-1.9
						c-0.2-1.7-0.3-3.5-0.5-5.2c-0.1-1.9-0.5-3.8-1.1-5.7c-0.4-1.2-1.1-1.5-2.2-0.9c-0.3,0.2-0.4,0.3-0.1,0.5
						c0.5,0.3,0.6,0.7,0.4,1.3c-0.2,1.1-0.7,2.2-0.9,3.3c-0.3,2.3-0.4,4.6-0.5,6.9c-0.1,0.9-0.2,1.7-0.3,2.6
						C40.3,39.9,40,41.5,38,42c-1,0.3-2.8-0.2-3.2-1.1c-0.2-0.6-0.5-1.1-0.9-1.6c-0.1-0.2-0.2-0.4-0.2-0.6c-0.1-1-0.2-2.1-0.3-3.1
						c0-1.1-0.1-2.3-0.1-3.4c0.2-0.7,0-1.4,0-2.2c-0.1,0.7-0.2,1.4-0.2,2.1c-1.2,0.1-2.4-0.1-3.6,0.2c-0.5,0.1-0.9-0.2-1.4-0.3
						c-0.1,0-0.1-0.1-0.2-0.1c-0.3-0.4-0.3-0.9-0.3-1.4c0.2-0.4,0.2-0.9-0.2-1.1c-0.3-0.2-0.6,0.2-0.8,0.4c-0.3,0-0.5,0-0.8,0
						c-0.1,0-0.1-0.1-0.2-0.1c-1.2,0-2.4-0.2-3.6,0c-1.3,0.2-2.2-0.8-3.4-0.7c-0.1,0-0.3-0.1-0.4-0.1c-0.3-0.3-0.8-0.3-1.1-0.2
						c-0.5,0.1-0.8,0-0.9-0.5c-0.1-0.4-0.4-0.4-0.7-0.3c-1.2,0.4-2.4,0.2-3.6,0.2c-2.3,0-4.6-0.2-6.9,0.2c-0.6,0.1-1.3,0-1.9,0.1
						c-0.6,0.1-0.9-0.4-0.9-1C2,27,2,26.7,1.8,26.5C1.4,25.5,2,24.1,3,24c0.9,0,1.8-0.2,2.7-0.2c3.1-0.1,6.2-0.2,9.3-0.2
						c0.2,0,0.6,0.1,0.7-0.2c0.1-0.3-0.3-0.4-0.5-0.6c-0.1-0.1-0.2-0.1-0.4-0.1c0.6,0,0.8-0.5,0.8-1c0-0.6,0.3-1.3-0.1-1.9
						c-0.1-0.2,0-0.5,0.2-0.5c0.6-0.2,0.8-0.7,1.1-1c0.3,0.3,0.4,0.7,0.2,0.9c-0.5,0.6-0.4,1.4-0.4,2.1c0,1,0.1,1.2,1.1,1.2
						c0.5,0,1.2,0.2,1.4-0.5c0.3-0.8,0.6-1.7,0.3-2.6c-0.1-0.3,0.1-0.6,0.1-0.9c0-0.2,0.2-0.4,0.4-0.4c0.3,0,0.3,0.3,0.2,0.5
						c-0.3,0.9-0.1,1.8-0.2,2.7c0,0.7,0.4,1.1,1,1c0.2,0,0.4-0.1,0.5,0c0.7,0.4,1.5,0.4,2.3,0.3c0.4-0.1,0.9-0.1,1.4,0.1
						c0.1,0.1,0.3,0,0.3,0.3c0,0.1-0.2,0.2-0.3,0.2c-0.9,0-1.8,0.1-2.6,0.1c-0.8,0-1.7-0.3-2.5,0.3c-0.2,0.2-0.5,0-0.7-0.1
						c-0.9-0.3-1.7-0.3-2.6,0.1c-0.1,0-0.3,0-0.3,0.2c0,0.2,0.1,0.3,0.3,0.3c0.2,0.1,0.4,0.2,0.6,0.1c1-0.3,2.1-0.1,3.1-0.1
						c2,0,4.1-0.2,6.1-0.3c0.5,0,0.6-0.2,0.5-0.6c0-0.4-0.2-0.9-0.1-1.2c0.3-0.8,0.4-1.6,0.4-2.4c0-0.6,0.1-1.2,0.4-1.7
						c0.1-0.2,0.1-0.5,0.4-0.4c0.3,0.1,0.4,0.3,0.4,0.6c-0.2,1,0,1.9,0.1,2.8c0.1,0.8,0.4,0.7,0.9,0.7c1,0,2-0.4,3-0.4
						c0.3,0,0.2-0.2,0.3-0.4c0.2-1,0.6-2,0.7-3.1c0.1-0.5,0.3-1,0.6-1.5c0.2,1.5-0.6,2.9-0.2,4.3c0.3-0.5,0.2-1,0.2-1.5
						c0-0.2,0-0.4,0.2-0.4c0.2,0,0.2,0.2,0.2,0.4c0,0.3,0,0.7,0,1c0.1,0.6,0.2,1.4,1.1,1.4c0.6,0,1.2,0.6,1.7,0
						c0.1-0.1,0.2,0.1,0.3,0.2c0.5,0.6,0.8,0.7,1.6,0.1c-0.4-0.1-1,0.2-1-0.6c0.4,0.2,0.9-0.3,1.1,0.2c0.4,0.7,0.7-0.1,0.7-0.1
						c0-0.5,0.3-0.9,0.4-1.4c0.4-2.2,0.3-4.4,0.3-6.6c0-0.8,0-1.6,0.3-2.4c0.1,0.6,0,1.1,0.1,1.7c0.1,0.9-0.4,2,0.7,2.5
						c0.2,1.3,1,2.4,1,3.8c0,0.8,0.5,1.4,1.1,1.3c0.8,0,0.6-0.7,0.7-1.1c0.2-1,0.2-2.1,0.6-3.1c0.2-0.7,0.4-1.4,0.4-2.1
						c0.4-1.6,0.2-3.3,0.3-4.9c0.4-0.1,0.5,0.2,0.5,0.5c0,0.5-0.1,1.1-0.1,1.6c-0.2,2,0.2,4,0.1,6.1c0,0.2,0.1,0.5,0.2,0.7l0,0
						c-0.2,0.1-0.2,0.3-0.1,0.4c0.4,0.9,0.1,2.1,1.2,2.7l0,0c-0.6-0.3-0.7,0.1-0.7,0.5c0,0.5,0.1,0.9,0.8,0.9c0.8,0,1.5-0.4,1.5-0.9
						c0,0,0,0,0.1,0c0,0,0,0,0,0c0,0,0,0-0.1,0.1c-0.2-0.1-0.6,0.1-0.3-0.4c0.5-0.9,0.9-1.8,0.9-2.9c0-0.7,0.4-0.7,0.9-0.8
						c0.6,0,0.5,0.4,0.4,0.8c0,0.1,0.1,0.3,0.1,0.4c0,0,0,0,0,0.1c0,0,0,0,0-0.1c0.4,0,0.5-0.2,0.5-0.5c0-0.8,0-1.7,0-2.5
						c0-0.8-0.1-1.6,0.3-2.4c0.2,0.8,0.3,1.6,0.3,2.5c0,0.3-0.1,0.6,0.2,0.7c0.1,1.5,0.1,2.9,0.2,4.4c-0.2,0.4,0,0.8-0.1,1.2
						c-0.1,0.5,0,1,0.3,1.3c1.2,0.9,1.4,2.2,1.5,3.6c0,0.2,0,0.4,0.2,0.4c0.2,0.1,0.3-0.1,0.5-0.2c0.4-0.3,0.4-0.8,0.4-1.2
						c-0.1-1.1,0-2.1,0.9-2.8c0.1-0.1,0.2-0.3,0.1-0.5c0.4-0.5,0.5-1.2,0.5-1.8c0-1,0.2-1.9,0.2-2.9c0.4-0.4,0.4-0.9,0.4-1.4
						c0-0.5,0.4-0.8,0.7-1.4c0,0.8,0.2,1.4,0,2.1c-0.2,0.8-0.5,1.6-0.1,2.4c0,0-0.1,0.1-0.1,0.1c-0.1,0.7,0,1.3,0,2
						c0,0.6,1,1.2,1.5,1.1c0.1,0,0.1-0.1,0.2-0.2c0.4-0.6,0.5-1.2,0.4-1.9c0-0.1,0-0.1,0-0.2c0.2-0.2,0.2-0.4,0.1-0.7
						c0-0.1,0-0.3,0.1-0.4c0.6-0.3,0.1-1,0.7-1.5c-0.5,1.9,0.4,3.6,0.4,5.4c-0.1,0-0.2,0.1-0.3,0.1c-0.5,0.1-0.9,0.4-1.4,0.7
						c-0.1,0.1-0.2,0.2-0.1,0.4c0.1,0.1,0.2,0,0.2-0.1c0.4,0.1,0.8,0.2,1,0c0.8-0.5,1.7-0.5,2.6-0.5c0.4,0,0.9,0,1.3-0.4
						c0.1,0,0.1-0.1,0.2-0.1c-0.1,0-0.1,0-0.2-0.1c0-0.1-0.1-0.2-0.1-0.3c-0.1-0.6,0.1-1.2,0.1-1.8c0-0.5,0.4-1,0.1-1.5
						c0-0.1,0-0.3,0-0.4c0.5-0.3,0.3-0.8,0.4-1.2c0.2-0.8,0.2-1.7,0.3-2.6c0.1-0.4,0.2-1,0.9-0.8c0.6,0.2,0.8-0.1,0.9-0.6
						c0.1-0.6,0.2-1.2,0.4-1.8c0.3,0.5,0.3,1,0.6,1.4c0.2,0.2,0.4,0.3,0.5,0.2c0.2-0.6,0.9-0.9,0.7-1.6c0.3-0.8,0.1-1.6,0.2-2.5
						c0.3-0.6,0.1-1.3,0.1-1.9c0-0.3,0-0.6,0.4-0.7c0,0,0,0,0,0c0.9,1.2,0.8,2.6,0.7,3.9c-0.1,1-0.2,1.8,0.4,2.7
						c0.2,0.3,0,0.6-0.3,0.8c-0.3,0.2-0.5,0.3-0.8,0.4c-0.8,0.3-1.4,0.9-1.7,1.7c-0.1,0.2-0.1,0.5,0.1,0.6c0.2,0.1,0.4,0.1,0.6,0
						c0.5-0.3,1-0.6,1.1-1.2c0.1-0.4,0.4-0.5,0.7-0.7c0.4,0,0.7,0,1.1,0c0.4,0,0.7-0.1,0.8-0.6c0-0.1,0.1-0.2,0.1-0.4
						c0-1.2,0.2-2.5,0.3-3.7c0-0.1,0-0.3,0.2-0.3c-0.1,1.4,0.3,2.8,0.3,4.2c0,0.2,0.1,0.4,0.4,0.3c0,0.6,0.4,0.5,0.8,0.6
						c1.8,0,3.6,0.1,5.4,0.1c0.3,0.2,0.5,0.2,0.8,0c0.1-0.1,0.1-0.3,0-0.4c-0.7-1.5-0.6-3.2-1-4.8c-0.3-1.2,0.2-2.8-1.9-3
						c-0.2,0-0.3-0.2-0.4-0.3c-0.4-0.1-0.2-0.3,0-0.5c0.5-0.5,1.3-0.6,1.9-0.6c0.5,0,0.6,0.8,0.8,1.4c0,0,0,0.1,0,0.2
						c0.3,1,0.2,2.1,0.6,3.1c0.2,0.7,0.4,1.3,0.2,2c-0.1,0.4,0.2,0.3,0.4,0.3c0.4,0,0.8,0.1,1.2,0.1c0.1,0.3,0.3,0.2,0.8,0.4
						c-0.3-0.4-0.3-0.7-0.8-0.7l0,0c-0.1-0.4-0.2-0.9-0.1-1.4c0.2-1,0.1-1.9,0.1-2.9c0-0.4,0.1-0.8,0.2-1.2c0-0.2,0.1-0.3,0.3-0.3
						c0.2,0,0.2,0.2,0.3,0.3c1.1,1.5,1.6,3.1,1.2,5c-0.1,0.5-0.3,1.1,0.2,1.5c0,0,0,0.1,0,0.1c0,0.3,0.1,0.6-0.4,0.7
						c-0.4,0.1-0.4,0.5-0.3,0.8c0.2,0.8,0.6,1.4,1.2,2c0-0.1,0-0.3,0-0.4c0-0.2-0.1-0.4,0.1-0.6c0.2-0.1,0.3,0,0.4,0.2
						c0.1,0.2,0.4,0.7,0.2,0.7c-0.6,0.2-0.3,0.7-0.3,1c0.1,1.2,1.4,1.8,1.5,3.1c0,0.1,0.1,0.1,0.2,0.1c0.4,0.1,0.4,0.4,0.5,0.7
						c0.2-0.2,0.2-0.5,0.2-0.7c0-0.1,0.1-0.2,0.2-0.2c0.1,0,0.2,0.1,0.2,0.2c-0.1,0.4,0.4,0.6,0.4,1c-0.3,0.1-0.8,0-0.9,0.4
						c0,0.2,0.2,0.4,0.6,0.3c1.3,0.7,2.6,0.4,3.9-0.1c0.1,0.1,0.1,0.1,0.3,0.1c0,0,0-0.1,0-0.1C92.4,23,92.3,23,92.2,23
						c0-0.1,0-0.1,0-0.2c0.1-0.6,0-1.2,0.2-1.8c0.1-0.2,0-0.6,0.3-0.6c0.3,0,0.5,0.3,0.6,0.5c0.2,0.4,0.3,0.7,0.3,1.2
						c0,0.5-0.1,1,0.1,1.5c-0.1,0.5-0.1,1,0.4,1.4c0.2,0.5,0.5,0.7,1,0.5c0.6-0.3,1.1-0.7,0.9-1.5c-0.1-0.4-0.2-0.8-0.2-1.1
						c0-3.1-0.1-6.1-1.1-9c0.7,0.5,0.8,1.3,0.9,2c0.4,2.6,0.8,5.1,1,7.7c0.1,0.9,0.7,1.4,1.6,1.6c0.4,0,0.7,0.1,0.5,0.6
						c-0.2,0.5-0.3,1.1-0.3,1.6c0,0.8-0.3,1.6,0.2,2.4c0,0.2,0,0.4,0,0.6c-0.3,0.2-0.1,0.5,0,0.7c0.7,0.8,0.1,1.2-0.3,1.7
						c-0.1,0.1-0.2,0.1-0.2,0.3c0.2,0,0.3,0,0.5,0c0.4,0,1.1,0.5,1.1-0.5c0.4-0.7,0.3-1.5,0.1-2.3c0.2-0.6,0.1-1.2,0-1.8
						c0.2-0.3,0.3-0.6-0.1-0.8c0-0.1,0-0.2,0-0.3c0.2-0.4,0-0.7-0.2-1.1c-0.3-0.6-0.3-1.1,0.2-1.6c0.3-0.3,0.4-0.6,0.5-0.9
						c0.1-0.7,0-1.4,0.2-2c0.4-1.3,0.5-2.7,0.2-4c-0.1-0.6-0.5-1-1.2-0.9c-0.4,0-0.8,0-1.1-0.3c0-0.6,0-1.3,0.1-1.9
						c1.1-0.2,1.6,0.1,2.1,1c0.1,0.3,0.2,0.9,0.5,0.9c0.9,0.2,0.6,0.8,0.7,1.3c0,0.7,0,1.3,0,2c0,1.1,0,1.2,1,0.7
						c0.1,0,0.2-0.1,0.4-0.1c0.4-0.2,0.5-0.1,0.6,0.3c0.1,0.5,0.3,1,0.4,1.5c0.1,0.6,0.4,0.9,0.9,1.1c0.5,0.2,1,0.8,1.3,0.7
						c0.9-0.4,0.8,0.4,1.1,0.8c0.1-0.2,0.2-0.3,0.3-0.4c0.4-0.9,0.6-1.9,0.6-2.9c0-0.5,0.1-1,0.1-1.5c0.2,0.2,0.4,0.4,0.4,0.6
						c0.1,0.8,0.4,1.6,0.8,2.3c0.4,0.6,0.8,1.1-0.1,1.5c0,0,0,0.1,0,0.1c-0.1,0.4,0.2,0.4,0.5,0.4c0.5,0.1,1,0,1.5-0.1
						c0.4,0.3,0.8,0.5,1.3,0.5c0.5,0,0.9-0.1,1.4-0.1c0.1,0.3,0,0.7,0.5,0.6c0.3,0,0.4-0.2,0.4-0.5c0-0.5-0.2-0.5-0.6-0.5
						c-0.7-0.1-1.3-0.4-2.1-0.5c-0.8,0-1-0.6-0.9-1.3c0.1-0.4,0.4-0.7,0.4-1.2c0-0.2,0-0.3,0.2-0.3c0.2,0,0.3,0.1,0.3,0.3
						c0.1,0.4,0.1,0.8,0.2,1.2c0.1,0.4,0.3,0.5,0.7,0.5c0.4-0.1,1-0.3,1-0.5c-0.1-0.7,0.3-1.3,0.4-1.9c0.2-0.9,0.3-2.1,0.9-2.6
						c1.1-0.9,1.1-2.4,2.2-3.2c0.1,0,0-0.2,0-0.4c0-0.1,0-0.3,0.2-0.4c0.2,0,0.2,0.1,0.3,0.3c0.4,1.2,0.9,2.3,0.8,3.6
						c-0.1,0.9,0.3,1.8,0.5,2.7c0.1,0.6,0.8,0.9,1.4,0.5c0.2-0.1,0.4,0,0.7,0c1.3,0.1,1.8-0.3,1.5-1.8c-0.1-0.3,0-0.6,0-0.9
						c0.2-0.1,0.1-0.4,0.1-0.6c0-0.6-0.1-1.3-0.2-1.9c-0.1-0.6-0.2-1.2-0.5-1.7C121.9,14.2,121.8,13.8,121.9,13.3z M40,26.9
						C40,27,40,27,40,26.9C40,27,40,27,40,26.9C40,27,40,27,40,26.9c0-0.2-0.1-0.3-0.3-0.3l0,0c-0.1-0.8-0.3-1.1-1.1-1.1
						c-1,0-2,0.1-3,0.2c-0.4,0-0.9,0.1-1.2,0.4c-0.2,0.2-0.3,0.4-0.3,0.6c0.1,0.3,0.4,0.2,0.6,0.2c0.8,0,1.6-0.1,2.4-0.1
						c0.8,0,1.7-0.4,2.5,0C39.7,27,39.8,27,40,26.9z M103.5,32.4c0.1-0.6,0.4-0.9,0.7-1.3c0.6-0.6,1-1.2,1.4-1.9
						c0.7-1.2,1.3-2.5,2.6-3.1c0.1-0.1,0.2-0.2,0.3-0.4c0-0.1,0.1-0.3,0-0.4c-0.1-0.1-0.3,0-0.4,0c-0.6,0.3-1.1,0.7-1.5,1.3
						c-0.5,0.7-0.8,1.7-1.4,2.3c-0.8,0.8-1.3,1.7-1.8,2.6C103.2,31.7,103.1,32,103.5,32.4z M48,25.6c-0.5,0.2-1.1,0.4-1.7,0.6
						c-0.2,0.1-0.3,0.4-0.3,0.6c0,0.2,0.2,0.2,0.4,0.1c1.3-0.4,2.6-0.2,3.9-0.3c0.2,0,0.6,0,0.5-0.4c-0.1-0.3-0.2-0.6-0.6-0.6
						C49.5,25.7,48.8,25.9,48,25.6z M120.6,23.3c0.6-0.1,1.3-0.1,1.9-0.3c0.5-0.1,0.7-0.2,0.3-0.8c-0.3-0.5-0.6-0.2-0.8-0.1
						c-0.8,0.3-1.6,0.4-2.3,0c-0.4-0.2-0.6,0-0.7,0.2c-0.2,0.2,0,0.5,0.2,0.6C119.7,23.2,120.2,23.1,120.6,23.3z M129.4,23.4
						c-0.8-0.6-4.2-0.6-5.2-0.1c0.3,0.5,0.7,0.5,1.2,0.4c0.9-0.2,1.8-0.1,2.7-0.2C128.5,23.6,128.9,23.7,129.4,23.4z M43.5,20.7
						c-0.1,0-0.3,0-0.4,0c-0.5,0-0.7,0.3-0.7,0.8c0,0.6,0.5,0.3,0.8,0.4c0.2,0,0.3-0.1,0.5-0.1c0.3-0.1,0.8-0.2,0.7-0.6
						C44.2,20.7,44,20.4,43.5,20.7z M102.7,27.4c0.1,0.4-0.1,1.1,0.5,1.1c0.5,0,0.8-0.5,0.8-1c0-0.5-0.4-0.8-0.9-0.9
						C102.5,26.7,102.8,27.2,102.7,27.4z M30.1,24.4C30.1,24.3,30.1,24.3,30.1,24.4c0.5-0.1,0.9-0.1,1.4-0.1c0.3,0,0.6,0,0.6-0.3
						c0-0.3-0.4-0.3-0.6-0.3c-0.6,0.1-1.1,0.2-1.7,0.1c-0.4,0-0.8,0-1.2,0c-0.2,0-0.3,0-0.3,0.2c0,0.2,0.2,0.3,0.4,0.3
						C29.1,24.4,29.6,24.4,30.1,24.4z"/>
					<path class="st23" d="M45.3,13.9c0,0.7-0.2,1.4-0.4,2.1c-0.3,1-0.4,2-0.6,3.1c-0.1,0.5,0,1.1-0.7,1.1c-0.6,0-1.1-0.6-1.1-1.3
						c0.1-1.4-0.8-2.5-1-3.8c-1.2-0.6-0.6-1.7-0.7-2.5c-0.1-0.5,0-1.1-0.1-1.7c-0.3,0.8-0.3,1.6-0.3,2.4c0,2.2,0,4.4-0.3,6.6
						c-0.1,0.5-0.4,0.9-0.4,1.4c0,0.1-0.3,0.9-0.7,0.1c-0.3-0.5-0.8,0.1-1.1-0.2c0,0.8,0.6,0.4,1,0.6c-0.8,0.5-1.1,0.5-1.6-0.1
						c-0.1-0.1-0.2-0.3-0.3-0.2c-0.6,0.6-1.2,0-1.7,0c-0.9,0-1-0.7-1.1-1.4c-0.1-0.3,0-0.7,0-1c0-0.2,0-0.4-0.2-0.4
						c-0.2,0-0.2,0.2-0.2,0.4c0,0.5,0.1,1-0.2,1.5c-0.4-1.4,0.4-2.8,0.2-4.3c-0.3,0.5-0.5,1-0.6,1.5c-0.1,1.1-0.5,2.1-0.7,3.1
						c0,0.2,0,0.4-0.3,0.4c-1,0-2,0.5-3,0.4c-0.5,0-0.8,0.1-0.9-0.7c-0.1-1-0.2-1.9-0.1-2.8c0-0.3-0.1-0.5-0.4-0.6
						c-0.3-0.1-0.3,0.2-0.4,0.4c-0.4,0.5-0.5,1.1-0.4,1.7c0,0.8,0,1.6-0.4,2.4c-0.1,0.3,0,0.8,0.1,1.2c0,0.4-0.1,0.6-0.5,0.6
						c-2,0.1-4.1,0.3-6.1,0.3c-1,0-2.1-0.2-3.1,0.1c-0.2,0.1-0.4,0-0.6-0.1c-0.1-0.1-0.3-0.1-0.3-0.3c0-0.2,0.2-0.2,0.3-0.2
						c0.9-0.4,1.7-0.4,2.6-0.1c0.2,0.1,0.5,0.2,0.7,0.1c0.8-0.7,1.7-0.4,2.5-0.3c0.9,0,1.8-0.1,2.6-0.1c0.1,0,0.3,0,0.3-0.2
						c0.1-0.2-0.2-0.2-0.3-0.3c-0.4-0.2-0.9-0.1-1.4-0.1c-0.8,0.1-1.6,0.2-2.3-0.3c-0.2-0.1-0.3,0-0.5,0c-0.7,0.1-1.1-0.3-1-1
						c0.1-0.9-0.1-1.8,0.2-2.7c0.1-0.2,0-0.4-0.2-0.5c-0.2,0-0.4,0.2-0.4,0.4c0,0.3-0.2,0.6-0.1,0.9c0.3,0.9,0,1.8-0.3,2.6
						c-0.2,0.7-0.9,0.5-1.4,0.5c-0.9,0-1-0.2-1.1-1.2c0-0.7-0.1-1.4,0.4-2.1c0.2-0.3,0.1-0.6-0.2-0.9c-0.4,0.4-0.6,0.9-1.1,1
						c-0.2,0.1-0.3,0.3-0.2,0.5c0.4,0.6,0.1,1.3,0.1,1.9c0,0.5-0.1,0.9-0.8,1c0.1,0,0.3,0,0.4,0.1c0.2,0.1,0.6,0.2,0.5,0.6
						c-0.1,0.3-0.4,0.2-0.7,0.2c-3.1,0.1-6.2,0.2-9.3,0.2C4.7,23.8,3.9,24,3,24c-0.9,0-1.6,1.4-1.1,2.4C2,26.7,2,27,2,27.3
						c0,0.6,0.3,1,0.9,1c0.7-0.1,1.3,0,1.9-0.1c2.3-0.4,4.6-0.1,6.9-0.2c1.2,0,2.4,0.2,3.6-0.2c0.4-0.1,0.6-0.1,0.7,0.3
						c0.1,0.4,0.4,0.6,0.9,0.5c0.4-0.1,0.8-0.1,1.1,0.2c0.1,0.1,0.3,0.2,0.4,0.1c1.2-0.1,2.1,0.9,3.4,0.7c1.2-0.2,2.4,0,3.6,0
						c0.1,0,0.1,0.1,0.2,0.1c-1.1,0.3-2.2,0.1-3.3,0.1c-1.1,0-2.2,0.2-3.3-0.4c-0.5-0.3-1.3-0.1-2-0.1c-0.5,0-0.9-0.1-1.2-0.5
						c-0.3-0.3-0.7-0.5-1.2-0.5c-2.4,0-4.8,0-7.2,0.1c-1.6,0.1-3.2,0.1-4.8,0.1c-0.5,0-0.9-0.1-1-0.6c-0.5-1.7-0.5-3.5-0.2-5.3
						c0.2,0.6,0.8,0.7,1.2,0.6C4,23,5.2,23.3,6.5,23.2c2.3-0.1,4.6-0.2,6.9-0.1c0.3,0,0.7,0,0.9-0.4c0,0,0,0,0-0.1c0,0,0,0,0,0.1
						c-1-0.1-2.1-0.3-3.1-0.2c-1.3,0.1-2.6-0.1-3.9,0.2c-1.3,0.3-2.5-0.2-3.8-0.1c-0.1,0-0.3,0-0.3-0.1c-0.4-0.6-1.1-0.3-1.6-0.5
						c-0.1-1.1,0-2.1,0.6-3c0.2-0.3,0.5-0.4,0.9-0.4c1.8,0.1,3.5,0,5.3,0.1c2.3,0.1,4.7-0.1,7-0.1c0.1,0,0.3,0,0.4-0.1
						c0.9-1.1,2.2-0.6,3.3-1c2.3-0.7,4.7-0.3,7-0.5c1.2-0.1,1.6-0.3,1.9-1.4c0.2-0.7,0.6-1.1,1.4-1c1,0,2.1,0,3.1,0
						c1,0,1.3-0.2,1.4-1.2c0.2-2.1,0.5-4.1,0.5-6.2c0-0.7,0.1-1.3,0.3-2C35.1,4.4,35.6,4,36.5,4c1,0,2-0.1,2.9,0.5
						c1.1,0.8,1.4,1.9,1.7,3.1c0.3,1.4,0.2,2.7,0.1,4.1c0,0.8,0.3,1.3,1,1.7C43.2,14.2,44.2,14.4,45.3,13.9z M35.9,15.3
						c-0.1,0-0.2,0-0.2,0c-0.2,0-0.4-0.5-0.5-0.1c-0.1,0.3,0.2,0.3,0.5,0.4c0.5,0.1,1,0.3,1.7,0.2c0.6-0.1,1.3,0.4,2.1,0.3
						c0.6-0.1,0.7-0.4,0.7-0.7c-0.1-1,0.2-1.9,0.1-2.8c0-0.3-0.1-0.7-0.1-1c-0.2-0.8-0.5-1.7-0.6-2.5c0-0.1-0.2-0.1-0.3-0.1
						c-0.9-0.3-1.8-0.5-2.6-0.7c-0.3-0.1-0.7-0.2-0.6,0.5c0.1,0.7-0.2,1.4-0.2,2C35.7,12.2,35.2,13.8,35.9,15.3z M26.6,19.7
						c-0.3,0.1-0.4,0.1-0.6,0.1c-1,0-2.1-0.2-3.1,0.2c-0.2,0.1-0.3,0-0.2-0.2c0.1-0.3-0.1-0.4-0.3-0.3c-0.4,0.1-0.8,0.1-1.1,0.1
						c-0.4,0-0.7,0.2-0.9,0.5c-0.3,0.4-0.1,0.7,0.3,0.9c0.5,0.2,0.8,0.5,1.1-0.1c0,0,0.2,0,0.2,0c0.2,0.2,0.8-0.5,0.8,0.3
						c0,0,0.1,0,0.1,0c0.6-0.3,1,0.2,1.5,0.3c0.5,0.1,1.1,0,1.5,0C26.6,21.2,26.6,20.4,26.6,19.7z M32.1,19.3c0.1-1,0.1-1-0.8-1
						c-0.4,0-0.8,0.3-1.2,0.1c-0.4-0.2-0.8-0.1-1.1,0c-0.3,0.1-0.3,0.5-0.2,0.8c0.1,0.2,0.2,0.4,0.1,0.7c0,0.6,0.4,0.7,0.7,0.6
						c0.5-0.1,1-0.2,1.5-0.2C31.9,20.4,32.2,20,32.1,19.3z M44.2,17.6c0.1-0.3-0.1-0.5-0.3-0.7c-0.1-0.1-0.3-0.1-0.4,0
						c-0.4,0.3-0.6,1.4-0.4,1.9c0.1,0.2,0.2,0.3,0.4,0.2c0.1-0.1,0.5,0,0.4-0.2C43.8,18.3,44.3,18,44.2,17.6z M35.3,6.2
						c0.5-0.3,0.7-0.6,0.6-1.1C35.7,5.4,35.1,5.6,35.3,6.2z M25.8,22.9c0,0-0.1,0-0.1,0C25.7,22.9,25.7,22.9,25.8,22.9
						C25.7,22.9,25.7,22.9,25.8,22.9z M36,21.2L36,21.2L36,21.2L36,21.2z"/>
					<path class="st23" d="M112.5,25.3c-0.5,0.1-0.9-0.1-1.3-0.5c0.4-0.5-0.1-0.4-0.3-0.5c-0.6-0.1-1.1,0-1.6,0.1c0-0.1,0-0.1,0-0.1
						c1-0.4,0.6-0.8,0.1-1.5c-0.4-0.7-0.8-1.4-0.8-2.3c0-0.2-0.1-0.4-0.4-0.6c0,0.5-0.2,1-0.1,1.5c0,1-0.2,2-0.6,2.9
						c-0.1,0.1-0.2,0.2-0.3,0.4c-0.3-0.4-0.2-1.2-1.1-0.8c-0.3,0.1-0.8-0.5-1.3-0.7c-0.5-0.2-0.8-0.5-0.9-1.1
						c-0.1-0.5-0.3-1-0.4-1.5c-0.1-0.5-0.3-0.5-0.6-0.3c-0.1,0.1-0.2,0.1-0.4,0.1c-1,0.4-1,0.4-1-0.7c0-0.7,0-1.3,0-2
						c0-0.5,0.2-1.2-0.7-1.3c-0.3-0.1-0.3-0.6-0.5-0.9c-0.5-1-1-1.3-2.1-1c0.1-3.1,0.4-6.3,0.6-9.4c0-0.5,0-1,0.1-1.4
						c0.2-1,0.6-1.4,1.6-1.4c0.9-0.1,1.8-0.1,2.7,0c0.5,0,1,0.1,1.1,0.8c-0.5-0.1-0.9-0.1-0.8,0.6c0,0.2-0.1,0.4-0.3,0.4
						c-0.5-0.1-0.7,0.2-0.8,0.5C102.6,4.8,102.3,5,102,5c-0.3,0-0.8-0.3-1.1,0.1c-0.1,0.1-0.3-0.1-0.3-0.3c0.1-0.8-0.5-0.9-1.1-1.4
						c-0.1,2.4,0,4.6,0.5,6.9c0.1-0.5,0.1-1,0.1-1.5c0.1-0.8,0.2-1.6,1-2c0.3-0.1,0.6-0.1,0.3-0.5c-0.2-0.2,0.2-0.6,0.4-0.7
						c0.4-0.1,0.2,0.3,0.3,0.4c0.4,0.5,0.5,1.2,0.9,1.7c0.6,0.9,0.6,1.8,0.2,2.8c-0.2,0.5-0.8,1.1,0.1,1.7c0.1,0.1,0.1,0.3,0.2,0.5
						c0.4,0.9,0.9,1.8,2,2c0.5,0.6,1,1.3,1.8,1.7c0.5,0.9,1.1,1.6,2.3,1.4c0.6-0.1,2.2-1.6,2.3-2.2c0-0.1,0-0.2,0-0.4
						c-0.2-1.3-0.2-2.6,0.3-3.8c0.1-0.3,0.2-0.7,0.2-1c0.2-1.8-0.4-3.7,0.4-5.5c0.3-0.8,0.1-1.8-0.2-2.8C112,2.9,112.3,4,111.8,5
						c-0.7-0.7-0.5-1.6-0.6-2.3c0-0.6-0.4-0.8-1-0.5c-0.2,0.1-0.3,0.3-0.4,0.6c-0.4,1-0.7,2-1.1,2.9c0-2.2,0.6-4.1,2.7-5.3
						c1.3-0.8,3.6-0.2,4.3,1.1c0.1,0.2,0.2,0.5,0.1,0.7c-0.3-0.1-0.3-0.6-0.6-0.7c-0.3,0.3-0.3,0.6-0.2,0.9c0.4,0.8,0,1.5-0.2,2.2
						c0,0.2-0.1,0.2,0,0.4c0.4,0.6,0.5,1.3,0.7,2c0.2,1,0.3,2,0.5,3c0.1,0.3,0,0.7,0.4,0.9c0.4,0.6,0.3,1.4,0.8,2
						c0.3,0.4,0.6,0.7,1.1,0.7c1.2,0,2.3,0.1,3.5-0.2c0,0.5,0,0.9,0.4,1.4c0.4,0.5,0.5,1.1,0.5,1.7c0.1,0.6,0.2,1.3,0.2,1.9
						c0,0.2,0.1,0.4-0.1,0.6c-0.4-0.4-0.1-1-0.3-1.4c-0.2-0.5-0.3-0.7-0.9-0.6c-0.4,0.1-0.7,0.4-1.1,0.3c-0.5-0.1-0.7,0.1-0.9,0.5
						c-0.3,0.4-0.1,0.8,0,1.2c0,0.2-0.3,0.7,0.4,0.6c0.2,0,0.6,0.3,0.8,0.1c0.4-0.4,0.7-0.2,1.1,0.1c0.2,0.2,0.5,0.2,0.8,0.2
						c0.3,1.5-0.2,1.9-1.5,1.8c-0.2,0-0.4-0.1-0.7,0c-0.6,0.3-1.2,0.1-1.4-0.5c-0.2-0.9-0.5-1.8-0.5-2.7c0.1-1.3-0.4-2.4-0.8-3.6
						c0-0.1-0.1-0.3-0.3-0.3c-0.2,0-0.2,0.2-0.2,0.4c0,0.1,0,0.3,0,0.4c-1.1,0.8-1.1,2.3-2.2,3.2c-0.7,0.5-0.8,1.7-0.9,2.6
						c-0.1,0.6-0.6,1.2-0.4,1.9c0,0.2-0.6,0.5-1,0.5c-0.3,0-0.6-0.1-0.7-0.5c-0.1-0.4-0.1-0.8-0.2-1.2c0-0.2-0.1-0.3-0.3-0.3
						c-0.2,0-0.2,0.1-0.2,0.3c0.1,0.4-0.3,0.8-0.4,1.2c-0.1,0.7,0.1,1.3,0.9,1.3c0.7,0,1.4,0.3,2.1,0.5c0.3,0.1,0.6,0.1,0.6,0.5
						c0,0.3-0.1,0.5-0.4,0.5c-0.5,0.1-0.4-0.3-0.5-0.6c-0.2-0.3-1.3-0.5-1.5-0.2C112.3,25,112.5,25.2,112.5,25.3z M103.9,17.1
						c0,1.1-0.9,1.9-1,3c1.1-0.4,1.9-1,2.4-2.1c0.2-0.4,0.3-0.7-0.2-1.1c-0.4-0.3-0.8-0.4-1.2,0c-0.1-0.2,0.1-0.6-0.4-0.6
						c-0.5,0-1-0.1-1.5,0.1c-0.2,0.1-0.1,0.3,0.1,0.3C102.8,16.9,103.3,17.3,103.9,17.1z M105.6,22.5c0.5-0.1,1-0.4,1.5-0.1
						c0.1,0,0.2,0,0.2,0c0-0.6,0.8-1.1,0.4-1.9c-0.1-0.3-0.2-0.6-0.2-0.9c0-0.5-0.5-1-1-0.8c-0.8,0.3-1.6,0.6-2.1,1.3
						c-0.2,0.3-0.3,0.6-0.1,1c0.2,0.3,0.4,0.5,0.8,0.4c0.3-0.1,0.7,0.1,0.9,0.3C106.1,22.1,105.6,22.2,105.6,22.5z M115.1,7.8
						c-0.2-0.4-0.2-0.9-0.4-1.3c-0.1-0.4-0.5-0.4-0.9-0.4C113,6,113,6,113,7c0,0.7,0,1.4,0,2.1c0,0.3-0.2,0.7,0.3,0.8
						c0.5,0.1,1,0.4,1.5-0.1C115.4,9.2,114.9,8.5,115.1,7.8z M112.3,20.4c0.1,0.3,0.2,0.6,0.2,0.8c0,0.4,0.2,0.8,0.6,0.7
						c0.3-0.1,0.6-0.4,0.7-0.8c0.2-0.6,0.3-1.2,0.5-1.8c0-0.1,0.2-0.2,0.1-0.4c-0.2-0.2-1.4-0.5-1.7-0.4c-0.2,0.1-0.4,0.3-0.3,0.5
						C112.5,19.5,112.5,20,112.3,20.4z M111.3,21.3c0.1-0.6,0-1-0.1-1.5c-0.1-0.5-0.5-0.5-0.9-0.6c-0.4-0.1-0.3,0.3-0.5,0.5
						c-0.5,0.5-0.3,1.2-0.1,1.7c0.1,0.5-0.2,1.6,1,0.8c0,0,0.1,0,0.2,0.1c0.3,0.1,0.4-0.1,0.4-0.3C111.3,21.7,111.3,21.5,111.3,21.3
						z M101.6,8.2c-0.9,0-1.3,0.3-1.2,1.1c0.1,0.9,0.9,0.4,1.3,0.6c0.4,0.1,0.8-0.1,0.6-0.5C102.2,8.9,102.6,8,101.6,8.2z
						 M114.6,3.4c0.1-0.6,0-1.1-0.6-1.4c-0.3-0.1-0.5-0.4-0.8-0.2C113,2.1,112.9,2.5,113,3c0.1,0.4,0.4,0.3,0.6,0.3
						C113.9,3.4,114.3,3.4,114.6,3.4z M101.3,3.8c0.3,0,0.6,0,0.6-0.3c0-0.4-0.4-0.2-0.6-0.2c-0.2,0-0.6-0.2-0.6,0.2
						C100.6,3.7,101,3.8,101.3,3.8z M112,20.6c0-0.4,0.1-0.7-0.1-0.9c-0.1-0.1-0.2,0-0.2,0.1C111.6,20.1,111.6,20.3,112,20.6z
						 M114.6,13.6c-0.3-0.2-0.5-0.3-0.8,0c0,0,0,0.2,0,0.2C114.1,14,114.3,13.8,114.6,13.6z M112,20.9C112,21,111.9,21,112,20.9
						c-0.1,0.1-0.1,0.1-0.1,0.2c0,0.1,0.1,0.1,0.1,0C112,21,112,21,112,20.9z"/>
					<path class="st23" d="M84.6,13.8c-0.5-0.4-0.3-1-0.2-1.5c0.4-1.9-0.1-3.5-1.2-5c-0.1-0.1-0.1-0.3-0.3-0.3
						c-0.2,0-0.2,0.2-0.3,0.3c-0.1,0.4-0.2,0.8-0.2,1.2c0,1,0.1,1.9-0.1,2.9c-0.1,0.5,0,0.9,0.1,1.4c-0.4,0-0.9-0.5-1.2,0.2
						c-0.2,0-0.5,0.1-0.4-0.3c0.2-0.7,0-1.4-0.2-2c-0.4-1-0.3-2.1-0.6-3.1c0,0,0-0.1,0-0.2c-0.2-0.5-0.3-1.4-0.8-1.4
						c-0.6,0-1.3,0.2-1.9,0.6c-0.2,0.2-0.4,0.3,0,0.5c0.2,0.1,0.3,0.3,0.4,0.3c2,0.1,1.6,1.8,1.9,3c0.4,1.6,0.3,3.2,1,4.8
						c0.1,0.2,0.1,0.3,0,0.4c-0.2,0.2-0.5,0.2-0.8,0c-0.4-0.6-0.9-0.8-1.6-0.8c-1.5,0.1-3,0.2-4.5,0.1c-0.3,0.1-0.4-0.1-0.4-0.3
						c0-1.4-0.4-2.8-0.3-4.2c-0.3,0-0.2,0.2-0.2,0.3c-0.1,1.2-0.3,2.5-0.3,3.7c0,0.1-0.1,0.2-0.1,0.4c-0.3-0.1-0.5-0.2-0.8-0.2
						c-0.5,0.1-1.1,0-1.1,0.7c-0.3,0.1-0.6,0.3-0.7,0.7c-0.2,0.6-0.7,0.9-1.1,1.2c-0.2,0.1-0.4,0.1-0.6,0c-0.2-0.2-0.2-0.4-0.1-0.6
						c0.4-0.8,0.9-1.4,1.7-1.7c0.3-0.1,0.6-0.2,0.8-0.4c0.3-0.2,0.5-0.5,0.3-0.8c-0.6-0.8-0.5-1.7-0.4-2.7c0.1-1.3,0.2-2.7-0.7-3.9
						c0.5,0,0.9,0.3,1.4,0.3c1.2-0.1,2-0.8,2-2c0-0.6,0.1-1.2,0.2-1.8c0.3-1.3,0.3-1.3,1.6-1.3c0.8,0,1.6,0,2.4-0.1
						c1.2-0.1,1.6,0.3,1.7,1.2c0.1,0.7,0.2,1.5,0.9,1.9c0.7,0.5,1.5,0.4,2.4-0.3C83,4.8,83.7,4.5,84.5,5c0.3,0.2,0.5,0.3,0.6,0.6
						c0.7,1.7,1.1,3.5,1.7,5.3c0,0.1,0,0.3,0,0.4c-0.1,0-0.3,0-0.4,0c-0.4,0-0.6-0.3-0.9-0.5c-0.5-0.2-0.8-0.2-0.8,0.5
						C84.7,12.1,84.6,12.9,84.6,13.8z M75.4,8.1c-0.7,0.1-0.7,1.1-1.5,1c0,0-0.1,0.2-0.1,0.3c-0.1,0.6-0.2,1.2-0.1,1.9
						c0.1,0.3,0.1,1.1,0.8,0.7c0.1-0.1,0.3,0,0.4,0.1c0.3,0.3,0.5,0.1,0.6-0.1c0.1-0.1,0.1-0.3,0.2-0.2c0.5,0.3,1.1,0.3,1.5,0.6
						c0.3,0.2,1.6,0.4,1.8,0.2c0.1-0.1,0.2-0.1,0.2-0.3c0-0.2-0.2-0.2-0.3-0.2c-1-0.4-2-0.8-2.7-1.7c-0.3-0.3-0.4-0.8-0.8-1
						C75.1,9,74.9,8.7,75.4,8.1z M72,11.4c-0.1-0.2,0.2-1-0.5-1c-0.8,0-0.6,0.6-0.5,1.1c0,0,0,0.1,0,0.1c0.1,0.3-0.2,0.8,0.4,0.7
						C71.8,12.3,72.1,12.1,72,11.4z M81.9,9.7c0.2-0.2,0-0.5,0-0.8c0-0.2-0.2-0.3-0.4-0.3c-0.7,0.1-0.3,0.6-0.4,1
						c-0.1,0.4,0,0.8,0.4,0.9c0.2,0,0.4-0.1,0.4-0.4C82,10,81.9,9.9,81.9,9.7z"/>
					<path class="st23" d="M93.7,23.6c-0.2-0.5,0-1-0.1-1.5c0-0.4-0.2-0.8-0.3-1.2c-0.1-0.2-0.3-0.6-0.6-0.5c-0.3,0-0.2,0.4-0.3,0.6
						c-0.2,0.6-0.1,1.2-0.2,1.8c-1.2-0.1-2.4,0.3-3.7,0.2c-0.1,0-0.1,0.1-0.2,0.1c-0.3,0.1-0.6-0.1-0.6-0.3c0.1-0.4,0.5-0.3,0.9-0.4
						c0-0.4-0.4-0.6-0.4-1c0-0.1-0.1-0.2-0.2-0.2c-0.1,0-0.2,0.1-0.2,0.2c-0.1,0.2,0,0.5-0.2,0.7c-0.1-0.3-0.1-0.6-0.5-0.7
						c-0.1,0-0.2-0.1-0.2-0.1c-0.1-1.2-1.4-1.9-1.5-3.1c0-0.3-0.3-0.8,0.3-1c0.2-0.1,0-0.5-0.2-0.7c-0.1-0.1-0.2-0.3-0.4-0.2
						c-0.2,0.1-0.1,0.4-0.1,0.6c0,0.1,0,0.2,0,0.4c-0.6-0.5-1.1-1.2-1.2-2c-0.1-0.3,0-0.8,0.3-0.8c0.5-0.1,0.4-0.4,0.4-0.7
						c0.3-0.2,0.5-0.5,1-0.3c0.2,0.1,0.3-0.1,0.4-0.3c0.4-0.4,0-1,0.4-1.4c0.2,0.2,0.3,0.5,0.3,0.8c0.2,1.6,0,3.2,0.3,4.8
						c0.1,0.5,0.2,0.9,0.6,1.3c0.3-1.8,0.3-3.6-0.3-5.3c1.6,0.6,3.2,0.7,4.8,0c0.8-0.3,1.7-0.1,2.5,0.1c0,0,0,0.2,0.1,0.3
						c1,2.9,1.1,6,1.1,9c0,0.4,0.1,0.8,0.2,1.1c0.2,0.8-0.3,1.2-0.9,1.5c-0.5,0.2-0.8,0-1-0.5c0.3-0.1,0.5-0.2,0.8-0.2
						c0.5,0,0.6-0.5,0.7-0.8c0.1-0.5-0.1-1-0.3-1.3c-0.2-0.3-1.1,0-1.3,0.4C93.9,23.2,94.1,23.5,93.7,23.6z M88.7,19.3
						c0,0,0,0.2-0.1,0.4c0,0.2,0.1,0.4,0.2,0.4c0.9-0.2,1.9,0.3,2.7-0.2c0.7-0.4,0.9-2.6,0.2-3.1c-0.1-0.1-0.2-0.1-0.3-0.1
						c-0.8,0.2-1.5-0.1-2.3-0.3c-0.3-0.1-0.4,0.1-0.5,0.4C88.6,17.7,88.8,18.4,88.7,19.3z M94.9,18.8c0.2-1-0.8-1.1-1.3-1.7
						c-0.2-0.2-0.5-0.4-0.8-0.3c-0.4,0.2,0.2,0.4,0.1,0.7c0,0.2,0,0.4,0,0.5c-0.1,0.6,0.2,1.2,0.4,1.8c0.1,0.1,0.1,0.4,0.3,0.3
						c0.4-0.2,0.8-0.3,1.2-0.5C95,19.5,94.8,19.1,94.9,18.8z"/>
					<path class="st23" d="M48.9,21.4c0,0.5-0.7,0.9-1.5,0.9c-0.7,0-0.7-0.4-0.8-0.9c0-0.5,0.2-0.8,0.7-0.5c0,0,0,0,0,0c0,0,0,0,0,0
						c-1.1-0.6-0.8-1.8-1.2-2.7c-0.1-0.1,0-0.3,0.1-0.4c0,0,0,0,0,0l0,0c-0.1-0.2-0.2-0.5-0.2-0.7c0.1-2-0.3-4-0.1-6.1
						c0.1-0.5,0.1-1.1,0.1-1.6c0-0.3,0-0.6-0.5-0.5c0-1.4,0.7-2.1,2-2.2c0.8,0,1.6,0,2.4,0c1.1,0,1.4,0.4,1.5,1.5
						c0,0.8,0.2,1.6,0.2,2.4c0,1.9,0.4,3.8,0.2,5.6c-0.3-0.2-0.2-0.5-0.2-0.7c0-0.8-0.1-1.6-0.3-2.5c-0.4,0.8-0.2,1.6-0.3,2.4
						c0,0.8,0,1.7,0,2.5c0,0.3-0.1,0.6-0.5,0.5l0,0c0-0.1-0.1-0.3-0.1-0.4c0.1-0.4,0.2-0.8-0.4-0.8c-0.5,0-0.9,0-0.9,0.8
						c0,1-0.3,2-0.9,2.9C48.3,21.5,48.7,21.4,48.9,21.4L48.9,21.4z M48.8,11.3c-0.2-0.3,0-0.9-0.6-0.9c-0.7,0.1-0.8,0.5-0.7,1.1
						c0,0.2,0.2,0.5,0.1,0.7c-0.7,1,0.4,1.8,0.1,2.7c0.3,0,0.3-0.2,0.4-0.2c0.2-0.1-0.2-0.6,0.3-0.5c0.3,0.1,0.6-0.1,0.8,0
						c0.2,0.1,0.2,0.6,0.6,0.4c0.3-0.2-0.1-0.6-0.1-0.9c0-0.1-0.1-0.2,0.1-0.3c0.5,0,0.3,0.7,0.7,0.8c0.2-0.2,0.3-0.5,0.1-0.7
						c-0.6-0.5-0.5-1.3-0.8-1.9C49.4,11,49.2,11.1,48.8,11.3z"/>
					<path class="st23" d="M69.7,7.3c-0.4,0.1-0.4,0.4-0.4,0.7c-0.1,0.6,0.2,1.3-0.1,1.9c-0.5-0.2-0.8,0-1,0.6
						c-0.1,0.4-0.2,0.8-0.2,1.2c0,0.8,0.1,0.9,0.9,0.7c0.2,0.7-0.5,1-0.7,1.6c0,0.2-0.3,0-0.5-0.2c-0.3-0.4-0.3-0.9-0.6-1.4
						c-0.1,0.6-0.3,1.2-0.4,1.8c-0.1,0.5-0.3,0.8-0.9,0.6c-0.7-0.2-0.8,0.4-0.9,0.8c-0.2,0.8-0.2,1.7-0.3,2.6
						c-0.1,0.4,0.1,0.9-0.4,1.2c0-0.4,0-0.7-0.1-1.1c-0.1-0.7-0.5-1-1.2-0.8c-0.2,0.1-0.4,0.1-0.6-0.1c-0.7-0.3-1.6,0.3-1.6,1
						c0,0.2,0,0.5,0,0.7c0.1,0.4-0.2,1.1,0.2,1.3c0.3,0.2,0.9,0,1.3,0c1.1,0,1.3-0.1,2-0.8c0.3,0.5-0.1,1-0.1,1.5
						c0,0.6-0.1,1.2-0.1,1.8c-1.1,0.1-2.2,0.1-3.3,0.2c0-1.8-0.9-3.5-0.4-5.4c-0.6,0.4-0.1,1.2-0.7,1.5c0.1-0.5-0.2-1-0.2-1.5
						c0-0.4,0-0.9-0.5-1c-0.7-0.1-1,0.2-1.2,0.9c-0.1,0.5-0.2,1-0.1,1.5c0.1,0.2-0.1,0.3-0.3,0.3c-0.4-0.8-0.1-1.6,0.1-2.4
						c0.2-0.6,0-1.2,0-2.1c-0.3,0.6-0.7,0.9-0.7,1.4c0,0.5,0,1-0.4,1.4c0-1.1,0.2-2.3,0.4-3.4c0.1-0.6,0.7-0.9,1.3-0.9
						c0.7-0.1,1.3,0,2,0.2c1.2,0.4,2.5,0.3,3.7,0.1c1-0.2,1.3-1.2,1.2-2c-0.2-1.8,0.8-3.1,1.4-4.6C67.2,6.2,68.9,6.3,69.7,7.3z"/>
					<path class="st23" d="M130.1,27.9c-0.4-0.3-0.3-0.8-0.2-1.1c0.2-0.7,0.1-1.5,0.4-2.2c0.1-0.4,0.2-0.8,0.2-1.2
						c-0.1-1.5-0.2-3-0.8-4.6c-0.3,1.2-1.7,0.9-2,2c0,0.1-0.2,0.1-0.3,0c-0.1-0.1-0.1-0.2,0-0.3c0.1-0.2,0.3-0.3,0.5-0.5
						c-0.3-0.2-0.6-0.3-1-0.5c0.1,1-0.5,1.6-1.8,1.7l0,0c0-0.8-0.5-1.6-0.6-2.4c-0.2-1.9-0.5-3.7-0.8-5.6c-0.1-0.7,0-1.5-1.1-1.6
						c0.1-0.6,0.6-0.7,1.1-0.7c1.3,0,2.6,0,4,0c0.5,0,0.8,0.3,1.1,0.6c0.6,0.9,0.9,1.9,0.9,2.9c-0.5-0.3-0.5-0.3-1-0.2
						c0.6,0.4,0.9,1.2,0.8,2c-0.1,0.6,0.2,1.1,0.2,1.7c1,0.1,0.8,0.9,0.8,1.5c0.1,1.1,0.2,2.1,0.3,3.2c0.1,0.8,0.1,1.5-0.1,2.3
						c-0.2,0.7-0.3,1.4-0.3,2.2c0,0,0,0.1,0,0.1c0,0,0,0-0.1,0c0,0.1,0.1,0.1,0.1,0.2C130.4,27.6,130.3,27.7,130.1,27.9z"/>
					<path class="st24" d="M108.8,5.7c0.4-1,0.8-2,1.1-2.9c0.1-0.3,0.2-0.5,0.4-0.6c0.5-0.3,0.9-0.1,1,0.5c0,0.8-0.2,1.6,0.6,2.3
						c0.4-1,0.2-2.1,0.6-3.2c0.3,1,0.5,2,0.2,2.8c-0.7,1.8-0.2,3.7-0.4,5.5c0,0.4-0.1,0.7-0.2,1c-0.5,1.2-0.5,2.5-0.3,3.8
						c0,0.1,0,0.3,0,0.4c-0.1,0.6-1.7,2.1-2.3,2.2c-1.1,0.2-1.8-0.5-2.3-1.4c0.9,0.3,0.8,0.3,1-0.7c0.2-2.1,0-4.2,0.3-6.2
						C108.6,8.1,108.5,6.9,108.8,5.7z"/>
					<path class="st24" d="M105.3,14.5c-1.1-0.2-1.6-1-2-2c-0.1-0.2-0.1-0.4-0.2-0.5c-0.9-0.5-0.3-1.1-0.1-1.7
						c0.5-1,0.5-1.8-0.2-2.8c-0.3-0.5-0.4-1.2-0.9-1.7c-0.1-0.1,0.1-0.5-0.3-0.4c-0.2,0.1-0.5,0.4-0.4,0.7c0.3,0.5,0,0.4-0.3,0.5
						c-0.8,0.4-0.9,1.2-1,2c0,0.5,0,1-0.1,1.5c-0.5-2.2-0.6-4.5-0.5-6.9c0.6,0.4,1.2,0.6,1.1,1.4c0,0.2,0.2,0.4,0.3,0.3
						c0.4-0.4,0.8-0.1,1.1-0.1c0.4,0,0.6-0.2,0.7-0.4c0.2-0.4,0.3-0.7,0.8-0.5c0.2,0,0.3-0.2,0.3-0.4c-0.1-0.7,0.3-0.7,0.8-0.6
						c0,0.1,0,0.2,0,0.2c-0.1,0.1-0.1,0.2,0,0.3c0.3,1.8,0.3,3.7,0.4,5.5C105.2,10.9,105.3,12.7,105.3,14.5z"/>
					<path class="st23" d="M98.7,29.7c-0.5-0.7-0.2-1.6-0.2-2.4c0-0.5,0.1-1.1,0.3-1.6c0.2-0.5-0.1-0.6-0.5-0.6
						c-0.1-2.1-0.1-4.2-0.2-6.4c0-0.8,0.1-1.5,0.3-2.2c0.3,0.3,0.7,0.3,1.1,0.3c0.7-0.1,1,0.3,1.2,0.9c0.2,1.4,0.2,2.7-0.2,4
						c-0.2,0.6-0.1,1.4-0.2,2c-0.1,0.4-0.2,0.7-0.5,0.9c-0.5,0.4-0.5,1-0.2,1.6c0.2,0.3,0.4,0.7,0.2,1.1c-0.5-0.2-1,0.1-1,0.7
						C98.7,28.6,98.7,29.2,98.7,29.7z"/>
					<path class="st24" d="M14.2,22.6c-0.1,0.5-0.5,0.4-0.9,0.4c-2.3,0-4.6,0.1-6.9,0.1c-1.2,0-2.4-0.2-3.7,0.1
						c-0.4,0.1-1,0-1.2-0.6c0-0.3,0-0.6,0-0.9c0.5,0.2,1.2-0.1,1.6,0.5c0,0.1,0.2,0.1,0.3,0.1c1.3-0.2,2.5,0.4,3.8,0.1
						c1.3-0.3,2.6,0,3.9-0.2C12.1,22.3,13.2,22.6,14.2,22.6L14.2,22.6z"/>
					<path class="st24" d="M130.3,27c0-0.7,0.1-1.5,0.3-2.2c0.2-0.7,0.2-1.5,0.1-2.3c-0.2-1-0.2-2.1-0.3-3.2
						c-0.1-0.6,0.2-1.4-0.8-1.5c0-0.6-0.3-1.1-0.2-1.7c0.2-0.8-0.2-1.6-0.8-2c0.4-0.2,0.4-0.2,1,0.2c0.3,1.8,1.3,3.4,1.4,5.3
						c0.1,1,0.4,2,0.3,3c0,1.5-0.4,2.9-0.7,4.3C130.6,27,130.4,27,130.3,27z"/>
					<path class="st24" d="M116.5,10.8c-0.4-0.2-0.4-0.6-0.4-0.9c-0.2-1-0.3-2-0.5-3c-0.2-0.7-0.3-1.4-0.7-2c-0.1-0.1-0.1-0.2,0-0.4
						c0.2-0.7,0.6-1.4,0.2-2.2c-0.1-0.2-0.1-0.6,0.2-0.9c0.4,0.1,0.3,0.6,0.6,0.7C116.1,5,116.5,7.9,116.5,10.8z"/>
					<path class="st23" d="M56,22.6c0,0.2,0,0.4-0.1,0.5c-0.9,0.7-1,1.7-0.9,2.8c0,0.4,0.1,0.9-0.4,1.2c-0.1,0.1-0.3,0.2-0.5,0.2
						c-0.2-0.1-0.2-0.3-0.2-0.4c-0.1-1.4-0.3-2.6-1.5-3.6C52.1,23,52,22.4,52.1,22c0.1-0.4-0.1-0.8,0.1-1.2c0.3,0.2,0.1,0.5,0.2,0.8
						c0,1.1,0.4,1.6,1.4,2c0.8,0.3,1.4-0.1,1.9-0.7C55.8,22.8,55.9,22.7,56,22.6z"/>
					<path class="st24" d="M87.4,13.4c0.6,1.7,0.6,3.5,0.3,5.3c-0.4-0.4-0.5-0.8-0.6-1.3c-0.3-1.6-0.1-3.2-0.3-4.8
						c0-0.3-0.1-0.6-0.3-0.8c0-0.2,0-0.4,0-0.6c0.1,0,0.3,0,0.4,0C86.9,12.1,86.9,12.8,87.4,13.4z"/>
					<path class="st23" d="M26.6,29.7c0.3-0.2,0.5-0.6,0.8-0.4c0.4,0.2,0.4,0.7,0.2,1.1C27.3,30.2,27,30,26.6,29.7z"/>
					<path class="st23" d="M33.2,32.1c0.1-0.7,0.2-1.4,0.2-2.1c0.1,0.7,0.3,1.4,0,2.2C33.3,32.1,33.3,32.1,33.2,32.1z"/>
					<path class="st23" d="M122,30.9c0.4,0.1,0.4,0.4,0.3,0.8C122.1,31.5,122,31.2,122,30.9z"/>
					<path class="st23" d="M104.7,3.6c-0.1-0.1-0.2-0.2,0-0.3C104.8,3.4,104.9,3.5,104.7,3.6z"/>
					<path class="st23" d="M130,28.9c-0.2-0.1-0.1-0.3,0.1-0.4C130.1,28.7,130.1,28.8,130,28.9z"/>
					<path class="st23" d="M28,31.8c0.1,0,0.1,0.1,0.2,0.1C28.1,32,28,31.9,28,31.8z"/>
					<path class="st24" d="M130.4,27.4c0-0.1-0.1-0.1-0.1-0.2C130.4,27.2,130.4,27.3,130.4,27.4z"/>
					<path class="st25" d="M64.4,19.9c-0.7,0.7-0.9,0.8-2,0.8c-0.4,0-1,0.2-1.3,0c-0.3-0.2-0.1-0.9-0.2-1.3c-0.1-0.3,0-0.5,0-0.7
						c0-0.7,0.9-1.3,1.6-1c0.2,0.1,0.4,0.1,0.6,0.1c0.7-0.3,1.1,0,1.2,0.8c0,0.4,0,0.7,0.1,1.1C64.4,19.6,64.4,19.7,64.4,19.9z"/>
					<path class="st25" d="M122.8,19.7c-0.3,0-0.6,0-0.8-0.2c-0.4-0.3-0.6-0.4-1.1-0.1c-0.2,0.2-0.6-0.2-0.8-0.1
						c-0.6,0.1-0.3-0.4-0.4-0.6c-0.1-0.4-0.3-0.8,0-1.2c0.2-0.4,0.4-0.6,0.9-0.5c0.4,0.1,0.7-0.2,1.1-0.3c0.6-0.1,0.7,0.1,0.9,0.6
						c0.2,0.5-0.1,1,0.3,1.4C122.8,19.1,122.7,19.4,122.8,19.7z"/>
					<path class="st25" d="M57.8,19.6c0.2,0,0.3-0.1,0.3-0.3c-0.1-0.5-0.1-1,0.1-1.5c0.2-0.7,0.5-1,1.2-0.9c0.5,0.1,0.5,0.6,0.5,1
						c0,0.5,0.3,1,0.2,1.5c0,0.1,0,0.3-0.1,0.4c-0.3,0.2-0.4,0.4-0.1,0.7c0,0.1,0,0.1,0,0.2c-0.4,0.1-0.7,0-1.1-0.1
						c-0.5-0.2-0.8-0.5-1-0.8C57.7,19.7,57.7,19.6,57.8,19.6z"/>
					<path class="st23" d="M103.5,32.4c-0.4-0.3-0.2-0.6-0.1-0.8c0.6-0.9,1.1-1.8,1.8-2.6c0.7-0.7,0.9-1.6,1.4-2.3
						c0.4-0.6,0.9-0.9,1.5-1.3c0.1-0.1,0.3-0.2,0.4,0c0.1,0.1,0,0.3,0,0.4c-0.1,0.1-0.1,0.3-0.3,0.4c-1.3,0.7-1.9,1.9-2.6,3.1
						c-0.4,0.7-0.8,1.3-1.4,1.9C103.9,31.4,103.5,31.8,103.5,32.4z"/>
					<path class="st23" d="M57.7,19.7c0.3,0.4,0.6,0.7,1,0.8c0.4,0.1,0.7,0.2,1.1,0.1c0.1,0.7-0.1,1.3-0.4,1.9
						c-0.1,0.1-0.1,0.2-0.2,0.2c-0.6,0.2-1.5-0.5-1.5-1.1C57.6,21,57.5,20.4,57.7,19.7z"/>
					<path class="st25" d="M86.4,11.3c0,0.2,0,0.4,0,0.6c-0.4,0.4-0.1,0.9-0.4,1.4c-0.1,0.2-0.2,0.4-0.4,0.3c-0.4-0.2-0.7,0.1-1,0.3
						c0,0,0-0.1,0-0.1c0.1-0.8,0.2-1.7,0.2-2.5c0-0.7,0.3-0.7,0.8-0.5C85.8,11,86.1,11.3,86.4,11.3z"/>
					<path class="st25" d="M73.7,15c1.5,0.1,3,0,4.5-0.1c0.7-0.1,1.3,0.1,1.6,0.8c-1.8,0-3.6,0-5.4-0.1C74.1,15.5,73.7,15.6,73.7,15
						z"/>
					<path class="st25" d="M93.7,23.6c0.3-0.1,0.2-0.4,0.3-0.6c0.2-0.4,1.2-0.7,1.3-0.4c0.2,0.4,0.4,0.9,0.3,1.3
						c-0.1,0.4-0.3,0.8-0.7,0.8c-0.3,0-0.5,0.1-0.8,0.2C93.6,24.6,93.6,24.1,93.7,23.6z"/>
					<path class="st23" d="M48,25.6c0.8,0.3,1.5,0,2.2,0.1c0.4,0,0.6,0.3,0.6,0.6c0.1,0.4-0.3,0.3-0.5,0.4c-1.3,0.1-2.6-0.1-3.9,0.3
						C46.3,27,46,27,46,26.8c0-0.2,0-0.5,0.3-0.6C46.9,26,47.5,25.8,48,25.6z"/>
					<path class="st25" d="M98.7,29.7c0-0.5,0-1.1,0.1-1.6c0-0.6,0.5-0.9,1-0.7c0,0.1,0,0.2,0,0.3c0,0.3-0.2,0.6,0.1,0.8
						c0.1,0.6,0.2,1.2,0,1.8c-0.3,0.1-0.7,0.6-0.9-0.1c-0.1-0.3-0.2,0.1-0.3,0.1C98.7,30.1,98.7,29.9,98.7,29.7z"/>
					<path class="st25" d="M61,23.3c1.1-0.1,2.2-0.1,3.3-0.2c0,0.1,0.1,0.2,0.1,0.3c0,0.1,0,0.1,0,0.1C64,24,63.5,23.9,63.1,24
						c-0.9,0.1-1.8,0-2.6,0.5c-0.3,0.2-0.7,0.1-1,0c0.3-0.4,1.1-0.4,1.2-1C60.8,23.4,60.9,23.4,61,23.3z"/>
					<path class="st23" d="M120.6,23.3c-0.4-0.1-0.9-0.1-1.3-0.3c-0.3-0.2-0.4-0.4-0.2-0.6c0.1-0.2,0.3-0.3,0.7-0.2
						c0.7,0.3,1.5,0.3,2.3,0c0.2-0.1,0.5-0.4,0.8,0.1c0.4,0.6,0.1,0.7-0.3,0.8C121.9,23.1,121.2,23.2,120.6,23.3z"/>
					<path class="st23" d="M34.8,26.9c-0.2,0-0.5,0.2-0.6-0.2c0-0.2,0.1-0.4,0.3-0.6c0.3-0.3,0.8-0.4,1.2-0.4c1-0.1,2-0.1,3-0.2
						c0.7,0,1,0.3,1.1,1.1c-0.3-0.1-0.5-0.4-0.9-0.4c-1.1-0.1-2.2,0-3.2,0.1C35.2,26.3,34.8,26.4,34.8,26.9z"/>
					<path class="st23" d="M129.4,23.4c-0.5,0.2-0.9,0.1-1.4,0.1c-0.9,0-1.8-0.1-2.7,0.2c-0.4,0.1-0.9,0.1-1.2-0.4
						C125.2,22.8,128.6,22.9,129.4,23.4z"/>
					<path class="st23" d="M98.7,30.3c0.1,0,0.2-0.4,0.3-0.1c0.2,0.8,0.6,0.3,0.9,0.1c0.2,0.8,0.3,1.5-0.1,2.3
						c-0.5-0.2-1.1-0.5-1.1,0.5c-0.2,0-0.3,0-0.5,0c-0.1-0.2,0.1-0.2,0.2-0.3c0.4-0.5,1.1-1,0.3-1.7C98.6,30.8,98.4,30.5,98.7,30.3z
						"/>
					<path class="st25" d="M34.8,26.9c0-0.5,0.4-0.6,0.8-0.7c1.1-0.1,2.2-0.2,3.2-0.1c0.4,0,0.6,0.3,0.9,0.4c0,0,0,0,0,0
						c0,0.1,0,0.1,0,0.2c-0.8-0.4-1.6,0-2.5,0C36.4,26.8,35.6,26.9,34.8,26.9z"/>
					<path class="st25" d="M69,12.4c-0.8,0.2-0.9,0.1-0.9-0.7c0-0.4,0.1-0.8,0.2-1.2c0.1-0.6,0.4-0.7,1-0.6
						C69.1,10.7,69.3,11.6,69,12.4z"/>
					<path class="st25" d="M88.3,23.2c0.1,0,0.1-0.1,0.2-0.1c1.2,0.1,2.4-0.3,3.7-0.2c0,0.1,0,0.1,0,0.2c0,0,0,0.1,0,0.1
						C90.9,23.6,89.6,23.8,88.3,23.2z"/>
					<path class="st23" d="M43.5,20.7c0.5-0.3,0.8,0.1,0.9,0.4c0.1,0.5-0.3,0.5-0.7,0.6c-0.2,0-0.3,0.2-0.5,0.1
						c-0.3,0-0.7,0.2-0.8-0.4c0-0.5,0.2-0.8,0.7-0.8C43.2,20.7,43.3,20.7,43.5,20.7z"/>
					<path class="st23" d="M102.7,27.4c0.1-0.2-0.2-0.8,0.4-0.7c0.5,0,0.9,0.4,0.9,0.9c0,0.5-0.3,1-0.8,1
						C102.6,28.5,102.8,27.9,102.7,27.4z"/>
					<path class="st25" d="M30.1,24.4c-0.5,0-1,0-1.5,0c-0.2,0-0.4,0-0.4-0.3c0-0.2,0.2-0.2,0.3-0.2c0.4,0,0.8-0.1,1.2,0
						c0.6,0,1.1,0,1.7-0.1c0.2,0,0.6,0,0.6,0.3c0,0.3-0.3,0.3-0.6,0.3C31,24.3,30.5,24.3,30.1,24.4C30.1,24.3,30.1,24.3,30.1,24.4z"
						/>
					<path class="st25" d="M70.5,15.4c0-0.8,0.6-0.7,1.1-0.7c0.3,0,0.5,0.1,0.8,0.2c0,0.5-0.4,0.6-0.8,0.6
						C71.2,15.4,70.9,15.4,70.5,15.4z"/>
					<path class="st25" d="M109.3,24.5c0.5-0.2,1.1-0.2,1.6-0.1c0.2,0,0.7,0,0.3,0.5c-0.5,0.1-1,0.2-1.5,0.1
						C109.5,24.9,109.3,24.9,109.3,24.5z"/>
					<path class="st25" d="M98.7,33.1c0.1-1,0.6-0.6,1.1-0.5C99.8,33.5,99.1,33,98.7,33.1z"/>
					<path class="st25" d="M112.5,25.3c-0.1-0.1-0.2-0.3-0.1-0.3c0.2-0.3,1.3-0.1,1.5,0.2C113.4,25.2,113,25.3,112.5,25.3z"/>
					<path class="st23" d="M60.7,23.4c-0.2,0.6-0.9,0.6-1.2,1c-0.1,0.1-0.2,0.2-0.2,0.1c-0.1-0.1,0-0.3,0.1-0.4
						C59.8,23.9,60.2,23.5,60.7,23.4z"/>
					<path class="st25" d="M81.3,13.1c0.2-0.8,0.8-0.2,1.2-0.2c0,0,0,0,0,0c0,0.1,0,0.2,0,0.3C82,13.2,81.6,13.1,81.3,13.1z"/>
					<path class="st23" d="M82.4,13.2c0-0.1,0-0.2,0-0.3c0.4-0.1,0.4,0.3,0.8,0.7C82.8,13.4,82.5,13.5,82.4,13.2z"/>
					<path class="st23" d="M99.9,28.5c-0.3-0.2-0.2-0.5-0.1-0.8C100.2,27.9,100.1,28.2,99.9,28.5z"/>
					<path class="st23" d="M59.8,20.5c-0.3-0.2-0.3-0.5,0.1-0.7C59.9,20.1,60,20.3,59.8,20.5z"/>
					<path class="st23" d="M92.2,23.1C92.2,23.1,92.2,23,92.2,23.1c0.1-0.1,0.2-0.1,0.3,0c0,0,0,0.1,0,0.1
						C92.3,23.2,92.3,23.2,92.2,23.1z"/>
					<path class="st23" d="M39.7,26.8c0-0.1,0-0.1,0-0.2c0.2,0,0.3,0.1,0.3,0.3l0,0C39.8,27,39.7,27,39.7,26.8z"/>
					<path class="st23" d="M64.4,23.6c0,0,0-0.1,0-0.1c0.1,0,0.1,0,0.2,0.1C64.5,23.5,64.4,23.5,64.4,23.6z"/>
					<path class="st23" d="M40,26.9C40,27,40,27,40,26.9C40,27,40,27,40,26.9C40,27,40,27,40,26.9C40,26.9,40,26.9,40,26.9z"/>
					<path class="st23" d="M50.9,18.7C50.8,18.7,50.8,18.7,50.9,18.7C50.8,18.7,50.8,18.7,50.9,18.7C50.9,18.7,50.9,18.7,50.9,18.7z
						"/>
					<path class="st23" d="M124.9,21.1C124.9,21.1,124.9,21.2,124.9,21.1C124.9,21.2,124.9,21.1,124.9,21.1
						C124.9,21.1,124.9,21.1,124.9,21.1z"/>
					<path class="st23" d="M48.9,21.4C48.9,21.4,48.9,21.4,48.9,21.4C48.9,21.4,48.9,21.4,48.9,21.4C48.9,21.4,48.9,21.4,48.9,21.4
						C48.9,21.4,48.9,21.4,48.9,21.4z"/>
					<path class="st25" d="M35.9,15.3c-0.7-1.6-0.2-3.1-0.2-4.7c0-0.7,0.2-1.4,0.2-2c-0.1-0.7,0.3-0.6,0.6-0.5
						c0.9,0.2,1.8,0.5,2.6,0.7c0.1,0,0.2,0.1,0.3,0.1c0.1,0.9,0.4,1.7,0.6,2.5c0.1,0.3,0.1,0.7,0.1,1c0.2,1-0.2,1.9-0.1,2.8
						c0,0.3-0.1,0.6-0.7,0.7c-0.8,0.1-1.5-0.4-2.1-0.3c-0.7,0.1-1.1-0.1-1.7-0.2c-0.2,0-0.6-0.1-0.5-0.4c0.2-0.4,0.3,0.1,0.5,0.1
						C35.8,15.3,35.8,15.3,35.9,15.3z"/>
					<path class="st25" d="M26.6,19.7c-0.1,0.7,0,1.5-0.8,1.7c-0.4,0.1-1,0.1-1.5,0c-0.5-0.1-0.9-0.6-1.5-0.3c0,0-0.1,0-0.1,0
						c-0.1-0.7-0.6,0-0.8-0.3c0,0-0.2-0.1-0.2,0c-0.3,0.6-0.7,0.4-1.1,0.1c-0.4-0.2-0.6-0.5-0.3-0.9c0.2-0.3,0.5-0.5,0.9-0.5
						c0.4,0,0.8,0.1,1.1-0.1c0.2-0.1,0.4-0.1,0.3,0.3C22.7,20,22.8,20,23,20c1-0.4,2-0.2,3.1-0.2C26.2,19.8,26.4,19.7,26.6,19.7z"/>
					<path class="st25" d="M32.1,19.3c0.1,0.7-0.1,1-1,1c-0.5,0-1,0-1.5,0.2c-0.4,0.1-0.8,0-0.7-0.6c0-0.2-0.1-0.5-0.1-0.7
						c-0.1-0.3-0.1-0.7,0.2-0.8c0.3-0.2,0.7-0.2,1.1,0c0.4,0.2,0.8-0.1,1.2-0.1C32.1,18.3,32.2,18.3,32.1,19.3z M30,19.1
						C30,19.1,30,19.1,30,19.1C30,19.1,30,19,30,19.1C30,19,30,19,30,19.1C30,19,30,19,30,19.1z"/>
					<path class="st25" d="M44.2,17.6c0.1,0.4-0.4,0.7-0.3,1.3c0.1,0.2-0.3,0.1-0.4,0.2c-0.2,0.1-0.3,0-0.4-0.2
						c-0.2-0.5,0-1.5,0.4-1.9c0.1-0.1,0.3-0.1,0.4,0C44.2,17.1,44.3,17.3,44.2,17.6z"/>
					<path class="st25" d="M35.3,6.2c-0.2-0.7,0.3-0.8,0.6-1.1C36,5.6,35.8,5.9,35.3,6.2z"/>
					<path class="st24" d="M25.8,22.9C25.7,22.9,25.7,22.9,25.8,22.9c-0.1,0-0.1,0-0.1,0C25.7,22.9,25.7,22.9,25.8,22.9z"/>
					<polygon class="st24" points="36,21.2 36.1,21.2 36.1,21.2 					"/>
					<path class="st24" d="M14.2,22.6C14.2,22.6,14.2,22.6,14.2,22.6C14.2,22.6,14.2,22.6,14.2,22.6C14.2,22.6,14.2,22.6,14.2,22.6z
						"/>
					<path class="st25" d="M105.6,22.5c0-0.3,0.5-0.4,0.4-0.6c-0.2-0.3-0.6-0.4-0.9-0.3c-0.4,0.1-0.6,0-0.8-0.4
						c-0.2-0.4-0.2-0.6,0.1-1c0.5-0.7,1.4-1,2.1-1.3c0.5-0.2,1,0.2,1,0.8c0,0.3,0.1,0.6,0.2,0.9c0.3,0.7-0.4,1.2-0.4,1.9
						c0,0-0.1,0-0.2,0C106.5,22.1,106.1,22.4,105.6,22.5z"/>
					<path class="st25" d="M115.1,7.8c-0.2,0.7,0.3,1.4-0.4,2c-0.5,0.5-1,0.2-1.5,0.1c-0.4-0.1-0.2-0.5-0.3-0.8c0-0.7,0-1.4,0-2.1
						c0-0.9,0-0.9,0.8-0.9c0.4,0,0.8,0,0.9,0.4C114.9,6.9,114.9,7.4,115.1,7.8z"/>
					<path class="st25" d="M112.3,20.4c0.1-0.5,0.2-0.9,0-1.4c-0.1-0.2,0.1-0.4,0.3-0.5c0.3-0.1,1.5,0.1,1.7,0.4
						c0.1,0.2,0,0.3-0.1,0.4c-0.2,0.6-0.3,1.2-0.5,1.8c-0.1,0.4-0.4,0.7-0.7,0.8c-0.4,0.1-0.6-0.3-0.6-0.7
						C112.5,21,112.4,20.7,112.3,20.4z"/>
					<path class="st25" d="M111.3,21.3c0,0.2,0,0.4,0,0.6c0,0.2-0.1,0.4-0.4,0.3c-0.1,0-0.2-0.1-0.2-0.1c-1.2,0.8-0.9-0.4-1-0.8
						c-0.1-0.6-0.3-1.2,0.1-1.7c0.1-0.2,0.1-0.6,0.5-0.5c0.3,0.1,0.8,0.2,0.9,0.6C111.2,20.3,111.3,20.8,111.3,21.3z"/>
					<path class="st24" d="M104,17c0.4-0.4,0.8-0.3,1.2,0c0.4,0.3,0.3,0.7,0.2,1.1c-0.5,1-1.3,1.6-2.4,2.1c0.2-1.1,1.1-1.9,1-3
						C104,17.1,104,17,104,17z"/>
					<path class="st25" d="M101.6,8.2c1-0.2,0.6,0.7,0.7,1.1c0.1,0.5-0.2,0.7-0.6,0.5c-0.4-0.2-1.2,0.4-1.3-0.6
						C100.4,8.5,100.7,8.2,101.6,8.2z"/>
					<path class="st25" d="M114.6,3.4c-0.3,0-0.7-0.1-1-0.1c-0.2,0-0.5,0-0.6-0.3c-0.1-0.4-0.1-0.8,0.2-1.1c0.2-0.2,0.5,0.1,0.8,0.2
						C114.7,2.3,114.7,2.8,114.6,3.4z"/>
					<path class="st25" d="M104,17c0,0,0,0.1,0,0.1c-0.6,0.2-1.2-0.3-1.8-0.3c-0.2,0-0.2-0.2-0.1-0.3c0.5-0.3,1-0.1,1.5-0.1
						C104,16.4,103.8,16.8,104,17z"/>
					<path class="st25" d="M101.3,3.8c-0.3,0-0.6,0-0.6-0.4c0-0.4,0.4-0.2,0.6-0.2c0.2,0,0.6-0.2,0.6,0.2
						C101.8,3.8,101.5,3.8,101.3,3.8z"/>
					<path class="st24" d="M112,20.6c-0.5-0.2-0.4-0.5-0.4-0.8c0-0.1,0.2-0.2,0.2-0.1C112.1,19.9,112,20.2,112,20.6z"/>
					<path class="st25" d="M114.6,13.6c-0.2,0.2-0.5,0.4-0.7,0.2c0,0-0.1-0.2,0-0.2C114,13.3,114.3,13.4,114.6,13.6z"/>
					<path class="st24" d="M112,20.9c0,0.1,0,0.1,0,0.1c0,0.1-0.1,0.1-0.1,0C111.9,21.1,111.9,21,112,20.9C111.9,21,112,21,112,20.9
						z"/>
					<path class="st25" d="M75.4,8.1c-0.5,0.5-0.2,0.9,0.2,1.1c0.4,0.2,0.5,0.7,0.8,1C77,11.2,78,11.6,79,12c0.1,0.1,0.3,0,0.3,0.2
						c0,0.1-0.1,0.2-0.2,0.3c-0.3,0.2-1.5,0-1.8-0.2c-0.5-0.3-1.1-0.3-1.5-0.6c-0.1-0.1-0.1,0.2-0.2,0.2c-0.2,0.2-0.4,0.4-0.6,0.1
						c-0.1-0.1-0.3-0.1-0.4-0.1c-0.8,0.4-0.8-0.3-0.8-0.7c-0.1-0.6,0-1.2,0.1-1.9c0-0.1,0.1-0.3,0.1-0.3C74.7,9.3,74.6,8.3,75.4,8.1
						z"/>
					<path class="st25" d="M72,11.4c0.2,0.7-0.1,0.9-0.6,1c-0.6,0.1-0.4-0.5-0.4-0.7c0,0,0-0.1,0-0.1c-0.1-0.5-0.3-1.1,0.5-1.1
						C72.2,10.4,71.8,11.1,72,11.4z"/>
					<path class="st25" d="M81.9,9.7c0,0.2,0.1,0.3,0.1,0.4c0,0.3-0.3,0.5-0.4,0.4c-0.5-0.1-0.5-0.5-0.4-0.9c0-0.3-0.3-0.9,0.4-1
						c0.2,0,0.4,0,0.4,0.3C81.9,9.2,82.1,9.5,81.9,9.7z"/>
					<path class="st25" d="M88.7,19.3c0-0.9-0.1-1.6,0-2.3c0.1-0.3,0.1-0.5,0.5-0.4c0.8,0.1,1.5,0.5,2.3,0.3c0.1,0,0.2,0,0.3,0.1
						c0.7,0.5,0.5,2.7-0.2,3.1c-0.9,0.5-1.8-0.1-2.7,0.2c-0.2,0-0.3-0.2-0.2-0.4C88.7,19.5,88.7,19.3,88.7,19.3z"/>
					<path class="st25" d="M94.9,18.8c0,0.3,0.1,0.7-0.1,0.9c-0.4,0.2-0.8,0.3-1.2,0.5c-0.2,0.1-0.2-0.1-0.3-0.3
						c-0.3-0.6-0.5-1.1-0.4-1.8c0-0.2,0-0.4,0-0.5c0.1-0.3-0.5-0.5-0.1-0.7c0.3-0.2,0.7,0.1,0.8,0.3C94.1,17.6,95.1,17.7,94.9,18.8z
						"/>
					<path class="st25" d="M48.8,11.3c0.4-0.2,0.6-0.3,0.9,0.3c0.2,0.6,0.2,1.4,0.8,1.9c0.2,0.2,0,0.5-0.1,0.7
						c-0.4-0.1-0.2-0.8-0.7-0.8c-0.1,0.1-0.1,0.2-0.1,0.3c0,0.3,0.3,0.6,0.1,0.9c-0.4,0.2-0.4-0.3-0.6-0.4c-0.2-0.1-0.5,0-0.8,0
						c-0.5-0.1,0,0.4-0.3,0.5c-0.1,0-0.1,0.2-0.4,0.2c0.3-0.9-0.8-1.7-0.1-2.7c0.1-0.1-0.1-0.4-0.1-0.7c-0.1-0.6,0.1-1,0.7-1.1
						C48.8,10.4,48.6,11,48.8,11.3z"/>
					<polygon class="st24" points="46.3,17.9 46.3,17.9 46.3,17.9 					"/>
					<path class="st24" d="M47.3,21C47.3,21,47.4,21,47.3,21C47.4,21,47.3,21,47.3,21C47.3,21,47.3,21,47.3,21z"/>
					<path class="st23" d="M30,19.1C30,19,30,19,30,19.1C30,19,30,19,30,19.1C30,19,30,19.1,30,19.1C30,19.1,30,19.1,30,19.1z"/>
				</g>
			</g>
		</g>
	</g>
</g>
</svg>
