<?xml version="1.0" encoding="utf-8"?>
<!-- Generator: Adobe Illustrator 24.0.3, SVG Export Plug-In . SVG Version: 6.00 Build 0)  -->
<svg version="1.1" id="レイヤー_1" xmlns="http://www.w3.org/2000/svg" xmlns:xlink="http://www.w3.org/1999/xlink" x="0px"
	 y="0px" viewBox="0 0 110.8 51.9" style="enable-background:new 0 0 110.8 51.9;" xml:space="preserve">
<style type="text/css">
	.st0{opacity:0;}
	.st1{opacity:1.428571e-02;fill:#050505;}
	.st2{opacity:2.857143e-02;fill:#090909;}
	.st3{opacity:4.285714e-02;fill:#0E0E0E;}
	.st4{opacity:5.714286e-02;fill:#131313;}
	.st5{opacity:7.142857e-02;fill:#181818;}
	.st6{opacity:8.571429e-02;fill:#1C1C1C;}
	.st7{opacity:0.1;fill:#212121;}
	.st8{opacity:0.1143;fill:#262626;}
	.st9{opacity:0.1286;fill:#2A2A2A;}
	.st10{opacity:0.1429;fill:#2F2F2F;}
	.st11{opacity:0.1571;fill:#343434;}
	.st12{opacity:0.1714;fill:#393939;}
	.st13{opacity:0.1857;fill:#3D3D3D;}
	.st14{opacity:0.2;fill:#424242;}
	.st15{opacity:0.2143;fill:#474747;}
	.st16{opacity:0.2286;fill:#4B4B4B;}
	.st17{opacity:0.2429;fill:#505050;}
	.st18{opacity:0.2571;fill:#555555;}
	.st19{opacity:0.2714;fill:#5A5A5A;}
	.st20{opacity:0.2857;fill:#5E5E5E;}
	.st21{opacity:0.3;fill:#636363;}
	.st22{fill:#8F8F8F;}
	.st23{fill:#E1E1E1;}
	.st24{fill:#FCFCFC;}
</style>
<g>
	<ellipse class="st0" cx="16.8" cy="45.5" rx="16.5" ry="4.7"/>
	<ellipse class="st1" cx="16.8" cy="45.5" rx="16.1" ry="4.5"/>
	<ellipse class="st2" cx="16.8" cy="45.5" rx="15.7" ry="4.3"/>
	<ellipse class="st3" cx="16.8" cy="45.5" rx="15.4" ry="4.1"/>
	<ellipse class="st4" cx="16.8" cy="45.5" rx="15" ry="3.9"/>
	<ellipse class="st5" cx="16.8" cy="45.5" rx="14.7" ry="3.7"/>
	<ellipse class="st6" cx="16.8" cy="45.5" rx="14.3" ry="3.5"/>
	<ellipse class="st7" cx="16.8" cy="45.5" rx="13.9" ry="3.3"/>
	<ellipse class="st8" cx="16.8" cy="45.5" rx="13.6" ry="3.1"/>
	<ellipse class="st9" cx="16.8" cy="45.5" rx="13.2" ry="2.9"/>
	<ellipse class="st10" cx="16.8" cy="45.5" rx="12.9" ry="2.8"/>
	<ellipse class="st11" cx="16.8" cy="45.5" rx="12.5" ry="2.6"/>
	<ellipse class="st12" cx="16.8" cy="45.5" rx="12.2" ry="2.4"/>
	<ellipse class="st13" cx="16.8" cy="45.5" rx="11.8" ry="2.2"/>
	<ellipse class="st14" cx="16.8" cy="45.5" rx="11.4" ry="2"/>
	<ellipse class="st15" cx="16.8" cy="45.5" rx="11.1" ry="1.8"/>
	<ellipse class="st16" cx="16.8" cy="45.5" rx="10.7" ry="1.6"/>
	<ellipse class="st17" cx="16.8" cy="45.5" rx="10.4" ry="1.4"/>
	<path class="st18" d="M26.8,45.5c0,0.7-4.5,1.2-10,1.2c-5.5,0-10-0.6-10-1.2c0-0.7,4.5-1.2,10-1.2C22.3,44.3,26.8,44.8,26.8,45.5z"
		/>
	<path class="st19" d="M26.5,45.5c0,0.6-4.3,1-9.7,1c-5.3,0-9.7-0.5-9.7-1c0-0.6,4.3-1,9.7-1C22.2,44.4,26.5,44.9,26.5,45.5z"/>
	<path class="st20" d="M26.1,45.5c0,0.5-4.2,0.9-9.3,0.9c-5.1,0-9.3-0.4-9.3-0.9c0-0.5,4.2-0.9,9.3-0.9C22,44.6,26.1,45,26.1,45.5z"
		/>
	<path class="st21" d="M25.8,45.5c0,0.4-4,0.7-8.9,0.7c-4.9,0-8.9-0.3-8.9-0.7c0-0.4,4-0.7,8.9-0.7C21.8,44.8,25.8,45.1,25.8,45.5z"
		/>
</g>
<g>
	<ellipse class="st0" cx="57.4" cy="47.3" rx="13.3" ry="4.7"/>
	<ellipse class="st1" cx="57.2" cy="47.3" rx="12.8" ry="4.5"/>
	<ellipse class="st2" cx="57" cy="47.3" rx="12.4" ry="4.3"/>
	<ellipse class="st3" cx="56.9" cy="47.3" rx="11.9" ry="4.1"/>
	<ellipse class="st4" cx="56.7" cy="47.3" rx="11.5" ry="3.9"/>
	<ellipse class="st5" cx="56.5" cy="47.3" rx="11" ry="3.7"/>
	<ellipse class="st6" cx="56.4" cy="47.3" rx="10.6" ry="3.5"/>
	<ellipse class="st7" cx="56.2" cy="47.3" rx="10.1" ry="3.3"/>
	<ellipse class="st8" cx="56" cy="47.3" rx="9.6" ry="3.1"/>
	<ellipse class="st9" cx="55.8" cy="47.3" rx="9.2" ry="2.9"/>
	<ellipse class="st10" cx="55.7" cy="47.3" rx="8.7" ry="2.8"/>
	<ellipse class="st11" cx="55.5" cy="47.3" rx="8.3" ry="2.6"/>
	<ellipse class="st12" cx="55.3" cy="47.3" rx="7.8" ry="2.4"/>
	<ellipse class="st13" cx="55.2" cy="47.3" rx="7.3" ry="2.2"/>
	<ellipse class="st14" cx="55" cy="47.3" rx="6.9" ry="2"/>
	<ellipse class="st15" cx="54.8" cy="47.3" rx="6.4" ry="1.8"/>
	<ellipse class="st16" cx="54.7" cy="47.3" rx="6" ry="1.6"/>
	<ellipse class="st17" cx="54.5" cy="47.3" rx="5.5" ry="1.4"/>
	<path class="st18" d="M59.4,47.3c0,0.7-2.3,1.2-5.1,1.2c-2.8,0-5.1-0.6-5.1-1.2c0-0.7,2.3-1.2,5.1-1.2
		C57.1,46.1,59.4,46.6,59.4,47.3z"/>
	<path class="st19" d="M58.8,47.3c0,0.6-2.1,1-4.6,1c-2.5,0-4.6-0.5-4.6-1c0-0.6,2.1-1,4.6-1C56.7,46.2,58.8,46.7,58.8,47.3z"/>
	<path class="st20" d="M58.2,47.3c0,0.5-1.9,0.9-4.1,0.9c-2.3,0-4.1-0.4-4.1-0.9c0-0.5,1.9-0.9,4.1-0.9
		C56.3,46.4,58.2,46.8,58.2,47.3z"/>
	<path class="st21" d="M57.5,47.3c0,0.4-1.7,0.7-3.7,0.7c-2,0-3.7-0.3-3.7-0.7c0-0.4,1.7-0.7,3.7-0.7C55.9,46.6,57.5,46.9,57.5,47.3
		z"/>
</g>
<g>
	<ellipse class="st0" cx="94.3" cy="46.8" rx="16.5" ry="4.7"/>
	<ellipse class="st1" cx="94.1" cy="46.8" rx="15.9" ry="4.5"/>
	<ellipse class="st2" cx="93.9" cy="46.8" rx="15.3" ry="4.3"/>
	<ellipse class="st3" cx="93.7" cy="46.8" rx="14.8" ry="4.1"/>
	<ellipse class="st4" cx="93.5" cy="46.8" rx="14.2" ry="3.9"/>
	<ellipse class="st5" cx="93.3" cy="46.8" rx="13.6" ry="3.7"/>
	<ellipse class="st6" cx="93.1" cy="46.8" rx="13.1" ry="3.5"/>
	<ellipse class="st7" cx="92.9" cy="46.8" rx="12.5" ry="3.3"/>
	<ellipse class="st8" cx="92.7" cy="46.8" rx="11.9" ry="3.1"/>
	<ellipse class="st9" cx="92.5" cy="46.8" rx="11.4" ry="2.9"/>
	<ellipse class="st10" cx="92.2" cy="46.8" rx="10.8" ry="2.8"/>
	<ellipse class="st11" cx="92" cy="46.8" rx="10.2" ry="2.6"/>
	<ellipse class="st12" cx="91.8" cy="46.8" rx="9.7" ry="2.4"/>
	<ellipse class="st13" cx="91.6" cy="46.8" rx="9.1" ry="2.2"/>
	<ellipse class="st14" cx="91.4" cy="46.8" rx="8.5" ry="2"/>
	<ellipse class="st15" cx="91.2" cy="46.8" rx="8" ry="1.8"/>
	<ellipse class="st16" cx="91" cy="46.8" rx="7.4" ry="1.6"/>
	<ellipse class="st17" cx="90.8" cy="46.8" rx="6.8" ry="1.4"/>
	<path class="st18" d="M96.9,46.8c0,0.7-2.8,1.2-6.3,1.2c-3.5,0-6.3-0.6-6.3-1.2c0-0.7,2.8-1.2,6.3-1.2
		C94.1,45.6,96.9,46.2,96.9,46.8z"/>
	<path class="st19" d="M96.1,46.8c0,0.6-2.5,1-5.7,1c-3.1,0-5.7-0.5-5.7-1c0-0.6,2.5-1,5.7-1C93.5,45.8,96.1,46.3,96.1,46.8z"/>
	<path class="st20" d="M95.3,46.8c0,0.5-2.3,0.9-5.1,0.9s-5.1-0.4-5.1-0.9c0-0.5,2.3-0.9,5.1-0.9S95.3,46.4,95.3,46.8z"/>
	<path class="st21" d="M94.5,46.8c0,0.4-2,0.7-4.6,0.7c-2.5,0-4.6-0.3-4.6-0.7c0-0.4,2-0.7,4.6-0.7C92.5,46.2,94.5,46.5,94.5,46.8z"
		/>
</g>
<g>
	<g>
		<g>
			<g>
				<path class="st22" d="M13.9,42.2c-0.1,0-0.2,0.1-0.2,0.2c-0.7,0.4-1.1,1.1-1.5,1.7c-0.5,0.6-1,1.1-1.4,1.7
					c-0.5,0.6-1.2,0.4-1.9,0.3c-1.1-0.1-2.1-0.2-3-0.9c-0.5-0.5-1-0.9-1.6-1.3c-1.6-1.2-3-2.4-4-4.1c-0.3-0.5-0.2-1-0.2-1.5
					c-0.2-1.1,0.2-2,1-2.9c1.8-1.9,3.5-4,5.3-6c0.5-0.6,0.7-1.1,0.2-1.8c-0.3-0.4-0.4-0.8-0.5-1.3c-0.1-0.6,0-1.1,0.4-1.6
					c1-1.1,1.9-2.2,2.9-3.3c0.5-0.6,1.1-0.9,1.9-0.6c0.5,0.1,0.7-0.2,1-0.5c1-1.1,2-2.3,3-3.5c1.2-1.4,2.4-2.8,3.6-4.2
					c2.2-2.5,4.4-5,6.5-7.6c1.6-2,3.8-3.5,5.9-4.9c0.7-0.5,1.5-0.2,2.3,0.1c1.2,0.5,2.3,1.2,3.3,2c-0.1,0-0.1,0.1-0.2,0.1
					c-1.1-0.2-1.8,0.3-2.5,1.2c-0.4,0.5-0.8,1-1.2,1.4c-0.2,0.3-0.5,0.1-0.7,0c-0.4-0.3-0.8-0.4-0.8,0.4c0,0.2-0.1,0.3-0.2,0.4
					c-1.5,1.5-2.4,3.5-4.2,4.7c-0.6,0.4-0.6,1.1-1,1.5c-1.2,1.3-2.4,2.6-3.5,3.9c-0.4,0.4-0.7,0.9-1.2,1.4c-0.4,0.3-0.9,0.8-1.2,1.3
					c-0.3,0.4-0.5,1-0.9,1.3c-0.7,0.5-1.1,1.3-1.8,1.8c-0.4,0.3-0.7,0.7-0.8,1.1c-0.1,0.3-0.2,0.6,0.2,0.7c0.8,0.6,1.5,1.3,2.3,1.9
					c0.8,0.8,1.1,0.9,1.6,0.2c0.6-0.9,1.4-1.6,2-2.4c0.5-0.8,1-1.6,1.7-2.3c0.5-0.5,1.3-0.9,1.5-1.5c0.4-1.2,1.8-1.6,2.2-2.8
					c0-0.1,0.2-0.1,0.4-0.2c0.2-0.1,0.4-0.2,0.4-0.4c0-0.5,0.4-0.8,0.7-1c0.9-0.7,1.4-1.6,2.1-2.5c0.2-0.3,0.6-0.4,0.8-0.7
					c0.6-0.6,0.9-1.4,1.5-1.9c0.5-0.5,1-1.1,1.7-1.4c0.2-0.1,0.3-0.3,0.2-0.5c-0.5-0.7-0.2-1,0.4-1.3c0.1-0.1,0.2-0.3,0.3-0.4
					C36.8,5.5,37.3,5,38,4.4c0.3-0.2,0.3-0.4,0-0.7c-0.2-0.2-0.3-0.3,0.1-0.4c1.3,1.2,2.5,2.5,3.4,4.1c0.6,1,0.8,1.9,0.2,3
					c-1.2,2.4-2.6,4.6-4.4,6.6c-2.9,3.3-5.7,6.6-8.6,9.9c-1.3,1.5-2.6,3-3.8,4.5c-0.3,0.3-0.4,0.6-0.3,1c0.3,1,0,2-0.7,2.7
					c-1,1-2,1.9-3,2.8c-0.7,0.6-1.5,0.3-2.3,0.1c-0.2,0-0.3-0.2-0.5-0.2c-0.3-0.4-0.5-0.3-0.7,0c-0.6,0.6-1.2,1.3-1.7,2
					c-0.4,0.2-0.7,0.4-0.7,0.9c-0.2,0.3-0.5,0.6-0.7,0.8C14,41.8,13.9,41.9,13.9,42.2z M14.5,28.5c0.3,0.3,0.6,0.6,1,0.7
					c0.2,0.5,0.6,0.6,0.9,0.3c0.8-1,1.8-1.8,2.5-2.9c0.3-0.4,0.2-0.6-0.2-0.8c-0.7-0.6-1.4-1.4-2.3-1.7c-0.1-0.2-0.2-0.4-0.4-0.2
					c-0.3,0.2-0.7,0.3-1,0.7c-0.6,0.9-1.2,1.8-2.2,2.3c-0.1,0.1-0.2,0.2-0.1,0.3c0.4,0.3,0.5,0.8,1.1,0.9c0.1,0.1,0.2,0.2,0.3,0.3
					C14.1,28.4,14.2,28.5,14.5,28.5z M12.4,31.8c-0.7,0.5-1.2,1.3-1.8,2c-1.5,1.6-2.8,3.3-4.3,5c-0.2,0.3-0.3,0.5,0,0.7
					c0.2,0.2,0.3,0.3,0.5,0.5c0.4,0.4,0.8,0.5,1.2-0.1c1.3-1.5,2.6-3,3.9-4.5c0.6-0.8,1.4-1.4,1.9-2.3c0.5-0.3,0.8-0.8,1.1-1.3
					c0.1-0.2,0.3-0.4,0.1-0.7c-0.2-0.2-0.4-0.3-0.7-0.1c-0.1,0.1-0.3,0.2-0.4,0c-0.1-0.2,0-0.3,0.1-0.5c0.1-0.1,0.3-0.1,0.2-0.4
					C13.3,30.4,12.9,31.2,12.4,31.8z"/>
				<path class="st22" d="M49.4,45.6c-1.9-1.6-3.8-3.3-5.2-5.4c-0.3-0.5-0.6-1-0.7-1.7c0-0.5,0.2-1.1,0.7-1.1
					c0.9-0.1,1.4-0.7,1.8-1.3c0.7-0.9,1.4-1.8,2.3-2.5c0.2-0.1,0.4-0.2,0.4-0.4c-0.1-0.7,0.4-1,0.8-1.3c0.8-0.5,0.9-1.5,1.6-2.1
					c0.6-0.4,1-1.1,1.4-1.7c0.8-1,1.5-2,2.4-2.9c0.4-0.4,0.6-0.7,0.7-1.2c0.2-0.6,0.6-1.3,1.3-1.5c0.1,0,0.3-0.1,0.3-0.2
					c0.3-0.8,0.8-1.5,1.7-1.8c0.1,0,0.1-0.2,0.1-0.3c0-0.9,0.6-1.3,1.3-1.6c0.3-0.1,0.5-0.2,0.4-0.6c-0.1-0.4,0.2-0.7,0.5-1
					c0.4-0.4,1-0.7,1.1-1.4c0-0.2,0.2-0.3,0.4-0.4c0.6-0.2,1.2-0.6,1.8-0.7c1.1-0.3,1.9,0.4,2.8,0.9c0.2,0.1,0.5,0.2,0.7,0.4
					c0,0,0,0.1,0,0.1c0.1,0.4,0,0.7-0.2,1c-0.1,0.2-0.5,0-0.6-0.1c-0.4-0.4-1-0.2-1.5-0.4c-0.2-0.1-0.4-0.3-0.5,0
					c-0.1,0.3,0.2,0.4,0.4,0.4c1.3,0.5,2.4,1.3,3.5,2c0.1,0.1,0.3,0.3,0.5,0.1c0.2-0.2,0-0.4-0.1-0.6c-0.1-0.2-0.5-0.4-0.2-0.6
					c0.3-0.2,0.6-0.4,1-0.2c1.1,0.9,2,2,2.8,3.2c0.4,0.6-0.5,3.8-1.1,4.1c-0.6,0.2-0.9,0.6-1.1,1.1c-0.1,0.2-0.2,0.5-0.4,0.7
					c-0.7,0.5-1.1,1.3-1.4,2.1c0,0.1-0.1,0.2-0.2,0.2c-1.3,0.4-1.5,2-2.8,2.5c-0.1,0-0.1,0.1-0.1,0.2c-0.2,1.1-1,1.7-1.7,2.3
					c-0.1,0.1-0.2,0.2-0.3,0.3c-0.2,0.8-0.8,1.2-1.4,1.5c-0.4,0.1-0.2,0.6-0.4,0.9c-0.3,0.2-0.6,0.5-0.9,0.7
					c-0.4,0.3-0.6,0.7-0.6,1.2c-0.1,0.1-0.1,0.2-0.1,0.3c-0.3,0.6-0.8,1-1.2,1.5c-0.3,0.3-0.2,0.6-0.4,1c0,0,0,0,0,0
					c-0.3,0.2-0.7,0.4-0.7,0.9c0,0-0.1,0.1-0.1,0.1c-0.2,0.1-0.3,0.2-0.3,0.4c-0.5,0.6-1.1,1.2-1.5,2c-0.4,0.6-1.1,1-1,1.8
					c0,0.5-0.5,0.8-1,0.9c-0.4,0.1-0.9,0-1.3-0.1C52,47,50.7,46.4,49.4,45.6z M65.2,30.7c0-0.2,0-0.6-0.4-0.2
					c-0.2,0.2-0.4,0.5-0.6,0.7c-0.1,0.2-0.2,0.4,0,0.6c0.2,0.2,0.5,0.2,0.6-0.1C65.3,31.3,65.6,31.1,65.2,30.7z M61.9,25.4
					c0.1,0.1,0.3,0.2,0.4,0.2c0,0.2,0.1,0.3,0.3,0.2c0.2,0.1,0.4,0.2,0.5,0.2c0.2,0.3,0.5,0.5,0.8,0.3c0.2-0.2-0.1-0.4-0.3-0.6
					c-0.1-0.1-0.2-0.3-0.1-0.5c0.1-0.2,0.3,0,0.4,0c0.1,0,0.3,0.1,0.4,0.2c0.2,0.1,0.3,0.2,0.4,0c0.1-0.2,0-0.3-0.1-0.4
					c-0.7-0.8-1.5-1.4-2.5-1.9c-0.2-0.1-0.3-0.1-0.5,0c-0.1,0.2-0.1,0.4,0,0.5c0.1,0.1,0.2,0.3,0.3,0.4c0.6,0.3,0.1,0.4-0.1,0.5
					c-0.2-0.1-0.5-0.2-0.7-0.3c-0.2-0.1-0.5-0.4-0.6-0.1c-0.1,0.2,0.2,0.4,0.3,0.6c0.1,0.1,0.3,0.3,0.5,0.2c0,0,0.1,0.1,0.1,0.1
					C61.5,25.3,61.6,25.5,61.9,25.4z M67.4,21.1c0.1,0.1,0.2,0.2,0.4,0.2c0.1,0.2,0.3,0.2,0.4,0c0.1-0.2,0-0.4-0.3-0.4
					c-0.7-0.9-1.6-1.6-2.8-1.9c-0.2,0.1-0.1,0.1,0,0.2c0,0.2,0,0.4,0.2,0.5c0.1,0.2,0,0.4-0.1,0.6c-0.1,0-0.3-0.1-0.4-0.1
					c-0.2,0-0.4-0.3-0.6-0.1c-0.1,0.2,0.2,0.4,0.3,0.5c0.7,0.5,1.5,1.1,2.3,1.5c0.1,0.3,0.4,0.4,0.5,0.1c0.2-0.2-0.1-0.4-0.3-0.5
					c-0.1-0.1-0.2-0.3-0.3-0.4C67,21.1,67.2,21.1,67.4,21.1z M56.6,29.4c-0.4,0-0.8-0.1-1.1,0.1c0.2,0.5,0.7,0.6,1.1,0.8
					c0,0,0,0,0.1,0c0.8,0.5,1.7,0.9,2.4,1.6c0.1,0.1,0.4,0.3,0.6,0.1c0.1-0.2-0.1-0.3-0.2-0.5C58.5,30.6,57.6,29.9,56.6,29.4z
					 M53.7,36.4c0.4,0,0.7,0.2,0.9,0.5c0.2,0.2,0.4,0.3,0.6,0.3c0.2,0,0.4-0.1,0.2-0.4c-0.8-0.9-1.5-1.8-2.7-2.1
					c-0.2,0-0.5-0.2-0.6,0c-0.1,0.2,0.2,0.4,0.3,0.5C52.9,35.6,53.5,35.8,53.7,36.4c-0.3-0.1-0.6-0.3-0.8-0.5
					c-0.3-0.3-0.6-0.3-0.9,0c-0.1,0-0.2,0-0.3,0c-0.2-0.1-0.4,0-0.4,0.2c-0.4,0.9-1.2,1.6-1.8,2.4c-0.2,0.2,0,0.3,0.2,0.4
					c0.7,0.5,1.3,1.1,2,1.5c0.1,0.1,0.2,0.1,0.2,0c0.1-0.1,0.1-0.2-0.1-0.3c0,0,0-0.1,0-0.1c0.8-0.1,1.3-0.7,1.7-1.4
					c0.1-0.2,0.1-0.4,0.4-0.3c0.2,0.1,0.4,0,0.5-0.2c0.1-0.3-0.1-0.5-0.3-0.5c-0.1-0.1-0.2-0.2-0.2-0.4C54,37,53.9,36.7,53.7,36.4z
					 M65.8,23.2c0.2,0.1,0.3,0.4,0.5,0.1c0.1-0.2-0.1-0.3-0.2-0.5c-0.7-0.7-1.5-1.4-2.5-1.8c-0.3-0.3-0.7-0.5-1.2-0.5
					c-0.2,0-0.5-0.2-0.6,0.2c-0.1,0.3,0.3,0.3,0.4,0.4c0.4,0.3,1,0.4,1.2,0.9c-0.1,0.2-0.2,0.1-0.4,0.1c-0.2,0-0.5-0.2-0.6,0.1
					c-0.1,0.3,0.2,0.4,0.4,0.5c0.8,0.5,1.5,1,2.4,1.4c0.1,0.1,0.3,0.2,0.5,0c0.1-0.2-0.1-0.3-0.2-0.4C65.2,23.5,65.2,23.2,65.8,23.2
					z M67.4,27.4c1.2,0,1.6-0.3,1.6-1c0-0.7,0.3-0.9,0.8-1c0.5-0.1,0.8-0.4,0.8-1c-0.1-1-0.1-1,0.9-1.2c0.8-0.1,1.1-0.5,0.6-1.3
					c-0.1-0.1,0-0.3-0.1-0.3C70.3,23.5,68.7,25.4,67.4,27.4z M51.9,33.3c0,0-0.2,0-0.3,0.1c-0.1,0.2,0.1,0.3,0.3,0.4
					c0.8,0.7,1.9,0.8,2.7,1.5c0.3,0.3,0.7,0.6,1.1,0.8c0.2,0.1,0.4,0.3,0.6,0.1c0.1-0.2,0-0.4-0.2-0.6c-0.4-0.4-0.9-0.8-1.3-1.2
					C53.9,33.9,53,33.5,51.9,33.3z M58.2,25.9c0.9,1.4,2.2,1.8,3.4,2.5c0.1,0.1,0.3,0.1,0.4,0c0.2-0.2,0-0.3-0.1-0.4
					c-0.2-0.5-0.7-0.9-1.2-1.1C60,26.5,59.2,26.2,58.2,25.9z M57.1,34.8c0-0.2-0.1-0.3-0.2-0.4c-0.6-0.9-1.4-1.4-2.5-1.6
					c-0.2,0-0.4-0.3-0.5,0c-0.1,0.2-0.1,0.4,0.1,0.5c0.9,0.5,1.7,1.2,2.6,1.6C56.9,35,57.1,35,57.1,34.8z M57.9,33.9
					c0-0.2-0.1-0.3-0.2-0.4c-0.8-0.6-1.4-1.4-2.4-1.7c-0.2-0.1-0.4-0.5-0.6-0.1c-0.2,0.3,0,0.6,0.3,0.7c0.6,0.3,1.2,0.7,1.7,1.1
					c0.3,0.2,0.5,0.4,0.8,0.5C57.8,34.1,57.9,34,57.9,33.9z M57.7,28.5c-0.2,0-0.3,0-0.4,0.2c-0.1,0.2,0.1,0.4,0.2,0.5
					c0.5,0.4,1.1,0.7,1.6,1.1c0.2,0.1,0.5,0.2,0.8,0.3c0.2,0.1,0.4,0,0.3-0.3C59.9,29.4,58.6,28.5,57.7,28.5z M63.1,27.5
					c0-0.1-0.1-0.2-0.1-0.3c-0.8-0.6-1.5-1.5-2.5-1.8c-0.2-0.1-0.5-0.4-0.6,0c-0.1,0.3,0,0.7,0.4,0.8c0.6,0.2,1.1,0.5,1.5,0.9
					c0.3,0.2,0.6,0.4,0.9,0.6C62.8,27.8,63,27.8,63.1,27.5z M66.2,17.8c-0.1,0-0.2,0-0.3,0.1c-0.1,0.2,0,0.3,0.1,0.4
					c0.6,0.5,1.3,1,2,1.3c0.3,0.1,0.7,0.7,1,0.3c0.2-0.3-0.4-0.6-0.7-0.8C67.8,18.6,67.1,18.2,66.2,17.8z M58.5,32.3
					c0-0.1,0-0.1-0.1-0.2c-0.2-0.6-1.8-1.5-2.4-1.4c-0.4,0.1-0.3,0.4-0.1,0.5c0.7,0.6,1.3,1.2,2.2,1.4
					C58.3,32.6,58.5,32.6,58.5,32.3z M61.2,29.5c-0.1-0.1-0.1-0.2-0.2-0.3c-0.7-0.6-1.3-1.4-2.3-1.7c-0.2-0.1-0.4-0.3-0.6,0
					c-0.2,0.2-0.1,0.5,0.2,0.6c0.8,0.5,1.6,1.1,2.5,1.6C61,29.8,61.2,29.9,61.2,29.5z M51.5,41.7c-0.8-1.3-2-2.1-3.3-2.7
					C49.2,39.9,50.4,40.7,51.5,41.7z M67.1,28.7c0-0.1-0.1-0.4-0.3-0.6c-0.1-0.1-0.2,0-0.2,0.1c-0.1,0.4-0.5,0.7-0.7,1
					c-0.1,0.2-0.1,0.3,0.2,0.4C66.5,29.8,67.1,29.3,67.1,28.7z M48.7,44.2c0.2,0.4,0.4,0.5,0.8,0.6c0,0,0.1-0.1,0.1-0.1
					c-0.1-0.4-0.5-0.3-0.8-0.5C48.8,44.2,48.8,44.2,48.7,44.2z"/>
				<path class="st22" d="M82.5,41.1c0.6-0.7,1.3-1.3,2-1.8c0.3-0.2,0.5-0.5,0.4-0.8c-0.3-1,0.3-1.7,0.8-2.5
					c0.6-0.9,1.3-1.8,1.9-2.7c0.5-0.7,0.6-1.6,1-2.3c0.5-1.2,1.4-2.1,2.2-3c3.1-3.5,6.7-6.6,10-9.9c0.2-0.2,0.4-0.4,0.7-0.4
					c0,0.2-0.2,0.4-0.3,0.5c-0.7,0.9-1.6,1.7-2.4,2.6c-0.1,0.1-0.3,0.2-0.2,0.5c0.3-0.2,0.6-0.4,0.9-0.7c0.4-0.4,0.7-0.8,1.1-1.2
					c1.1-0.9,2.1-1.9,3-3c0.4-0.5,0.9-1.1,1.6-1.3c0.8-0.3,1.1-1.1,1.9-1.3c0.1,0,0.1-0.3,0.1-0.5c0.6,0.1,1.2,0.3,1.7,0.7
					c1,0.7,1.3,1.8,0.9,3.1c-0.5,1.7-1.6,3.2-2.6,4.7c-2.2,3.4-4.3,6.9-6.7,10.1c-1.5,2-3.1,3.8-5.1,5.2c-0.5,0.3-0.8,0.7-1.2,1.1
					c-1.1,1.2-2.5,2.1-3.8,3.1c-0.2,0.1-0.4,0.2-0.7,0.1c-0.3-0.1-0.6,0.1-0.8,0.3c-0.2,0-0.3,0.1-0.2,0.3c0,0,0,0,0,0
					c0,0-0.1,0-0.1,0c-1.2,1.1-1.9,2.7-3.3,3.5c0,0,0,0.1-0.1,0.2c-0.4,0.9-0.5,1-1.4,0.8c-0.5-0.1-0.9-0.3-1.2-0.7
					c-0.4-0.4-0.9-0.8-1.3-1.2c0-0.4-0.2-0.8-0.1-1.2c0.3-0.1,0.5-0.2,0.7-0.4c-0.1-0.2-0.5,0-0.4-0.4c0.1-0.3,0.3-0.3,0.6-0.3
					c0.2,0.1,0.4,0,0.3-0.2c-0.3-0.4-0.2-0.6,0.3-0.7C82.6,41.5,82.5,41.3,82.5,41.1z M84.1,43c0.7-0.1,0.8-0.2,0.6-0.9
					c0.9,0.3,0.9-0.8,1.5-1.1c0.4-0.1,0.7-0.6,1.1-0.9c0.3-0.2,0.5-0.5,0.2-0.8c0-0.3-0.2-0.5-0.5-0.4c-0.4,0.1-0.5,0.4-0.5,0.8
					c-0.4,0.1-0.8,0-0.8,0.6c0,0.3-1,0.2-0.4,0.8c-0.1,0-0.1,0.1-0.2,0.1c-0.5,0.1-0.5,0.5-0.5,0.8C83.7,42.2,83.7,42.2,84.1,43
					c-0.1,0-0.3,0-0.4,0c-0.2,0-0.4,0.1-0.4,0.3c0,0.2,0.1,0.3,0.3,0.4c0.2,0.1,0.3-0.1,0.5-0.2C84.3,43.4,84,43.1,84.1,43z
					 M92.6,32.6c0.2-0.1,0.4-0.3,0.6-0.4c0.2,0.1,0.5,0.3,0.7,0.4c0.1,0.2,0.3,0.1,0.4,0c0.2-0.4,0.5-0.7,0.8-1
					c0.9-0.9,1.6-1.9,2.5-2.8c0.3-0.3,0.8-0.5,0.9-0.9c0.1-0.5,0.5-0.7,0.8-1c0.2-0.2,0.5-0.4,0.6-0.6c0.2-0.9,1-1.3,1.5-2
					c0.5-0.8,1.2-1.4,1.8-2.1c1.7-1.8,3.2-3.7,4.8-5.6c0.2-0.2,0.5-0.4,0.3-0.7c0-0.1,0-0.2,0-0.3c0.1,0,0.2-0.1,0.1-0.2
					c-0.1-0.1-0.2,0-0.3,0.1c-0.3,0-0.5,0.2-0.7,0.4c-1.1,1.1-2.3,2-3.5,3c-0.6,0.5-1.3,0.9-1.8,1.5c-0.9,0.6-1.7,1.3-2.5,2
					c-0.2,0.1-0.4,0.3-0.4,0.5c-0.1,0.7-0.5,0.8-1.1,0.7c0.2,0.3,0.7,0.4,0.3,0.7c-0.3,0.3-0.5,0.7-0.9,0.9c-0.7,0.6-1.2,1.3-2,1.9
					c-0.6,0.4-1.1,1.1-1.6,1.7c-0.9,1.1-1.9,2-2.5,3.3c-0.3,0.6-0.8,1.3-1.4,1.7c-0.4,0.3-0.6,0.5-0.6,0.9c-0.3,0.3-0.6,0.7-0.9,1
					c-0.2,0-0.3,0-0.2,0.3c-0.1,0.1-0.3,0.3-0.4,0.4c-0.5-0.1-0.5,0.5-0.8,0.7c-0.4,0.3-0.2,0.8,0.3,1.1c1,0.7,1,0.7,1.4,0.1
					c0.4-0.8,1-1.4,1.6-2.1c0.4-0.5,1-0.9,0.4-1.7c0,0,0-0.1,0-0.1C91.9,34.2,92.6,33.4,92.6,32.6L92.6,32.6z M82.9,43.9
					c-0.1,0-0.3,0-0.3,0.2c0,0.3,0.3,0.3,0.5,0.3c0.1,0,0.3,0,0.3-0.2C83.3,43.9,83.1,43.9,82.9,43.9z"/>
				<path class="st23" d="M16.8,23.6c-0.4-0.1-0.3-0.4-0.2-0.7c0.2-0.5,0.5-0.9,0.8-1.1c0.7-0.5,1.1-1.3,1.8-1.8
					c0.4-0.3,0.6-0.8,0.9-1.3c0.3-0.5,0.8-1,1.2-1.3c0.5-0.4,0.8-0.9,1.2-1.4c1.2-1.3,2.3-2.6,3.5-3.9c0.4-0.5,0.5-1.1,1-1.5
					c1.8-1.2,2.7-3.3,4.2-4.7c0.1-0.1,0.2-0.2,0.2-0.4c0-0.8,0.3-0.6,0.8-0.4c0.2,0.1,0.5,0.3,0.7,0c0.4-0.5,0.9-0.9,1.2-1.4
					c0.6-0.9,1.4-1.4,2.5-1.2c0.1,0,0.1-0.1,0.2-0.1c0.5,0.2,1,0.5,1.3,1c-0.4,0-0.3,0.2-0.1,0.4c0.2,0.2,0.2,0.4,0,0.7
					c-0.6,0.5-1.2,1.1-1.6,1.8c-0.1,0.1-0.2,0.3-0.3,0.4C35.5,7,35.2,7.4,35.7,8c0.1,0.2,0,0.4-0.2,0.5c-0.7,0.3-1.1,0.9-1.7,1.4
					c-0.6,0.6-0.9,1.3-1.5,1.9c-0.3,0.2-0.6,0.4-0.8,0.7c-0.7,0.8-1.2,1.8-2.1,2.5c-0.3,0.2-0.7,0.5-0.7,1c0,0.2-0.2,0.3-0.4,0.4
					c-0.1,0.1-0.3,0.1-0.4,0.2c-0.4,1.2-1.8,1.6-2.2,2.8c-0.2,0.6-1,1-1.5,1.5c-0.7,0.7-1.2,1.5-1.7,2.3c-0.6,0.9-1.4,1.6-2,2.4
					c-0.5,0.7-0.8,0.6-1.6-0.2c0.2,0,0.4,0,0.5-0.1c0.7-0.8,1.4-1.6,2-2.6c0.2-0.4,0.7-0.5,0.9-0.9c0.6-1.3,1.6-2.3,2.7-3.3
					c0.4-0.4,1.3-0.8,0.8-1.7c-0.1-0.2,0.2-0.5,0.4-0.7c0,0,0.2-0.1,0.3,0c0.3,0.2-0.2,0.4-0.1,0.6c0,0,0,0.1,0.1,0.1
					c0.1,0.1,0.2,0,0.2-0.1c1.1-1.1,2.1-2.2,3.1-3.4c0.9-1.1,1.7-2.1,2.7-3.1c0.6-0.6,1-1.3,1.5-1.9c0.3-0.3,1-0.4,0.9-1
					c-0.1-0.4-0.5-0.8-0.8-1.1c-0.3-0.3-0.8-0.7-1.2-0.5c-0.5,0.3-1,0.8-1.4,1.2c-0.9,0.9-1.5,2-2.5,2.9c-0.5,0.4-1,0.9-1.3,1.4
					c-0.6,0.9-1.4,1.5-2,2.4c-0.6,0.9-1.4,1.6-2.1,2.3c-0.9,0.9-1.7,1.8-2.5,2.8C19.5,20.5,18.1,22,16.8,23.6z"/>
				<path class="st23" d="M107.1,13.4c0,0.2-0.1,0.4-0.1,0.5c-0.8,0.2-1.1,1-1.9,1.3c-0.7,0.2-1.2,0.8-1.6,1.3c-0.9,1.1-1.9,2.1-3,3
					c-0.4,0.3-0.8,0.8-1.1,1.2c-0.3,0.3-0.5,0.5-0.9,0.7c-0.1-0.3,0.1-0.4,0.2-0.5c0.8-0.8,1.7-1.6,2.4-2.6c0.1-0.2,0.3-0.3,0.3-0.5
					c1.3-1.8,3.1-2.9,4.9-4.1C106.5,13.5,106.8,13.3,107.1,13.4z"/>
				<path class="st23" d="M70.6,17.8c-0.4-0.2-0.7,0.1-1,0.2c-0.3,0.2,0,0.4,0.2,0.6c0.1,0.2,0.3,0.4,0.1,0.6
					c-0.2,0.2-0.4,0-0.5-0.1c-1.1-0.8-2.2-1.5-3.5-2c-0.2-0.1-0.5-0.2-0.4-0.4c0.1-0.3,0.4-0.1,0.5,0c0.5,0.2,1,0,1.5,0.4
					c0.1,0.1,0.5,0.3,0.6,0.1c0.1-0.3,0.3-0.7,0.2-1c0,0,0-0.1,0-0.1c0.6,0,0.9,0.5,1.3,0.8C69.9,17.1,70.3,17.4,70.6,17.8z"/>
				<path class="st23" d="M82.5,41.1c0,0.2,0.1,0.5-0.1,0.5c-0.4,0.2-0.6,0.3-0.3,0.7c0.1,0.2-0.1,0.3-0.3,0.2
					c-0.3-0.1-0.5,0-0.6,0.3c-0.1,0.3,0.3,0.2,0.4,0.4c-0.2,0.2-0.5,0.3-0.7,0.4C80.7,42.3,81.7,41.7,82.5,41.1z"/>
				<path class="st23" d="M15,40.9c-0.1-0.5,0.3-0.7,0.7-0.9C15.7,40.4,15.4,40.7,15,40.9z"/>
				<path class="st23" d="M58.7,42.4c0-0.5,0.4-0.6,0.7-0.9C59.3,42,59,42.2,58.7,42.4z"/>
				<path class="st23" d="M62.5,36.9c0.2-0.3,0-0.7,0.4-0.9C62.9,36.3,63,36.8,62.5,36.9z"/>
				<path class="st23" d="M59.3,41.5c0.1-0.3,0.1-0.7,0.4-1C59.8,40.9,59.8,41.3,59.3,41.5z"/>
				<path class="st23" d="M17.5,38c0.2-0.3,0.4-0.4,0.7,0C17.9,38,17.7,38,17.5,38z"/>
				<path class="st23" d="M13.9,42.2c0-0.3,0.1-0.4,0.4-0.5C14.3,42,14.2,42.2,13.9,42.2z"/>
				<path class="st23" d="M58.3,42.9c0-0.2,0.1-0.4,0.3-0.4C58.6,42.7,58.6,42.9,58.3,42.9z"/>
				<path class="st23" d="M60.9,39c0-0.1,0-0.2,0.1-0.3C61.3,39,61.1,39,60.9,39z"/>
				<path class="st23" d="M88.5,42.1c0-0.2,0.1-0.3,0.2-0.3C88.7,42,88.7,42.1,88.5,42.1z"/>
				<path class="st24" d="M16.8,23.6c1.4-1.6,2.8-3.1,4.1-4.7c0.8-1,1.6-2,2.5-2.8c0.8-0.7,1.6-1.4,2.1-2.3c0.6-0.9,1.4-1.6,2-2.4
					c0.4-0.5,0.8-1,1.3-1.4c1-0.9,1.6-2,2.5-2.9c0.4-0.5,0.9-0.9,1.4-1.2c0.4-0.2,0.9,0.2,1.2,0.5c0.3,0.3,0.7,0.7,0.8,1.1
					c0.1,0.5-0.6,0.6-0.9,1c-0.5,0.6-1,1.4-1.5,1.9c-1,1-1.8,2.1-2.7,3.1c-1,1.2-2,2.3-3.1,3.4c-0.1,0.1-0.1,0.2-0.2,0.1
					c0,0,0-0.1-0.1-0.1c-0.1-0.2,0.4-0.4,0.1-0.6c-0.1,0-0.2,0-0.3,0c-0.2,0.2-0.5,0.5-0.4,0.7c0.6,1-0.4,1.3-0.8,1.7
					c-1,1-2,2-2.7,3.3c-0.2,0.4-0.6,0.5-0.9,0.9c-0.5,0.9-1.3,1.7-2,2.6c-0.1,0.1-0.3,0.1-0.5,0.1C18.3,24.9,17.5,24.2,16.8,23.6z"
					/>
				<path class="st24" d="M13.8,33c-0.5,0.9-1.3,1.6-1.9,2.3c-1.3,1.5-2.6,3-3.9,4.5c-0.4,0.5-0.8,0.5-1.2,0.1
					c-0.2-0.2-0.3-0.3-0.5-0.5c-0.3-0.2-0.2-0.4,0-0.7c1.4-1.7,2.8-3.4,4.3-5c0.6-0.7,1.1-1.4,1.8-2c0.2,0.2,0.2,0.4,0,0.6
					c-0.1,0.1-0.1,0.2,0,0.3c0.1,0,0.2,0,0.3,0C13.3,32,13.5,32.5,13.8,33z"/>
				<path class="st24" d="M16.3,24c0.9,0.4,1.6,1.1,2.3,1.7c-0.4,0.4-0.5,1.3-1.4,1.2c-0.2,0-0.2,0.2-0.2,0.3c0,0.6-0.2,1-0.8,1.1
					c-0.3,0-0.4,0.3-0.3,0.5c0.2,0.7-0.2,0.3-0.5,0.3c-0.4-0.2-0.7-0.4-1-0.7c0-0.3-0.2-0.3-0.4-0.3c-0.2,0-0.2-0.1-0.3-0.3
					c-0.1-0.3-0.3-0.7,0.1-0.9c0.6-0.4,1-1,1.4-1.5C15.6,25,16.2,24.7,16.3,24z"/>
				<path class="st23" d="M13.8,33c-0.2-0.5-0.4-1-1.1-0.4c-0.1,0.1-0.2,0.1-0.3,0c-0.1-0.1-0.1-0.2,0-0.3c0.1-0.2,0.2-0.4,0-0.6
					c0.5-0.6,0.9-1.4,1.7-1.7c0.1,0.3-0.1,0.3-0.2,0.4c-0.1,0.2-0.2,0.3-0.1,0.5c0.1,0.2,0.3,0.1,0.4,0c0.3-0.2,0.5-0.1,0.7,0.1
					c0.3,0.3,0.1,0.5-0.1,0.7C14.6,32.3,14.3,32.7,13.8,33z"/>
				<path class="st23" d="M16.3,24c-0.2,0.6-0.7,1-1.1,1.4c-0.4,0.5-0.8,1.2-1.4,1.5c-0.4,0.2-0.2,0.6-0.1,0.9
					c-0.5-0.1-0.7-0.6-1.1-0.9c-0.1-0.1-0.1-0.2,0.1-0.3c1-0.5,1.6-1.4,2.2-2.3c0.3-0.4,0.6-0.5,1-0.7C16.1,23.7,16.3,23.8,16.3,24z
					"/>
				<path class="st23" d="M15.5,29.2c0.2,0,0.7,0.3,0.5-0.3c-0.1-0.3,0.1-0.5,0.3-0.5c0.6-0.1,0.8-0.5,0.8-1.1c0-0.1,0-0.3,0.2-0.3
					c0.9,0.1,1-0.7,1.4-1.2c0.4,0.2,0.5,0.4,0.2,0.8c-0.7,1.1-1.7,1.9-2.5,2.9C16.1,29.9,15.6,29.8,15.5,29.2z"/>
				<path class="st23" d="M14,28.2c0.2,0,0.4,0,0.4,0.3C14.2,28.5,14.1,28.4,14,28.2z"/>
				<path class="st24" d="M53.8,37.3c0.1,0.1,0.2,0.2,0.2,0.4c-1,0.6-1.5,1.6-2.2,2.4c0,0,0,0.1,0,0.1c-0.1,0-0.2,0.1-0.2,0.2
					c-0.8-0.4-1.4-1-2-1.5c0.3-0.2,0.6-0.4,0.7-0.8c0-0.2,0.2-0.5,0.4-0.6c0.7-0.4,0.8-1,1-1.6c0.1,0,0.2,0,0.3,0
					C52.5,36.4,53.1,36.9,53.8,37.3z"/>
				<path class="st23" d="M65.8,23.2c-0.6,0-0.6,0.3-0.2,0.6c0.1,0.1,0.3,0.2,0.2,0.4c-0.1,0.2-0.3,0-0.5,0
					c-0.8-0.4-1.6-0.9-2.4-1.4c-0.2-0.1-0.5-0.3-0.4-0.5c0.1-0.2,0.4-0.1,0.6-0.1c0.1,0,0.2,0,0.4-0.1c-0.2-0.5-0.8-0.6-1.2-0.9
					c-0.2-0.1-0.5-0.1-0.4-0.4c0.1-0.3,0.4-0.1,0.6-0.2c0.5,0,0.9,0.1,1.2,0.5c-0.3,0.3-0.2,0.6,0.2,0.8
					C64.6,22.2,65.2,22.6,65.8,23.2z"/>
				<path class="st23" d="M67.4,27.4c1.4-2.1,2.9-3.9,4.6-5.7c0.1,0,0,0.2,0.1,0.3c0.4,0.7,0.2,1.1-0.6,1.3c-1,0.1-1,0.1-0.9,1.2
					c0.1,0.5-0.3,0.8-0.8,1c-0.6,0.1-0.9,0.4-0.8,1C69,27.1,68.5,27.4,67.4,27.4z"/>
				<path class="st23" d="M61.9,24.6c0.2-0.1,0.7-0.2,0.1-0.5c-0.1-0.1-0.2-0.2-0.3-0.4c-0.1-0.2-0.2-0.4,0-0.5
					c0.1-0.1,0.3-0.1,0.5,0c1,0.4,1.8,1.1,2.5,1.9c0.1,0.1,0.2,0.3,0.1,0.4c-0.1,0.2-0.3,0.1-0.4,0c-0.1-0.1-0.2-0.2-0.4-0.2
					c-0.1,0-0.3-0.3-0.4,0c-0.1,0.2,0,0.3,0.1,0.5c0.1,0.2,0.5,0.4,0.3,0.6c-0.3,0.2-0.6,0-0.8-0.3c0.3-0.6,0-0.9-0.5-1.2
					C62.4,24.8,62.1,24.8,61.9,24.6z"/>
				<path class="st23" d="M51.9,33.3c1.1,0.2,2,0.6,2.7,1.2c0.5,0.3,0.9,0.8,1.3,1.2c0.2,0.1,0.3,0.4,0.2,0.6
					c-0.2,0.2-0.4,0-0.6-0.1c-0.4-0.3-0.7-0.5-1.1-0.8c-0.8-0.7-1.9-0.8-2.7-1.5c-0.1-0.1-0.4-0.1-0.3-0.4
					C51.7,33.3,51.9,33.3,51.9,33.3z"/>
				<path class="st23" d="M58.2,25.9c1,0.3,1.8,0.6,2.6,0.9c0.5,0.2,1,0.5,1.2,1.1c0.1,0.1,0.2,0.3,0.1,0.4c-0.1,0.1-0.3,0.1-0.4,0
					C60.4,27.7,59.1,27.3,58.2,25.9z"/>
				<path class="st23" d="M57.1,34.8C57.1,35,56.9,35,56.7,35c-1-0.4-1.8-1-2.6-1.6c-0.2-0.1-0.2-0.4-0.1-0.5c0.1-0.3,0.3,0,0.5,0
					c1,0.2,1.9,0.7,2.5,1.6C57,34.5,57.1,34.6,57.1,34.8z"/>
				<path class="st23" d="M53.7,36.4c-0.2-0.6-0.8-0.8-1.2-1.2c-0.2-0.1-0.4-0.2-0.3-0.5c0.1-0.3,0.4-0.1,0.6,0
					c1.2,0.3,2,1.2,2.7,2.1c0.2,0.3,0,0.3-0.2,0.4c-0.3,0-0.4-0.1-0.6-0.3C54.3,36.6,54.1,36.4,53.7,36.4
					C53.7,36.4,53.7,36.4,53.7,36.4z"/>
				<path class="st23" d="M57.9,33.9c0,0.1-0.1,0.2-0.3,0.2c-0.3-0.1-0.6-0.3-0.8-0.5c-0.5-0.4-1.1-0.8-1.7-1.1
					c-0.3-0.1-0.5-0.4-0.3-0.7c0.2-0.4,0.4,0,0.6,0.1c1,0.3,1.6,1.1,2.4,1.7C57.8,33.6,57.9,33.7,57.9,33.9z"/>
				<path class="st23" d="M57.7,28.5c0.9,0,2.3,0.9,2.6,1.7c0.1,0.3,0,0.4-0.3,0.3c-0.3-0.1-0.6-0.2-0.8-0.3
					c-0.6-0.3-1.1-0.7-1.6-1.1c-0.2-0.1-0.3-0.2-0.2-0.5C57.4,28.5,57.5,28.5,57.7,28.5z"/>
				<path class="st23" d="M63.1,27.5c0,0.4-0.2,0.3-0.4,0.2c-0.3-0.2-0.6-0.4-0.9-0.6c-0.5-0.3-1-0.7-1.5-0.9
					c-0.4-0.1-0.5-0.5-0.4-0.8c0.1-0.3,0.4,0,0.6,0c1,0.4,1.7,1.2,2.5,1.8C63,27.3,63.1,27.4,63.1,27.5z"/>
				<path class="st23" d="M66.2,17.8c0.8,0.4,1.6,0.8,2.3,1.4c0.3,0.2,0.9,0.5,0.7,0.8c-0.3,0.4-0.7-0.2-1-0.3
					c-0.7-0.3-1.4-0.8-2-1.3c-0.1-0.1-0.2-0.3-0.1-0.4C66,17.9,66.1,17.9,66.2,17.8z"/>
				<path class="st23" d="M58.5,32.3c0,0.3-0.2,0.4-0.4,0.3c-0.9-0.2-1.5-0.8-2.2-1.4c-0.2-0.2-0.2-0.5,0.1-0.5
					c0.7-0.1,2.2,0.8,2.4,1.4C58.4,32.1,58.4,32.2,58.5,32.3z"/>
				<path class="st23" d="M61.2,29.5c0,0.4-0.2,0.3-0.4,0.2c-0.8-0.5-1.6-1.1-2.5-1.6c-0.2-0.1-0.3-0.4-0.2-0.6c0.2-0.3,0.4,0,0.6,0
					c1,0.3,1.6,1.1,2.3,1.7C61.1,29.3,61.2,29.4,61.2,29.5z"/>
				<path class="st24" d="M56.6,29.4c1.1,0.4,1.9,1.1,2.7,2c0.1,0.1,0.3,0.3,0.2,0.5c-0.2,0.3-0.4,0.1-0.6-0.1
					c-0.7-0.6-1.6-1.1-2.4-1.6C56.6,30,56.6,29.7,56.6,29.4z"/>
				<path class="st24" d="M66.9,22.1c-0.8-0.4-1.6-0.9-2.3-1.5c-0.2-0.1-0.4-0.3-0.3-0.5c0.2-0.3,0.4,0.1,0.6,0.1
					c0.1,0,0.3,0.1,0.4,0.1c0.6,0.2,1.3,0.3,1.6,1c0.1,0.1,0.2,0.3,0.3,0.4C67.1,21.9,67,22,66.9,22.1z"/>
				<path class="st24" d="M65.8,23.2c-0.6-0.6-1.3-1-2-1.3c-0.4-0.2-0.5-0.4-0.2-0.8c1,0.3,1.8,1,2.5,1.8c0.1,0.1,0.3,0.3,0.2,0.5
					C66.2,23.6,66,23.3,65.8,23.2z"/>
				<path class="st24" d="M65.3,19.7c-0.1-0.2-0.2-0.3-0.2-0.5c0-0.1,0-0.2,0-0.2c1.2,0.3,2,1,2.8,1.9c0,0.1-0.1,0.3-0.1,0.4
					c-0.2,0-0.3-0.1-0.4-0.2C66.8,20.5,66.2,19.9,65.3,19.7z"/>
				<path class="st23" d="M51.5,41.7c-1.1-1-2.2-1.8-3.3-2.7C49.5,39.6,50.7,40.3,51.5,41.7z"/>
				<path class="st23" d="M51.8,40.1c0.7-0.8,1.2-1.9,2.2-2.4c0.3,0.1,0.4,0.3,0.3,0.5c-0.1,0.2-0.2,0.3-0.5,0.2
					c-0.3-0.1-0.3,0.2-0.4,0.3C53.1,39.4,52.7,40,51.8,40.1z"/>
				<path class="st24" d="M61.9,24.6c0.2,0.2,0.5,0.2,0.8,0.3c0.5,0.3,0.8,0.6,0.5,1.2c-0.2-0.1-0.4-0.2-0.5-0.2
					c0-0.2-0.1-0.2-0.3-0.2c-0.1-0.1-0.3-0.2-0.4-0.2c-0.1-0.2-0.2-0.4-0.5-0.3c0,0-0.1,0-0.1-0.1c0-0.2-0.4-0.4-0.2-0.7
					C61.4,24.4,61.7,24.5,61.9,24.6z"/>
				<path class="st23" d="M51.7,35.9c-0.2,0.6-0.3,1.3-1,1.6c-0.2,0.1-0.4,0.4-0.4,0.6c0,0.4-0.3,0.6-0.7,0.8
					c-0.2-0.1-0.4-0.2-0.2-0.4c0.6-0.8,1.4-1.5,1.8-2.4C51.3,35.9,51.5,35.8,51.7,35.9z"/>
				<path class="st23" d="M53.8,37.3c-0.7-0.4-1.3-0.9-1.9-1.4c0.3-0.3,0.6-0.3,0.9,0c0.2,0.2,0.5,0.5,0.8,0.5c0,0,0,0,0,0
					C53.9,36.7,54,37,53.8,37.3z"/>
				<path class="st23" d="M65.3,19.7c0.9,0.1,1.5,0.7,2.1,1.3c-0.2,0.1-0.4,0.1-0.6,0.2c-0.3-0.7-1-0.8-1.6-1
					C65.3,20.1,65.4,19.9,65.3,19.7z"/>
				<path class="st23" d="M67.1,28.7c0,0.6-0.6,1.1-1.1,1c-0.3-0.1-0.3-0.2-0.2-0.4c0.3-0.3,0.6-0.6,0.7-1c0-0.1,0.1-0.2,0.2-0.1
					C67,28.3,67.1,28.6,67.1,28.7z"/>
				<path class="st23" d="M56.6,29.4c0,0.3,0,0.5,0,0.8c0,0,0,0-0.1,0c-0.4-0.2-0.9-0.3-1.1-0.8C55.8,29.4,56.2,29.5,56.6,29.4z"/>
				<path class="st23" d="M65,31.6c-0.1,0.3-0.4,0.3-0.6,0.1c-0.2-0.2-0.2-0.4,0-0.6c0.2-0.2,0.3-0.5,0.6-0.7c0.4-0.3,0.3,0,0.4,0.2
					c-0.3,0-0.4,0.3-0.6,0.5C64.3,31.6,64.7,31.5,65,31.6z"/>
				<path class="st24" d="M65,31.6c-0.2,0-0.6,0-0.3-0.4c0.2-0.2,0.2-0.5,0.6-0.5C65.6,31.1,65.3,31.3,65,31.6z"/>
				<path class="st23" d="M61.2,24.3c-0.2,0.3,0.2,0.4,0.2,0.7c-0.2,0-0.4-0.1-0.5-0.2c-0.1-0.2-0.5-0.3-0.3-0.6
					C60.7,24,61,24.2,61.2,24.3z"/>
				<path class="st23" d="M48.7,44.2c0.1,0,0.1,0,0.1,0c0.2,0.2,0.7,0.1,0.8,0.5c0,0-0.1,0.1-0.1,0.1C49.1,44.8,48.9,44.6,48.7,44.2
					z"/>
				<path class="st23" d="M66.9,22.1c0.1-0.1,0.2-0.2,0.2-0.3c0.3,0.1,0.5,0.2,0.3,0.5C67.3,22.4,67,22.3,66.9,22.1z"/>
				<path class="st23" d="M67.8,21.3c0-0.1,0.1-0.3,0.1-0.4c0.3,0,0.3,0.2,0.3,0.4C68.1,21.5,68,21.5,67.8,21.3z"/>
				<path class="st23" d="M61.5,25.1c0.3,0,0.4,0.1,0.5,0.3C61.6,25.5,61.5,25.3,61.5,25.1z"/>
				<path class="st23" d="M51.7,40.4c0-0.1,0.1-0.2,0.2-0.2c0.1,0.1,0.2,0.2,0.1,0.3C51.8,40.5,51.7,40.5,51.7,40.4z"/>
				<path class="st23" d="M62.3,25.6c0.2,0,0.3,0.1,0.3,0.2C62.4,25.9,62.4,25.8,62.3,25.6z"/>
				<path class="st23" d="M65.2,19c0,0.1,0,0.2,0,0.2C65.1,19.1,65,19,65.2,19z"/>
				<path class="st24" d="M88.6,35.8c0.3-0.3,0.6-0.7,0.9-1c0.3-0.1,0.3-0.4,0.5-0.5c1.2-0.5,1.6-1.6,2.3-2.5c0.2-0.3,0.1-0.7,0.4-1
					c1.3-1.3,2.4-2.8,3.8-4c1.7-1.5,3-3.4,4.6-5c0.4-0.4,0.9-0.7,1-1.4c0.5-0.6,1.1-1,1.8-1.5c1.2-0.9,2.4-1.9,3.5-3
					c0.2-0.2,0.4-0.4,0.7-0.4c0.1,0,0.1,0,0.2,0.1c0,0.1,0,0.2,0,0.3c-0.5,0.1-0.7,0.5-1,0.9c-1.6,1.8-3.2,3.6-4.8,5.5
					c-1.5,1.7-2.9,3.5-4.5,5.2c-0.5,0.5-0.6,1.2-1.2,1.6c-0.8,0.6-1.2,1.4-1.9,2c-0.4,0.4-0.9,1-1,1.6c-0.2-0.1-0.5-0.3-0.7-0.4
					c-0.5-0.4-0.5,0-0.6,0.4c0,0,0,0,0,0c-0.8,0.4-1.1,1.2-1.6,1.8c0,0,0,0.1,0,0.1c0.6,0.8,0,1.2-0.4,1.7c-0.6,0.7-1.2,1.3-1.6,2.1
					c-0.4,0.7-0.4,0.6-1.4-0.1c-0.3-0.5-0.3-0.9,0.1-1.3c0.1-0.1,0.2-0.3,0.3-0.5c0.1-0.1,0.3-0.3,0.4-0.4
					C88.5,36,88.6,35.9,88.6,35.8z"/>
				<path class="st23" d="M93.9,32.6c0.1-0.7,0.6-1.2,1-1.6c0.7-0.7,1.1-1.5,1.9-2c0.5-0.4,0.7-1.1,1.2-1.6c1.5-1.7,3-3.4,4.5-5.2
					c1.6-1.8,3.2-3.6,4.8-5.5c0.3-0.3,0.6-0.7,1-0.9c0.2,0.4-0.1,0.5-0.3,0.7c-1.6,1.9-3.1,3.8-4.8,5.6c-0.6,0.7-1.3,1.3-1.8,2.1
					c-0.4,0.7-1.2,1.1-1.5,2c-0.1,0.2-0.4,0.4-0.6,0.6c-0.3,0.3-0.7,0.5-0.8,1c-0.1,0.4-0.6,0.6-0.9,0.9c-0.9,0.9-1.6,1.9-2.5,2.8
					c-0.3,0.3-0.6,0.6-0.8,1C94.2,32.7,94.1,32.8,93.9,32.6z"/>
				<path class="st23" d="M102.2,20.4c-0.1,0.6-0.6,1-1,1.4c-1.6,1.6-2.8,3.6-4.6,5c-1.4,1.2-2.5,2.7-3.8,4c-0.3,0.3-0.2,0.7-0.4,1
					c-0.7,0.9-1.2,2-2.3,2.5c-0.2,0.1-0.2,0.4-0.5,0.5c0-0.4,0.2-0.7,0.6-0.9c0.6-0.5,1-1.1,1.4-1.7c0.6-1.3,1.6-2.3,2.5-3.3
					c0.5-0.6,1-1.2,1.6-1.7c0.8-0.6,1.3-1.3,2-1.9c0.4-0.3,0.6-0.6,0.9-0.9c0.4-0.3-0.1-0.4-0.3-0.7c0.7,0.2,1.1,0,1.1-0.7
					c0-0.2,0.2-0.4,0.4-0.5C100.5,21.7,101.3,20.9,102.2,20.4z"/>
				<path class="st23" d="M87.5,39.3c0.3,0.3,0.2,0.6-0.2,0.8c-0.4,0.3-0.7,0.8-1.1,0.9c-0.6,0.3-0.6,1.4-1.5,1.1l0,0
					c0-0.4,0-0.8,0.5-0.8c0.1,0,0.1-0.1,0.2-0.1c-0.6-0.6,0.4-0.6,0.4-0.8c0-0.6,0.4-0.5,0.8-0.6c0,0.2-0.4,0.3-0.2,0.5
					c0.1,0.1,0.2,0.2,0.3,0C86.9,39.9,87.5,39.9,87.5,39.3z"/>
				<path class="st24" d="M87.5,39.3c0,0.6-0.6,0.6-0.8,1c-0.1,0.1-0.2,0.1-0.3,0c-0.2-0.3,0.2-0.3,0.2-0.5
					c-0.1-0.4,0.1-0.7,0.5-0.8C87.3,38.8,87.5,39,87.5,39.3z"/>
				<path class="st23" d="M91,34.4c0.5-0.6,0.8-1.4,1.6-1.8C92.6,33.4,91.9,34.2,91,34.4z"/>
				<path class="st23" d="M84.7,42.1c0.2,0.7,0.2,0.8-0.6,0.9l0,0C83.7,42.2,83.7,42.2,84.7,42.1C84.7,42.1,84.7,42.1,84.7,42.1z"/>
				<path class="st23" d="M88,36.4c-0.1,0.2-0.2,0.3-0.3,0.5c-0.4,0.4-0.4,0.8-0.1,1.3c-0.5-0.2-0.7-0.7-0.3-1.1
					C87.5,36.9,87.5,36.4,88,36.4z"/>
				<path class="st23" d="M84.1,43c-0.1,0.2,0.2,0.4-0.1,0.6c-0.2,0.1-0.3,0.3-0.5,0.2c-0.2-0.1-0.3-0.2-0.3-0.4
					c0-0.2,0.2-0.3,0.4-0.3C83.8,43,84,43,84.1,43C84.1,43,84.1,43,84.1,43z"/>
				<path class="st23" d="M82.9,43.9c0.2,0,0.4,0.1,0.5,0.3c0,0.2-0.1,0.2-0.3,0.2c-0.2,0-0.5,0-0.5-0.3
					C82.6,43.9,82.7,43.9,82.9,43.9z"/>
				<path class="st23" d="M92.6,32.6c0.1-0.3,0.1-0.8,0.6-0.4C93,32.3,92.8,32.4,92.6,32.6z"/>
				<path class="st23" d="M88.6,35.8c0,0.1-0.1,0.2-0.2,0.3C88.3,35.8,88.4,35.8,88.6,35.8z"/>
				<path class="st23" d="M108.3,15.6c-0.1,0-0.1,0-0.2-0.1c0.1-0.1,0.1-0.2,0.3-0.1C108.5,15.4,108.4,15.5,108.3,15.6z"/>
			</g>
		</g>
	</g>
</g>
</svg>
