<?xml version="1.0" encoding="utf-8"?>
<!-- Generator: Adobe Illustrator 24.0.3, SVG Export Plug-In . SVG Version: 6.00 Build 0)  -->
<svg version="1.1" id="レイヤー_1" xmlns="http://www.w3.org/2000/svg" xmlns:xlink="http://www.w3.org/1999/xlink" x="0px"
	 y="0px" viewBox="0 0 95.8 57" style="enable-background:new 0 0 95.8 57;" xml:space="preserve">
<style type="text/css">
	.st0{fill:#9A9E9E;}
	.st1{fill:#CCCDCC;}
	.st2{fill:#BDBFBF;}
	.st3{fill:#919191;}
	.st4{clip-path:url(#SVGID_2_);}
	.st5{fill:#FCFCFC;}
</style>
<g>
	<g>
		<g>
			<polygon class="st0" points="85.7,0 0,11.3 0,48.6 6.9,57 95.8,41 95.8,5.4 			"/>
		</g>
	</g>
	<polygon class="st1" points="6.9,17.4 6.9,57 95.8,41 95.8,5.4 	"/>
	<polygon class="st2" points="85.7,0 95.8,5.4 6.9,17.4 0,11.3 	"/>
	<polygon class="st3" points="0,48.6 0,11.3 6.9,17.4 6.9,57 	"/>
</g>
<g>
	<defs>
		<polygon id="SVGID_1_" points="91.9,38.5 10.5,52.6 10.5,21.1 91.9,6.9 		"/>
	</defs>
	<clipPath id="SVGID_2_">
		<use xlink:href="#SVGID_1_"  style="overflow:visible;"/>
	</clipPath>
	<g class="st4">
		<g>
			<g>
				<g>
					<path class="st1" d="M95.6,21.6c0,5.1,0,10.3,0,15.4c0,0.5,0.1,1,0.5,1.4c1.1,1.3,0.9,2.9-0.4,4.3c-1.1,1.1-2.5,1.8-3.9,2.3
						c-3.7,1.4-7.5,2.4-11.3,3.3c-7.9,2-15.8,3.6-23.8,5.2c-4.7,0.9-9.3,1.8-14,2.5c-3.1,0.5-6.2,1-9.3,1.5
						c-2.6,0.4-5.2,0.7-7.9,1.1c-1.9,0.3-3.8,0.5-5.7,0.7c-1.5,0.2-3,0.3-4.5,0.4c-3.2,0.3-6.4,0.6-9.7,0.5c-1.3,0-2.5-0.3-3.7-0.9
						C-0.3,58.3-0.7,56,1,54.2c0.7-0.7,1.5-1.3,2.5-1.7c0.5-0.2,0.5-0.4,0.2-0.8C2.8,50.8,2,49.9,1.2,49c-0.2-0.3-0.3-0.6-0.3-0.9
						c0-12.1,0-24.1,0-36.2c0-0.5,0.1-0.7,0.6-0.8c1.7-0.2,3.4-0.5,5-0.7c1.6-0.2,3.2-0.3,4.8-0.6c1.8-0.3,3.5-0.4,5.3-0.7
						c1.6-0.2,3.3-0.5,4.9-0.7C23,8.2,24.5,8,26,7.8c1.8-0.2,3.6-0.5,5.5-0.7c1.4-0.2,2.8-0.4,4.2-0.6c1.6-0.2,3.3-0.4,4.9-0.7
						c1.5-0.2,3-0.4,4.5-0.6c2.1-0.3,4.2-0.6,6.3-0.9c1.8-0.3,3.6-0.5,5.4-0.7C58.2,3.4,59.6,3.2,61,3c1.1-0.1,2.3-0.2,3.4-0.4
						c1.9-0.3,3.7-0.4,5.6-0.7C72,1.6,74,1.3,76.1,1c2.9-0.4,5.8-0.8,8.7-1.3c1.1-0.2,2,0.3,2.9,0.8c1.7,0.9,3.4,1.9,5.1,2.7
						c0.7,0.3,1.3,0.7,2,1c0.5,0.3,0.9,0.8,0.9,1.4C95.6,11.1,95.6,16.4,95.6,21.6C95.6,21.6,95.6,21.6,95.6,21.6z M83.8,29.7
						c0.1,0,0.1-0.1,0.1-0.3c0,0,0,0,0,0c0,0,0,0,0,0c0,0,0,0-0.1,0.1C83.8,29.5,83.8,29.6,83.8,29.7c-0.1,0-0.2,0.1,0,0.2
						C83.8,29.8,83.8,29.8,83.8,29.7z M6.5,16.4C6.4,16.4,6.4,16.4,6.5,16.4C6.4,16.4,6.4,16.4,6.5,16.4c0.2,0.3,0.5,0.5,0.8,0.8
						c0,0.2-0.1,0.4,0.1,0.6c0.4-0.8,1.4-0.2,2-0.9c-0.8,0.1-1.4,0.2-2.1,0.2C7.2,16.7,6.9,16.5,6.5,16.4z M71.1,37.1
						c0.1,0.3-0.1,0.5,0.1,0.8c0.4-0.1,0.4,0.3,0.5,0.4c0.3-0.1,0-0.3,0.2-0.4c0.1,0.1,0.1,0.3,0.3,0.3c-0.1,0.3-0.2,0.7-0.4,1
						c-0.2,0.2-0.5,0.3-0.9,0.4c-1.3,0.2-2.7,0.5-4,0.7c-0.3,0-0.7-0.1-0.7,0.3c0,0.4,0.1,0.8,0.6,1c0.5,0.2,1,0,1.5,0
						c1.4,0,2.7-0.5,4-0.6c1.1-0.1,2.2-0.6,3.2-1.2c0.1-0.1,0.2,0,0.2,0.1c0.2,0.4,0.6,0.4,0.9,0.3c0.7-0.1,1.3-0.2,2-0.3
						c1.3-0.2,2.6-0.5,3.9-0.6c0.1-0.2-0.3-0.4-0.1-0.6c0.2-0.2,0.4,0.1,0.5,0.2c0.5,0.2,0.9,0.2,1.1-0.3c0.3,0,0.3-0.2,0.4-0.4
						c0-0.3-0.2-0.6-0.1-0.8c0.3-0.7-0.1-0.5-0.5-0.4c-0.3,0.1-0.7,0.2-0.7-0.4c0-0.8,0-1.5,0-2.3c0-0.3,0.1-0.4,0.4-0.3
						c1,0.4,1.3,0.1,1.4-1c0.3-0.6,0.8-1.2,1-1.8c0.4-1,1.1-1.6,2.1-1.7c0.1,0,0.3,0,0.4-0.1c0.3-0.1,0.8-0.1,1.1-0.4
						c0.2-0.2,0.3-0.4,0-0.6c-0.4-0.2-0.9-0.5-1.2-0.8c-0.1-0.1-0.4-0.3-0.4-0.1c-0.4,0.6-0.8,0.1-1.2,0.2c-0.5,0.1-1.1-0.2-1.4,0.5
						l0,0c-0.3,0.1-0.6,0.2-0.3,0.5c0.5,0.5,0.2,0.9-0.1,1.2c-0.2,0.2-0.4,0.7-0.6,0.6c-0.5-0.3-0.5,0.2-0.7,0.3
						c-0.2,0.3-0.4,0.6-0.6,0.9c-0.2,0.3-0.4,0.5-0.8,0.5l0,0c0-0.5,0.2-0.9,0.5-1.3c0.6-0.7,1-1.5,1.4-2.3c0.3-0.8,0.8-1.2,1.7-1.2
						c0.9,0,1.7-0.6,1.8-1.7c0.1-2.2,0-4.3,0.1-6.5c0-0.3-0.1-0.6-0.3-0.9c-0.8-1-1.5-2-2.2-3.1c-0.2-0.2-0.2-0.5-0.3-0.8
						c-0.1-1.1-0.2-1.1-1.3-0.9c-0.1,0-0.2,0-0.2,0.1c-0.2-0.4,0.1-0.8,0.1-1.2c0-0.6-0.3-1.2-0.1-1.9c0.3,0,0.7,0,1,0.1
						c0.1,0,0.3,0.2,0.3,0c0.1-0.2,0-0.3-0.1-0.4c-0.5-0.5-1-0.2-1.5,0c-0.1,0-0.2,0.1-0.2,0.1c-0.9-0.4-1.4,0.3-2,0.7
						c0,0-0.1,0.1-0.1,0.1c0,0.3,0.2,0.2,0.3,0.1c0.5-0.1,0.7,0.1,0.7,0.6c0,0.4,0.1,0.8,0.1,1.2c0.1,0.5,0.5,0.7,1,0.6
						c0.2,0.1,0.1,0.2,0.1,0.4c-0.4,0-0.7,0-1.1,0.1c-1.1,0.3-2.2,0.4-3.2-0.1c-0.4-0.2-0.9-0.3-1.4-0.3c-0.6,0-1-0.3-1.4-0.7
						c0.2-0.5,0.1-1,0.1-1.5c0-0.2-0.2-0.1-0.3-0.1c-0.4,0.1-0.6,0.2-0.5,0.6c0.1,0.2,0,0.3-0.1,0.3c-0.2,0-0.3-0.1-0.3-0.2
						c0.2-0.5-0.2-0.5-0.5-0.6c-0.4-0.1-0.9,0-1.3,0.1c-0.4,0.1-1,0-1.3,0.2c-0.4,0.3-0.1,0.9-0.1,1.3c-0.1,0.5-0.1,0.9-0.6,1.1
						c-0.8,0.2-1.4,0.7-2,1c-0.9,0.5-1.4,0.7-2-0.4c-0.1-0.2-0.3-0.3-0.5-0.3c-0.2,0-0.3,0.2-0.3,0.4c-0.2,0.6-0.5,1.2-0.8,1.8
						c-0.1,0.1-0.3,0.3-0.1,0.5c0.4,0.4,0.1,0.7-0.2,1.1c-0.1,0.1-0.2,0.2-0.2,0.4c0,1.3-0.6,2.5-1.2,3.6c-0.2-0.6,0.1-1.1,0.4-1.5
						c0.4-0.7,0.3-1.5,0.3-2.3c-0.9,1.2-1.9,2.2-2.9,3.1c-2,1.7-4.3,2.9-6.9,3.5c-2.5,0.6-5,0.9-7.6,1.3c-2.7,0.4-5.3,0.9-8,1.3
						c-3.2,0.5-6.3,0.9-9.5,1.4c-0.6,0.1-1.2,0.2-1.6,0.8c-0.2,0.3-0.8,0-0.8,0.6c-0.3,0.1-0.4-0.2-0.5-0.4c-0.1-0.2,0-0.5-0.5-0.6
						c0.3,0.6,0.5,1.3,0.5,1.9c0,0.4,0.1,0.8,0.1,1.3c0,0.1,0,0.2,0.1,0.2c0.6,0,0.6,0,0.4,0.6c-0.2,0-0.4-0.5-0.5,0
						c-0.3,1-0.9,1.8-1.4,2.7c-0.2,0.1-0.5,0.3-0.7,0.1c-0.2-0.2,0-0.4,0.2-0.6c1-1.3,1.5-2.8,1.3-4.5c-0.2-1.3-0.7-2.5-1.9-3.2
						c-0.3-0.1-0.5-0.3-0.5-0.7c0.5,0.5,1.3,0.5,1.6,1.2c0.1,0.1,0.2,0.1,0.3,0c0.1-0.1,0.2-0.1,0.2-0.2c-0.2-0.4,0-0.8-0.1-1.2
						c0-0.6-0.4-0.9-1-0.8c-1.6,0.2-3.1,0.5-4.7,0.7c-0.5,0.1-0.9,0.5-1,1.1c0,0.7-0.3,1.2-0.9,1.6c-0.2,0.1-0.4,0.2-0.4,0.4
						c0,0.9-0.7,1.6-1,2.5c-0.2-0.3-0.2-0.6-0.5-0.6c-0.2,0-0.3,0.3-0.4,0.5c-0.5,1-0.7,2.1-0.6,3.3c0.1,2.1,1.1,3.6,3,4.4
						c2.6,1.1,5,0.4,7.2-1.1c0.8-0.5,1.5-1.1,2.4-1.5c0.2-0.1,0.5-0.1,0.3-0.5c-0.1-0.1,0.1-0.3,0.3-0.2c0.4,0.4,0.8,0.1,1.2,0.1
						c1.5-0.2,3-0.5,4.5-0.7c3-0.5,6-1,9-1.5c3.5-0.5,6.9-1.1,10.4-1.6c2.7-0.4,5.3-0.2,7.7,1.1c0.8,0.4,1.5,1,2.4,1.4
						c-0.5-0.6-1-1.2-1.6-1.7c-1-0.7-2-1.2-2.9-2.2c1,0.2,1.7,1.3,2.8,0.6c-2.5-1.9-5.4-2.4-8.4-2c-2.3,0.3-4.5,0.7-6.8,1.1
						c-4.6,0.7-9.2,1.4-13.8,2.1c-1.4,0.2-2.8,0.6-4.3,0.3c-0.3-0.1-0.4,0.1-0.5,0.4c-0.1,0.6-0.4,0.8-1,0.7c0.2-0.4,0.1-1,0.8-0.8
						c0-0.3-0.3-0.3-0.3-0.4c0.1-0.3,0.5,0.1,0.6-0.2c0.3-0.1,0.6-0.2,0.9-0.1c0.2,0,0.4,0,0.3-0.3c0-0.3,0-0.6-0.1-0.8
						c-0.1-0.4-0.2-0.4,0.3-0.5c0.7,0,1.4-0.1,2.2-0.2c3.5-0.5,6.9-1.1,10.4-1.6c2.6-0.4,5.3-0.8,7.9-1.2c1.8-0.3,3.7-0.5,5.5-1.1
						c2.8-0.8,5.1-2.4,7.2-4.3c0.2,0,0.6-0.4,0.7,0.1c-0.4,1.2-0.6,2.4-0.6,3.7c0,1.4,0.4,2.8,0.7,4.2c0.1,0.3,0.3,0.8,0.9,0.6
						c-0.1,0.2-0.5,0.2-0.3,0.6c0.3,0.4,0.2-0.3,0.4-0.1c0.1,0.1,0.5,0,0.4,0.1c-0.1,0.4,0.2,0.5,0.4,0.6c0.1,0.1,0.1,0.3,0,0.4
						c-0.1,0.2-0.2,0-0.3,0c-0.2-0.1-0.2,0.1-0.3,0.2c-0.7,0.7-0.6,1.6-0.6,2.5c0,0.8,0.6,1.3,1.4,1.2c0.4-0.1,0.7-0.1,1.1-0.2
						c1.3-0.2,2.6-0.5,3.9-0.5c0,0.1,0,0.1,0,0.2c-1.8,0.1-3.5,0.5-5.2,0.9c1.8-0.1,3.6-0.4,5.3-0.8C70.7,37.1,70.9,37.1,71.1,37.1
						C71.1,37.1,71.1,37.1,71.1,37.1z M11.4,56.9c2.3,0,4.3-0.2,6.4-0.4c1.8-0.1,3.7-0.4,5.5-0.6c2.4-0.3,4.9-0.7,7.3-1
						c3-0.4,6-0.8,8.9-1.3c3.8-0.6,7.7-1.3,11.5-2c4.1-0.8,8.3-1.6,12.4-2.4c3.3-0.7,6.7-1.4,10-2.2c4.4-1,8.8-2.1,13.1-3.6
						c0.9-0.3,1.7-0.7,2.4-1.2c0.1-0.1,0.4-0.2,0.3-0.4c-0.1-0.2-0.3-0.1-0.5-0.1c-0.6,0.1-1.3,0.2-1.9,0.3
						c-1.7,0.4-3.5,0.6-5.3,0.9c-1,0.2-2.1,0.3-3.1,0.5c-2.7,0.5-5.4,0.9-8.1,1.4c-2.1,0.4-4.3,0.8-6.4,1.1c-4,0.6-8.1,1.4-12.1,2.1
						c-3.5,0.6-7,1.2-10.5,1.9c-3.1,0.6-6.1,1.1-9.2,1.7c-2.8,0.5-5.7,1-8.5,1.5c-3.7,0.6-7.4,1.3-11.1,2c-1.4,0.2-2.7,0.5-4.1,0.8
						c-0.2,0-0.5,0-0.5,0.4c0,0.3,0.3,0.2,0.5,0.3C9.5,57,10.6,56.8,11.4,56.9z M87.7,18.5c0.5,0.4,0.5,0.8,0.5,1.3
						c0,0.6-0.1,1.2-0.1,1.8c0.1,1.4,0.2,2.7,0.2,4.1c0,0.4,0.2,0.8,0.5,0.9c0.4,0.2,0.7,0.5,1,0.7c0.1,0.1,0.2,0.3,0.4,0.2
						c0.1-0.1,0.1-0.3,0.1-0.4c0-2.5,0-5.1,0-7.6c0-0.3-0.1-0.5-0.3-0.7C89.4,18,88.6,18.4,87.7,18.5z M49,11.4c0,0.1,0,0.1,0,0.2
						c15.2-2.1,30.5-4.1,45.7-6.4c0-0.1,0-0.2,0-0.2C79.4,7.1,64.2,9.2,49,11.4z M71.3,38.9c0-0.2-0.1-0.4-0.3-0.2
						c-0.2,0.1-0.4,0.1-0.6,0.2c-1.3,0.2-2.6,0.4-3.9,0.6c-0.2,0-0.6-0.1-0.5,0.3c0.1,0.3,0.4,0.6,0.7,0.5c1.4-0.4,2.8-0.5,4.1-0.8
						C71.1,39.4,71.2,39.1,71.3,38.9z M18,15.8c1.1,0,2.2-0.1,3.2-0.4C20.1,15.4,19,15.6,18,15.8z M29,33.7
						c-0.1-0.2-0.3-0.3-0.5-0.2c0,0-0.1,0.1,0,0.1C28.6,33.8,28.7,33.9,29,33.7z M25.6,29c0-0.1,0-0.2-0.1-0.2c0,0-0.2,0-0.2,0
						c0,0.1,0,0.2,0.1,0.2C25.5,29,25.6,29,25.6,29z M16.1,31.6c0.1-0.1,0.1-0.1,0.1-0.2c0,0,0-0.1-0.1-0.1c0,0-0.1,0.1-0.1,0.1
						C16.1,31.5,16.1,31.5,16.1,31.6z M7.6,56.2c0,0-0.1,0-0.1,0c0,0,0,0.1,0,0.1C7.5,56.3,7.5,56.3,7.6,56.2
						C7.5,56.3,7.6,56.2,7.6,56.2z"/>
					<path class="st3" d="M75.8,13.1c0.4,0.4,0.8,0.7,1.4,0.7c0.5,0,0.9,0.1,1.4,0.3c1.1,0.6,2.2,0.4,3.2,0.1
						c0.4-0.1,0.7-0.1,1.1-0.1c0.1,0.1,0.2,0.2,0.2-0.1c0-0.2,0.1-0.3,0.1-0.4c0.1,0,0.2,0,0.2-0.1c1.1-0.3,1.2-0.2,1.3,0.9
						c0,0.3,0.1,0.6,0.3,0.8c0.7,1,1.5,2.1,2.2,3.1c0.2,0.3,0.3,0.5,0.3,0.9c-0.1,2.2,0,4.3-0.1,6.5c0,1.2-0.9,1.7-1.8,1.7
						c-0.9,0-1.4,0.5-1.7,1.2c-0.3,0.9-0.8,1.6-1.4,2.3c-0.3,0.4-0.4,0.8-0.5,1.3c-0.3-0.2-0.6,0-0.9,0c-0.1,0-0.2,0.2-0.1,0.2
						c0.3,0.1,0.6,0,0.8,0.1c0.2,0.1,0.1-0.2,0.1-0.3c0.4,0.1,0.6-0.2,0.8-0.5c0.2-0.3,0.4-0.7,0.6-0.9c0.2-0.2,0.2-0.7,0.7-0.3
						c0.2,0.1,0.5-0.4,0.6-0.6c0.3-0.4,0.6-0.8,0.1-1.2c-0.3-0.3,0-0.4,0.3-0.5c0,0,0,0,0,0c0,0,0,0,0,0c0,0,0,0-0.1-0.1
						c0.3-0.7,0.9-0.4,1.4-0.5c0.4-0.1,0.9,0.3,1.2-0.2c0.1-0.1,0.3,0,0.4,0.1c0.3,0.4,0.8,0.6,1.2,0.8c0.3,0.2,0.3,0.3,0,0.6
						c-0.3,0.3-0.7,0.3-1.1,0.4c-0.1,0-0.2,0.1-0.4,0.1c-1.1,0.1-1.8,0.7-2.1,1.7c-0.2,0.6-0.7,1.2-1,1.8c-0.2,0.5-0.5,0.5-0.8,0.1
						c-0.2-0.2-0.3-0.4-0.5-0.6c0,0,0-0.1,0-0.1c0,0,0,0.1-0.1,0.1c-0.3,0.1-0.6-0.2-0.8,0.2c-0.2,0.2-0.5,0.3-0.7,0.3
						c-0.5,0-1,0.2-1.3,0.6c-0.3,0.3-0.4,0.2-0.5-0.2c0-0.2-0.1-0.3-0.3-0.3c-0.2,0-0.3,0-0.4,0.2c0,0.1-0.1,0.2-0.2,0.3
						c0-0.4-0.1-0.7,0-1.1c0.1-0.3-0.1-0.6-0.4-0.8l0,0c0.3-0.3,0.6-0.7,0.9-1c0-0.1,0.1-0.1,0.1-0.2l0,0c0.1,0,0.1-0.1,0.1-0.1l0,0
						c1-1,1.7-2.2,2-3.7c0.1-0.3,0-0.7,0.4-0.9c0.1,0.2,0.1,0.4,0.3,0.5c0.3-0.3,0.2-1,0.9-0.6c0,0,0.2-0.1,0.2-0.1
						c0.2-0.3,0.4-0.3,0.7-0.4c0.5-0.1,1-0.8,1-1.2c-0.1-0.9-0.2-1.8-0.3-2.7c0-0.3-0.1-0.8-0.4-1c-1-0.4-1.6-1.2-2.4-1.9
						c-0.1-0.1-0.2-0.3-0.4-0.2C82,18.4,82,18.5,82,18.7c0,0.1,0.2,0.3-0.1,0.4c-0.8,0-0.3,0.5-0.3,0.8c-0.4-0.1-0.5-0.4-0.8-0.7
						c-1.3-1.6-2.9-2.6-5.1-2.6c-3.2,0-5.9,1.1-8,3.7c-1.2,1.5-2.1,3.1-2.3,5.1c-0.1,1.7,0,3.4,0.8,5c1,1.9,2.5,3.2,4.6,3.6
						c0.3,0.1,0.6,0.4,0.9,0.3c0.7,0,1.4-0.3,2.1-0.2c0.8,0.1,1.5-0.3,2.2-0.6c0.4-0.1,0.7-0.1,1,0.1l0,0c0,0.1,0,0.2,0,0.3
						c-0.4,0.5,0,0.5,0.4,0.5c0.4,0,0.9-0.2,1.3-0.1c-0.1,0.2-0.3,0.2-0.5,0.3c-0.5,0.1-1.1,0.2-1.6,0.2c0.1,0.3,0.3,0.5,0.7,0.4
						c0.2,0,0.5-0.1,0.5,0.3c-0.8,0-1.5,0.3-2.2,0.8c-0.2-0.1-0.1-0.2-0.1-0.4c0.2-0.5-0.1-0.5-0.5-0.4c-0.6,0.2-0.8,0.6-0.7,1.6
						c-0.1,0.2,0.1,0.4,0.1,0.6c-0.2,0.1-0.4-0.1-0.6-0.2c-0.4-0.1-0.8-0.3-0.8,0.4c-0.3,0.2-0.7,0.2-0.9,0.5
						c-0.2,0-0.2-0.2-0.3-0.3c-0.2,0.1,0.1,0.3-0.2,0.4c-0.1-0.2-0.1-0.6-0.5-0.4c0-0.1,0-0.2,0-0.3c0.1,0,0.1-0.1,0-0.1
						c0-0.1,0-0.3-0.1-0.4c0,0,0,0,0,0c0-0.2-0.1-0.3-0.3-0.4c-0.1-0.1-0.2-0.1-0.3-0.1c-0.1,0-0.1,0-0.2,0c-1.3,0-2.6,0.4-3.9,0.5
						c-0.4,0-0.7,0.1-1.1,0.2c-0.8,0.1-1.4-0.3-1.4-1.2c0-0.9-0.1-1.8,0.6-2.5c0.1-0.1,0.1-0.3,0.3-0.2c0.1,0,0.2,0.2,0.3,0
						c0.1-0.1,0.1-0.3,0-0.4c-0.2-0.2-0.5-0.3-0.4-0.6c0-0.1-0.3,0-0.4-0.1c-0.2-0.2-0.2,0.6-0.4,0.1c-0.2-0.3,0.2-0.3,0.3-0.6
						c-0.6,0.2-0.8-0.3-0.9-0.6c-0.3-1.4-0.7-2.8-0.7-4.2c0-1.3,0.3-2.5,0.6-3.7c0-0.9-0.8-1.4-1.4-1.1c-0.1,0.1-0.2,0.1-0.2,0.3
						c0,0.2,0.2,0.2,0.3,0.1c0.5-0.2,0.5,0.2,0.6,0.5c-2.1,1.9-4.4,3.5-7.2,4.3c-1.8,0.5-3.7,0.8-5.5,1.1c-2.6,0.4-5.3,0.8-7.9,1.2
						c-3.5,0.5-6.9,1.1-10.4,1.6c-0.7,0.1-1.4,0.3-2.2,0.2c0.1-0.5-0.2-0.7-0.6-0.9c-0.5-0.3-0.8,0.1-1.1,0.3
						c-0.3,0.2,0,0.4,0.1,0.6c0,0,0.1,0.1,0.1,0.1c0,0.1,0,0.2,0,0.3c-0.2,0.4-0.4,0.7,0,1.1c0.1,0,0.1,0.1,0.2,0.1
						c-0.1,0.3-0.5-0.1-0.6,0.2c-0.1,0-0.2-0.1-0.4-0.1c0.2-0.5,0.2-0.6-0.4-0.6c-0.2,0-0.1-0.1-0.1-0.2c0-0.4-0.1-0.8-0.1-1.3
						c0-0.6-0.2-1.3-0.5-1.9c0.4,0.1,0.4,0.4,0.5,0.6c0.1,0.2,0.2,0.5,0.5,0.4c0.1,0,0.2,0,0.2,0c0,0.1-0.1,0.2,0.1,0.2
						c0.2,0,0.2-0.1,0.2-0.3c0.3-0.3,0.6,0,0.9,0c0-0.5-0.4-0.4-0.6-0.6c0.4-0.6,1-0.7,1.6-0.8c3.2-0.5,6.3-0.9,9.5-1.4
						c2.7-0.4,5.3-0.8,8-1.3c2.5-0.4,5.1-0.7,7.6-1.3c2.6-0.6,4.9-1.8,6.9-3.5c1.1-0.9,2-1.9,2.9-3.1c0.1,0.9,0.2,1.6-0.3,2.3
						c-0.3,0.4-0.5,0.9-0.4,1.5c0.6-1.1,1.2-2.3,1.2-3.6c0-0.2,0.1-0.3,0.2-0.4c0.3-0.3,0.5-0.6,0.2-1.1c-0.1-0.2,0-0.3,0.1-0.5
						c0.3-0.6,0.6-1.2,0.8-1.8c0.1-0.2,0.1-0.4,0.3-0.4c0.2,0,0.4,0.1,0.5,0.3c0.6,1,1.1,0.9,2,0.4c0.7-0.4,1.3-0.8,2-1
						c0.5-0.1,0.6-0.6,0.6-1.1c0.1-0.5-0.2-1,0.1-1.3c0.3-0.2,0.8-0.2,1.3-0.2c0.4-0.1,0.9-0.2,1.3-0.1c0.3,0.1,0.7,0.1,0.5,0.6
						c-0.1,0.2,0.1,0.3,0.3,0.2c0.2,0,0.2-0.1,0.1-0.3c-0.2-0.4,0.1-0.6,0.5-0.6c0,0.4,0,0.8,0,1.1C75.5,12.8,75.5,13.1,75.8,13.1z
						 M80.2,17.7C80.2,17.7,80.2,17.6,80.2,17.7C80.2,17.6,80.2,17.7,80.2,17.7C80.2,17.7,80.3,17.7,80.2,17.7
						C80.3,17.7,80.3,17.7,80.2,17.7z M80.6,18.2c0,0,0.1,0.1,0.1,0.1c0,0.1,0,0.2,0.2,0.3c0,0,0,0,0,0c0-0.2-0.1-0.2-0.2-0.3
						C80.7,18.3,80.7,18.2,80.6,18.2c0,0-0.1-0.1-0.1-0.1c0,0,0,0,0-0.1c0,0,0,0,0,0c0,0,0,0,0.1,0.1C80.5,18.1,80.6,18.2,80.6,18.2
						z M82.7,15.1C82.6,15.1,82.6,15.1,82.7,15.1C82.6,15.1,82.6,15.1,82.7,15.1c0,0,0.1,0.1,0.1,0.1c0,0,0.1,0.1,0.1,0.1
						c0,0.1,0,0.2,0.1,0.3c0,0,0.1,0.1,0.1,0.1c0,0,0.1,0.1,0.1,0.1c0,0,0,0,0,0c0,0,0,0,0,0c0,0,0,0-0.1-0.1c0,0-0.1-0.1-0.1-0.1
						c0,0-0.1-0.1-0.1-0.1c0-0.1,0-0.2-0.1-0.3c0,0-0.1-0.1-0.1-0.1C82.8,15.2,82.7,15.2,82.7,15.1z M65.3,20.8
						c0.1,0,0.1-0.1,0.1-0.2C65.2,20.6,65.3,20.7,65.3,20.8C65.2,20.8,65.1,20.8,65.3,20.8C65.2,20.9,65.2,20.8,65.3,20.8z
						 M78.4,16.3C78.4,16.3,78.4,16.2,78.4,16.3C78.4,16.2,78.4,16.2,78.4,16.3C78.4,16.3,78.4,16.3,78.4,16.3c0,0,0.1,0.1,0.1,0.1
						c0,0,0,0,0-0.1C78.5,16.3,78.5,16.3,78.4,16.3z M64.9,21.5c0.1-0.1,0.2-0.3,0.2-0.5C64.8,21.2,64.9,21.4,64.9,21.5
						C64.8,21.5,64.8,21.6,64.9,21.5C64.8,21.6,64.8,21.5,64.9,21.5z M62.9,21.6c0.1,0.1,0.1,0.2,0.2,0.3c0,0,0.1-0.1,0.1-0.1
						C63.2,21.6,63.1,21.5,62.9,21.6c-0.1-0.3-0.4-0.4-0.8-0.4C62.4,21.5,62.6,21.5,62.9,21.6z M77.9,16c0,0,0.1,0.1,0.2,0.1
						c0,0,0,0,0,0C78.1,16,78,16,77.9,16c-0.4-0.5-0.9-0.5-1.4-0.6C76.9,15.7,77.4,15.9,77.9,16z M47.5,28.3
						c0.6-0.1,1.2-0.2,1.8-0.2c0.4,0.2,0.8,0.1,1.2-0.2c0.1,0,0.3,0,0.4,0c0.1,0.1,0.3,0.1,0.4-0.1c0.1,0,0.2,0,0.3,0
						c0.5,0.2,1,0,1.4-0.1c0.9-0.2,1.9-0.2,2.7-0.8c1.4-0.5,2.8-1.2,4-2.3c-0.2,0-0.2,0-0.2,0c-0.1,0.1-0.3,0.1-0.4,0.2
						c-1.2,0.9-2.6,1.5-4.1,2c-3.2,0.9-6.6,1.2-9.8,1.8c-1.8,0.3-3.6,0.5-5.4,0.8c-1.9,0.3-3.8,0.6-5.7,0.9c-0.4-0.1-0.7,0.2-1,0.4
						c0.4,0.4,0.9,0,1.2,0c2-0.2,4-0.6,6-0.9c1.5-0.2,3.1-0.4,4.6-0.7c0.8-0.1,1.7-0.1,2.4-0.6C47.3,28.3,47.4,28.3,47.5,28.3
						C47.5,28.4,47.5,28.3,47.5,28.3z M72.6,12c0.2,0.3,0.8,0.3,0.7,0.6c-0.3,0.7-0.2,1.4-0.1,2.2c0,0.5,0.2,0.7,0.7,0.6
						c0-0.1-0.2-0.1-0.2-0.3c0-0.8,0-1.6-0.1-2.3C73.5,11.9,73.5,11.9,72.6,12z M29.7,30.7c1,0.4,1.9,0.1,2.7-0.4
						C31.6,30.5,30.7,30.6,29.7,30.7z M88.6,28.8c-0.3-0.1-0.4-0.2-0.6-0.3c-0.4-0.2-0.6,0-0.7,0.4c-0.1,0.3,0.2,0.4,0.3,0.6
						c0.1,0.1,0.3,0,0.3-0.1C87.8,28.8,88.1,28.8,88.6,28.8z M63.7,19.9c0,0.1-0.1,0.3,0.1,0.4C63.8,20.1,63.9,20,63.7,19.9z"/>
					<path class="st3" d="M26.8,35c0.6,0.1,0.9,0,1-0.7c0.1-0.3,0.2-0.4,0.5-0.4c1.5,0.3,2.9-0.1,4.3-0.3c4.6-0.7,9.2-1.4,13.8-2.1
						c2.3-0.4,4.5-0.8,6.8-1.1c3-0.4,5.8,0.1,8.4,2c-1.1,0.7-1.8-0.5-2.8-0.6c0.9,0.9,1.9,1.5,2.9,2.2c0.6,0.5,1.1,1.1,1.6,1.7
						c-0.8-0.4-1.6-1-2.4-1.4c-2.5-1.3-5.1-1.5-7.7-1.1c-3.5,0.5-6.9,1.1-10.4,1.6c-3,0.5-6,1-9,1.5c-1.5,0.2-3,0.5-4.5,0.7
						c-0.4,0-0.8,0.3-1.2-0.1c-0.1-0.1-0.3,0.1-0.3,0.2c0.2,0.4-0.1,0.4-0.3,0.5c-0.9,0.4-1.6,0.9-2.4,1.5c-2.2,1.5-4.6,2.2-7.2,1.1
						c-1.9-0.8-2.8-2.3-3-4.4c-0.1-1.2,0.2-2.2,0.6-3.3c0.1-0.2,0.2-0.5,0.4-0.5c0.3,0,0.3,0.4,0.5,0.6c0.2-0.9,1-1.5,1-2.5
						c0-0.2,0.3-0.3,0.4-0.4c0.6-0.4,0.9-0.9,0.9-1.6c0-0.6,0.4-1,1-1.1c1.6-0.3,3.1-0.5,4.7-0.7c0.6-0.1,0.9,0.3,1,0.8
						c0,0.4-0.1,0.8,0.1,1.2c0.1,0.1-0.1,0.2-0.2,0.2c-0.1,0.1-0.2,0.1-0.3,0c-0.3-0.6-1.1-0.6-1.6-1.2c0,0.4,0.2,0.6,0.5,0.7
						c1.2,0.7,1.7,1.8,1.9,3.2c0.2,1.7-0.2,3.2-1.3,4.5c-0.1,0.2-0.3,0.4-0.2,0.6c0.2,0.2,0.5,0,0.7-0.1c0.1,0,0.2,0,0.4,0
						c0.1,0.1,0.3,0.1,0.4-0.1c0.6-0.2,1.4,0,2.1-0.5c-0.4-0.1-0.6,0.1-0.9,0.1c-0.2,0-0.4,0-0.5-0.1c-0.1-0.2,0.1-0.3,0.1-0.4
						C26.7,35.1,26.8,35,26.8,35z M17.6,30.9L17.6,30.9L17.6,30.9c0,0.1,0,0.2,0,0.3c-0.4,0.2-0.4,0.5-0.6,1c0.4-0.3,0.6-0.6,0.6-1
						c0.1,0,0.2-0.1,0.2-0.1C17.8,30.9,17.7,30.9,17.6,30.9z M23.3,37c-0.1,0-0.2,0.1-0.2,0.2c0,0,0,0,0,0
						C23.3,37.2,23.4,37.2,23.3,37c0.1,0,0.2,0,0.3-0.1c0.1,0,0.3-0.1,0.3-0.3c0,0,0-0.1-0.1-0.1c-0.2,0-0.2,0.1-0.3,0.3
						C23.5,36.9,23.4,36.9,23.3,37z M17,32.4c-0.6,0.4-0.3,1-0.3,1.3C16.5,33.4,17,32.9,17,32.4c0.1,0,0.1,0,0.1-0.1c0,0,0,0,0,0
						C17,32.3,17,32.4,17,32.4z M21.7,30.7c-1.1,0-1.9,0.5-2.7,1.2c-0.1-0.3,0.2-0.4,0.1-0.7c-0.4,0.3-0.6,0.7-0.8,1.2
						c-0.4,0.9-0.4,1.9,0.2,2.7c0.6,0.8,1.5,1,2.4,0.9c1-0.1,1.7-0.8,2.3-1.6c0.8-1.1,0.8-2.5-0.2-3.4c-1-0.9-2.3-1-3.3-0.1
						C20.3,30.6,21,30.5,21.7,30.7z M22.8,37.5C22.8,37.5,22.8,37.4,22.8,37.5C22.7,37.4,22.7,37.4,22.8,37.5
						C22.7,37.5,22.7,37.5,22.8,37.5C22.8,37.5,22.8,37.5,22.8,37.5z"/>
					<path class="st3" d="M84.2,38.7c-0.2,0.5-0.6,0.6-1.1,0.3c-0.2-0.1-0.3-0.4-0.5-0.2c-0.2,0.2,0.2,0.3,0.1,0.6
						c-1.3,0.1-2.6,0.4-3.9,0.6c-0.7,0.1-1.3,0.2-2,0.3c-0.4,0.1-0.7,0.1-0.9-0.3c-0.1-0.1-0.1-0.2-0.2-0.1c-1,0.6-2.1,1.1-3.2,1.2
						c-1.4,0.1-2.6,0.7-4,0.6c-0.5,0-1,0.2-1.5,0c-0.5-0.2-0.6-0.6-0.6-1c0-0.4,0.4-0.3,0.7-0.3c1.3-0.2,2.7-0.4,4-0.7
						c0.3-0.1,0.6-0.2,0.9-0.4c0.8,0.2,1.4-0.8,2.2-0.4c0.1,0.1,0.1-0.5,0.3-0.2c0.3,0.5,0.6,0.3,1,0.2c0,0.2,0,0.6,0.4,0.4
						c0.2-0.1,0.5-0.1,0.6-0.4c0.1,0,0.2,0,0.2,0c0,0,0.1,0.1,0.1,0.1c1.8-0.2,3.7-0.4,5.4-1.1c0.9-0.5,1.4,0.1,2,0.6
						C84.1,38.6,84.2,38.6,84.2,38.7z"/>
					<path class="st3" d="M87.7,18.5c0.9-0.1,1.7-0.5,2.4,0.3c0.2,0.2,0.3,0.4,0.3,0.7c0,2.5,0,5.1,0,7.6c0,0.1,0.1,0.3-0.1,0.4
						c-0.2,0.1-0.3-0.1-0.4-0.2c-0.4-0.2-0.6-0.5-1-0.7c-0.3-0.1-0.5-0.5-0.5-0.9c0-1.4-0.1-2.8-0.2-4.1c0-0.6,0-1.2,0.1-1.8
						C88.2,19.3,88.1,18.8,87.7,18.5z"/>
					<path class="st5" d="M84.2,38.7c-0.1-0.1-0.1-0.1-0.2-0.2c-0.6-0.4-1.2-1-2-0.6c0,0,0-0.1,0-0.1c0.5-0.3,0.6-0.8,0.6-1.4
						c-0.1-1-0.2-2.1,0.1-3.1c0-0.1,0-0.3-0.1-0.2c-0.3,0.3-0.9-0.1-1.2,0.4c-0.5,0.2-0.7,0.6-0.7,1c0,0.1-0.1,0.2-0.1,0.3l0,0
						c-1.1,0.7-2.4,0.6-3.6,0.8c-0.2,0-0.4,0-0.4,0.3c-0.9,0.3-0.9,1-0.9,1.7c0,0-0.1,0-0.1,0c-0.3-0.6,0-1.1,0.1-1.7
						c0.7-0.5,1.4-0.7,2.2-0.8c0.4-0.1,0.8-0.1,1.2-0.2c0.2,0,0.4-0.1,0.6-0.1c0.2,0,0.5,0,0.5-0.3c0-0.3-0.3-0.3-0.5-0.3
						c-0.1-0.2-0.2-0.4-0.5-0.4c0,0,0-0.1,0-0.1l0,0c0.2,0,0.3,0,0.3-0.3l0,0c0.1,0,0.2-0.2,0.2-0.3c0.1-0.2,0.2-0.2,0.4-0.2
						c0.2,0,0.3,0.1,0.3,0.3c0.1,0.4,0.2,0.4,0.5,0.2c0.4-0.4,0.8-0.6,1.3-0.6c0.2,0,0.5,0,0.7-0.3c0.2-0.3,0.6-0.1,0.8-0.2
						c0,0,0.1,0,0.1,0l0.1,0c0.2,0.2,0.3,0.4,0.5,0.6c0.3,0.4,0.6,0.5,0.8-0.1c-0.1,1.1-0.5,1.4-1.4,1c-0.3-0.1-0.4,0-0.4,0.3
						c0,0.8,0,1.5,0,2.3c0,0.6,0.4,0.5,0.7,0.4c0.4-0.1,0.7-0.2,0.5,0.4c-0.1,0.2,0.2,0.5,0.1,0.8C84.6,38.5,84.5,38.6,84.2,38.7z"
						/>
					<path class="st3" d="M82.7,13.7c-0.5,0.1-0.9-0.1-1-0.6c-0.1-0.4-0.1-0.8-0.1-1.2c0-0.5-0.2-0.7-0.7-0.6
						c-0.1,0-0.3,0.1-0.3-0.1c0,0,0.1-0.1,0.1-0.1c0.6-0.4,1.1-1.1,2-0.7C82.7,11.5,82.7,12.6,82.7,13.7z"/>
					<path class="st5" d="M75.4,39c-0.4,0.1-0.7,0.2-1-0.2c-0.2-0.3-0.1,0.2-0.3,0.2c-0.8-0.4-1.4,0.6-2.2,0.4
						c0.1-0.3,0.2-0.7,0.4-1c0.2-0.3,0.6-0.3,0.9-0.5c0.4,0,0.8-0.1,0.9,0.5c0,0,0.1,0.1,0.1,0.1c0.4-0.2,0.7,0.2,1,0.2
						c0,0,0.1,0.1,0.1,0.1c0,0,0,0,0,0c-0.1,0-0.1,0-0.2-0.1c-0.1-0.4-0.4-0.7-0.7-1c0-0.2-0.2-0.4-0.1-0.6c0.1,0,0.2,0,0.3,0
						c0.1,0,0.1,0.1,0.1,0.2c0.3,0.2,0.3,0.8,0.8,0.9c0.3,0.2,0,1,0.8,0.7c0.2,0,0.2,0.2,0.2,0.3c-0.1,0-0.2,0-0.2,0
						C76,38.9,75.7,38.9,75.4,39z"/>
					<path class="st3" d="M71.3,38.9c-0.1,0.3-0.2,0.5-0.5,0.6c-1.4,0.3-2.8,0.4-4.1,0.8c-0.4,0.1-0.7-0.1-0.7-0.5
						c-0.1-0.4,0.3-0.3,0.5-0.3c1.3-0.2,2.6-0.4,3.9-0.6c0.2,0,0.4-0.1,0.6-0.2C71.2,38.5,71.3,38.6,71.3,38.9z"/>
					<path class="st5" d="M27.7,31.8c-0.1-0.2-0.3-0.5-0.1-0.6c0.3-0.2,0.6-0.6,1.1-0.3c0.4,0.2,0.7,0.4,0.6,0.9
						c-0.4,0.1-0.4,0.1-0.3,0.5c0.1,0.3,0.1,0.5,0.1,0.8c0,0.2-0.2,0.3-0.3,0.3c-0.3,0-0.6,0-0.9,0.1c-0.1,0-0.1-0.1-0.2-0.1
						c0-0.4,0.1-0.7,0-1.1c0-0.1,0-0.2,0-0.3C27.8,31.8,27.8,31.8,27.7,31.8z"/>
					<path class="st5" d="M25.4,36.2c-0.1,0-0.2,0-0.4,0c0.4-0.9,1.1-1.7,1.4-2.7c0.1-0.4,0.4,0,0.5,0c0.1,0,0.2,0.1,0.4,0.1
						c0.1,0.2,0.4,0.2,0.3,0.4c-0.7-0.2-0.7,0.5-0.8,0.8c-0.1,0.1-0.1,0.2-0.2,0.3c-0.1,0.1-0.2,0.2-0.1,0.4
						c0.1,0.2,0.3,0.1,0.5,0.1c0.2,0,0.5-0.2,0.9-0.1c-0.7,0.5-1.4,0.3-2.1,0.5C25.7,36.1,25.5,36.1,25.4,36.2z"/>
					<path class="st5" d="M82.7,13.7c0-1.1,0-2.2,0-3.3c0.1,0,0.2-0.1,0.2-0.1c0.1,0.1,0.2,0.2,0.3,0.3c-0.1,0.6,0.1,1.3,0.1,1.9
						c0,0.4-0.4,0.8-0.1,1.2C83.1,13.7,83,13.9,83,14c0,0.2-0.1,0.2-0.2,0.1C82.8,13.9,82.8,13.8,82.7,13.7z"/>
					<path class="st3" d="M70.5,37c-1.8,0.4-3.5,0.6-5.3,0.8c1.7-0.4,3.4-0.8,5.2-0.9C70.4,36.9,70.5,37,70.5,37z"/>
					<path class="st5" d="M62.6,23.3c-0.1-0.3-0.1-0.7-0.6-0.5c-0.1,0-0.3,0-0.3-0.1c0-0.1,0.1-0.2,0.2-0.3c0.6-0.4,1.4,0.2,1.4,1.1
						C63.2,22.9,62.8,23.3,62.6,23.3z"/>
					<path class="st3" d="M18,15.8c1.1-0.2,2.1-0.5,3.2-0.4C20.1,15.7,19.1,15.8,18,15.8z"/>
					<path class="st3" d="M83.2,10.5c-0.1-0.1-0.2-0.2-0.3-0.3c0.5-0.2,1-0.5,1.5,0c0.1,0.1,0.2,0.2,0.1,0.4c-0.1,0.1-0.2,0-0.3,0
						C83.9,10.5,83.5,10.5,83.2,10.5z"/>
					<path class="st5" d="M75.8,13.1c-0.3,0-0.3-0.2-0.3-0.4c0-0.4,0-0.8,0-1.1c0.1,0,0.3-0.2,0.3,0.1C75.8,12.1,76,12.6,75.8,13.1z
						"/>
					<path class="st3" d="M7.2,17.2c0.7-0.1,1.3-0.2,2.1-0.2c-0.6,0.6-1.5,0-2,0.9C7.2,17.6,7.3,17.4,7.2,17.2
						C7.2,17.2,7.2,17.2,7.2,17.2z"/>
					<path class="st5" d="M27.6,30c0.2,0.1,0.6,0.1,0.6,0.6c-0.3,0-0.6-0.3-0.9,0c-0.1,0-0.1,0-0.2,0c-0.1,0-0.2,0-0.2,0
						C26.8,30,27.4,30.3,27.6,30z"/>
					<path class="st5" d="M70.5,37c0,0-0.1-0.1-0.1-0.1c0-0.1,0-0.1,0-0.2c0.1,0,0.1,0,0.2,0c0.1,0,0.2,0,0.3,0.1
						c0.1,0.1,0.2,0.2,0.3,0.4C70.9,37.1,70.7,37.1,70.5,37z"/>
					<path class="st3" d="M6.5,16.4c0.4,0.1,0.8,0.3,0.8,0.8c0,0,0,0,0,0C7,16.9,6.6,16.8,6.5,16.4L6.5,16.4z"/>
					<path class="st5" d="M29,33.7c-0.2,0.1-0.4,0-0.5-0.1c0,0,0-0.1,0-0.1C28.7,33.4,28.8,33.5,29,33.7z"/>
					<path class="st5" d="M71.3,37.7c0,0.1,0,0.2,0,0.3c-0.2-0.2-0.1-0.5-0.1-0.8c0.2,0.1,0.1,0.2,0.1,0.4
						C71.3,37.6,71.3,37.6,71.3,37.7z"/>
					<path class="st3" d="M25.6,29c0,0-0.1,0.1-0.1,0c-0.1,0-0.1-0.1-0.1-0.2c0,0,0.1,0,0.2,0C25.6,28.8,25.7,28.9,25.6,29z"/>
					<path class="st3" d="M16.1,31.6c0-0.1-0.1-0.1-0.1-0.2c0,0,0.1-0.1,0.1-0.1c0,0,0.1,0.1,0.1,0.1C16.3,31.5,16.2,31.5,16.1,31.6
						z"/>
					<path class="st3" d="M7.6,56.2C7.6,56.2,7.5,56.3,7.6,56.2c-0.1,0.1-0.1,0.1-0.2,0.1c0,0,0-0.1,0-0.1
						C7.5,56.2,7.5,56.2,7.6,56.2z"/>
					<path class="st5" d="M83.9,29.5c0,0.1,0,0.2-0.1,0.3l0,0C83.8,29.6,83.8,29.5,83.9,29.5L83.9,29.5z"/>
					<path class="st5" d="M83.8,29.7c0,0.1,0,0.1,0,0.2C83.6,29.8,83.8,29.8,83.8,29.7C83.8,29.7,83.8,29.7,83.8,29.7z"/>
					<path class="st5" d="M83.9,29.5C84,29.4,84,29.4,83.9,29.5C84,29.4,84,29.4,83.9,29.5C84,29.5,84,29.5,83.9,29.5
						C83.9,29.5,83.9,29.5,83.9,29.5z"/>
					<path class="st3" d="M6.5,16.4C6.4,16.4,6.4,16.4,6.5,16.4C6.4,16.4,6.4,16.4,6.5,16.4C6.5,16.4,6.5,16.4,6.5,16.4z"/>
					<path class="st1" d="M80,30.8c-0.3,0.3-0.6,0.7-0.9,1c0,0,0,0,0,0c0,0,0,0,0,0c0,0,0,0,0.1-0.1c0.3,0.2,0.5,0.5,0.4,0.8
						c-0.1,0.4,0,0.8,0,1.1c0,0,0,0,0,0c-0.2,0-0.3,0.1-0.3,0.3c0,0,0,0,0,0c-0.2,0-0.4,0-0.4,0.3l0,0c-0.5-0.1-0.9,0.1-1.3,0.1
						c-0.4,0-0.8,0-0.4-0.5c0-0.1,0-0.2,0-0.3c0.2,0,0.5,0.2,0.6-0.2c0-0.1-0.1-0.3-0.3-0.3c-0.3,0-0.3,0.3-0.3,0.5
						c-0.3-0.2-0.6-0.2-1-0.1c-0.7,0.2-1.4,0.6-2.2,0.6c-0.7-0.1-1.4,0.2-2.1,0.2c-0.3,0-0.5-0.3-0.9-0.3c-2.1-0.4-3.7-1.7-4.6-3.6
						c0.2,0,0.2-0.1,0.1-0.3c-0.1-0.5-0.3-1-0.4-1.5c-0.2-1.3-0.3-2.7,0.1-4c0.3,0,0.3-0.3,0.4-0.4c0.3-0.5,0.5-1,0.7-1.5
						c1.9-3.7,6.3-6.2,10.4-4.9c0.2,0.1,0.4-0.1,0.7,0c0.8,0.6,1.6,1,2.2,1.8c1.6,1.9,2,4.1,1.5,6.4c-0.3,1.5-0.7,3-1.7,4.2
						c-0.1,0.1-0.1,0.2-0.1,0.4c0,0,0,0,0,0c0,0-0.1,0.1-0.1,0.1c0,0,0,0,0,0C80.1,30.7,80,30.7,80,30.8z M77.9,32.7
						c-0.1,0-0.3,0-0.3,0.1c0,0,0,0.1,0.1,0.1C77.8,32.9,77.9,32.8,77.9,32.7c0,0,0.2,0.1,0.1-0.1C78,32.6,78,32.6,77.9,32.7z"/>
					<path class="st1" d="M81.6,19.9c0-0.3-0.4-0.8,0.3-0.8c0.2,0,0.1-0.2,0.1-0.4c0-0.2,0-0.4,0.1-0.4c0.2-0.1,0.3,0.1,0.4,0.2
						c0.8,0.7,1.4,1.5,2.4,1.9c0.4,0.2,0.4,0.7,0.4,1c0.1,0.9,0.2,1.8,0.3,2.7c0.1,0.4-0.5,1.1-1,1.2c-0.3,0.1-0.5,0.1-0.7,0.4
						c0,0.1-0.2,0.2-0.2,0.1c-0.7-0.4-0.6,0.4-0.9,0.6c-0.2-0.1-0.2-0.4-0.3-0.5c0,0-0.1-0.1-0.1-0.1c0.1-1.4,0.1-2.8-0.3-4.2
						c-0.1-0.5-0.5-0.9-0.3-1.4c-0.1,0-0.1-0.1-0.2-0.1l0,0C81.8,20,81.8,19.9,81.6,19.9L81.6,19.9z"/>
					<path class="st5" d="M82,20.2c-0.1,0.5,0.2,0.9,0.3,1.4c0.3,1.4,0.4,2.8,0.3,4.2c0,0,0,0.1,0.1,0.1c-0.4,0.2-0.3,0.6-0.4,0.9
						c-0.3,1.4-1,2.6-2,3.7c0-0.1,0-0.3,0.1-0.4c1-1.2,1.4-2.7,1.7-4.2c0.5-2.4,0.1-4.5-1.5-6.4c-0.6-0.8-1.4-1.2-2.2-1.8
						c-0.2-0.2-0.5,0-0.7,0c-1.5-0.8-3.1-1.1-4.7-0.5c-2.3,0.7-4.4,1.8-5.5,4.1c-0.5,1.1-1,2.1-1.3,3.3c-0.4,1.3-0.3,2.7-0.1,4
						c0.1,0.5,0.2,1,0.4,1.5c0,0.2,0,0.2-0.1,0.3c-0.8-1.6-1-3.3-0.8-5c0.1-2,1.1-3.6,2.3-5.1c2.1-2.5,4.8-3.7,8-3.7
						c2.2,0,3.8,1,5.1,2.6c0.2,0.3,0.4,0.6,0.8,0.7c0,0,0,0,0,0c0,0.1,0,0.2,0.1,0.3c0,0,0,0,0,0C81.8,20.2,81.9,20.3,82,20.2z"/>
					<path class="st5" d="M33.9,30.1c1.9-0.3,3.8-0.6,5.7-0.9c1.8-0.3,3.6-0.5,5.4-0.8c3.3-0.5,6.6-0.9,9.8-1.8c1.5-0.4,2.9-1,4.1-2
						c0.1-0.1,0.2-0.2,0.4-0.2c0,0,0.1,0,0.2,0c-1.2,1.1-2.5,1.7-4,2.3c-0.3,0.1-0.6,0.2-1,0.2c-1,0.2-2.1,0.4-3.1,0.7
						c-0.1,0-0.2,0-0.3,0c-0.1-0.1-0.3,0-0.4,0.1c-0.1,0-0.3,0-0.4,0c-0.4,0-0.8,0-1.2,0.2c-0.6,0.1-1.2,0.2-1.8,0.2
						c0,0-0.1,0-0.1,0c-0.1,0-0.2,0-0.3,0c-0.1,0-0.3,0-0.4,0c-4.1,0.6-8.3,1.3-12.4,1.9C34.1,30.3,33.9,30.4,33.9,30.1z"/>
					<path class="st1" d="M33.9,30.1c0.1,0.3,0.3,0.2,0.4,0.1c4.1-0.7,8.3-1.3,12.4-1.9c0.1,0,0.3,0,0.4,0c-0.8,0.4-1.6,0.4-2.4,0.6
						c-1.5,0.3-3.1,0.5-4.6,0.7c-2,0.3-4,0.7-6,0.9c-0.3,0-0.8,0.3-1.2,0C33.2,30.3,33.5,30.1,33.9,30.1z"/>
					<path class="st1" d="M75.6,37.9c-0.5-0.1-0.4-0.6-0.8-0.9c0.1-0.1,0.1-0.2-0.1-0.2c-0.1,0-0.2,0-0.3,0
						c-0.1-0.9,0.1-1.3,0.7-1.6c0.4-0.2,0.6-0.1,0.5,0.4c0,0.1-0.1,0.3,0.1,0.4c-0.1,0.6-0.4,1.1-0.1,1.7
						C75.6,37.8,75.6,37.9,75.6,37.9z"/>
					<path class="st1" d="M79.2,34.1c0.3,0,0.4,0.2,0.5,0.4c-0.1,0.3-0.5,0.4-0.6,0.7c-0.4,0.2-0.8,0.2-1.2,0.2
						c0-0.4-0.3-0.3-0.5-0.3c-0.3,0-0.5-0.1-0.7-0.4c0.6,0,1.1-0.1,1.6-0.2c0.2,0,0.4-0.1,0.5-0.3l0,0C79,34.2,79.1,34.1,79.2,34.1z
						"/>
					<path class="st1" d="M72.6,12c0.9-0.1,0.9-0.1,0.9,0.7c0,0.8,0.1,1.6,0.1,2.3c0,0.2,0.2,0.1,0.2,0.3c-0.5,0.1-0.7-0.1-0.7-0.6
						c0-0.7-0.2-1.4,0.1-2.2C73.4,12.3,72.9,12.3,72.6,12z"/>
					<path class="st1" d="M74.6,37.5c0.3,0.3,0.5,0.6,0.7,1l0,0c-0.4,0-0.6-0.4-1-0.2c0,0-0.1-0.1-0.1-0.1c-0.1-0.6-0.5-0.5-0.9-0.5
						c0-0.7,0.4-0.5,0.8-0.4C74.2,37.4,74.4,37.6,74.6,37.5z"/>
					<path class="st1" d="M51.5,27.7c1-0.2,2.1-0.4,3.1-0.7c0.3-0.1,0.6-0.2,1-0.2c-0.8,0.6-1.8,0.6-2.7,0.8
						C52.5,27.7,52,27.9,51.5,27.7z"/>
					<path class="st5" d="M29.7,30.7c0.9-0.1,1.8-0.2,2.7-0.4C31.6,30.9,30.7,31.1,29.7,30.7z"/>
					<path class="st1" d="M88.6,28.8c-0.5,0-0.8,0-0.7,0.5c0,0.1-0.2,0.2-0.3,0.1c-0.2-0.1-0.5-0.3-0.3-0.6c0.1-0.3,0.3-0.5,0.7-0.4
						C88.2,28.6,88.3,28.6,88.6,28.8z"/>
					<path class="st1" d="M82.2,32.3c0,0.1,0.1,0.4-0.1,0.3c-0.3-0.1-0.6,0.1-0.8-0.1c-0.1-0.1,0-0.2,0.1-0.2
						C81.5,32.2,81.8,32.1,82.2,32.3C82.2,32.3,82.2,32.3,82.2,32.3z"/>
					<path class="st1" d="M77.9,16c-0.5-0.1-1-0.3-1.4-0.6C77,15.5,77.6,15.5,77.9,16L77.9,16z"/>
					<path class="st1" d="M49.3,28c0.4-0.2,0.8-0.2,1.2-0.2C50.2,28.1,49.8,28.2,49.3,28z"/>
					<path class="st1" d="M27.8,32.3c0.1,0.4,0.1,0.7,0,1.1C27.4,33,27.6,32.6,27.8,32.3z"/>
					<path class="st1" d="M62.9,21.6c-0.2-0.1-0.5-0.1-0.8-0.4C62.5,21.2,62.8,21.2,62.9,21.6C63,21.5,62.9,21.5,62.9,21.6z"/>
					<path class="st1" d="M64.9,21.5c0-0.2,0-0.4,0.2-0.5C65.1,21.3,65,21.4,64.9,21.5L64.9,21.5z"/>
					<path class="st1" d="M63,21.5c0.1,0,0.2,0.1,0.2,0.2c0,0,0,0.1-0.1,0.1C63,21.8,63,21.7,63,21.5C62.9,21.5,63,21.5,63,21.5z"/>
					<path class="st1" d="M27.1,30.6c0.1,0,0.1,0,0.2,0c0,0.1,0,0.3-0.2,0.3C27,30.8,27.1,30.7,27.1,30.6z"/>
					<path class="st1" d="M63.7,19.9c0.1,0.1,0.1,0.3,0.1,0.4C63.6,20.1,63.8,20,63.7,19.9z"/>
					<path class="st1" d="M50.9,27.8c0.1-0.1,0.2-0.2,0.4-0.1C51.2,27.9,51.1,27.9,50.9,27.8z"/>
					<path class="st1" d="M80.7,18.3c0.1,0.1,0.2,0.1,0.2,0.3c0,0,0,0,0,0C80.8,18.6,80.7,18.5,80.7,18.3
						C80.7,18.3,80.7,18.3,80.7,18.3z"/>
					<path class="st1" d="M70.9,36.8c-0.1,0-0.2,0-0.3-0.1C70.7,36.6,70.8,36.6,70.9,36.8z"/>
					<path class="st1" d="M77.9,16c0.1,0,0.1,0,0.2,0.1c0,0,0,0,0,0C78,16.1,78,16.1,77.9,16C77.9,16,77.9,16,77.9,16z"/>
					<path class="st1" d="M78.4,16.3c0.1,0,0.1,0,0.2,0c0,0,0,0,0,0.1C78.5,16.3,78.5,16.3,78.4,16.3C78.4,16.3,78.4,16.3,78.4,16.3
						z"/>
					<path class="st1" d="M65.2,20.7c0-0.1,0-0.2,0.1-0.1C65.4,20.6,65.3,20.7,65.2,20.7L65.2,20.7z"/>
					<path class="st1" d="M83,15.6c-0.1-0.1-0.1-0.1-0.1-0.3l0,0C83,15.4,83.1,15.5,83,15.6C83,15.6,83,15.6,83,15.6z"/>
					<path class="st1" d="M83.2,15.8c0,0-0.1-0.1-0.1-0.1c0,0,0,0,0,0C83.1,15.7,83.1,15.7,83.2,15.8C83.2,15.8,83.2,15.8,83.2,15.8
						z"/>
					<path class="st1" d="M85.4,28.2C85.4,28.2,85.4,28.2,85.4,28.2C85.4,28.2,85.4,28.2,85.4,28.2C85.4,28.2,85.4,28.2,85.4,28.2
						C85.4,28.2,85.4,28.2,85.4,28.2z"/>
					<path class="st1" d="M71.3,37.7c0,0,0-0.1,0-0.1C71.4,37.6,71.4,37.6,71.3,37.7z"/>
					<path class="st1" d="M65.3,20.8C65.2,20.8,65.2,20.9,65.3,20.8C65.1,20.8,65.2,20.8,65.3,20.8C65.2,20.7,65.3,20.8,65.3,20.8z"
						/>
					<path class="st1" d="M82.9,15.4c0,0-0.1-0.1-0.1-0.1l0,0C82.8,15.3,82.9,15.3,82.9,15.4L82.9,15.4z"/>
					<path class="st1" d="M83.2,15.8c0,0,0.1,0.1,0.1,0.1l0,0C83.3,15.8,83.2,15.8,83.2,15.8C83.2,15.8,83.2,15.8,83.2,15.8z"/>
					<path class="st1" d="M82.8,15.3c0,0-0.1-0.1-0.1-0.1l0,0C82.7,15.2,82.8,15.2,82.8,15.3C82.8,15.2,82.8,15.3,82.8,15.3z"/>
					<path class="st1" d="M83.3,15.9C83.3,15.9,83.3,15.9,83.3,15.9C83.3,15.9,83.3,15.9,83.3,15.9C83.3,15.9,83.3,15.9,83.3,15.9
						C83.3,15.9,83.3,15.9,83.3,15.9z"/>
					<path class="st1" d="M82.7,15.1C82.6,15.1,82.6,15.1,82.7,15.1C82.6,15.1,82.6,15.1,82.7,15.1C82.7,15.1,82.7,15.1,82.7,15.1z"
						/>
					<path class="st1" d="M64.9,21.5C64.8,21.5,64.8,21.6,64.9,21.5C64.8,21.6,64.8,21.5,64.9,21.5C64.9,21.5,64.9,21.5,64.9,21.5z"
						/>
					<path class="st1" d="M27.7,31.8c0.1,0,0.1,0.1,0.1,0.1C27.8,31.9,27.8,31.8,27.7,31.8z"/>
					<path class="st1" d="M80.5,18.1c0,0,0.1,0.1,0.1,0.1c0,0,0,0,0,0C80.6,18.2,80.5,18.1,80.5,18.1L80.5,18.1z"/>
					<path class="st1" d="M80.5,18.1C80.5,18,80.5,18,80.5,18.1C80.4,18,80.5,18,80.5,18.1C80.5,18,80.5,18.1,80.5,18.1L80.5,18.1z"
						/>
					<path class="st5" d="M80,30.8c0-0.1,0.1-0.1,0.1-0.2C80.1,30.7,80,30.7,80,30.8z"/>
					<path class="st5" d="M80.1,30.6c0,0,0.1-0.1,0.1-0.1C80.2,30.6,80.2,30.6,80.1,30.6z"/>
					<path class="st1" d="M83.8,32.6C83.8,32.6,83.7,32.6,83.8,32.6c-0.1,0-0.1,0-0.1,0C83.7,32.5,83.7,32.5,83.8,32.6
						C83.8,32.5,83.8,32.5,83.8,32.6z"/>
					<path class="st1" d="M80.6,18.2c0,0,0.1,0.1,0.1,0.1c0,0,0,0,0,0C80.7,18.3,80.7,18.2,80.6,18.2C80.6,18.2,80.6,18.2,80.6,18.2
						z"/>
					<path class="st1" d="M80.2,17.7C80.3,17.7,80.3,17.7,80.2,17.7C80.3,17.7,80.2,17.7,80.2,17.7L80.2,17.7z"/>
					<path class="st1" d="M80.2,17.7C80.2,17.7,80.2,17.6,80.2,17.7C80.2,17.6,80.2,17.7,80.2,17.7C80.2,17.7,80.2,17.7,80.2,17.7z"
						/>
					<path class="st1" d="M78.4,16.3C78.4,16.3,78.4,16.3,78.4,16.3C78.4,16.2,78.4,16.2,78.4,16.3C78.4,16.2,78.4,16.3,78.4,16.3
						C78.4,16.3,78.4,16.3,78.4,16.3z"/>
					<path class="st1" d="M47.5,28.3C47.5,28.3,47.5,28.3,47.5,28.3C47.5,28.3,47.5,28.4,47.5,28.3z"/>
					<path class="st1" d="M21.7,30.7c-0.7-0.3-1.4-0.1-2,0.2c1-0.8,2.3-0.7,3.3,0.1c1,0.9,1.1,2.3,0.2,3.4c-0.6,0.8-1.3,1.4-2.3,1.6
						c-1,0.1-1.8-0.1-2.4-0.9c-0.7-0.8-0.6-1.8-0.2-2.7c0.2-0.4,0.4-0.9,0.8-1.2c0.2,0.3-0.2,0.4-0.1,0.7
						C19.7,31.3,20.6,30.7,21.7,30.7z"/>
					<path class="st1" d="M17,32.4c0,0.5-0.4,1-0.3,1.3C16.7,33.4,16.3,32.8,17,32.4L17,32.4z"/>
					<path class="st1" d="M17.6,31.1c0,0.4-0.2,0.7-0.6,1C17.2,31.7,17.2,31.3,17.6,31.1C17.6,31.1,17.6,31.1,17.6,31.1z"/>
					<path class="st1" d="M23.6,36.8c0-0.1,0.1-0.3,0.3-0.3c0,0,0.1,0.1,0.1,0.1C23.9,36.8,23.8,36.9,23.6,36.8
						C23.6,36.9,23.6,36.9,23.6,36.8z"/>
					<path class="st1" d="M23.4,37.1c0,0.1-0.1,0.2-0.2,0.2c0,0,0,0,0,0C23.1,37.1,23.2,37,23.4,37.1C23.4,37,23.4,37,23.4,37.1z"/>
					<path class="st1" d="M17.6,30.9c0.1,0,0.2,0,0.2,0.2c0,0-0.1,0.1-0.2,0.1c0,0,0,0,0,0C17.6,31,17.6,31,17.6,30.9L17.6,30.9z"/>
					<path class="st1" d="M25.4,36.2c0.1-0.1,0.3-0.1,0.4-0.1C25.7,36.3,25.6,36.3,25.4,36.2z"/>
					<path class="st1" d="M23.6,36.9c-0.1,0-0.2,0.1-0.2,0.1c0,0,0,0-0.1-0.1C23.4,36.9,23.5,36.9,23.6,36.9
						C23.6,36.9,23.6,36.9,23.6,36.9z"/>
					<path class="st1" d="M22.8,37.5C22.8,37.5,22.8,37.5,22.8,37.5C22.7,37.5,22.7,37.5,22.8,37.5C22.7,37.4,22.7,37.4,22.8,37.5
						C22.8,37.4,22.8,37.5,22.8,37.5z"/>
					<path class="st1" d="M17,32.4c0-0.1,0-0.1,0.1-0.2c0,0,0,0,0,0C17.1,32.4,17,32.4,17,32.4C17,32.4,17,32.4,17,32.4z"/>
					<polygon class="st1" points="17.6,30.9 17.6,30.8 17.6,30.9 					"/>
					<path class="st1" d="M76.5,39c0.1-0.2,0-0.3-0.2-0.3c0,0,0.1-0.1,0.1-0.1c1.9-0.2,3.7-0.8,5.6-0.7c0,0,0,0.1,0,0.1
						c-1.7,0.7-3.6,0.9-5.4,1.1C76.6,39,76.6,39,76.5,39z"/>
					<path class="st1" d="M75.4,39c0.3,0,0.6-0.1,0.9,0c-0.1,0.3-0.4,0.3-0.6,0.4C75.3,39.6,75.4,39.2,75.4,39z"/>
					<path class="st1" d="M80.7,34.6c0.1-0.5,0.2-0.9,0.7-1c0.1,0.1,0.4-0.1,0.4,0.3c0,0.6,0,1.2,0,1.8c0,0.5-0.7,1.3-1.1,1.4
						c-1.2,0.2-2.3,0.5-3.5,0.6c-0.5,0.1-1,0.3-1.5,0.1c0-0.7,0-1.5,0.9-1.7c1-0.2,2.1-0.3,3.1-0.5c0.4-0.1,0.9-0.1,0.9-0.7
						c0,0,0,0,0,0C80.7,34.8,81,34.8,80.7,34.6z"/>
					<path class="st3" d="M75.7,37.8c0.5,0.2,1-0.1,1.5-0.1c1.2-0.1,2.3-0.4,3.5-0.6c0.4-0.1,1.1-0.9,1.1-1.4c0-0.6-0.1-1.2,0-1.8
						c0-0.4-0.2-0.2-0.4-0.3c0.2-0.5,0.8-0.1,1.2-0.4c0,0,0.1,0.1,0.1,0.2c-0.3,1-0.2,2-0.1,3.1c0,0.6-0.1,1.1-0.6,1.4
						c-1.9-0.2-3.7,0.5-5.6,0.7c0,0-0.1,0.1-0.1,0.1c-0.7,0.3-0.5-0.5-0.8-0.7C75.6,37.9,75.6,37.8,75.7,37.8
						C75.7,37.8,75.7,37.8,75.7,37.8z"/>
					<path class="st3" d="M80.6,34.9c0,0.6-0.5,0.6-0.9,0.7c-1,0.2-2.1,0.3-3.1,0.5c0-0.3,0.2-0.3,0.4-0.3
						C78.2,35.5,79.5,35.6,80.6,34.9z"/>
					<path class="st3" d="M79.2,35.1c0.1-0.3,0.5-0.3,0.6-0.7c0.2,0,0.5,0,0.5,0.3c0,0.3-0.3,0.2-0.5,0.3
						C79.6,35,79.4,35.2,79.2,35.1z"/>
					<path class="st3" d="M79.2,34.1c-0.1,0-0.3,0.1-0.4,0.1c0-0.3,0.2-0.3,0.4-0.3C79.2,34,79.2,34,79.2,34.1z"/>
					<path class="st3" d="M79.2,34c0-0.2,0.1-0.3,0.3-0.3C79.5,33.9,79.4,34,79.2,34z"/>
					<path class="st3" d="M80.7,34.6c0.2,0.2,0,0.3-0.1,0.3C80.6,34.8,80.7,34.7,80.7,34.6z"/>
					<path class="st1" d="M75.2,38.5c0.1,0,0.1,0,0.2,0.1c0,0,0,0,0,0C75.3,38.6,75.3,38.6,75.2,38.5C75.2,38.6,75.2,38.5,75.2,38.5
						z"/>
					<path class="st3" d="M66.1,24.6c0.3-1.1,0.8-2.2,1.3-3.3c1.2-2.3,3.2-3.4,5.5-4.1c1.6-0.5,3.2-0.3,4.7,0.5
						c-4.1-1.2-8.5,1.3-10.4,4.9c-0.3,0.5-0.5,1-0.7,1.5C66.5,24.3,66.4,24.6,66.1,24.6z"/>
					<path class="st3" d="M77.2,33.6c0-0.2,0-0.5,0.3-0.5c0.1,0,0.3,0.2,0.3,0.3C77.7,33.7,77.4,33.5,77.2,33.6
						C77.2,33.6,77.2,33.6,77.2,33.6z"/>
					<path class="st3" d="M77.9,32.7c0,0.1-0.1,0.2-0.3,0.2c0,0-0.1-0.1-0.1-0.1C77.7,32.6,77.8,32.7,77.9,32.7L77.9,32.7z"/>
					<path class="st3" d="M77.9,32.7c0,0,0.1-0.1,0.1-0.1C78.1,32.7,78,32.6,77.9,32.7C77.9,32.7,77.9,32.7,77.9,32.7z"/>
					<path class="st3" d="M79.1,31.8C79.1,31.8,79,31.8,79.1,31.8C79,31.8,79,31.8,79.1,31.8C79,31.8,79.1,31.8,79.1,31.8
						C79.1,31.8,79.1,31.8,79.1,31.8z"/>
					<path class="st3" d="M81.8,20.1c-0.1-0.1-0.2-0.1-0.1-0.3C81.8,19.9,81.8,20,81.8,20.1z"/>
					<path class="st3" d="M82,20.2c-0.1,0-0.2,0-0.2-0.1C81.8,20.2,81.9,20.2,82,20.2z"/>
				</g>
			</g>
		</g>
	</g>
</g>
</svg>
