<?xml version="1.0" encoding="utf-8"?>
<!-- Generator: Adobe Illustrator 24.0.3, SVG Export Plug-In . SVG Version: 6.00 Build 0)  -->
<svg version="1.1" id="レイヤー_1" xmlns="http://www.w3.org/2000/svg" xmlns:xlink="http://www.w3.org/1999/xlink" x="0px"
	 y="0px" viewBox="0 0 162.2 170.1" style="enable-background:new 0 0 162.2 170.1;" xml:space="preserve">
<style type="text/css">
	.st0{fill:#97D1FF;}
	.st1{fill:#FFBBA1;}
	.st2{fill:#144075;}
	.st3{fill:#D1EBFF;}
	.st4{fill:#1770C7;}
	.st5{fill:#FFA483;}
	.st6{fill:#FFFFFF;}
	.st7{fill:#005991;}
	.st8{fill:#C5C6C6;}
	.st9{fill:url(#SVGID_1_);}
	.st10{fill:none;}
	.st11{fill:url(#SVGID_2_);}
	.st12{fill:url(#SVGID_3_);}
	.st13{fill:url(#SVGID_4_);}
	.st14{fill:url(#SVGID_5_);}
	.st15{fill:url(#SVGID_6_);}
	.st16{fill:url(#SVGID_7_);}
	.st17{fill:url(#SVGID_8_);}
	.st18{fill:url(#SVGID_9_);}
	.st19{fill:url(#SVGID_10_);}
	.st20{fill:url(#SVGID_11_);}
	.st21{fill:url(#SVGID_12_);}
	.st22{fill:url(#SVGID_13_);}
	.st23{fill:url(#SVGID_14_);}
	.st24{fill:url(#SVGID_15_);}
	.st25{fill:url(#SVGID_16_);}
	.st26{fill:url(#SVGID_17_);}
	.st27{fill:url(#SVGID_18_);}
	.st28{fill:url(#SVGID_19_);}
	.st29{fill:url(#SVGID_20_);}
	.st30{fill:url(#SVGID_21_);}
	.st31{fill:url(#SVGID_22_);}
	.st32{fill:url(#SVGID_23_);}
	.st33{fill:url(#SVGID_24_);}
	.st34{fill:url(#SVGID_25_);}
	.st35{fill:url(#SVGID_26_);}
	.st36{fill:url(#SVGID_27_);}
	.st37{fill:url(#SVGID_28_);}
	.st38{fill:url(#SVGID_29_);}
	.st39{fill:url(#SVGID_30_);}
</style>
<g>
	
		<rect x="127.7" y="75.3" transform="matrix(-1 -1.224647e-16 1.224647e-16 -1 262.5704 166.5755)" class="st0" width="7.3" height="16"/>
	<path class="st1" d="M123.9,166.4c1.1-0.8,1.8-2.9,2.4-6.5c0.9-7.2-1.6-46.9-1-57.6c0.6-10.7,5.1-17.2,5.1-17.2s2.5,0,5.3,0
		c-0.1-0.1-0.1-0.2-0.1-0.2s0.8,0.1,2.1,0.2c0.2,0,0.4,0,0.6,0v0c1.5,0.1,3.4,0.1,5.4,0c9.8,6.8,7.8,24.4,7.8,24.4s-4,18.6-4.4,21.6
		s1.2,6.6,1.9,11s-2.3,13.3-3.4,17.1c-1.1,3.8,0,5.2,0,5.2s-2.1,2.1-3.3,3.3c-1.1,1.1-6,0.2-6,0.2s1.1-0.8,2.3-1.6
		c1.1-0.8,1.8-2.9,2.4-6.5c0.8-6.1-2.1-36.5-2.7-52.3c-0.3,1-5.5,20.7-6,23.6c-0.5,3,1.2,6.6,1.9,11s-2.3,13.3-3.4,17.1
		c-1.1,3.8,0,5.2,0,5.2s-2.1,2.1-3.3,3.3c-1.1,1.1-6,0.2-6,0.2S122.8,167.2,123.9,166.4z"/>
	<path class="st2" d="M143.7,85.1h-13.3c0,0-5.7,5.2-6.3,16.8s0.6,25,0.6,25c9.4,3.2,13.7,3,24.4,0.2c2.3-10.7,3.9-20.6,2.9-28.1
		C151.3,95.1,149.2,87.2,143.7,85.1z"/>
	<path class="st1" d="M105,82.3c-1.6,0.5-2.3,0.7-3.6,0.5c-1.3-0.2-2.4,0.5-3.1,0.9c-0.7,0.5-2,1.2-2,1.6c0,0.4,1.2,0.4,2.6-0.4
		c-0.7,1.6-1.2,1.8-2.3,2.3c-1.1,0.6-2.5,1.7-2.6,2.4c-0.1,0.6,1.1,0.5,2.1,0.4c1-0.1,2.9-0.1,3.8-0.8c0.9-0.7,1.9-2.8,3-3.2
		c1.1-0.4,2.4-0.4,2.4-0.4L105,82.3z"/>
	<path class="st3" d="M125,83.7c-0.7,1.2-1.9,2-3.2,2.3c-9,1.8-17.8,1.7-17.8,1.7s-1.6-3.3-0.4-6.9c4.8,0,14.4-1.6,14.4-1.6
		c2.7-5.6,5.9-17.9,8.4-20.1c2.5-2.2,4,11.6,3,14.6C128.4,76.8,126,81.8,125,83.7z"/>
	<path class="st2" d="M143.8,35.1c0,0,1.8,3,1.2,5.9c-0.5,2.9,1.7,2.9,0,6c-0.3,1.7,1.9,0.5,3.3,3.3c1.4,2.9-0.8,4.3,0.3,5.7
		c1.1,1.4,4.5,3.9,1.4,7.8c-3,3.9-8.4,0.8-9.3-1.6c-0.9-2.4-0.7-3.5,0-5.2c0.7-1.7,2.1-2.7,1-4.6c-1.1-1.9,0.5-4.1,0.5-4.1
		s0.2-1-1.4-0.1c-1.6,0.9-4,0.3-4,0.3l2.9-10.5L143.8,35.1z"/>
	<path class="st4" d="M124.5,70.3c0.3,2.3,1.5,4.6,3.1,7.4c0.2,0.4,0.4,0.9,0.7,1.3c1.2,2.7,2,6,2,6c2.4,1.3,5.6,1.3,9.3,0.8
		c1.3-0.2,2.6-0.5,4-0.8c0,0,4.5-12.8,6.5-25.6c-2.4-1.5-5-2.7-6.8-3.5c-1.2-0.5-2-0.8-2-0.8l-8.5,0.3c0,0-0.7,0.3-1.7,0.7
		c-1.4,0.7-3.4,1.7-4.7,2.7C125.8,63.8,124.6,66.4,124.5,70.3z"/>
	<path class="st2" d="M130.5,163.1c-1,0.4-2.6,4.2-4.1,4.4c-1.6,0.2-3.8-0.1-3.8-0.1s-2.9,0.3-3.5,2.4c0,0.1,0.1,0.2,0.2,0.2h7.4
		c0.5,0,0.9-0.2,1.2-0.6c0.6-0.8,1.6-2.2,2.2-2.5c0,1.6-0.1,3.2-0.1,3.2h0.9l0.7-4C131.5,166,132.3,163.5,130.5,163.1z"/>
	<path class="st2" d="M145.2,163.1c-1,0.4-2.6,4.2-4.1,4.4c-1.6,0.2-3.8-0.1-3.8-0.1s-2.9,0.3-3.5,2.4c0,0.1,0.1,0.2,0.2,0.2h7.4
		c0.5,0,0.9-0.2,1.2-0.6c0.6-0.8,1.6-2.2,2.2-2.5c0,1.6-0.1,3.2-0.1,3.2h0.9l0.7-4C146.2,166,147,163.5,145.2,163.1z"/>
	<path class="st5" d="M140.5,45.1c-0.1,3.5,0.1,7.3,0.9,10.2c-2.5,1.3-6.4,1.8-8.5,0.3c0.6-2.7,0.4-6.1,0.3-8.6c0,0,3.1-2.7,4.5-2.9
		C139.1,44,140.5,45.1,140.5,45.1z"/>
	<path class="st1" d="M139.9,46.9c0,0-0.3,2.8-2,3.9c-1.7,1.1-4.9,2.5-5.6,2.5s-2.7-2-2.8-5.8s-0.6-8.9,0-10.6
		c0.6-1.7,3-4.6,7.9-4.4c4.9,0.3,7.7,3.2,7,8.6C143.6,46.5,139.9,46.9,139.9,46.9z"/>
	<path class="st2" d="M128.6,41c0-0.7,0-1.4,0-1.4l0,0c0.2-2.9,1.4-7.8,7.8-7.6c9,0.2,8.9,6.9,8.8,7.8c-0.1,0.9-0.3,4.6-1.6,5.6
		c-1.3,1-2.6,1.1-2.6,1.1l0.6-2.2c-1.5-1.5-3.8-1.3-4.3-3.6c-0.6-2.3-0.6-3.9-1.2-4.3c-0.6-0.4-3.9-0.7-5.4,1
		c-0.3,0.3-0.5,0.6-0.7,1c0,0-0.9,2.6-0.8,4.6c-0.3-0.2-0.5-0.7-0.5-1.3c0,0,0,0.1,0,0.1S128.6,41.5,128.6,41z"/>
	<path class="st1" d="M139.5,43.7c0,0,1-2.4,2.3-2c1.3,0.4,0.9,2.7,0.6,3.6c-0.3,0.9-1.1,2-2.5,1.6C138.8,46,139.1,44.4,139.5,43.7z
		"/>
	<path class="st6" d="M139.5,77.7c0,2.4,0.1,5.2,0.2,8.2c0.5,14.4,1.5,35.2,1.5,35.2c4.3,0.1,8.5-0.6,12.6-1.9
		c0,0,0.6-15.9-1.4-23.1c-1.9-7.2-6.1-9.6-5.4-15.1c0.7-5.5,3.3-18.4,3.2-21.5c-0.2-0.1-0.4-0.3-0.6-0.4c-2.2-1.4-4.5-2.4-6.1-3.1
		c-0.9,2.5-3.3,9.5-3.8,14.4C139.5,71.6,139.4,74.3,139.5,77.7z"/>
	<path class="st1" d="M143.9,102.2c1.8,1.3,3.5,2.2,4.9,2.7c0.2-0.2,0.3-0.5,0.4-0.7c0.1-0.5,0-1.2-0.1-1.9c-0.1-1.1-0.3-2.3,0-2.9
		c0.6-1.1,1.6-2.1,1.6-2.1l-2.8-2.4c-0.8,1.6-1.3,2.3-2.5,3.1c-0.6,0.4-1,1.1-1.3,1.7c-0.2,0.5-0.4,1-0.4,1.4
		C143.8,101,143.8,101.6,143.9,102.2z"/>
	<path class="st3" d="M141.7,100.9c0.8,1,1.8,1.8,2.7,2.5c1.5,1.1,3.1,1.9,4.3,2.4c1.4,0.6,2.3,0.8,2.3,0.8s0,0,0.7-2
		c-1-0.4-1.9-0.7-2.7-1.1c-1.9-0.9-3.3-1.7-4.3-2.4c-1.5-1-2-1.8-2-1.8S142.1,100.2,141.7,100.9z"/>
	<path class="st3" d="M139.5,77.7c1.8-5.8,6.4-10.6,6.4-10.6s-0.8-1.7-1.1-4c1.1-1.4,3.2-3,4.8-4c-2.2-1.4-4.5-2.4-6.1-3.1
		c-0.9,2.5-3.3,9.5-3.8,14.4C139.5,71.6,139.4,74.3,139.5,77.7z"/>
	<path class="st3" d="M153.9,82.7c0,0-4.9,8.4-8,12.1c2,3.3,5.5,4.1,5.5,4.1s5.7-6.7,10.1-14.7c0.7-1.2,0.8-2.6,0.3-3.9
		c-1.4-4.1-5-13.5-11.6-20.8c-3.5,5.7-4,10.1-2.1,14C151.2,77.7,153.9,82.7,153.9,82.7z"/>
	<path class="st6" d="M121,119.3c1.6,1.3,3.7,1.8,6.1,1.9c0,0,0.8-27.4,1.2-42.1c0-0.5,0-1.1,0-1.6c0.1-4.4,0.2-7.6,0.2-8.4
		c0-2.9,1.9-10.1,2.6-12.7c-1.3,0.6-3.2,1.6-4.5,2.6c-0.1,0.1-0.2,0.1-0.2,0.2c-0.7,4.7-1.9,7.4-1.9,11.2c0,1.5,0.5,3.6,1.8,6.5
		c1.2,2.9,1.6,7.1-1.2,14.5C122.2,98.8,121,119.3,121,119.3z"/>
	<path class="st3" d="M125.5,67c0,0,0.7,5.4,2.9,10.5c0.1-4.4,0.2-7.6,0.2-8.4c0-2.9,1.9-10.1,2.6-12.7c-1.3,0.6-3.2,1.6-4.5,2.6
		c0.3,1.1,0.8,2.7,1.6,3.9C126.6,64.5,125.5,67,125.5,67z"/>
</g>
<ellipse class="st6" cx="56.8" cy="42" rx="57" ry="42"/>
<g>
	<g>
		<path class="st7" d="M15.1,25.1c0-0.2,0-0.4,0-0.6c0.2,0,0.4,0,0.7,0H18v-1.6h-2.3c-0.5,0.8-1,1.4-1.7,2c-0.2-0.2-0.3-0.3-0.5-0.5
			c1-0.8,1.5-1.6,2-2.7c0.1-0.3,0.2-0.5,0.2-0.7l0.7,0.2c0,0.1-0.1,0.2-0.1,0.3l-0.4,0.8h5c0.4,0,0.6,0,0.9,0V23c-0.2,0-0.5,0-0.9,0
			h-2.3v1.6h1.8c0.4,0,0.6,0,0.9,0v0.7c-0.3,0-0.5,0-0.9,0h-1.8v2h2.5c0.4,0,0.7,0,1-0.1v0.7c-0.3,0-0.6-0.1-1-0.1h-2.5v1.6
			c0,0.4,0,0.7,0.1,0.9h-0.8c0-0.2,0.1-0.5,0.1-0.9v-1.6h-3.6c-0.4,0-0.7,0-1,0.1V27c0.3,0,0.6,0.1,1,0.1h0.8V25.1z M18,27.1v-2
			h-2.2v2H18z"/>
		<path class="st7" d="M24.5,29.1c0,0.6,0,0.9,0.1,1.1h-0.7c0-0.3,0.1-0.6,0.1-1.1v-6.5c0-0.5,0-0.8,0-1.1c0.3,0,0.5,0,1,0h1.4
			c0.5,0,0.7,0,1,0c0,0.3,0,0.6,0,0.9v1.2c0,0.4,0,0.7,0,0.9c-0.3,0-0.6,0-1,0h-1.8V29.1z M24.5,22.8h2.2V22h-2.2V22.8z M24.5,24.1
			h2.2v-0.8h-2.2V24.1z M29.7,27.9c0,0.4,0,0.6,0,0.9c-0.3,0-0.6,0-1,0h-2.2v0.7h-0.6c0-0.3,0-0.5,0-0.9v-2.2c0-0.4,0-0.6,0-0.9
			c0.3,0,0.5,0,1,0h1.8c0.5,0,0.7,0,1,0c0,0.3,0,0.5,0,0.9V27.9z M26.5,26.8h2.6v-0.9h-2.6V26.8z M26.5,28.3h2.6v-1h-2.6V28.3z
			 M31.9,29.2c0,0.7-0.2,0.8-1,0.8c-0.2,0-0.8,0-1,0c0-0.3-0.1-0.4-0.2-0.6c0.5,0.1,0.9,0.1,1.1,0.1c0.4,0,0.5,0,0.5-0.3v-4.6h-2
			c-0.4,0-0.7,0-1,0c0-0.3,0-0.6,0-0.9v-1.2c0-0.3,0-0.6,0-0.9c0.3,0,0.5,0,1,0h1.6c0.5,0,0.8,0,1,0c0,0.4-0.1,0.6-0.1,1.1V29.2z
			 M28.8,22.8h2.5V22h-2.5V22.8z M28.8,24.1h2.5v-0.8h-2.5V24.1z"/>
		<path class="st7" d="M33.7,22.9c0.2,0,0.3,0,0.4,0c0.1,0,0.3,0,0.6,0c0.6,0,0.6,0,1.8-0.1l1.6-0.1c1.2-0.1,1.4-0.1,1.7-0.1l0.6,0
			c0.9-0.1,1-0.1,1.2-0.1l0.1,0.7c-0.4,0-0.7,0-1.1,0.1c-0.7,0.2-1.4,0.5-1.9,1c-0.8,0.7-1.2,1.5-1.2,2.3c0,0.8,0.5,1.5,1.4,1.8
			c0.5,0.2,1.1,0.3,1.5,0.3c0,0,0.1,0,0.1,0l-0.1,0.8c-0.1,0-0.1,0-0.3-0.1c-1-0.2-1.6-0.4-2.2-0.8c-0.7-0.5-1.1-1.2-1.1-2
			c0-1.2,0.7-2.3,1.9-3.1c0.3-0.2,0.6-0.3,1-0.5c-0.6,0.1-1.1,0.2-2.2,0.2c-2,0.1-3.1,0.2-3.4,0.3L33.7,22.9z M40.4,24.3
			c0.4,0.5,0.7,1,1,1.5l-0.5,0.3c-0.2-0.5-0.7-1.3-1-1.6L40.4,24.3z M41.5,23.8c0.5,0.5,0.7,0.9,1,1.6l-0.5,0.3
			c-0.2-0.5-0.6-1.1-1-1.6L41.5,23.8z"/>
		<path class="st7" d="M44,27.5c0.8,0.7,1.3,1.2,2,2.1l-0.6,0.5c-0.6-0.9-1.2-1.6-2-2.2L44,27.5z"/>
		<path class="st7" d="M56.2,24.1c0.6,0,0.8,0,1.2-0.1v0.8c-0.3,0-0.6,0-1.2,0H54c-0.1,1.4-0.3,2.1-0.7,2.9
			c-0.5,0.8-1.3,1.5-2.5,2.1c-0.2-0.3-0.3-0.4-0.5-0.6c1.2-0.5,2-1.2,2.5-2.1c0.3-0.6,0.4-1.1,0.5-2.3h-2.8c-0.5,0-0.8,0-1.2,0V24
			c0.4,0.1,0.6,0.1,1.2,0.1h2.8c0-0.4,0-0.6,0-0.9v-0.7c0-0.4,0-0.6-0.1-0.8H54c0,0.3,0,0.3,0,0.8l0,0.7c0,0.7,0,0.7,0,0.9H56.2z"/>
		<path class="st7" d="M60.2,28.8l-0.5,0c-0.3,0-0.4,0-0.6,0v-0.8c0.3,0.1,0.5,0.1,1.1,0.1H65v-4.8h-4.5c-0.7,0-0.8,0-1.1,0.1v-0.8
			c0.3,0.1,0.5,0.1,1.1,0.1h4.5c0.4,0,0.7,0,0.8,0c0,0.1,0,0.2,0,0.2v5.7c0,0.6,0,0.7,0,0.9H65v-0.6H60.2z M65.6,21.3
			c0.4,0.5,0.7,1,1,1.5l-0.5,0.3c-0.3-0.6-0.7-1.2-1-1.6L65.6,21.3z M66.7,20.7c0.5,0.5,0.7,0.9,1,1.5l-0.5,0.3
			c-0.2-0.5-0.6-1.1-1-1.6L66.7,20.7z"/>
		<path class="st7" d="M76.7,23c-0.1,0.1-0.1,0.1-0.3,0.5c-0.3,0.7-0.8,1.4-1.3,2c-0.3,0.3-0.6,0.6-1.1,1c-0.2-0.2-0.3-0.3-0.6-0.5
			c0.7-0.4,1.1-0.7,1.5-1.2c0.3-0.4,0.6-0.8,0.8-1.3c0-0.1,0-0.1,0.1-0.1c-0.1,0-0.1,0-0.2,0L71.6,24l0.9,4.8
			c0.1,0.4,0.1,0.6,0.2,0.9l-0.8,0.2c0-0.2,0-0.5-0.1-0.9l-0.9-4.8l-1.3,0.2c-0.5,0.1-0.7,0.1-1,0.2l-0.1-0.8c0.3,0,0.6,0,1-0.1
			l1.3-0.2l-0.2-1.2c-0.1-0.6-0.1-0.6-0.2-0.8l0.8-0.1c0,0.3,0,0.4,0.1,0.8l0.2,1.2l4.3-0.7c0.2,0,0.3,0,0.4-0.1L76.7,23z"/>
		<path class="st7" d="M79.5,29.8c0-0.2,0.1-0.4,0.1-1v-6.2c0-0.6,0-0.8-0.1-1h0.9c0,0.2-0.1,0.4-0.1,1v1.9c1.4,0.5,2.8,1.2,4.4,2.1
			l-0.4,0.7c-0.8-0.6-2.3-1.4-3.7-2c-0.1-0.1-0.2-0.1-0.3-0.2l0,0c0,0.2,0,0.3,0,0.6v3c0,0.6,0,0.8,0.1,1.1H79.5z M83.3,21.9
			c0.5,0.5,0.7,1,1,1.5l-0.5,0.3c-0.2-0.5-0.7-1.3-1-1.6L83.3,21.9z M84.5,21.4c0.4,0.6,0.7,0.9,1,1.6L85,23.2
			c-0.2-0.5-0.6-1.1-1-1.6L84.5,21.4z"/>
		<path class="st7" d="M86.8,25.2c0.3,0.1,0.6,0.1,1.2,0.1h5.8c0.7,0,0.9,0,1.2,0V26c-0.3,0-0.5,0-1.2,0h-5.8c-0.7,0-0.9,0-1.2,0
			V25.2z"/>
		<path class="st7" d="M100.1,21.7c-0.1,0.2-0.2,0.4-0.3,0.7c-0.7,2.4-1.4,4.3-2.1,5.8c1.3-0.1,3.7-0.4,4.9-0.6
			c-0.5-1-1-1.9-1.5-2.6l0.6-0.3c0.8,1.1,1.8,2.9,2.5,4.5l-0.7,0.4c-0.2-0.6-0.4-0.9-0.6-1.3c-1.7,0.3-3.7,0.6-6.1,0.8
			c-0.4,0-0.7,0.1-0.8,0.1l-0.1-0.8c0.2,0,0.2,0,0.3,0c0.1,0,0.6,0,0.8,0c0.6-1.4,1-2.5,1.5-4c0.5-1.5,0.7-2.3,0.8-2.9L100.1,21.7z"
			/>
		<path class="st7" d="M14.4,37.8c0.3,0,0.4,0,0.8,0h0.6c0.3,0,0.5,0,0.8,0c-0.1,0.6-0.1,1.1-0.1,1.7v4.9c0,0.5,0,0.8,0.1,1.1h-0.9
			c0.1-0.4,0.1-0.7,0.1-1.1v-5.8h-0.5c-0.3,0-0.6,0-0.9,0.1V37.8z"/>
		<path class="st7" d="M20.5,44.4v1h-1v-1H20.5z"/>
		<path class="st7" d="M23.3,45.4c-0.6,0-0.8,0-1.1,0c0.1-0.8,0.1-0.9,0.3-1.3c0.2-0.6,0.7-1.2,1.3-1.7c0.3-0.3,0.4-0.3,1.5-1.1
			c1-0.7,1.3-1.1,1.3-1.7c0-0.8-0.6-1.2-1.7-1.2c-0.7,0-1.1,0.2-1.4,0.6c-0.2,0.3-0.3,0.5-0.3,1l-0.8-0.1c0.2-0.7,0.3-1.1,0.6-1.4
			c0.4-0.5,1.1-0.8,2-0.8c1.5,0,2.5,0.8,2.5,1.9c0,0.5-0.2,1-0.6,1.4c-0.3,0.3-0.6,0.5-1.7,1.3c-0.8,0.5-1.1,0.8-1.4,1.2
			c-0.3,0.4-0.5,0.7-0.6,1.2h3.2c0.5,0,0.8,0,1.2-0.1v0.8c-0.4,0-0.7-0.1-1.2-0.1H23.3z"/>
		<path class="st7" d="M30.3,45.1c0,0.5,0,0.8,0.1,1.2h-0.7c0-0.4,0.1-0.7,0.1-1.2v-3.3c0-0.5,0-0.6,0-1.2c-0.3,0.6-0.5,0.9-0.9,1.4
			c-0.1-0.2-0.2-0.4-0.4-0.5c0.7-0.8,1.3-1.7,1.7-2.8c0.3-0.7,0.3-1,0.4-1.5l0.7,0.2c-0.1,0.2-0.1,0.3-0.2,0.5
			c-0.2,0.6-0.3,1-0.7,1.7V45.1z M31.4,38.7c0-0.5,0-0.8,0-1.1c0.3,0,0.5,0,0.9,0h4.2c0.5,0,0.7,0,1,0c0,0.3,0,0.5,0,1.1v6.2
			c0,0.6,0,0.9,0,1.2h-0.7v-0.5H32v0.5h-0.7c0-0.3,0.1-0.6,0.1-1.2V38.7z M32,45.1h4.7v-6.8H32V45.1z M34.9,41.6c0.4,0,0.6,0,0.9,0
			c0,0.2,0,0.3,0,0.8v1.1c0,0.5,0,0.6,0,0.8c-0.3,0-0.6,0-0.9,0h-1.2c-0.4,0-0.6,0-0.9,0c0-0.2,0-0.3,0-0.8v-1.1c0-0.4,0-0.6,0-0.8
			c0.3,0,0.5,0,0.9,0H34v-1.2h-0.9c-0.3,0-0.6,0-0.8,0v-0.6c0.2,0,0.4,0.1,0.8,0.1H34v-0.3c0-0.4,0-0.7-0.1-0.9h0.7
			c0,0.2,0,0.5,0,0.9v0.3h0.9c0.4,0,0.6,0,0.8-0.1v0.6c-0.2,0-0.5,0-0.8,0h-0.9v1.2H34.9z M33.4,43.7h1.8v-1.6h-1.8V43.7z"/>
		<path class="st7" d="M42.7,37.5c-0.1,0.1-0.1,0.2-0.3,0.5c-0.8,1.5-1.7,2.7-3.1,3.7c-0.1-0.2-0.3-0.3-0.5-0.5
			c1.2-0.8,2.1-1.7,2.7-2.9c0.2-0.4,0.4-0.8,0.4-1L42.7,37.5z M41.8,41.4c-0.4,0-0.7,0-1,0.1v-0.7c0.3,0,0.6,0.1,1,0.1h3.3
			c0.5,0,0.8,0,1-0.1c0,0.2,0,0.3,0,0.7c0,1.9-0.2,3.6-0.4,4.1c-0.2,0.3-0.4,0.4-1,0.4c-0.3,0-0.7,0-1.3-0.1c0-0.3-0.1-0.4-0.2-0.7
			c0.5,0.1,1,0.2,1.4,0.2c0.3,0,0.4-0.1,0.5-0.2c0.2-0.6,0.3-2,0.3-3.7h-2.3c-0.1,1.1-0.3,1.8-0.8,2.6c-0.5,0.9-1.3,1.5-2.5,2.2
			c-0.1-0.2-0.2-0.4-0.4-0.6c1.3-0.6,2-1.3,2.5-2.2c0.3-0.6,0.5-1.2,0.5-2.1H41.8z M44.9,37.2c0.1,0.3,0.2,0.5,0.4,0.8
			c0.7,1.3,1.6,2.2,2.9,3.1c-0.2,0.2-0.3,0.3-0.5,0.6c-1.6-1.2-2.4-2.2-3.4-4c0-0.1-0.1-0.2-0.2-0.3L44.9,37.2z"/>
		<path class="st7" d="M53.2,42.8c-0.6,1.3-1.2,1.9-1.9,1.9c-1,0-1.7-1-1.7-2.4c0-1,0.4-2,1-2.8c0.8-0.9,1.9-1.3,3.2-1.3
			c1.1,0,2.1,0.3,2.7,1c0.6,0.6,1,1.5,1,2.4c0,1.5-0.8,2.8-2.3,3.4c-0.5,0.2-0.8,0.3-1.5,0.5c-0.1-0.3-0.2-0.4-0.3-0.7
			c0.7-0.1,1.2-0.2,1.7-0.5c1.1-0.5,1.8-1.6,1.8-2.8c0-1.1-0.6-2.1-1.6-2.5c-0.4-0.2-0.7-0.2-1.2-0.2C54,40.2,53.6,41.8,53.2,42.8z
			 M52,39.3c-1,0.6-1.6,1.7-1.6,3c0,1,0.4,1.7,1,1.7c0.4,0,0.8-0.5,1.2-1.4c0.4-0.9,0.8-2.4,0.9-3.7C52.9,38.9,52.4,39,52,39.3z"/>
		<path class="st7" d="M66.3,45.6c-0.8-1-1.9-2.1-3.2-3.1c-0.7,0.8-1.2,1.3-1.9,1.8c-0.7,0.5-1.2,0.8-2,1.2
			c-0.2-0.3-0.2-0.4-0.5-0.7c0.8-0.3,1.3-0.6,2-1.1c1.6-1.2,2.8-2.8,3.6-4.5c0-0.1,0-0.1,0-0.1c0,0,0,0,0-0.1c-0.1,0-0.1,0-0.2,0
			L60.9,39c-0.5,0-0.7,0-1,0.1l0-0.8c0.3,0,0.5,0.1,0.8,0.1c0,0,0.1,0,0.3,0l3.6,0c0.3,0,0.5,0,0.6-0.1l0.4,0.4
			c-0.1,0.1-0.2,0.2-0.3,0.5c-0.6,1.2-1,2-1.6,2.8c1.3,1,2.2,1.8,3.3,3L66.3,45.6z"/>
		<path class="st7" d="M72.2,37.5c-0.1,0.1-0.1,0.1-0.2,0.4c-0.3,0.5-0.4,0.7-0.5,0.9c0.1,0,0.1,0,3-0.1c0.3,0,0.4,0,0.5-0.1
			l0.4,0.4c-0.1,0.1-0.1,0.1-0.2,0.5c-0.4,1.4-1.1,2.8-2,3.8c-0.9,1-2,1.8-3.5,2.5c-0.2-0.3-0.2-0.4-0.5-0.6
			c1.5-0.6,2.6-1.4,3.5-2.5c0.8-0.9,1.4-2.1,1.7-3.3l-3.4,0.1c-0.6,1-1.4,1.9-2.4,2.6c-0.2-0.2-0.3-0.3-0.6-0.5
			c1.1-0.7,1.8-1.5,2.5-2.7c0.4-0.7,0.6-1.1,0.6-1.5L72.2,37.5z"/>
		<path class="st7" d="M77.7,40.2c0.4,0,0.6,0.1,1.2,0.1H84c0.4,0,0.5,0,0.6-0.1l0.4,0.4c-0.1,0.1-0.1,0.2-0.3,0.6
			c-0.8,2.3-2.2,3.6-4.8,4.5c-0.1-0.3-0.2-0.4-0.4-0.7c1.3-0.4,2.2-0.8,3-1.5c0.7-0.6,1.2-1.4,1.6-2.6h-5.2c-0.5,0-0.8,0-1.2,0.1
			V40.2z M78.6,37.9c0.3,0.1,0.5,0.1,1,0.1h3.3c0.6,0,0.8,0,1-0.1v0.8c-0.3,0-0.5-0.1-1-0.1h-3.4c-0.5,0-0.8,0-1,0.1V37.9z"/>
		<path class="st7" d="M88,40c0.4,0.7,0.6,1.2,1,2.2l-0.7,0.2c-0.2-0.9-0.5-1.5-0.9-2.2L88,40z M93.7,39.9c-0.1,0.2-0.1,0.2-0.2,0.8
			c-0.2,0.7-0.5,1.6-0.9,2.2c-0.7,1.2-1.8,2.1-3.3,2.9c-0.1-0.2-0.2-0.3-0.5-0.6c1.5-0.7,2.5-1.5,3.2-2.6c0.4-0.6,0.7-1.4,0.8-2.1
			c0.1-0.3,0.1-0.6,0.1-0.7v0c0,0,0,0,0-0.1L93.7,39.9z M90.1,39.6c0.5,0.9,0.7,1.3,1,2.1L90.4,42c-0.2-0.7-0.5-1.4-0.9-2.2
			L90.1,39.6z"/>
		<path class="st7" d="M101.6,38.5c0-0.1,0-0.2,0-0.3c0-0.6,0.5-1.1,1.1-1.1c0.6,0,1.1,0.5,1.1,1.1c0,0.6-0.5,1.1-1.1,1.1
			c-0.1,0-0.2,0-0.3,0c0,0,0,0,0,0.1c-0.5,1.8-1.1,3-2,4c-1,1.1-2.2,1.8-3.6,2.4c-0.1-0.3-0.2-0.5-0.5-0.7c1.3-0.4,2.8-1.2,3.7-2.3
			c0.8-0.9,1.4-2.1,1.7-3.6h-5.1c-0.6,0-0.8,0-1.1,0.1v-0.8c0.4,0,0.6,0.1,1.1,0.1h4.9H101.6z M101.9,38.2c0,0.4,0.3,0.7,0.7,0.7
			c0.4,0,0.7-0.3,0.7-0.7c0-0.4-0.3-0.7-0.7-0.7C102.3,37.5,101.9,37.8,101.9,38.2z"/>
		<path class="st7" d="M16.4,54.7c0.3-0.7,0.5-1,0.5-1.4l0.8,0.1c-0.1,0.1-0.1,0.1-0.3,0.5c-0.1,0.3-0.3,0.6-0.3,0.7
			c0.1,0,0.1,0,0.2,0c1.6-0.1,2.6-0.2,3.1-0.4l0.1,0.7c-0.2,0-0.2,0-0.4,0c-1,0.1-2.1,0.2-3.3,0.3c-0.3,0.6-0.5,1-0.9,1.4
			c-0.1,0.1-0.3,0.4-0.3,0.4c-0.1,0-0.1,0.1-0.1,0.1c0,0,0,0,0,0c0,0,0,0,0,0c0,0,0,0,0,0c0.4-0.3,0.4-0.3,0.5-0.3
			c0.5-0.3,1-0.5,1.5-0.5c0.7,0,1.2,0.4,1.3,1.1c0.7-0.3,1.3-0.5,1.7-0.7c0.5-0.2,0.5-0.2,0.7-0.3l0.3,0.7c-0.5,0.1-1.4,0.4-2.7,0.9
			c0,0.3,0,0.4,0,0.6c0,0.1,0,0.3,0,0.5c0,0.2,0,0.4,0,0.5c0,0.1,0,0.2,0,0.4l-0.7,0c0-0.2,0.1-0.8,0.1-1.4c0-0.2,0-0.2,0-0.3
			c-1.4,0.6-1.9,1.1-1.9,1.7c0,0.7,0.6,0.9,2,0.9c1,0,2.1-0.2,2.7-0.4l0.1,0.8c-0.2,0-0.2,0-0.4,0c-0.8,0.1-1.7,0.2-2.4,0.2
			c-1.8,0-2.7-0.5-2.7-1.5c0-0.5,0.3-1.1,1-1.6c0.3-0.2,0.8-0.5,1.5-0.8c-0.1-0.5-0.3-0.8-0.8-0.8c-0.6,0-1.4,0.4-2.2,1.1
			c-0.4,0.3-0.6,0.6-0.8,0.8l-0.6-0.6c0.7-0.5,1.5-1.6,2.2-2.9c0,0,0,0,0.1-0.1c0,0-0.1,0-0.2,0c-0.2,0-1.1,0-1.5,0c0,0-0.1,0-0.2,0
			c-0.1,0-0.1,0-0.2,0l0-0.7c0.4,0.1,1.1,0.1,2.1,0.1H16.4z"/>
		<path class="st7" d="M23.6,56.2c0-0.4,0-0.7,0-0.9c0.2,0,0.5,0,0.9,0h2.2v-1.2h-2.9c-0.4,0-0.7,0-1,0.1v-0.7c0.3,0,0.6,0.1,1,0.1
			h6.8c0.4,0,0.7,0,1-0.1v0.7c-0.3,0-0.7-0.1-1-0.1h-3.2v1.2h2.4c0.4,0,0.7,0,0.9,0c0,0.3,0,0.5,0,0.9V59h0.1c0.4,0,0.7,0,1-0.1v0.7
			c-0.3,0-0.6-0.1-1-0.1h-0.1v1.8c0,0.7-0.2,0.8-1.4,0.8c-0.3,0-0.7,0-1,0c0-0.3-0.1-0.4-0.2-0.7c0.5,0.1,0.9,0.1,1.4,0.1
			c0.4,0,0.5-0.1,0.5-0.3v-1.7h-5.7v1.7c0,0.5,0,0.8,0.1,1h-0.8c0-0.3,0.1-0.6,0.1-1.1v-1.6h-0.2c-0.4,0-0.7,0-1,0.1v-0.7
			c0.3,0,0.5,0.1,1,0.1h0.1V56.2z M26.6,57.1v-1.2h-2.4v1.2H26.6z M26.6,59v-1.3h-2.4V59H26.6z M29.9,57.1v-1.2h-2.6v1.2H29.9z
			 M29.9,59v-1.3h-2.6V59H29.9z"/>
		<path class="st7" d="M34.1,55.9c-0.4,0.9-0.8,1.5-1.4,2.1c-0.2-0.2-0.3-0.3-0.6-0.4c0.8-0.9,1.4-1.8,1.8-3.1
			c0.1-0.4,0.2-0.7,0.2-0.9l0.7,0.2c-0.1,0.1-0.1,0.3-0.2,0.5c0,0.1-0.2,0.4-0.4,1h2.1v-1.1c0-0.4,0-0.7-0.1-1.1h0.8
			c0,0.3-0.1,0.6-0.1,1.1v1.1h2.5c0.4,0,0.8,0,1.1-0.1v0.7c-0.4,0-0.7-0.1-1.1-0.1h-2.5V58h2c0.5,0,0.8,0,1.1-0.1v0.7
			c-0.3,0-0.6-0.1-1.1-0.1h-2v2.6h2.8c0.5,0,0.8,0,1.2-0.1v0.7c-0.4-0.1-0.7-0.1-1.2-0.1h-6.4c-0.5,0-0.8,0-1.2,0.1v-0.7
			c0.4,0,0.7,0.1,1.2,0.1h3v-2.6h-1.8c-0.5,0-0.8,0-1.1,0.1V58c0.3,0,0.6,0.1,1.1,0.1h1.8v-2.1H34.1z"/>
		<path class="st7" d="M43.9,53.7c-0.1,0.3-0.1,0.8-0.1,2.1c0,1.2-0.1,2.6-0.1,3c0,0.1,0,0.4,0,0.6c0,0.6,0.2,0.9,0.5,1.2
			c0.3,0.2,0.7,0.4,1.2,0.4c1.2,0,2.1-0.6,2.7-1.7c0.2-0.5,0.3-0.9,0.5-1.6c0.3,0.2,0.4,0.3,0.7,0.5c-0.4,1.2-0.7,1.8-1.1,2.3
			c-0.7,0.8-1.6,1.2-2.8,1.2c-0.8,0-1.5-0.2-1.9-0.7c-0.4-0.5-0.5-1-0.5-2c0-0.7,0-0.9,0.1-4.1c0-0.3,0-0.5,0-0.6c0-0.2,0-0.3,0-0.5
			H43.9z"/>
		<path class="st7" d="M50,54.9c0.2,0,0.3,0,0.4,0c0.1,0,0.3,0,0.6,0c1.2-0.1,4.4-0.3,5.7-0.3c0.6,0,1-0.1,1.2-0.1l0.1,0.8
			c-0.4,0-0.7,0-1.1,0.1c-0.7,0.2-1.4,0.5-1.9,1c-0.8,0.7-1.2,1.5-1.2,2.3c0,0.8,0.5,1.5,1.4,1.8c0.5,0.2,1.1,0.3,1.5,0.3
			c0,0,0.1,0,0.1,0l-0.1,0.8c-0.1,0-0.1,0-0.3-0.1c-1-0.2-1.6-0.4-2.2-0.8c-0.7-0.5-1.1-1.2-1.1-2c0-1.2,0.7-2.3,1.9-3.1
			c0.3-0.2,0.6-0.3,1-0.5c-0.6,0.1-1.1,0.1-2.2,0.2c-2.1,0.1-3,0.2-3.4,0.3L50,54.9z"/>
		<path class="st7" d="M60.6,54.4c-0.1,0.3-0.1,0.6-0.1,1.2c0,1.1,0.1,2.5,0.3,3.1c0.2,1,0.6,1.7,1,1.7c0.2,0,0.3-0.2,0.5-0.5
			c0.2-0.5,0.4-1,0.5-1.7c0.2,0.3,0.3,0.3,0.6,0.6c-0.5,1.7-0.9,2.4-1.7,2.4c-0.6,0-1.1-0.6-1.4-1.5c-0.3-1-0.5-2.2-0.5-4.7
			c0-0.4,0-0.4,0-0.6L60.6,54.4z M65.5,54.9c0.6,0.8,1.1,1.4,1.4,2.3c0.4,0.8,0.6,1.5,0.8,2.7l-0.7,0.3c-0.2-1.9-0.9-3.6-2.1-4.9
			L65.5,54.9z"/>
		<path class="st7" d="M76.2,61.4c-0.5-0.5-1.2-1-2-1.4c-0.2-0.1-0.4-0.2-0.7-0.3c0,0.2,0,0.2,0,0.4c0,0.5-0.1,0.8-0.2,1.1
			c-0.3,0.4-0.9,0.6-1.7,0.6c-0.7,0-1.2-0.1-1.5-0.4c-0.3-0.2-0.5-0.6-0.5-1c0-0.7,0.5-1.2,1.4-1.4c0.3-0.1,0.6-0.1,1-0.1
			c0.3,0,0.5,0,0.9,0.1c0,0,0,0,0-0.1c0,0,0,0,0-0.1c0-0.1,0-0.3,0-0.6c0-0.1,0-0.3,0-0.6c-0.4,0-0.9,0-1.2,0c-0.6,0-1.1,0-1.7-0.1
			c-0.1,0-0.2,0-0.2,0c0,0,0,0-0.1,0l0-0.7c0.5,0.1,1.3,0.2,2.3,0.2c0.3,0,0.6,0,0.9,0l0-1.4c-0.3,0-0.4,0-0.7,0
			c-0.7,0-1.5,0-2.4-0.1c-0.1,0-0.1,0-0.2,0c0,0-0.1,0-0.1,0l0-0.7c0.4,0.1,1.5,0.2,2.6,0.2c0.2,0,0.5,0,0.9,0c0-1.2,0-1.2,0-1.4
			h0.8c0,0.2-0.1,0.7-0.1,1.4c1.4-0.1,2.4-0.2,3-0.4l0,0.7c-0.2,0-0.2,0-0.7,0.1c-0.9,0.1-1.2,0.2-2.3,0.2c0,0.8,0,0.8,0,1.3
			c1.4-0.1,2.2-0.2,2.8-0.4l0,0.7c-0.1,0-0.2,0-0.6,0.1c-0.7,0.1-1.5,0.2-2.2,0.2c0,0.6,0,0.6,0.1,1.5c0.9,0.2,1.7,0.7,2.8,1.5
			c0.2,0.1,0.2,0.1,0.3,0.2L76.2,61.4z M72.8,59.5c-0.4-0.1-0.6-0.1-1-0.1c-1,0-1.6,0.4-1.6,0.9c0,0.5,0.5,0.8,1.4,0.8
			c0.5,0,0.9-0.1,1.1-0.3c0.1-0.1,0.2-0.4,0.2-0.9L72.8,59.5z"/>
		<path class="st7" d="M82.8,54c0-0.3,0-0.4,0-0.6h0.8c0,0.3,0,0.5,0,1.2v0.1c1.9,0,2.7,0,3-0.1v0.7c-0.4,0-0.7-0.1-1.9-0.1
			c-0.2,0-0.3,0-1.1,0v2c0.2,0.4,0.2,0.7,0.2,1.2c0,1-0.5,2-1.3,2.6c-0.4,0.3-0.8,0.5-1.6,0.8c-0.2-0.3-0.2-0.4-0.4-0.6
			c0.8-0.2,1.2-0.4,1.6-0.7c0.7-0.5,1.1-1.2,1.1-2.1C83,58.7,83,58.9,82.9,59c-0.3,0.4-0.7,0.5-1.3,0.5c-1,0-1.6-0.7-1.6-1.6
			c0-0.9,0.7-1.6,1.8-1.6c0.5,0,0.9,0.2,1.2,0.4c0-0.1,0-0.2,0-0.5c0,0,0-0.1,0-0.3c0-0.1,0-0.1,0-0.5c-2,0-4,0.1-4.7,0.2l0-0.7
			c0.2,0,0.2,0,0.4,0c0.3,0,0.3,0,1.9-0.1c1,0,1.7-0.1,2.4-0.1L82.8,54z M82.4,57c-0.2-0.1-0.4-0.2-0.7-0.2c-0.6,0-1.1,0.5-1.1,1
			c0,0.6,0.4,1,1,1c0.7,0,1.2-0.5,1.2-1.2C82.8,57.4,82.7,57.2,82.4,57z"/>
		<path class="st7" d="M90.9,60.6c0,0.8-0.7,1.5-1.5,1.5c-0.8,0-1.5-0.7-1.5-1.5c0-0.8,0.7-1.5,1.5-1.5
			C90.2,59.1,90.9,59.8,90.9,60.6z M88.5,60.6c0,0.5,0.4,0.9,0.9,0.9s0.9-0.4,0.9-0.9s-0.4-0.9-0.9-0.9S88.5,60.1,88.5,60.6z"/>
	</g>
</g>
<polygon class="st6" points="98.8,58 118.8,60 106.8,46 "/>
<g>
	<path class="st8" d="M111,157.9c0,3.3-23.7,5.9-52.9,5.9c-29.2,0-52.9-2.7-52.9-5.9c0-3.3,23.7-5.9,52.9-5.9
		C87.3,151.9,111,154.6,111,157.9z"/>
	<g>
		<linearGradient id="SVGID_1_" gradientUnits="userSpaceOnUse" x1="100.6353" y1="133.1861" x2="15.5756" y2="133.1861">
			<stop  offset="0" style="stop-color:#E2E8EB"/>
			<stop  offset="0.2308" style="stop-color:#E4EAEC"/>
			<stop  offset="0.3272" style="stop-color:#EBEFF1"/>
			<stop  offset="0.3983" style="stop-color:#F7F9FA"/>
			<stop  offset="0.427" style="stop-color:#FFFFFF"/>
			<stop  offset="0.7978" style="stop-color:#8E969B"/>
		</linearGradient>
		<path class="st9" d="M100.6,141.4C89.9,131.2,74.5,125,58.1,125c-16.3,0-31.8,6.2-42.5,16.4c11.8-0.8,26.8-1.2,42.5-1.2
			C73.8,140.2,88.9,140.6,100.6,141.4z"/>
		<g>
			<path class="st10" d="M72,131c1.4,0.1,2.8,0.3,4.1,0.5c-0.7-0.4-1.4-0.8-2.1-1.2C73.3,130.5,72.7,130.8,72,131z"/>
			<path class="st10" d="M71.4,131.1C71.4,131.1,71.3,131.1,71.4,131.1C71.3,131.1,71.3,131.1,71.4,131.1
				C71.4,131.1,71.4,131.1,71.4,131.1z"/>
			<path class="st10" d="M68.9,129c-0.3,0.1-0.7,0.2-1,0.3c1.1,0.5,2.1,1,3.1,1.5c0.2,0,0.5,0,0.7,0.1c0.7-0.3,1.4-0.5,2.2-0.8
				c-0.6-0.3-1.3-0.6-2-0.9C70.9,129.2,69.9,129.1,68.9,129z"/>
			<path class="st10" d="M72.3,129.3c0.6,0.3,1.2,0.5,1.7,0.8c0.5-0.2,1-0.3,1.6-0.5C74.5,129.6,73.4,129.4,72.3,129.3z"/>
			<path class="st10" d="M71.7,131.1c-0.1,0-0.1,0.1-0.2,0.1c1.2,0.7,2.3,1.4,3.3,2.2c0.8-0.4,1.7-0.8,2.6-1.1
				c-0.3-0.2-0.6-0.4-1-0.6C74.9,131.5,73.3,131.3,71.7,131.1z"/>
			<path class="st10" d="M65.8,127.1c0.1,0,0.2,0,0.3,0c-0.1,0-0.1,0-0.2-0.1C65.9,127,65.8,127.1,65.8,127.1z"/>
			<path class="st10" d="M63.8,127.7c0.9,0.3,1.8,0.7,2.7,1c0.8,0,1.7,0.1,2.5,0.2c0.4-0.1,0.8-0.3,1.2-0.4
				c-1.1-0.4-2.2-0.9-3.4-1.2c-0.4,0-0.9,0-1.3-0.1C64.8,127.4,64.3,127.5,63.8,127.7z"/>
			<path class="st10" d="M77.6,132.2c0.3-0.1,0.5-0.2,0.8-0.3c-0.5-0.1-1.1-0.2-1.6-0.2C77,131.9,77.3,132.1,77.6,132.2z"/>
			<path class="st10" d="M77.7,132.3c0.8,0.6,1.6,1.1,2.3,1.7c0.9-0.5,1.9-0.9,2.9-1.3c-1.3-0.3-2.7-0.5-4.2-0.7
				C78.4,132.1,78,132.2,77.7,132.3z"/>
			<path class="st10" d="M79,131.9c1.3,0.2,2.5,0.4,3.7,0.7c-0.6-0.4-1.2-0.8-1.9-1.2C80.2,131.5,79.6,131.7,79,131.9z"/>
			<path class="st10" d="M39.2,129.7c0.4-0.1,0.9-0.1,1.3-0.2c-0.2-0.1-0.4-0.1-0.6-0.2C39.7,129.5,39.5,129.6,39.2,129.7z"/>
			<path class="st10" d="M48.4,128.9c0.3,0.1,0.5,0.2,0.8,0.3c0.3-0.1,0.7-0.3,1.1-0.4C49.7,128.9,49,128.9,48.4,128.9z"/>
			<path class="st10" d="M61,128.7c-1,0.4-2.1,0.9-3,1.4c0.1,0.1,0.3,0.2,0.4,0.2c2.1,0,4.2,0.1,6.3,0.1
				C63.6,129.9,62.3,129.3,61,128.7z"/>
			<path class="st10" d="M55.3,128.9c-0.1-0.1-0.3-0.1-0.4-0.2c-1.4,0-2.8,0.1-4.1,0.1c-0.5,0.2-0.9,0.3-1.3,0.5
				c0.8,0.3,1.6,0.7,2.4,1.1C52.9,129.9,54,129.3,55.3,128.9z"/>
			<path class="st10" d="M45.4,131.2c0.9,0.4,1.8,0.9,2.7,1.4c1-0.7,2.1-1.3,3.3-1.9c-1.9,0.1-3.8,0.2-5.6,0.4
				C45.6,131.1,45.5,131.1,45.4,131.2z"/>
			<path class="st10" d="M51.6,130.5c-0.8-0.4-1.6-0.7-2.4-1.1c-1.1,0.5-2.2,0.9-3.2,1.4C47.9,130.7,49.7,130.6,51.6,130.5
				C51.6,130.5,51.6,130.5,51.6,130.5z"/>
			<path class="st10" d="M57.7,130.1c-0.7-0.4-1.5-0.8-2.3-1.2c-1.2,0.5-2.4,1-3.5,1.5c1.7-0.1,3.5-0.1,5.3-0.1
				C57.4,130.3,57.6,130.2,57.7,130.1z"/>
			<path class="st10" d="M64.5,130.6c-1.9-0.1-3.8-0.1-5.8-0.1c0.9,0.6,1.8,1.2,2.6,1.8C62.3,131.7,63.4,131.2,64.5,130.6z"/>
			<path class="st10" d="M57,130.5c-1.6,0-3.2,0-4.8,0.1c0.8,0.4,1.6,0.9,2.4,1.4C55.3,131.5,56.1,131,57,130.5z"/>
			<path class="st10" d="M74.6,133.5c-1-0.8-2.1-1.5-3.3-2.2c-1.1,0.4-2.1,0.9-3,1.4c0.3,0.2,0.5,0.4,0.7,0.6
				c1.8,0.1,3.5,0.3,5.2,0.4C74.4,133.6,74.5,133.5,74.6,133.5z"/>
			<path class="st10" d="M68.1,132.6c-0.9-0.7-2-1.3-3.1-2c-0.1,0-0.2,0-0.2,0c-1.2,0.5-2.3,1.1-3.3,1.7c0.2,0.2,0.4,0.3,0.6,0.5
				c1.7,0,3.5,0.1,5.1,0.2C67.5,132.9,67.8,132.8,68.1,132.6z"/>
			<path class="st10" d="M64.3,135.1c0.8-0.6,1.7-1.3,2.7-1.8c-1.5-0.1-3.1-0.1-4.7-0.2C63,133.7,63.7,134.4,64.3,135.1z"/>
			<path class="st10" d="M77.3,135.8c0.6-0.5,1.3-1,2-1.4c-1.3-0.2-2.6-0.4-4-0.5C76.1,134.5,76.8,135.1,77.3,135.8z"/>
			<path class="st10" d="M83,132.6C83,132.6,83.1,132.6,83,132.6c1.1-0.4,2.2-0.7,3.3-1c-1.1-0.3-2.3-0.5-3.5-0.8
				c-0.6,0.1-1.2,0.3-1.8,0.4C81.7,131.7,82.4,132.2,83,132.6z"/>
			<path class="st10" d="M79.8,134.1c-0.7-0.6-1.5-1.2-2.3-1.7c-0.9,0.3-1.8,0.7-2.7,1.1c0.1,0.1,0.2,0.2,0.3,0.2
				c1.5,0.2,3,0.3,4.4,0.6C79.6,134.2,79.7,134.2,79.8,134.1z"/>
			<path class="st10" d="M39.6,131.5c0.9-0.5,1.8-1,2.7-1.4c-0.5-0.2-1-0.3-1.4-0.5c-0.7,0.1-1.4,0.2-2.1,0.3
				c-0.9,0.4-1.7,0.8-2.5,1.3c0.6,0.2,1.1,0.4,1.6,0.6C38.5,131.7,39,131.6,39.6,131.5z"/>
			<path class="st10" d="M89.9,133.9c-0.2,0.1-0.3,0.2-0.5,0.3c0.5,0.2,1,0.3,1.4,0.5C90.5,134.5,90.2,134.2,89.9,133.9z"/>
			<path class="st10" d="M61.2,132.4c-0.9-0.7-1.8-1.3-2.8-1.9c-0.1,0-0.2,0-0.3,0c-0.3,0-0.6,0-0.8,0c-0.9,0.5-1.8,1-2.6,1.6
				c0.4,0.3,0.8,0.5,1.2,0.8c0.7,0,1.5,0,2.2,0c0.8,0,1.6,0,2.3,0C60.7,132.7,61,132.6,61.2,132.4z"/>
			<path class="st10" d="M54.5,128.5c-0.4-0.2-0.9-0.4-1.3-0.6c-0.7,0.2-1.3,0.4-2,0.7C52.3,128.6,53.4,128.6,54.5,128.5z"/>
			<path class="st10" d="M41.6,133.7c0,0-0.1,0-0.1-0.1c0,0-0.1,0.1-0.1,0.1C41.4,133.7,41.5,133.7,41.6,133.7z"/>
			<path class="st10" d="M56.1,133c0.7,0.5,1.4,1.1,2,1.7c0.7-0.6,1.4-1.1,2.2-1.7c-0.7,0-1.4,0-2.1,0C57.4,133,56.7,133,56.1,133z"
				/>
			<path class="st10" d="M34.4,130.7c0.6,0.2,1.1,0.3,1.6,0.5c0.7-0.4,1.5-0.8,2.2-1.1C37,130.2,35.7,130.4,34.4,130.7z"/>
			<path class="st10" d="M44.8,131.1c-1.8,0.2-3.5,0.4-5.1,0.6c-0.3,0.2-0.6,0.3-0.8,0.5c0.7,0.3,1.4,0.6,2.1,1
				c0.2,0.1,0.4,0.2,0.6,0.3c1.1-0.8,2.3-1.5,3.6-2.2C45,131.2,44.9,131.1,44.8,131.1z"/>
			<path class="st10" d="M37.6,131.8c-0.5-0.2-1-0.4-1.5-0.5c-0.7,0.4-1.3,0.7-1.9,1.1C35.3,132.2,36.4,132,37.6,131.8z"/>
			<path class="st10" d="M54.4,132.1c-0.8-0.5-1.6-1-2.5-1.4c-0.1,0-0.2,0-0.3,0c-1.2,0.6-2.4,1.3-3.5,2c0.2,0.1,0.5,0.3,0.7,0.4
				c1.4-0.1,2.9-0.1,4.4-0.2C53.6,132.6,54,132.4,54.4,132.1z"/>
			<path class="st10" d="M53.1,133.1c-1.3,0-2.7,0.1-4,0.2c0.7,0.5,1.4,1,2.1,1.5C51.7,134.2,52.4,133.6,53.1,133.1z"/>
			<path class="st10" d="M47.9,132.7c-0.8-0.5-1.8-1-2.7-1.4c-1.3,0.7-2.5,1.5-3.6,2.2c0.1,0,0.2,0.1,0.2,0.1
				c1.7-0.2,3.5-0.3,5.3-0.4C47.4,133,47.7,132.9,47.9,132.7z"/>
			<path class="st10" d="M47,133.4c-1.7,0.1-3.3,0.2-4.9,0.4c0.9,0.5,1.7,1.1,2.5,1.7C45.3,134.8,46.1,134.1,47,133.4z"/>
			<path class="st10" d="M71.4,135.4c0.8-0.6,1.7-1.1,2.6-1.6c-1.5-0.2-3.1-0.3-4.8-0.4C70.1,134,70.8,134.7,71.4,135.4z"/>
			<path class="st10" d="M20.7,137.1c0.2,0.4,0.4,0.9,0.5,1.3c1.2-0.6,2.6-1.2,4.3-1.7c0,0,0,0,0.1-0.1c-0.4-0.5-0.8-0.9-1.2-1.4
				C23,135.9,21.7,136.5,20.7,137.1z"/>
			<path class="st10" d="M30.3,135.4c0.7-0.1,1.4-0.3,2.1-0.4c-0.3-0.2-0.6-0.4-0.9-0.6C31.1,134.7,30.7,135.1,30.3,135.4z"/>
			<path class="st10" d="M27.2,139.2c0.6-1.2,1.5-2.4,2.6-3.5c-1.4,0.3-2.8,0.7-4,1.1C26.4,137.5,26.9,138.3,27.2,139.2z"/>
			<path class="st10" d="M28.5,133.9c-1.4,0.4-2.8,0.8-3.9,1.3c0.4,0.4,0.8,0.9,1.1,1.3C26.5,135.6,27.5,134.7,28.5,133.9z"/>
			<path class="st10" d="M38.5,132.2c-0.2-0.1-0.4-0.2-0.7-0.3c-1.4,0.2-2.7,0.4-4,0.7c-0.8,0.5-1.6,1.1-2.3,1.7
				c0.3,0.2,0.7,0.4,1,0.7c0.9-0.2,1.8-0.3,2.8-0.5C36.3,133.7,37.3,132.9,38.5,132.2z"/>
			<path class="st10" d="M30,133.5c-0.4,0.1-0.7,0.2-1.1,0.3c-1.2,0.9-2.2,1.8-3,2.8c1.3-0.4,2.7-0.8,4.2-1.1
				c0.4-0.4,0.8-0.8,1.3-1.2C30.9,134,30.5,133.8,30,133.5z"/>
			<path class="st10" d="M41.8,133.8c-0.2,0-0.5,0-0.7,0.1c-1.4,1.1-2.6,2.2-3.5,3.3c1.9-0.4,4-0.8,6.3-1.1c0.1-0.2,0.3-0.3,0.5-0.5
				C43.7,135,42.8,134.4,41.8,133.8z"/>
			<path class="st10" d="M40.9,133.9c-1.9,0.2-3.7,0.5-5.5,0.7c-0.6,0.5-1.1,1-1.5,1.4c0.6,0.6,1.1,1.1,1.5,1.7
				c0.6-0.2,1.3-0.4,2-0.5C38.3,136.1,39.5,135,40.9,133.9z"/>
			<path class="st10" d="M36.2,139.1c0.3-0.6,0.7-1.1,1.1-1.7c-0.6,0.2-1.2,0.3-1.8,0.5C35.7,138.3,36,138.7,36.2,139.1z"/>
			<path class="st10" d="M35.1,134.7c-0.8,0.1-1.6,0.3-2.4,0.4c0.4,0.3,0.7,0.6,1,0.9C34.2,135.5,34.6,135.1,35.1,134.7z"/>
			<path class="st10" d="M33.8,136.2c-1,1-1.7,2.1-2.3,3.2c1-0.5,2.3-1.1,3.8-1.5C34.8,137.3,34.3,136.7,33.8,136.2z"/>
			<path class="st10" d="M33.8,132.5c0.7-0.4,1.3-0.8,2.1-1.3c-0.6-0.2-1.2-0.4-1.8-0.5c-0.2,0-0.3,0.1-0.5,0.1
				c-1.4,0.8-2.7,1.5-3.9,2.4c0.1,0.1,0.2,0.1,0.3,0.2C31.2,133.1,32.5,132.8,33.8,132.5z"/>
			<path class="st10" d="M42.3,127.2c-0.8,0.2-1.5,0.5-2.2,0.8c1.2-0.2,2.4-0.3,3.6-0.4C43.2,127.5,42.8,127.3,42.3,127.2z"/>
			<path class="st10" d="M40.9,129.5c1.2-0.2,2.5-0.3,3.8-0.4c0.6-0.2,1.2-0.5,1.8-0.7c-0.7-0.2-1.4-0.5-2.2-0.7
				c-1.4,0.5-2.8,1-4.1,1.5C40.5,129.4,40.7,129.4,40.9,129.5z"/>
			<path class="st10" d="M50,127.2c-1.8,0.1-3.6,0.2-5.4,0.4c0,0-0.1,0-0.1,0c0.7,0.2,1.5,0.4,2.2,0.7
				C47.8,127.9,48.8,127.6,50,127.2z"/>
			<path class="st10" d="M50.7,127c-0.6-0.2-1.3-0.4-2-0.6c-1.2,0.3-2.3,0.7-3.4,1C47,127.3,48.8,127.2,50.7,127
				C50.6,127.1,50.6,127,50.7,127z"/>
			<path class="st10" d="M53.6,126.3c-0.7-0.2-1.4-0.4-2.2-0.5c-0.8,0.2-1.7,0.4-2.5,0.6c0.7,0.2,1.3,0.4,2,0.6
				C51.8,126.7,52.7,126.5,53.6,126.3z"/>
			<path class="st10" d="M33.5,132.7c-1.2,0.2-2.3,0.5-3.3,0.8c0.4,0.2,0.9,0.5,1.3,0.8C32.1,133.7,32.8,133.2,33.5,132.7z"/>
			<path class="st10" d="M44.2,136.1c0.2,0,0.5-0.1,0.7-0.1c-0.1-0.1-0.2-0.2-0.4-0.3C44.4,135.8,44.3,135.9,44.2,136.1z"/>
			<path class="st10" d="M29.6,133.3c-0.1,0.1-0.3,0.2-0.4,0.3c0.2-0.1,0.4-0.1,0.7-0.2C29.7,133.4,29.6,133.3,29.6,133.3z"/>
			<path class="st10" d="M40,129.2c1.3-0.5,2.6-1.1,4-1.5c-1.6,0.2-3.1,0.3-4.6,0.5c-0.4,0.2-0.9,0.3-1.3,0.5
				C38.8,128.9,39.4,129,40,129.2z"/>
			<path class="st10" d="M38.7,129.8c0.3-0.2,0.7-0.3,1.1-0.5c-0.6-0.2-1.3-0.3-1.9-0.5c-1.3,0.5-2.6,1.1-3.8,1.7c0,0,0,0,0,0
				C35.6,130.3,37.1,130,38.7,129.8z"/>
			<path class="st10" d="M38.8,128.3c-0.5,0.1-1,0.1-1.5,0.2c0.2,0,0.4,0.1,0.6,0.1C38.2,128.5,38.5,128.4,38.8,128.3z"/>
			<path class="st10" d="M50.7,135.5c0.3,0,0.6,0,1-0.1c-0.2-0.1-0.3-0.3-0.5-0.4C51,135.1,50.8,135.3,50.7,135.5z"/>
			<path class="st10" d="M84.5,140.5c0.1-0.3,0.2-0.6,0.3-0.9c-0.3-0.2-0.5-0.3-0.9-0.5C84.2,139.6,84.4,140,84.5,140.5z"/>
			<path class="st10" d="M80.3,134.6c-0.2,0-0.5-0.1-0.7-0.1c-0.8,0.5-1.5,0.9-2.1,1.5c0.4,0.4,0.7,0.9,1,1.3c2.1,0.5,3.9,1,5.2,1.7
				C83,137.4,81.8,135.9,80.3,134.6z"/>
			<path class="st10" d="M76.4,136.8c0.6,0.1,1.2,0.2,1.8,0.4c-0.3-0.4-0.6-0.8-0.9-1.2C77,136.2,76.7,136.5,76.4,136.8z"/>
			<path class="st10" d="M80.6,134.6c1.5,1.4,2.6,2.8,3.3,4.4c0.4,0.2,0.7,0.3,1,0.5c0.5-1.1,1.2-2.1,2-3.1
				c-0.2-0.2-0.4-0.5-0.6-0.7C84.5,135.3,82.6,134.9,80.6,134.6z"/>
			<path class="st10" d="M75.1,133.9c-0.3,0-0.5-0.1-0.8-0.1c-1,0.5-2,1.1-2.8,1.7c0.2,0.2,0.3,0.4,0.5,0.6c1.5,0.2,2.9,0.4,4.2,0.7
				c0.3-0.3,0.6-0.6,1-0.9C76.6,135.2,75.9,134.5,75.1,133.9z"/>
			<path class="st10" d="M83.3,132.8c1.2,0.9,2.2,1.8,3.1,2.7c0.4,0.1,0.7,0.2,1.1,0.2c0.5-0.5,1.1-1,1.7-1.5
				C87.4,133.8,85.4,133.3,83.3,132.8z"/>
			<path class="st10" d="M47.9,139.4c0.6-1.3,1.4-2.6,2.5-3.8c-1.8,0.1-3.5,0.3-5.1,0.5C46.4,137.1,47.3,138.2,47.9,139.4z"/>
			<path class="st10" d="M93.3,137.4c0.2-0.4,0.4-0.8,0.7-1.2c-0.8-0.4-1.6-0.8-2.6-1.1C92.1,135.9,92.8,136.6,93.3,137.4z"/>
			<path class="st10" d="M89.3,134.4c-0.6,0.5-1.2,0.9-1.7,1.5c2.2,0.5,4,1.1,5.6,1.8c0,0,0,0,0-0.1c-0.6-0.9-1.3-1.7-2.2-2.6
				C90.5,134.8,89.9,134.6,89.3,134.4z"/>
			<path class="st10" d="M74.1,139.5c0.5-0.9,1.2-1.8,2.1-2.7c-1.3-0.2-2.6-0.4-4-0.6C73,137.3,73.6,138.4,74.1,139.5z"/>
			<path class="st10" d="M87,136.3c0.1-0.1,0.2-0.2,0.3-0.4c-0.3-0.1-0.5-0.1-0.8-0.2C86.7,135.9,86.8,136.1,87,136.3z"/>
			<path class="st10" d="M70.9,135.9c0.3,0,0.6,0.1,0.9,0.1c-0.1-0.2-0.3-0.3-0.4-0.5C71.2,135.7,71.1,135.8,70.9,135.9z"/>
			<path class="st10" d="M54.6,138.9c0.7-1.2,1.6-2.4,2.7-3.5c-1.8,0-3.6,0.1-5.3,0.1C53.1,136.6,54,137.7,54.6,138.9z"/>
			<path class="st10" d="M55.8,133c-0.9,0-1.7,0-2.5,0.1c-0.7,0.6-1.4,1.2-2,1.8c0.2,0.2,0.4,0.4,0.6,0.5c1.8-0.1,3.7-0.1,5.6-0.2
				c0.2-0.2,0.3-0.3,0.5-0.5C57.3,134.2,56.6,133.6,55.8,133z"/>
			<path class="st10" d="M48.9,133.3c-0.5,0-1.1,0.1-1.6,0.1c-1,0.7-1.8,1.5-2.6,2.2c0.2,0.1,0.3,0.2,0.4,0.4
				c1.7-0.2,3.5-0.4,5.4-0.5c0.2-0.2,0.4-0.4,0.6-0.6C50.4,134.3,49.6,133.8,48.9,133.3z"/>
			<path class="st10" d="M56.1,125.7c-0.8-0.2-1.5-0.3-2.3-0.5c-0.7,0.1-1.3,0.3-2,0.4c0.7,0.2,1.4,0.3,2.1,0.5
				C54.6,126,55.3,125.9,56.1,125.7z"/>
			<path class="st10" d="M57.7,135.2c0.1,0,0.3,0,0.4,0c0.1,0,0.2,0,0.3,0c-0.1-0.1-0.2-0.2-0.4-0.4C57.9,135,57.8,135.1,57.7,135.2
				z"/>
			<path class="st10" d="M67.2,139.9c0.7-1.4,1.9-2.7,3.4-3.9c-1.8-0.2-3.8-0.4-5.8-0.5C65.9,136.9,66.7,138.4,67.2,139.9z"/>
			<path class="st10" d="M69.1,133.4c-0.6,0-1.2-0.1-1.8-0.1c-1,0.6-2,1.2-2.8,1.9c0.1,0.1,0.1,0.2,0.2,0.2c2.1,0.1,4.2,0.3,6.1,0.5
				c0.2-0.1,0.4-0.3,0.6-0.4C70.6,134.7,69.9,134,69.1,133.4z"/>
			<path class="st10" d="M64.2,135.4c0.1,0,0.2,0,0.2,0c0,0-0.1-0.1-0.1-0.1C64.3,135.3,64.2,135.3,64.2,135.4z"/>
			<path class="st10" d="M62,133.1c-0.5,0-1,0-1.6,0c-0.8,0.6-1.6,1.1-2.3,1.8c0.2,0.1,0.3,0.3,0.4,0.4c1.8,0,3.6,0.1,5.4,0.1
				c0.1-0.1,0.2-0.1,0.3-0.2C63.6,134.4,62.8,133.7,62,133.1z"/>
			<path class="st10" d="M61.1,138.6c0.7-1.1,1.6-2.1,2.7-3.1c-1.6-0.1-3.3-0.1-5-0.1C59.7,136.4,60.5,137.5,61.1,138.6z"/>
			<path class="st10" d="M67.6,129.4c-0.4-0.2-0.7-0.3-1.1-0.5c-1.7-0.1-3.4-0.2-5.2-0.2c1.3,0.6,2.5,1.1,3.6,1.8
				C65.7,130.1,66.6,129.7,67.6,129.4z"/>
			<path class="st10" d="M61.3,132.5c-0.2,0.1-0.4,0.3-0.6,0.4c0.4,0,0.8,0,1.2,0C61.7,132.8,61.5,132.6,61.3,132.5z"/>
			<path class="st10" d="M39.3,131.7c-0.4,0.1-0.8,0.1-1.2,0.2c0.2,0.1,0.4,0.1,0.5,0.2C38.9,132,39.1,131.9,39.3,131.7z"/>
			<path class="st10" d="M54.6,132.2c-0.4,0.3-0.7,0.5-1.1,0.8c0.7,0,1.4,0,2.1,0C55.3,132.6,54.9,132.4,54.6,132.2z"/>
			<path class="st10" d="M78.2,129.9c-0.3-0.2-0.7-0.3-1-0.5c-0.3,0.1-0.6,0.1-0.9,0.2C77,129.7,77.6,129.8,78.2,129.9z"/>
			<path class="st10" d="M48.1,132.8c-0.2,0.1-0.4,0.3-0.6,0.4c0.4,0,0.8,0,1.2-0.1C48.5,133,48.3,132.9,48.1,132.8z"/>
			<path class="st10" d="M41.1,133.7c0.1-0.1,0.2-0.1,0.3-0.2c-0.2-0.1-0.3-0.2-0.5-0.3c-0.7-0.4-1.4-0.7-2.2-1
				c-1.1,0.7-2.2,1.4-3.1,2.2C37.3,134.2,39.2,133.9,41.1,133.7z"/>
			<path class="st10" d="M68.2,132.7c-0.2,0.1-0.5,0.3-0.7,0.4c0.5,0,0.9,0.1,1.4,0.1C68.6,133,68.4,132.9,68.2,132.7z"/>
			<path class="st10" d="M71.2,131.2c-0.1,0-0.1-0.1-0.2-0.1c-1.8-0.2-3.7-0.3-5.6-0.4c1,0.6,2,1.2,2.9,1.9
				C69.2,132.1,70.1,131.6,71.2,131.2z"/>
			<path class="st10" d="M74.2,130.2c0.8,0.4,1.5,0.8,2.3,1.3c0.7,0.1,1.5,0.2,2.2,0.3c0.6-0.2,1.3-0.4,2-0.6
				c-0.7-0.4-1.3-0.8-2.1-1.1c-0.9-0.1-1.7-0.3-2.6-0.4C75.4,129.9,74.8,130.1,74.2,130.2z"/>
			<path class="st10" d="M86.1,135.5c-0.9-0.9-1.9-1.8-3.1-2.7c-1,0.4-2,0.8-2.9,1.3c0.1,0.1,0.2,0.2,0.3,0.3
				C82.4,134.7,84.4,135.1,86.1,135.5z"/>
			<path class="st10" d="M82.5,130.8c-1.1-0.2-2.3-0.4-3.4-0.6c0.6,0.3,1.2,0.7,1.8,1C81.4,131,81.9,130.9,82.5,130.8z"/>
			<path class="st10" d="M80,134.2c-0.1,0-0.1,0.1-0.2,0.1c0.1,0,0.2,0,0.4,0.1C80.1,134.3,80,134.3,80,134.2z"/>
			<path class="st10" d="M74.8,133.6c-0.1,0-0.1,0.1-0.2,0.1c0.1,0,0.2,0,0.4,0C74.9,133.7,74.8,133.6,74.8,133.6z"/>
			<path class="st10" d="M51.2,127c1.5-0.1,3.1-0.1,4.6-0.1c-0.6-0.2-1.3-0.4-2-0.6C53,126.6,52.1,126.8,51.2,127z"/>
			<path class="st10" d="M53.4,127.9c0.5,0.2,1,0.4,1.5,0.6c0.4,0,0.9,0,1.3,0c0.7-0.3,1.5-0.5,2.2-0.8c-0.7-0.2-1.3-0.5-2-0.7
				C55.4,127.3,54.4,127.6,53.4,127.9z"/>
			<path class="st10" d="M50.6,127.2c-1.3,0.4-2.5,0.8-3.7,1.2c0.4,0.1,0.8,0.3,1.2,0.4c0.9-0.1,1.7-0.1,2.6-0.2
				c0.7-0.3,1.5-0.5,2.3-0.8c-0.6-0.2-1.2-0.5-1.9-0.7C50.9,127.2,50.8,127.2,50.6,127.2z"/>
			<path class="st10" d="M58.6,127.7c0.7-0.2,1.3-0.4,2-0.6c-0.8,0-1.7,0-2.5,0c-0.4,0-0.9,0-1.3,0C57.4,127.2,58,127.4,58.6,127.7z
				"/>
			<path class="st10" d="M60.8,126.9c-0.6-0.2-1.2-0.3-1.8-0.5c-0.7,0.1-1.3,0.3-2,0.5c0.4,0,0.7,0,1.1,0
				C59,126.9,59.9,126.9,60.8,126.9z"/>
			<path class="st10" d="M67.7,129.4c-0.9,0.3-1.8,0.7-2.7,1.1c1.9,0.1,3.8,0.2,5.6,0.4C69.7,130.4,68.8,129.9,67.7,129.4z"/>
			<path class="st10" d="M40,131.5c1.5-0.2,3-0.4,4.5-0.5c-0.6-0.3-1.3-0.5-2-0.8C41.6,130.6,40.8,131,40,131.5z"/>
			<path class="st10" d="M45.2,129c0.8-0.1,1.7-0.1,2.5-0.2c-0.3-0.1-0.7-0.2-1-0.4C46.2,128.7,45.7,128.9,45.2,129z"/>
			<path class="st10" d="M42.5,130c0.6-0.3,1.1-0.5,1.7-0.8c-1,0.1-2,0.2-3,0.3C41.7,129.7,42.1,129.9,42.5,130z"/>
			<path class="st10" d="M45.3,131.1c-0.1,0-0.2,0-0.3,0c0,0,0.1,0,0.1,0.1C45.3,131.1,45.3,131.1,45.3,131.1z"/>
			<path class="st10" d="M42.7,130.1c0.7,0.3,1.4,0.5,2.1,0.8c0.3,0,0.6-0.1,0.9-0.1c1-0.5,2.2-1.1,3.3-1.5
				c-0.3-0.1-0.6-0.2-0.9-0.4c-1.1,0.1-2.2,0.2-3.3,0.3C44,129.5,43.4,129.8,42.7,130.1z"/>
			<path class="st10" d="M68.5,126.2c-0.5-0.1-1-0.3-1.5-0.4c-1,0.2-1.9,0.4-2.8,0.6c0.6,0.2,1.2,0.4,1.8,0.5
				C66.8,126.6,67.6,126.4,68.5,126.2z"/>
			<path class="st10" d="M55.4,128.8c0.1,0,0.2-0.1,0.3-0.1c-0.2,0-0.4,0-0.6,0C55.3,128.7,55.4,128.7,55.4,128.8z"/>
			<path class="st10" d="M68.6,129c-0.6,0-1.1-0.1-1.7-0.1c0.3,0.1,0.6,0.3,0.9,0.4C68,129.2,68.3,129.1,68.6,129z"/>
			<path class="st10" d="M60.5,128.5c-0.6-0.2-1.2-0.5-1.8-0.7c-0.7,0.2-1.4,0.5-2,0.7c0.5,0,1,0,1.5,0
				C58.9,128.5,59.7,128.5,60.5,128.5z"/>
			<path class="st10" d="M65.3,127c0.1,0,0.2-0.1,0.3-0.1c-0.6-0.2-1.2-0.4-1.9-0.5c-0.7,0.2-1.4,0.3-2.1,0.5
				C62.9,126.9,64.1,127,65.3,127z"/>
			<path class="st10" d="M61.4,125.8c-0.7-0.2-1.5-0.3-2.2-0.5c-0.8,0.1-1.6,0.3-2.4,0.4c0.8,0.2,1.5,0.4,2.2,0.5
				C59.8,126.1,60.6,125.9,61.4,125.8z"/>
			<path class="st10" d="M51.5,127.2c0.6,0.2,1.2,0.4,1.7,0.6c0.8-0.3,1.7-0.5,2.6-0.8C54.4,127.1,52.9,127.1,51.5,127.2z"/>
			<path class="st10" d="M61.2,126.9c0.7-0.2,1.5-0.4,2.3-0.6c-0.6-0.2-1.2-0.3-1.8-0.5c-0.8,0.2-1.6,0.3-2.4,0.5
				C60,126.5,60.6,126.7,61.2,126.9z"/>
			<path class="st10" d="M58.2,130.4c-0.1-0.1-0.2-0.1-0.3-0.2c-0.1,0.1-0.2,0.1-0.3,0.2C57.7,130.4,57.9,130.4,58.2,130.4
				C58.1,130.4,58.1,130.4,58.2,130.4z"/>
			<path class="st10" d="M71.9,129.1c1.4,0.1,2.7,0.3,4.1,0.5c0.3-0.1,0.7-0.2,1-0.3c-1.1-0.5-2.3-1-3.6-1.5c0,0-0.1,0-0.1,0
				c-1,0.2-1.9,0.5-2.8,0.7C71,128.7,71.5,128.9,71.9,129.1z"/>
			<path class="st10" d="M61.5,128.5c1.5,0,3,0.1,4.5,0.2c-0.8-0.3-1.6-0.6-2.5-0.9C62.9,128,62.2,128.3,61.5,128.5z"/>
			<path class="st10" d="M55.6,128.9c0.8,0.4,1.5,0.8,2.2,1.2c0.9-0.5,1.9-0.9,2.9-1.4c-0.9,0-1.8,0-2.7,0c-0.6,0-1.3,0-1.9,0
				C56,128.7,55.8,128.8,55.6,128.9z"/>
			<path class="st10" d="M70.3,128.4c0.8-0.2,1.7-0.5,2.6-0.7c-1.8-0.2-3.7-0.3-5.7-0.5C68.3,127.7,69.3,128,70.3,128.4z"/>
			<path class="st10" d="M69.3,128.9c0.7,0.1,1.5,0.1,2.2,0.2c-0.4-0.2-0.8-0.3-1.2-0.5C70,128.7,69.6,128.8,69.3,128.9z"/>
			<path class="st10" d="M56.3,126.9C56.4,126.9,56.4,126.9,56.3,126.9c0.8-0.2,1.6-0.4,2.3-0.6c-0.7-0.2-1.5-0.4-2.3-0.5
				c-0.7,0.2-1.5,0.3-2.2,0.5C54.9,126.5,55.6,126.7,56.3,126.9z"/>
			<path class="st10" d="M66.7,127.1c2.1,0.1,4.2,0.3,6.2,0.5c-1.3-0.5-2.6-0.9-4.1-1.3c-0.9,0.2-1.8,0.4-2.6,0.7
				C66.3,127,66.5,127.1,66.7,127.1z"/>
			<path class="st10" d="M63.5,127.6c0.5-0.2,0.9-0.3,1.4-0.5c-1,0-2-0.1-3.1-0.1C62.4,127.3,63,127.4,63.5,127.6z"/>
			<path class="st10" d="M61.2,127.1c-0.8,0.2-1.6,0.4-2.3,0.7c0.7,0.3,1.4,0.5,2,0.8c0.1,0,0.2,0,0.3,0c0.7-0.3,1.4-0.6,2.2-0.8
				c-0.7-0.2-1.3-0.4-2-0.6C61.3,127.1,61.2,127.1,61.2,127.1z"/>
			<linearGradient id="SVGID_2_" gradientUnits="userSpaceOnUse" x1="98.3747" y1="133.1095" x2="17.836" y2="133.1095">
				<stop  offset="0" style="stop-color:#8C8C8C"/>
				<stop  offset="7.436423e-02" style="stop-color:#939393"/>
				<stop  offset="0.1821" style="stop-color:#A6A6A6"/>
				<stop  offset="0.3096" style="stop-color:#C6C6C6"/>
				<stop  offset="0.3315" style="stop-color:#CCCCCC"/>
				<stop  offset="1" style="stop-color:#333333"/>
			</linearGradient>
			<path class="st11" d="M94.2,136.2C94.2,136.2,94.2,136.2,94.2,136.2c0-0.1,0-0.1-0.1-0.2c0,0,0,0.1-0.1,0.1
				c-0.8-0.4-1.8-0.9-2.9-1.2c-0.4-0.3-0.7-0.7-1.1-1c0.1-0.1,0.2-0.1,0.3-0.2c0,0-0.1-0.1-0.1-0.1c-0.1,0.1-0.2,0.1-0.3,0.2
				c-0.5-0.4-1.1-0.9-1.7-1.3c-0.3-0.2-0.7-0.4-1-0.5c1,0.6,1.8,1.3,2.6,1.9c-0.2,0.1-0.4,0.3-0.5,0.4c-1.8-0.6-3.7-1.1-5.9-1.5
				c1-0.4,2.1-0.7,3.3-1c0.1,0,0.3,0.1,0.4,0.1c-0.2-0.1-0.4-0.2-0.6-0.3c-1-0.3-2.2-0.5-3.3-0.8c0.4-0.1,0.8-0.2,1.2-0.2
				c-0.1,0-0.2-0.1-0.2-0.1c-0.4,0.1-0.9,0.2-1.3,0.3c-1.3-0.3-2.7-0.5-4.2-0.7c-0.4-0.2-0.8-0.4-1.2-0.6c0.9-0.2,1.8-0.4,2.7-0.5
				c-0.1,0-0.2-0.1-0.3-0.1c-0.9,0.2-1.7,0.3-2.6,0.5c-1-0.5-2.1-1-3.3-1.4c2,0.2,3.8,0.5,5.6,0.8c-0.3-0.1-0.5-0.2-0.8-0.3
				c-1.6-0.3-3.3-0.5-5.1-0.7c0.6-0.1,1.1-0.2,1.7-0.4c-0.1,0-0.2-0.1-0.3-0.1c-0.6,0.1-1.2,0.2-1.8,0.4c-1.4-0.5-2.8-1-4.3-1.4
				c0.3-0.1,0.5-0.1,0.8-0.2c-0.1,0-0.3,0-0.4-0.1c-0.2,0-0.5,0.1-0.7,0.1c-0.5-0.1-1-0.3-1.5-0.4c0.1,0,0.2,0,0.3,0
				c-0.2,0-0.3,0-0.5-0.1c0,0-0.1,0-0.1,0c-0.1,0-0.2-0.1-0.3-0.1c-0.4-0.1-0.8-0.1-1.2-0.1c0.4,0.1,0.8,0.2,1.2,0.3
				c-1,0.2-1.9,0.4-2.8,0.6c-0.6-0.2-1.2-0.3-1.7-0.5c0.9-0.2,1.9-0.3,2.8-0.5c-0.2,0-0.4,0-0.6-0.1c-0.9,0.1-1.8,0.3-2.6,0.4
				c-0.7-0.2-1.4-0.3-2.2-0.5c0.4-0.1,0.8-0.1,1.2-0.2c-0.3,0-0.5,0-0.8,0c-0.3,0-0.5,0.1-0.8,0.1c-0.2-0.1-0.5-0.1-0.7-0.1
				c-0.1,0-0.2,0-0.3,0c-0.1,0-0.3,0-0.4,0c0.4,0.1,0.7,0.1,1.1,0.2c-0.8,0.1-1.6,0.3-2.4,0.4c-0.7-0.2-1.5-0.3-2.3-0.5
				c0.2,0,0.4-0.1,0.6-0.1c-0.5,0-1,0.1-1.5,0.1c0,0,0.1,0,0.1,0c-0.7,0.1-1.3,0.3-1.9,0.4c-0.3-0.1-0.6-0.1-0.9-0.2
				c-0.2,0-0.3,0-0.5,0.1c0.3,0.1,0.7,0.1,1,0.2c-0.8,0.2-1.6,0.4-2.4,0.6c-0.5-0.1-0.9-0.3-1.4-0.4c-0.1,0-0.2,0-0.3,0.1
				c0.5,0.1,1,0.3,1.5,0.4c-1.3,0.4-2.6,0.7-3.8,1.1c-0.2,0-0.3,0-0.5,0c-0.5-0.1-1-0.3-1.5-0.4c1.2-0.4,2.5-0.8,3.8-1.1
				c-0.7,0.1-1.3,0.3-2,0.4c-0.7,0.2-1.4,0.4-2.1,0.6c-0.1,0-0.2,0-0.3-0.1c-0.1,0-0.2,0.1-0.3,0.1c0.1,0,0.2,0,0.3,0.1
				c-0.9,0.3-1.8,0.6-2.6,0.9c-0.7,0.1-1.4,0.2-2,0.3c-0.2,0.1-0.5,0.2-0.7,0.3c0.1,0,0.2,0,0.3,0c0.3,0.1,0.5,0.1,0.8,0.2
				c-1.3,0.6-2.6,1.1-3.8,1.7c-0.4-0.1-0.8-0.2-1.2-0.3c-0.1,0-0.2,0.1-0.2,0.1c0.4,0.1,0.9,0.2,1.3,0.3c0,0-0.1,0-0.1,0.1
				c-1.3,0.3-2.6,0.6-3.8,0.9c-0.2,0.1-0.4,0.2-0.6,0.3c1.2-0.3,2.6-0.7,4-0.9c-1.3,0.7-2.5,1.4-3.6,2.2c-0.5-0.2-1-0.5-1.5-0.7
				c-0.1,0-0.1,0.1-0.2,0.1c0.5,0.2,1,0.4,1.5,0.7c-0.2,0.2-0.4,0.3-0.6,0.5c-1.6,0.4-3,0.9-4.3,1.4c-0.1-0.1-0.3-0.2-0.4-0.4
				c0,0-0.1,0.1-0.1,0.1c0.1,0.1,0.3,0.2,0.4,0.3c-1.1,0.4-2.1,0.9-2.9,1.4c-0.8,0.6-1.7,1.2-2.4,1.9c-0.7,0.8-1.1,1.6-1.1,2.5H18
				c0-1.3,0.9-2.5,2.6-3.7c0.2,0.4,0.4,0.8,0.5,1.3c-1.6,0.9-2.7,1.8-3.1,2.7c0.1,0,0.1,0,0.2,0c0.4-0.9,1.4-1.8,2.9-2.6
				c0.3,0.8,0.5,1.6,0.6,2.4c0.1,0,0.1,0,0.2,0c-0.1-0.9-0.3-1.7-0.6-2.5c1.1-0.6,2.5-1.2,4.1-1.7c-1.1,1.3-1.9,2.7-2.3,4.1
				c0.1,0,0.1,0,0.2,0c0.5-1.4,1.3-2.8,2.4-4.2c0,0,0,0,0.1,0c0.6,0.8,1.1,1.7,1.4,2.6c-0.2,0.5-0.4,1-0.6,1.5c0.1,0,0.1,0,0.2,0
				c0.1-0.4,0.3-0.8,0.5-1.3c0.1,0.4,0.3,0.8,0.4,1.2c0.1,0,0.1,0,0.2,0c-0.1-0.5-0.3-0.9-0.4-1.4c0.7-1.3,1.6-2.6,2.8-3.7
				c0.8-0.2,1.6-0.3,2.4-0.5c0.4,0.3,0.8,0.6,1.1,1c-1,1.1-1.8,2.2-2.4,3.4c-0.6,0.4-1.1,0.8-1.5,1.2c0.1,0,0.1,0,0.2,0
				c0.3-0.3,0.7-0.7,1.2-1c-0.1,0.3-0.3,0.6-0.4,0.9c0.1,0,0.1,0,0.2,0c0.1-0.4,0.3-0.7,0.5-1.1c1-0.6,2.3-1.1,4-1.6
				c0.3,0.4,0.6,0.9,0.8,1.3c-0.2,0.4-0.4,0.8-0.5,1.2c0.1,0,0.1,0,0.2,0c0.1-0.4,0.3-0.7,0.5-1.1c0.2,0.3,0.3,0.7,0.4,1
				c0.1,0,0.1,0,0.2,0c-0.1-0.4-0.3-0.8-0.5-1.2c0.3-0.6,0.7-1.3,1.2-1.9c1.9-0.4,4-0.8,6.3-1.1c-1.1,1.3-2,2.7-2.5,4.1
				c0.1,0,0.1,0,0.2,0c0.5-1.4,1.4-2.8,2.6-4.1c0.3,0,0.7-0.1,1-0.1c1.2,1.1,2.1,2.3,2.8,3.5c-0.1,0.2-0.2,0.4-0.3,0.7
				c0.1,0,0.1,0,0.2,0c0.1-0.2,0.1-0.3,0.2-0.5c0.1,0.2,0.1,0.3,0.2,0.5c0.1,0,0.1,0,0.2,0c-0.1-0.2-0.2-0.5-0.3-0.7
				c0.6-1.4,1.5-2.7,2.6-4c0.4,0,0.8-0.1,1.3-0.1c1.2,1.1,2.1,2.3,2.7,3.5c-0.2,0.4-0.4,0.8-0.5,1.2c0.1,0,0.1,0,0.2,0
				c0.1-0.3,0.3-0.7,0.5-1c0.2,0.3,0.3,0.7,0.4,1c0.1,0,0.1,0,0.2,0c-0.1-0.4-0.3-0.8-0.5-1.2c0.7-1.3,1.6-2.5,2.8-3.6
				c0.2,0,0.4,0,0.6,0c0.2,0,0.3,0,0.4,0c1,1.1,1.8,2.2,2.4,3.3c-0.3,0.5-0.6,1-0.8,1.5c0.1,0,0.1,0,0.2,0c0.2-0.4,0.4-0.9,0.7-1.3
				c0.2,0.4,0.4,0.9,0.5,1.3c0.1,0,0.1,0,0.2,0c-0.2-0.5-0.4-1-0.6-1.5c0.7-1.1,1.7-2.2,2.9-3.2c0.2,0,0.4,0,0.5,0
				c1.2,1.4,2.1,3,2.5,4.6c0,0,0,0.1-0.1,0.1c0.1,0,0.2,0,0.2,0c0,0,0-0.1,0-0.1c0.7-1.5,1.9-2.8,3.5-4.1c0.4,0,0.8,0.1,1.2,0.1
				c0.9,1.1,1.6,2.3,2,3.5c-0.1,0.2-0.2,0.4-0.3,0.7c0.1,0,0.1,0,0.2,0c0.1-0.2,0.1-0.3,0.2-0.5c0.1,0.2,0.1,0.3,0.2,0.5
				c0.1,0,0.1,0,0.2,0c-0.1-0.2-0.1-0.4-0.2-0.7c0.5-1,1.3-1.9,2.2-2.8c0.7,0.1,1.4,0.3,2,0.4c0.7,1,1.2,2.1,1.6,3.2
				c0.1,0,0.1,0,0.2,0c-0.3-1.1-0.8-2.1-1.5-3.1c2.1,0.5,3.9,1.1,5.2,1.7c0.3,0.5,0.5,1.1,0.6,1.6c0.1,0,0.2,0,0.2,0
				c0.1-0.3,0.2-0.7,0.4-1c0.5,0.3,1,0.7,1.3,1c0.1,0,0.1,0,0.2,0c-0.3-0.4-0.8-0.8-1.4-1.1c0.5-1.1,1.1-2.1,2-3.1
				c1.1,1.4,1.9,2.8,2.3,4.3c0.1,0,0.1,0,0.2,0c-0.4-1.5-1.2-3-2.3-4.4c0.1-0.1,0.3-0.3,0.4-0.4c2.2,0.5,4.1,1.1,5.7,1.8
				c-0.5,1-0.8,2.1-1.1,3.2c0.1,0,0.1,0,0.2,0c0.2-1.1,0.6-2.2,1-3.2c0,0,0.1,0,0.1,0c0.7,1,1.1,2.1,1.4,3.2c0.1,0,0.1,0,0.2,0
				c-0.2-1.1-0.7-2.1-1.3-3.1c2.3,1,3.8,2.1,4.4,3.3c0.1,0,0.1,0,0.2,0c-0.5-1.3-2.2-2.4-4.7-3.5c0-0.1-0.1-0.1-0.1-0.2
				c0.2-0.4,0.4-0.8,0.7-1.2c2.6,1.4,4.1,2.9,4.1,4.6h0.2c0-0.8-0.4-1.7-1.1-2.5c-0.8-0.6-1.6-1.3-2.4-1.9
				C94.6,136.5,94.4,136.3,94.2,136.2z M89.9,133.9c0.3,0.3,0.6,0.5,0.9,0.8c-0.5-0.2-0.9-0.3-1.4-0.5
				C89.6,134.2,89.8,134.1,89.9,133.9z M82.8,130.9c1.2,0.2,2.4,0.5,3.5,0.8c-1.1,0.3-2.2,0.6-3.2,1c0,0,0,0-0.1,0
				c-0.6-0.5-1.3-0.9-2-1.3C81.6,131.1,82.2,131,82.8,130.9z M75.2,133.7c-0.1-0.1-0.2-0.2-0.3-0.2c0.8-0.4,1.7-0.8,2.7-1.1
				c0.8,0.6,1.6,1.1,2.3,1.7c-0.1,0.1-0.2,0.1-0.3,0.2C78.1,134.1,76.7,133.9,75.2,133.7z M79.4,134.4c-0.7,0.4-1.4,0.9-2,1.4
				c-0.6-0.6-1.2-1.3-2-1.9C76.8,134.1,78.1,134.2,79.4,134.4z M69.1,133.2c-0.2-0.2-0.5-0.4-0.7-0.6c0.9-0.5,1.9-0.9,3-1.4
				c1.2,0.7,2.3,1.4,3.3,2.2c-0.1,0.1-0.2,0.1-0.3,0.2C72.6,133.5,70.9,133.3,69.1,133.2z M74.1,133.8c-1,0.5-1.8,1-2.6,1.6
				c-0.6-0.7-1.3-1.4-2.1-2C70.9,133.5,72.5,133.6,74.1,133.8z M62.1,132.9c-0.2-0.2-0.4-0.3-0.6-0.5c1-0.6,2.1-1.2,3.3-1.7
				c0.1,0,0.2,0,0.2,0c1.1,0.6,2.1,1.3,3.1,2c-0.3,0.2-0.6,0.3-0.9,0.5C65.5,133,63.8,132.9,62.1,132.9z M67,133.2
				c-1,0.6-1.9,1.2-2.7,1.8c-0.6-0.7-1.3-1.4-2.1-2C63.9,133.1,65.5,133.2,67,133.2z M58.1,132.9c-0.7,0-1.5,0-2.2,0
				c-0.4-0.3-0.8-0.5-1.2-0.8c0.8-0.5,1.7-1.1,2.6-1.6c0.3,0,0.6,0,0.8,0c0.1,0,0.2,0,0.3,0c1,0.6,1.9,1.2,2.8,1.9
				c-0.3,0.2-0.5,0.3-0.8,0.5C59.7,132.9,58.9,132.9,58.1,132.9z M60.2,133c-0.8,0.5-1.5,1.1-2.2,1.7c-0.6-0.6-1.3-1.1-2-1.7
				c0.7,0,1.3,0,2,0C58.8,133,59.5,133,60.2,133z M48.9,133.1c-0.2-0.1-0.5-0.3-0.7-0.4c1.1-0.7,2.2-1.4,3.5-2c0.1,0,0.2,0,0.3,0
				c0.9,0.5,1.7,0.9,2.5,1.4c-0.4,0.3-0.8,0.6-1.2,0.9C51.8,133,50.3,133,48.9,133.1z M53.1,133.1c-0.7,0.5-1.3,1.1-1.9,1.7
				c-0.6-0.5-1.3-1-2.1-1.5C50.4,133.2,51.7,133.1,53.1,133.1z M41.8,133.7c-0.1,0-0.2-0.1-0.2-0.1c1.1-0.8,2.3-1.5,3.6-2.2
				c1,0.4,1.9,0.9,2.7,1.4c-0.3,0.2-0.5,0.3-0.7,0.5C45.3,133.3,43.6,133.5,41.8,133.7z M47,133.4c-0.9,0.7-1.7,1.4-2.4,2.1
				c-0.7-0.6-1.6-1.2-2.5-1.7C43.6,133.6,45.3,133.5,47,133.4z M41.5,133.5c-0.2-0.1-0.4-0.2-0.6-0.3c-0.7-0.3-1.4-0.7-2.1-1
				c0.3-0.2,0.6-0.3,0.8-0.5c1.6-0.2,3.4-0.4,5.1-0.6c0.1,0,0.2,0.1,0.3,0.1C43.7,131.9,42.5,132.7,41.5,133.5z M41.6,133.7
				c-0.1,0-0.2,0-0.2,0c0,0,0.1-0.1,0.1-0.1C41.5,133.6,41.5,133.7,41.6,133.7z M36.1,131.3c0.5,0.2,1,0.3,1.5,0.5
				c-1.2,0.2-2.3,0.4-3.4,0.6C34.8,132,35.4,131.7,36.1,131.3z M36.1,131.1c-0.5-0.2-1.1-0.3-1.6-0.5c1.2-0.2,2.5-0.5,3.9-0.7
				C37.5,130.4,36.8,130.8,36.1,131.1z M36.3,131.2c0.8-0.4,1.6-0.9,2.5-1.3c0.7-0.1,1.4-0.2,2.1-0.3c0.5,0.2,1,0.3,1.4,0.5
				c-1,0.5-1.9,0.9-2.7,1.4c-0.6,0.1-1.2,0.2-1.7,0.3C37.4,131.6,36.8,131.4,36.3,131.2z M39.2,129.7c0.3-0.1,0.5-0.2,0.8-0.3
				c0.2,0.1,0.4,0.1,0.6,0.2C40.1,129.6,39.7,129.7,39.2,129.7z M66.7,127.3c1.2,0.4,2.3,0.8,3.4,1.2c-0.4,0.1-0.8,0.2-1.2,0.4
				c-0.8-0.1-1.6-0.1-2.5-0.2c-0.9-0.4-1.7-0.7-2.7-1c0.5-0.2,1.1-0.3,1.6-0.5C65.8,127.2,66.2,127.2,66.7,127.3z M65.8,127.1
				c0,0,0.1,0,0.1,0c0.1,0,0.1,0,0.2,0.1C66,127.1,65.9,127.1,65.8,127.1z M82.8,132.7c-1,0.4-2,0.8-2.9,1.3
				c-0.7-0.6-1.4-1.2-2.3-1.7c0.3-0.1,0.6-0.2,1-0.3C80.1,132.2,81.5,132.5,82.8,132.7z M79,131.9c0.6-0.2,1.2-0.4,1.8-0.5
				c0.7,0.4,1.3,0.8,1.9,1.2C81.5,132.3,80.3,132.1,79,131.9z M77.6,132.2c-0.3-0.2-0.5-0.3-0.8-0.5c0.5,0.1,1.1,0.2,1.6,0.2
				C78.1,132,77.8,132.1,77.6,132.2z M77.4,132.3c-0.9,0.3-1.8,0.7-2.6,1.1c-1-0.8-2.1-1.5-3.3-2.2c0.1,0,0.1-0.1,0.2-0.1
				c1.6,0.2,3.2,0.3,4.7,0.5C76.8,131.9,77.1,132.1,77.4,132.3z M72,131c0.7-0.2,1.3-0.5,2-0.7c0.7,0.4,1.4,0.8,2.1,1.2
				C74.8,131.3,73.4,131.1,72,131z M72.3,129.3c1.1,0.1,2.2,0.2,3.3,0.4c-0.5,0.1-1.1,0.3-1.6,0.5C73.5,129.9,72.9,129.6,72.3,129.3
				z M73.9,130.2c-0.7,0.2-1.5,0.5-2.2,0.8c-0.2,0-0.5,0-0.7-0.1c-1-0.5-2-1.1-3.1-1.5c0.3-0.1,0.7-0.2,1-0.3c1,0.1,2,0.2,3,0.2
				C72.6,129.6,73.2,129.9,73.9,130.2z M71.4,131.1C71.4,131.1,71.4,131.1,71.4,131.1C71.3,131.1,71.3,131.1,71.4,131.1
				C71.3,131.1,71.4,131.1,71.4,131.1z M58.4,130.4c-0.1-0.1-0.3-0.2-0.4-0.2c1-0.5,2-1,3-1.4c1.3,0.6,2.5,1.1,3.7,1.8
				C62.7,130.4,60.6,130.4,58.4,130.4z M64.5,130.6c-1.1,0.5-2.1,1.1-3.1,1.7c-0.8-0.6-1.7-1.2-2.6-1.8
				C60.7,130.5,62.6,130.6,64.5,130.6z M52,130.5c1.1-0.5,2.3-1.1,3.5-1.5c0.8,0.4,1.6,0.8,2.3,1.2c-0.2,0.1-0.3,0.2-0.5,0.3
				C55.4,130.4,53.7,130.4,52,130.5z M57,130.5c-0.8,0.5-1.6,1-2.4,1.5c-0.7-0.5-1.5-0.9-2.4-1.4C53.8,130.6,55.3,130.5,57,130.5z
				 M46.1,130.8c1-0.5,2-1,3.2-1.4c0.8,0.3,1.6,0.7,2.4,1.1c0,0,0,0,0,0C49.7,130.6,47.9,130.7,46.1,130.8z M51.3,130.7
				c-1.2,0.6-2.3,1.3-3.3,1.9c-0.8-0.5-1.7-1-2.7-1.4c0.1-0.1,0.2-0.1,0.3-0.2C47.5,130.9,49.4,130.7,51.3,130.7z M48.4,128.9
				c0.6,0,1.2-0.1,1.8-0.1c-0.4,0.1-0.7,0.3-1.1,0.4C49,129.2,48.7,129.1,48.4,128.9z M49.4,129.3c0.4-0.2,0.9-0.3,1.3-0.5
				c1.4-0.1,2.7-0.1,4.1-0.1c0.1,0.1,0.3,0.1,0.4,0.2c-1.2,0.5-2.4,1-3.5,1.6C51,130,50.2,129.7,49.4,129.3z M54.5,128.5
				c-1.1,0-2.2,0.1-3.3,0.1c0.6-0.2,1.3-0.5,2-0.7C53.7,128.2,54.1,128.3,54.5,128.5z M51.5,127.2c1.4-0.1,2.9-0.1,4.3-0.1
				c-0.9,0.2-1.8,0.5-2.6,0.8C52.6,127.6,52.1,127.4,51.5,127.2z M58.1,128.6c0.9,0,1.8,0,2.7,0c-1,0.4-2,0.9-2.9,1.4
				c-0.7-0.4-1.5-0.8-2.2-1.2c0.2-0.1,0.4-0.1,0.6-0.2C56.8,128.6,57.5,128.6,58.1,128.6z M56.6,128.5c0.7-0.2,1.3-0.5,2-0.7
				c0.6,0.2,1.2,0.5,1.8,0.7c-0.8,0-1.6,0-2.4,0C57.6,128.5,57.1,128.5,56.6,128.5z M55.4,128.8c-0.1,0-0.2-0.1-0.2-0.1
				c0.2,0,0.4,0,0.6,0C55.7,128.7,55.5,128.7,55.4,128.8z M57.9,130.2c0.1,0.1,0.2,0.1,0.3,0.2c0,0,0,0-0.1,0c-0.2,0-0.4,0-0.6,0
				C57.7,130.3,57.8,130.3,57.9,130.2z M61.2,128.7c1.8,0,3.5,0.1,5.2,0.2c0.4,0.2,0.8,0.3,1.1,0.5c-0.9,0.3-1.8,0.7-2.7,1.1
				C63.8,129.8,62.5,129.2,61.2,128.7z M61.5,128.5c0.7-0.3,1.3-0.5,2-0.7c0.8,0.3,1.7,0.6,2.5,0.9C64.5,128.6,63,128.6,61.5,128.5z
				 M66.8,128.9c0.6,0,1.1,0.1,1.7,0.1c-0.3,0.1-0.5,0.2-0.8,0.3C67.4,129.2,67.1,129,66.8,128.9z M67.7,129.4c1,0.5,2,0.9,2.9,1.4
				c-1.8-0.2-3.7-0.3-5.6-0.4C65.9,130.1,66.8,129.8,67.7,129.4z M71,131.1c0.1,0,0.1,0.1,0.2,0.1c-1,0.4-2,0.9-3,1.4
				c-0.9-0.7-1.9-1.3-2.9-1.9C67.3,130.8,69.1,130.9,71,131.1z M69.3,128.9c0.3-0.1,0.7-0.2,1-0.3c0.4,0.2,0.8,0.3,1.2,0.5
				C70.8,129,70,129,69.3,128.9z M63.5,127.6c-0.6-0.2-1.1-0.4-1.7-0.6c1,0,2.1,0.1,3.1,0.1C64.5,127.3,64,127.5,63.5,127.6z
				 M63.3,127.7c-0.7,0.3-1.5,0.5-2.2,0.8c-0.1,0-0.2,0-0.3,0c-0.7-0.3-1.3-0.5-2-0.8c0.8-0.2,1.5-0.5,2.3-0.7c0,0,0.1,0,0.1,0
				C62,127.3,62.7,127.5,63.3,127.7z M58.1,127c0.9,0,1.7,0,2.5,0c-0.7,0.2-1.4,0.4-2,0.6c-0.6-0.2-1.2-0.4-1.8-0.6
				C57.2,127,57.7,127,58.1,127z M57,126.9c0.7-0.2,1.3-0.3,2-0.5c0.6,0.2,1.2,0.3,1.8,0.5c-0.9,0-1.8,0-2.7,0
				C57.7,126.9,57.4,126.9,57,126.9z M58.4,127.7c-0.8,0.2-1.5,0.5-2.2,0.8c-0.4,0-0.9,0-1.3,0c-0.5-0.2-1-0.4-1.5-0.6
				c1-0.3,1.9-0.6,3-0.9C57.1,127.3,57.7,127.5,58.4,127.7z M51.2,127c0.9-0.2,1.8-0.5,2.7-0.7c0.7,0.2,1.3,0.4,2,0.6
				C54.3,126.9,52.7,127,51.2,127z M53,127.9c-0.8,0.3-1.5,0.5-2.3,0.8c-0.9,0-1.8,0.1-2.6,0.2c-0.4-0.1-0.8-0.3-1.2-0.4
				c1.2-0.4,2.4-0.8,3.7-1.2c0.2,0,0.3,0,0.5,0C51.7,127.4,52.4,127.6,53,127.9z M47.7,128.8c-0.9,0.1-1.7,0.1-2.5,0.2
				c0.5-0.2,1-0.4,1.5-0.6C47,128.6,47.4,128.7,47.7,128.8z M48.1,129c0.3,0.1,0.6,0.2,0.9,0.4c-1.2,0.5-2.3,1-3.3,1.5
				c-0.3,0-0.6,0.1-0.9,0.1c-0.7-0.3-1.4-0.6-2.1-0.8c0.6-0.3,1.3-0.6,2-0.9C45.8,129.1,46.9,129,48.1,129z M45.3,131.1
				c0,0-0.1,0-0.1,0.1c0,0-0.1,0-0.1-0.1C45.2,131.1,45.3,131.1,45.3,131.1z M44.5,131c-1.6,0.1-3.1,0.3-4.5,0.5
				c0.8-0.4,1.6-0.9,2.5-1.3C43.2,130.4,43.9,130.7,44.5,131z M42.5,130c-0.4-0.2-0.8-0.3-1.3-0.4c1-0.1,2-0.2,3-0.3
				C43.7,129.5,43.1,129.8,42.5,130z M39.3,131.7c-0.2,0.1-0.4,0.3-0.6,0.4c-0.2-0.1-0.3-0.1-0.5-0.2
				C38.5,131.8,38.9,131.8,39.3,131.7z M40.8,133.3c0.2,0.1,0.3,0.2,0.5,0.3c-0.1,0.1-0.2,0.1-0.3,0.2c-1.9,0.2-3.7,0.4-5.5,0.7
				c0.9-0.8,1.9-1.5,3.1-2.2C39.4,132.6,40.1,132.9,40.8,133.3z M48.1,132.8c0.2,0.1,0.4,0.2,0.6,0.4c-0.4,0-0.8,0-1.2,0.1
				C47.6,133.1,47.8,132.9,48.1,132.8z M54.6,132.2c0.4,0.2,0.7,0.5,1.1,0.7c-0.7,0-1.4,0-2.1,0C53.8,132.7,54.2,132.4,54.6,132.2z
				 M61.3,132.5c0.2,0.1,0.4,0.3,0.5,0.4c-0.4,0-0.8,0-1.2,0C60.9,132.7,61.1,132.6,61.3,132.5z M68.2,132.7
				c0.2,0.2,0.4,0.3,0.6,0.5c-0.5,0-0.9-0.1-1.4-0.1C67.7,133,68,132.8,68.2,132.7z M74.8,133.6c0.1,0,0.1,0.1,0.2,0.1
				c-0.1,0-0.2,0-0.4,0C74.6,133.6,74.7,133.6,74.8,133.6z M80,134.2c0.1,0.1,0.1,0.1,0.2,0.2c-0.1,0-0.2,0-0.4-0.1
				C79.8,134.3,79.9,134.3,80,134.2z M80.1,134.2c0.9-0.5,1.9-0.9,2.9-1.3c1.2,0.9,2.2,1.8,3.1,2.7c-1.8-0.4-3.7-0.8-5.7-1.1
				C80.3,134.3,80.2,134.2,80.1,134.2z M82.5,130.8c-0.6,0.1-1.1,0.3-1.6,0.4c-0.6-0.3-1.2-0.7-1.8-1
				C80.2,130.4,81.4,130.6,82.5,130.8z M80.7,131.2c-0.7,0.2-1.3,0.4-2,0.6c-0.7-0.1-1.4-0.2-2.2-0.3c-0.7-0.4-1.5-0.9-2.3-1.3
				c0.6-0.2,1.2-0.4,1.8-0.5c0.9,0.1,1.8,0.2,2.6,0.4C79.3,130.5,80,130.9,80.7,131.2z M78.2,129.9c-0.6-0.1-1.2-0.2-1.8-0.3
				c0.3-0.1,0.6-0.1,0.9-0.2C77.6,129.6,77.9,129.7,78.2,129.9z M73.4,127.8c1.3,0.5,2.5,1,3.6,1.5c-0.3,0.1-0.7,0.2-1,0.3
				c-1.3-0.2-2.7-0.3-4.1-0.5c-0.5-0.2-0.9-0.4-1.4-0.6C71.4,128.3,72.4,128,73.4,127.8C73.3,127.8,73.4,127.8,73.4,127.8z
				 M70.3,128.4c-1-0.4-2-0.8-3.1-1.1c1.9,0.1,3.8,0.3,5.7,0.5C72,128,71.1,128.2,70.3,128.4z M68.8,126.3c1.4,0.4,2.8,0.9,4.1,1.3
				c-2-0.2-4-0.4-6.2-0.5c-0.2-0.1-0.3-0.1-0.5-0.2C67,126.7,67.9,126.5,68.8,126.3z M67,125.8c0.5,0.1,1,0.3,1.5,0.4
				c-0.9,0.2-1.7,0.4-2.6,0.7c-0.6-0.2-1.2-0.4-1.8-0.5C65,126.1,66,125.9,67,125.8z M63.8,126.4c0.6,0.2,1.2,0.4,1.9,0.5
				c-0.1,0-0.2,0.1-0.3,0.1c-1.2-0.1-2.4-0.1-3.7-0.1C62.4,126.7,63.1,126.6,63.8,126.4z M61.7,125.9c0.6,0.1,1.2,0.3,1.8,0.5
				c-0.8,0.2-1.5,0.4-2.3,0.6c-0.6-0.2-1.3-0.4-1.9-0.5C60.1,126.2,60.9,126,61.7,125.9z M59.2,125.3c0.7,0.2,1.5,0.3,2.2,0.5
				c-0.8,0.2-1.6,0.3-2.4,0.5c-0.7-0.2-1.5-0.4-2.2-0.5C57.5,125.6,58.3,125.4,59.2,125.3z M58.7,126.3c-0.8,0.2-1.5,0.4-2.3,0.6
				c0,0,0,0-0.1,0c-0.7-0.2-1.4-0.4-2.1-0.6c0.7-0.2,1.5-0.3,2.2-0.5C57.2,126,57.9,126.1,58.7,126.3z M53.7,125.2
				c0.8,0.1,1.6,0.3,2.3,0.5c-0.7,0.2-1.4,0.3-2.2,0.5c-0.7-0.2-1.4-0.4-2.1-0.5C52.4,125.5,53.1,125.4,53.7,125.2z M51.4,125.7
				c0.7,0.2,1.5,0.3,2.2,0.5c-0.9,0.2-1.8,0.5-2.7,0.7c-0.6-0.2-1.3-0.4-2-0.6C49.8,126.1,50.6,125.9,51.4,125.7z M48.7,126.4
				c0.7,0.2,1.3,0.4,2,0.6c0,0,0,0-0.1,0c-1.8,0.1-3.6,0.2-5.4,0.4C46.3,127.1,47.5,126.7,48.7,126.4z M44.6,127.6
				c1.7-0.2,3.5-0.3,5.4-0.4c-1.1,0.3-2.2,0.7-3.3,1.1C46,128.1,45.3,127.9,44.6,127.6C44.6,127.7,44.6,127.6,44.6,127.6z
				 M44.3,127.7c0.7,0.2,1.5,0.4,2.2,0.7c-0.6,0.2-1.2,0.4-1.8,0.7c-1.3,0.1-2.6,0.3-3.8,0.4c-0.2-0.1-0.5-0.1-0.7-0.2
				C41.5,128.7,42.9,128.2,44.3,127.7z M42.3,127.2c0.5,0.1,0.9,0.2,1.4,0.3c-1.2,0.1-2.4,0.3-3.6,0.4
				C40.8,127.7,41.5,127.5,42.3,127.2z M39.4,128.2c1.5-0.2,3-0.4,4.6-0.5c-1.4,0.5-2.7,1-4,1.5c-0.6-0.2-1.2-0.3-1.9-0.5
				C38.6,128.6,39,128.4,39.4,128.2z M37.3,128.5c0.5-0.1,1-0.2,1.5-0.2c-0.3,0.1-0.6,0.2-0.9,0.4C37.7,128.6,37.5,128.6,37.3,128.5
				z M37.9,128.8c0.6,0.2,1.3,0.3,1.9,0.5c-0.4,0.2-0.7,0.3-1.1,0.5c-1.6,0.2-3.2,0.5-4.6,0.8c0,0,0,0,0,0
				C35.3,130,36.6,129.4,37.9,128.8z M33.6,130.8c0.2,0,0.3-0.1,0.5-0.1c0.6,0.2,1.2,0.3,1.8,0.5c-0.7,0.4-1.4,0.8-2.1,1.3
				c-1.3,0.3-2.6,0.6-3.8,0.9c-0.1-0.1-0.2-0.1-0.3-0.2C30.9,132.4,32.2,131.6,33.6,130.8z M33.5,132.7c-0.7,0.5-1.4,1-2.1,1.5
				c-0.4-0.3-0.8-0.5-1.3-0.8C31.2,133.2,32.4,132.9,33.5,132.7z M29.6,133.3c0.1,0,0.2,0.1,0.2,0.1c-0.2,0.1-0.4,0.1-0.7,0.2
				C29.3,133.5,29.4,133.4,29.6,133.3z M25.6,136.7c-1.7,0.5-3.1,1.1-4.3,1.7c-0.2-0.4-0.3-0.9-0.5-1.3c1-0.7,2.2-1.3,3.7-1.9
				C24.9,135.7,25.3,136.2,25.6,136.7C25.6,136.7,25.6,136.7,25.6,136.7z M25.7,136.5c-0.3-0.5-0.7-0.9-1.1-1.3
				c1.2-0.5,2.5-0.9,3.9-1.3C27.5,134.7,26.5,135.6,25.7,136.5z M27.2,139.2c-0.3-0.9-0.8-1.7-1.4-2.5c1.2-0.4,2.6-0.7,4-1.1
				C28.8,136.8,27.9,138,27.2,139.2z M30.1,135.5c-1.5,0.3-2.9,0.7-4.2,1.1c0.9-1,1.9-1.9,3-2.8c0.4-0.1,0.7-0.2,1.1-0.3
				c0.5,0.3,0.9,0.5,1.4,0.8C30.9,134.7,30.5,135.1,30.1,135.5z M30.3,135.4c0.4-0.4,0.8-0.7,1.2-1c0.3,0.2,0.6,0.4,0.9,0.6
				C31.7,135.2,31,135.3,30.3,135.4z M31.6,134.3c0.7-0.6,1.5-1.1,2.3-1.7c1.3-0.2,2.6-0.5,4-0.7c0.2,0.1,0.4,0.2,0.7,0.3
				c-1.2,0.7-2.2,1.5-3.2,2.3c-1,0.2-1.9,0.3-2.8,0.5C32.3,134.8,31.9,134.5,31.6,134.3z M32.7,135.1c0.8-0.1,1.6-0.3,2.4-0.4
				c-0.5,0.4-1,0.9-1.4,1.3C33.4,135.7,33.1,135.4,32.7,135.1z M31.5,139.4c0.6-1.1,1.3-2.2,2.3-3.2c0.6,0.5,1.1,1.1,1.5,1.7
				C33.7,138.3,32.4,138.8,31.5,139.4z M36.2,139.1c-0.2-0.4-0.5-0.8-0.7-1.2c0.6-0.2,1.2-0.3,1.8-0.5
				C36.9,138,36.5,138.5,36.2,139.1z M37.4,137.3c-0.7,0.2-1.4,0.4-2,0.5c-0.4-0.6-1-1.2-1.5-1.7c0.5-0.5,1-1,1.5-1.4
				c1.7-0.3,3.6-0.5,5.5-0.7C39.5,135,38.3,136.1,37.4,137.3z M44,136.1c-2.3,0.3-4.5,0.7-6.3,1.1c0.9-1.2,2.1-2.3,3.5-3.3
				c0.2,0,0.5,0,0.7-0.1c1,0.6,1.9,1.2,2.6,1.8C44.3,135.8,44.1,135.9,44,136.1z M44.2,136.1c0.1-0.1,0.2-0.3,0.4-0.4
				c0.1,0.1,0.2,0.2,0.4,0.3C44.7,136,44.4,136,44.2,136.1z M47.9,139.4c-0.6-1.2-1.5-2.3-2.6-3.3c1.6-0.2,3.3-0.3,5.1-0.5
				C49.3,136.8,48.4,138.1,47.9,139.4z M50.5,135.5c-1.9,0.1-3.7,0.3-5.4,0.5c-0.1-0.1-0.3-0.2-0.4-0.4c0.8-0.8,1.6-1.5,2.6-2.2
				c0.5,0,1.1-0.1,1.6-0.1c0.8,0.5,1.5,1,2.2,1.6C50.8,135.1,50.7,135.3,50.5,135.5z M50.7,135.5c0.2-0.2,0.3-0.3,0.5-0.5
				c0.2,0.1,0.3,0.3,0.5,0.4C51.3,135.4,51,135.4,50.7,135.5z M54.6,138.9c-0.6-1.2-1.5-2.3-2.6-3.3c1.7-0.1,3.5-0.1,5.3-0.1
				C56.2,136.5,55.3,137.6,54.6,138.9z M57.5,135.2c-1.9,0-3.8,0.1-5.6,0.2c-0.2-0.2-0.4-0.4-0.6-0.5c0.6-0.6,1.3-1.2,2-1.8
				c0.8,0,1.7,0,2.5-0.1c0.8,0.6,1.5,1.1,2.1,1.8C57.8,134.9,57.6,135.1,57.5,135.2z M58.1,135.2c-0.1,0-0.3,0-0.4,0
				c0.1-0.1,0.3-0.2,0.4-0.4c0.1,0.1,0.2,0.2,0.4,0.4C58.3,135.2,58.2,135.2,58.1,135.2z M61.1,138.6c-0.6-1.1-1.3-2.2-2.3-3.2
				c1.7,0,3.4,0.1,5,0.1C62.7,136.5,61.8,137.5,61.1,138.6z M64,135.4c-1.7-0.1-3.5-0.1-5.4-0.1c-0.1-0.2-0.3-0.3-0.4-0.4
				c0.7-0.6,1.5-1.2,2.3-1.8c0.5,0,1,0,1.6,0c0.8,0.7,1.5,1.4,2.2,2.1C64.1,135.2,64,135.3,64,135.4z M64.2,135.4
				c0,0,0.1-0.1,0.1-0.1c0,0,0.1,0.1,0.1,0.1C64.3,135.4,64.3,135.4,64.2,135.4z M67.2,139.9c-0.5-1.5-1.3-3-2.4-4.4
				c2,0.1,4,0.3,5.8,0.5C69.1,137.2,67.9,138.5,67.2,139.9z M70.7,135.9c-1.9-0.2-4-0.4-6.1-0.5c-0.1-0.1-0.1-0.2-0.2-0.2
				c0.8-0.7,1.8-1.3,2.8-1.9c0.6,0,1.2,0.1,1.8,0.1c0.8,0.7,1.6,1.4,2.3,2.1C71.1,135.6,70.9,135.8,70.7,135.9z M70.9,135.9
				c0.2-0.1,0.3-0.2,0.5-0.4c0.1,0.2,0.3,0.3,0.4,0.5C71.5,136,71.2,136,70.9,135.9z M74.1,139.5c-0.4-1.1-1.1-2.2-1.9-3.3
				c1.4,0.2,2.7,0.4,4,0.6C75.3,137.7,74.6,138.6,74.1,139.5z M76.3,136.7c-1.3-0.2-2.7-0.5-4.2-0.7c-0.2-0.2-0.3-0.4-0.5-0.6
				c0.9-0.6,1.8-1.2,2.8-1.7c0.3,0,0.5,0.1,0.8,0.1c0.8,0.6,1.5,1.3,2.1,2C76.9,136.2,76.6,136.4,76.3,136.7z M76.4,136.8
				c0.3-0.3,0.6-0.5,0.9-0.8c0.3,0.4,0.6,0.8,0.9,1.2C77.7,137,77.1,136.9,76.4,136.8z M78.5,137.2c-0.3-0.4-0.7-0.9-1-1.3
				c0.7-0.5,1.4-1,2.1-1.5c0.3,0,0.5,0.1,0.7,0.1c1.5,1.4,2.6,2.8,3.4,4.3C82.3,138.2,80.6,137.7,78.5,137.2z M84.5,140.5
				c-0.1-0.5-0.3-0.9-0.5-1.3c0.3,0.1,0.6,0.3,0.9,0.5C84.7,139.9,84.6,140.2,84.5,140.5z M84.9,139.5c-0.3-0.2-0.6-0.3-1-0.5
				c-0.7-1.5-1.9-3-3.3-4.4c2,0.3,4,0.7,5.7,1.1c0.2,0.2,0.4,0.5,0.6,0.7C86.1,137.3,85.4,138.4,84.9,139.5z M87,136.3
				c-0.2-0.2-0.3-0.4-0.5-0.5c0.3,0.1,0.5,0.1,0.8,0.2C87.2,136,87.1,136.1,87,136.3z M87.4,135.8c-0.3-0.1-0.7-0.2-1.1-0.2
				c-0.9-0.9-1.9-1.9-3.1-2.7c2.1,0.4,4.1,1,5.8,1.5C88.5,134.8,87.9,135.3,87.4,135.8z M93.2,137.6c-1.6-0.6-3.4-1.2-5.6-1.8
				c0.5-0.5,1.1-1,1.7-1.5c0.6,0.2,1.2,0.4,1.8,0.6C91.9,135.8,92.6,136.7,93.2,137.6C93.2,137.6,93.2,137.6,93.2,137.6z
				 M93.3,137.4c-0.5-0.8-1.2-1.6-1.9-2.3c1,0.4,1.8,0.7,2.6,1.1C93.7,136.6,93.5,137,93.3,137.4z"/>
		</g>
		<linearGradient id="SVGID_3_" gradientUnits="userSpaceOnUse" x1="6.2359" y1="156.3358" x2="109.9747" y2="156.3358">
			<stop  offset="0" style="stop-color:#ABAFB2"/>
			<stop  offset="1" style="stop-color:#8E969B"/>
		</linearGradient>
		<path class="st12" d="M6.2,150.1l1.5,6.5c11.9,3.7,29.5,6,50.4,6c20.8,0,38.5-2.4,50.4-6l1.5-6.5H6.2z"/>
		<linearGradient id="SVGID_4_" gradientUnits="userSpaceOnUse" x1="14.5609" y1="156.3358" x2="104.5218" y2="156.3358">
			<stop  offset="0" style="stop-color:#C7D1D7"/>
			<stop  offset="0.3708" style="stop-color:#FFFFFF"/>
			<stop  offset="1" style="stop-color:#C7D1D7"/>
		</linearGradient>
		<path class="st13" d="M58.8,162.6l0.1-12.6h-1.5l0.1,12.6c0.2,0,0.5,0,0.7,0C58.3,162.6,58.6,162.6,58.8,162.6z"/>
		<linearGradient id="SVGID_5_" gradientUnits="userSpaceOnUse" x1="14.5694" y1="156.2959" x2="104.5149" y2="156.2959">
			<stop  offset="0" style="stop-color:#C7D1D7"/>
			<stop  offset="0.3708" style="stop-color:#FFFFFF"/>
			<stop  offset="1" style="stop-color:#C7D1D7"/>
		</linearGradient>
		<path class="st14" d="M66.8,150.1h-1.6l-0.7,12.5c0.5,0,1,0,1.4,0L66.8,150.1z"/>
		<linearGradient id="SVGID_6_" gradientUnits="userSpaceOnUse" x1="14.5617" y1="156.1274" x2="104.5201" y2="156.1274">
			<stop  offset="0" style="stop-color:#C7D1D7"/>
			<stop  offset="0.3708" style="stop-color:#FFFFFF"/>
			<stop  offset="1" style="stop-color:#C7D1D7"/>
		</linearGradient>
		<path class="st15" d="M76,150.1h-1.6l-1.5,12.1c0.5,0,1-0.1,1.5-0.1L76,150.1z"/>
		<linearGradient id="SVGID_7_" gradientUnits="userSpaceOnUse" x1="14.5656" y1="155.6555" x2="104.5186" y2="155.6555">
			<stop  offset="0" style="stop-color:#C7D1D7"/>
			<stop  offset="0.3708" style="stop-color:#FFFFFF"/>
			<stop  offset="1" style="stop-color:#C7D1D7"/>
		</linearGradient>
		<path class="st16" d="M88.5,150.1h-1.8l-2.4,11.2c0.6-0.1,1.2-0.1,1.8-0.2L88.5,150.1z"/>
		<linearGradient id="SVGID_8_" gradientUnits="userSpaceOnUse" x1="14.5618" y1="154.8285" x2="104.5195" y2="154.8285">
			<stop  offset="0" style="stop-color:#C7D1D7"/>
			<stop  offset="0.3708" style="stop-color:#FFFFFF"/>
			<stop  offset="1" style="stop-color:#C7D1D7"/>
		</linearGradient>
		<path class="st17" d="M100.8,150.1h-2.1l-3,9.6c0.7-0.1,1.4-0.3,2.1-0.4L100.8,150.1z"/>
		<linearGradient id="SVGID_9_" gradientUnits="userSpaceOnUse" x1="14.5594" y1="153.9364" x2="104.5193" y2="153.9364">
			<stop  offset="0" style="stop-color:#C7D1D7"/>
			<stop  offset="0.3708" style="stop-color:#FFFFFF"/>
			<stop  offset="1" style="stop-color:#C7D1D7"/>
		</linearGradient>
		<path class="st18" d="M109,150.1h-2.1l-2.9,7.8c0.8-0.2,1.5-0.4,2.2-0.6C107.1,154.9,108.1,152.5,109,150.1z"/>
		<linearGradient id="SVGID_10_" gradientUnits="userSpaceOnUse" x1="14.5635" y1="153.9364" x2="104.5215" y2="153.9364">
			<stop  offset="0" style="stop-color:#C7D1D7"/>
			<stop  offset="0.3708" style="stop-color:#FFFFFF"/>
			<stop  offset="1" style="stop-color:#C7D1D7"/>
		</linearGradient>
		<path class="st19" d="M10,157.2c0.7,0.2,1.5,0.4,2.2,0.6l-2.9-7.8H7.2C8.2,152.5,9.1,154.9,10,157.2z"/>
		<linearGradient id="SVGID_11_" gradientUnits="userSpaceOnUse" x1="14.5632" y1="154.8285" x2="104.521" y2="154.8285">
			<stop  offset="0" style="stop-color:#C7D1D7"/>
			<stop  offset="0.3708" style="stop-color:#FFFFFF"/>
			<stop  offset="1" style="stop-color:#C7D1D7"/>
		</linearGradient>
		<path class="st20" d="M17.5,150.1h-2.1l2.9,9.2c0.7,0.1,1.4,0.3,2.1,0.4L17.5,150.1z"/>
		<linearGradient id="SVGID_12_" gradientUnits="userSpaceOnUse" x1="14.5629" y1="155.6555" x2="104.5219" y2="155.6555">
			<stop  offset="0" style="stop-color:#C7D1D7"/>
			<stop  offset="0.3708" style="stop-color:#FFFFFF"/>
			<stop  offset="1" style="stop-color:#C7D1D7"/>
		</linearGradient>
		<path class="st21" d="M29.6,150.1h-1.8l2.5,11c0.6,0.1,1.2,0.1,1.8,0.2L29.6,150.1z"/>
		<linearGradient id="SVGID_13_" gradientUnits="userSpaceOnUse" x1="14.564" y1="156.1274" x2="104.5177" y2="156.1274">
			<stop  offset="0" style="stop-color:#C7D1D7"/>
			<stop  offset="0.3708" style="stop-color:#FFFFFF"/>
			<stop  offset="1" style="stop-color:#C7D1D7"/>
		</linearGradient>
		<path class="st22" d="M41.8,150.1h-1.6l1.6,12.1c0.5,0,1,0.1,1.5,0.1L41.8,150.1z"/>
		<linearGradient id="SVGID_14_" gradientUnits="userSpaceOnUse" x1="14.5602" y1="156.2959" x2="104.5241" y2="156.2959">
			<stop  offset="0" style="stop-color:#C7D1D7"/>
			<stop  offset="0.3708" style="stop-color:#FFFFFF"/>
			<stop  offset="1" style="stop-color:#C7D1D7"/>
		</linearGradient>
		<path class="st23" d="M50.9,150.1h-1.6l0.8,12.4c0.5,0,1,0,1.4,0L50.9,150.1z"/>
		<linearGradient id="SVGID_15_" gradientUnits="userSpaceOnUse" x1="112.5539" y1="147.0648" x2="3.657" y2="147.0648">
			<stop  offset="0" style="stop-color:#C7D1D7"/>
			<stop  offset="0.3708" style="stop-color:#FFFFFF"/>
			<stop  offset="1" style="stop-color:#C7D1D7"/>
		</linearGradient>
		<path class="st24" d="M112.6,150.4c-3.6-4-7.8-7.6-12.5-10.7c-11.7-0.7-26.5-1.2-41.9-1.2c-15.5,0-30.2,0.4-41.9,1.2
			c-4.7,3.1-9,6.7-12.5,10.7c8.3,3,28.6,5.2,54.4,5.2C83.9,155.6,104.3,153.4,112.6,150.4z"/>
		<linearGradient id="SVGID_16_" gradientUnits="userSpaceOnUse" x1="8.0226" y1="146.3831" x2="108.1882" y2="146.3831">
			<stop  offset="0" style="stop-color:#A2ABB1"/>
			<stop  offset="1" style="stop-color:#92A5AF"/>
		</linearGradient>
		<path class="st25" d="M58.1,145.9c-19,0-36.1-0.5-48.5-1.3c-0.5,0.5-1.1,0.9-1.6,1.4c8,1.3,27.4,2.2,50.1,2.2
			c22.7,0,42-0.9,50.1-2.2c-0.5-0.5-1.1-0.9-1.6-1.4C94.2,145.4,77.1,145.9,58.1,145.9z"/>
		<linearGradient id="SVGID_17_" gradientUnits="userSpaceOnUse" x1="109.3804" y1="156.0419" x2="6.8305" y2="156.0419">
			<stop  offset="0" style="stop-color:#C7D1D7"/>
			<stop  offset="0.3708" style="stop-color:#FFFFFF"/>
			<stop  offset="1" style="stop-color:#C7D1D7"/>
		</linearGradient>
		<path class="st26" d="M58.1,158.3c-23.1,0-43-2.3-51.3-5.6l0.3,1.3c8.5,3.2,28.1,5.5,51,5.5c22.9,0,42.5-2.3,51-5.5l0.3-1.3
			C101.1,155.9,81.2,158.3,58.1,158.3z"/>
		<linearGradient id="SVGID_18_" gradientUnits="userSpaceOnUse" x1="99.1562" y1="147.03" x2="3.8607" y2="147.03">
			<stop  offset="0" style="stop-color:#C7D1D7"/>
			<stop  offset="0.3708" style="stop-color:#FFFFFF"/>
			<stop  offset="1" style="stop-color:#C7D1D7"/>
		</linearGradient>
		<path class="st27" d="M58.9,148.2v-2.3c-0.3,0-0.5,0-0.8,0c-0.3,0-0.5,0-0.8,0v2.3c0.3,0,0.5,0,0.8,0
			C58.4,148.2,58.6,148.2,58.9,148.2z"/>
		<linearGradient id="SVGID_19_" gradientUnits="userSpaceOnUse" x1="99.1575" y1="146.9983" x2="3.8601" y2="146.9983">
			<stop  offset="0" style="stop-color:#C7D1D7"/>
			<stop  offset="0.3708" style="stop-color:#FFFFFF"/>
			<stop  offset="1" style="stop-color:#C7D1D7"/>
		</linearGradient>
		<path class="st28" d="M66.5,145.9c-0.5,0-1,0-1.5,0l0.4,2.2c0.5,0,1,0,1.5,0L66.5,145.9z"/>
		<linearGradient id="SVGID_20_" gradientUnits="userSpaceOnUse" x1="99.1576" y1="146.8808" x2="3.8618" y2="146.8808">
			<stop  offset="0" style="stop-color:#C7D1D7"/>
			<stop  offset="0.3708" style="stop-color:#FFFFFF"/>
			<stop  offset="1" style="stop-color:#C7D1D7"/>
		</linearGradient>
		<path class="st29" d="M75.2,145.8c-0.5,0-1.1,0-1.6,0l0.8,2.2c0.5,0,1.1,0,1.6,0L75.2,145.8z"/>
		<linearGradient id="SVGID_21_" gradientUnits="userSpaceOnUse" x1="99.1613" y1="146.5636" x2="3.8458" y2="146.5636">
			<stop  offset="0" style="stop-color:#C7D1D7"/>
			<stop  offset="0.3708" style="stop-color:#FFFFFF"/>
			<stop  offset="1" style="stop-color:#C7D1D7"/>
		</linearGradient>
		<path class="st30" d="M87.1,145.5c-0.6,0-1.2,0-1.8,0.1l1.4,2.1c0.6,0,1.2,0,1.7-0.1L87.1,145.5z"/>
		<linearGradient id="SVGID_22_" gradientUnits="userSpaceOnUse" x1="99.1597" y1="146.0176" x2="3.8574" y2="146.0176">
			<stop  offset="0" style="stop-color:#C7D1D7"/>
			<stop  offset="0.3708" style="stop-color:#FFFFFF"/>
			<stop  offset="1" style="stop-color:#C7D1D7"/>
		</linearGradient>
		<path class="st31" d="M98.8,145c-0.6,0-1.3,0.1-2,0.1l1.7,1.9c0.7,0,1.3-0.1,1.9-0.1L98.8,145z"/>
		<linearGradient id="SVGID_23_" gradientUnits="userSpaceOnUse" x1="99.1601" y1="145.4296" x2="3.8593" y2="145.4296">
			<stop  offset="0" style="stop-color:#C7D1D7"/>
			<stop  offset="0.3708" style="stop-color:#FFFFFF"/>
			<stop  offset="1" style="stop-color:#C7D1D7"/>
		</linearGradient>
		<path class="st32" d="M104.7,144.7l1.7,1.5c0.6-0.1,1.2-0.2,1.7-0.2c-0.5-0.5-1.1-0.9-1.6-1.4C106,144.6,105.4,144.7,104.7,144.7z
			"/>
		<linearGradient id="SVGID_24_" gradientUnits="userSpaceOnUse" x1="99.1615" y1="145.4296" x2="3.8559" y2="145.4296">
			<stop  offset="0" style="stop-color:#C7D1D7"/>
			<stop  offset="0.3708" style="stop-color:#FFFFFF"/>
			<stop  offset="1" style="stop-color:#C7D1D7"/>
		</linearGradient>
		<path class="st33" d="M9.6,144.6c-0.5,0.5-1.1,0.9-1.6,1.4c0.5,0.1,1.1,0.2,1.8,0.2l1.7-1.5C10.9,144.7,10.2,144.6,9.6,144.6z"/>
		<linearGradient id="SVGID_25_" gradientUnits="userSpaceOnUse" x1="99.1587" y1="146.0176" x2="3.8557" y2="146.0176">
			<stop  offset="0" style="stop-color:#C7D1D7"/>
			<stop  offset="0.3708" style="stop-color:#FFFFFF"/>
			<stop  offset="1" style="stop-color:#C7D1D7"/>
		</linearGradient>
		<path class="st34" d="M19.4,145.1c-0.7,0-1.3-0.1-2-0.1l-1.7,1.8c0.6,0.1,1.3,0.1,1.9,0.1L19.4,145.1z"/>
		<linearGradient id="SVGID_26_" gradientUnits="userSpaceOnUse" x1="99.1551" y1="146.5636" x2="3.8575" y2="146.5636">
			<stop  offset="0" style="stop-color:#C7D1D7"/>
			<stop  offset="0.3708" style="stop-color:#FFFFFF"/>
			<stop  offset="1" style="stop-color:#C7D1D7"/>
		</linearGradient>
		<path class="st35" d="M30.9,145.5c-0.6,0-1.2,0-1.8-0.1l-1.4,2.1c0.6,0,1.2,0,1.7,0.1L30.9,145.5z"/>
		<linearGradient id="SVGID_27_" gradientUnits="userSpaceOnUse" x1="99.1649" y1="146.8808" x2="3.8525" y2="146.8808">
			<stop  offset="0" style="stop-color:#C7D1D7"/>
			<stop  offset="0.3708" style="stop-color:#FFFFFF"/>
			<stop  offset="1" style="stop-color:#C7D1D7"/>
		</linearGradient>
		<path class="st36" d="M42.6,145.8c-0.5,0-1.1,0-1.6,0l-0.8,2.2c0.5,0,1.1,0,1.6,0L42.6,145.8z"/>
		<linearGradient id="SVGID_28_" gradientUnits="userSpaceOnUse" x1="99.1526" y1="146.9983" x2="3.8629" y2="146.9983">
			<stop  offset="0" style="stop-color:#C7D1D7"/>
			<stop  offset="0.3708" style="stop-color:#FFFFFF"/>
			<stop  offset="1" style="stop-color:#C7D1D7"/>
		</linearGradient>
		<path class="st37" d="M51.3,145.9c-0.5,0-1,0-1.5,0l-0.4,2.2c0.5,0,1,0,1.5,0L51.3,145.9z"/>
		<linearGradient id="SVGID_29_" gradientUnits="userSpaceOnUse" x1="111.9264" y1="151.7404" x2="4.2845" y2="151.7404">
			<stop  offset="0" style="stop-color:#8C8C8C"/>
			<stop  offset="7.436423e-02" style="stop-color:#939393"/>
			<stop  offset="0.1821" style="stop-color:#A6A6A6"/>
			<stop  offset="0.3096" style="stop-color:#C6C6C6"/>
			<stop  offset="0.3315" style="stop-color:#CCCCCC"/>
			<stop  offset="1" style="stop-color:#8E969B"/>
		</linearGradient>
		<path class="st38" d="M111.9,149.7c0,0-0.1-0.1-0.1-0.1c-9.2,2.5-30.1,4.1-53.7,4.1c-23.6,0-44.5-1.6-53.7-4.1
			c0,0-0.1,0.1-0.1,0.1c9.2,2.5,30.1,4.1,53.8,4.1S102.8,152.3,111.9,149.7z"/>
		<linearGradient id="SVGID_30_" gradientUnits="userSpaceOnUse" x1="105.6988" y1="144.1801" x2="10.5119" y2="144.1801">
			<stop  offset="0" style="stop-color:#8C8C8C"/>
			<stop  offset="7.436423e-02" style="stop-color:#939393"/>
			<stop  offset="0.1821" style="stop-color:#A6A6A6"/>
			<stop  offset="0.3096" style="stop-color:#C6C6C6"/>
			<stop  offset="0.3315" style="stop-color:#CCCCCC"/>
			<stop  offset="1" style="stop-color:#8E969B"/>
		</linearGradient>
		<path class="st39" d="M105.7,143.9c-0.1,0-0.1-0.1-0.2-0.1c-10.8,0.5-28.2,0.8-47.4,0.8c-19.2,0-36.7-0.3-47.4-0.8
			c-0.1,0-0.1,0.1-0.2,0.1c10.8,0.5,28.3,0.8,47.6,0.8S94.9,144.3,105.7,143.9z"/>
	</g>
</g>
</svg>
