<?xml version="1.0" encoding="utf-8"?>
<!-- Generator: Adobe Illustrator 24.0.3, SVG Export Plug-In . SVG Version: 6.00 Build 0)  -->
<svg version="1.1" id="レイヤー_1" xmlns="http://www.w3.org/2000/svg" xmlns:xlink="http://www.w3.org/1999/xlink" x="0px"
	 y="0px" viewBox="0 0 130 79.7" style="enable-background:new 0 0 130 79.7;" xml:space="preserve">
<style type="text/css">
	.st0{fill:#BDBEC1;}
	.st1{fill:#2C3352;}
	.st2{fill:#818DAB;}
	.st3{opacity:0.5;fill:#FFFFFF;}
	.st4{fill:#414A61;}
	.st5{fill:#5B698A;}
	.st6{opacity:0.5;fill:#818DAB;}
	.st7{fill:#9DBE4C;}
	.st8{fill:#B1D756;}
	.st9{fill:#4B5774;}
	.st10{fill:#B8D8DE;}
	.st11{fill:#87A63B;}
	.st12{fill:#CA4468;}
	.st13{opacity:0.4;fill:#87A63B;}
	.st14{fill:#FFB745;}
	.st15{fill:#C3CADE;}
	.st16{fill:#E46A77;}
	.st17{fill:#C6CDE1;}
	.st18{fill:#ADB3C5;}
	.st19{fill:#444B69;}
	.st20{opacity:0.3;}
	.st21{opacity:0.3;fill:#444B69;}
</style>
<g>
	<ellipse class="st0" cx="65" cy="78.6" rx="65" ry="1.1"/>
	<polygon class="st1" points="15.2,48.1 17,50.1 44,50.1 44.5,50.7 85.1,50.7 85.9,50 116.2,50 120.6,46.6 120.5,37.5 114,32.8 
		25.2,32.4 	"/>
	<g>
		<g>
			<polygon class="st2" points="31.9,37.1 31.9,45.5 30.9,45.4 30.8,45.4 30.2,45.3 30.2,37.1 30.7,37.1 31,37.1 			"/>
			<path class="st3" d="M30.9,45.4l-0.1,0l-0.1-8.3l0.3,0C31,38.9,31,43.7,30.9,45.4z"/>
			<polygon class="st4" points="29.9,43.3 32.3,43.3 32.3,50.9 29.7,50.9 			"/>
			<g>
				<polygon class="st5" points="29.8,38.3 29.8,38.7 32.3,38.2 32.3,37.8 				"/>
				<polygon class="st5" points="29.8,39.4 29.8,39.7 32.3,39.2 32.3,38.8 				"/>
				<polygon class="st5" points="29.8,40.4 29.8,40.8 32.3,40.3 32.3,39.8 				"/>
				<polygon class="st5" points="29.8,41.4 29.8,41.8 32.3,41.3 32.3,40.9 				"/>
				<polygon class="st5" points="29.8,42.4 29.8,42.8 32.3,42.3 32.3,41.9 				"/>
			</g>
		</g>
		<g>
			<path class="st2" d="M35.2,51.1c0,2.3-1.8,4.1-4.1,4.1c-2.3,0-4.1-1.8-4.1-4.1c0-2.3,1.8-4.1,4.1-4.1
				C33.4,47,35.2,48.9,35.2,51.1z"/>
			<path class="st6" d="M31.1,47.7c-1.9,0-3.4,1.5-3.4,3.4c0,1.9,1.5,3.4,3.4,3.4c1.9,0,3.4-1.5,3.4-3.4
				C34.5,49.3,33,47.7,31.1,47.7z M31.1,53.3c-1.2,0-2.2-1-2.2-2.2c0-1.2,1-2.2,2.2-2.2c1.2,0,2.2,1,2.2,2.2
				C33.3,52.3,32.3,53.3,31.1,53.3z"/>
			<path class="st4" d="M31.7,51.1c0,0.3-0.3,0.6-0.6,0.6c-0.3,0-0.6-0.3-0.6-0.6s0.3-0.6,0.6-0.6C31.5,50.5,31.7,50.8,31.7,51.1z"
				/>
			<g>
				<path class="st4" d="M31.2,50.1c0.1,0,0.2-0.2,0.2-0.3c0-0.1-0.2-0.2-0.3-0.2c-0.1,0-0.2,0.2-0.2,0.3
					C30.9,50.1,31,50.2,31.2,50.1z"/>
				<path class="st4" d="M31,49.5c0.1,0,0.2-0.2,0.2-0.3c0-0.1-0.2-0.2-0.3-0.2c-0.1,0-0.2,0.2-0.2,0.3C30.7,49.4,30.9,49.5,31,49.5
					z"/>
				<path class="st4" d="M30.8,48.8c0.1,0,0.2-0.2,0.2-0.3c0-0.1-0.2-0.2-0.3-0.2c-0.1,0-0.2,0.2-0.2,0.3
					C30.5,48.7,30.7,48.8,30.8,48.8z"/>
				<path class="st4" d="M30.6,48.1c0.1,0,0.2-0.2,0.2-0.3c0-0.1-0.2-0.2-0.3-0.2c-0.1,0-0.2,0.2-0.2,0.3
					C30.4,48.1,30.5,48.1,30.6,48.1z"/>
				<path class="st4" d="M30.1,50.5c0.1,0.1,0.3,0,0.3-0.1c0.1-0.1,0-0.3-0.1-0.3c-0.1-0.1-0.3,0-0.3,0.1C30,50.3,30,50.4,30.1,50.5
					z"/>
				<path class="st4" d="M29.5,50.1c0.1,0.1,0.3,0,0.3-0.1c0.1-0.1,0-0.3-0.1-0.3c-0.1-0.1-0.3,0-0.3,0.1
					C29.4,49.9,29.4,50.1,29.5,50.1z"/>
				<path class="st4" d="M29.2,49.7c0.1-0.1,0-0.3-0.1-0.3c-0.1-0.1-0.3,0-0.3,0.1c-0.1,0.1,0,0.3,0.1,0.3
					C29,49.8,29.2,49.8,29.2,49.7z"/>
				<path class="st4" d="M28.6,49.3c0.1-0.1,0-0.3-0.1-0.3c-0.1-0.1-0.3,0-0.3,0.1c-0.1,0.1,0,0.3,0.1,0.3
					C28.4,49.5,28.6,49.5,28.6,49.3z"/>
				<path class="st4" d="M29.6,51.2c0,0.1,0.2,0.2,0.3,0.2c0.1,0,0.2-0.2,0.2-0.3c0-0.1-0.2-0.2-0.3-0.2S29.6,51.1,29.6,51.2z"/>
				<path class="st4" d="M29.1,51.1c-0.1,0-0.2,0.2-0.2,0.3c0,0.1,0.2,0.2,0.3,0.2c0.1,0,0.2-0.2,0.2-0.3
					C29.4,51.1,29.3,51.1,29.1,51.1z"/>
				<path class="st4" d="M28.5,51.3c-0.1,0-0.2,0.2-0.2,0.3c0,0.1,0.2,0.2,0.3,0.2c0.1,0,0.2-0.2,0.2-0.3
					C28.7,51.3,28.6,51.2,28.5,51.3z"/>
				<path class="st4" d="M27.8,51.5c-0.1,0-0.2,0.2-0.2,0.3c0,0.1,0.2,0.2,0.3,0.2c0.1,0,0.2-0.2,0.2-0.3
					C28,51.5,27.9,51.4,27.8,51.5z"/>
				<path class="st4" d="M30.4,51.8c-0.1-0.1-0.3,0-0.3,0.1c-0.1,0.1,0,0.3,0.1,0.3c0.1,0.1,0.3,0,0.3-0.1
					C30.5,52,30.5,51.9,30.4,51.8z"/>
				<path class="st4" d="M30,52.4c-0.1-0.1-0.3,0-0.3,0.1c-0.1,0.1,0,0.3,0.1,0.3c0.1,0.1,0.3,0,0.3-0.1
					C30.2,52.6,30.1,52.5,30,52.4z"/>
				<path class="st4" d="M29.7,53c-0.1-0.1-0.3,0-0.3,0.1c-0.1,0.1,0,0.3,0.1,0.3c0.1,0.1,0.3,0,0.3-0.1
					C29.8,53.2,29.8,53.1,29.7,53z"/>
				<path class="st4" d="M29.3,53.6c-0.1-0.1-0.3,0-0.3,0.1c-0.1,0.1,0,0.3,0.1,0.3c0.1,0.1,0.3,0,0.3-0.1
					C29.5,53.8,29.4,53.7,29.3,53.6z"/>
				<path class="st4" d="M31.2,52.6c0.1,0,0.2-0.2,0.2-0.3c0-0.1-0.2-0.2-0.3-0.2c-0.1,0-0.2,0.2-0.2,0.3
					C30.9,52.6,31,52.6,31.2,52.6z"/>
				<path class="st4" d="M31.4,53.3c0.1,0,0.2-0.2,0.2-0.3c0-0.1-0.2-0.2-0.3-0.2c-0.1,0-0.2,0.2-0.2,0.3
					C31.1,53.2,31.2,53.3,31.4,53.3z"/>
				<path class="st4" d="M31.5,54c0.1,0,0.2-0.2,0.2-0.3c0-0.1-0.2-0.2-0.3-0.2c-0.1,0-0.2,0.2-0.2,0.3C31.3,53.9,31.4,54,31.5,54z"
					/>
				<path class="st4" d="M31.6,54.2c-0.1,0-0.2,0.2-0.2,0.3c0,0.1,0.2,0.2,0.3,0.2c0.1,0,0.2-0.2,0.2-0.3
					C31.9,54.2,31.7,54.1,31.6,54.2z"/>
				<path class="st4" d="M32.1,51.8c-0.1-0.1-0.3,0-0.3,0.1c-0.1,0.1,0,0.3,0.1,0.3c0.1,0.1,0.3,0,0.3-0.1
					C32.3,52,32.2,51.9,32.1,51.8z"/>
				<path class="st4" d="M32.7,52.1c-0.1-0.1-0.3,0-0.3,0.1c-0.1,0.1,0,0.3,0.1,0.3c0.1,0.1,0.3,0,0.3-0.1
					C32.9,52.4,32.8,52.2,32.7,52.1z"/>
				<path class="st4" d="M33.3,52.5c-0.1-0.1-0.3,0-0.3,0.1c-0.1,0.1,0,0.3,0.1,0.3c0.1,0.1,0.3,0,0.3-0.1
					C33.5,52.7,33.4,52.6,33.3,52.5z"/>
				<path class="st4" d="M33.9,52.8c-0.1-0.1-0.3,0-0.3,0.1c-0.1,0.1,0,0.3,0.1,0.3c0.1,0.1,0.3,0,0.3-0.1
					C34.1,53.1,34.1,52.9,33.9,52.8z"/>
				<path class="st4" d="M32.6,51.1c0-0.1-0.2-0.2-0.3-0.2c-0.1,0-0.2,0.2-0.2,0.3c0,0.1,0.2,0.2,0.3,0.2
					C32.5,51.3,32.6,51.2,32.6,51.1z"/>
				<path class="st4" d="M33,50.7c-0.1,0-0.2,0.2-0.2,0.3c0,0.1,0.2,0.2,0.3,0.2c0.1,0,0.2-0.2,0.2-0.3S33.1,50.7,33,50.7z"/>
				<path class="st4" d="M33.8,51c0.1,0,0.2-0.2,0.2-0.3s-0.2-0.2-0.3-0.2c-0.1,0-0.2,0.2-0.2,0.3C33.5,51,33.6,51,33.8,51z"/>
				<path class="st4" d="M34.6,50.5c0-0.1-0.2-0.2-0.3-0.2c-0.1,0-0.2,0.2-0.2,0.3c0,0.1,0.2,0.2,0.3,0.2
					C34.6,50.8,34.7,50.6,34.6,50.5z"/>
				<path class="st4" d="M31.9,50.5c0.1,0.1,0.3,0,0.3-0.1c0.1-0.1,0-0.3-0.1-0.3c-0.1-0.1-0.3,0-0.3,0.1
					C31.7,50.3,31.7,50.4,31.9,50.5z"/>
				<path class="st4" d="M32.2,49.9c0.1,0.1,0.3,0,0.3-0.1c0.1-0.1,0-0.3-0.1-0.3c-0.1-0.1-0.3,0-0.3,0.1
					C32.1,49.7,32.1,49.8,32.2,49.9z"/>
				<path class="st4" d="M32.6,49.3c0.1,0.1,0.3,0,0.3-0.1c0.1-0.1,0-0.3-0.1-0.3c-0.1-0.1-0.3,0-0.3,0.1
					C32.4,49,32.4,49.2,32.6,49.3z"/>
				<path class="st4" d="M32.9,48.6c0.1,0.1,0.3,0,0.3-0.1c0.1-0.1,0-0.3-0.1-0.3c-0.1-0.1-0.3,0-0.3,0.1
					C32.8,48.4,32.8,48.6,32.9,48.6z"/>
			</g>
			<path class="st4" d="M28.1,51.1c0,0.4,0.1,0.8,0.2,1.1c0.1,0.3,0,0.6-0.2,0.9l-1.1,1c-0.2,0.2-0.5,0.1-0.6-0.1
				c-0.5-0.8-0.8-1.8-0.8-2.8c0-1.4,0.5-2.7,1.4-3.7c0.1-0.2,0.4-0.2,0.6,0l1,1c0.3,0.3,0.3,0.7,0.1,1
				C28.3,49.9,28.1,50.5,28.1,51.1z"/>
		</g>
	</g>
	<g>
		<g>
			<polygon class="st2" points="108.1,37.1 108.1,45.5 107.2,45.4 107.1,45.4 106.5,45.3 106.5,37.1 107,37.1 107.3,37.1 			"/>
			<path class="st3" d="M107.2,45.4l-0.1,0l-0.1-8.3l0.3,0C107.3,38.9,107.3,43.7,107.2,45.4z"/>
			<polygon class="st4" points="106.2,43.3 108.6,43.3 108.6,50.9 106,50.9 			"/>
			<g>
				<polygon class="st5" points="106.1,38.3 106.1,38.7 108.6,38.2 108.6,37.8 				"/>
				<polygon class="st5" points="106.1,39.4 106.1,39.7 108.6,39.2 108.6,38.8 				"/>
				<polygon class="st5" points="106.1,40.4 106.1,40.8 108.6,40.3 108.6,39.8 				"/>
				<polygon class="st5" points="106.1,41.4 106.1,41.8 108.6,41.3 108.6,40.9 				"/>
				<polygon class="st5" points="106.1,42.4 106.1,42.8 108.6,42.3 108.6,41.9 				"/>
			</g>
		</g>
		<g>
			<circle class="st2" cx="107.4" cy="51.1" r="4.1"/>
			<path class="st6" d="M107.4,47.7c-1.9,0-3.4,1.5-3.4,3.4c0,1.9,1.5,3.4,3.4,3.4c1.9,0,3.4-1.5,3.4-3.4
				C110.8,49.3,109.3,47.7,107.4,47.7z M107.4,53.3c-1.2,0-2.2-1-2.2-2.2c0-1.2,1-2.2,2.2-2.2c1.2,0,2.2,1,2.2,2.2
				C109.5,52.3,108.6,53.3,107.4,53.3z"/>
			<path class="st4" d="M108,51.1c0,0.3-0.3,0.6-0.6,0.6c-0.3,0-0.6-0.3-0.6-0.6s0.3-0.6,0.6-0.6C107.7,50.5,108,50.8,108,51.1z"/>
			<g>
				<path class="st4" d="M107.5,50.1c0.1,0,0.2-0.2,0.2-0.3c0-0.1-0.2-0.2-0.3-0.2c-0.1,0-0.2,0.2-0.2,0.3
					C107.2,50.1,107.3,50.2,107.5,50.1z"/>
				<path class="st4" d="M107.3,49.5c0.1,0,0.2-0.2,0.2-0.3c0-0.1-0.2-0.2-0.3-0.2c-0.1,0-0.2,0.2-0.2,0.3
					C107,49.4,107.1,49.5,107.3,49.5z"/>
				<path class="st4" d="M107.1,48.8c0.1,0,0.2-0.2,0.2-0.3c0-0.1-0.2-0.2-0.3-0.2c-0.1,0-0.2,0.2-0.2,0.3
					C106.8,48.7,107,48.8,107.1,48.8z"/>
				<path class="st4" d="M106.9,48.1c0.1,0,0.2-0.2,0.2-0.3c0-0.1-0.2-0.2-0.3-0.2c-0.1,0-0.2,0.2-0.2,0.3
					C106.6,48.1,106.8,48.1,106.9,48.1z"/>
				<path class="st4" d="M106.4,50.5c0.1,0.1,0.3,0,0.3-0.1c0.1-0.1,0-0.3-0.1-0.3c-0.1-0.1-0.3,0-0.3,0.1
					C106.2,50.3,106.3,50.4,106.4,50.5z"/>
				<path class="st4" d="M105.8,50.1c0.1,0.1,0.3,0,0.3-0.1c0.1-0.1,0-0.3-0.1-0.3c-0.1-0.1-0.3,0-0.3,0.1
					C105.6,49.9,105.7,50.1,105.8,50.1z"/>
				<path class="st4" d="M105.5,49.7c0.1-0.1,0-0.3-0.1-0.3c-0.1-0.1-0.3,0-0.3,0.1c-0.1,0.1,0,0.3,0.1,0.3
					C105.3,49.8,105.4,49.8,105.5,49.7z"/>
				<path class="st4" d="M104.9,49.3c0.1-0.1,0-0.3-0.1-0.3c-0.1-0.1-0.3,0-0.3,0.1c-0.1,0.1,0,0.3,0.1,0.3
					C104.7,49.5,104.8,49.5,104.9,49.3z"/>
				<path class="st4" d="M105.9,51.2c0,0.1,0.2,0.2,0.3,0.2c0.1,0,0.2-0.2,0.2-0.3c0-0.1-0.2-0.2-0.3-0.2
					C106,50.9,105.9,51.1,105.9,51.2z"/>
				<path class="st4" d="M105.4,51.1c-0.1,0-0.2,0.2-0.2,0.3c0,0.1,0.2,0.2,0.3,0.2c0.1,0,0.2-0.2,0.2-0.3
					C105.7,51.1,105.6,51.1,105.4,51.1z"/>
				<path class="st4" d="M104.7,51.3c-0.1,0-0.2,0.2-0.2,0.3c0,0.1,0.2,0.2,0.3,0.2c0.1,0,0.2-0.2,0.2-0.3
					C105,51.3,104.9,51.2,104.7,51.3z"/>
				<path class="st4" d="M104.1,51.5c-0.1,0-0.2,0.2-0.2,0.3c0,0.1,0.2,0.2,0.3,0.2c0.1,0,0.2-0.2,0.2-0.3
					C104.3,51.5,104.2,51.4,104.1,51.5z"/>
				<path class="st4" d="M106.6,51.8c-0.1-0.1-0.3,0-0.3,0.1c-0.1,0.1,0,0.3,0.1,0.3c0.1,0.1,0.3,0,0.3-0.1
					C106.8,52,106.8,51.9,106.6,51.8z"/>
				<path class="st4" d="M106.3,52.4c-0.1-0.1-0.3,0-0.3,0.1c-0.1,0.1,0,0.3,0.1,0.3c0.1,0.1,0.3,0,0.3-0.1
					C106.5,52.6,106.4,52.5,106.3,52.4z"/>
				<path class="st4" d="M105.9,53c-0.1-0.1-0.3,0-0.3,0.1c-0.1,0.1,0,0.3,0.1,0.3c0.1,0.1,0.3,0,0.3-0.1
					C106.1,53.2,106.1,53.1,105.9,53z"/>
				<path class="st4" d="M105.6,53.6c-0.1-0.1-0.3,0-0.3,0.1c-0.1,0.1,0,0.3,0.1,0.3c0.1,0.1,0.3,0,0.3-0.1
					C105.8,53.8,105.7,53.7,105.6,53.6z"/>
				<path class="st4" d="M107.5,52.6c0.1,0,0.2-0.2,0.2-0.3c0-0.1-0.2-0.2-0.3-0.2c-0.1,0-0.2,0.2-0.2,0.3
					C107.2,52.6,107.3,52.6,107.5,52.6z"/>
				<path class="st4" d="M107.6,53.3c0.1,0,0.2-0.2,0.2-0.3c0-0.1-0.2-0.2-0.3-0.2c-0.1,0-0.2,0.2-0.2,0.3
					C107.4,53.2,107.5,53.3,107.6,53.3z"/>
				<path class="st4" d="M107.8,54c0.1,0,0.2-0.2,0.2-0.3c0-0.1-0.2-0.2-0.3-0.2c-0.1,0-0.2,0.2-0.2,0.3
					C107.6,53.9,107.7,54,107.8,54z"/>
				<path class="st4" d="M107.9,54.2c-0.1,0-0.2,0.2-0.2,0.3c0,0.1,0.2,0.2,0.3,0.2c0.1,0,0.2-0.2,0.2-0.3
					C108.2,54.2,108,54.1,107.9,54.2z"/>
				<path class="st4" d="M108.4,51.8c-0.1-0.1-0.3,0-0.3,0.1c-0.1,0.1,0,0.3,0.1,0.3c0.1,0.1,0.3,0,0.3-0.1
					C108.5,52,108.5,51.9,108.4,51.8z"/>
				<path class="st4" d="M109,52.1c-0.1-0.1-0.3,0-0.3,0.1c-0.1,0.1,0,0.3,0.1,0.3c0.1,0.1,0.3,0,0.3-0.1
					C109.2,52.4,109.1,52.2,109,52.1z"/>
				<path class="st4" d="M109.6,52.5c-0.1-0.1-0.3,0-0.3,0.1c-0.1,0.1,0,0.3,0.1,0.3c0.1,0.1,0.3,0,0.3-0.1
					C109.8,52.7,109.7,52.6,109.6,52.5z"/>
				<path class="st4" d="M110.2,52.8c-0.1-0.1-0.3,0-0.3,0.1c-0.1,0.1,0,0.3,0.1,0.3c0.1,0.1,0.3,0,0.3-0.1
					C110.4,53.1,110.3,52.9,110.2,52.8z"/>
				<path class="st4" d="M108.9,51.1c0-0.1-0.2-0.2-0.3-0.2c-0.1,0-0.2,0.2-0.2,0.3c0,0.1,0.2,0.2,0.3,0.2
					C108.8,51.3,108.9,51.2,108.9,51.1z"/>
				<path class="st4" d="M109.2,50.7c-0.1,0-0.2,0.2-0.2,0.3c0,0.1,0.2,0.2,0.3,0.2c0.1,0,0.2-0.2,0.2-0.3
					C109.5,50.8,109.4,50.7,109.2,50.7z"/>
				<path class="st4" d="M110,51c0.1,0,0.2-0.2,0.2-0.3c0-0.1-0.2-0.2-0.3-0.2c-0.1,0-0.2,0.2-0.2,0.3C109.8,51,109.9,51,110,51z"/>
				<path class="st4" d="M110.9,50.5c0-0.1-0.2-0.2-0.3-0.2c-0.1,0-0.2,0.2-0.2,0.3c0,0.1,0.2,0.2,0.3,0.2
					C110.9,50.8,110.9,50.6,110.9,50.5z"/>
				<path class="st4" d="M108.1,50.5c0.1,0.1,0.3,0,0.3-0.1c0.1-0.1,0-0.3-0.1-0.3c-0.1-0.1-0.3,0-0.3,0.1
					C108,50.3,108,50.4,108.1,50.5z"/>
				<path class="st4" d="M108.5,49.9c0.1,0.1,0.3,0,0.3-0.1c0.1-0.1,0-0.3-0.1-0.3c-0.1-0.1-0.3,0-0.3,0.1
					C108.3,49.7,108.4,49.8,108.5,49.9z"/>
				<path class="st4" d="M108.8,49.3c0.1,0.1,0.3,0,0.3-0.1c0.1-0.1,0-0.3-0.1-0.3c-0.1-0.1-0.3,0-0.3,0.1
					C108.7,49,108.7,49.2,108.8,49.3z"/>
				<path class="st4" d="M109.2,48.6c0.1,0.1,0.3,0,0.3-0.1c0.1-0.1,0-0.3-0.1-0.3c-0.1-0.1-0.3,0-0.3,0.1
					C109,48.4,109.1,48.6,109.2,48.6z"/>
			</g>
			<path class="st4" d="M104.4,51.1c0,0.4,0.1,0.8,0.2,1.1c0.1,0.3,0,0.6-0.2,0.9l-1.1,1c-0.2,0.2-0.5,0.1-0.6-0.1
				c-0.5-0.8-0.8-1.8-0.8-2.8c0-1.4,0.5-2.7,1.4-3.7c0.1-0.2,0.4-0.2,0.6,0l1,1c0.3,0.3,0.3,0.7,0.1,1
				C104.6,49.9,104.4,50.5,104.4,51.1z"/>
		</g>
	</g>
	<path class="st7" d="M126.1,42.7c-0.7,1.9-1.5,3.5-2,3.8c-0.1,0-0.3,0.1-0.6,0.2c-0.8,0.1-2.3,0.3-4.2,0.5
		c-0.7,0.1-1.4,0.2-2.2,0.2c0,0,0-0.1,0-0.1c0-1.3-0.2-2.5-0.7-3.6c-1.4-3.6-5-6.2-9.1-6.2c-4.8,0-8.8,3.5-9.6,8.1
		c-0.1,0.6-0.2,1.1-0.2,1.7c0,0.6,0.1,1.2,0.2,1.7c-0.5,0-0.9,0-1.2,0c0,0-0.4,0-1,0H40.5c0.1-0.6,0.2-1.2,0.2-1.8c0-0.3,0-0.7,0-1
		c-0.5-5-4.7-8.8-9.7-8.8c-5.1,0-9.3,3.9-9.7,8.9c0,0.3,0,0.6,0,0.9c0,0.6,0.1,1.2,0.2,1.8H19c-3.5,0-9-1.5-9.1-2.1
		c-0.1-0.5,1.1-1,1.1-1l0-0.3l-0.1-2.9l-1-0.8c0,0-0.7-3.1-0.4-3.8c0.2-0.7,2-1.4,2-1.4s1-2,4.6-4.4c0.4-0.3,0.9-0.6,1.4-0.9
		c4.9-2.8,22-3.9,22-3.9s13.2-8.8,21.2-12c0.4-0.2,0.8-0.3,1.2-0.5c7.8-2.7,39.6-4,49-0.3c4.2,1.7,8.6,6.4,11,9.8
		c0.7,1,1.3,1.8,1.6,2.5c0.2,0.3,0.3,0.6,0.4,0.8c0.4,1.3,0.2,3.4,0,4.6c-0.1,0.6-0.2,1-0.2,1s3.1,2.2,3.6,4.1
		C127.4,38.6,126.9,40.8,126.1,42.7z"/>
	<path class="st8" d="M123.5,27.1c-12.2-0.4-87.2,1.4-107.5,5.3c0.4-0.3,0.9-0.6,1.4-0.9c4.9-2.8,22-3.9,22-3.9s13.2-8.8,21.2-12
		c0.4-0.2,0.8-0.3,1.2-0.5c7.8-2.7,39.6-4,49-0.3c4.2,1.7,8.6,6.4,11,9.8C122.6,25.6,123.1,26.5,123.5,27.1z"/>
	<path class="st9" d="M60.6,15.7C57,18.8,47.6,26.7,46.7,27c-1.1,0.4-5.5,0.7-7.3,0.7C39.4,27.7,52.6,18.9,60.6,15.7z"/>
	<path class="st10" d="M19.2,35.6c-2.3,1.5-6.1,2.5-7.8,1.3c0,0,1.2-2.6,2.1-3.3c0.5-0.4,3.2-1.4,5.2-1.6c1.3-0.1,2.4,0.1,2.6,0.9
		C21.4,33.8,20.5,34.7,19.2,35.6z"/>
	<path class="st1" d="M10.8,42.8c1.8,0.3,4.1,0,4.1,0s0.7,2.6,0.5,3.5c-0.1,0.9-4.6-0.2-4.6-0.2L10.8,42.8z"/>
	<path class="st9" d="M54.1,26.4c6.1-0.2,50.8-1.4,51.1-2.1s-2.6-6.9-3.3-7.8c-0.7-0.9-15.7-1-23.3-1c-7.6,0-13.9,1.6-15.4,2.1
		C61.8,18,54.1,26.4,54.1,26.4z"/>
	<polygon class="st7" points="77.7,14.8 75.8,26.8 82.3,26.4 81.3,14.8 	"/>
	<path class="st11" d="M105.7,19c-1-2.6-2.4-4-4.1-4.2c-8.1-1.1-15.7-1.2-22-1c-0.1,0-0.2,0-0.3,0c-9.1,0.4-15.5,1.6-16.7,2.3
		c-2.1,1.1-10.8,8.3-11.2,9.9C50.9,27.5,51,46,51,46.7l0.3,0c0-0.2-0.1-19.2,0.3-20.6c0.4-1.4,8.8-8.5,11.1-9.7
		c1.2-0.6,7.5-1.8,16.5-2.2c-0.4,4.2-1.1,11.7-1.1,13.9c-0.1,3,0.3,18.2,0.3,18.3l0.3,0c0-0.2-0.4-15.3-0.3-18.3
		c0.1-2.2,0.8-9.8,1.1-13.9c6.3-0.3,13.9-0.1,22,1c1.5,0.2,2.7,1.4,3.7,3.5c2,4.5,1.9,11.3,1.5,11.8c-0.1,0.1-0.7,0.2-1.2,0.3
		c-2.4,0.4-7.5,1.3-10.9,6.8c-2.1,3.3-2,8.4-2,8.6l0.3,0c0-0.1-0.1-5.3,1.9-8.5c3.4-5.4,8.4-6.2,10.7-6.6c0.8-0.1,1.2-0.2,1.4-0.4
		C107.4,30,107.4,23.4,105.7,19z"/>
	<path class="st11" d="M68.5,29.5c0,0.9,6.7,0.7,6.7,0S68.5,28.7,68.5,29.5z"/>
	<path class="st11" d="M95.4,28.9c0,0.9,6.7,0.7,6.7,0S95.4,28,95.4,28.9z"/>
	<path class="st9" d="M121.9,24.6c-2-0.3-4.9-0.8-5.7-1.5c-1.3-1.1-5.3-8.2-5.3-8.2C115.1,16.5,119.4,21.3,121.9,24.6z"/>
	<path class="st12" d="M123.8,32.5c-2.4-0.1-7.2-0.5-7.2-1.1c0-0.8,0-2.8,0.8-3.3c0.8-0.5,6.4-0.3,6.4-0.3
		C124.3,29.2,124,31.2,123.8,32.5z"/>
	<path class="st11" d="M53.4,25.5c0,0-0.8,0.5-1,0.8c-0.2,0.3,0.1,1.2,0.4,1.5c0.3,0.2,1.4-0.2,1.4-0.2s2.7,1.1,3.5,0.8
		c0.8-0.2,1.1-5.4-0.2-5.9C56.3,21.9,53.4,25.5,53.4,25.5z"/>
	<path class="st8" d="M127.2,37.6c-2.9-0.5-6-2.9-7-3.7c-0.1-0.1-0.2-0.2-0.2-0.2c0,0,0,0,0,0l3.7-0.2
		C123.6,33.5,126.8,35.7,127.2,37.6z"/>
	<path class="st11" d="M21.1,47.3c0,0.6,0.1,1.2,0.2,1.8H19c-3.5,0-9-1.5-9.1-2.1c-0.1-0.5,1.1-1,1.1-1l0-0.3l4.6,0.5
		c0.7,0.1,2.7,0.1,5.6,0.1C21.1,46.7,21.1,47,21.1,47.3z"/>
	<path class="st11" d="M97.6,47.3c0,0.6,0.1,1.2,0.2,1.7c-0.5,0-0.9,0-1.2,0c0,0-45.4,0-53.9,0h-2.2c0.1-0.6,0.2-1.2,0.2-1.8
		c0-0.3,0-0.7,0-1c0.7,0,1.4,0,2.2,0c22.8-0.2,51.9-0.7,54.1-0.7c0.2,0,0.5,0,0.9,0C97.6,46.2,97.6,46.7,97.6,47.3z"/>
	<path class="st11" d="M126.1,42.7c-0.7,1.9-1.5,3.5-2,3.8c-0.2,0.1-2.1,0.4-4.9,0.7c-0.7,0.1-1.4,0.2-2.2,0.2c0,0,0-0.1,0-0.1
		c0-1.3-0.2-2.5-0.7-3.6c0.8-0.1,1.5-0.2,2.2-0.2C122.5,43.1,125.5,42.7,126.1,42.7z"/>
	<path class="st8" d="M42.8,47.3c0,0.6,0,1.2-0.1,1.8h-2.2c0.1-0.6,0.2-1.2,0.2-1.8c0-0.3,0-0.7,0-1c-0.5-5-4.7-8.8-9.7-8.8
		c-5.1,0-9.3,3.9-9.7,8.9c0,0.3,0,0.6,0,0.9c0,0.6,0.1,1.2,0.2,1.8h-2.2c-0.1-0.6-0.1-1.2-0.1-1.8c0-6.6,5.4-11.9,11.9-11.9
		c6.3,0,11.4,4.8,11.9,11C42.8,46.7,42.8,47,42.8,47.3z"/>
	<path class="st8" d="M117.2,47.5c0,0,0-0.1,0-0.1c0-1.3-0.2-2.5-0.7-3.6c-1.4-3.6-5-6.2-9.1-6.2c-4.8,0-8.8,3.5-9.6,8.1
		c-0.1,0.6-0.2,1.1-0.2,1.7c0,0.6,0.1,1.2,0.2,1.7c-0.5,0-0.9,0-1.2,0c0,0-0.4,0-1,0c-0.1-0.6-0.1-1.2-0.1-1.8
		c0-6.6,5.4-11.9,12-11.9c5.2,0,9.7,3.4,11.3,8.1c0.4,1.2,0.6,2.4,0.6,3.7C118.6,47.3,117.9,47.4,117.2,47.5z"/>
	<path class="st13" d="M126.1,42.7c-0.7,1.9-1.5,3.5-2,3.8c-0.1,0-0.3,0.1-0.6,0.2c0.7-2.1,1.4-7.1,0.4-8.7c-0.9-1.5-3-3.4-3.7-4
		c-0.1-0.1-0.2-0.2-0.2-0.2c0,0,0,0,0,0s0.4-5.5,0.2-6.9c-0.2-1.4-5.6-9.9-9.3-11.9c4.2,1.7,8.6,6.4,11,9.8c1.1,1.5,1.8,2.6,2,3.2
		c0.4,1.3,0.2,3.4,0,4.6c-0.1,0.6-0.2,1-0.2,1s3.1,2.2,3.6,4.1C127.4,38.6,126.9,40.8,126.1,42.7z"/>
	<path class="st14" d="M19.2,35.6c0.2-1,0.2-2.4-0.5-3.5c1.3-0.1,2.4,0.1,2.6,0.9C21.4,33.8,20.5,34.7,19.2,35.6z"/>
	<g>
		<polygon class="st15" points="50,2.1 50,77.4 46.9,77.2 46.9,2.1 		"/>
		<g>
			<polygon class="st16" points="50,5.7 50,8.5 46.9,9.9 46.9,7 			"/>
			<polygon class="st16" points="50,11 50,13.8 46.9,15.2 46.9,12.3 			"/>
			<polygon class="st16" points="50,16.3 50,19.1 46.9,20.5 46.9,17.6 			"/>
			<polygon class="st16" points="50,21.6 50,24.4 46.9,25.8 46.9,22.9 			"/>
			<polygon class="st16" points="50,26.9 50,29.7 46.9,31.2 46.9,28.2 			"/>
			<polygon class="st16" points="50,32.2 50,35 46.9,36.5 46.9,33.5 			"/>
			<polygon class="st16" points="50,37.6 50,40.3 46.9,41.8 46.9,38.8 			"/>
			<polygon class="st16" points="50,42.9 50,45.6 46.9,47.1 46.9,44.1 			"/>
			<polygon class="st16" points="50,48.2 50,50.9 46.9,52.4 46.9,49.4 			"/>
			<polygon class="st16" points="50,53.5 50,56.3 46.9,57.7 46.9,54.8 			"/>
			<polygon class="st16" points="50,58.8 50,61.6 46.9,63 46.9,60.1 			"/>
			<polygon class="st16" points="50,64.1 50,66.9 46.9,68.3 46.9,65.4 			"/>
			<polygon class="st16" points="50,69.4 50,72.2 46.9,73.6 46.9,70.7 			"/>
		</g>
		<rect x="41.2" y="76.2" class="st17" width="14.6" height="2.3"/>
		<polygon class="st17" points="46.6,0 45.9,3.4 51.6,3.6 51,0.3 		"/>
		<polygon class="st18" points="44.5,50.4 52.2,50.4 52,49.8 45,49.6 		"/>
		<g>
			<polygon class="st17" points="43,49.2 43.1,51.1 45.4,51.4 45.7,49.2 			"/>
			<polygon class="st17" points="53.9,49.2 53.8,51.1 51.5,51.4 51.2,49.2 			"/>
		</g>
	</g>
	<g>
		<polygon class="st15" points="94.2,2.1 94.2,77.4 91.1,77.2 91.1,2.1 		"/>
		<g>
			<polygon class="st16" points="94.2,5.7 94.2,8.5 91.1,9.9 91.1,7 			"/>
			<polygon class="st16" points="94.2,11 94.2,13.8 91.1,15.2 91.1,12.3 			"/>
			<polygon class="st16" points="94.2,16.3 94.2,19.1 91.1,20.5 91.1,17.6 			"/>
			<polygon class="st16" points="94.2,21.6 94.2,24.4 91.1,25.8 91.1,22.9 			"/>
			<polygon class="st16" points="94.2,26.9 94.2,29.7 91.1,31.2 91.1,28.2 			"/>
			<polygon class="st16" points="94.2,32.2 94.2,35 91.1,36.5 91.1,33.5 			"/>
			<polygon class="st16" points="94.2,37.6 94.2,40.3 91.1,41.8 91.1,38.8 			"/>
			<polygon class="st16" points="94.2,42.9 94.2,45.6 91.1,47.1 91.1,44.1 			"/>
			<polygon class="st16" points="94.2,48.2 94.2,50.9 91.1,52.4 91.1,49.4 			"/>
			<polygon class="st16" points="94.2,53.5 94.2,56.3 91.1,57.7 91.1,54.8 			"/>
			<polygon class="st16" points="94.2,58.8 94.2,61.6 91.1,63 91.1,60.1 			"/>
			<polygon class="st16" points="94.2,64.1 94.2,66.9 91.1,68.3 91.1,65.4 			"/>
			<polygon class="st16" points="94.2,69.4 94.2,72.2 91.1,73.6 91.1,70.7 			"/>
		</g>
		<rect x="85.4" y="76.2" class="st17" width="14.6" height="2.3"/>
		<polygon class="st17" points="90.8,0 90.1,3.4 95.8,3.6 95.2,0.3 		"/>
		<polygon class="st18" points="88.7,50.4 96.4,50.4 96.2,49.8 89.2,49.6 		"/>
		<g>
			<polygon class="st17" points="87.2,49.2 87.3,51.1 89.6,51.4 89.9,49.2 			"/>
			<polygon class="st17" points="98.1,49.2 98,51.1 95.7,51.4 95.4,49.2 			"/>
		</g>
	</g>
	<g>
		<path class="st19" d="M27.6,74v3.4c0,0.1,0,0.1,0,0.2c0,0.2-0.1,0.3-0.2,0.4c-0.1,0.2-0.3,0.4-0.6,0.4c-0.1,0-0.2,0-0.3,0H11.4
			c0,0,0,0,0,0c-0.6,0-1-0.5-1-1.1V74c0-0.6,0.5-1.1,1.1-1.1h15.2c0,0,0.1,0,0.1,0c0.1,0,0.2,0,0.3,0.1c0.2,0.1,0.4,0.3,0.5,0.5
			C27.6,73.7,27.6,73.8,27.6,74z"/>
		<g class="st20">
			<path class="st19" d="M10.4,75.7l1.3,2.8h-0.3c0,0,0,0,0,0l-1-2.2v-1.1c0.3-0.6,0.8-1.5,1.2-2.3h0.4
				C11.5,73.7,10.8,74.8,10.4,75.7z"/>
			<path class="st19" d="M11.6,75.7l1.3,2.8h-0.4l-1.3-2.8l0-0.1c0.3-0.5,0.9-1.8,1.4-2.7H13C12.6,73.7,12,74.8,11.6,75.7z"/>
			<path class="st19" d="M12.7,75.7l1.3,2.8h-0.4l-1.3-2.8l0-0.1c0.3-0.5,0.9-1.8,1.4-2.7h0.4C13.8,73.7,13.2,74.8,12.7,75.7z"/>
			<path class="st19" d="M13.9,75.7l1.3,2.8h-0.4l-1.3-2.8l0-0.1c0.3-0.5,0.9-1.8,1.4-2.7h0.4C15,73.7,14.3,74.8,13.9,75.7z"/>
			<path class="st19" d="M15.1,75.7l1.3,2.8H16l-1.3-2.8l0-0.1c0.3-0.5,0.9-1.8,1.4-2.7h0.4C16.1,73.7,15.5,74.8,15.1,75.7z"/>
			<path class="st19" d="M16.2,75.7l1.3,2.8h-0.4l-1.3-2.8l0-0.1c0.3-0.5,0.9-1.8,1.4-2.7h0.4C17.3,73.7,16.7,74.8,16.2,75.7z"/>
			<path class="st19" d="M17.4,75.7l1.3,2.8h-0.4L17,75.7l0-0.1c0.3-0.5,0.9-1.8,1.4-2.7h0.4C18.5,73.7,17.8,74.8,17.4,75.7z"/>
			<path class="st19" d="M18.6,75.7l1.3,2.8h-0.4l-1.3-2.8l0-0.1c0.3-0.5,0.9-1.8,1.4-2.7H20C19.6,73.7,19,74.8,18.6,75.7z"/>
			<path class="st19" d="M19.7,75.7l1.3,2.8h-0.4l-1.3-2.8l0-0.1c0.3-0.5,0.9-1.8,1.4-2.7h0.4C20.8,73.7,20.2,74.8,19.7,75.7z"/>
			<path class="st19" d="M20.9,75.7l1.3,2.8h-0.4l-1.3-2.8l0-0.1c0.3-0.5,0.9-1.8,1.4-2.7h0.4C22,73.7,21.3,74.8,20.9,75.7z"/>
			<path class="st19" d="M22.1,75.7l1.3,2.8H23l-1.3-2.8l0-0.1c0.3-0.5,0.9-1.8,1.4-2.7h0.4C23.1,73.7,22.5,74.8,22.1,75.7z"/>
			<path class="st19" d="M23.2,75.7l1.3,2.8h-0.4l-1.3-2.8l0-0.1c0.3-0.5,0.9-1.8,1.4-2.7h0.4C24.3,73.7,23.7,74.8,23.2,75.7z"/>
			<path class="st19" d="M24.4,75.7l1.3,2.8h-0.4L24,75.7l0-0.1c0.3-0.5,0.9-1.8,1.4-2.7h0.4C25.5,73.7,24.8,74.8,24.4,75.7z"/>
			<path class="st19" d="M25.6,75.7l1.3,2.7c-0.1,0-0.2,0-0.3,0h0l-1.3-2.8l0-0.1c0.3-0.5,0.9-1.8,1.4-2.7c0.1,0,0.2,0,0.3,0.1
				C26.6,73.8,26,74.9,25.6,75.7z"/>
			<path class="st19" d="M27.6,74c-0.3,0.6-0.6,1.2-0.9,1.7l0.9,1.8c0,0.2-0.1,0.3-0.2,0.4l-1.1-2.3l0-0.1c0.2-0.4,0.7-1.3,1.1-2.1
				C27.6,73.7,27.6,73.8,27.6,74L27.6,74z"/>
		</g>
		<path class="st21" d="M27.6,76.9v0.5c0,0.1,0,0.1,0,0.2c0,0.2-0.1,0.3-0.2,0.4c-0.1,0.2-0.3,0.4-0.6,0.4c-0.1,0-0.2,0-0.3,0H11.4
			c0,0,0,0,0,0c-0.6,0-1-0.5-1-1.1v-0.9C14.7,77.9,24.3,77.4,27.6,76.9z"/>
	</g>
	<g>
		<path class="st19" d="M25,68.4v3.4c0,0.1,0,0.1,0,0.2c0,0.2-0.1,0.3-0.2,0.4c-0.1,0.2-0.3,0.4-0.6,0.4c-0.1,0-0.2,0-0.3,0H8.8
			c0,0,0,0,0,0c-0.6,0-1-0.5-1-1.1v-3.4c0-0.6,0.5-1.1,1.1-1.1H24c0,0,0.1,0,0.1,0c0.1,0,0.2,0,0.3,0.1c0.2,0.1,0.4,0.3,0.5,0.5
			C25,68.1,25,68.3,25,68.4z"/>
		<g class="st20">
			<path class="st19" d="M7.8,70.1l1.3,2.8H8.8c0,0,0,0,0,0l-1-2.2v-1.1c0.3-0.6,0.8-1.5,1.2-2.3h0.4C8.9,68.1,8.3,69.3,7.8,70.1z"
				/>
			<path class="st19" d="M9,70.1l1.3,2.8H9.9l-1.3-2.8l0-0.1c0.3-0.5,0.9-1.8,1.4-2.7h0.4C10.1,68.1,9.4,69.3,9,70.1z"/>
			<path class="st19" d="M10.2,70.1l1.3,2.8h-0.4l-1.3-2.8l0-0.1c0.3-0.5,0.9-1.8,1.4-2.7h0.4C11.2,68.1,10.6,69.3,10.2,70.1z"/>
			<path class="st19" d="M11.3,70.1l1.3,2.8h-0.4L11,70.1l0-0.1c0.3-0.5,0.9-1.8,1.4-2.7h0.4C12.4,68.1,11.8,69.3,11.3,70.1z"/>
			<path class="st19" d="M12.5,70.1l1.3,2.8h-0.4l-1.3-2.8l0-0.1c0.3-0.5,0.9-1.8,1.4-2.7H14C13.6,68.1,12.9,69.3,12.5,70.1z"/>
			<path class="st19" d="M13.7,70.1l1.3,2.8h-0.4l-1.3-2.8l0-0.1c0.3-0.5,0.9-1.8,1.4-2.7h0.4C14.7,68.1,14.1,69.3,13.7,70.1z"/>
			<path class="st19" d="M14.8,70.1l1.3,2.8h-0.4l-1.3-2.8l0-0.1c0.3-0.5,0.9-1.8,1.4-2.7h0.4C15.9,68.1,15.3,69.3,14.8,70.1z"/>
			<path class="st19" d="M16,70.1l1.3,2.8h-0.4l-1.3-2.8l0-0.1c0.3-0.5,0.9-1.8,1.4-2.7h0.4C17.1,68.1,16.4,69.3,16,70.1z"/>
			<path class="st19" d="M17.2,70.1l1.3,2.8h-0.4l-1.3-2.8l0-0.1c0.3-0.5,0.9-1.8,1.4-2.7h0.4C18.2,68.1,17.6,69.3,17.2,70.1z"/>
			<path class="st19" d="M18.3,70.1l1.3,2.8h-0.4L18,70.1l0-0.1c0.3-0.5,0.9-1.8,1.4-2.7h0.4C19.4,68.1,18.8,69.3,18.3,70.1z"/>
			<path class="st19" d="M19.5,70.1l1.3,2.8h-0.4l-1.3-2.8l0-0.1c0.3-0.5,0.9-1.8,1.4-2.7H21C20.6,68.1,19.9,69.3,19.5,70.1z"/>
			<path class="st19" d="M20.7,70.1l1.3,2.8h-0.4l-1.3-2.8l0-0.1c0.3-0.5,0.9-1.8,1.4-2.7h0.4C21.7,68.1,21.1,69.3,20.7,70.1z"/>
			<path class="st19" d="M21.8,70.1l1.3,2.8h-0.4l-1.3-2.8l0-0.1c0.3-0.5,0.9-1.8,1.4-2.7h0.4C22.9,68.1,22.3,69.3,21.8,70.1z"/>
			<path class="st19" d="M23,70.1l1.3,2.7c-0.1,0-0.2,0-0.3,0h0l-1.3-2.8l0-0.1c0.3-0.5,0.9-1.8,1.4-2.7c0.1,0,0.2,0,0.3,0.1
				C24,68.2,23.4,69.3,23,70.1z"/>
			<path class="st19" d="M25,68.5c-0.3,0.6-0.6,1.2-0.9,1.7L25,72c0,0.2-0.1,0.3-0.2,0.4l-1.1-2.3l0-0.1c0.2-0.4,0.7-1.3,1.1-2.1
				C25,68.1,25,68.3,25,68.5L25,68.5z"/>
		</g>
		<path class="st21" d="M25,71.3v0.5c0,0.1,0,0.1,0,0.2c0,0.2-0.1,0.3-0.2,0.4c-0.1,0.2-0.3,0.4-0.6,0.4c-0.1,0-0.2,0-0.3,0H8.8
			c0,0,0,0,0,0c-0.6,0-1-0.5-1-1.1V71C12.2,72.3,21.7,71.9,25,71.3z"/>
	</g>
	<g>
		<path class="st19" d="M28,62.9v3.4c0,0.1,0,0.1,0,0.2c0,0.2-0.1,0.3-0.2,0.4c-0.1,0.2-0.3,0.4-0.6,0.4c-0.1,0-0.2,0-0.3,0H11.8
			c0,0,0,0,0,0c-0.6,0-1-0.5-1-1.1v-3.4c0-0.6,0.5-1.1,1.1-1.1h15.2c0,0,0.1,0,0.1,0c0.1,0,0.2,0,0.3,0.1c0.2,0.1,0.4,0.3,0.5,0.5
			C28,62.6,28,62.7,28,62.9z"/>
		<g class="st20">
			<path class="st19" d="M10.8,64.6l1.3,2.8h-0.3c0,0,0,0,0,0l-1-2.2v-1.1c0.3-0.6,0.8-1.5,1.2-2.3h0.4
				C11.9,62.6,11.2,63.7,10.8,64.6z"/>
			<path class="st19" d="M12,64.6l1.3,2.8h-0.4l-1.3-2.8l0-0.1c0.3-0.5,0.9-1.8,1.4-2.7h0.4C13,62.6,12.4,63.7,12,64.6z"/>
			<path class="st19" d="M13.1,64.6l1.3,2.8h-0.4l-1.3-2.8l0-0.1c0.3-0.5,0.9-1.8,1.4-2.7h0.4C14.2,62.6,13.6,63.7,13.1,64.6z"/>
			<path class="st19" d="M14.3,64.6l1.3,2.8h-0.4l-1.3-2.8l0-0.1c0.3-0.5,0.9-1.8,1.4-2.7h0.4C15.4,62.6,14.7,63.7,14.3,64.6z"/>
			<path class="st19" d="M15.5,64.6l1.3,2.8h-0.4l-1.3-2.8l0-0.1c0.3-0.5,0.9-1.8,1.4-2.7h0.4C16.5,62.6,15.9,63.7,15.5,64.6z"/>
			<path class="st19" d="M16.6,64.6l1.3,2.8h-0.4l-1.3-2.8l0-0.1c0.3-0.5,0.9-1.8,1.4-2.7h0.4C17.7,62.6,17.1,63.7,16.6,64.6z"/>
			<path class="st19" d="M17.8,64.6l1.3,2.8h-0.4l-1.3-2.8l0-0.1c0.3-0.5,0.9-1.8,1.4-2.7h0.4C18.9,62.6,18.2,63.7,17.8,64.6z"/>
			<path class="st19" d="M19,64.6l1.3,2.8h-0.4l-1.3-2.8l0-0.1c0.3-0.5,0.9-1.8,1.4-2.7h0.4C20,62.6,19.4,63.7,19,64.6z"/>
			<path class="st19" d="M20.1,64.6l1.3,2.8h-0.4l-1.3-2.8l0-0.1c0.3-0.5,0.9-1.8,1.4-2.7h0.4C21.2,62.6,20.6,63.7,20.1,64.6z"/>
			<path class="st19" d="M21.3,64.6l1.3,2.8h-0.4l-1.3-2.8l0-0.1c0.3-0.5,0.9-1.8,1.4-2.7h0.4C22.4,62.6,21.7,63.7,21.3,64.6z"/>
			<path class="st19" d="M22.5,64.6l1.3,2.8h-0.4l-1.3-2.8l0-0.1c0.3-0.5,0.9-1.8,1.4-2.7h0.4C23.5,62.6,22.9,63.7,22.5,64.6z"/>
			<path class="st19" d="M23.6,64.6l1.3,2.8h-0.4l-1.3-2.8l0-0.1c0.3-0.5,0.9-1.8,1.4-2.7h0.4C24.7,62.6,24.1,63.7,23.6,64.6z"/>
			<path class="st19" d="M24.8,64.6l1.3,2.8h-0.4l-1.3-2.8l0-0.1c0.3-0.5,0.9-1.8,1.4-2.7h0.4C25.9,62.6,25.2,63.7,24.8,64.6z"/>
			<path class="st19" d="M26,64.6l1.3,2.7c-0.1,0-0.2,0-0.3,0h0l-1.3-2.8l0-0.1c0.3-0.5,0.9-1.8,1.4-2.7c0.1,0,0.2,0,0.3,0.1
				C27,62.7,26.4,63.8,26,64.6z"/>
			<path class="st19" d="M28,62.9c-0.3,0.6-0.6,1.2-0.9,1.7l0.9,1.8c0,0.2-0.1,0.3-0.2,0.4l-1.1-2.3l0-0.1c0.2-0.4,0.7-1.3,1.1-2.1
				C28,62.6,28,62.7,28,62.9L28,62.9z"/>
		</g>
		<path class="st21" d="M28,65.8v0.5c0,0.1,0,0.1,0,0.2c0,0.2-0.1,0.3-0.2,0.4c-0.1,0.2-0.3,0.4-0.6,0.4c-0.1,0-0.2,0-0.3,0H11.8
			c0,0,0,0,0,0c-0.6,0-1-0.5-1-1.1v-0.9C15.1,66.8,24.7,66.3,28,65.8z"/>
	</g>
	<g>
		<path class="st19" d="M31.9,61L28.7,62c0,0-0.1,0-0.1,0.1c-0.1,0.1-0.3,0.2-0.4,0.3c-0.2,0.2-0.2,0.4-0.2,0.7c0,0.1,0,0.2,0.1,0.3
			l4.9,14.4c0,0,0,0,0,0c0.2,0.5,0.8,0.8,1.3,0.6l3.2-1.1c0.6-0.2,0.9-0.8,0.7-1.4l-4.9-14.4c0,0,0-0.1-0.1-0.1
			c0-0.1-0.1-0.2-0.2-0.3c-0.2-0.2-0.4-0.3-0.7-0.3C32.2,60.9,32.1,60.9,31.9,61z"/>
		<g class="st20">
			<path class="st19" d="M35.9,77.8l-3-0.3l0.1,0.3c0,0,0,0,0,0l2.4,0.3l1-0.3c0.5-0.5,1.2-1.3,1.7-1.9L38,75.5
				C37.4,76.1,36.5,77.1,35.9,77.8z"/>
			<path class="st19" d="M35.5,76.7l-3-0.3l0.1,0.3l3,0.3l0.1-0.1c0.4-0.4,1.4-1.5,2.1-2.2l-0.1-0.4C37.1,75,36.2,76,35.5,76.7z"/>
			<path class="st19" d="M35.1,75.6l-3-0.3l0.1,0.3l3,0.3l0.1-0.1c0.4-0.4,1.4-1.5,2.1-2.2l-0.1-0.3C36.7,73.9,35.8,74.9,35.1,75.6z
				"/>
			<path class="st19" d="M34.8,74.5l-3-0.3l0.1,0.3l3,0.3l0.1-0.1c0.4-0.4,1.4-1.5,2.1-2.2l-0.1-0.4C36.3,72.8,35.4,73.8,34.8,74.5z
				"/>
			<path class="st19" d="M34.4,73.4l-3-0.3l0.1,0.3l3,0.3l0.1-0.1c0.4-0.4,1.4-1.5,2.1-2.2l-0.1-0.3C35.9,71.7,35,72.7,34.4,73.4z"
				/>
			<path class="st19" d="M34,72.3l-3-0.3l0.1,0.3l3,0.3l0.1-0.1c0.4-0.4,1.4-1.5,2.1-2.2L36.1,70C35.6,70.6,34.7,71.6,34,72.3z"/>
			<path class="st19" d="M33.6,71.2l-3-0.3l0.1,0.3l3,0.3l0.1-0.1c0.4-0.4,1.4-1.5,2.1-2.2l-0.1-0.4C35.2,69.5,34.3,70.5,33.6,71.2z
				"/>
			<path class="st19" d="M33.2,70.1l-3-0.3l0.1,0.3l3,0.3l0.1-0.1c0.4-0.4,1.4-1.5,2.1-2.2l-0.1-0.3C34.8,68.4,33.9,69.4,33.2,70.1z
				"/>
			<path class="st19" d="M32.9,69l-3-0.3L30,69l3,0.3l0.1-0.1c0.4-0.4,1.4-1.5,2.1-2.2L35,66.7C34.4,67.3,33.5,68.3,32.9,69z"/>
			<path class="st19" d="M32.5,67.9l-3-0.3l0.1,0.3l3,0.3l0.1-0.1c0.4-0.4,1.4-1.5,2.1-2.2l-0.1-0.3C34.1,66.2,33.2,67.2,32.5,67.9z
				"/>
			<path class="st19" d="M32.1,66.8l-3-0.3l0.1,0.3l3,0.3l0.1-0.1c0.4-0.4,1.4-1.5,2.1-2.2l-0.1-0.4C33.7,65.1,32.8,66.1,32.1,66.8z
				"/>
			<path class="st19" d="M31.7,65.6l-3-0.3l0.1,0.3l3,0.3l0.1-0.1c0.4-0.4,1.4-1.5,2.1-2.2l-0.1-0.3C33.3,64,32.4,65,31.7,65.6z"/>
			<path class="st19" d="M31.4,64.5l-3-0.3l0.1,0.3l3,0.3l0.1-0.1c0.4-0.4,1.4-1.5,2.1-2.2l-0.1-0.3C32.9,62.9,32,63.8,31.4,64.5z"
				/>
			<path class="st19" d="M31,63.4l-3-0.3c0,0.1,0,0.2,0.1,0.3l0,0l3,0.3l0.1-0.1c0.4-0.4,1.4-1.5,2.1-2.2c0-0.1-0.1-0.2-0.2-0.3
				C32.5,61.9,31.6,62.8,31,63.4z"/>
			<path class="st19" d="M31.9,61c-0.4,0.5-0.9,1-1.3,1.4l-2-0.2c-0.1,0.1-0.3,0.2-0.4,0.3l2.5,0.3l0.1-0.1c0.3-0.3,1-1,1.6-1.7
				C32.2,60.9,32.1,60.9,31.9,61L31.9,61z"/>
		</g>
		<path class="st21" d="M29.2,61.9L28.7,62c0,0-0.1,0-0.1,0.1c-0.1,0.1-0.3,0.2-0.4,0.3c-0.2,0.2-0.2,0.4-0.2,0.7
			c0,0.1,0,0.2,0.1,0.3l4.9,14.4c0,0,0,0,0,0c0.2,0.5,0.8,0.8,1.3,0.6l0.8-0.3C32.4,74.4,29.8,65.2,29.2,61.9z"/>
	</g>
</g>
</svg>
