<?xml version="1.0" encoding="utf-8"?>
<!-- Generator: Adobe Illustrator 24.0.3, SVG Export Plug-In . SVG Version: 6.00 Build 0)  -->
<svg version="1.1" id="レイヤー_1" xmlns="http://www.w3.org/2000/svg" xmlns:xlink="http://www.w3.org/1999/xlink" x="0px"
	 y="0px" viewBox="0 0 103.4 80" style="enable-background:new 0 0 103.4 80;" xml:space="preserve">
<style type="text/css">
	.st0{fill:#717071;}
	.st1{fill:#666666;}
	.st2{fill:#595757;}
	.st3{fill:#CFDFE9;}
	.st4{fill:#F3F4F2;}
	.st5{fill:#EAECE7;}
	.st6{fill:#D1D3D1;}
	.st7{fill:#E3E5E3;}
	.st8{fill:#B2B2B3;}
	.st9{fill:#868686;}
	.st10{fill:#5E5E5E;}
	.st11{fill:#F5F5F5;}
	.st12{fill:#ECECED;}
	.st13{fill:#DBDCDA;}
	.st14{fill:#FFFFFF;}
	.st15{fill:#F7F8F7;}
	.st16{fill:#ECEDEB;}
	.st17{fill:#BECED8;}
	.st18{fill:#EEF2F5;}
	.st19{fill:#E1E5E8;}
	.st20{fill:#D9DADA;}
	.st21{fill:#F9FAFB;}
	.st22{fill:#808080;}
	.st23{fill:#F4B251;}
	.st24{fill:#EBD159;}
</style>
<g>
	<g>
		<path class="st0" d="M0,0.3v20.1c0,0.1,0,0.1,0.1,0.1h34.1c0.1,0,0.1,0,0.1-0.1V0.3c0-0.1,0-0.1-0.1-0.1L0,0.3C0,0.2,0,0.2,0,0.3z
			"/>
		<polygon class="st1" points="1.1,1.1 1.1,19.5 0,20.4 0,0.3 		"/>
		<rect x="15.7" y="17.9" class="st0" width="2.8" height="4.7"/>
		<rect x="10.4" y="21.6" class="st2" width="13.4" height="0.9"/>
		<rect x="10.1" y="21.6" class="st0" width="14" height="0.6"/>
		<polygon class="st1" points="33.3,1.1 33.3,19.5 34.2,20.4 34.2,0.4 		"/>
		<g>
			<rect x="1.1" y="1.1" class="st2" width="32.2" height="18.4"/>
			<rect x="1.3" y="1.3" class="st3" width="31.9" height="18.1"/>
		</g>
	</g>
	<g>
		<g>
			<path class="st4" d="M67.3,59.4H38.8c-0.1,0-0.2-0.1-0.2-0.2v-8.3c0-0.1,0.1-0.2,0.2-0.2h28.5c0.1,0,0.2,0.1,0.2,0.2v8.3
				C67.5,59.3,67.4,59.4,67.3,59.4z"/>
			<path class="st4" d="M67.3,79.3H38.8c-0.1,0-0.2-0.1-0.2-0.2v-19c0-0.1,0.1-0.2,0.2-0.2h28.5c0.1,0,0.2,0.1,0.2,0.2v19
				C67.5,79.3,67.4,79.3,67.3,79.3z"/>
			<path class="st5" d="M67.5,61.4H38.7v-1.3c0-0.1,0.1-0.2,0.2-0.2h28.5c0.1,0,0.2,0.1,0.2,0.2V61.4z"/>
			<rect x="38.7" y="61.4" class="st6" width="28.9" height="0.3"/>
			<path class="st5" d="M67.5,52.2H38.7v-1.3c0-0.1,0.1-0.2,0.2-0.2h28.5c0.1,0,0.2,0.1,0.2,0.2V52.2z"/>
			<rect x="38.7" y="52.2" class="st6" width="28.9" height="0.3"/>
			<path class="st7" d="M67,79.9H39.2c-0.1,0-0.2-0.1-0.2-0.2v-0.4h28.2v0.4C67.2,79.8,67.1,79.9,67,79.9z"/>
			<rect x="39" y="79.3" class="st6" width="28.2" height="0.2"/>
			<rect x="39" y="59.4" class="st7" width="28.2" height="0.6"/>
			
				<rect x="44.8" y="54.8" transform="matrix(6.123234e-17 -1 1 6.123234e-17 -5.3852 104.774)" class="st7" width="9.8" height="0.6"/>
			<rect x="39" y="50.2" class="st7" width="28.2" height="0.6"/>
			<rect x="39" y="33.5" class="st6" width="28.2" height="1.4"/>
			<rect x="39" y="34.7" class="st7" width="28.2" height="0.3"/>
			<rect x="39" y="33.5" class="st7" width="28.2" height="0.6"/>
			<path class="st4" d="M67.3,34.1H38.8c-0.1,0-0.2-0.1-0.2-0.2V0.4c0-0.1,0.1-0.2,0.2-0.2h28.5c0.1,0,0.2,0.1,0.2,0.2v33.5
				C67.5,34,67.4,34.1,67.3,34.1z"/>
			<path class="st4" d="M67.3,50.2H38.8c-0.1,0-0.2-0.1-0.2-0.2V35.1c0-0.1,0.1-0.2,0.2-0.2h28.5c0.1,0,0.2,0.1,0.2,0.2V50
				C67.5,50.1,67.4,50.2,67.3,50.2z"/>
			<path class="st5" d="M67.5,36.4H38.7v-1.3c0-0.1,0.1-0.2,0.2-0.2h28.5c0.1,0,0.2,0.1,0.2,0.2V36.4z"/>
			<rect x="38.7" y="36.4" class="st6" width="28.9" height="0.3"/>
			
				<rect x="32.3" y="17.3" transform="matrix(6.123234e-17 -1 1 6.123234e-17 32.127 67.2619)" class="st7" width="34.7" height="0.6"/>
		</g>
	</g>
	<g>
		<g>
			<rect x="74.5" y="39.3" class="st7" width="2.9" height="3.2"/>
			<rect x="98.3" y="39.3" class="st7" width="2.9" height="3.2"/>
			<path class="st4" d="M102.3,41.2H73.3c-0.6,0-1.1-0.5-1.1-1.1v-39c0-0.6,0.5-1.1,1.1-1.1h29.1c0.6,0,1.1,0.5,1.1,1.1v39
				C103.4,40.7,102.9,41.2,102.3,41.2z"/>
			<g>
				<circle class="st8" cx="87.8" cy="16.8" r="12.4"/>
				<circle class="st9" cx="87.8" cy="16.8" r="9"/>
				<path class="st1" d="M87.8,10.4c4.4,0,8,3.6,8,8c0,1.6-0.5,3.1-1.3,4.4c1.4-1.6,2.3-3.7,2.3-6c0-5-4-9-9-9c-5,0-9,4-9,9
					c0,2.3,0.9,4.4,2.3,6c-0.8-1.3-1.3-2.8-1.3-4.4C79.7,14,83.3,10.4,87.8,10.4z"/>
				<path class="st10" d="M87.8,25.8c2.7,0,5.1-1.2,6.7-3c0.8-1.3,1.3-2.8,1.3-4.4c0-4.4-3.6-8-8-8c-4.4,0-8,3.6-8,8
					c0,1.6,0.5,3.1,1.3,4.4C82.7,24.7,85.1,25.8,87.8,25.8z"/>
			</g>
			<rect x="95.4" y="14.4" class="st11" width="5.2" height="6.9"/>
			<rect x="99.3" y="14.4" class="st12" width="1.4" height="6.9"/>
		</g>
		<g>
			<rect x="73.9" y="2.3" class="st13" width="1.9" height="1.9"/>
			<rect x="73.9" y="2.3" class="st4" width="1.7" height="1.7"/>
		</g>
		<g>
			<rect x="75.8" y="2.3" class="st13" width="1.9" height="1.9"/>
			<rect x="75.8" y="2.3" class="st4" width="1.7" height="1.7"/>
		</g>
		<g>
			<rect x="77.8" y="2.3" class="st13" width="1.9" height="1.9"/>
			<rect x="77.8" y="2.3" class="st4" width="1.7" height="1.7"/>
		</g>
		<rect x="72.2" y="30.6" class="st7" width="31.3" height="0.5"/>
	</g>
	<g>
		<path class="st4" d="M103.4,44.5l-0.2-0.3c0,0,0,0-0.1,0H72.4c0,0,0,0-0.1,0l-0.2,0.3h0v8.6c0,0,0,0.1,0.1,0.1h31.1
			c0,0,0.1,0,0.1-0.1L103.4,44.5L103.4,44.5z"/>
		<rect x="72.3" y="53.3" class="st7" width="31" height="0.2"/>
		<rect x="74.2" y="53.3" class="st6" width="27.1" height="0.2"/>
		<rect x="74.2" y="53.9" class="st14" width="22.5" height="0.4"/>
		<path class="st13" d="M72.3,53.5v0.7c0,0,0,0,0,0.1l0.7,1.7c0,0,0,0,0.1,0h29.5c0,0,0.1,0,0.1,0l0.7-1.7c0,0,0,0,0-0.1v-0.7H72.3z
			"/>
		<path class="st4" d="M103.1,54.3H72.4c-0.1,0-0.1-0.1-0.1-0.1v-0.6h31v0.6C103.2,54.2,103.2,54.3,103.1,54.3z"/>
		<polygon class="st15" points="96.8,54.3 74.3,54.3 74.6,56 96.6,56 		"/>
		<polygon class="st16" points="99.8,54.6 101.8,54.6 101.7,55.3 99.7,55.3 		"/>
		<polygon class="st16" points="97.7,55.4 98.4,55.4 98.4,55.7 97.7,55.7 		"/>
		<rect x="97.8" y="54.6" class="st17" width="1.8" height="0.1"/>
		<rect x="97.8" y="54.9" class="st17" width="1.7" height="0.1"/>
		<polygon class="st6" points="96.6,56 96.6,55.6 74.5,55.6 74.6,56 		"/>
	</g>
	<g>
		<rect x="76.5" y="77.7" class="st6" width="2.9" height="2.2"/>
		<rect x="94.7" y="77.7" class="st6" width="2.9" height="2.2"/>
		<path class="st4" d="M101.6,78.8H72.7c-0.1,0-0.1-0.1-0.1-0.1V59.3c0-0.1,0.1-0.1,0.1-0.1h28.9c0.1,0,0.1,0.1,0.1,0.1v19.4
			C101.7,78.8,101.7,78.8,101.6,78.8z"/>
		<rect x="72.6" y="58.2" class="st4" width="29.2" height="0.7"/>
		<path class="st18" d="M102.8,71.1v-10c0,0,0-0.1-0.1-0.1h-1v10.1v7.1h1.1c0,0,0,0,0,0l0.5-0.5c0,0,0,0,0-0.1v-6c0,0,0,0,0-0.1
			L102.8,71.1C102.8,71.1,102.8,71.1,102.8,71.1z"/>
		<rect x="101.7" y="66.6" class="st7" width="1.1" height="0.4"/>
		<rect x="72.8" y="59" class="st7" width="28.7" height="0.2"/>
		<circle class="st14" cx="83.6" cy="69" r="8"/>
		<circle class="st10" cx="83.6" cy="69" r="6.9"/>
		<g>
			<path class="st19" d="M92.8,77.2H74.7c-0.2,0-0.3-0.1-0.3-0.3V61.3c0-0.2,0.1-0.3,0.3-0.3h18.1c0.2,0,0.3,0.1,0.3,0.3V77
				C93,77.1,92.9,77.2,92.8,77.2z M74.7,61.2C74.7,61.2,74.7,61.3,74.7,61.2l0,15.7c0,0,0,0,0,0h18.1c0,0,0,0,0,0V61.3c0,0,0,0,0,0
				H74.7z"/>
			<path class="st19" d="M92.9,62H74.6c-0.1,0-0.1-0.1-0.1-0.1c0-0.1,0.1-0.1,0.1-0.1h18.3c0.1,0,0.1,0.1,0.1,0.1
				C93,61.9,93,62,92.9,62z"/>
			<path class="st19" d="M92.9,65.6H74.6c-0.1,0-0.1-0.1-0.1-0.1s0.1-0.1,0.1-0.1h18.3c0.1,0,0.1,0.1,0.1,0.1S93,65.6,92.9,65.6z"/>
			<path class="st19" d="M92.9,69.3H74.6c-0.1,0-0.1-0.1-0.1-0.1s0.1-0.1,0.1-0.1h18.3c0.1,0,0.1,0.1,0.1,0.1S93,69.3,92.9,69.3z"/>
			<path class="st19" d="M92.9,73H74.6c-0.1,0-0.1-0.1-0.1-0.1s0.1-0.1,0.1-0.1h18.3c0.1,0,0.1,0.1,0.1,0.1S93,73,92.9,73z"/>
			<path class="st19" d="M92.9,76.7H74.6c-0.1,0-0.1-0.1-0.1-0.1c0-0.1,0.1-0.1,0.1-0.1h18.3c0.1,0,0.1,0.1,0.1,0.1
				C93,76.6,93,76.7,92.9,76.7z"/>
			<path class="st19" d="M75.3,77.2c-0.1,0-0.1-0.1-0.1-0.1v-16c0-0.1,0.1-0.1,0.1-0.1c0.1,0,0.1,0.1,0.1,0.1v16
				C75.4,77.2,75.4,77.2,75.3,77.2z"/>
			<path class="st19" d="M76,77.2c-0.1,0-0.1-0.1-0.1-0.1v-16C75.9,61,76,61,76,61s0.1,0.1,0.1,0.1v16C76.2,77.2,76.1,77.2,76,77.2z
				"/>
			<path class="st19" d="M76.8,77.2c-0.1,0-0.1-0.1-0.1-0.1v-16c0-0.1,0.1-0.1,0.1-0.1c0.1,0,0.1,0.1,0.1,0.1v16
				C76.9,77.2,76.8,77.2,76.8,77.2z"/>
			<path class="st19" d="M77.5,77.2c-0.1,0-0.1-0.1-0.1-0.1v-16c0-0.1,0.1-0.1,0.1-0.1c0.1,0,0.1,0.1,0.1,0.1v16
				C77.6,77.2,77.6,77.2,77.5,77.2z"/>
			<path class="st19" d="M78.2,77.2c-0.1,0-0.1-0.1-0.1-0.1v-16c0-0.1,0.1-0.1,0.1-0.1s0.1,0.1,0.1,0.1v16
				C78.4,77.2,78.3,77.2,78.2,77.2z"/>
			<path class="st19" d="M79,77.2c-0.1,0-0.1-0.1-0.1-0.1v-16c0-0.1,0.1-0.1,0.1-0.1c0.1,0,0.1,0.1,0.1,0.1v16
				C79.1,77.2,79,77.2,79,77.2z"/>
			<path class="st19" d="M79.7,77.2c-0.1,0-0.1-0.1-0.1-0.1v-16c0-0.1,0.1-0.1,0.1-0.1s0.1,0.1,0.1,0.1v16
				C79.8,77.2,79.8,77.2,79.7,77.2z"/>
			<path class="st19" d="M80.4,77.2c-0.1,0-0.1-0.1-0.1-0.1v-16c0-0.1,0.1-0.1,0.1-0.1c0.1,0,0.1,0.1,0.1,0.1v16
				C80.6,77.2,80.5,77.2,80.4,77.2z"/>
			<path class="st19" d="M81.2,77.2c-0.1,0-0.1-0.1-0.1-0.1v-16c0-0.1,0.1-0.1,0.1-0.1s0.1,0.1,0.1,0.1v16
				C81.3,77.2,81.2,77.2,81.2,77.2z"/>
			<path class="st19" d="M81.9,77.2c-0.1,0-0.1-0.1-0.1-0.1v-16c0-0.1,0.1-0.1,0.1-0.1C82,61,82,61,82,61.1v16
				C82,77.2,82,77.2,81.9,77.2z"/>
			<path class="st19" d="M82.6,77.2c-0.1,0-0.1-0.1-0.1-0.1v-16c0-0.1,0.1-0.1,0.1-0.1c0.1,0,0.1,0.1,0.1,0.1v16
				C82.8,77.2,82.7,77.2,82.6,77.2z"/>
			<path class="st19" d="M83.4,77.2c-0.1,0-0.1-0.1-0.1-0.1v-16c0-0.1,0.1-0.1,0.1-0.1c0.1,0,0.1,0.1,0.1,0.1v16
				C83.5,77.2,83.4,77.2,83.4,77.2z"/>
			<path class="st19" d="M84.1,77.2c-0.1,0-0.1-0.1-0.1-0.1v-16C84,61,84,61,84.1,61c0.1,0,0.1,0.1,0.1,0.1v16
				C84.2,77.2,84.2,77.2,84.1,77.2z"/>
			<path class="st19" d="M84.8,77.2c-0.1,0-0.1-0.1-0.1-0.1v-16c0-0.1,0.1-0.1,0.1-0.1c0.1,0,0.1,0.1,0.1,0.1v16
				C85,77.2,84.9,77.2,84.8,77.2z"/>
			<path class="st19" d="M85.6,77.2c-0.1,0-0.1-0.1-0.1-0.1v-16c0-0.1,0.1-0.1,0.1-0.1c0.1,0,0.1,0.1,0.1,0.1v16
				C85.7,77.2,85.6,77.2,85.6,77.2z"/>
			<path class="st19" d="M86.3,77.2c-0.1,0-0.1-0.1-0.1-0.1v-16c0-0.1,0.1-0.1,0.1-0.1c0.1,0,0.1,0.1,0.1,0.1v16
				C86.4,77.2,86.4,77.2,86.3,77.2z"/>
			<path class="st19" d="M87,77.2c-0.1,0-0.1-0.1-0.1-0.1v-16C86.9,61,87,61,87,61c0.1,0,0.1,0.1,0.1,0.1v16
				C87.2,77.2,87.1,77.2,87,77.2z"/>
			<path class="st19" d="M87.8,77.2c-0.1,0-0.1-0.1-0.1-0.1v-16c0-0.1,0.1-0.1,0.1-0.1c0.1,0,0.1,0.1,0.1,0.1v16
				C87.9,77.2,87.9,77.2,87.8,77.2z"/>
			<path class="st19" d="M88.5,77.2c-0.1,0-0.1-0.1-0.1-0.1v-16c0-0.1,0.1-0.1,0.1-0.1s0.1,0.1,0.1,0.1v16
				C88.6,77.2,88.6,77.2,88.5,77.2z"/>
			<path class="st19" d="M89.2,77.2c-0.1,0-0.1-0.1-0.1-0.1v-16c0-0.1,0.1-0.1,0.1-0.1s0.1,0.1,0.1,0.1v16
				C89.4,77.2,89.3,77.2,89.2,77.2z"/>
			<path class="st19" d="M90,77.2c-0.1,0-0.1-0.1-0.1-0.1v-16c0-0.1,0.1-0.1,0.1-0.1c0.1,0,0.1,0.1,0.1,0.1v16
				C90.1,77.2,90.1,77.2,90,77.2z"/>
			<path class="st19" d="M90.7,77.2c-0.1,0-0.1-0.1-0.1-0.1v-16c0-0.1,0.1-0.1,0.1-0.1c0.1,0,0.1,0.1,0.1,0.1v16
				C90.8,77.2,90.8,77.2,90.7,77.2z"/>
			<path class="st19" d="M91.4,77.2c-0.1,0-0.1-0.1-0.1-0.1v-16c0-0.1,0.1-0.1,0.1-0.1c0.1,0,0.1,0.1,0.1,0.1v16
				C91.6,77.2,91.5,77.2,91.4,77.2z"/>
			<path class="st19" d="M92.2,77.2c-0.1,0-0.1-0.1-0.1-0.1v-16c0-0.1,0.1-0.1,0.1-0.1c0.1,0,0.1,0.1,0.1,0.1v16
				C92.3,77.2,92.3,77.2,92.2,77.2z"/>
		</g>
		<g>
			<path class="st14" d="M92.6,77.1H74.6c-0.2,0-0.3-0.1-0.3-0.3V61.1c0-0.2,0.1-0.3,0.3-0.3h18.1c0.2,0,0.3,0.1,0.3,0.3v15.7
				C92.9,77,92.8,77.1,92.6,77.1z M74.6,61.1C74.6,61.1,74.6,61.1,74.6,61.1l0,15.7c0,0,0,0,0,0h18.1c0,0,0,0,0,0V61.1c0,0,0,0,0,0
				H74.6z"/>
			<path class="st14" d="M92.8,61.8H74.4c-0.1,0-0.1-0.1-0.1-0.1c0-0.1,0.1-0.1,0.1-0.1h18.3c0.1,0,0.1,0.1,0.1,0.1
				C92.9,61.8,92.9,61.8,92.8,61.8z"/>
			<path class="st14" d="M92.8,65.5H74.4c-0.1,0-0.1-0.1-0.1-0.1c0-0.1,0.1-0.1,0.1-0.1h18.3c0.1,0,0.1,0.1,0.1,0.1
				C92.9,65.5,92.9,65.5,92.8,65.5z"/>
			<path class="st14" d="M92.8,69.2H74.4c-0.1,0-0.1-0.1-0.1-0.1c0-0.1,0.1-0.1,0.1-0.1h18.3c0.1,0,0.1,0.1,0.1,0.1
				C92.9,69.1,92.9,69.2,92.8,69.2z"/>
			<path class="st14" d="M92.8,72.9H74.4c-0.1,0-0.1-0.1-0.1-0.1c0-0.1,0.1-0.1,0.1-0.1h18.3c0.1,0,0.1,0.1,0.1,0.1
				C92.9,72.8,92.9,72.9,92.8,72.9z"/>
			<path class="st14" d="M92.8,76.5H74.4c-0.1,0-0.1-0.1-0.1-0.1c0-0.1,0.1-0.1,0.1-0.1h18.3c0.1,0,0.1,0.1,0.1,0.1
				C92.9,76.5,92.9,76.5,92.8,76.5z"/>
			<path class="st14" d="M75.2,77.1c-0.1,0-0.1-0.1-0.1-0.1V61c0-0.1,0.1-0.1,0.1-0.1c0.1,0,0.1,0.1,0.1,0.1v16
				C75.3,77.1,75.2,77.1,75.2,77.1z"/>
			<path class="st14" d="M75.9,77.1c-0.1,0-0.1-0.1-0.1-0.1V61c0-0.1,0.1-0.1,0.1-0.1c0.1,0,0.1,0.1,0.1,0.1v16
				C76,77.1,76,77.1,75.9,77.1z"/>
			<path class="st14" d="M76.6,77.1c-0.1,0-0.1-0.1-0.1-0.1V61c0-0.1,0.1-0.1,0.1-0.1c0.1,0,0.1,0.1,0.1,0.1v16
				C76.8,77.1,76.7,77.1,76.6,77.1z"/>
			<path class="st14" d="M77.4,77.1c-0.1,0-0.1-0.1-0.1-0.1V61c0-0.1,0.1-0.1,0.1-0.1c0.1,0,0.1,0.1,0.1,0.1v16
				C77.5,77.1,77.4,77.1,77.4,77.1z"/>
			<path class="st14" d="M78.1,77.1C78,77.1,78,77.1,78,77V61c0-0.1,0.1-0.1,0.1-0.1c0.1,0,0.1,0.1,0.1,0.1v16
				C78.2,77.1,78.2,77.1,78.1,77.1z"/>
			<path class="st14" d="M78.8,77.1c-0.1,0-0.1-0.1-0.1-0.1V61c0-0.1,0.1-0.1,0.1-0.1c0.1,0,0.1,0.1,0.1,0.1v16
				C79,77.1,78.9,77.1,78.8,77.1z"/>
			<path class="st14" d="M79.6,77.1c-0.1,0-0.1-0.1-0.1-0.1V61c0-0.1,0.1-0.1,0.1-0.1s0.1,0.1,0.1,0.1v16
				C79.7,77.1,79.6,77.1,79.6,77.1z"/>
			<path class="st14" d="M80.3,77.1c-0.1,0-0.1-0.1-0.1-0.1V61c0-0.1,0.1-0.1,0.1-0.1c0.1,0,0.1,0.1,0.1,0.1v16
				C80.4,77.1,80.4,77.1,80.3,77.1z"/>
			<path class="st14" d="M81,77.1c-0.1,0-0.1-0.1-0.1-0.1V61c0-0.1,0.1-0.1,0.1-0.1s0.1,0.1,0.1,0.1v16C81.2,77.1,81.1,77.1,81,77.1
				z"/>
			<path class="st14" d="M81.8,77.1c-0.1,0-0.1-0.1-0.1-0.1V61c0-0.1,0.1-0.1,0.1-0.1c0.1,0,0.1,0.1,0.1,0.1v16
				C81.9,77.1,81.8,77.1,81.8,77.1z"/>
			<path class="st14" d="M82.5,77.1c-0.1,0-0.1-0.1-0.1-0.1V61c0-0.1,0.1-0.1,0.1-0.1c0.1,0,0.1,0.1,0.1,0.1v16
				C82.6,77.1,82.6,77.1,82.5,77.1z"/>
			<path class="st14" d="M83.2,77.1c-0.1,0-0.1-0.1-0.1-0.1V61c0-0.1,0.1-0.1,0.1-0.1s0.1,0.1,0.1,0.1v16
				C83.4,77.1,83.3,77.1,83.2,77.1z"/>
			<path class="st14" d="M84,77.1c-0.1,0-0.1-0.1-0.1-0.1V61c0-0.1,0.1-0.1,0.1-0.1s0.1,0.1,0.1,0.1v16C84.1,77.1,84.1,77.1,84,77.1
				z"/>
			<path class="st14" d="M84.7,77.1c-0.1,0-0.1-0.1-0.1-0.1V61c0-0.1,0.1-0.1,0.1-0.1s0.1,0.1,0.1,0.1v16
				C84.8,77.1,84.8,77.1,84.7,77.1z"/>
			<path class="st14" d="M85.4,77.1c-0.1,0-0.1-0.1-0.1-0.1V61c0-0.1,0.1-0.1,0.1-0.1c0.1,0,0.1,0.1,0.1,0.1v16
				C85.6,77.1,85.5,77.1,85.4,77.1z"/>
			<path class="st14" d="M86.2,77.1c-0.1,0-0.1-0.1-0.1-0.1V61c0-0.1,0.1-0.1,0.1-0.1s0.1,0.1,0.1,0.1v16
				C86.3,77.1,86.3,77.1,86.2,77.1z"/>
			<path class="st14" d="M86.9,77.1c-0.1,0-0.1-0.1-0.1-0.1V61c0-0.1,0.1-0.1,0.1-0.1S87,60.9,87,61v16C87,77.1,87,77.1,86.9,77.1z"
				/>
			<path class="st14" d="M87.7,77.1c-0.1,0-0.1-0.1-0.1-0.1V61c0-0.1,0.1-0.1,0.1-0.1s0.1,0.1,0.1,0.1v16
				C87.8,77.1,87.7,77.1,87.7,77.1z"/>
			<path class="st14" d="M88.4,77.1c-0.1,0-0.1-0.1-0.1-0.1V61c0-0.1,0.1-0.1,0.1-0.1s0.1,0.1,0.1,0.1v16
				C88.5,77.1,88.5,77.1,88.4,77.1z"/>
			<path class="st14" d="M89.1,77.1C89,77.1,89,77.1,89,77V61c0-0.1,0.1-0.1,0.1-0.1c0.1,0,0.1,0.1,0.1,0.1v16
				C89.2,77.1,89.2,77.1,89.1,77.1z"/>
			<path class="st14" d="M89.9,77.1c-0.1,0-0.1-0.1-0.1-0.1V61c0-0.1,0.1-0.1,0.1-0.1c0.1,0,0.1,0.1,0.1,0.1v16
				C90,77.1,89.9,77.1,89.9,77.1z"/>
			<path class="st14" d="M90.6,77.1c-0.1,0-0.1-0.1-0.1-0.1V61c0-0.1,0.1-0.1,0.1-0.1c0.1,0,0.1,0.1,0.1,0.1v16
				C90.7,77.1,90.7,77.1,90.6,77.1z"/>
			<path class="st14" d="M91.3,77.1c-0.1,0-0.1-0.1-0.1-0.1V61c0-0.1,0.1-0.1,0.1-0.1s0.1,0.1,0.1,0.1v16
				C91.4,77.1,91.4,77.1,91.3,77.1z"/>
			<path class="st14" d="M92.1,77.1c-0.1,0-0.1-0.1-0.1-0.1V61c0-0.1,0.1-0.1,0.1-0.1c0.1,0,0.1,0.1,0.1,0.1v16
				C92.2,77.1,92.1,77.1,92.1,77.1z"/>
		</g>
	</g>
	<g>
		<path class="st7" d="M31.5,34.1H2.8c-0.1,0-0.2-0.1-0.2-0.2v-7.5c0-0.5,0.4-0.9,0.9-0.9h27.3c0.5,0,0.9,0.4,0.9,0.9v7.5
			C31.7,34,31.6,34.1,31.5,34.1z"/>
		<path class="st4" d="M34.1,77.4H0.3c-0.1,0-0.2-0.1-0.2-0.2V27.7c0-0.1,0.1-0.2,0.2-0.2h33.8c0.1,0,0.2,0.1,0.2,0.2v49.5
			C34.2,77.4,34.2,77.4,34.1,77.4z"/>
		<path class="st7" d="M32.8,80H1.5c-0.1,0-0.2-0.1-0.2-0.2v-2.4H33v2.4C33,79.9,32.9,80,32.8,80z"/>
		<rect x="0.1" y="29.3" class="st20" width="34.1" height="4.3"/>
		<rect x="0.1" y="29.3" class="st21" width="34.1" height="0.4"/>
		<rect x="0.1" y="33.5" class="st7" width="34.1" height="0.5"/>
		<path class="st22" d="M31.2,79.1h-28C3.1,79.1,3,79.1,3,79v-1.5h28.3V79C31.3,79.1,31.3,79.1,31.2,79.1z"/>
		<rect x="26.2" y="31.4" class="st23" width="1.7" height="0.9"/>
		<rect x="22.7" y="30.6" class="st10" width="2.6" height="1.7"/>
		<rect x="28.3" y="31.4" class="st24" width="1.7" height="0.9"/>
		<rect x="30.4" y="31.4" class="st24" width="1.7" height="0.9"/>
	</g>
</g>
</svg>
