<?xml version="1.0" encoding="utf-8"?>
<!-- Generator: Adobe Illustrator 24.0.3, SVG Export Plug-In . SVG Version: 6.00 Build 0)  -->
<svg version="1.1" id="レイヤー_1" xmlns="http://www.w3.org/2000/svg" xmlns:xlink="http://www.w3.org/1999/xlink" x="0px"
	 y="0px" viewBox="0 0 130 80" style="enable-background:new 0 0 130 80;" xml:space="preserve">
<style type="text/css">
	.st0{clip-path:url(#SVGID_2_);}
	.st1{fill:url(#SVGID_3_);}
	.st2{fill:#FFFFFF;}
	.st3{fill:#B4C4D9;}
	.st4{fill:#4D698D;}
	.st5{fill:#5A7AA4;}
	.st6{fill:#82BAC0;}
	.st7{fill:#9ED6DC;}
	.st8{fill:#BBEBF0;}
	.st9{fill:#4D9097;}
	.st10{fill:#4E8DA4;}
	.st11{fill:#A9CCD9;}
	.st12{fill:#323C4D;}
	.st13{opacity:0.41;fill:#323C4D;}
	.st14{fill:#A1937A;}
	.st15{fill:#7D725E;}
	.st16{fill:#88B3C2;}
	.st17{fill:#415A63;}
	.st18{fill:#3F6C82;}
	.st19{fill:#515B75;}
	.st20{fill:#691F3C;}
	.st21{fill:#3E5675;}
	.st22{fill:#1C3A4D;}
	.st23{fill:#434A61;}
	.st24{fill:#6B768F;}
	.st25{fill:#972E58;}
	.st26{fill:#242D36;}
	.st27{fill:#D5BDD7;}
	.st28{fill:#253C4D;}
	.st29{fill:#2E5A7A;}
	.st30{fill:#63889C;}
	.st31{fill:#40647D;}
	.st32{fill:#51B8D4;}
	.st33{fill:#338AB6;}
	.st34{opacity:0.41;fill:#338AB6;}
	.st35{fill:#ADD6EB;}
	.st36{fill:#D3D1E6;}
	.st37{fill:#FBFBFF;}
	.st38{fill:#6761A6;}
	.st39{fill:#8C86CF;}
	.st40{fill:#D4901A;}
	.st41{fill:#EBB04B;}
	.st42{fill:#C5264A;}
	.st43{fill:#D94465;}
	.st44{fill:#819C41;}
	.st45{fill:#9CBD4E;}
	.st46{fill:#7A2A2A;}
	.st47{fill:#541D1D;}
	.st48{fill:#752828;}
	.st49{fill:#B67837;}
	.st50{fill:#BD715D;}
	.st51{fill:#F3C394;}
	.st52{fill:#973434;}
	.st53{fill:#8F98D7;}
	.st54{fill:#66463E;}
	.st55{fill:#63869F;}
	.st56{fill:#33495C;}
	.st57{fill:#DDE9F0;}
	.st58{fill:#731F1F;}
	.st59{fill:#4A2E26;}
	.st60{fill:#DEC099;}
	.st61{fill:#283947;}
	.st62{fill:#2F3654;}
	.st63{fill:#A9C5D4;}
</style>
<g>
	<defs>
		<rect id="SVGID_1_" width="130" height="80"/>
	</defs>
	<clipPath id="SVGID_2_">
		<use xlink:href="#SVGID_1_"  style="overflow:visible;"/>
	</clipPath>
	<g class="st0">
		<linearGradient id="SVGID_3_" gradientUnits="userSpaceOnUse" x1="106.5472" y1="57.2167" x2="105.1708" y2="-36.9301">
			<stop  offset="0" style="stop-color:#FFF8E4"/>
			<stop  offset="1" style="stop-color:#80D1FF"/>
		</linearGradient>
		<rect x="-3.9" y="-1.3" class="st1" width="220.2" height="78.6"/>
		<path class="st2" d="M215.5,55.4c1.1-5.4-0.5-10.8-4.4-14c-3.2-2.7-6.8-3-8.3-3c2-7.3-0.8-14.6-5.9-17.5
			c-6.7-3.8-17.6-0.2-21.3,9.7c-1.5-0.1-4.3,0-7.2,1.5c-6,3.1-7.2,9.8-7.3,10.6c-1.3-0.4-3.6-0.9-6.2-0.6c-5.7,0.8-8.9,5.1-9.5,6.1
			c-14.6-4.8-28.5-3.5-35.2,4.4c-1.2,1.4-2.4,3.3-3.3,5.9C143.1,57.5,179.3,56.4,215.5,55.4z"/>
		<path class="st2" d="M2.5,56.1c-1-3.7,0.2-7.6,3.2-9.9c3-2.4,7.3-2.7,10.6-0.7c0.2-0.8,1.5-5.2,5.9-7.7c5-2.9,10.1-1.1,10.8-0.9
			c2.4-1.3,4.6-1.7,6-1.7c9.6-0.4,15.7,10.2,15.9,10.6c1.5-0.2,2.7-0.1,3.7,0.1c6.6,1.4,9.6,8.5,10,9.5
			C46.5,55.7,24.5,55.9,2.5,56.1z"/>
		<path class="st2" d="M84.9,21.6c-15.1,0-30.2,0-45.3,0c0.1-1,0.7-4.3,3.5-7c2.4-2.3,5-2.9,6.1-3.1c1.5-3.5,4.6-5.9,8.1-6.1
			c4.5-0.2,9,3.6,9.5,9c0.8-0.2,2.2-0.4,3.9,0c3.1,0.7,4.9,3,5.3,3.7c0.3-0.2,2.5-1.5,5.1-0.6C83.9,18.6,84.8,21.3,84.9,21.6z"/>
		<rect x="119.5" y="41.8" class="st3" width="10.5" height="4.4"/>
		<path class="st3" d="M106.5,52.3h0.1v-5c-0.2-0.1-0.3-0.2-0.3-0.4v-4.2c0-0.2,0.1-0.3,0.3-0.4v-0.3c-0.1,0-0.3-0.1-0.3-0.3v-0.3
			V41v-0.2c0-0.2,0.1-0.3,0.3-0.3h3.1v-0.1h-0.4L109,37h1c-0.1-0.5,0.1-1,0.6-1.2l4.9-1.9c0,0,0,0,0,0l1.6-0.6c0,0,0,0,0,0l7.3-2.8
			c0.3-0.1,0.6,0,0.8,0.3c0.1,0.3,0,0.6-0.2,0.7v6.7c0,0.1,0,0.2-0.1,0.2V40h0.5c0.3,0,0.5,0.2,0.5,0.5h0.6v0.4
			c0,0.2-0.1,0.3-0.3,0.3h-0.1v0.1H123v-0.1h-0.1c-0.2,0-0.3-0.1-0.3-0.3v-0.4h0.5c0-0.3,0.2-0.5,0.5-0.5h0.5v-1.6
			c0-0.1-0.1-0.2-0.1-0.2V32l-11.9,5.9V39h1.2c0,0,0,0.1,0,0.1c0.1,0.2,0.1,0.5,0.2,0.7c0,0,0,0,0,0c0,0.1,0,0.2,0,0.3
			c0,0.1-0.1,0.2-0.2,0.2h-0.2v0.1h0.9c0.2,0,0.3,0.1,0.3,0.3V41v0.5v0.3c0,0.2-0.1,0.3-0.3,0.3H114v2.4h4.7v-0.8h0v0h0.2v-0.3h1.7
			v0.3h0.1v0h0v10.2h-2v-8.6H114v7.1h0.4c0.5,0,1,0.4,1,1v0.6h-9.8v-0.6C105.5,52.8,106,52.3,106.5,52.3z M124.3,38.2
			C124.3,38.2,124.3,38.2,124.3,38.2l0.4,0c0,0,0,0,0.1,0v-6.6l-0.5,0.2V38.2z M112.3,35.6l0.8,0.3l0.3-0.7L112.3,35.6z M114.3,34.8
			L115,35l0.3-0.6L114.3,34.8z M116.2,34.1l0.6,0.2l0.2-0.5L116.2,34.1z M117.7,33.4l0.5,0.1l0.2-0.4L117.7,33.4z M122.9,32.2
			l-0.3-0.7l-3.6,1.4l0.5,1L122.9,32.2z M118.8,33.3l-0.2,0.4l0.4,0.1L118.8,33.3z M119,34.1l-0.6-0.1l-0.3,0.6L119,34.1z
			 M117.9,34.3l0.2-0.4l-0.5-0.1L117.9,34.3z M117.3,33.9l-0.2,0.5l0.5,0.1L117.3,33.9z M117.6,34.9l-0.6-0.2l-0.2,0.6L117.6,34.9z
			 M116.6,34.6l-0.7-0.2l0.4,0.9L116.6,34.6z M115.6,34.5l-0.3,0.6l0.6,0.2L115.6,34.5z M115.9,35.7l-0.7-0.2l-0.3,0.8L115.9,35.7z
			 M114.8,35.4l-0.8-0.2l0.4,1L114.8,35.4z M113.7,35.3l-0.3,0.7l0.7,0.2L113.7,35.3z M114.1,36.6l-0.8-0.3l-0.4,0.9L114.1,36.6z
			 M112.5,37.1l0.4-0.9l-0.8-0.3L112.5,37.1z M111.1,45l-0.6,0.6l1.1,1.1v-1.3L111.1,45z M111.5,44.9v-0.4l-0.2,0.2L111.5,44.9z
			 M110.8,44.7l-0.5-0.5l-0.6,0.6l0.5,0.5L110.8,44.7z M111.1,44.5l0.4-0.4v-1.1l-1,1L111.1,44.5z M111.1,49.9l-0.6,0.6l1.1,1.1
			v-1.3L111.1,49.9z M111.5,49.8v-0.4l-0.2,0.2L111.5,49.8z M110.8,49.6l-0.5-0.5l-0.6,0.6l0.5,0.5L110.8,49.6z M111.1,49.4l0.4-0.4
			v-1.1l-1,1L111.1,49.4z M112.3,52.3h0.9V52l-0.9-0.9V52.3z M112.3,50.6l0.9,0.9v-3.7l-0.9,0.9V50.6z M112.3,48.2l0.9-0.9v-0.2
			l-0.9-0.9V48.2z M112.3,45.7l0.9,0.9v-3.7l-0.9,0.9V45.7z M112.3,43.3l0.9-0.9v-0.3h-0.9V43.3z M109,52.3h2.5v-0.2l-1.3-1.3
			l-1.2,1.2V52.3z M109,51.4l0.9-0.9l-0.5-0.5l-0.4,0.4V51.4z M109,49.8l0.1-0.1l-0.1-0.1V49.8z M109,49.1l0.4,0.4l0.6-0.6l-1-1
			V49.1z M109,47.3l1.3,1.3l1.2-1.2v-0.1l-1.3-1.3L109,47V47.3z M109,46.5l0.9-0.9l-0.5-0.5l-0.4,0.4V46.5z M109,44.9l0.1-0.1
			l-0.1-0.1V44.9z M109,44.2l0.4,0.4l0.6-0.6l-1-1V44.2z M109,42.4l1.3,1.3l1.2-1.2v-0.3H109V42.4z M107.4,52.3h0.9v-1.2l-0.9,0.9
			V52.3z M107.4,51.5l0.9-0.9v-1.8l-0.9-0.9V51.5z M107.4,47.4l0.9,0.9v-1c0,0,0,0,0,0L107.4,47.4L107.4,47.4z M107.4,42.4h0.9
			c0,0,0,0,0,0v-0.3h-0.9V42.4z"/>
		<g>
			<rect x="73.5" y="48.8" class="st3" width="6.7" height="2"/>
			<rect x="69.4" y="49.7" class="st3" width="11.8" height="4"/>
			<rect x="86.7" y="46" class="st3" width="2.5" height="4.3"/>
			<rect x="79.2" y="48" class="st3" width="12.7" height="6.9"/>
			<rect x="93.3" y="47.4" class="st3" width="3.3" height="4.7"/>
			<rect x="98.4" y="48.5" class="st3" width="14.5" height="3.1"/>
			<rect x="83" y="50.1" class="st3" width="36.5" height="5.9"/>
			<rect x="112" y="47.4" class="st3" width="4" height="4.8"/>
		</g>
		<g>
			<rect x="185" y="37.1" class="st4" width="13" height="6.8"/>
			<rect x="189.3" y="37.2" class="st5" width="13" height="6.8"/>
			<rect x="194.5" y="39.3" class="st6" width="4.7" height="1.7"/>
			<rect x="170.6" y="39.1" class="st6" width="13.3" height="1.8"/>
			<rect x="169.2" y="40.1" class="st7" width="23.4" height="13.9"/>
			<rect x="180.2" y="40.1" class="st8" width="23.4" height="13.9"/>
			<rect x="199.8" y="42.1" class="st9" width="1.7" height="1.3"/>
			<rect x="196.7" y="42.1" class="st9" width="1.7" height="1.3"/>
			<rect x="193.6" y="42.1" class="st9" width="1.7" height="1.3"/>
			<rect x="190.5" y="42.1" class="st9" width="1.7" height="1.3"/>
			<rect x="187.5" y="42.1" class="st9" width="1.7" height="1.3"/>
			<rect x="184.4" y="42.1" class="st9" width="1.7" height="1.3"/>
			<rect x="199.8" y="44.9" class="st9" width="1.7" height="1.3"/>
			<rect x="196.7" y="44.9" class="st9" width="1.7" height="1.3"/>
			<rect x="193.6" y="44.9" class="st9" width="1.7" height="1.3"/>
			<rect x="190.5" y="44.9" class="st9" width="1.7" height="1.3"/>
			<rect x="187.5" y="44.9" class="st9" width="1.7" height="1.3"/>
			<rect x="184.4" y="44.9" class="st9" width="1.7" height="1.3"/>
			<rect x="178.4" y="38.6" class="st6" width="4.3" height="1.3"/>
		</g>
		<path class="st5" d="M133.2,51.9h0.1v-6.3c-0.2-0.1-0.3-0.3-0.3-0.5V40c0-0.2,0.1-0.4,0.3-0.5v-0.4c-0.2,0-0.3-0.2-0.3-0.4v-0.4
			v-0.7v-0.2c0-0.2,0.2-0.4,0.4-0.4h3.8v-0.2h-0.5l-0.3-4.3h1.3c-0.2-0.6,0.2-1.3,0.8-1.5l6.2-2.4c0,0,0,0,0,0l2.1-0.8c0,0,0,0,0,0
			l9.1-3.5c0.4-0.1,0.8,0,1,0.4c0.1,0.3,0,0.7-0.3,0.9v8.4c0,0.1,0,0.2-0.1,0.3v2h0.6c0.3,0,0.6,0.3,0.6,0.6h0.7v0.5
			c0,0.2-0.2,0.3-0.3,0.3h-0.1V38h-4v-0.1h-0.1c-0.2,0-0.3-0.2-0.3-0.3v-0.5h0.7c0-0.3,0.3-0.6,0.6-0.6h0.6v-2
			c-0.1-0.1-0.1-0.2-0.1-0.3v-7.8l-14.9,7.5v1.4h1.5c0,0,0,0.1,0,0.1c0.1,0.3,0.2,0.6,0.2,0.9c0,0,0,0,0,0c0,0.1,0,0.3,0,0.4
			c0,0.1-0.1,0.3-0.3,0.3h-0.3v0.2h1.2c0.2,0,0.4,0.2,0.4,0.4v0.2v0.7v0.4c0,0.2-0.2,0.4-0.4,0.4h-0.1v3h5.9v-1h0v0h0.2v-0.4h2.2
			v0.4h0.1v0h0v12.8h-2.6V43.1h-5.9v8.9h0.6c0.7,0,1.2,0.5,1.2,1.2v0.7H132v-0.7C132,52.5,132.5,51.9,133.2,51.9z M155.6,34.2
			C155.6,34.2,155.6,34.2,155.6,34.2l0.5,0c0,0,0.1,0,0.1,0v-8.3l-0.6,0.3V34.2z M140.5,30.9l1,0.3l0.4-0.9L140.5,30.9z M143,29.9
			l0.9,0.3l0.4-0.8L143,29.9z M145.4,29l0.7,0.2l0.3-0.6L145.4,29z M147.4,28.2l0.7,0.2l0.3-0.6L147.4,28.2z M153.9,26.7l-0.4-0.9
			l-4.5,1.8l0.6,1.2L153.9,26.7z M148.7,28l-0.2,0.5l0.6,0.1L148.7,28z M149,29.1l-0.7-0.2l-0.4,0.7L149,29.1z M147.5,29.3l0.3-0.5
			l-0.6-0.2L147.5,29.3z M146.8,28.8l-0.2,0.6l0.6,0.2L146.8,28.8z M147.1,30l-0.7-0.2l-0.3,0.8L147.1,30z M145.9,29.6l-0.8-0.3
			l0.5,1.1L145.9,29.6z M144.7,29.6l-0.4,0.8l0.8,0.2L144.7,29.6z M145,31l-0.9-0.3l-0.4,0.9L145,31z M143.7,30.6l-1-0.3l0.5,1.2
			L143.7,30.6z M142.3,30.5l-0.4,0.9l0.9,0.3L142.3,30.5z M142.7,32.1l-1-0.3l-0.5,1.1L142.7,32.1z M140.8,32.7l0.5-1.1l-1.1-0.4
			L140.8,32.7z M139,42.7l-0.8,0.8l1.4,1.4v-1.6L139,42.7z M139.5,42.6v-0.5l-0.2,0.2L139.5,42.6z M138.6,42.4l-0.7-0.7l-0.8,0.8
			l0.7,0.7L138.6,42.4z M139,42.1l0.6-0.6v-1.4l-1.2,1.2L139,42.1z M139,48.9l-0.8,0.8l1.4,1.4v-1.6L139,48.9z M139.5,48.8v-0.5
			l-0.2,0.2L139.5,48.8z M138.6,48.5l-0.7-0.7l-0.8,0.8l0.7,0.7L138.6,48.5z M139,48.2l0.6-0.6v-1.4l-1.2,1.2L139,48.2z M140.5,51.9
			h1.1v-0.4l-1.1-1.1V51.9z M140.5,49.8l1.1,1.1v-4.6l-1.1,1.1V49.8z M140.5,46.7l1.1-1.1v-0.3l-1.1-1.1V46.7z M140.5,43.6l1.1,1.1
			v-4.6l-1.1,1.1V43.6z M140.5,40.5l1.1-1.1v-0.4h-1.1V40.5z M136.4,51.9h3.1v-0.3l-1.7-1.7l-1.5,1.5V51.9z M136.4,50.8l1.1-1.1
			l-0.7-0.7l-0.5,0.5V50.8z M136.4,48.8l0.1-0.1l-0.1-0.1V48.8z M136.4,47.9l0.5,0.5l0.8-0.8l-1.3-1.3V47.9z M136.4,45.6l1.6,1.6
			l1.6-1.6v-0.2l-1.7-1.7l-1.5,1.5V45.6z M136.4,44.6l1.1-1.1l-0.7-0.7l-0.5,0.5V44.6z M136.4,42.6l0.1-0.1l-0.1-0.1V42.6z
			 M136.4,41.7l0.5,0.5l0.8-0.8l-1.3-1.3V41.7z M136.4,39.5l1.6,1.6l1.6-1.6v-0.4h-3.1V39.5z M134.3,51.9h1.1v-1.5l-1.1,1.1V51.9z
			 M134.3,50.9l1.1-1.1v-2.2l-1.1-1.1V50.9z M134.3,45.8l1.1,1.1v-1.2c0,0,0,0,0,0L134.3,45.8L134.3,45.8z M134.3,39.4h1.1
			c0,0,0,0,0,0v-0.4h-1.1V39.4z"/>
		<g>
			<polygon class="st10" points="164.6,42.5 127.4,42.5 138.8,46.6 176,46.6 			"/>
			<rect x="137.9" y="46.6" class="st11" width="38" height="7.4"/>
			<rect x="116" y="46.6" class="st2" width="22.8" height="7.4"/>
			<rect x="118.1" y="48.4" class="st12" width="18.5" height="5.7"/>
			<polygon class="st13" points="118.1,48.4 131.9,54 136.7,54 136.7,48.4 			"/>
			<polygon class="st2" points="116,46.6 127.4,42.5 138.8,46.6 			"/>
			<rect x="148.7" y="49.3" class="st14" width="4.8" height="4"/>
			<rect x="148.5" y="49" class="st15" width="5.2" height="0.6"/>
			<rect x="156" y="49.3" class="st12" width="4.8" height="4"/>
			<polygon class="st13" points="160.8,50.1 156,53 156,50.1 			"/>
			<rect x="156" y="49.3" class="st14" width="4.8" height="0.8"/>
			<rect x="155.8" y="49" class="st15" width="5.2" height="0.6"/>
			<rect x="140.1" y="53" class="st16" width="23.4" height="1.1"/>
			<rect x="163.1" y="49.6" class="st17" width="4.1" height="1.6"/>
			<rect x="169.6" y="49.6" class="st17" width="4.1" height="1.6"/>
			<rect x="118.6" y="48.4" class="st18" width="18.1" height="1"/>
		</g>
		<g>
			<polygon class="st10" points="192,42.5 154.8,42.5 166.2,46.6 203.4,46.6 			"/>
			<rect x="165.4" y="46.6" class="st11" width="38" height="7.4"/>
			<rect x="168.9" y="49.3" class="st18" width="4.8" height="4"/>
			<rect x="143.4" y="46.6" class="st2" width="22.8" height="7.4"/>
			<rect x="145.6" y="48.4" class="st12" width="18.5" height="5.7"/>
			<polygon class="st13" points="145.6,48.4 159.3,54 164.1,54 164.1,48.4 			"/>
			<polygon class="st2" points="143.4,46.6 154.8,42.5 166.2,46.6 			"/>
			<rect x="168.7" y="49" class="st16" width="5.2" height="0.6"/>
			<rect x="176.2" y="49.3" class="st18" width="4.8" height="4"/>
			<rect x="176" y="49" class="st16" width="5.2" height="0.6"/>
			<rect x="183.4" y="49.3" class="st12" width="4.8" height="4"/>
			<polygon class="st13" points="188.2,50.1 183.4,53 183.4,50.1 			"/>
			<rect x="183.4" y="49.3" class="st18" width="4.8" height="0.8"/>
			<rect x="183.2" y="49" class="st16" width="5.2" height="0.6"/>
			<rect x="167.5" y="53" class="st16" width="23.4" height="1.1"/>
			<rect x="190.5" y="49.6" class="st17" width="4.1" height="1.6"/>
			<rect x="197" y="49.6" class="st17" width="4.1" height="1.6"/>
			<rect x="146" y="48.4" class="st18" width="18.1" height="1"/>
		</g>
		<g>
			<rect x="99.6" y="33.1" class="st19" width="5.6" height="0.9"/>
			<g>
				<rect x="88.4" y="38" class="st20" width="2.6" height="1.1"/>
				<g>
					<path class="st21" d="M82.4,30.9c-0.4,0-0.7-0.3-0.7-0.7V19.8c0-0.4,0.3-0.7,0.7-0.7c0.4,0,0.7,0.3,0.7,0.7v10.4
						C83.1,30.5,82.8,30.9,82.4,30.9z M82.4,19.4c-0.2,0-0.4,0.2-0.4,0.4v10.4c0,0.2,0.2,0.4,0.4,0.4c0.2,0,0.4-0.2,0.4-0.4V19.8
						C82.7,19.6,82.6,19.4,82.4,19.4z"/>
				</g>
				<path class="st22" d="M82.4,33.4L82.4,33.4c-0.4,0-0.7-0.3-0.7-0.6v-2.1c0-0.3,0.3-0.6,0.6-0.6h0.1c0.3,0,0.6,0.3,0.6,0.6v2.1
					C83,33.1,82.7,33.4,82.4,33.4z"/>
				<path class="st23" d="M103.4,26.5l-21-8.1c-0.5-0.2-1,0.1-1.2,0.5c-0.2,0.4,0,0.9,0.4,1.1l21.7,10.8l0.9-2.4
					C104.6,27.6,104.2,26.8,103.4,26.5z M100.4,28.7L84.8,21l0.5-1.1l16.1,6.5L100.4,28.7z"/>
				<rect x="88.3" y="38.4" class="st24" width="3.1" height="15.4"/>
				<rect x="88.3" y="38.4" class="st25" width="3.1" height="6.6"/>
				<path class="st24" d="M98.4,40.8h-7.5c-0.3,0-0.6-0.3-0.6-0.6v0c0-0.3,0.3-0.6,0.6-0.6h7.5c0.3,0,0.6,0.3,0.6,0.6l0,0
					C99,40.6,98.8,40.8,98.4,40.8z"/>
				<polygon class="st24" points="103.8,33.4 101.1,33.4 101.1,28.3 104.2,28.3 				"/>
				<g>
					
						<rect x="105.1" y="34.8" transform="matrix(0.7071 -0.7071 0.7071 0.7071 2.4794 86.2534)" class="st19" width="0.6" height="10.7"/>
				</g>
				<g>
					
						<rect x="100" y="39.9" transform="matrix(0.7071 -0.7071 0.7071 0.7071 2.4794 86.2532)" class="st19" width="10.7" height="0.6"/>
				</g>
				<g>
					
						<rect x="105.1" y="42.2" transform="matrix(0.7071 -0.7071 0.7071 0.7071 -2.7881 88.4351)" class="st19" width="0.6" height="10.7"/>
				</g>
				<g>
					
						<rect x="100" y="47.3" transform="matrix(0.7071 -0.7071 0.7071 0.7071 -2.7881 88.4351)" class="st19" width="10.7" height="0.6"/>
				</g>
				<rect x="108.4" y="35.1" class="st19" width="1.2" height="17.4"/>
				<rect x="100.9" y="35.1" class="st19" width="1.2" height="17.4"/>
				<path class="st24" d="M111.2,53v0.9H96.3V53c0-0.8,0.6-1.4,1.4-1.4h12C110.6,51.5,111.2,52.2,111.2,53z"/>
				<rect x="105.9" y="35.1" class="st24" width="1.2" height="17.4"/>
				<rect x="98.4" y="35.1" class="st24" width="1.2" height="17.4"/>
				<path class="st19" d="M109.3,36H98.6c-0.4,0-0.7-0.3-0.7-0.7v-1c0-0.4,0.3-0.7,0.7-0.7h10.7c0.4,0,0.7,0.3,0.7,0.7v1
					C110,35.7,109.7,36,109.3,36z"/>
				<g>
					
						<rect x="102.5" y="34.7" transform="matrix(0.7071 -0.7071 0.7071 0.7071 1.8259 84.4034)" class="st24" width="0.6" height="10.7"/>
				</g>
				<g>
					
						<rect x="97.5" y="39.7" transform="matrix(0.7071 -0.7071 0.7071 0.7071 1.8259 84.4032)" class="st24" width="10.7" height="0.6"/>
				</g>
				<g>
					
						<rect x="102.5" y="42.1" transform="matrix(0.7071 -0.7071 0.7071 0.7071 -3.4416 86.5851)" class="st24" width="0.6" height="10.7"/>
				</g>
				<g>
					
						<rect x="97.5" y="47.2" transform="matrix(0.7071 -0.7071 0.7071 0.7071 -3.4416 86.5851)" class="st24" width="10.7" height="0.6"/>
				</g>
				<rect x="97.9" y="34.3" class="st24" width="12.1" height="0.8"/>
				<path class="st19" d="M109,44h-1.5c-0.6,0-1-0.4-1-1v-5.6c0-0.6,0.4-1,1-1h1.5c0.6,0,1,0.4,1,1V43C110,43.6,109.5,44,109,44z"/>
				<path class="st19" d="M102.3,31.5v1.4c0,0.3-0.2,0.5-0.5,0.5h-2.4c-0.2,0-0.3-0.1-0.3-0.3c0-0.2,0-0.3,0-0.5c0,0,0,0,0,0
					c0.1-0.4,0.2-0.7,0.3-1.1c0-0.1,0-0.1,0-0.2h2.8C102.2,31.3,102.3,31.4,102.3,31.5z"/>
				<path class="st26" d="M101.6,31.5V32c0,0.3-0.3,0.6-0.6,0.6h-2c0.1-0.4,0.2-0.7,0.3-1.1H101.6z"/>
				<rect x="100.8" y="31.4" class="st19" width="0.1" height="1.5"/>
				<polygon class="st19" points="105.5,33.4 102.9,33.4 102.9,28.3 106,28.3 				"/>
				<g>
					<path class="st23" d="M100.4,29c-0.1,0-0.2-0.1-0.3-0.2l-0.7-1.6l-1.7,0.6c-0.1,0-0.2,0-0.3-0.1c-0.1-0.1-0.1-0.2,0-0.3
						l1.1-2.6c0-0.1,0.1-0.2,0.3-0.2c0,0,0,0,0,0c0.1,0,0.2,0.1,0.3,0.2l0.7,1.7l1.7-0.6c0.1,0,0.3,0,0.3,0.2c0,0.1,0,0.3-0.2,0.3
						L100,27l0.7,1.6c0.1,0.1,0,0.3-0.1,0.4C100.5,29,100.5,29,100.4,29z M98.8,25.7l-0.6,1.4l1.1-0.4L98.8,25.7z"/>
				</g>
				<g>
					<path class="st23" d="M97.6,27.8c-0.1,0-0.2-0.1-0.2-0.2l-0.8-1.7L95,26.4c-0.1,0-0.2,0-0.3-0.1c-0.1-0.1-0.1-0.2,0-0.3l1-2.3
						c0-0.1,0.1-0.2,0.2-0.2c0.1,0,0.2,0.1,0.3,0.2l0.7,1.5l1.8-0.5c0.1,0,0.3,0,0.3,0.2c0,0.1,0,0.3-0.2,0.3l-1.7,0.5l0.8,1.6
						c0.1,0.1,0,0.3-0.1,0.4C97.7,27.8,97.6,27.8,97.6,27.8z M95.9,24.5l-0.5,1.2l1-0.3L95.9,24.5z"/>
				</g>
				<g>
					<path class="st23" d="M94.6,26.2c-0.1,0-0.2-0.1-0.3-0.2l-0.5-1.3l-1.4,0.4c-0.1,0-0.2,0-0.3-0.1c-0.1-0.1-0.1-0.2,0-0.3l1-2
						c0-0.1,0.1-0.2,0.3-0.2c0.1,0,0.2,0.1,0.2,0.2l0.5,1.3l1.4-0.4c0.1,0,0.3,0,0.3,0.2c0,0.1,0,0.3-0.2,0.3l-1.3,0.4l0.5,1.2
						c0.1,0.1,0,0.3-0.1,0.4C94.7,26.2,94.7,26.2,94.6,26.2z M93.4,23.5l-0.4,0.9l0.7-0.2L93.4,23.5z"/>
				</g>
				<g>
					<path class="st23" d="M92.5,25.2c-0.1,0-0.2-0.1-0.2-0.1l-0.7-1.3l-1.4,0.4c-0.1,0-0.2,0-0.3-0.1c-0.1-0.1-0.1-0.2,0-0.3
						l0.9-1.8c0-0.1,0.1-0.2,0.2-0.2c0,0,0,0,0,0c0.1,0,0.2,0.1,0.2,0.1l0.6,1.2l1.4-0.4c0.1,0,0.3,0,0.3,0.2c0,0.1,0,0.3-0.2,0.3
						l-1.3,0.3l0.6,1.2c0.1,0.1,0,0.3-0.1,0.4C92.6,25.1,92.5,25.2,92.5,25.2z M91,22.6l-0.4,0.8l0.7-0.2L91,22.6z"/>
				</g>
				<path class="st27" d="M88.3,49.6L88.3,49.6V38.4h1v10.1C89.3,49.1,88.8,49.6,88.3,49.6z"/>
				<rect x="79.9" y="34.5" class="st28" width="4.8" height="0.3"/>
				<path class="st22" d="M84.5,33.6h-4.3l0,0c0-0.4,0.3-0.7,0.7-0.7h2.8C84.2,32.9,84.5,33.2,84.5,33.6L84.5,33.6z"/>
				<path class="st29" d="M80,34.6h4.6c0.4,0,0.7-0.3,0.7-0.7v-0.3h-5.9v0.3C79.4,34.3,79.7,34.6,80,34.6z"/>
			</g>
		</g>
		<path class="st3" d="M29.8,51.9h-0.1v-6.2c0.2-0.1,0.3-0.3,0.3-0.5v-5.2c0-0.2-0.1-0.4-0.3-0.5v-0.4c0.2,0,0.3-0.2,0.3-0.3v-0.4
			v-0.7v-0.2c0-0.2-0.2-0.4-0.4-0.4h-3.9V37h0.6l0.3-4.2h-1.3c0.2-0.6-0.2-1.2-0.8-1.5L18.5,29c0,0,0,0,0,0l-2-0.8c0,0,0,0,0,0
			l-9.1-3.5c-0.4-0.1-0.8,0-1,0.4c-0.1,0.3,0,0.7,0.3,0.9v8.4c0,0.1,0,0.2,0.1,0.3v1.9H6.1c-0.3,0-0.6,0.3-0.6,0.6H4.8v0.5
			C4.8,37.9,5,38,5.1,38h0.1v0.1h4V38h0.1c0.2,0,0.3-0.2,0.3-0.3v-0.5H9c0-0.3-0.3-0.6-0.6-0.6H7.8v-1.9c0.1-0.1,0.1-0.2,0.1-0.3
			v-7.8L22.7,34v1.3h-1.5c0,0,0,0.1,0,0.1c-0.1,0.3-0.2,0.6-0.2,0.9c0,0,0,0,0,0c0,0.1,0,0.3,0,0.4c0,0.1,0.1,0.2,0.3,0.2h0.3v0.2
			h-1.2c-0.2,0-0.4,0.2-0.4,0.4v0.2v0.7v0.4c0,0.2,0.2,0.4,0.4,0.4h0.1v3h-5.8v-1h0v0h-0.2v-0.4h-2.2v0.4h-0.1v0h0v12.7h2.5V43.1
			h5.8v8.8h-0.6c-0.7,0-1.2,0.5-1.2,1.2v0.7H31v-0.7C31,52.5,30.5,51.9,29.8,51.9z M7.6,34.3C7.6,34.3,7.5,34.3,7.6,34.3l-0.5,0
			c0,0-0.1,0-0.1,0v-8.2l0.6,0.3V34.3z M22.5,31.1l-1,0.3l-0.4-0.9L22.5,31.1z M20.1,30.1l-0.9,0.3l-0.4-0.8L20.1,30.1z M17.7,29.1
			L17,29.4l-0.3-0.6L17.7,29.1z M15.8,28.4l-0.7,0.2L14.8,28L15.8,28.4z M9.3,26.9l0.4-0.9l4.4,1.8l-0.6,1.2L9.3,26.9z M14.4,28.2
			l0.2,0.5l-0.6,0.1L14.4,28.2z M14.1,29.2l0.7-0.2l0.4,0.7L14.1,29.2z M15.6,29.5l-0.3-0.5l0.6-0.2L15.6,29.5z M16.3,28.9l0.2,0.6
			L16,29.7L16.3,28.9z M16,30.2l0.7-0.2l0.3,0.7L16,30.2z M17.2,29.8l0.8-0.3l-0.5,1.1L17.2,29.8z M18.4,29.7l0.4,0.8L18,30.7
			L18.4,29.7z M18,31.2l0.9-0.3l0.4,0.9L18,31.2z M19.4,30.8l1-0.3l-0.5,1.2L19.4,30.8z M20.8,30.7l0.4,0.9l-0.9,0.3L20.8,30.7z
			 M20.3,32.3l1-0.3l0.5,1.1L20.3,32.3z M22.3,32.9l-0.5-1.1l1.1-0.4L22.3,32.9z M24.1,42.8l0.8,0.8l-1.3,1.3v-1.6L24.1,42.8z
			 M23.5,42.7v-0.5l0.2,0.2L23.5,42.7z M24.4,42.5l0.7-0.7l0.8,0.8l-0.7,0.7L24.4,42.5z M24.1,42.1l-0.6-0.6v-1.4l1.2,1.2L24.1,42.1
			z M24.1,48.9l0.8,0.8L23.5,51v-1.6L24.1,48.9z M23.5,48.8v-0.5l0.2,0.2L23.5,48.8z M24.4,48.6l0.7-0.7l0.8,0.8l-0.7,0.7L24.4,48.6
			z M24.1,48.3l-0.6-0.6v-1.4l1.2,1.2L24.1,48.3z M22.6,51.9h-1.1v-0.4l1.1-1.1V51.9z M22.6,49.8l-1.1,1.1v-4.6l1.1,1.1V49.8z
			 M22.6,46.7l-1.1-1.1v-0.2l1.1-1.1V46.7z M22.6,43.7l-1.1,1.1v-4.6l1.1,1.1V43.7z M22.6,40.6l-1.1-1.1v-0.4h1.1V40.6z M26.6,51.9
			h-3.1v-0.3l1.7-1.7l1.5,1.5V51.9z M26.6,50.8l-1.1-1.1l0.7-0.7l0.5,0.5V50.8z M26.6,48.8l-0.1-0.1l0.1-0.1V48.8z M26.6,47.9
			l-0.5,0.5l-0.8-0.8l1.2-1.2V47.9z M26.6,45.7l-1.6,1.6l-1.5-1.5v-0.2l1.7-1.7l1.5,1.5V45.7z M26.6,44.7l-1.1-1.1l0.7-0.7l0.5,0.5
			V44.7z M26.6,42.7l-0.1-0.1l0.1-0.1V42.7z M26.6,41.8l-0.5,0.5l-0.8-0.8l1.2-1.2V41.8z M26.6,39.6l-1.6,1.6l-1.5-1.5v-0.4h3.1
			V39.6z M28.7,51.9h-1.1v-1.5l1.1,1.1V51.9z M28.7,50.9l-1.1-1.1v-2.2l1.1-1.1V50.9z M28.7,45.9L27.6,47v-1.2c0,0,0,0,0,0
			L28.7,45.9L28.7,45.9z M28.7,39.6h-1.1c0,0,0,0,0,0v-0.4h1.1V39.6z"/>
		<rect x="50.8" y="49.4" class="st3" width="11.8" height="3.2"/>
		<rect x="60.7" y="39.6" class="st3" width="4.9" height="13.3"/>
		<rect x="44.9" y="47.4" class="st3" width="9.7" height="3.4"/>
		<g>
			<rect x="6.8" y="49.8" class="st3" width="15.4" height="4.2"/>
			<rect x="0.3" y="52.2" class="st3" width="10.6" height="2.4"/>
			<rect x="-1.6" y="50.3" class="st3" width="4.1" height="4.6"/>
			<rect x="8.1" y="48.8" class="st3" width="8.5" height="1.8"/>
		</g>
		<rect x="-3.9" y="53.8" class="st30" width="220.2" height="4.1"/>
		<rect x="-3.9" y="55.3" class="st31" width="220.2" height="8.3"/>
		<rect x="-3.9" y="59.5" class="st32" width="220.2" height="21.8"/>
		<path class="st33" d="M102.2,65.9v1.3h-2l0,0h-2.1v0.4h-7.5v-0.4h-2.4l0,0h-0.7v0.9h0.3v1.3H74v-1.3h0.4v-0.5h-5.6v-0.4h-2.4l0,0
			h-2.3v8.4H69v1l0.3,0v0.7H44.9v-0.7l0.4,0v-1h5v-7.9H47v-0.4h-2.4l0,0h-1.9L41,69.3h-0.5v1.1v0.2h0.8V71h-3.1l-0.7,2.6h0l-0.1,0.4
			l-0.1,0.4l0,0l1,1h-1.7c0,0,0,0,0,0v0c0,0.2-0.2,0.4-0.5,0.4h-2.5v0.8h-0.3V76h-1.3c-0.3,0-0.5-0.2-0.5-0.4v0c0,0,0,0,0,0h-1.6
			v1.2h-0.3v-1.2h-1.3l-0.8-1h-0.7V71v-0.1v-0.2v-1.3h-3.7l0.6-1.7c0.2-0.5,0.6-0.8,1.2-1c0.5-0.1,0.9-0.3,1.2-0.6
			c0.4-0.2,0.7-0.5,0.9-0.9l0.8-1.3c0.2-0.3,0.2-0.6,0.1-0.9l0-0.1c-0.2-0.4-0.6-0.7-1.1-0.9l-0.3-0.1c-0.7-0.2-1.2-0.6-1.2-1.2
			h74.1c1.2,0.4,2.9,1,4.6,2.2c0.1,0,0.1,0.1,0.2,0.1c1.3,1,2.2,1.9,2.8,2.7H102.2z M77.7,68.3c0,0,0,0.1-0.1,0.1l0.3,0.2l0.4-0.3h0
			H77.7z M74.5,68.3l0.4,0.3l0.3-0.2c0,0,0-0.1-0.1-0.1H74.5z M75.7,69.2l0.5-0.4L76,68.6h-0.5c-0.1,0-0.1,0-0.2,0L75,68.8l0.5,0.4
			H75.7z M77.2,69.2l0.5-0.4l-0.3-0.2c-0.1,0-0.1,0-0.2,0h-0.5l-0.2,0.2l0.5,0.4H77.2z M78.7,69.2l0.5-0.4l-0.6-0.4h-0.2L78,68.8
			l0.5,0.4H78.7z M80.2,69.2l0.5-0.4l-0.6-0.4h-0.2l-0.6,0.4l0.5,0.4H80.2z M81.7,69.2l0.5-0.4l-0.6-0.4h-0.2L81,68.8l0.5,0.4H81.7z
			 M83.3,69.2l0.5-0.4l-0.6-0.4h-0.2l-0.6,0.4l0.5,0.4H83.3z M84.8,69.2l0.5-0.4l-0.2-0.2h-0.4c-0.1,0-0.2,0-0.3-0.1L84,68.8
			l0.5,0.4H84.8z M86.3,69.2l0.5-0.4l-0.3-0.2c0,0-0.1,0-0.1,0h-0.6l-0.2,0.2l0.5,0.4H86.3z M86.8,68.3c0,0.1-0.1,0.1-0.1,0.2
			l0.2,0.2l0.4-0.3H86.8z M83.6,68.3h-0.1l0.4,0.3l0.4-0.3c0,0,0,0,0-0.1H83.6z M85.3,68.6l0.1,0.1l0.1-0.1H85.3z M87,68.8l0.4,0.3
			v-0.6L87,68.8z M86.9,68.8l-0.4,0.3h0.8L86.9,68.8z M85.4,68.8L85,69.2h0.8L85.4,68.8z M83.9,68.8l-0.4,0.3h0.8L83.9,68.8z
			 M82.8,68.3H82l0.4,0.3L82.8,68.3z M82.4,68.8L82,69.2h0.8L82.4,68.8z M81.3,68.3h-0.9l0.4,0.3L81.3,68.3z M80.9,68.8l-0.4,0.3
			h0.8L80.9,68.8z M79.8,68.3H79l0.4,0.3L79.8,68.3z M79.4,68.8L79,69.2h0.8L79.4,68.8z M77.9,68.8l-0.4,0.3h0.8L77.9,68.8z
			 M76.3,68.6l0.1,0.1l0.1-0.1H76.3z M76.4,68.8L76,69.2h0.8L76.4,68.8z M74.9,68.8l-0.4,0.3h0.8L74.9,68.8z M74.8,68.8l-0.4-0.3
			v0.6L74.8,68.8z M83.6,68.1v-0.9h-2.7l0,0h-2.5l0,0h-0.1v0.9H83.6z M57.5,75.3c0,0-0.1,0-0.1,0l-0.1,0c0,0,0,0,0,0
			c0,0.1,0.1,0.1,0.2,0.1s0.2-0.1,0.2-0.1c0-0.1-0.1-0.1-0.2-0.1c0,0,0,0-0.1,0L57.5,75.3C57.6,75.2,57.6,75.3,57.5,75.3z M57.1,75
			l-1.7-1.4h0v1.6c0.2,0,0.3,0.2,0.3,0.3v0h1.2v-0.3C56.9,75.1,57,75.1,57.1,75z M61.2,75.9l0.3,0v-0.2h-0.3V75.9z M64.5,76.2
			l-0.3-0.2v0.2L64.5,76.2z M65,76.2l0.9,0.1l0.1-0.1l-0.5-0.4L65,76.2L65,76.2z M54.9,75.8L54.9,75.8l-2.1,0v0.2L54.9,75.8z
			 M54.9,75.5L54.9,75.5c0-0.2,0.1-0.3,0.3-0.3v-1.6h-0.3v-0.4h0.9v0.4h-0.2l1.7,1.4H61c0.1,0,0.3,0.1,0.3,0.2v0.3h0.3v-8.4h-2.4
			l0,0h-2.5l0,0h-2.1v0.4h-1.7v7.9H54.9z M62.3,69.8v0.7c0,0.2,0.2,0.3,0.4,0.3H63c0.2,0,0.4-0.1,0.4-0.3v-0.7
			c0-0.2-0.2-0.3-0.4-0.3h-0.3C62.5,69.5,62.3,69.6,62.3,69.8z M62.3,72.8c0,0.2,0.2,0.3,0.4,0.3H63c0.2,0,0.4-0.1,0.4-0.3v-0.7
			c0-0.2-0.2-0.3-0.4-0.3h-0.3c-0.2,0-0.4,0.1-0.4,0.3V72.8z M63.4,75.1v-0.7c0-0.2-0.2-0.3-0.4-0.3h-0.3c-0.2,0-0.4,0.1-0.4,0.3
			v0.7c0,0.2,0.2,0.3,0.4,0.3H63C63.2,75.4,63.4,75.3,63.4,75.1z M64.8,76l0.4-0.3h-0.7L64.8,76z M66.3,76l0.4-0.3h-0.7L66.3,76z
			 M67.1,75.8l-0.5,0.4l0.2,0.1l0.6,0l0.2-0.2L67.1,75.8z M67.8,76l0.4-0.3h-0.7L67.8,76z M67.8,76.4l0.1,0L67.8,76.4L67.8,76.4z
			 M46.7,76.4l0.6,0l0.2-0.1L47,75.8l-0.5,0.4L46.7,76.4z M46.2,76.4L46.2,76.4L46.2,76.4L46.2,76.4z M48.1,76.3l0.9-0.1l0,0
			l-0.5-0.4L48,76.2L48.1,76.3z M46,76.2l-0.4-0.3v0.5L46,76.2z M46.2,76l0.4-0.3h-0.7L46.2,76z M47.8,76l0.4-0.3h-0.7L47.8,76z
			 M49.3,76l0.4-0.3h-0.7L49.3,76z M52.1,75.1v-0.7c0-0.2-0.2-0.3-0.4-0.3h-0.3c-0.2,0-0.4,0.1-0.4,0.3v0.7c0,0.2,0.2,0.3,0.4,0.3
			h0.3C51.9,75.4,52.1,75.3,52.1,75.1z M52.1,72.1c0-0.2-0.2-0.3-0.4-0.3h-0.3c-0.2,0-0.4,0.1-0.4,0.3v0.7c0,0.2,0.2,0.3,0.4,0.3
			h0.3c0.2,0,0.4-0.1,0.4-0.3V72.1z M51,69.8v0.7c0,0.2,0.2,0.3,0.4,0.3h0.3c0.2,0,0.4-0.1,0.4-0.3v-0.7c0-0.2-0.2-0.3-0.4-0.3h-0.3
			C51.2,69.5,51,69.6,51,69.8z M87.2,67.1h-1.5l0,0H84v0.9h0.4c0.1-0.1,0.2-0.1,0.3-0.1h1.8c0.1,0,0.2,0,0.3,0.1h0.5V67.1z
			 M74.8,68.1h0.4c0.1-0.1,0.2-0.1,0.3-0.1h1.8c0.1,0,0.2,0,0.3,0.1H78v-0.9h-1.6v0.4h-1.6V68.1z M68.6,75.8l-0.6,0.4l0.4,0.3l0.2,0
			V75.8z M50.1,75.8l-0.6,0.4l0.7-0.1v-0.4H50.1z"/>
		<path class="st3" d="M72,51.5h-0.2V44c0.2-0.1,0.4-0.3,0.4-0.6v-6.3c0-0.3-0.2-0.5-0.4-0.6V36c0.2,0,0.4-0.2,0.4-0.4v-0.4v-0.8V34
			c0-0.2-0.2-0.4-0.4-0.4h-4.6v-0.2h0.6l0.4-5.2h-1.6c0.2-0.7-0.2-1.5-0.9-1.8l-7.5-2.9c0,0,0,0,0,0l-2.5-1c0,0,0,0,0,0l-11-4.3
			c-0.5-0.2-1,0.1-1.2,0.5c-0.2,0.4,0,0.8,0.4,1.1v10.2c0,0.1,0,0.3,0.1,0.4v2.4h-0.8c-0.4,0-0.7,0.3-0.7,0.7h-0.9v0.6
			c0,0.2,0.2,0.4,0.4,0.4h0.1v0.1H47v-0.1h0.1c0.2,0,0.4-0.2,0.4-0.4v-0.6h-0.8c0-0.4-0.3-0.7-0.7-0.7h-0.8v-2.4
			c0.1-0.1,0.1-0.2,0.1-0.4v-9.4l18,9v1.6h-1.8c0,0.1,0,0.1,0,0.2c-0.1,0.4-0.2,0.7-0.3,1.1c0,0,0,0,0,0c0,0.2,0,0.3,0,0.5
			c0,0.2,0.2,0.3,0.3,0.3H62v0.2h-1.4c-0.2,0-0.4,0.2-0.4,0.4v0.3v0.8v0.4c0,0.2,0.2,0.4,0.4,0.4h0.1v3.7h-7.1v-1.2h0v0h-0.3V38
			h-2.6v0.4h-0.2v0h0v15.4h3.1v-13h7.1v10.7H60c-0.8,0-1.4,0.6-1.4,1.4v0.9h14.9V53C73.5,52.2,72.8,51.5,72,51.5z M45,30.1
			c0,0-0.1,0-0.1,0h-0.5c0,0-0.1,0-0.1,0v-10l0.8,0.4V30.1z M63.2,26.1L62,26.5l-0.5-1L63.2,26.1z M60.2,24.9l-1.1,0.3l-0.4-0.9
			L60.2,24.9z M57.3,23.8l-0.9,0.3l-0.3-0.8L57.3,23.8z M54.9,22.8l-0.8,0.2l-0.4-0.7L54.9,22.8z M47,21l0.5-1.1l5.4,2.2l-0.7,1.5
			L47,21z M53.3,22.6l0.3,0.6l-0.7,0.2L53.3,22.6z M53,23.9l0.9-0.2l0.4,0.9L53,23.9z M54.7,24.2l-0.3-0.6l0.7-0.2L54.7,24.2z
			 M55.6,23.5l0.3,0.7l-0.7,0.2L55.6,23.5z M55.2,25l0.9-0.3l0.4,0.9L55.2,25z M56.6,24.6l1-0.3l-0.6,1.4L56.6,24.6z M58.2,24.5
			l0.4,0.9l-1,0.3L58.2,24.5z M57.7,26.3l1.1-0.3l0.5,1.1L57.7,26.3z M59.4,25.8l1.2-0.4l-0.7,1.5L59.4,25.8z M61,25.7l0.5,1.1
			l-1.1,0.4L61,25.7z M60.5,27.6l1.2-0.4l0.6,1.3L60.5,27.6z M62.8,28.4L62.3,27l1.3-0.4L62.8,28.4z M65.1,40.4l1,1L64.4,43v-1.9
			L65.1,40.4z M64.4,40.3v-0.6l0.3,0.3L64.4,40.3z M65.5,40l0.8-0.8l1,1L66.4,41L65.5,40z M65.1,39.6l-0.7-0.7v-1.6l1.5,1.5
			L65.1,39.6z M65.1,47.8l1,1l-1.6,1.6v-1.9L65.1,47.8z M64.4,47.7v-0.6l0.3,0.3L64.4,47.7z M65.5,47.4l0.8-0.8l1,1l-0.8,0.8
			L65.5,47.4z M65.1,47.1l-0.7-0.7v-1.6l1.5,1.5L65.1,47.1z M63.2,51.5h-1.3V51l1.3-1.3V51.5z M63.2,48.9l-1.3,1.3v-5.6l1.3,1.3
			V48.9z M63.2,45.2l-1.3-1.3v-0.3l1.3-1.3V45.2z M63.2,41.5l-1.3,1.3v-5.6l1.3,1.3V41.5z M63.2,37.8l-1.3-1.3V36h1.3V37.8z
			 M68.2,51.5h-3.8v-0.3l2-2l1.8,1.8V51.5z M68.2,50.2l-1.4-1.4l0.8-0.8l0.6,0.6V50.2z M68.2,47.7L68,47.6l0.2-0.2V47.7z M68.2,46.6
			l-0.6,0.6l-1-1l1.5-1.5V46.6z M68.2,43.9l-1.9,1.9L64.4,44v-0.2l2-2l1.8,1.8V43.9z M68.2,42.7l-1.4-1.4l0.8-0.8l0.6,0.6V42.7z
			 M68.2,40.3L68,40.1l0.2-0.2V40.3z M68.2,39.2l-0.6,0.6l-1-1l1.5-1.5V39.2z M68.2,36.5l-1.9,1.9l-1.9-1.9V36h3.8V36.5z M70.7,51.5
			h-1.3v-1.8l1.3,1.3V51.5z M70.7,50.3l-1.3-1.3v-2.7l1.3-1.3V50.3z M70.7,44.1l-1.3,1.3V44c0,0,0,0,0,0h1.3V44.1z M70.7,36.5h-1.3
			c0,0,0,0,0,0V36h1.3V36.5z"/>
		<g>
			<rect x="28.4" y="39.3" class="st3" width="8.1" height="4.6"/>
			<rect x="43.8" y="43.5" class="st3" width="2.5" height="2"/>
			<rect x="41.3" y="44.6" class="st3" width="5.8" height="6"/>
			<rect x="34.9" y="38.6" class="st3" width="7.5" height="15.3"/>
		</g>
		<rect x="24.8" y="41.5" class="st3" width="4.8" height="12.4"/>
		<rect x="41" y="37.2" class="st3" width="1.1" height="2.7"/>
		<rect x="38.4" y="36.3" class="st3" width="2.6" height="4.1"/>
		<path class="st33" d="M203.4,59.5H189c0,0.1,0,0.2,0,0.3h-27.4c0-0.1,0-0.2,0-0.3H151h-2.6h-4.3h-11.8H116v3.7l11.4,2h5.6v1.7
			c0,0.1,0.1,0.2,0.3,0.3v0.3c-0.2,0-0.3,0.1-0.3,0.2v0.8c0,0.1,0.2,0.2,0.4,0.2h3.8v0.1h-0.5l-0.3,2.5h1.3
			c-0.2,0.4,0.2,0.8,0.8,0.9l6.2,1.4c0,0,0,0,0,0l2.1,0.5c0,0,0,0,0,0l9.1,2.1c0.4,0.1,0.8,0,1-0.3c0.1-0.2,0-0.4-0.3-0.5v-5
			c0-0.1,0-0.1-0.1-0.2V69h0.6c0.3,0,0.6-0.2,0.6-0.4h0.7v-0.3c0-0.1-0.2-0.2-0.3-0.2h-0.1V68h-4v0.1h-0.1c-0.2,0-0.3,0.1-0.3,0.2
			v0.3h0.7c0,0.2,0.3,0.4,0.6,0.4h0.6v1.2c-0.1,0.1-0.1,0.1-0.1,0.2V75l-14.9-4.5v-0.8h1.5c0,0,0-0.1,0-0.1c0.1-0.2,0.2-0.4,0.2-0.5
			c0,0,0,0,0,0l0-0.2c0-0.1-0.1-0.1-0.3-0.1h-0.3v-0.1h1.2c0.2,0,0.4-0.1,0.4-0.2v-0.8c0-0.1-0.2-0.2-0.4-0.2h-0.1v-1.8h5.9v0.6h0.2
			v0.2h2.2v-0.2h0.1v-1h6.8h3.8H189h3h0.7v-0.1l10.7-1.9V59.5z M155.6,70.3C155.6,70.4,155.6,70.4,155.6,70.3l0.5,0c0,0,0.1,0,0.1,0
			v4.9l-0.6-0.2V70.3z M139,65.2L139,65.2h-0.2H139z M137.5,65.2h0.8l0.4,0.2l-0.7,0.4l-0.8-0.5L137.5,65.2z M136.4,65.3l0.1,0.1
			l-0.1,0.1V65.3z M136.4,65.9l0.5-0.3l0.8,0.5l-1.3,0.7V65.9z M135.4,67.4h-1.1v-0.2h1.1c0,0,0,0,0,0V67.4z M139.5,67.4h-3.1v-0.3
			l1.6-0.9l1.6,0.9V67.4z M139.5,66.8l-1.2-0.7l0.7-0.4l0.6,0.3V66.8z M139.5,65.6l-0.2-0.1l0.2-0.1V65.6z M140.5,72.3l1-0.2
			l0.4,0.5L140.5,72.3z M143,72.9l0.9-0.2l0.4,0.5L143,72.9z M145.4,73.5l0.7-0.1l0.3,0.4L145.4,73.5z M147.4,73.9l0.7-0.1l0.3,0.3
			L147.4,73.9z M153.9,74.8l-0.4,0.6l-4.5-1.1l0.6-0.7L153.9,74.8z M148.7,74l-0.2-0.3l0.6-0.1L148.7,74z M149,73.4l-0.7,0.1
			l-0.4-0.4L149,73.4z M147.5,73.3l0.3,0.3l-0.6,0.1L147.5,73.3z M146.8,73.6l-0.2-0.3l0.6-0.1L146.8,73.6z M147.1,72.9l-0.7,0.1
			l-0.3-0.4L147.1,72.9z M145.9,73.1l-0.8,0.2l0.5-0.7L145.9,73.1z M144.7,73.1l-0.4-0.5l0.8-0.1L144.7,73.1z M145,72.2l-0.9,0.2
			l-0.4-0.6L145,72.2z M143.7,72.5l-1,0.2l0.5-0.7L143.7,72.5z M142.3,72.5l-0.4-0.5l0.9-0.2L142.3,72.5z M142.7,71.6l-1,0.2
			l-0.5-0.6L142.7,71.6z M140.8,71.2l0.5,0.6l-1.1,0.2L140.8,71.2z M141.6,67.4h-1.1v-0.9l1.1,0.7V67.4z M141.6,66.8l-1.1-0.7v-1
			h1.1V66.8z"/>
		<rect x="36" y="38.4" class="st3" width="1.5" height="0.7"/>
		<rect x="-3.9" y="63.4" class="st34" width="220.2" height="5.4"/>
		<rect x="-3.9" y="59" class="st35" width="220.2" height="0.7"/>
		<rect x="-3.9" y="73.6" class="st35" width="220.2" height="0.7"/>
		<rect x="-3.9" y="71.8" class="st34" width="220.2" height="1.7"/>
		<g>
			<rect x="191.5" y="50.5" class="st36" width="8" height="3.3"/>
			<rect x="189.3" y="50.5" class="st37" width="2.9" height="3.3"/>
			<rect x="190.5" y="50.5" class="st36" width="0.2" height="3.3"/>
		</g>
		<g>
			<rect x="195.3" y="50.5" class="st38" width="8" height="3.3"/>
			<rect x="193" y="50.5" class="st39" width="2.9" height="3.3"/>
			<rect x="194.3" y="50.5" class="st38" width="0.2" height="3.3"/>
		</g>
		<g>
			<rect x="79.5" y="34.7" class="st40" width="8" height="3.3"/>
			<rect x="77.2" y="34.7" class="st41" width="2.9" height="3.3"/>
			<rect x="78.5" y="34.7" class="st40" width="0.2" height="3.3"/>
		</g>
		<g>
			<rect x="198.6" y="50.5" class="st42" width="8" height="3.3"/>
			<rect x="196.4" y="50.5" class="st43" width="2.9" height="3.3"/>
			<rect x="197.6" y="50.5" class="st42" width="0.2" height="3.3"/>
		</g>
		<g>
			<rect x="159.2" y="50.5" class="st42" width="8" height="3.3"/>
			<rect x="157" y="50.5" class="st43" width="2.9" height="3.3"/>
			<rect x="158.2" y="50.5" class="st42" width="0.2" height="3.3"/>
		</g>
		<g>
			<rect x="202" y="50.5" class="st40" width="8" height="3.3"/>
			<rect x="199.8" y="50.5" class="st41" width="2.9" height="3.3"/>
			<rect x="201.1" y="50.5" class="st40" width="0.2" height="3.3"/>
		</g>
		<g>
			<rect x="194.2" y="47.2" class="st40" width="8" height="3.3"/>
			<rect x="192" y="47.2" class="st41" width="2.9" height="3.3"/>
			<rect x="193.2" y="47.2" class="st40" width="0.2" height="3.3"/>
		</g>
		<g>
			<rect x="197.7" y="47.2" class="st44" width="8" height="3.3"/>
			<rect x="195.5" y="47.2" class="st45" width="2.9" height="3.3"/>
			<rect x="196.7" y="47.2" class="st44" width="0.2" height="3.3"/>
		</g>
		<g>
			<rect x="205.8" y="50.5" class="st40" width="8" height="3.3"/>
			<rect x="203.6" y="50.5" class="st41" width="2.9" height="3.3"/>
			<rect x="204.9" y="50.5" class="st40" width="0.2" height="3.3"/>
		</g>
		<g>
			<rect x="128" y="50.5" class="st40" width="8" height="3.3"/>
			<rect x="125.7" y="50.5" class="st41" width="2.9" height="3.3"/>
			<rect x="127" y="50.5" class="st40" width="0.2" height="3.3"/>
		</g>
		<g>
			<rect x="201.4" y="47.2" class="st38" width="8" height="3.3"/>
			<rect x="199.2" y="47.2" class="st39" width="2.9" height="3.3"/>
			<rect x="200.5" y="47.2" class="st38" width="0.2" height="3.3"/>
		</g>
		<g>
			<polygon class="st46" points="41,49.8 53.2,49.8 56.3,53.8 41.6,54 			"/>
			<rect x="40.3" y="49.8" class="st47" width="8.8" height="4.6"/>
			<path class="st48" d="M47.9,52.9h-6.1v-0.7h5.4C47.6,52.1,47.9,52.4,47.9,52.9L47.9,52.9z"/>
			<g>
				<g>
					<path class="st49" d="M82.1,53.1H86v-1.9h-3.9V53.1z M85.6,52.7h-3.2v-1.3h3.2V52.7z"/>
				</g>
				<g>
					<path class="st49" d="M72.9,53.1h3.9v-1.9h-3.9V53.1z M76.5,52.7h-3.2v-1.3h3.2V52.7z"/>
				</g>
				<g>
					<g>
						<path class="st49" d="M72.5,51.5h13.8v-1.8H72.5V51.5z M85.9,51.1H72.8V50h13.1V51.1z"/>
					</g>
					<g>
						
							<rect x="73.3" y="49.6" transform="matrix(0.7071 -0.7071 0.7071 0.7071 -14.2759 66.7037)" class="st49" width="0.2" height="2"/>
					</g>
					<g>
						
							<rect x="72.3" y="50.5" transform="matrix(0.7071 -0.7071 0.7071 0.7071 -14.2853 66.6811)" class="st49" width="2" height="0.2"/>
					</g>
					<g>
						
							<rect x="74.8" y="49.6" transform="matrix(0.7071 -0.7071 0.7071 0.7071 -13.8353 67.7674)" class="st49" width="0.2" height="2"/>
					</g>
					<g>
						
							<rect x="73.8" y="50.5" transform="matrix(0.7071 -0.7071 0.7071 0.7071 -13.8447 67.7448)" class="st49" width="2" height="0.2"/>
					</g>
					<g>
						
							<rect x="76.3" y="49.6" transform="matrix(0.7071 -0.7071 0.7071 0.7071 -13.3947 68.8312)" class="st49" width="0.2" height="2"/>
					</g>
					<g>
						
							<rect x="75.3" y="50.5" transform="matrix(0.7071 -0.7071 0.7071 0.7071 -13.4051 68.8034)" class="st49" width="2" height="0.2"/>
					</g>
					<g>
						
							<rect x="77.8" y="49.6" transform="matrix(0.7071 -0.7071 0.7071 0.7071 -12.9541 69.8949)" class="st49" width="0.2" height="2"/>
					</g>
					<g>
						
							<rect x="76.8" y="50.5" transform="matrix(0.7071 -0.7071 0.7071 0.7071 -12.9646 69.867)" class="st49" width="2" height="0.2"/>
					</g>
					<g>
						
							<rect x="79.3" y="49.6" transform="matrix(0.7071 -0.7071 0.7071 0.7071 -12.5136 70.958)" class="st49" width="0.2" height="2"/>
					</g>
					<g>
						
							<rect x="78.3" y="50.5" transform="matrix(0.7071 -0.7071 0.7071 0.7071 -12.524 70.9307)" class="st49" width="2" height="0.2"/>
					</g>
					<g>
						
							<rect x="80.8" y="49.6" transform="matrix(0.7071 -0.7071 0.7071 0.7071 -12.0729 72.0223)" class="st49" width="0.2" height="2"/>
					</g>
					<g>
						
							<rect x="79.8" y="50.5" transform="matrix(0.7071 -0.7071 0.7071 0.7071 -12.0835 71.9944)" class="st49" width="2" height="0.2"/>
					</g>
					<g>
						
							<rect x="82.3" y="49.6" transform="matrix(0.7071 -0.7071 0.7071 0.7071 -11.6323 73.086)" class="st49" width="0.2" height="2"/>
					</g>
					<g>
						
							<rect x="81.4" y="50.5" transform="matrix(0.7071 -0.7071 0.7071 0.7071 -11.6429 73.058)" class="st49" width="2" height="0.2"/>
					</g>
					<g>
						
							<rect x="83.8" y="49.6" transform="matrix(0.7071 -0.7072 0.7072 0.7071 -11.1899 74.1569)" class="st49" width="0.2" height="2"/>
					</g>
					<g>
						
							<rect x="82.9" y="50.5" transform="matrix(0.7071 -0.7071 0.7071 0.7071 -11.2024 74.1217)" class="st49" width="2" height="0.2"/>
					</g>
					<g>
						
							<rect x="85.3" y="49.6" transform="matrix(0.7071 -0.7071 0.7071 0.7071 -10.7511 75.2134)" class="st49" width="0.2" height="2"/>
					</g>
					<g>
						
							<rect x="84.4" y="50.5" transform="matrix(0.7071 -0.7071 0.7071 0.7071 -10.7619 75.1853)" class="st49" width="2" height="0.2"/>
					</g>
					<path class="st49" d="M74,51.6h1.8c0.2,0,0.4-0.2,0.4-0.4l0,0c0-0.2-0.2-0.4-0.4-0.4H74c-0.2,0-0.4,0.2-0.4,0.4l0,0
						C73.6,51.4,73.8,51.6,74,51.6z"/>
					<path class="st49" d="M83.1,51.6h1.8c0.2,0,0.4-0.2,0.4-0.4l0,0c0-0.2-0.2-0.4-0.4-0.4h-1.8c-0.2,0-0.4,0.2-0.4,0.4l0,0
						C82.7,51.4,82.9,51.6,83.1,51.6z"/>
				</g>
			</g>
			
				<rect x="86.1" y="52.1" transform="matrix(-1 -1.224647e-16 1.224647e-16 -1 183.734 105.2624)" class="st50" width="11.4" height="1"/>
			<g>
				<path class="st49" d="M55.3,44.5C55.4,44.5,55.4,44.4,55.3,44.5l2.2-2.4c0,0,0-0.1,0-0.1c0,0-0.1,0-0.1,0l-2,2.3v-2.5
					c0,0,0-0.1-0.1-0.1c0,0-0.1,0-0.1,0.1L55.3,44.5C55.2,44.4,55.3,44.4,55.3,44.5C55.3,44.5,55.3,44.5,55.3,44.5z"/>
			</g>
			<path class="st49" d="M57.2,40.7H61c0.1,0,0.3,0.1,0.3,0.3v1c0,0.1-0.1,0.3-0.3,0.3h-3.8c-0.1,0-0.3-0.1-0.3-0.3v-1
				C56.9,40.9,57,40.7,57.2,40.7z M57.5,42.1c0.1,0,0.2-0.1,0.2-0.2c0-0.1-0.1-0.2-0.2-0.2c-0.1,0-0.2,0.1-0.2,0.2
				C57.3,42,57.4,42.1,57.5,42.1z"/>
			<path class="st49" d="M55.3,42.1L55.3,42.1c0.2,0,0.4-0.2,0.4-0.4v-0.4c0-0.2-0.2-0.4-0.4-0.4l0,0c-0.2,0-0.4,0.2-0.4,0.4v0.4
				C54.9,41.9,55.1,42.1,55.3,42.1z"/>
			<g>
				<g>
					
						<rect x="45.1" y="40.5" transform="matrix(0.7071 -0.7071 0.7071 0.7071 -15.2467 44.6034)" class="st49" width="2.2" height="0.3"/>
				</g>
				<g>
					
						<rect x="46.1" y="39.6" transform="matrix(0.7071 -0.7071 0.7071 0.7071 -15.2456 44.6061)" class="st49" width="0.3" height="2.2"/>
				</g>
			</g>
			<g>
				<g>
					
						<rect x="46.7" y="40.5" transform="matrix(0.7071 -0.7071 0.7071 0.7071 -14.7971 45.6915)" class="st49" width="2.2" height="0.3"/>
				</g>
				<g>
					
						<rect x="47.6" y="39.6" transform="matrix(0.7071 -0.7071 0.7071 0.7071 -14.7965 45.6885)" class="st49" width="0.3" height="2.2"/>
				</g>
			</g>
			<g>
				<g>
					
						<rect x="48.2" y="40.5" transform="matrix(0.7071 -0.7071 0.7071 0.7071 -14.3481 46.773)" class="st49" width="2.2" height="0.3"/>
				</g>
				<g>
					
						<rect x="49.1" y="39.6" transform="matrix(0.7071 -0.7071 0.7071 0.7071 -14.347 46.7758)" class="st49" width="0.3" height="2.2"/>
				</g>
			</g>
			<g>
				<g>
					
						<rect x="63.7" y="40.5" transform="matrix(0.7071 -0.7071 0.7071 0.7071 -9.8155 57.7171)" class="st49" width="2.2" height="0.3"/>
				</g>
				<g>
					
						<rect x="64.6" y="39.6" transform="matrix(0.7071 -0.7071 0.7071 0.7071 -9.8159 57.7135)" class="st49" width="0.3" height="2.2"/>
				</g>
			</g>
			<g>
				<g>
					
						<rect x="65.2" y="40.5" transform="matrix(0.7071 -0.7071 0.7071 0.7071 -9.367 58.7983)" class="st49" width="2.2" height="0.3"/>
				</g>
				<g>
					
						<rect x="66.1" y="39.6" transform="matrix(0.7071 -0.7071 0.7071 0.7071 -9.3666 58.7982)" class="st49" width="0.3" height="2.2"/>
				</g>
			</g>
			<g>
				<g>
					
						<rect x="66.7" y="40.5" transform="matrix(0.7071 -0.7071 0.7071 0.7071 -8.9178 59.8827)" class="st49" width="2.2" height="0.3"/>
				</g>
				<g>
					
						<rect x="67.7" y="39.6" transform="matrix(0.7071 -0.7071 0.7071 0.7071 -8.9173 59.883)" class="st49" width="0.3" height="2.2"/>
				</g>
			</g>
			<g>
				<path class="st49" d="M45.3,41.6H69v-1.8H45.3V41.6z M68.6,41.3h-23v-1.1h23V41.3z"/>
			</g>
			<path class="st49" d="M52.9,40v13.8h-2.3V40H52.9z M51,49.2c0,0.2,0.2,0.4,0.4,0.4H52c0.2,0,0.4-0.2,0.4-0.4v-1
				c0-0.2-0.2-0.4-0.4-0.4h-0.6c-0.2,0-0.4,0.2-0.4,0.4V49.2z M51,46.2c0,0.2,0.2,0.4,0.4,0.4H52c0.2,0,0.4-0.2,0.4-0.4v-1
				c0-0.2-0.2-0.4-0.4-0.4h-0.6c-0.2,0-0.4,0.2-0.4,0.4V46.2z M51,43.1c0,0.2,0.2,0.4,0.4,0.4H52c0.2,0,0.4-0.2,0.4-0.4v-1
				c0-0.2-0.2-0.4-0.4-0.4h-0.6c-0.2,0-0.4,0.2-0.4,0.4V43.1z"/>
			<path class="st51" d="M52.6,40v13.8h-2.3V40H52.6z M50.7,49.2c0,0.2,0.2,0.4,0.4,0.4h0.6c0.2,0,0.4-0.2,0.4-0.4v-1
				c0-0.2-0.2-0.4-0.4-0.4h-0.6c-0.2,0-0.4,0.2-0.4,0.4V49.2z M50.7,46.2c0,0.2,0.2,0.4,0.4,0.4h0.6c0.2,0,0.4-0.2,0.4-0.4v-1
				c0-0.2-0.2-0.4-0.4-0.4h-0.6c-0.2,0-0.4,0.2-0.4,0.4V46.2z M50.7,43.1c0,0.2,0.2,0.4,0.4,0.4h0.6c0.2,0,0.4-0.2,0.4-0.4v-1
				c0-0.2-0.2-0.4-0.4-0.4h-0.6c-0.2,0-0.4,0.2-0.4,0.4V43.1z"/>
			<path class="st49" d="M64.2,40v13.8h-2.3V40H64.2z M62.3,49.2c0,0.2,0.2,0.4,0.4,0.4h0.6c0.2,0,0.4-0.2,0.4-0.4v-1
				c0-0.2-0.2-0.4-0.4-0.4h-0.6c-0.2,0-0.4,0.2-0.4,0.4V49.2z M62.3,46.2c0,0.2,0.2,0.4,0.4,0.4h0.6c0.2,0,0.4-0.2,0.4-0.4v-1
				c0-0.2-0.2-0.4-0.4-0.4h-0.6c-0.2,0-0.4,0.2-0.4,0.4V46.2z M62.3,43.1c0,0.2,0.2,0.4,0.4,0.4h0.6c0.2,0,0.4-0.2,0.4-0.4v-1
				c0-0.2-0.2-0.4-0.4-0.4h-0.6c-0.2,0-0.4,0.2-0.4,0.4V43.1z"/>
			<path class="st51" d="M63.9,40v13.8h-2.3V40H63.9z M62,49.2c0,0.2,0.2,0.4,0.4,0.4H63c0.2,0,0.4-0.2,0.4-0.4v-1
				c0-0.2-0.2-0.4-0.4-0.4h-0.6c-0.2,0-0.4,0.2-0.4,0.4V49.2z M62,46.2c0,0.2,0.2,0.4,0.4,0.4H63c0.2,0,0.4-0.2,0.4-0.4v-1
				c0-0.2-0.2-0.4-0.4-0.4h-0.6c-0.2,0-0.4,0.2-0.4,0.4V46.2z M62,43.1c0,0.2,0.2,0.4,0.4,0.4H63c0.2,0,0.4-0.2,0.4-0.4v-1
				c0-0.2-0.2-0.4-0.4-0.4h-0.6c-0.2,0-0.4,0.2-0.4,0.4V43.1z"/>
			<polygon class="st52" points="69.3,39.3 69.3,40.3 57.1,41.5 44.9,40.3 44.9,39.3 			"/>
			
				<rect x="90" y="52.1" transform="matrix(-1 -1.224647e-16 1.224647e-16 -1 187.6299 105.2624)" class="st53" width="7.5" height="1"/>
			
				<rect x="70.4" y="52.1" transform="matrix(-1 -1.224647e-16 1.224647e-16 -1 152.2437 105.2624)" class="st50" width="11.4" height="1"/>
			
				<rect x="74.3" y="52.1" transform="matrix(-1 -1.224647e-16 1.224647e-16 -1 156.1396 105.2624)" class="st53" width="7.5" height="1"/>
			
				<rect x="48.7" y="52.1" transform="matrix(-1 -1.224647e-16 1.224647e-16 -1 108.7636 105.2624)" class="st50" width="11.4" height="1"/>
			
				<rect x="52.6" y="52.1" transform="matrix(-1 -1.224647e-16 1.224647e-16 -1 112.6594 105.2624)" class="st53" width="7.5" height="1"/>
			
				<rect x="41.6" y="52.7" transform="matrix(-1 -1.224647e-16 1.224647e-16 -1 143.7447 108.0502)" class="st54" width="60.6" height="2.6"/>
			<path class="st55" d="M31.9,42.1H36c0.3,0,0.5-0.2,0.5-0.5l0,0c0-0.3-0.2-0.5-0.5-0.5h-4.1c-0.3,0-0.5,0.2-0.5,0.5l0,0
				C31.4,41.8,31.6,42.1,31.9,42.1z"/>
			
				<rect x="26.5" y="47.7" transform="matrix(-1 -1.224647e-16 1.224647e-16 -1 67.0241 98.3308)" class="st2" width="14" height="2.9"/>
			
				<rect x="26.5" y="47.6" transform="matrix(-1 -1.224647e-16 1.224647e-16 -1 67.7907 95.5829)" class="st2" width="14.8" height="0.5"/>
			<polygon class="st2" points="26.5,47.6 26.5,42.9 37.3,42.9 38.2,47.7 			"/>
			<polygon class="st56" points="30.3,42.9 30.5,43.5 30.7,44.1 37.5,44.1 37.4,43.5 37.3,42.9 			"/>
			<path class="st55" d="M33.3,42L33.3,42c0.1,0,0.2-0.1,0.2-0.2v-1.7c0-0.1-0.1-0.2-0.2-0.2l0,0c-0.1,0-0.2,0.1-0.2,0.2v1.7
				C33.2,41.9,33.2,42,33.3,42z"/>
			<path class="st55" d="M29.6,42L29.6,42c0.1,0,0.2-0.1,0.2-0.2v-1.7c0-0.1-0.1-0.2-0.2-0.2l0,0c-0.1,0-0.2,0.1-0.2,0.2v1.7
				C29.4,41.9,29.5,42,29.6,42z"/>
			
				<rect x="39" y="48.5" transform="matrix(-1 -1.224647e-16 1.224647e-16 -1 78.9062 97.6184)" class="st56" width="0.9" height="0.7"/>
			
				<rect x="37.5" y="48.5" transform="matrix(-1 -1.224647e-16 1.224647e-16 -1 75.9352 97.6184)" class="st56" width="0.9" height="0.7"/>
			
				<rect x="33.5" y="48.5" transform="matrix(-1 -1.224647e-16 1.224647e-16 -1 67.9146 97.6184)" class="st56" width="0.9" height="0.7"/>
			<polygon class="st57" points="26.5,42.9 29,42.9 31.5,50.1 26.5,50.1 			"/>
			<path class="st52" d="M106.7,54.4c-0.6,1-1.4,2.3-2.8,3.5c-0.1,0.1-0.1,0.1-0.2,0.1c-1.7,1.6-3.4,2.4-4.6,2.9H25.1
				c0-0.7,0.5-1.4,1.2-1.6l0.3-0.1c0.5-0.2,1-0.6,1.1-1.1l0-0.1c0.1-0.4,0.1-0.8-0.1-1.2l-0.8-1.7c-0.2-0.4-0.5-0.8-0.9-1.1
				c-0.4-0.3-0.8-0.6-1.2-0.7c-0.6-0.2-1-0.7-1.2-1.3l-0.6-2.2H41l2.7,4.6H106.7z"/>
			
				<rect x="29.4" y="55.3" transform="matrix(-1 -1.224647e-16 1.224647e-16 -1 60.3834 111.8413)" class="st58" width="1.6" height="1.1"/>
			<g>
				<path class="st59" d="M45.2,53.3h3.7c0.3,0,0.6-0.3,0.6-0.6l0,0h-4.8l0,0C44.6,53,44.9,53.3,45.2,53.3z"/>
				<path class="st60" d="M45.7,54.4h0.6v-1.1c0-0.2-0.1-0.3-0.3-0.3l0,0c-0.2,0-0.3,0.1-0.3,0.3V54.4z"/>
				<path class="st60" d="M46.7,54.4h0.6v-1.1c0-0.2-0.1-0.3-0.3-0.3l0,0c-0.2,0-0.3,0.1-0.3,0.3V54.4z"/>
				<path class="st60" d="M47.8,54.4h0.6v-1.1c0-0.2-0.1-0.3-0.3-0.3l0,0c-0.2,0-0.3,0.1-0.3,0.3V54.4z"/>
			</g>
			<g>
				<path class="st59" d="M52.4,53.3h3.7c0.3,0,0.6-0.3,0.6-0.6l0,0h-4.8l0,0C51.9,53,52.1,53.3,52.4,53.3z"/>
				<path class="st60" d="M52.9,54.4h0.6v-1.1c0-0.2-0.1-0.3-0.3-0.3l0,0c-0.2,0-0.3,0.1-0.3,0.3V54.4z"/>
				<path class="st60" d="M54,54.4h0.6v-1.1c0-0.2-0.1-0.3-0.3-0.3l0,0c-0.2,0-0.3,0.1-0.3,0.3V54.4z"/>
				<path class="st60" d="M55,54.4h0.6v-1.1c0-0.2-0.1-0.3-0.3-0.3l0,0c-0.2,0-0.3,0.1-0.3,0.3V54.4z"/>
			</g>
			<g>
				<path class="st59" d="M59.7,53.3h3.7c0.3,0,0.6-0.3,0.6-0.6l0,0h-4.8l0,0C59.1,53,59.4,53.3,59.7,53.3z"/>
				<path class="st60" d="M60.2,54.4h0.6v-1.1c0-0.2-0.1-0.3-0.3-0.3l0,0c-0.2,0-0.3,0.1-0.3,0.3V54.4z"/>
				<path class="st60" d="M61.2,54.4h0.6v-1.1c0-0.2-0.1-0.3-0.3-0.3l0,0c-0.2,0-0.3,0.1-0.3,0.3V54.4z"/>
				<path class="st60" d="M62.2,54.4h0.6v-1.1c0-0.2-0.1-0.3-0.3-0.3l0,0c-0.2,0-0.3,0.1-0.3,0.3V54.4z"/>
			</g>
			<g>
				<path class="st59" d="M67,53.3h3.7c0.3,0,0.6-0.3,0.6-0.6l0,0h-4.8l0,0C66.4,53,66.7,53.3,67,53.3z"/>
				<path class="st60" d="M67.5,54.4h0.6v-1.1c0-0.2-0.1-0.3-0.3-0.3l0,0c-0.2,0-0.3,0.1-0.3,0.3V54.4z"/>
				<path class="st60" d="M68.5,54.4h0.6v-1.1c0-0.2-0.1-0.3-0.3-0.3l0,0c-0.2,0-0.3,0.1-0.3,0.3V54.4z"/>
				<path class="st60" d="M69.5,54.4h0.6v-1.1c0-0.2-0.1-0.3-0.3-0.3l0,0c-0.2,0-0.3,0.1-0.3,0.3V54.4z"/>
			</g>
			<g>
				<path class="st59" d="M74.2,53.3h3.7c0.3,0,0.6-0.3,0.6-0.6l0,0h-4.8l0,0C73.7,53,73.9,53.3,74.2,53.3z"/>
				<path class="st60" d="M74.7,54.4h0.6v-1.1c0-0.2-0.1-0.3-0.3-0.3l0,0c-0.2,0-0.3,0.1-0.3,0.3V54.4z"/>
				<path class="st60" d="M75.7,54.4h0.6v-1.1c0-0.2-0.1-0.3-0.3-0.3l0,0c-0.2,0-0.3,0.1-0.3,0.3V54.4z"/>
				<path class="st60" d="M76.8,54.4h0.6v-1.1c0-0.2-0.1-0.3-0.3-0.3l0,0c-0.2,0-0.3,0.1-0.3,0.3V54.4z"/>
			</g>
			<g>
				<path class="st59" d="M81.5,53.3h3.7c0.3,0,0.6-0.3,0.6-0.6l0,0h-4.8l0,0C80.9,53,81.2,53.3,81.5,53.3z"/>
				<path class="st60" d="M82,54.4h0.6v-1.1c0-0.2-0.1-0.3-0.3-0.3l0,0c-0.2,0-0.3,0.1-0.3,0.3V54.4z"/>
				<path class="st60" d="M83,54.4h0.6v-1.1c0-0.2-0.1-0.3-0.3-0.3l0,0c-0.2,0-0.3,0.1-0.3,0.3V54.4z"/>
				<path class="st60" d="M84,54.4h0.6v-1.1c0-0.2-0.1-0.3-0.3-0.3l0,0c-0.2,0-0.3,0.1-0.3,0.3V54.4z"/>
			</g>
			<g>
				<path class="st59" d="M90,53.3h3.7c0.3,0,0.6-0.3,0.6-0.6l0,0h-4.8l0,0C89.5,53,89.7,53.3,90,53.3z"/>
				<path class="st60" d="M90.5,54.4h0.6v-1.1c0-0.2-0.1-0.3-0.3-0.3l0,0c-0.2,0-0.3,0.1-0.3,0.3V54.4z"/>
				<path class="st60" d="M91.6,54.4h0.6v-1.1c0-0.2-0.1-0.3-0.3-0.3l0,0c-0.2,0-0.3,0.1-0.3,0.3V54.4z"/>
				<path class="st60" d="M92.6,54.4h0.6v-1.1c0-0.2-0.1-0.3-0.3-0.3l0,0c-0.2,0-0.3,0.1-0.3,0.3V54.4z"/>
			</g>
			<g>
				<path class="st59" d="M97.3,53.3h3.7c0.3,0,0.6-0.3,0.6-0.6l0,0h-4.8l0,0C96.7,53,97,53.3,97.3,53.3z"/>
				<path class="st60" d="M97.8,54.4h0.6v-1.1c0-0.2-0.1-0.3-0.3-0.3l0,0c-0.2,0-0.3,0.1-0.3,0.3V54.4z"/>
				<path class="st60" d="M98.8,54.4h0.6v-1.1c0-0.2-0.1-0.3-0.3-0.3l0,0c-0.2,0-0.3,0.1-0.3,0.3V54.4z"/>
				<path class="st60" d="M99.8,54.4h0.6v-1.1c0-0.2-0.1-0.3-0.3-0.3l0,0c-0.2,0-0.3,0.1-0.3,0.3V54.4z"/>
			</g>
			
				<rect x="30.3" y="48" transform="matrix(-1 -1.224647e-16 1.224647e-16 -1 70.8534 96.2881)" class="st57" width="10.2" height="0.2"/>
			<polygon class="st57" points="37.3,42.9 38.2,41.6 28.1,41.6 27.3,42.9 			"/>
			<polygon class="st61" points="30.3,42.9 30.5,43.5 37.4,43.5 37.3,42.9 			"/>
			
				<rect x="32.6" y="42.9" transform="matrix(-1 -1.224647e-16 1.224647e-16 -1 65.2918 87.376)" class="st2" width="0.2" height="1.5"/>
			<path class="st58" d="M103.2,55.4H44.7c-0.6,0-1.1-0.5-1.1-1.1l0,0h60.6l0,0C104.3,54.9,103.8,55.4,103.2,55.4z"/>
			
				<rect x="54.9" y="44.1" transform="matrix(-1 -1.224647e-16 1.224647e-16 -1 110.7418 88.7917)" class="st49" width="0.9" height="0.5"/>
			<path class="st58" d="M36.1,50.8h3.2c0.6,0,1-0.5,1-1l0,0H35l0,0C35,50.4,35.5,50.8,36.1,50.8z"/>
			<path class="st58" d="M29,50.8h3.2c0.6,0,1-0.5,1-1l0,0h-5.3l0,0C27.9,50.4,28.4,50.8,29,50.8z"/>
			<path class="st62" d="M103.8,58c-1.7,1.6-3.4,2.4-4.6,2.9H25.1c0-0.7,0.5-1.4,1.2-1.6l0.3-0.1c0.5-0.2,1-0.6,1.1-1.1l0-0.1H103.8
				z"/>
			<path class="st53" d="M106.7,54.4c-0.6,1-1.4,2.3-2.8,3.5c-0.1,0.1-0.1,0.1-0.2,0.1c-1.7,1.6-3.4,2.4-4.6,2.9H84.7
				c0.8-0.5,1.9-1.5,2.7-2.9c0.1-0.2,0.3-0.5,0.4-0.8c0.5-1.1,0.6-2.1,0.6-2.9H106.7z"/>
			<rect x="25.8" y="45.5" class="st57" width="9.2" height="1"/>
			<rect x="29.4" y="45.5" class="st2" width="9.2" height="1"/>
			<polygon class="st63" points="30.3,46.7 26.5,46.7 26.5,46.5 30.2,46.5 			"/>
			<rect x="88.4" y="52.7" class="st53" width="13.8" height="1.7"/>
			<g>
				<path class="st58" d="M43.8,54.7C43.8,54.7,43.8,54.7,43.8,54.7l-2.9-4.9c0,0,0-0.1,0-0.1c0,0,0.1,0,0.1,0l2.9,4.9
					C43.9,54.6,43.9,54.7,43.8,54.7C43.9,54.7,43.9,54.7,43.8,54.7z"/>
			</g>
		</g>
		<g>
			<rect x="63.1" y="49.4" class="st42" width="8" height="3.3"/>
			<rect x="60.9" y="49.4" class="st43" width="2.9" height="3.3"/>
			<rect x="62.2" y="49.4" class="st42" width="0.2" height="3.3"/>
		</g>
		<g>
			<rect x="72.9" y="48.8" class="st40" width="8" height="3.3"/>
			<rect x="70.7" y="48.8" class="st41" width="2.9" height="3.3"/>
			<rect x="72" y="48.8" class="st40" width="0.2" height="3.3"/>
		</g>
	</g>
</g>
</svg>
