<?xml version="1.0" encoding="utf-8"?>
<!-- Generator: Adobe Illustrator 24.0.3, SVG Export Plug-In . SVG Version: 6.00 Build 0)  -->
<svg version="1.1" id="レイヤー_1" xmlns="http://www.w3.org/2000/svg" xmlns:xlink="http://www.w3.org/1999/xlink" x="0px"
	 y="0px" viewBox="0 0 130 87.6" style="enable-background:new 0 0 130 87.6;" xml:space="preserve">
<style type="text/css">
	.st0{fill:#D8EEF8;}
	.st1{fill:#F8F8F8;}
	.st2{fill:#87C4FF;}
	.st3{fill:#A8E0F8;}
	.st4{opacity:0.5;}
	.st5{fill:#DEDEDE;}
	.st6{fill:#C0C0C0;}
	.st7{fill:#797979;}
	.st8{fill:#00566F;}
	.st9{fill:#52B4C3;}
	.st10{fill:#575757;}
	.st11{fill:#9F9F9F;}
	.st12{fill:#E69900;}
	.st13{fill:#F9C726;}
	.st14{fill:#808080;}
	.st15{fill:#F0F0F0;}
	.st16{fill:#60718B;}
	.st17{fill:#AD968E;}
	.st18{fill:#6D5D5D;}
	.st19{fill:#DDAC57;}
	.st20{fill:#FFC564;}
	.st21{fill:#1A1A1A;}
	.st22{fill:#445D7B;}
	.st23{fill:#7987A1;}
	.st24{fill:#4D4D4D;}
	.st25{fill:#FFFFFF;}
	.st26{fill:#567497;}
	.st27{fill:#C62257;}
</style>
<g>
	<path class="st0" d="M120.3,55.3C120.3,24.8,95.5,0,65,0S9.7,24.8,9.7,55.3c0,11.1,3.3,21.4,8.9,30.1h92.8
		C117,76.7,120.3,66.4,120.3,55.3z"/>
	<g>
		<rect x="117.5" y="75.4" class="st1" width="4.4" height="9.3"/>
		<rect x="107.1" y="75.4" class="st2" width="10.4" height="9.3"/>
		<rect x="116" y="71.5" class="st1" width="4.4" height="3.9"/>
		<rect x="107.1" y="71.5" class="st2" width="8.9" height="3.9"/>
		<rect x="114.4" y="67.6" class="st1" width="4.4" height="3.9"/>
		<rect x="107.1" y="67.6" class="st2" width="7.3" height="3.9"/>
		<rect x="112.8" y="63.7" class="st1" width="4.4" height="3.9"/>
		<rect x="107.1" y="63.7" class="st2" width="5.8" height="3.9"/>
		<rect x="111.3" y="59.8" class="st1" width="4.4" height="3.9"/>
		<rect x="107.1" y="59.8" class="st2" width="4.2" height="3.9"/>
		<path class="st3" d="M116,74.9h-8.9v0.5h8.9V74.9z M116,73.6h-8.9V74h8.9V73.6z M107.1,83.4h10.4v-0.5h-10.4V83.4z M107.1,82h10.4
			v-0.5h-10.4V82z M107.1,80.7h10.4v-0.5h-10.4V80.7z M107.1,79.4h10.4v-0.5h-10.4V79.4z M107.1,77.6v0.5h10.4v-0.5H107.1z
			 M114.4,71h-7.3v0.5h7.3V71z M114.4,69.7h-7.3v0.5h7.3V69.7z M112.8,67.1h-5.8v0.5h5.8V67.1z M112.8,65.8h-5.8v0.5h5.8V65.8z
			 M111.3,63.2h-4.2v0.5h4.2V63.2z M111.3,61.9h-4.2v0.5h4.2V61.9z"/>
		<path class="st3" d="M120.4,74.9H116v0.5h4.4V74.9z M116,74h4.4v-0.5H116V74z M117.5,83.4h4.4v-0.5h-4.4V83.4z M117.5,82h4.4v-0.5
			h-4.4V82z M117.5,80.7h4.4v-0.5h-4.4V80.7z M117.5,79.4h4.4v-0.5h-4.4V79.4z M117.5,77.6v0.5h4.4v-0.5H117.5z M118.8,71h-4.4v0.5
			h4.4V71z M114.4,70.2h4.4v-0.5h-4.4V70.2z M117.3,67.1h-4.4v0.5h4.4V67.1z M112.8,66.3h4.4v-0.5h-4.4V66.3z M115.7,63.2h-4.4v0.5
			h4.4V63.2z M115.7,61.9h-4.4v0.5h4.4V61.9z"/>
		<rect x="30.8" y="53" class="st1" width="3.1" height="2.2"/>
		<rect x="25.1" y="53" class="st3" width="5.8" height="2.2"/>
		<rect x="31.7" y="55.2" class="st1" width="5.5" height="29.5"/>
		<rect x="21.4" y="55.2" class="st3" width="10.3" height="29.5"/>
		<path class="st2" d="M27.3,58.8h0.5v-2.1h-0.5V58.8z M24.5,58.8H25v-2.1h-0.5V58.8z M22.6,58.8h0.5v-2.1h-0.5V58.8z M29.1,58.8
			h0.5v-2.1h-0.5V58.8z M28.2,58.8h0.5v-2.1h-0.5V58.8z M25.4,58.8h0.5v-2.1h-0.5V58.8z M26.3,58.8h0.5v-2.1h-0.5V58.8z M23.6,58.8
			h0.5v-2.1h-0.5V58.8z M30,56.7v2.1h0.5v-2.1H30z M26.3,61.8h0.5v-2.1h-0.5V61.8z M27.3,61.8h0.5v-2.1h-0.5V61.8z M28.2,61.8h0.5
			v-2.1h-0.5V61.8z M24.5,61.8H25v-2.1h-0.5V61.8z M25.4,61.8h0.5v-2.1h-0.5V61.8z M23.6,61.8h0.5v-2.1h-0.5V61.8z M29.1,61.8h0.5
			v-2.1h-0.5V61.8z M22.6,61.8h0.5v-2.1h-0.5V61.8z M30,61.8h0.5v-2.1H30V61.8z M25.4,64.9h0.5v-2.1h-0.5V64.9z M24.5,64.9H25v-2.1
			h-0.5V64.9z M27.3,64.9h0.5v-2.1h-0.5V64.9z M22.6,64.9h0.5v-2.1h-0.5V64.9z M30,64.9h0.5v-2.1H30V64.9z M28.2,64.9h0.5v-2.1h-0.5
			V64.9z M29.1,64.9h0.5v-2.1h-0.5V64.9z M26.3,64.9h0.5v-2.1h-0.5V64.9z M23.6,64.9h0.5v-2.1h-0.5V64.9z M30,67.9h0.5v-2.1H30V67.9
			z M26.3,67.9h0.5v-2.1h-0.5V67.9z M25.4,67.9h0.5v-2.1h-0.5V67.9z M28.2,67.9h0.5v-2.1h-0.5V67.9z M24.5,67.9H25v-2.1h-0.5V67.9z
			 M29.1,67.9h0.5v-2.1h-0.5V67.9z M23.6,67.9h0.5v-2.1h-0.5V67.9z M27.3,67.9h0.5v-2.1h-0.5V67.9z M22.6,67.9h0.5v-2.1h-0.5V67.9z
			 M22.6,71h0.5v-2.1h-0.5V71z M26.3,71h0.5v-2.1h-0.5V71z M25.4,71h0.5v-2.1h-0.5V71z M24.5,71H25v-2.1h-0.5V71z M23.6,71h0.5v-2.1
			h-0.5V71z M30,71h0.5v-2.1H30V71z M27.3,71h0.5v-2.1h-0.5V71z M29.1,71h0.5v-2.1h-0.5V71z M28.2,71h0.5v-2.1h-0.5V71z M29.1,74
			h0.5v-2.1h-0.5V74z M24.5,74H25v-2.1h-0.5V74z M23.6,74h0.5v-2.1h-0.5V74z M26.3,74h0.5v-2.1h-0.5V74z M30,74h0.5v-2.1H30V74z
			 M28.2,74h0.5v-2.1h-0.5V74z M22.6,74h0.5v-2.1h-0.5V74z M25.4,74h0.5v-2.1h-0.5V74z M27.3,74h0.5v-2.1h-0.5V74z M29.1,77.1h0.5
			V75h-0.5V77.1z M23.6,77.1h0.5V75h-0.5V77.1z M26.3,77.1h0.5V75h-0.5V77.1z M30,77.1h0.5V75H30V77.1z M22.6,77.1h0.5V75h-0.5V77.1
			z M24.5,77.1H25V75h-0.5V77.1z M27.3,77.1h0.5V75h-0.5V77.1z M28.2,77.1h0.5V75h-0.5V77.1z M25.4,77.1h0.5V75h-0.5V77.1z
			 M24.5,80.1H25V78h-0.5V80.1z M26.3,80.1h0.5V78h-0.5V80.1z M27.3,80.1h0.5V78h-0.5V80.1z M30,80.1h0.5V78H30V80.1z M23.6,80.1
			h0.5V78h-0.5V80.1z M28.2,80.1h0.5V78h-0.5V80.1z M22.6,80.1h0.5V78h-0.5V80.1z M25.4,80.1h0.5V78h-0.5V80.1z M29.1,80.1h0.5V78
			h-0.5V80.1z M28.2,83.2h0.5V81h-0.5V83.2z M25.4,83.2h0.5V81h-0.5V83.2z M22.6,83.2h0.5V81h-0.5V83.2z M27.3,83.2h0.5V81h-0.5
			V83.2z M29.1,83.2h0.5V81h-0.5V83.2z M24.5,83.2H25V81h-0.5V83.2z M26.3,83.2h0.5V81h-0.5V83.2z M30,83.2h0.5V81H30V83.2z
			 M23.6,83.2h0.5V81h-0.5V83.2z"/>
		<path class="st3" d="M32.8,58.8h0.5v-2.1h-0.5V58.8z M35.6,58.8h0.5v-2.1h-0.5V58.8z M34.7,58.8h0.5v-2.1h-0.5V58.8z M33.7,58.8
			h0.5v-2.1h-0.5V58.8z M32.8,61.8h0.5v-2.1h-0.5V61.8z M34.7,61.8h0.5v-2.1h-0.5V61.8z M35.6,61.8h0.5v-2.1h-0.5V61.8z M33.7,61.8
			h0.5v-2.1h-0.5V61.8z M34.7,64.9h0.5v-2.1h-0.5V64.9z M32.8,64.9h0.5v-2.1h-0.5V64.9z M33.7,64.9h0.5v-2.1h-0.5V64.9z M35.6,64.9
			h0.5v-2.1h-0.5V64.9z M34.7,67.9h0.5v-2.1h-0.5V67.9z M33.7,67.9h0.5v-2.1h-0.5V67.9z M32.8,67.9h0.5v-2.1h-0.5V67.9z M35.6,67.9
			h0.5v-2.1h-0.5V67.9z M33.7,71h0.5v-2.1h-0.5V71z M35.6,71h0.5v-2.1h-0.5V71z M32.8,71h0.5v-2.1h-0.5V71z M34.7,71h0.5v-2.1h-0.5
			V71z M35.6,74h0.5v-2.1h-0.5V74z M34.7,74h0.5v-2.1h-0.5V74z M33.7,74h0.5v-2.1h-0.5V74z M32.8,74h0.5v-2.1h-0.5V74z M34.7,77.1
			h0.5V75h-0.5V77.1z M33.7,77.1h0.5V75h-0.5V77.1z M35.6,77.1h0.5V75h-0.5V77.1z M32.8,77.1h0.5V75h-0.5V77.1z M33.7,80.1h0.5V78
			h-0.5V80.1z M32.8,80.1h0.5V78h-0.5V80.1z M35.6,80.1h0.5V78h-0.5V80.1z M34.7,80.1h0.5V78h-0.5V80.1z M32.8,83.2h0.5V81h-0.5
			V83.2z M35.6,83.2h0.5V81h-0.5V83.2z M34.7,83.2h0.5V81h-0.5V83.2z M33.7,83.2h0.5V81h-0.5V83.2z"/>
		<polygon class="st3" points="83.1,37.7 75.6,44.9 75.6,84.7 83.1,84.7 		"/>
		<polygon class="st2" points="83.1,84.7 77.6,84.7 77.6,46.7 83.1,41.3 		"/>
		<path class="st3" d="M79.8,67.2h3.3v-0.5h-3.3V67.2z M79.8,68.2h3.3v-0.5h-3.3V68.2z M79.8,66.3h3.3v-0.5h-3.3V66.3z M79.8,70.1
			h3.3v-0.5h-3.3V70.1z M79.8,69.2h3.3v-0.5h-3.3V69.2z M79.8,71.1h3.3v-0.5h-3.3V71.1z M79.8,65.3h3.3v-0.5h-3.3V65.3z M79.8,64.3
			h3.3v-0.5h-3.3V64.3z M79.8,58v0.5h3.3V58H79.8z M79.8,60.5h3.3v-0.5h-3.3V60.5z M79.8,59.5h3.3V59h-3.3V59.5z M79.8,63.4h3.3
			v-0.5h-3.3V63.4z M79.8,62.4h3.3v-0.5h-3.3V62.4z M79.8,61.4h3.3v-0.5h-3.3V61.4z M79.8,79.8h3.3v-0.5h-3.3V79.8z M79.8,80.8h3.3
			v-0.5h-3.3V80.8z M79.8,78.9h3.3v-0.5h-3.3V78.9z M79.8,82.7h3.3v-0.5h-3.3V82.7z M79.8,81.8h3.3v-0.5h-3.3V81.8z M79.8,83.7h3.3
			v-0.5h-3.3V83.7z M79.8,84.7h3.3v-0.5h-3.3V84.7z M79.8,77.9h3.3v-0.5h-3.3V77.9z M79.8,76.9h3.3v-0.5h-3.3V76.9z M79.8,73.1h3.3
			v-0.5h-3.3V73.1z M79.8,72.1h3.3v-0.5h-3.3V72.1z M79.8,76h3.3v-0.5h-3.3V76z M79.8,75h3.3v-0.5h-3.3V75z M79.8,74h3.3v-0.5h-3.3
			V74z"/>
		<rect x="83.1" y="37.7" class="st1" width="4" height="46.9"/>
		<rect x="83.1" y="41.3" class="st3" width="2.7" height="43.3"/>
		<path class="st1" d="M83.1,67.2h1.6v-0.5h-1.6V67.2z M83.1,68.2h1.6v-0.5h-1.6V68.2z M83.1,66.3h1.6v-0.5h-1.6V66.3z M83.1,70.1
			h1.6v-0.5h-1.6V70.1z M83.1,69.2h1.6v-0.5h-1.6V69.2z M83.1,71.1h1.6v-0.5h-1.6V71.1z M83.1,65.3h1.6v-0.5h-1.6V65.3z M83.1,64.3
			h1.6v-0.5h-1.6V64.3z M83.1,58v0.5h1.6V58H83.1z M83.1,60.5h1.6v-0.5h-1.6V60.5z M83.1,59.5h1.6V59h-1.6V59.5z M83.1,63.4h1.6
			v-0.5h-1.6V63.4z M83.1,62.4h1.6v-0.5h-1.6V62.4z M83.1,61.4h1.6v-0.5h-1.6V61.4z M83.1,79.8h1.6v-0.5h-1.6V79.8z M83.1,80.8h1.6
			v-0.5h-1.6V80.8z M83.1,78.9h1.6v-0.5h-1.6V78.9z M83.1,82.7h1.6v-0.5h-1.6V82.7z M83.1,81.8h1.6v-0.5h-1.6V81.8z M83.1,83.7h1.6
			v-0.5h-1.6V83.7z M83.1,84.7h1.6v-0.5h-1.6V84.7z M83.1,77.9h1.6v-0.5h-1.6V77.9z M83.1,76.9h1.6v-0.5h-1.6V76.9z M83.1,73.1h1.6
			v-0.5h-1.6V73.1z M83.1,72.1h1.6v-0.5h-1.6V72.1z M83.1,76h1.6v-0.5h-1.6V76z M83.1,75h1.6v-0.5h-1.6V75z M83.1,74h1.6v-0.5h-1.6
			V74z"/>
		<rect x="50.4" y="39.6" class="st3" width="5.4" height="45.1"/>
		<polygon class="st2" points="50.4,84.7 46.6,84.7 46.6,32 50.4,39.6 		"/>
		<polygon class="st1" points="59.5,84.7 55.8,84.7 55.8,39.6 59.5,32 		"/>
		<g>
			<path class="st2" d="M52.2,82.9l-0.9,1.8l-0.9-1.8H52.2z"/>
			<path class="st2" d="M54,82.9l-0.9,1.8l-0.9-1.8H54z"/>
			<path class="st2" d="M53.1,81.1l-0.9,1.8l-0.9-1.8H53.1z"/>
			<path class="st2" d="M54.9,81.1L54,82.9l-0.9-1.8H54.9z"/>
			<path class="st2" d="M55.8,82.9l-0.9,1.8L54,82.9H55.8z"/>
			<path class="st2" d="M52.2,79.3l-0.9,1.8l-0.9-1.8H52.2z"/>
			<path class="st2" d="M54,79.3l-0.9,1.8l-0.9-1.8H54z"/>
			<path class="st2" d="M53.1,77.5l-0.9,1.8l-0.9-1.8H53.1z"/>
			<path class="st2" d="M54.9,77.5L54,79.3l-0.9-1.8H54.9z"/>
			<path class="st2" d="M55.8,79.3l-0.9,1.8L54,79.3H55.8z"/>
			<path class="st2" d="M52.2,75.7l-0.9,1.8l-0.9-1.8H52.2z"/>
			<path class="st2" d="M54,75.7l-0.9,1.8l-0.9-1.8H54z"/>
			<path class="st2" d="M53.1,73.9l-0.9,1.8l-0.9-1.8H53.1z"/>
			<path class="st2" d="M54.9,73.9L54,75.7l-0.9-1.8H54.9z"/>
			<path class="st2" d="M55.8,75.7l-0.9,1.8L54,75.7H55.8z"/>
			<path class="st2" d="M52.2,72.1l-0.9,1.8l-0.9-1.8H52.2z"/>
			<path class="st2" d="M54,72.1l-0.9,1.8l-0.9-1.8H54z"/>
			<path class="st2" d="M53.1,70.2l-0.9,1.8l-0.9-1.8H53.1z"/>
			<path class="st2" d="M54.9,70.2L54,72.1l-0.9-1.8H54.9z"/>
			<path class="st2" d="M55.8,72.1l-0.9,1.8L54,72.1H55.8z"/>
			<path class="st2" d="M52.2,68.4l-0.9,1.8l-0.9-1.8H52.2z"/>
			<path class="st2" d="M54,68.4l-0.9,1.8l-0.9-1.8H54z"/>
			<path class="st2" d="M53.1,66.6l-0.9,1.8l-0.9-1.8H53.1z"/>
			<path class="st2" d="M54.9,66.6L54,68.4l-0.9-1.8H54.9z"/>
			<path class="st2" d="M55.8,68.4l-0.9,1.8L54,68.4H55.8z"/>
			<path class="st2" d="M52.2,64.8l-0.9,1.8l-0.9-1.8H52.2z"/>
			<path class="st2" d="M54,64.8l-0.9,1.8l-0.9-1.8H54z"/>
			<path class="st2" d="M53.1,63l-0.9,1.8L51.3,63H53.1z"/>
			<path class="st2" d="M54.9,63L54,64.8L53.1,63H54.9z"/>
			<path class="st2" d="M55.8,64.8l-0.9,1.8L54,64.8H55.8z"/>
			<path class="st2" d="M52.2,61.2L51.3,63l-0.9-1.8H52.2z"/>
			<path class="st2" d="M54,61.2L53.1,63l-0.9-1.8H54z"/>
			<path class="st2" d="M53.1,59.4l-0.9,1.8l-0.9-1.8H53.1z"/>
			<path class="st2" d="M54.9,59.4L54,61.2l-0.9-1.8H54.9z"/>
			<path class="st2" d="M55.8,61.2L54.9,63L54,61.2H55.8z"/>
			<path class="st2" d="M52.2,57.6l-0.9,1.8l-0.9-1.8H52.2z"/>
			<path class="st2" d="M54,57.6l-0.9,1.8l-0.9-1.8H54z"/>
			<path class="st2" d="M53.1,55.8l-0.9,1.8l-0.9-1.8H53.1z"/>
			<path class="st2" d="M54.9,55.8L54,57.6l-0.9-1.8H54.9z"/>
			<path class="st2" d="M55.8,57.6l-0.9,1.8L54,57.6H55.8z"/>
			<path class="st2" d="M52.2,54l-0.9,1.8L50.4,54H52.2z"/>
			<path class="st2" d="M54,54l-0.9,1.8L52.2,54H54z"/>
			<path class="st2" d="M53.1,52.2L52.2,54l-0.9-1.8H53.1z"/>
			<path class="st2" d="M54.9,52.2L54,54l-0.9-1.8H54.9z"/>
			<path class="st2" d="M55.8,54l-0.9,1.8L54,54H55.8z"/>
			<path class="st2" d="M52.2,50.4l-0.9,1.8l-0.9-1.8H52.2z"/>
			<path class="st2" d="M54,50.4l-0.9,1.8l-0.9-1.8H54z"/>
			<path class="st2" d="M55.8,50.4l-0.9,1.8L54,50.4H55.8z"/>
			<path class="st2" d="M53.1,48.6l-0.9,1.8l-0.9-1.8H53.1z"/>
			<path class="st2" d="M54.9,48.6L54,50.4l-0.9-1.8H54.9z"/>
			<path class="st2" d="M52.2,46.8l-0.9,1.8l-0.9-1.8H52.2z"/>
			<path class="st2" d="M54,46.8l-0.9,1.8l-0.9-1.8H54z"/>
			<path class="st2" d="M53.1,45l-0.9,1.8L51.3,45H53.1z"/>
			<path class="st2" d="M54.9,45L54,46.8L53.1,45H54.9z"/>
			<path class="st2" d="M55.8,46.8l-0.9,1.8L54,46.8H55.8z"/>
			<path class="st2" d="M52.2,43.2L51.3,45l-0.9-1.8H52.2z"/>
			<path class="st2" d="M54,43.2L53.1,45l-0.9-1.8H54z"/>
			<path class="st2" d="M53.1,41.4l-0.9,1.8l-0.9-1.8H53.1z"/>
			<path class="st2" d="M54.9,41.4L54,43.2l-0.9-1.8H54.9z"/>
			<path class="st2" d="M55.8,43.2L54.9,45L54,43.2H55.8z"/>
			<path class="st2" d="M52.2,39.6l-0.9,1.8l-0.9-1.8H52.2z"/>
			<path class="st2" d="M54,39.6l-0.9,1.8l-0.9-1.8H54z"/>
			<path class="st2" d="M55.8,39.6l-0.9,1.8L54,39.6H55.8z"/>
		</g>
		<g class="st4">
			<path class="st3" d="M59.5,82.9l-0.9,1.8l-0.9-1.8H59.5z"/>
			<path class="st3" d="M58.6,81.1l-0.9,1.8l-0.9-1.8H58.6z"/>
			<path class="st3" d="M59.5,79.3l-0.9,1.8l-0.9-1.8H59.5z"/>
			<path class="st3" d="M58.6,77.5l-0.9,1.8l-0.9-1.8H58.6z"/>
			<path class="st3" d="M59.5,75.7l-0.9,1.8l-0.9-1.8H59.5z"/>
			<path class="st3" d="M58.6,73.9l-0.9,1.8l-0.9-1.8H58.6z"/>
			<path class="st3" d="M59.5,72.1l-0.9,1.8l-0.9-1.8H59.5z"/>
			<path class="st3" d="M58.6,70.2l-0.9,1.8l-0.9-1.8H58.6z"/>
			<path class="st3" d="M59.5,68.4l-0.9,1.8l-0.9-1.8H59.5z"/>
			<path class="st3" d="M58.6,66.6l-0.9,1.8l-0.9-1.8H58.6z"/>
			<path class="st3" d="M59.5,64.8l-0.9,1.8l-0.9-1.8H59.5z"/>
			<path class="st3" d="M58.6,63l-0.9,1.8L56.8,63H58.6z"/>
			<path class="st3" d="M59.5,61.2L58.6,63l-0.9-1.8H59.5z"/>
			<path class="st3" d="M58.6,59.4l-0.9,1.8l-0.9-1.8H58.6z"/>
			<path class="st3" d="M59.5,57.6l-0.9,1.8l-0.9-1.8H59.5z"/>
			<path class="st3" d="M58.6,55.8l-0.9,1.8l-0.9-1.8H58.6z"/>
			<path class="st3" d="M59.5,54l-0.9,1.8L57.7,54H59.5z"/>
			<path class="st3" d="M58.6,52.2L57.7,54l-0.9-1.8H58.6z"/>
			<path class="st3" d="M59.5,50.4l-0.9,1.8l-0.9-1.8H59.5z"/>
			<path class="st3" d="M58.6,48.6l-0.9,1.8l-0.9-1.8H58.6z"/>
			<path class="st3" d="M59.5,46.8l-0.9,1.8l-0.9-1.8H59.5z"/>
			<path class="st3" d="M58.6,45l-0.9,1.8L56.8,45H58.6z"/>
			<path class="st3" d="M59.5,43.2L58.6,45l-0.9-1.8H59.5z"/>
			<path class="st3" d="M58.6,41.4l-0.9,1.8l-0.9-1.8H58.6z"/>
			<path class="st3" d="M59.5,39.6l-0.9,1.8l-0.9-1.8H59.5z"/>
		</g>
		<g class="st4">
			<path class="st3" d="M48.4,82.9l-0.9,1.8l-0.9-1.8H48.4z"/>
			<path class="st3" d="M49.3,81.1l-0.9,1.8l-0.9-1.8H49.3z"/>
			<path class="st3" d="M48.4,79.3l-0.9,1.8l-0.9-1.8H48.4z"/>
			<path class="st3" d="M49.3,77.5l-0.9,1.8l-0.9-1.8H49.3z"/>
			<path class="st3" d="M48.4,75.7l-0.9,1.8l-0.9-1.8H48.4z"/>
			<path class="st3" d="M49.3,73.9l-0.9,1.8l-0.9-1.8H49.3z"/>
			<path class="st3" d="M48.4,72.1l-0.9,1.8l-0.9-1.8H48.4z"/>
			<path class="st3" d="M49.3,70.2l-0.9,1.8l-0.9-1.8H49.3z"/>
			<path class="st3" d="M48.4,68.4l-0.9,1.8l-0.9-1.8H48.4z"/>
			<path class="st3" d="M49.3,66.6l-0.9,1.8l-0.9-1.8H49.3z"/>
			<path class="st3" d="M48.4,64.8l-0.9,1.8l-0.9-1.8H48.4z"/>
			<path class="st3" d="M49.3,63l-0.9,1.8L47.5,63H49.3z"/>
			<path class="st3" d="M48.4,61.2L47.5,63l-0.9-1.8H48.4z"/>
			<path class="st3" d="M49.3,59.4l-0.9,1.8l-0.9-1.8H49.3z"/>
			<path class="st3" d="M48.4,57.6l-0.9,1.8l-0.9-1.8H48.4z"/>
			<path class="st3" d="M49.3,55.8l-0.9,1.8l-0.9-1.8H49.3z"/>
			<path class="st3" d="M48.4,54l-0.9,1.8L46.6,54H48.4z"/>
			<path class="st3" d="M49.3,52.2L48.4,54l-0.9-1.8H49.3z"/>
			<path class="st3" d="M48.4,50.4l-0.9,1.8l-0.9-1.8H48.4z"/>
			<path class="st3" d="M49.3,48.6l-0.9,1.8l-0.9-1.8H49.3z"/>
			<path class="st3" d="M48.4,46.8l-0.9,1.8l-0.9-1.8H48.4z"/>
			<path class="st3" d="M49.3,45l-0.9,1.8L47.5,45H49.3z"/>
			<path class="st3" d="M48.4,43.2L47.5,45l-0.9-1.8H48.4z"/>
			<path class="st3" d="M49.3,41.4l-0.9,1.8l-0.9-1.8H49.3z"/>
			<path class="st3" d="M48.4,39.6l-0.9,1.8l-0.9-1.8H48.4z"/>
		</g>
		<polygon class="st3" points="55.8,39.6 50.4,39.6 46.6,32 59.5,32 		"/>
		<g>
			<rect x="88.5" y="35.6" class="st1" width="12.1" height="49.1"/>
			<rect x="88.2" y="34.5" class="st1" width="12.6" height="1.1"/>
			<rect x="87.1" y="35.6" class="st3" width="12.1" height="49.1"/>
			<rect x="86.8" y="34.5" class="st3" width="12.6" height="1.1"/>
			<path class="st2" d="M88.1,41.2h10.1v-0.5H88.1V41.2z M88.1,43.2h10.1v-0.5H88.1V43.2z M88.1,42.2h10.1v-0.5H88.1V42.2z
				 M88.1,39.7v0.5h10.1v-0.5H88.1z M88.1,46.1h10.1v-0.5H88.1V46.1z M88.1,47h10.1v-0.5H88.1V47z M88.1,45.1h10.1v-0.5H88.1V45.1z
				 M88.1,44.1h10.1v-0.5H88.1V44.1z M88.1,49.7h10.1v-0.5H88.1V49.7z M88.1,51.6h10.1v-0.5H88.1V51.6z M88.1,50.7h10.1v-0.5H88.1
				V50.7z M88.1,48.7h10.1v-0.5H88.1V48.7z M88.1,54.5h10.1V54H88.1V54.5z M88.1,55.5h10.1V55H88.1V55.5z M88.1,53.6h10.1V53H88.1
				V53.6z M88.1,52.6h10.1v-0.5H88.1V52.6z M88.1,58.2h10.1v-0.5H88.1V58.2z M88.1,60.1h10.1v-0.5H88.1V60.1z M88.1,59.1h10.1v-0.5
				H88.1V59.1z M88.1,57.2h10.1v-0.5H88.1V57.2z M88.1,63h10.1v-0.5H88.1V63z M88.1,64h10.1v-0.5H88.1V64z M88.1,62h10.1v-0.5H88.1
				V62z M88.1,61.1h10.1v-0.5H88.1V61.1z"/>
		</g>
		<rect x="100.7" y="53" class="st1" width="3.1" height="2.2"/>
		<rect x="94.9" y="53" class="st3" width="5.8" height="2.2"/>
		<rect x="101.6" y="55.2" class="st1" width="5.5" height="29.5"/>
		<rect x="91.3" y="55.2" class="st3" width="10.3" height="29.5"/>
		<path class="st2" d="M97.1,58.8h0.5v-2.1h-0.5V58.8z M94.4,58.8h0.5v-2.1h-0.5V58.8z M92.5,58.8H93v-2.1h-0.5V58.8z M99,58.8h0.5
			v-2.1H99V58.8z M98.1,58.8h0.5v-2.1h-0.5V58.8z M95.3,58.8h0.5v-2.1h-0.5V58.8z M96.2,58.8h0.5v-2.1h-0.5V58.8z M93.4,58.8H94
			v-2.1h-0.5V58.8z M99.9,56.7v2.1h0.5v-2.1H99.9z M96.2,61.8h0.5v-2.1h-0.5V61.8z M97.1,61.8h0.5v-2.1h-0.5V61.8z M98.1,61.8h0.5
			v-2.1h-0.5V61.8z M94.4,61.8h0.5v-2.1h-0.5V61.8z M95.3,61.8h0.5v-2.1h-0.5V61.8z M93.4,61.8H94v-2.1h-0.5V61.8z M99,61.8h0.5
			v-2.1H99V61.8z M92.5,61.8H93v-2.1h-0.5V61.8z M99.9,61.8h0.5v-2.1h-0.5V61.8z M95.3,64.9h0.5v-2.1h-0.5V64.9z M94.4,64.9h0.5
			v-2.1h-0.5V64.9z M97.1,64.9h0.5v-2.1h-0.5V64.9z M92.5,64.9H93v-2.1h-0.5V64.9z M99.9,64.9h0.5v-2.1h-0.5V64.9z M98.1,64.9h0.5
			v-2.1h-0.5V64.9z M99,64.9h0.5v-2.1H99V64.9z M96.2,64.9h0.5v-2.1h-0.5V64.9z M93.4,64.9H94v-2.1h-0.5V64.9z M99.9,67.9h0.5v-2.1
			h-0.5V67.9z M96.2,67.9h0.5v-2.1h-0.5V67.9z M95.3,67.9h0.5v-2.1h-0.5V67.9z M98.1,67.9h0.5v-2.1h-0.5V67.9z M94.4,67.9h0.5v-2.1
			h-0.5V67.9z M99,67.9h0.5v-2.1H99V67.9z M93.4,67.9H94v-2.1h-0.5V67.9z M97.1,67.9h0.5v-2.1h-0.5V67.9z M92.5,67.9H93v-2.1h-0.5
			V67.9z M92.5,71H93v-2.1h-0.5V71z M96.2,71h0.5v-2.1h-0.5V71z M95.3,71h0.5v-2.1h-0.5V71z M94.4,71h0.5v-2.1h-0.5V71z M93.4,71H94
			v-2.1h-0.5V71z M99.9,71h0.5v-2.1h-0.5V71z M97.1,71h0.5v-2.1h-0.5V71z M99,71h0.5v-2.1H99V71z M98.1,71h0.5v-2.1h-0.5V71z M99,74
			h0.5v-2.1H99V74z M94.4,74h0.5v-2.1h-0.5V74z M93.4,74H94v-2.1h-0.5V74z M96.2,74h0.5v-2.1h-0.5V74z M99.9,74h0.5v-2.1h-0.5V74z
			 M98.1,74h0.5v-2.1h-0.5V74z M92.5,74H93v-2.1h-0.5V74z M95.3,74h0.5v-2.1h-0.5V74z M97.1,74h0.5v-2.1h-0.5V74z M99,77.1h0.5V75
			H99V77.1z M93.4,77.1H94V75h-0.5V77.1z M96.2,77.1h0.5V75h-0.5V77.1z M99.9,77.1h0.5V75h-0.5V77.1z M92.5,77.1H93V75h-0.5V77.1z
			 M94.4,77.1h0.5V75h-0.5V77.1z M97.1,77.1h0.5V75h-0.5V77.1z M98.1,77.1h0.5V75h-0.5V77.1z M95.3,77.1h0.5V75h-0.5V77.1z
			 M94.4,80.1h0.5V78h-0.5V80.1z M96.2,80.1h0.5V78h-0.5V80.1z M97.1,80.1h0.5V78h-0.5V80.1z M99.9,80.1h0.5V78h-0.5V80.1z
			 M93.4,80.1H94V78h-0.5V80.1z M98.1,80.1h0.5V78h-0.5V80.1z M92.5,80.1H93V78h-0.5V80.1z M95.3,80.1h0.5V78h-0.5V80.1z M99,80.1
			h0.5V78H99V80.1z M98.1,83.2h0.5V81h-0.5V83.2z M95.3,83.2h0.5V81h-0.5V83.2z M92.5,83.2H93V81h-0.5V83.2z M97.1,83.2h0.5V81h-0.5
			V83.2z M99,83.2h0.5V81H99V83.2z M94.4,83.2h0.5V81h-0.5V83.2z M96.2,83.2h0.5V81h-0.5V83.2z M99.9,83.2h0.5V81h-0.5V83.2z
			 M93.4,83.2H94V81h-0.5V83.2z"/>
		<path class="st3" d="M102.7,58.8h0.5v-2.1h-0.5V58.8z M105.5,58.8h0.5v-2.1h-0.5V58.8z M104.6,58.8h0.5v-2.1h-0.5V58.8z
			 M103.6,58.8h0.5v-2.1h-0.5V58.8z M102.7,61.8h0.5v-2.1h-0.5V61.8z M104.6,61.8h0.5v-2.1h-0.5V61.8z M105.5,61.8h0.5v-2.1h-0.5
			V61.8z M103.6,61.8h0.5v-2.1h-0.5V61.8z M104.6,64.9h0.5v-2.1h-0.5V64.9z M102.7,64.9h0.5v-2.1h-0.5V64.9z M103.6,64.9h0.5v-2.1
			h-0.5V64.9z M105.5,64.9h0.5v-2.1h-0.5V64.9z M104.6,67.9h0.5v-2.1h-0.5V67.9z M103.6,67.9h0.5v-2.1h-0.5V67.9z M102.7,67.9h0.5
			v-2.1h-0.5V67.9z M105.5,67.9h0.5v-2.1h-0.5V67.9z M103.6,71h0.5v-2.1h-0.5V71z M105.5,71h0.5v-2.1h-0.5V71z M102.7,71h0.5v-2.1
			h-0.5V71z M104.6,71h0.5v-2.1h-0.5V71z M105.5,74h0.5v-2.1h-0.5V74z M104.6,74h0.5v-2.1h-0.5V74z M103.6,74h0.5v-2.1h-0.5V74z
			 M102.7,74h0.5v-2.1h-0.5V74z M104.6,77.1h0.5V75h-0.5V77.1z M103.6,77.1h0.5V75h-0.5V77.1z M105.5,77.1h0.5V75h-0.5V77.1z
			 M102.7,77.1h0.5V75h-0.5V77.1z M103.6,80.1h0.5V78h-0.5V80.1z M102.7,80.1h0.5V78h-0.5V80.1z M105.5,80.1h0.5V78h-0.5V80.1z
			 M104.6,80.1h0.5V78h-0.5V80.1z M102.7,83.2h0.5V81h-0.5V83.2z M105.5,83.2h0.5V81h-0.5V83.2z M104.6,83.2h0.5V81h-0.5V83.2z
			 M103.6,83.2h0.5V81h-0.5V83.2z"/>
		<rect x="70.8" y="48.1" class="st1" width="4.8" height="36.6"/>
		<rect x="59.5" y="48.1" class="st3" width="11.3" height="36.6"/>
		<g>
			<rect x="69.1" y="43.7" class="st1" width="4.8" height="4.4"/>
			<rect x="59.5" y="43.7" class="st3" width="9.6" height="4.4"/>
		</g>
		<g>
			<rect x="67.4" y="39.3" class="st1" width="4.8" height="4.4"/>
			<rect x="59.5" y="39.3" class="st3" width="7.9" height="4.4"/>
		</g>
		<g>
			<rect x="65.8" y="34.9" class="st1" width="4.8" height="4.4"/>
			<rect x="59.5" y="34.9" class="st3" width="6.2" height="4.4"/>
		</g>
		<g>
			<rect x="64.1" y="30.5" class="st1" width="4.8" height="4.4"/>
			<rect x="59.5" y="30.5" class="st3" width="4.6" height="4.4"/>
		</g>
		<g>
			<rect x="59.5" y="47.6" class="st2" width="9.6" height="0.5"/>
			<rect x="69.1" y="47.6" class="st3" width="4.8" height="0.5"/>
		</g>
		<g>
			<rect x="59.5" y="46.1" class="st2" width="9.6" height="0.5"/>
			<rect x="69.1" y="46.1" class="st3" width="4.8" height="0.5"/>
		</g>
		<g>
			<rect x="59.5" y="56.7" class="st2" width="11.3" height="0.5"/>
			<rect x="70.8" y="56.7" class="st3" width="4.8" height="0.5"/>
		</g>
		<g>
			<rect x="59.5" y="55.2" class="st2" width="11.3" height="0.5"/>
			<rect x="70.8" y="55.2" class="st3" width="4.8" height="0.5"/>
		</g>
		<g>
			<rect x="59.5" y="53.7" class="st2" width="11.3" height="0.5"/>
			<rect x="70.8" y="53.7" class="st3" width="4.8" height="0.5"/>
		</g>
		<g>
			<rect x="59.5" y="52.2" class="st2" width="11.3" height="0.5"/>
			<rect x="70.8" y="52.2" class="st3" width="4.8" height="0.5"/>
		</g>
		<g>
			<rect x="59.5" y="50.7" class="st2" width="11.3" height="0.5"/>
			<rect x="70.8" y="50.7" class="st3" width="4.8" height="0.5"/>
		</g>
		<rect x="68.2" y="57.8" class="st1" width="6.4" height="26.9"/>
		<rect x="70.2" y="72.4" class="st3" width="3.1" height="12.2"/>
		
			<rect x="69.4" y="72.4" transform="matrix(-1 -1.224647e-16 1.224647e-16 -1 139.6396 157.0972)" class="st2" width="0.8" height="12.2"/>
		<rect x="61.8" y="57.8" class="st2" width="6.4" height="26.9"/>
		<polygon class="st1" points="73,57.8 68.2,57.8 68.2,54.4 		"/>
		<rect x="63.4" y="54.4" class="st2" width="4.8" height="3.3"/>
		<path class="st3" d="M63.4,61.5h0.5v-2.1h-0.5V61.5z M66.1,61.5h0.5v-2.1h-0.5V61.5z M65.2,61.5h0.5v-2.1h-0.5V61.5z M64.3,61.5
			h0.5v-2.1h-0.5V61.5z M63.4,64.5h0.5v-2.1h-0.5V64.5z M65.2,64.5h0.5v-2.1h-0.5V64.5z M66.1,64.5h0.5v-2.1h-0.5V64.5z M64.3,64.5
			h0.5v-2.1h-0.5V64.5z M65.2,67.6h0.5v-2.1h-0.5V67.6z M63.4,67.6h0.5v-2.1h-0.5V67.6z M64.3,67.6h0.5v-2.1h-0.5V67.6z M66.1,67.6
			h0.5v-2.1h-0.5V67.6z M65.2,70.6h0.5v-2.1h-0.5V70.6z M64.3,70.6h0.5v-2.1h-0.5V70.6z M63.4,70.6h0.5v-2.1h-0.5V70.6z M66.1,70.6
			h0.5v-2.1h-0.5V70.6z"/>
		<path class="st3" d="M69.7,61.5h0.5v-2.1h-0.5V61.5z M72.5,61.5H73v-2.1h-0.5V61.5z M71.6,61.5h0.5v-2.1h-0.5V61.5z M70.6,61.5
			h0.5v-2.1h-0.5V61.5z M69.7,64.5h0.5v-2.1h-0.5V64.5z M71.6,64.5h0.5v-2.1h-0.5V64.5z M72.5,64.5H73v-2.1h-0.5V64.5z M70.6,64.5
			h0.5v-2.1h-0.5V64.5z M71.6,67.6h0.5v-2.1h-0.5V67.6z M69.7,67.6h0.5v-2.1h-0.5V67.6z M70.6,67.6h0.5v-2.1h-0.5V67.6z M72.5,67.6
			H73v-2.1h-0.5V67.6z M71.6,70.6h0.5v-2.1h-0.5V70.6z M70.6,70.6h0.5v-2.1h-0.5V70.6z M69.7,70.6h0.5v-2.1h-0.5V70.6z M72.5,70.6
			H73v-2.1h-0.5V70.6z"/>
		
			<rect x="63" y="72.4" transform="matrix(-1 -1.224647e-16 1.224647e-16 -1 129.16 157.0972)" class="st3" width="3.1" height="12.2"/>
		<rect x="66.1" y="72.4" class="st1" width="0.8" height="12.2"/>
		<rect x="34.8" y="39.5" class="st2" width="4.8" height="45.2"/>
		<rect x="39.5" y="39.5" class="st3" width="4.8" height="45.2"/>
		<rect x="44.3" y="39.5" class="st1" width="4.8" height="45.2"/>
		<rect x="35.3" y="40.5" class="st2" width="3.6" height="26"/>
		<rect x="40.1" y="40.5" class="st2" width="3.6" height="26"/>
		<rect x="44.8" y="40.5" class="st3" width="3.6" height="26"/>
		<path class="st3" d="M35.3,41.6v0.5H39v-0.5H35.3z M35.3,43.8H39v-0.5h-3.6V43.8z M35.3,45.5H39v-0.5h-3.6V45.5z M35.3,47.1H39
			v-0.5h-3.6V47.1z M35.3,48.8H39v-0.5h-3.6V48.8z M35.3,50.5H39v-0.5h-3.6V50.5z M35.3,52.1H39v-0.5h-3.6V52.1z M35.3,53.8H39v-0.5
			h-3.6V53.8z M35.3,55.5H39v-0.5h-3.6V55.5z M35.3,57.1H39v-0.5h-3.6V57.1z M35.3,58.8H39v-0.5h-3.6V58.8z M35.3,60.5H39v-0.5h-3.6
			V60.5z M35.3,62.1H39v-0.5h-3.6V62.1z M35.3,63.8H39v-0.5h-3.6V63.8z M35.3,65.5H39v-0.5h-3.6V65.5z"/>
		<path class="st3" d="M40.1,41.6v0.5h3.6v-0.5H40.1z M40.1,43.8h3.6v-0.5h-3.6V43.8z M40.1,45.5h3.6v-0.5h-3.6V45.5z M40.1,47.1
			h3.6v-0.5h-3.6V47.1z M40.1,48.8h3.6v-0.5h-3.6V48.8z M40.1,50.5h3.6v-0.5h-3.6V50.5z M40.1,52.1h3.6v-0.5h-3.6V52.1z M40.1,53.8
			h3.6v-0.5h-3.6V53.8z M40.1,55.5h3.6v-0.5h-3.6V55.5z M40.1,57.1h3.6v-0.5h-3.6V57.1z M40.1,58.8h3.6v-0.5h-3.6V58.8z M40.1,60.5
			h3.6v-0.5h-3.6V60.5z M40.1,62.1h3.6v-0.5h-3.6V62.1z M40.1,63.8h3.6v-0.5h-3.6V63.8z M40.1,65.5h3.6v-0.5h-3.6V65.5z"/>
		<path class="st1" d="M44.8,41.6v0.5h3.6v-0.5H44.8z M44.8,43.8h3.6v-0.5h-3.6V43.8z M44.8,45.5h3.6v-0.5h-3.6V45.5z M44.8,47.1
			h3.6v-0.5h-3.6V47.1z M44.8,48.8h3.6v-0.5h-3.6V48.8z M44.8,50.5h3.6v-0.5h-3.6V50.5z M44.8,52.1h3.6v-0.5h-3.6V52.1z M44.8,53.8
			h3.6v-0.5h-3.6V53.8z M44.8,55.5h3.6v-0.5h-3.6V55.5z M44.8,57.1h3.6v-0.5h-3.6V57.1z M44.8,58.8h3.6v-0.5h-3.6V58.8z M44.8,60.5
			h3.6v-0.5h-3.6V60.5z M44.8,62.1h3.6v-0.5h-3.6V62.1z M44.8,63.8h3.6v-0.5h-3.6V63.8z M44.8,65.5h3.6v-0.5h-3.6V65.5z"/>
		<rect x="16.9" y="61.4" class="st1" width="4.5" height="23.2"/>
		<rect x="18" y="62.5" class="st3" width="2.3" height="22.1"/>
		<rect x="8.4" y="61.4" class="st3" width="8.5" height="23.2"/>
		<rect x="16.1" y="59.7" class="st1" width="2.5" height="1.7"/>
		<rect x="11.3" y="59.7" class="st3" width="4.8" height="1.7"/>
		<rect x="9.5" y="62.5" class="st2" width="6.3" height="22.1"/>
		<path class="st3" d="M10.1,70.4h5.2V70h-5.2V70.4z M10.1,71.1h5.2v-0.4h-5.2V71.1z M10.1,69.6h5.2v-0.4h-5.2V69.6z M10.1,72.7h5.2
			v-0.4h-5.2V72.7z M10.1,71.9h5.2v-0.4h-5.2V71.9z M10.1,73.4h5.2V73h-5.2V73.4z M10.1,68.9h5.2v-0.4h-5.2V68.9z M10.1,68.1h5.2
			v-0.4h-5.2V68.1z M10.1,63.1v0.4h5.2v-0.4H10.1z M10.1,65h5.2v-0.4h-5.2V65z M10.1,64.3h5.2v-0.4h-5.2V64.3z M10.1,67.3h5.2v-0.4
			h-5.2V67.3z M10.1,66.6h5.2v-0.4h-5.2V66.6z M10.1,65.8h5.2v-0.4h-5.2V65.8z M10.1,80.3h5.2v-0.4h-5.2V80.3z M10.1,81.1h5.2v-0.4
			h-5.2V81.1z M10.1,79.5h5.2v-0.4h-5.2V79.5z M10.1,82.6h5.2v-0.4h-5.2V82.6z M10.1,81.8h5.2v-0.4h-5.2V81.8z M10.1,83.4h5.2v-0.4
			h-5.2V83.4z M10.1,84.1h5.2v-0.4h-5.2V84.1z M10.1,78.8h5.2v-0.4h-5.2V78.8z M10.1,78h5.2v-0.4h-5.2V78z M10.1,75h5.2v-0.4h-5.2
			V75z M10.1,74.2h5.2v-0.4h-5.2V74.2z M10.1,77.2h5.2v-0.4h-5.2V77.2z M10.1,76.5h5.2v-0.4h-5.2V76.5z M10.1,75.7h5.2v-0.4h-5.2
			V75.7z"/>
		<path class="st1" d="M18.6,70.4h1.2V70h-1.2V70.4z M18.6,71.1h1.2v-0.4h-1.2V71.1z M18.6,69.6h1.2v-0.4h-1.2V69.6z M18.6,72.7h1.2
			v-0.4h-1.2V72.7z M18.6,71.9h1.2v-0.4h-1.2V71.9z M18.6,73.4h1.2V73h-1.2V73.4z M18.6,68.9h1.2v-0.4h-1.2V68.9z M18.6,68.1h1.2
			v-0.4h-1.2V68.1z M18.6,63.1v0.4h1.2v-0.4H18.6z M18.6,65h1.2v-0.4h-1.2V65z M18.6,64.3h1.2v-0.4h-1.2V64.3z M18.6,67.3h1.2v-0.4
			h-1.2V67.3z M18.6,66.6h1.2v-0.4h-1.2V66.6z M18.6,65.8h1.2v-0.4h-1.2V65.8z M18.6,80.3h1.2v-0.4h-1.2V80.3z M18.6,81.1h1.2v-0.4
			h-1.2V81.1z M18.6,79.5h1.2v-0.4h-1.2V79.5z M18.6,82.6h1.2v-0.4h-1.2V82.6z M18.6,81.8h1.2v-0.4h-1.2V81.8z M18.6,83.4h1.2v-0.4
			h-1.2V83.4z M18.6,84.1h1.2v-0.4h-1.2V84.1z M18.6,78.8h1.2v-0.4h-1.2V78.8z M18.6,78h1.2v-0.4h-1.2V78z M18.6,75h1.2v-0.4h-1.2
			V75z M18.6,74.2h1.2v-0.4h-1.2V74.2z M18.6,77.2h1.2v-0.4h-1.2V77.2z M18.6,76.5h1.2v-0.4h-1.2V76.5z M18.6,75.7h1.2v-0.4h-1.2
			V75.7z"/>
	</g>
	<g>
		<g>
			<rect x="90.6" y="73.6" class="st5" width="12.8" height="11.1"/>
			<rect x="83.3" y="73.6" class="st6" width="7.3" height="11.1"/>
		</g>
		<rect x="84.1" y="67.8" class="st7" width="18.4" height="4.9"/>
		<rect x="84.1" y="62.1" class="st7" width="6.2" height="4.9"/>
		<g>
			<polygon class="st6" points="58.8,48.8 58.8,84.7 74.8,84.7 74.8,48.8 73.7,48.8 73.7,48.8 			"/>
			<polygon class="st5" points="82.3,48.8 82.3,48.8 75.8,48.8 75.8,48.8 74.8,48.8 74.8,84.7 83.3,84.7 83.3,48.8 			"/>
			<path class="st8" d="M64.6,64.3H69v-3.1h-4.4V64.3z M64.6,79.8H69v-3.1h-4.4V79.8z M64.6,68.2H69v-3.1h-4.4V68.2z M64.6,72H69V69
				h-4.4V72z M69.8,79.8h4v-3.1h-4V79.8z M64.6,75.9H69v-3.1h-4.4V75.9z M69.8,64.3h4v-3.1h-4V64.3z M69.8,75.9h4v-3.1h-4V75.9z
				 M69.8,52.7h4v-3.1h-4V52.7z M69.8,60.4h4v-3.1h-4V60.4z M69.8,68.2h4v-3.1h-4V68.2z M69.8,72h4V69h-4V72z M69.8,56.5h4v-3.1h-4
				V56.5z M59.8,79.8h4v-3.1h-4V79.8z M59.8,75.9h4v-3.1h-4V75.9z M59.8,72h4V69h-4V72z M59.8,83.6h4v-3.1h-4V83.6z M59.8,68.2h4
				v-3.1h-4V68.2z M69.8,83.6H69v-3h-4.4v3.1h9.2v-3.1h-4V83.6z M69,49.6h-4.4v3.1H69V49.6z M64.6,60.4H69v-3.1h-4.4V60.4z
				 M59.8,52.7h4v-3.1h-4V52.7z M64.6,56.5H69v-3.1h-4.4V56.5z M59.8,56.5h4v-3.1h-4V56.5z M59.8,60.4h4v-3.1h-4V60.4z M59.8,64.3h4
				v-3.1h-4V64.3z"/>
			<path class="st9" d="M75.8,49.6v3.1h6.4v-3.1H75.8z M75.8,64.3h6.4v-3.1h-6.4V64.3z M75.8,60.4h6.4v-3.1h-6.4V60.4z M75.8,68.2
				h6.4v-3.1h-6.4V68.2z M75.8,56.5h6.4v-3.1h-6.4V56.5z M75.8,83.6h6.4v-3.1h-6.4V83.6z M75.8,79.8h6.4v-3.1h-6.4V79.8z M75.8,75.9
				h6.4v-3.1h-6.4V75.9z M75.8,72h6.4V69h-6.4V72z"/>
			<rect x="59.8" y="45" class="st7" width="21.4" height="3.9"/>
			<rect x="59.8" y="45" class="st10" width="15" height="3.9"/>
			<rect x="65.6" y="24" class="st7" width="15.6" height="21"/>
			<rect x="65.6" y="24" class="st10" width="9.2" height="21"/>
			<g>
				<rect x="64.6" y="20" class="st11" width="1" height="28.8"/>
				<rect x="63.8" y="20" class="st6" width="0.8" height="28.8"/>
			</g>
			<g>
				<rect x="59.8" y="20" class="st11" width="1" height="28.8"/>
				<rect x="58.8" y="20" class="st6" width="1" height="28.8"/>
			</g>
			<g>
				<g>
					<rect x="74.8" y="10.5" class="st5" width="1" height="38.3"/>
					<rect x="73.7" y="10.5" class="st5" width="1" height="38.3"/>
				</g>
				<g>
					<rect x="74.8" y="10.5" class="st5" width="1" height="38.3"/>
					<rect x="73.7" y="10.5" class="st6" width="1" height="38.3"/>
				</g>
			</g>
			<g>
				<g>
					<rect x="82.3" y="10.5" class="st5" width="1" height="38.3"/>
					<rect x="81.2" y="10.5" class="st5" width="1" height="38.3"/>
				</g>
				<g>
					<rect x="82.3" y="10.5" class="st5" width="1" height="38.3"/>
					<rect x="81.2" y="10.5" class="st6" width="1" height="38.3"/>
				</g>
			</g>
			<g>
				<rect x="69.8" y="20" class="st11" width="1" height="28.8"/>
				<rect x="69" y="20" class="st6" width="0.8" height="28.8"/>
			</g>
			<polygon class="st6" points="82.3,48.8 81.2,48.8 81.2,48.8 82.3,48.8 			"/>
			<rect x="59.6" y="45" class="st6" width="14.4" height="0.8"/>
			<rect x="75.1" y="45" class="st5" width="7.4" height="0.8"/>
			<rect x="59.6" y="41.1" class="st6" width="14.4" height="0.8"/>
			<rect x="75.1" y="41.1" class="st5" width="7.4" height="0.8"/>
			<rect x="59.6" y="37.2" class="st6" width="14.4" height="0.8"/>
			<rect x="75.1" y="37.2" class="st5" width="7.4" height="0.8"/>
		</g>
		<g>
			<rect x="38.3" y="58.4" class="st7" width="14.8" height="3.2"/>
			<rect x="37.5" y="61.5" class="st5" width="21.2" height="23.1"/>
			<rect x="32.9" y="61.5" class="st6" width="4.7" height="23.1"/>
			<path class="st8" d="M40.5,81.5h1.9V73h-1.9V81.5z M45.9,81.5h1.9V73h-1.9V81.5z M43.2,81.5H45V73h-1.9V81.5z M51.2,81.5h1.9V73
				h-1.9V81.5z M53.9,81.5h1.9V73h-1.9V81.5z M48.5,81.5h1.9V73h-1.9V81.5z"/>
			<path class="st10" d="M40.5,73h1.9V61.5h-1.9V73z M45.9,73h1.9V61.5h-1.9V73z M43.2,73H45V61.5h-1.9V73z M51.2,73h1.9V61.5h-1.9
				V73z M53.9,73h1.9V61.5h-1.9V73z M48.5,73h1.9V61.5h-1.9V73z"/>
			<rect x="37.5" y="53.9" class="st5" width="0.8" height="7.6"/>
			<rect x="32.9" y="53.9" class="st6" width="4.7" height="7.6"/>
			<g>
				<rect x="42.3" y="49.4" class="st5" width="0.8" height="23.6"/>
				<rect x="45" y="49.4" class="st5" width="0.8" height="23.6"/>
				<rect x="47.7" y="49.4" class="st5" width="0.8" height="23.6"/>
				<rect x="50.4" y="49.4" class="st5" width="0.8" height="23.6"/>
				<rect x="53.1" y="49.4" class="st5" width="0.8" height="23.6"/>
				<rect x="41.5" y="49.4" class="st6" width="0.8" height="23.6"/>
				<rect x="44.2" y="49.4" class="st6" width="0.8" height="23.6"/>
				<rect x="46.9" y="49.4" class="st6" width="0.8" height="23.6"/>
				<rect x="49.6" y="49.4" class="st6" width="0.8" height="23.6"/>
				<rect x="52.3" y="49.4" class="st6" width="0.8" height="23.6"/>
			</g>
		</g>
		<g>
			<rect x="90.6" y="55.4" class="st5" width="0.8" height="18.1"/>
			<rect x="89.8" y="55.4" class="st6" width="0.8" height="18.1"/>
		</g>
		<g>
			<rect x="84.1" y="55.4" class="st5" width="0.8" height="18.1"/>
			<rect x="83.3" y="55.4" class="st6" width="0.8" height="18.1"/>
		</g>
		<path class="st6" d="M83.8,73.6h6.5v-0.8h-6.5V73.6z M83.8,70.7h6.5v-0.8h-6.5V70.7z M83.8,67.8h6.5V67h-6.5V67.8z M83.8,61.3v0.8
			h6.5v-0.8H83.8z M83.8,64.9h6.5v-0.8h-6.5V64.9z"/>
		<g>
			<rect x="102.5" y="55.4" class="st5" width="0.8" height="18.1"/>
			<rect x="101.7" y="55.4" class="st6" width="0.8" height="18.1"/>
		</g>
		<path class="st5" d="M91,73.6h11.8v-0.8H91V73.6z M91,70.7h11.8v-0.8H91V70.7z M91,67.8h11.8V67H91V67.8z M91,61.3v0.8h11.8v-0.8
			H91z M91,64.9h11.8v-0.8H91V64.9z"/>
	</g>
	<g>
		<g>
			<path class="st12" d="M27.8,34c-0.1,0-0.2,0-0.2-0.1l-4.5-4.5c-0.1-0.1-0.1-0.3,0-0.4c0.1-0.1,0.3-0.1,0.4,0l4.5,4.5
				c0.1,0.1,0.1,0.3,0,0.4C27.9,34,27.9,34,27.8,34z"/>
			<path class="st12" d="M23.3,34c-0.1,0-0.2,0-0.2-0.1c-0.1-0.1-0.1-0.3,0-0.4l4.5-4.5c0.1-0.1,0.3-0.1,0.4,0
				c0.1,0.1,0.1,0.3,0,0.4l-4.5,4.5C23.4,34,23.4,34,23.3,34z"/>
			<path class="st12" d="M27.8,38.6c-0.1,0-0.2,0-0.2-0.1l-4.5-4.5c-0.1-0.1-0.1-0.3,0-0.4c0.1-0.1,0.3-0.1,0.4,0L28,38
				c0.1,0.1,0.1,0.3,0,0.4C27.9,38.5,27.9,38.6,27.8,38.6z"/>
			<path class="st12" d="M23.3,38.6c-0.1,0-0.2,0-0.2-0.1c-0.1-0.1-0.1-0.3,0-0.4l4.5-4.5c0.1-0.1,0.3-0.1,0.4,0
				c0.1,0.1,0.1,0.3,0,0.4l-4.5,4.5C23.4,38.5,23.4,38.6,23.3,38.6z"/>
			<path class="st12" d="M27.8,43.1c-0.1,0-0.2,0-0.2-0.1l-4.5-4.5c-0.1-0.1-0.1-0.3,0-0.4c0.1-0.1,0.3-0.1,0.4,0l4.5,4.5
				c0.1,0.1,0.1,0.3,0,0.4C27.9,43.1,27.9,43.1,27.8,43.1z"/>
			<path class="st12" d="M23.3,43.1c-0.1,0-0.2,0-0.2-0.1c-0.1-0.1-0.1-0.3,0-0.4l4.5-4.5c0.1-0.1,0.3-0.1,0.4,0
				c0.1,0.1,0.1,0.3,0,0.4L23.5,43C23.4,43.1,23.4,43.1,23.3,43.1z"/>
			<path class="st12" d="M27.8,47.6c-0.1,0-0.2,0-0.2-0.1L23.1,43c-0.1-0.1-0.1-0.3,0-0.4c0.1-0.1,0.3-0.1,0.4,0l4.5,4.5
				c0.1,0.1,0.1,0.3,0,0.4C27.9,47.6,27.9,47.6,27.8,47.6z"/>
			<path class="st12" d="M23.3,47.6c-0.1,0-0.2,0-0.2-0.1c-0.1-0.1-0.1-0.3,0-0.4l4.5-4.5c0.1-0.1,0.3-0.1,0.4,0
				c0.1,0.1,0.1,0.3,0,0.4l-4.5,4.5C23.4,47.6,23.4,47.6,23.3,47.6z"/>
			<path class="st12" d="M27.8,52.1c-0.1,0-0.2,0-0.2-0.1l-4.5-4.5c-0.1-0.1-0.1-0.3,0-0.4c0.1-0.1,0.3-0.1,0.4,0l4.5,4.5
				c0.1,0.1,0.1,0.3,0,0.4C27.9,52.1,27.9,52.1,27.8,52.1z"/>
			<path class="st12" d="M23.3,52.1c-0.1,0-0.2,0-0.2-0.1c-0.1-0.1-0.1-0.3,0-0.4l4.5-4.5c0.1-0.1,0.3-0.1,0.4,0
				c0.1,0.1,0.1,0.3,0,0.4L23.5,52C23.4,52.1,23.4,52.1,23.3,52.1z"/>
			<path class="st12" d="M27.8,56.7c-0.1,0-0.2,0-0.2-0.1L23.1,52c-0.1-0.1-0.1-0.3,0-0.4c0.1-0.1,0.3-0.1,0.4,0l4.5,4.5
				c0.1,0.1,0.1,0.3,0,0.4C27.9,56.6,27.9,56.7,27.8,56.7z"/>
			<path class="st12" d="M23.3,56.7c-0.1,0-0.2,0-0.2-0.1c-0.1-0.1-0.1-0.3,0-0.4l4.5-4.5c0.1-0.1,0.3-0.1,0.4,0
				c0.1,0.1,0.1,0.3,0,0.4l-4.5,4.5C23.4,56.6,23.4,56.7,23.3,56.7z"/>
			<path class="st12" d="M27.8,61.2c-0.1,0-0.2,0-0.2-0.1l-4.5-4.5c-0.1-0.1-0.1-0.3,0-0.4c0.1-0.1,0.3-0.1,0.4,0l4.5,4.5
				c0.1,0.1,0.1,0.3,0,0.4C27.9,61.2,27.9,61.2,27.8,61.2z"/>
			<path class="st12" d="M23.3,61.2c-0.1,0-0.2,0-0.2-0.1c-0.1-0.1-0.1-0.3,0-0.4l4.5-4.5c0.1-0.1,0.3-0.1,0.4,0
				c0.1,0.1,0.1,0.3,0,0.4l-4.5,4.5C23.4,61.2,23.4,61.2,23.3,61.2z"/>
			<path class="st12" d="M27.8,65.7c-0.1,0-0.2,0-0.2-0.1l-4.5-4.5c-0.1-0.1-0.1-0.3,0-0.4c0.1-0.1,0.3-0.1,0.4,0l4.5,4.5
				c0.1,0.1,0.1,0.3,0,0.4C27.9,65.7,27.9,65.7,27.8,65.7z"/>
			<path class="st12" d="M23.3,65.7c-0.1,0-0.2,0-0.2-0.1c-0.1-0.1-0.1-0.3,0-0.4l4.5-4.5c0.1-0.1,0.3-0.1,0.4,0
				c0.1,0.1,0.1,0.3,0,0.4l-4.5,4.5C23.4,65.7,23.4,65.7,23.3,65.7z"/>
			<path class="st12" d="M27.8,70.2c-0.1,0-0.2,0-0.2-0.1l-4.5-4.5c-0.1-0.1-0.1-0.3,0-0.4c0.1-0.1,0.3-0.1,0.4,0l4.5,4.5
				c0.1,0.1,0.1,0.3,0,0.4C27.9,70.2,27.9,70.2,27.8,70.2z"/>
			<path class="st12" d="M23.3,70.2c-0.1,0-0.2,0-0.2-0.1c-0.1-0.1-0.1-0.3,0-0.4l4.5-4.5c0.1-0.1,0.3-0.1,0.4,0
				c0.1,0.1,0.1,0.3,0,0.4l-4.5,4.5C23.4,70.2,23.4,70.2,23.3,70.2z"/>
			<path class="st12" d="M27.8,74.8c-0.1,0-0.2,0-0.2-0.1l-4.5-4.5c-0.1-0.1-0.1-0.3,0-0.4c0.1-0.1,0.3-0.1,0.4,0l4.5,4.5
				c0.1,0.1,0.1,0.3,0,0.4C27.9,74.7,27.9,74.8,27.8,74.8z"/>
			<path class="st12" d="M23.3,74.8c-0.1,0-0.2,0-0.2-0.1c-0.1-0.1-0.1-0.3,0-0.4l4.5-4.5c0.1-0.1,0.3-0.1,0.4,0
				c0.1,0.1,0.1,0.3,0,0.4l-4.5,4.5C23.4,74.7,23.4,74.8,23.3,74.8z"/>
			<path class="st12" d="M27.8,79.3c-0.1,0-0.2,0-0.2-0.1l-4.5-4.5c-0.1-0.1-0.1-0.3,0-0.4c0.1-0.1,0.3-0.1,0.4,0l4.5,4.5
				c0.1,0.1,0.1,0.3,0,0.4C27.9,79.3,27.9,79.3,27.8,79.3z"/>
			<path class="st12" d="M23.3,79.3c-0.1,0-0.2,0-0.2-0.1c-0.1-0.1-0.1-0.3,0-0.4l4.5-4.5c0.1-0.1,0.3-0.1,0.4,0
				c0.1,0.1,0.1,0.3,0,0.4l-4.5,4.5C23.4,79.3,23.4,79.3,23.3,79.3z"/>
			<path class="st12" d="M27.8,83.8c-0.1,0-0.2,0-0.2-0.1l-4.5-4.5c-0.1-0.1-0.1-0.3,0-0.4c0.1-0.1,0.3-0.1,0.4,0l4.5,4.5
				c0.1,0.1,0.1,0.3,0,0.4C27.9,83.8,27.9,83.8,27.8,83.8z"/>
			<path class="st12" d="M23.3,83.8c-0.1,0-0.2,0-0.2-0.1c-0.1-0.1-0.1-0.3,0-0.4l4.5-4.5c0.1-0.1,0.3-0.1,0.4,0
				c0.1,0.1,0.1,0.3,0,0.4l-4.5,4.5C23.4,83.8,23.4,83.8,23.3,83.8z"/>
		</g>
		<path class="st13" d="M27.8,84.3h-4.5c-0.2,0-0.3-0.1-0.3-0.3V29.2c0-0.2,0.1-0.3,0.3-0.3h4.5c0.2,0,0.3,0.1,0.3,0.3V84
			C28.1,84.1,27.9,84.3,27.8,84.3z M23.6,83.7h3.9V29.5h-3.9V83.7z"/>
	</g>
	<g>
		<g>
			<rect x="20.1" y="79.9" class="st6" width="10.8" height="2.4"/>
			<rect x="20.1" y="82" class="st14" width="10.8" height="0.3"/>
			<rect x="20.1" y="79.9" class="st15" width="10.8" height="0.3"/>
		</g>
		<g>
			<rect x="20.1" y="82.3" class="st6" width="10.8" height="2.4"/>
			<rect x="20.1" y="84.4" class="st14" width="10.8" height="0.3"/>
			<rect x="20.1" y="82.3" class="st15" width="10.8" height="0.3"/>
		</g>
		<g>
			<rect x="20.1" y="77.5" class="st6" width="10.8" height="2.4"/>
			<rect x="20.1" y="79.6" class="st14" width="10.8" height="0.3"/>
			<rect x="20.1" y="77.5" class="st15" width="10.8" height="0.3"/>
		</g>
	</g>
	<g>
		<g>
			<path class="st16" d="M9.5,20c-0.2,0-0.3-0.1-0.3-0.3v-3.5c0-0.2,0.1-0.3,0.3-0.3c0.2,0,0.3,0.1,0.3,0.3v3.5
				C9.8,19.8,9.7,20,9.5,20z"/>
			<path class="st16" d="M15.6,20c-0.2,0-0.3-0.1-0.3-0.3v-3.5c0-0.2,0.1-0.3,0.3-0.3c0.2,0,0.3,0.1,0.3,0.3v3.5
				C15.9,19.8,15.8,20,15.6,20z"/>
		</g>
		<g>
			<rect x="7.2" y="16.7" class="st6" width="10.8" height="2.4"/>
			<rect x="7.2" y="18.8" class="st14" width="10.8" height="0.3"/>
			<rect x="7.2" y="16.7" class="st15" width="10.8" height="0.3"/>
		</g>
		<g>
			<rect x="7.2" y="19.1" class="st6" width="10.8" height="2.4"/>
			<rect x="7.2" y="21.1" class="st14" width="10.8" height="0.3"/>
			<rect x="7.2" y="19.1" class="st15" width="10.8" height="0.3"/>
		</g>
	</g>
	<g>
		<g>
			<path class="st17" d="M128.6,87.6H1.4c-0.8,0-1.4-0.6-1.4-1.4l0,0c0-0.8,0.6-1.4,1.4-1.4h127.1c0.8,0,1.4,0.6,1.4,1.4l0,0
				C130,86.9,129.4,87.6,128.6,87.6z"/>
			<path class="st18" d="M1.4,87.6h127.1c0.8,0,1.4-0.6,1.4-1.4H0C0,86.9,0.6,87.6,1.4,87.6z"/>
		</g>
		<g>
			<path class="st19" d="M56.6,76.9c-4.7,0-8.5,3.3-9.3,7.7H66C65.1,80.3,61.3,76.9,56.6,76.9z"/>
			<path class="st20" d="M50.8,80c1.4-1.6,3.6-2.2,5.8-2.2c3.9,0,7.2,2.5,8.3,6.1C60.4,80.7,50,80.8,50.8,80z"/>
			<path class="st20" d="M52.5,82.4c-0.2,0-0.3,0.2-0.3,0.3c0,0.2,0.2,0.3,0.3,0.3c0.2,0,0.3-0.2,0.3-0.3
				C52.8,82.5,52.7,82.4,52.5,82.4z M49.6,83.1c-0.2,0-0.3,0.2-0.3,0.3c0,0.2,0.2,0.3,0.3,0.3s0.3-0.2,0.3-0.3
				C50,83.3,49.8,83.1,49.6,83.1z M58.9,81.7c0-0.2-0.2-0.3-0.3-0.3s-0.3,0.2-0.3,0.3c0,0.2,0.2,0.3,0.3,0.3S58.9,81.9,58.9,81.7z
				 M62.5,82.8c-0.2,0-0.3,0.2-0.3,0.3c0,0.2,0.2,0.3,0.3,0.3s0.3-0.2,0.3-0.3C62.8,82.9,62.7,82.8,62.5,82.8z M53.5,80.9
				c-0.1,0-0.2,0.1-0.2,0.2c0,0.1,0.1,0.2,0.2,0.2c0.1,0,0.2-0.1,0.2-0.2C53.6,81,53.6,80.9,53.5,80.9z M53.3,82.2
				c-0.1,0-0.2,0.1-0.2,0.2c0,0.1,0.1,0.2,0.2,0.2c0.1,0,0.2-0.1,0.2-0.2C53.4,82.3,53.4,82.2,53.3,82.2z M55.2,82.2
				c-0.1,0-0.2,0.1-0.2,0.2c0,0.1,0.1,0.2,0.2,0.2c0.1,0,0.2-0.1,0.2-0.2C55.3,82.3,55.3,82.2,55.2,82.2z M58.6,82.8
				c0,0.1,0.1,0.2,0.2,0.2c0.1,0,0.2-0.1,0.2-0.2s-0.1-0.2-0.2-0.2C58.7,82.7,58.6,82.7,58.6,82.8z M64.3,82.8
				c-0.1,0-0.2,0.1-0.2,0.2c0,0.1,0.1,0.2,0.2,0.2s0.2-0.1,0.2-0.2C64.4,82.8,64.4,82.8,64.3,82.8z M59.2,83.4
				c0,0.1,0.1,0.2,0.2,0.2c0.1,0,0.2-0.1,0.2-0.2c0-0.1-0.1-0.2-0.2-0.2C59.3,83.2,59.2,83.3,59.2,83.4z M61.8,83.5
				c-0.1,0-0.2,0.1-0.2,0.2c0,0.1,0.1,0.2,0.2,0.2c0.1,0,0.2-0.1,0.2-0.2C62,83.6,61.9,83.5,61.8,83.5z M50.8,82
				c-0.1,0-0.2,0.1-0.2,0.2c0,0.1,0.1,0.2,0.2,0.2c0.1,0,0.2-0.1,0.2-0.2C50.9,82.1,50.9,82,50.8,82z M54,83.4
				c-0.1,0-0.2,0.1-0.2,0.2s0.1,0.2,0.2,0.2s0.2-0.1,0.2-0.2S54.1,83.4,54,83.4z"/>
			<g>
				<path class="st19" d="M55.2,78.7c0,0.2-0.1,0.3-0.3,0.3c-0.2,0-0.3-0.1-0.3-0.3s0.1-0.3,0.3-0.3C55,78.4,55.2,78.5,55.2,78.7z"
					/>
				<path class="st19" d="M56.7,81c0,0.2-0.1,0.3-0.3,0.3c-0.2,0-0.3-0.1-0.3-0.3c0-0.2,0.1-0.3,0.3-0.3
					C56.5,80.7,56.7,80.8,56.7,81z"/>
				<path class="st19" d="M58.4,80.1c0,0.2-0.1,0.3-0.3,0.3c-0.2,0-0.3-0.1-0.3-0.3c0-0.2,0.1-0.3,0.3-0.3
					C58.2,79.8,58.4,79.9,58.4,80.1z"/>
				<path class="st19" d="M62.4,80.7c0,0.2-0.1,0.3-0.3,0.3c-0.2,0-0.3-0.1-0.3-0.3c0-0.2,0.1-0.3,0.3-0.3
					C62.2,80.4,62.4,80.5,62.4,80.7z"/>
				<path class="st19" d="M55.2,79.5c0,0.1-0.1,0.2-0.2,0.2c-0.1,0-0.2-0.1-0.2-0.2s0.1-0.2,0.2-0.2C55.1,79.3,55.2,79.4,55.2,79.5z
					"/>
				<path class="st19" d="M55.7,79c0,0.1-0.1,0.2-0.2,0.2c-0.1,0-0.2-0.1-0.2-0.2c0-0.1,0.1-0.2,0.2-0.2
					C55.7,78.8,55.7,78.9,55.7,79z"/>
				<path class="st19" d="M57.5,77.8c0,0.1-0.1,0.2-0.2,0.2c-0.1,0-0.2-0.1-0.2-0.2c0-0.1,0.1-0.2,0.2-0.2
					C57.4,77.6,57.5,77.7,57.5,77.8z"/>
				<path class="st19" d="M58.7,79.9c0,0.1,0.1,0.2,0.2,0.2S59,80,59,79.9c0-0.1-0.1-0.2-0.2-0.2S58.7,79.8,58.7,79.9z"/>
				<path class="st19" d="M63.3,80.7c0,0.1,0.1,0.2,0.2,0.2s0.2-0.1,0.2-0.2c0-0.1-0.1-0.2-0.2-0.2S63.3,80.6,63.3,80.7z"/>
				<path class="st19" d="M60.1,79.3c0,0.1,0.1,0.2,0.2,0.2c0.1,0,0.2-0.1,0.2-0.2c0-0.1-0.1-0.2-0.2-0.2
					C60.1,79.1,60.1,79.2,60.1,79.3z"/>
				<circle class="st19" cx="60.6" cy="81.6" r="0.2"/>
				<path class="st19" d="M58.1,79.4c0,0.1,0.1,0.2,0.2,0.2c0.1,0,0.2-0.1,0.2-0.2c0-0.1-0.1-0.2-0.2-0.2
					C58.2,79.2,58.1,79.3,58.1,79.4z"/>
				<path class="st19" d="M61.3,80.2c0,0.1,0.1,0.2,0.2,0.2c0.1,0,0.2-0.1,0.2-0.2c0-0.1-0.1-0.2-0.2-0.2
					C61.4,80,61.3,80.1,61.3,80.2z"/>
				<path class="st19" d="M53.4,79.1c0,0.1-0.1,0.2-0.2,0.2c-0.1,0-0.2-0.1-0.2-0.2s0.1-0.2,0.2-0.2C53.4,79,53.4,79,53.4,79.1z"/>
			</g>
			<path class="st19" d="M75.6,73.3c-6.8,0-12.5,4.9-13.7,11.4h27.5C88.2,78.2,82.5,73.3,75.6,73.3z"/>
			<path class="st20" d="M66.1,78.1c2.3-2.7,5.8-4.1,9.5-4.1c6,0,11.2,4.1,12.7,9.8C82.6,78.7,63.8,80.9,66.1,78.1z"/>
			<g>
				<path class="st19" d="M72.4,76.2c0,0.3-0.2,0.5-0.5,0.5c-0.3,0-0.5-0.2-0.5-0.5c0-0.3,0.2-0.5,0.5-0.5
					C72.2,75.7,72.4,75.9,72.4,76.2z"/>
				<path class="st19" d="M74.9,80.1c0,0.3-0.2,0.5-0.5,0.5c-0.3,0-0.5-0.2-0.5-0.5c0-0.3,0.2-0.5,0.5-0.5
					C74.7,79.6,74.9,79.8,74.9,80.1z"/>
				<circle class="st19" cx="77.2" cy="78.5" r="0.5"/>
				<path class="st19" d="M84.4,79.6c0,0.3-0.2,0.5-0.5,0.5c-0.3,0-0.5-0.2-0.5-0.5s0.2-0.5,0.5-0.5C84.2,79,84.4,79.3,84.4,79.6z"
					/>
				<path class="st19" d="M72.4,77.6c0,0.1-0.1,0.3-0.3,0.3c-0.1,0-0.3-0.1-0.3-0.3s0.1-0.3,0.3-0.3C72.3,77.3,72.4,77.4,72.4,77.6z
					"/>
				<path class="st19" d="M73.3,76.7c0,0.1-0.1,0.3-0.3,0.3c-0.1,0-0.3-0.1-0.3-0.3s0.1-0.3,0.3-0.3C73.2,76.4,73.3,76.5,73.3,76.7z
					"/>
				<path class="st19" d="M76.2,74.7c0,0.1-0.1,0.3-0.3,0.3c-0.1,0-0.3-0.1-0.3-0.3c0-0.1,0.1-0.3,0.3-0.3
					C76.1,74.5,76.2,74.6,76.2,74.7z"/>
				<path class="st19" d="M78.3,78.2c0,0.1,0.1,0.3,0.3,0.3s0.3-0.1,0.3-0.3c0-0.1-0.1-0.3-0.3-0.3S78.3,78,78.3,78.2z"/>
				<circle class="st19" cx="86.3" cy="79.6" r="0.3"/>
				<circle class="st19" cx="80.8" cy="77.2" r="0.3"/>
				<circle class="st19" cx="81.5" cy="81.1" r="0.3"/>
				<path class="st19" d="M77.3,77.3c0,0.1,0.1,0.3,0.3,0.3c0.1,0,0.3-0.1,0.3-0.3c0-0.1-0.1-0.3-0.3-0.3
					C77.5,77.1,77.3,77.2,77.3,77.3z"/>
				<circle class="st19" cx="82.9" cy="78.7" r="0.3"/>
				<circle class="st19" cx="69.3" cy="76.9" r="0.3"/>
			</g>
			<path class="st20" d="M68.5,81.7c-0.3,0-0.5,0.2-0.5,0.5s0.2,0.5,0.5,0.5c0.3,0,0.5-0.2,0.5-0.5S68.8,81.7,68.5,81.7z M64.2,82.9
				c-0.3,0-0.5,0.2-0.5,0.5c0,0.3,0.2,0.5,0.5,0.5c0.3,0,0.5-0.2,0.5-0.5C64.7,83.1,64.4,82.9,64.2,82.9z M78.3,80.7
				c0-0.3-0.2-0.5-0.5-0.5s-0.5,0.2-0.5,0.5c0,0.3,0.2,0.5,0.5,0.5S78.3,81,78.3,80.7z M83.7,82.4c-0.3,0-0.5,0.2-0.5,0.5
				c0,0.3,0.2,0.5,0.5,0.5c0.3,0,0.5-0.2,0.5-0.5C84.2,82.6,84,82.4,83.7,82.4z M70,79.6c-0.1,0-0.3,0.1-0.3,0.3
				c0,0.1,0.1,0.3,0.3,0.3c0.1,0,0.3-0.1,0.3-0.3C70.2,79.7,70.1,79.6,70,79.6z M69.7,81.5c-0.1,0-0.3,0.1-0.3,0.3
				c0,0.1,0.1,0.3,0.3,0.3s0.3-0.1,0.3-0.3C69.9,81.6,69.8,81.5,69.7,81.5z M72.6,81.4c-0.1,0-0.3,0.1-0.3,0.3
				c0,0.1,0.1,0.3,0.3,0.3c0.1,0,0.3-0.1,0.3-0.3C72.8,81.6,72.7,81.4,72.6,81.4z M77.8,82.4c0,0.1,0.1,0.3,0.3,0.3
				c0.1,0,0.3-0.1,0.3-0.3c0-0.1-0.1-0.3-0.3-0.3C77.9,82.2,77.8,82.3,77.8,82.4z M86.4,82.3c-0.1,0-0.3,0.1-0.3,0.3
				c0,0.1,0.1,0.3,0.3,0.3c0.1,0,0.3-0.1,0.3-0.3C86.7,82.5,86.5,82.3,86.4,82.3z M78.8,83.3c0,0.1,0.1,0.3,0.3,0.3
				c0.1,0,0.3-0.1,0.3-0.3c0-0.1-0.1-0.3-0.3-0.3C78.9,83,78.8,83.2,78.8,83.3z M82.7,83.5c-0.1,0-0.3,0.1-0.3,0.3
				c0,0.1,0.1,0.3,0.3,0.3c0.1,0,0.3-0.1,0.3-0.3C82.9,83.6,82.8,83.5,82.7,83.5z M65.9,81.2c-0.1,0-0.3,0.1-0.3,0.3
				s0.1,0.3,0.3,0.3c0.1,0,0.3-0.1,0.3-0.3S66,81.2,65.9,81.2z M70.8,83.4c-0.1,0-0.3,0.1-0.3,0.3c0,0.1,0.1,0.3,0.3,0.3
				c0.1,0,0.3-0.1,0.3-0.3C71.1,83.5,70.9,83.4,70.8,83.4z"/>
		</g>
		<g>
			<g>
				<path class="st13" d="M20.1,79.3v-2.7H8.2l-1.8,0.9v4.9h15.4l1.1-2.1c0.2-0.4-0.1-0.9-0.6-0.9H20.1z"/>
				<polygon class="st12" points="14.4,80.5 13.1,79.3 6.3,79.3 6.3,82.3 21.8,82.3 22.7,80.5 				"/>
			</g>
			<rect x="10.5" y="74.5" class="st21" width="1.2" height="1.7"/>
			<rect x="10.8" y="76.2" class="st21" width="0.6" height="0.4"/>
			<polygon class="st22" points="10.9,73.6 10.3,73.6 10.8,74.1 10.8,74.5 11.4,74.5 11.4,74.1 			"/>
			<path class="st12" d="M11,78.8H9.1c-0.3,0-0.6-0.3-0.6-0.6v-0.6c0-0.3,0.3-0.6,0.6-0.6H11c0.3,0,0.6,0.3,0.6,0.6v0.6
				C11.6,78.5,11.4,78.8,11,78.8z"/>
			<path class="st13" d="M19.1,71.6h-6.3c-0.2,0-0.3-0.2-0.3-0.3l0,0c0-0.2,0.2-0.3,0.3-0.3h6.3c0.2,0,0.3,0.2,0.3,0.3l0,0
				C19.4,71.5,19.3,71.6,19.1,71.6z"/>
			<polygon class="st12" points="19.6,79.3 21.8,79.3 22.4,76.9 20.8,76.9 			"/>
			<polygon class="st21" points="18.3,71.6 13.1,71.6 13.1,78.4 18,78.4 18,79.3 20.1,79.3 20.1,76.5 			"/>
			<path class="st22" d="M13.6,77.9h2v-5.8h-2V77.9z M17.9,72.1H16v5.8h3.6v-1.3L17.9,72.1z"/>
			<rect x="23.1" y="75.2" class="st23" width="4" height="0.8"/>
			
				<rect x="27" y="75.4" transform="matrix(-1 -1.224647e-16 1.224647e-16 -1 57.2274 151.2559)" class="st21" width="3.1" height="0.4"/>
			<path class="st12" d="M23.7,76.4h-1v-1c0-0.3,0.2-0.5,0.5-0.5l0,0c0.3,0,0.5,0.2,0.5,0.5V76.4z"/>
			<path class="st12" d="M26.8,78.1l2.9-2.9c0.1-0.1,0.2-0.2,0.4-0.2l0,0c0.5,0,0.7,0.6,0.4,0.9l-0.9,0.9v3.3L26.8,78.1z"/>
			<path class="st13" d="M26.7,76.4h-5.3c-0.3,0-0.6,0.3-0.6,0.6l0,0c0,0.3,0.3,0.6,0.6,0.6H25l4.9,4.8c0.7,0.7,1.8,0.2,1.8-0.7l0,0
				c0-0.3-0.1-0.5-0.3-0.7L26.7,76.4z"/>
			<path class="st21" d="M31.9,79.3h-1.3l-1.3,1.3v1.9c0,1.2,1,2.2,2.2,2.2h3.9L31.9,79.3z"/>
			<path class="st24" d="M29.5,81.9v0.6c0,1.1,0.9,2,2,2H35l-0.8-1.3L29.5,81.9z"/>
			<g>
				<circle class="st21" cx="10.7" cy="82" r="2.6"/>
				
					<ellipse transform="matrix(0.1602 -0.9871 0.9871 0.1602 -72.0091 79.4223)" class="st23" cx="10.7" cy="82" rx="1.6" ry="1.6"/>
				<path class="st22" d="M10.7,83.3c-0.7,0-1.2-0.6-1.2-1.2c0-0.7,0.6-1.2,1.2-1.2s1.2,0.6,1.2,1.2C11.9,82.7,11.4,83.3,10.7,83.3z
					 M10.7,81.2c-0.5,0-0.8,0.4-0.8,0.8c0,0.5,0.4,0.8,0.8,0.8c0.5,0,0.8-0.4,0.8-0.8C11.5,81.6,11.1,81.2,10.7,81.2z"/>
				<path class="st21" d="M11,82c0,0.2-0.2,0.3-0.3,0.3c-0.2,0-0.3-0.2-0.3-0.3c0-0.2,0.2-0.3,0.3-0.3C10.9,81.7,11,81.8,11,82z"/>
			</g>
			<circle class="st21" cx="23.4" cy="82" r="2.6"/>
			<ellipse transform="matrix(0.1602 -0.9871 0.9871 0.1602 -61.2984 92.0112)" class="st23" cx="23.4" cy="82" rx="1.6" ry="1.6"/>
			<path class="st22" d="M23.4,83.3c-0.7,0-1.2-0.6-1.2-1.2c0-0.7,0.6-1.2,1.2-1.2c0.7,0,1.2,0.6,1.2,1.2
				C24.7,82.7,24.1,83.3,23.4,83.3z M23.4,81.2c-0.5,0-0.8,0.4-0.8,0.8c0,0.5,0.4,0.8,0.8,0.8c0.5,0,0.8-0.4,0.8-0.8
				C24.3,81.6,23.9,81.2,23.4,81.2z"/>
			<path class="st21" d="M23.8,82c0,0.2-0.2,0.3-0.3,0.3c-0.2,0-0.3-0.2-0.3-0.3c0-0.2,0.2-0.3,0.3-0.3C23.6,81.7,23.8,81.8,23.8,82
				z"/>
			<path class="st21" d="M7.5,83H6.3l-1.1-1.2v-1.2h1.2c0.5,0,1,0.4,1,1V83z"/>
			<path class="st21" d="M20.1,82h-0.5c0-2.1,1.7-3.8,3.8-3.8c0.4,0,0.4,0.5,0,0.5C21.6,78.7,20.1,80.2,20.1,82z"/>
			<path class="st21" d="M19.4,83h-4.8c-0.4,0-0.8-0.4-0.8-0.8l0,0c0-0.4,0.4-0.8,0.8-0.8h4.8c0.4,0,0.8,0.4,0.8,0.8l0,0
				C20.2,82.6,19.8,83,19.4,83z"/>
			<g>
				<path class="st12" d="M17.3,70.9h-2.7v-0.1c0-0.3,0.3-0.6,0.6-0.6h1.5c0.3,0,0.6,0.3,0.6,0.6V70.9z"/>
				<path class="st22" d="M16.6,70.3h-1.4l0.2-1.2c0-0.3,0.3-0.5,0.5-0.5h0c0.3,0,0.5,0.2,0.5,0.5L16.6,70.3z"/>
				<path class="st13" d="M15.7,70.1L15.7,70.1c-0.1,0-0.2-0.1-0.2-0.2v-0.6c0-0.1,0.1-0.2,0.2-0.2l0,0c0.1,0,0.2,0.1,0.2,0.2v0.6
					C15.9,70,15.8,70.1,15.7,70.1z"/>
				<path class="st25" d="M16.2,70.1L16.2,70.1c-0.1,0-0.2-0.1-0.2-0.2v-0.6c0-0.1,0.1-0.2,0.2-0.2l0,0c0.1,0,0.2,0.1,0.2,0.2v0.6
					C16.3,70,16.2,70.1,16.2,70.1z"/>
			</g>
			<path class="st26" d="M13.6,77.9h0.6l1.4-1.9v-2.4l-2,2.7V77.9z M17.9,72.1h-1.3L16,73v2.4l2.1-2.8L17.9,72.1z M18.6,73.9
				L16,77.4v0.5h0.5l2.4-3.2L18.6,73.9z M15.3,77.9l0.2-0.3v-1.2l-1.1,1.5H15.3z M18.2,72.8l-2.2,3V77l2.5-3.4L18.2,72.8z"/>
		</g>
		<g>
			<g>
				
					<rect x="122.5" y="70.6" transform="matrix(-1 -1.224647e-16 1.224647e-16 -1 246.1757 142.8353)" class="st21" width="1.2" height="1.7"/>
				
					<rect x="122.8" y="72.3" transform="matrix(-1 -1.224647e-16 1.224647e-16 -1 246.1757 144.9116)" class="st21" width="0.6" height="0.4"/>
				<polygon class="st22" points="123.3,69.7 123.9,69.7 123.4,70.2 123.4,70.6 122.8,70.6 122.8,70.2 				"/>
			</g>
			<path class="st13" d="M114.9,67.5h-6.9c-0.2,0-0.3-0.2-0.3-0.3l0,0c0-0.2,0.2-0.3,0.3-0.3h6.9c0.2,0,0.3,0.2,0.3,0.3l0,0
				C115.3,67.4,115.1,67.5,114.9,67.5z"/>
			<g>
				<path class="st12" d="M112.8,66.8h-2.7v-0.1c0-0.3,0.3-0.6,0.6-0.6h1.5c0.3,0,0.6,0.3,0.6,0.6V66.8z"/>
				<path class="st22" d="M112.2,66.2h-1.4L111,65c0-0.3,0.3-0.5,0.5-0.5l0,0c0.3,0,0.5,0.2,0.5,0.5L112.2,66.2z"/>
				<path class="st13" d="M111.3,66L111.3,66c-0.1,0-0.2-0.1-0.2-0.2v-0.6c0-0.1,0.1-0.2,0.2-0.2l0,0c0.1,0,0.2,0.1,0.2,0.2v0.6
					C111.5,65.9,111.4,66,111.3,66z"/>
				<path class="st25" d="M111.7,66L111.7,66c-0.1,0-0.2-0.1-0.2-0.2v-0.6c0-0.1,0.1-0.2,0.2-0.2l0,0c0.1,0,0.2,0.1,0.2,0.2v0.6
					C111.9,65.9,111.8,66,111.7,66z"/>
			</g>
			<path class="st12" d="M96.7,65.8l8.2,3.1c1.1,0.4,2.3-0.2,2.6-1.3v0c0.3-1.1-0.3-2.3-1.5-2.5l-8.6-1.9c-0.7-0.2-1.4,0.3-1.6,0.9
				l0,0C95.7,64.8,96.1,65.6,96.7,65.8z"/>
			<g>
				
					<rect x="102.1" y="63.6" transform="matrix(-0.978 -0.2088 0.2088 -0.978 192.5144 148.1942)" class="st23" width="4" height="0.8"/>
				<rect x="99" y="63" transform="matrix(0.978 0.2088 -0.2088 0.978 15.4136 -19.6151)" class="st21" width="3.1" height="0.4"/>
				<path class="st12" d="M105.3,65l1,0.2l0.2-1c0.1-0.3-0.1-0.5-0.4-0.6l0,0c-0.3-0.1-0.5,0.1-0.6,0.4L105.3,65z"/>
			</g>
			<path class="st12" d="M99.3,63.5c0.4-0.2,0.5-0.8,0.2-1.1c-0.2-0.2-0.5-0.3-0.7-0.2c-0.2,0.1-0.4,0.2-0.5,0.4
				c-0.1,0.2-0.3,0.4-0.5,0.4c-0.1,0-0.1,0.1-0.2,0.1c-0.1,0.1-0.2,0.3-0.1,0.4c0.1,0.3,0.4,0.5,0.7,0.3c0,0,0,0,0.1,0
				c0.2-0.1,0.4-0.2,0.6-0.2C99,63.6,99.2,63.6,99.3,63.5z"/>
			<path class="st13" d="M104.3,68.7l5.7,5.7l2.9-2.9l-5.7-5.7c-0.8-0.8-2.1-0.8-2.9,0h0C103.4,66.5,103.4,67.9,104.3,68.7z"/>
			<g>
				
					<rect x="90.2" y="66.5" transform="matrix(-0.6535 0.7569 -0.7569 -0.6535 203.0954 40.8103)" class="st23" width="4" height="0.8"/>
				
					<rect x="88.3" y="69.4" transform="matrix(0.6535 -0.7569 0.7569 0.6535 -21.5198 92.1433)" class="st21" width="3.1" height="0.4"/>
				<path class="st12" d="M93.7,66.3l0.7-0.8l-0.8-0.7c-0.2-0.2-0.5-0.2-0.7,0.1l0,0c-0.2,0.2-0.2,0.5,0.1,0.7L93.7,66.3z"/>
			</g>
			<path class="st13" d="M88.4,73.6L88.4,73.6c0.3,0.3,0.8,0.3,1.2,0l9.1-7.9c0.8-0.7,0.8-1.9,0.1-2.6l0,0c-0.7-0.7-1.9-0.7-2.6,0.1
				l-7.9,9.1C88,72.8,88,73.3,88.4,73.6z"/>
			<path class="st21" d="M85.4,73.7l2.9-1.2c0.4-0.1,0.6-0.5,0.6-0.9c0-0.5-0.4-1-0.9-1l-4.9-0.3c-0.9,0-1.7,0.7-1.7,1.6l-0.1,2.1
				c-0.1,1.5,0.7,3,2,3.7L85.4,73.7z"/>
			<path class="st24" d="M87,71.5c0.3-0.2,0.2-0.7-0.2-0.7l-3.7-0.2c0,0-0.1,0-0.1,0c-0.8,0-1.4,0.6-1.5,1.4l-0.1,2.1
				c0,0.2,0,0.4,0,0.7l2.6-2.2L87,71.5z"/>
			<polygon class="st21" points="108.3,67.5 114.7,67.5 116.5,75.3 108.3,75.3 			"/>
			<path class="st21" d="M108.1,78.3h17.5c0.2,0,0.4-0.2,0.4-0.4l0,0c0-0.2-0.2-0.4-0.4-0.4h-17.5c-0.2,0-0.4,0.2-0.4,0.4l0,0
				C107.6,78.1,107.8,78.3,108.1,78.3z"/>
			<path class="st21" d="M109,80H119c0.2,0,0.4-0.2,0.4-0.4l0,0c0-0.2-0.2-0.4-0.4-0.4H109c-0.2,0-0.4,0.2-0.4,0.4l0,0
				C108.5,79.8,108.7,80,109,80z"/>
			
				<rect x="109.8" y="78.3" transform="matrix(-1 -1.224647e-16 1.224647e-16 -1 224.7567 157.3608)" class="st21" width="5.1" height="0.9"/>
			<path class="st21" d="M104.9,84.7h18.5c1.3,0,2.4-1.1,2.4-2.4l0,0c0-1.3-1.1-2.4-2.4-2.4h-18.5c-1.3,0-2.4,1.1-2.4,2.4l0,0
				C102.6,83.6,103.6,84.7,104.9,84.7z"/>
			<path class="st22" d="M123.4,83.8c0.8,0,1.5-0.7,1.5-1.5s-0.7-1.5-1.5-1.5h-18.5c-0.8,0-1.5,0.7-1.5,1.5s0.7,1.5,1.5,1.5H123.4z"
				/>
			<circle class="st21" cx="104.9" cy="82.3" r="0.9"/>
			<path class="st21" d="M122.4,82.3c0,0.5,0.4,0.9,0.9,0.9s0.9-0.4,0.9-0.9s-0.4-0.9-0.9-0.9S122.4,81.8,122.4,82.3z"/>
			<path class="st23" d="M104.4,82.3c0,0.3,0.3,0.6,0.6,0.6s0.6-0.3,0.6-0.6s-0.3-0.6-0.6-0.6S104.4,82,104.4,82.3z"/>
			<path class="st23" d="M122.8,82.3c0,0.3,0.3,0.6,0.6,0.6s0.6-0.3,0.6-0.6s-0.3-0.6-0.6-0.6S122.8,82,122.8,82.3z"/>
			<path class="st21" d="M119.5,83c0,0.3,0.2,0.5,0.5,0.5c0.3,0,0.5-0.2,0.5-0.5c0-0.3-0.2-0.5-0.5-0.5
				C119.7,82.5,119.5,82.7,119.5,83z M117.8,83c0,0.3,0.2,0.5,0.5,0.5c0.3,0,0.5-0.2,0.5-0.5c0-0.3-0.2-0.5-0.5-0.5
				C118,82.5,117.8,82.7,117.8,83z M116.1,83c0,0.3,0.2,0.5,0.5,0.5c0.3,0,0.5-0.2,0.5-0.5c0-0.3-0.2-0.5-0.5-0.5
				C116.4,82.5,116.1,82.7,116.1,83z M114.5,83c0,0.3,0.2,0.5,0.5,0.5c0.3,0,0.5-0.2,0.5-0.5c0-0.3-0.2-0.5-0.5-0.5
				C114.7,82.5,114.5,82.7,114.5,83z M112.8,83c0,0.3,0.2,0.5,0.5,0.5c0.3,0,0.5-0.2,0.5-0.5c0-0.3-0.2-0.5-0.5-0.5
				C113.1,82.5,112.8,82.7,112.8,83z M111.2,83c0,0.3,0.2,0.5,0.5,0.5c0.3,0,0.5-0.2,0.5-0.5c0-0.3-0.2-0.5-0.5-0.5
				C111.4,82.5,111.2,82.7,111.2,83z M109.5,83c0,0.3,0.2,0.5,0.5,0.5c0.3,0,0.5-0.2,0.5-0.5c0-0.3-0.2-0.5-0.5-0.5
				C109.8,82.5,109.5,82.7,109.5,83z M107.9,83c0,0.3,0.2,0.5,0.5,0.5c0.3,0,0.5-0.2,0.5-0.5c0-0.3-0.2-0.5-0.5-0.5
				C108.1,82.5,107.9,82.7,107.9,83z"/>
			<path class="st12" d="M107.2,82.1h13.9c0.2,0,0.4-0.2,0.4-0.4l0,0c0-0.2-0.2-0.4-0.4-0.4h-13.9c-0.2,0-0.4,0.2-0.4,0.4l0,0
				C106.8,81.9,107,82.1,107.2,82.1z"/>
			<path class="st22" d="M114.3,68.1h-1.4v6.7h2.9L114.3,68.1z M108.8,68.1v6.7h3.6v-6.7H108.8z"/>
			<path class="st26" d="M112.9,68.1v1.7l1-1.7H112.9z M114.3,68.2l-1.4,2.5v2.1l1.7-3.1L114.3,68.2z M108.8,72.3v2.5h1.3l2.3-4.1
				v-2.6h-1.2L108.8,72.3z M112.4,74.8v-0.3l-0.1,0.3H112.4z M114.8,70.3l-1.9,3.3v1.2h0.5l1.7-3L114.8,70.3z M111.8,74.8l0.6-1
				v-2.1l-1.8,3.2H111.8z"/>
			<polygon class="st13" points="108.3,77.4 125.4,77.4 125.4,73.9 124.1,72.6 115.8,72.6 112.6,75.3 108.3,75.3 108.3,75.4 			"/>
			<path class="st12" d="M122.8,73.6v0.9c0,0.1,0.1,0.2,0.2,0.2c0.1,0,0.2-0.1,0.2-0.2v-0.9c0-0.1-0.1-0.2-0.2-0.2
				C122.9,73.4,122.8,73.5,122.8,73.6z M122.2,73.6v0.9c0,0.1,0.1,0.2,0.2,0.2c0.1,0,0.2-0.1,0.2-0.2v-0.9c0-0.1-0.1-0.2-0.2-0.2
				C122.3,73.4,122.2,73.5,122.2,73.6z M121.5,73.6v0.9c0,0.1,0.1,0.2,0.2,0.2s0.2-0.1,0.2-0.2v-0.9c0-0.1-0.1-0.2-0.2-0.2
				S121.5,73.5,121.5,73.6z M120.9,73.6v0.9c0,0.1,0.1,0.2,0.2,0.2c0.1,0,0.2-0.1,0.2-0.2v-0.9c0-0.1-0.1-0.2-0.2-0.2
				C121,73.4,120.9,73.5,120.9,73.6z M120.2,73.6v0.9c0,0.1,0.1,0.2,0.2,0.2c0.1,0,0.2-0.1,0.2-0.2v-0.9c0-0.1-0.1-0.2-0.2-0.2
				C120.3,73.4,120.2,73.5,120.2,73.6z M119.6,73.6v0.9c0,0.1,0.1,0.2,0.2,0.2s0.2-0.1,0.2-0.2v-0.9c0-0.1-0.1-0.2-0.2-0.2
				S119.6,73.5,119.6,73.6z"/>
			<polygon class="st21" points="115.8,72.6 121.8,72.6 121.8,71.5 117.1,71.5 			"/>
			<polygon class="st12" points="108.3,76.4 116.1,76.4 117.6,75.3 125.4,75.3 125.4,77.4 108.3,77.4 			"/>
			<path class="st12" d="M89.6,70.9c0-0.5-0.4-0.8-0.9-0.7c-0.3,0.1-0.5,0.3-0.5,0.5c0,0.2,0,0.4,0.1,0.6c0.1,0.2,0.2,0.4,0.1,0.6
				c0,0.1,0,0.1,0,0.2c0,0.2,0.2,0.3,0.3,0.3c0.3,0.1,0.6-0.2,0.6-0.5c0,0,0-0.1,0-0.1c0-0.2,0-0.5,0.1-0.7
				C89.5,71.2,89.6,71,89.6,70.9z"/>
			<circle class="st12" cx="97.4" cy="64.6" r="1"/>
			<circle class="st12" cx="105.7" cy="67" r="1"/>
		</g>
	</g>
	<g>
		<path class="st22" d="M25.5,15.9C25.5,15.9,25.4,15.9,25.5,15.9L25.4,2.4c0-0.1,0-0.1,0.1-0.1c0.1,0,0.1,0,0.1,0.1L25.5,15.9
			C25.6,15.9,25.6,15.9,25.5,15.9z"/>
		<g>
			<path class="st12" d="M27.6,14.3h-4.1c-0.2,0-0.3-0.1-0.3-0.3c0-0.2,0.1-0.3,0.3-0.3h4.1c0.2,0,0.3,0.1,0.3,0.3
				C27.9,14.2,27.7,14.3,27.6,14.3z"/>
			<path class="st12" d="M27.4,12.4h-3.7c-0.2,0-0.3-0.1-0.3-0.3c0-0.2,0.1-0.3,0.3-0.3h3.7c0.2,0,0.3,0.1,0.3,0.3
				C27.7,12.2,27.5,12.4,27.4,12.4z"/>
			<path class="st12" d="M27.2,10.4h-3.3c-0.2,0-0.3-0.1-0.3-0.3c0-0.2,0.1-0.3,0.3-0.3h3.3c0.2,0,0.3,0.1,0.3,0.3
				C27.5,10.3,27.3,10.4,27.2,10.4z"/>
			<path class="st12" d="M27,8.5h-2.9c-0.2,0-0.3-0.1-0.3-0.3c0-0.2,0.1-0.3,0.3-0.3H27c0.2,0,0.3,0.1,0.3,0.3
				C27.3,8.4,27.1,8.5,27,8.5z"/>
			<path class="st12" d="M26.8,6.6h-2.5c-0.2,0-0.3-0.1-0.3-0.3C24,6.1,24.1,6,24.3,6h2.5c0.2,0,0.3,0.1,0.3,0.3
				C27.1,6.4,26.9,6.6,26.8,6.6z"/>
			<path class="st12" d="M26.6,4.6h-2.1c-0.2,0-0.3-0.1-0.3-0.3S24.3,4,24.5,4h2.1c0.2,0,0.3,0.1,0.3,0.3S26.7,4.6,26.6,4.6z"/>
			<path class="st13" d="M26.4,2.7h-1.7c-0.2,0-0.3-0.1-0.3-0.3c0-0.2,0.1-0.3,0.3-0.3h1.7c0.2,0,0.3,0.1,0.3,0.3
				C26.7,2.6,26.5,2.7,26.4,2.7z"/>
		</g>
		<path class="st12" d="M21.8,16.2c-0.2,0-0.3-0.1-0.3-0.3V14c0-0.2,0.1-0.3,0.3-0.3s0.3,0.1,0.3,0.3v1.9
			C22.1,16.1,21.9,16.2,21.8,16.2z"/>
		<path class="st12" d="M20.2,16.2c-0.2,0-0.3-0.1-0.3-0.3V14c0-0.2,0.1-0.3,0.3-0.3c0.2,0,0.3,0.1,0.3,0.3v1.9
			C20.5,16.1,20.4,16.2,20.2,16.2z"/>
		<path class="st12" d="M18.7,16.2c-0.2,0-0.3-0.1-0.3-0.3V14c0-0.2,0.1-0.3,0.3-0.3c0.2,0,0.3,0.1,0.3,0.3v1.9
			C19,16.1,18.9,16.2,18.7,16.2z"/>
		<path class="st12" d="M17.2,16.2c-0.2,0-0.3-0.1-0.3-0.3V14c0-0.2,0.1-0.3,0.3-0.3c0.2,0,0.3,0.1,0.3,0.3v1.9
			C17.5,16.1,17.3,16.2,17.2,16.2z"/>
		<path class="st12" d="M15.6,16.2c-0.2,0-0.3-0.1-0.3-0.3V14c0-0.2,0.1-0.3,0.3-0.3c0.2,0,0.3,0.1,0.3,0.3v1.9
			C15.9,16.1,15.8,16.2,15.6,16.2z"/>
		<path class="st12" d="M14.1,16.2c-0.2,0-0.3-0.1-0.3-0.3V14c0-0.2,0.1-0.3,0.3-0.3s0.3,0.1,0.3,0.3v1.9
			C14.4,16.1,14.3,16.2,14.1,16.2z"/>
		<path class="st12" d="M12.6,16.2c-0.2,0-0.3-0.1-0.3-0.3V14c0-0.2,0.1-0.3,0.3-0.3c0.2,0,0.3,0.1,0.3,0.3v1.9
			C12.9,16.1,12.7,16.2,12.6,16.2z"/>
		<path class="st12" d="M11,16.2c-0.2,0-0.3-0.1-0.3-0.3V14c0-0.2,0.1-0.3,0.3-0.3s0.3,0.1,0.3,0.3v1.9C11.3,16.1,11.2,16.2,11,16.2
			z"/>
		<path class="st12" d="M9.5,16.2c-0.2,0-0.3-0.1-0.3-0.3V14c0-0.2,0.1-0.3,0.3-0.3c0.2,0,0.3,0.1,0.3,0.3v1.9
			C9.8,16.1,9.7,16.2,9.5,16.2z"/>
		<path class="st12" d="M8,16.2c-0.2,0-0.3-0.1-0.3-0.3V14c0-0.2,0.1-0.3,0.3-0.3c0.2,0,0.3,0.1,0.3,0.3v1.9
			C8.3,16.1,8.1,16.2,8,16.2z"/>
		<path class="st13" d="M6.4,16.2c-0.2,0-0.3-0.1-0.3-0.3V14c0-0.2,0.1-0.3,0.3-0.3c0.2,0,0.3,0.1,0.3,0.3v1.9
			C6.7,16.1,6.6,16.2,6.4,16.2z"/>
		<path class="st22" d="M6.4,14.1C6.4,14.1,6.4,14.1,6.4,14.1c-0.1-0.1-0.1-0.2-0.1-0.2L24.6,2.4c0,0,0.1,0,0.1,0c0,0,0,0.1,0,0.1
			L6.4,14.1C6.5,14.1,6.4,14.1,6.4,14.1z"/>
		<path class="st22" d="M11,14.1C11,14.1,11,14.1,11,14.1C10.9,14,10.9,14,11,13.9L24.6,2.4c0,0,0.1,0,0.1,0c0,0,0,0.1,0,0.1
			L11,14.1C11.1,14.1,11.1,14.1,11,14.1z"/>
		<path class="st22" d="M60.3,12.4C60.3,12.4,60.3,12.4,60.3,12.4l-34-9.8c-0.1,0-0.1-0.1-0.1-0.1c0-0.1,0.1-0.1,0.1-0.1l34,9.8
			C60.4,12.2,60.4,12.3,60.3,12.4C60.4,12.4,60.4,12.4,60.3,12.4z"/>
		<path class="st12" d="M35,16.2c-0.1,0-0.2,0-0.2-0.1l-3.6-3.6c-0.1-0.1-0.1-0.3,0-0.4c0.1-0.1,0.3-0.1,0.4,0l3.6,3.6
			c0.1,0.1,0.1,0.3,0,0.4C35.2,16.2,35.1,16.2,35,16.2z"/>
		<path class="st12" d="M42.3,16.2c-0.1,0-0.2,0-0.2-0.1l-3.4-3.4l-3.4,3.4c-0.1,0.1-0.3,0.1-0.4,0c-0.1-0.1-0.1-0.3,0-0.4l3.6-3.6
			c0.1-0.1,0.1-0.1,0.2-0.1l0,0c0.1,0,0.2,0,0.2,0.1l3.6,3.6c0.1,0.1,0.1,0.3,0,0.4C42.4,16.2,42.3,16.2,42.3,16.2z"/>
		<path class="st12" d="M49.5,16.2c-0.1,0-0.2,0-0.2-0.1l-3.4-3.4l-3.4,3.4c-0.1,0.1-0.3,0.1-0.4,0c-0.1-0.1-0.1-0.3,0-0.4l3.6-3.6
			c0.1-0.1,0.3-0.1,0.4,0l3.6,3.6c0.1,0.1,0.1,0.3,0,0.4C49.6,16.2,49.6,16.2,49.5,16.2z"/>
		<path class="st12" d="M56.7,16.2c-0.1,0-0.2,0-0.2-0.1l-3.4-3.4l-3.4,3.4c-0.1,0.1-0.3,0.1-0.4,0c-0.1-0.1-0.1-0.3,0-0.4l3.6-3.6
			c0.1-0.1,0.3-0.1,0.4,0l3.6,3.6c0.1,0.1,0.1,0.3,0,0.4C56.9,16.2,56.8,16.2,56.7,16.2z"/>
		<path class="st12" d="M64,16.2c-0.1,0-0.2,0-0.2-0.1l-3.4-3.4l-3.4,3.4c-0.1,0.1-0.3,0.1-0.4,0c-0.1-0.1-0.1-0.3,0-0.4l3.6-3.6
			c0.1-0.1,0.3-0.1,0.4,0l3.6,3.6c0.1,0.1,0.1,0.3,0,0.4C64.1,16.2,64,16.2,64,16.2z"/>
		<path class="st12" d="M64,16.2c-0.1,0-0.2,0-0.2-0.1c-0.1-0.1-0.1-0.3,0-0.4l3.6-3.6c0.1-0.1,0.3-0.1,0.4,0c0.1,0.1,0.1,0.3,0,0.4
			l-3.6,3.6C64.1,16.2,64,16.2,64,16.2z"/>
		<path class="st13" d="M67.6,12.6H31.4c-0.2,0-0.3-0.1-0.3-0.3s0.1-0.3,0.3-0.3h36.2c0.2,0,0.3,0.1,0.3,0.3S67.7,12.6,67.6,12.6z"
			/>
		<path class="st13" d="M23.3,14.3H6.4c-0.2,0-0.3-0.1-0.3-0.3c0-0.2,0.1-0.3,0.3-0.3h16.9c0.2,0,0.3,0.1,0.3,0.3
			C23.6,14.2,23.5,14.3,23.3,14.3z"/>
		<path class="st13" d="M23.3,16.2H6.4c-0.2,0-0.3-0.1-0.3-0.3c0-0.2,0.1-0.3,0.3-0.3h16.9c0.2,0,0.3,0.1,0.3,0.3
			C23.6,16.1,23.5,16.2,23.3,16.2z"/>
		<path class="st13" d="M71.2,16.2H19.9c-0.2,0-0.3-0.1-0.3-0.3c0-0.2,0.1-0.3,0.3-0.3h51.3c0.2,0,0.3,0.1,0.3,0.3
			C71.5,16.1,71.4,16.2,71.2,16.2z"/>
		<path class="st13" d="M27.8,16.2c-0.2,0-0.3-0.1-0.3-0.3L26.1,2.4c0-0.2,0.1-0.3,0.3-0.3c0.2,0,0.3,0.1,0.3,0.3l1.4,13.5
			C28.1,16.1,28,16.2,27.8,16.2C27.8,16.2,27.8,16.2,27.8,16.2z"/>
		<path class="st13" d="M23.3,16.2C23.3,16.2,23.3,16.2,23.3,16.2c-0.2,0-0.3-0.2-0.3-0.3l1.4-13.5c0-0.2,0.2-0.3,0.3-0.3
			c0.2,0,0.3,0.2,0.3,0.3L23.6,16C23.6,16.1,23.4,16.2,23.3,16.2z"/>
		<path class="st13" d="M71.2,16.2c-0.1,0-0.2,0-0.2-0.1l-3.6-3.6c-0.1-0.1-0.1-0.3,0-0.4c0.1-0.1,0.3-0.1,0.4,0l3.6,3.6
			c0.1,0.1,0.1,0.3,0,0.4C71.3,16.2,71.3,16.2,71.2,16.2z"/>
		<path class="st13" d="M27.8,16.2c-0.1,0-0.2,0-0.2-0.1c-0.1-0.1-0.1-0.3,0-0.4l3.6-3.6c0.1-0.1,0.3-0.1,0.4,0
			c0.1,0.1,0.1,0.3,0,0.4L28,16.1C27.9,16.2,27.9,16.2,27.8,16.2z"/>
	</g>
	<g>
		<path class="st13" d="M27.7,24.6h-4.3c-1.2,0-2.2-1-2.2-2.2v-4.3c0-1.2,1-2.2,2.2-2.2h0.9c3.1,0,5.6,2.5,5.6,5.6v0.9
			C29.9,23.6,28.9,24.6,27.7,24.6z"/>
		<rect x="21.5" y="27.2" class="st12" width="8.1" height="2.4"/>
		<rect x="23.4" y="24.6" class="st16" width="4.3" height="1.3"/>
		<polygon class="st13" points="29.6,27.2 21.5,27.2 23.4,25.9 27.7,25.9 		"/>
		<path class="st22" d="M22,17.2V20h2.5v-3.2h-2C22.2,16.7,22,16.9,22,17.2z M26.5,16.7h-1.4V20h0.1l2.2,2.6h1.2
			c0.3,0,0.5-0.2,0.5-0.5v-2.8C29.1,17.9,27.9,16.7,26.5,16.7z"/>
		<path class="st12" d="M26.6,23.2l-1.9-2.1h-3.5v2.2c0,0.7,0.6,1.3,1.3,1.3h6.1c0.7,0,1.3-0.6,1.3-1.3v-0.1H26.6z"/>
	</g>
	<g>
		<g>
			<path class="st16" d="M43.4,26.7C43.3,26.7,43.3,26.6,43.4,26.7L43.3,17c0-0.1,0-0.1,0.1-0.1c0.1,0,0.1,0,0.1,0.1L43.4,26.7
				C43.5,26.6,43.4,26.7,43.4,26.7z"/>
			<path class="st16" d="M45.4,26.7C45.3,26.7,45.3,26.6,45.4,26.7L45.3,17c0-0.1,0-0.1,0.1-0.1c0.1,0,0.1,0,0.1,0.1L45.4,26.7
				C45.5,26.6,45.4,26.7,45.4,26.7z"/>
		</g>
		<path class="st12" d="M47.2,17h-5.7c-0.6,0-1-0.5-1-1v-0.1c0-0.6,0.5-1,1-1h5.7c0.6,0,1,0.5,1,1V16C48.2,16.5,47.8,17,47.2,17z"/>
		<path class="st13" d="M41.7,15.2c-0.4,0-0.7,0.3-0.7,0.7c0,0.4,0.3,0.7,0.7,0.7c0.4,0,0.7-0.3,0.7-0.7
			C42.4,15.5,42.1,15.2,41.7,15.2z M47,15.2c-0.4,0-0.7,0.3-0.7,0.7c0,0.4,0.3,0.7,0.7,0.7c0.4,0,0.7-0.3,0.7-0.7
			C47.7,15.5,47.4,15.2,47,15.2z"/>
		<path class="st21" d="M44.4,33.6c-0.6,0-1.1-0.5-1.1-1.1c0-0.4,0.2-0.8,0.6-1c0.1-0.1,0.2-0.2,0.2-0.4c0-0.2,0.1-0.3,0.3-0.3
			s0.3,0.1,0.3,0.3c0,0.4-0.2,0.8-0.6,0.9c-0.2,0.1-0.3,0.3-0.3,0.5c0,0.3,0.2,0.5,0.5,0.5s0.5-0.2,0.5-0.5c0-0.2,0.1-0.3,0.3-0.3
			c0.2,0,0.3,0.1,0.3,0.3C45.6,33,45,33.6,44.4,33.6z"/>
		<path class="st16" d="M47.3,36.8C47.2,36.8,47.2,36.8,47.3,36.8l-2.9-3.7l-2.8,3.6c0,0-0.1,0.1-0.1,0c0,0-0.1-0.1,0-0.1l2.9-3.7
			c0,0,0.1,0,0.2,0l2.9,3.7C47.4,36.7,47.4,36.7,47.3,36.8C47.3,36.8,47.3,36.8,47.3,36.8z"/>
		<path class="st12" d="M45.1,31h-1.6c-0.4,0-0.7-0.3-0.7-0.6l-0.5-2.9c-0.1-0.5,0.3-0.9,0.7-0.9h2.6c0.5,0,0.8,0.4,0.7,0.9
			l-0.5,2.9C45.8,30.7,45.5,31,45.1,31z"/>
		<g>
			<g>
				<rect x="39.3" y="36.6" class="st23" width="5.1" height="5.1"/>
				
					<rect x="39.7" y="37.1" transform="matrix(-1.836970e-16 1 -1 -1.836970e-16 80.9764 -2.6459)" class="st16" width="4.1" height="4.1"/>
				<polygon class="st23" points="39.7,41.2 39.7,40.9 43.5,37.1 43.9,37.1 43.9,37.4 40.1,41.2 				"/>
				<polygon class="st23" points="43.9,41.2 43.9,40.9 40.1,37.1 39.7,37.1 39.7,37.4 43.5,41.2 				"/>
			</g>
			<g>
				<rect x="44.4" y="36.6" class="st23" width="5.1" height="5.1"/>
				
					<rect x="44.8" y="37.1" transform="matrix(-1.836970e-16 1 -1 -1.836970e-16 86.0719 -7.7413)" class="st16" width="4.1" height="4.1"/>
				<polygon class="st23" points="44.8,41.2 44.8,40.9 48.6,37.1 49,37.1 49,37.4 45.2,41.2 				"/>
				<polygon class="st23" points="49,41.2 49,40.9 45.2,37.1 44.8,37.1 44.8,37.4 48.6,41.2 				"/>
			</g>
		</g>
		<path class="st16" d="M49.9,42.2h-11c-0.2,0-0.3-0.1-0.3-0.3s0.1-0.3,0.3-0.3h11c0.2,0,0.3,0.1,0.3,0.3S50,42.2,49.9,42.2z"/>
		<path class="st16" d="M49.9,43.3h-11c-0.2,0-0.3-0.1-0.3-0.3c0-0.2,0.1-0.3,0.3-0.3h11c0.2,0,0.3,0.1,0.3,0.3
			C50.2,43.2,50,43.3,49.9,43.3z"/>
		<g>
			<path class="st16" d="M39.2,43.3c-0.2,0-0.3-0.1-0.3-0.3v-1.1c0-0.2,0.1-0.3,0.3-0.3c0.2,0,0.3,0.1,0.3,0.3V43
				C39.5,43.2,39.4,43.3,39.2,43.3z"/>
			<path class="st16" d="M40.7,43.3c-0.2,0-0.3-0.1-0.3-0.3v-1.1c0-0.2,0.1-0.3,0.3-0.3c0.2,0,0.3,0.1,0.3,0.3V43
				C41,43.2,40.8,43.3,40.7,43.3z"/>
			<path class="st16" d="M42.1,43.3c-0.2,0-0.3-0.1-0.3-0.3v-1.1c0-0.2,0.1-0.3,0.3-0.3c0.2,0,0.3,0.1,0.3,0.3V43
				C42.4,43.2,42.3,43.3,42.1,43.3z"/>
			<path class="st16" d="M43.6,43.3c-0.2,0-0.3-0.1-0.3-0.3v-1.1c0-0.2,0.1-0.3,0.3-0.3s0.3,0.1,0.3,0.3V43
				C43.9,43.2,43.8,43.3,43.6,43.3z"/>
			<path class="st16" d="M45.1,43.3c-0.2,0-0.3-0.1-0.3-0.3v-1.1c0-0.2,0.1-0.3,0.3-0.3s0.3,0.1,0.3,0.3V43
				C45.4,43.2,45.3,43.3,45.1,43.3z"/>
			<path class="st16" d="M46.6,43.3c-0.2,0-0.3-0.1-0.3-0.3v-1.1c0-0.2,0.1-0.3,0.3-0.3c0.2,0,0.3,0.1,0.3,0.3V43
				C46.9,43.2,46.7,43.3,46.6,43.3z"/>
			<path class="st16" d="M48.1,43.3c-0.2,0-0.3-0.1-0.3-0.3v-1.1c0-0.2,0.1-0.3,0.3-0.3c0.2,0,0.3,0.1,0.3,0.3V43
				C48.4,43.2,48.2,43.3,48.1,43.3z"/>
			<path class="st16" d="M49.5,43.3c-0.2,0-0.3-0.1-0.3-0.3v-1.1c0-0.2,0.1-0.3,0.3-0.3c0.2,0,0.3,0.1,0.3,0.3V43
				C49.8,43.2,49.7,43.3,49.5,43.3z"/>
		</g>
	</g>
	<g>
		<g>
			<g>
				<rect x="46.9" y="82.7" class="st22" width="0.3" height="1.9"/>
				<path class="st22" d="M46.6,84.7L46.6,84.7c0-0.2,0.1-0.3,0.3-0.3h0.3c0.2,0,0.3,0.1,0.3,0.3l0,0H46.6z"/>
			</g>
			<g>
				<rect x="52.9" y="82.7" class="st22" width="0.3" height="1.9"/>
				<path class="st22" d="M52.5,84.7L52.5,84.7c0-0.2,0.1-0.3,0.3-0.3h0.3c0.2,0,0.3,0.1,0.3,0.3l0,0H52.5z"/>
			</g>
		</g>
		<g>
			
				<rect x="48.5" y="77.2" transform="matrix(-1.836970e-16 1 -1 -1.836970e-16 131.3539 31.2784)" class="st27" width="3.1" height="8.2"/>
			<rect x="46.2" y="80" class="st27" width="7.7" height="2.6"/>
			<path class="st25" d="M48.7,80l-1.7,2.6h0.9l1.7-2.6H48.7z M47,80l-0.8,1.3v1.3h0l1.7-2.6H47z M53.9,80l-1.7,2.6h0.9l0.8-1.3
				L53.9,80L53.9,80z M50.4,80l-1.7,2.6h0.9l1.7-2.6H50.4z M52.2,80l-1.7,2.6h0.9L53,80H52.2z"/>
		</g>
	</g>
	<g>
		<g>
			<g>
				<rect x="91.3" y="82.7" class="st22" width="0.3" height="1.9"/>
				<path class="st22" d="M91,84.7L91,84.7c0-0.2,0.1-0.3,0.3-0.3h0.3c0.2,0,0.3,0.1,0.3,0.3l0,0H91z"/>
			</g>
			<g>
				<rect x="97.3" y="82.7" class="st22" width="0.3" height="1.9"/>
				<path class="st22" d="M97,84.7L97,84.7c0-0.2,0.1-0.3,0.3-0.3h0.3c0.2,0,0.3,0.1,0.3,0.3l0,0H97z"/>
			</g>
		</g>
		<g>
			
				<rect x="92.9" y="77.2" transform="matrix(-1.836970e-16 1 -1 -1.836970e-16 175.7812 -13.1489)" class="st27" width="3.1" height="8.2"/>
			<rect x="90.6" y="80" class="st27" width="7.7" height="2.6"/>
			<path class="st25" d="M93.1,80l-1.7,2.6h0.9L94,80H93.1z M91.4,80l-0.8,1.3v1.3h0l1.7-2.6H91.4z M98.3,80l-1.7,2.6h0.9l0.8-1.3
				L98.3,80L98.3,80z M94.9,80l-1.7,2.6h0.9l1.7-2.6H94.9z M96.6,80l-1.7,2.6h0.9l1.7-2.6H96.6z"/>
		</g>
	</g>
</g>
</svg>
