<?xml version="1.0" encoding="utf-8"?>
<!-- Generator: Adobe Illustrator 24.0.3, SVG Export Plug-In . SVG Version: 6.00 Build 0)  -->
<svg version="1.1" id="レイヤー_1" xmlns="http://www.w3.org/2000/svg" xmlns:xlink="http://www.w3.org/1999/xlink" x="0px"
	 y="0px" viewBox="0 0 62.7 79.6" style="enable-background:new 0 0 62.7 79.6;" xml:space="preserve">
<style type="text/css">
	.st0{fill:#403531;}
	.st1{fill:#A9531F;}
	.st2{fill:#DC802B;}
	.st3{fill:#FF9D3D;}
	.st4{fill:#FFC454;}
	.st5{fill:#FFEA7A;}
	.st6{fill:#544540;}
	.st7{fill:#685750;}
	.st8{fill:#816E69;}
	.st9{opacity:0.3;}
</style>
<g>
	<g>
		<g>
			<polygon class="st0" points="41.4,10.6 34.9,6.9 28.6,10.6 24,18.5 24,25.9 30.4,29.6 36.7,25.9 41.4,17.9 			"/>
			<polygon class="st1" points="41.1,20.1 41.7,15.9 39.9,14.9 31.1,14.9 24.9,18.5 24,25.4 30,28.9 38,24.8 			"/>
			<path class="st2" d="M24.9,24l5.5,3.2h7.7l5.5-3.2l0-4.5l-5.5-3.2l-7.7,0l-5.5,3.2L24.9,24z"/>
			<path class="st3" d="M25.3,23.7l4.5,2.6h6.4l4.5-2.6l0-3.7l-4.5-2.6l-6.4,0l-4.3,2.5L25.3,23.7z"/>
			<path class="st4" d="M26.7,22.4l3.1,1.8h4.4l3.1-1.8v-2.5l-3.1-1.8h-4.4l-3.1,1.8L26.7,22.4z"/>
			<path class="st5" d="M27.7,21.6l2.1,1.2l3.6-0.4l1.4-0.8l0-1.7l-2.1-1.2l-2.9,0l-2,1.2L27.7,21.6z"/>
			<polygon class="st0" points="55.3,34.4 37.3,24 30,31.3 47.6,41.5 54.5,40.4 59.3,37.6 			"/>
			<polygon class="st6" points="57.5,28.2 62.7,31.7 62.7,26.2 60.2,19.7 			"/>
			<polygon class="st0" points="54.9,37.2 59.3,37.6 62.7,31.7 60.1,28.2 55.2,30.7 			"/>
			<polygon class="st6" points="60.1,28.2 42.5,9.6 37.3,27.1 54.9,37.2 			"/>
			<polygon class="st7" points="60.2,19.7 42.5,9.6 42.5,18.1 60.1,28.2 			"/>
			<path class="st8" d="M34.9,5.2l-7.4,4.2l-5.2,9l0,8.5l7.6,4.4l7.4-4.2l5.2-9l0-8.5L34.9,5.2z M40,18l-4,7l-5.5,3.2l-5.6-3.2
				l0-6.4l4-7l5.5-3.2l5.6,3.2L40,18z"/>
		</g>
		<g>
			<path class="st9" d="M55.9,17.3l0.6,9.2L51,35.6l-7.2,3.7l1.9,1.1l7.4-4.2l5.2-9l0-8.5L55.9,17.3z"/>
			<polygon class="st0" points="52.8,33 52,32.6 49.9,34.3 42.3,39.2 44.6,40.6 52.4,36.1 			"/>
			<polygon class="st6" points="57.9,26.5 55.6,16.2 55.2,25 50.1,34.7 52.4,36.1 			"/>
			<polygon class="st7" points="57.9,17.5 55.6,16.2 55.6,25.2 57.9,26.5 			"/>
			<polygon class="st8" points="47.5,11.5 46.7,12 54.8,16.7 54.8,25.1 49.6,34.2 42.2,38.4 34.2,33.8 34.2,34.5 42.3,39.2 
				50.1,34.7 55.6,25.2 55.6,16.2 			"/>
		</g>
		<g>
			<path class="st9" d="M47.5,12.5l0.6,9.2l-5.5,9.2l-7.2,3.7l1.9,1.1l7.4-4.2l5.2-9l0-8.5L47.5,12.5z"/>
			<polygon class="st0" points="44.5,28.2 43.7,27.8 41.6,29.5 33.9,34.4 36.3,35.8 44.1,31.3 			"/>
			<polygon class="st6" points="49.6,21.7 47.3,11.4 46.8,20.2 41.7,29.9 44.1,31.3 			"/>
			<polygon class="st7" points="49.6,12.7 47.3,11.4 47.2,20.4 49.6,21.7 			"/>
			<polygon class="st8" points="39.2,6.7 38.4,7.2 46.5,11.8 46.5,20.3 41.3,29.3 33.9,33.6 25.9,28.9 25.9,29.7 33.9,34.4 
				41.7,29.9 47.3,20.4 47.3,11.4 			"/>
		</g>
		<g>
			<polygon class="st2" points="24.9,19.5 21.5,23 19.8,27.5 20.1,33.2 21.7,38.7 23.7,40.5 27.5,40.2 28.9,38.4 29.1,33 30.5,28.1 
				35.9,25 			"/>
			<polygon class="st3" points="25.5,19.9 21.8,23.4 20.7,27 20.6,29.8 20.9,33.3 22.2,36.6 24.3,38.6 26,38 26.4,36.2 26.7,32.6 
				28.6,27.3 34.7,23.9 33.8,23.2 27.9,20.2 			"/>
			<polygon class="st4" points="26.7,19.9 23.2,22.9 21.4,27.2 21.2,29.9 21.4,32.9 23.7,34.8 25.4,33.4 26.1,30.3 27.8,26.3 
				33.8,23.2 33,21.8 29.5,20 			"/>
			<polygon class="st5" points="27.7,19.9 23.8,23.5 22,27.8 22.3,30.4 23.8,31.3 25.1,30.2 27.1,25.8 30.7,24.2 33.4,22.4 
				32.9,20.9 30,19.5 			"/>
		</g>
		<g>
			<polygon class="st8" points="37.2,19 35.8,18.2 38.2,16.8 39.6,17.7 38.2,18.6 			"/>
			<polygon class="st7" points="35.5,22 34.1,21.2 35.8,18.2 37.2,19 36.6,20.4 			"/>
			<polygon class="st6" points="35.5,24.8 34.1,23.9 34.1,21.2 35.5,22 35.8,23.4 			"/>
			<polygon class="st6" points="42,19 39.6,17.7 37.2,19 35.5,22 35.5,24.8 37.9,26.1 42,24.3 			"/>
		</g>
		<g>
			<g>
				<polygon class="st8" points="23,11.4 21.3,10.5 23,9.5 24.7,10.5 23.7,11.1 				"/>
				<polygon class="st7" points="21.8,13.5 20.1,12.5 21.3,10.5 23,11.4 22.6,12.4 				"/>
				<polygon class="st6" points="21.8,15.4 20.1,14.5 20.1,12.5 21.8,13.5 22,14.4 				"/>
				<polygon class="st0" points="25.9,11.1 24.7,10.5 23,11.4 21.8,13.5 21.8,15.4 23,16.1 24.7,15.1 25.9,13.1 				"/>
			</g>
			<g>
				<polygon class="st8" points="23,1.6 21.9,1 23.6,0 24.7,0.6 				"/>
				<polygon class="st7" points="23,11.4 21.9,10.8 21.9,1 23,1.6 				"/>
				<polygon class="st0" points="23,11.4 24.2,12 24.7,10.5 24.7,0.6 23,1.6 				"/>
			</g>
		</g>
		<g>
			<polygon class="st8" points="23.7,11.2 22.2,10.4 24.6,9 26.1,9.8 24.7,10.8 			"/>
			<polygon class="st7" points="22,14.2 20.5,13.3 22.2,10.4 23.7,11.2 23.1,12.6 			"/>
			<polygon class="st6" points="22,17 20.5,16.1 20.5,13.3 22,14.2 22.2,15.5 			"/>
			<polygon class="st6" points="28.5,11.2 26.1,9.8 23.7,11.2 22,14.2 22,17 24.4,18.3 			"/>
		</g>
		<g>
			<g>
				<polygon class="st8" points="39.7,21 38,20.1 39.7,19.1 41.4,20.1 40.4,20.8 				"/>
				<polygon class="st7" points="38.5,23.1 36.8,22.1 38,20.1 39.7,21 39.2,22 				"/>
				<polygon class="st6" points="38.5,25.1 36.8,24.1 36.8,22.1 38.5,23.1 38.7,24.1 				"/>
				<polygon class="st0" points="42.5,20.8 41.4,20.1 39.7,21 38.5,23.1 38.5,25.1 39.7,25.7 41.4,24.8 42.5,22.7 				"/>
			</g>
			<g>
				<polygon class="st8" points="39.1,10.9 38,10.3 39.7,9.3 40.8,9.9 				"/>
				<polygon class="st7" points="39.1,20.7 38,20.1 38,10.3 39.1,10.9 				"/>
				<polygon class="st0" points="39.1,20.7 40.8,19.8 40.8,9.9 39.1,10.9 				"/>
			</g>
		</g>
	</g>
	<g>
		<path class="st9" d="M31.4,63.5l-11.6,0l-8.2,4.7v6.7l8.2,4.7h11.6l8.2-4.7v-6.7L31.4,63.5z"/>
		<polygon class="st8" points="30.1,64.6 21.1,64.6 14.8,68.3 14.8,73.5 21.1,77.2 30.1,77.2 36.5,73.5 36.5,68.3 		"/>
		<g>
			<polygon class="st0" points="21.5,62.1 22.3,57.7 22.3,51.5 21.5,47.1 20.3,47.1 12.7,51.5 12.7,57.7 20.3,62.1 			"/>
			<polygon class="st7" points="38.4,51.7 36.5,50.3 32.5,48.1 30.5,47.9 25.2,54.6 30.2,62.2 38.4,57.7 			"/>
			<polygon class="st6" points="30.5,47.9 28.1,47.4 24.3,47.4 20.7,47.9 21.1,64.6 30.1,64.6 			"/>
		</g>
		<g>
			<path class="st1" d="M14,59.7l6.8,3.9h9.7l6.8-3.9l0-5.6l-6.8-3.9l-9.7,0L14,54.1L14,59.7z"/>
			<path class="st2" d="M15.8,58.9l5.8,3.3h8.1l5.8-3.3l0-4.7l-5.8-3.3l-8.1,0l-5.8,3.3L15.8,58.9z"/>
			<path class="st3" d="M16.8,58.8l4.7,2.7h6.7l4.7-2.7l0-3.9l-4.7-2.7l-6.7,0L16.8,55L16.8,58.8z"/>
			<path class="st4" d="M19,58.4l3.3,1.9l4.6,0l3.3-1.9v-2.7l-3.3-1.9h-4.6L19,55.8L19,58.4z"/>
			<path class="st5" d="M20.4,57.4l2,1.2h2.8l2-1.2l0-1.6l-2-1.2l-2.8,0l-2,1.2L20.4,57.4z"/>
		</g>
		<g>
			<polygon class="st0" points="39.6,58 38.2,57.8 30.9,62.2 19.8,62.8 30.1,77.2 36.5,73.5 			"/>
			<polygon class="st7" points="11.7,58 12.7,57.7 19.8,61.9 31.4,62.8 21.1,77.2 14.8,73.5 			"/>
			<polygon class="st6" points="31.4,62.8 25.6,61.8 19.8,62.8 21.1,77.2 30.1,77.2 			"/>
			<path class="st8" d="M31.4,46.6l-11.6,0l-8.2,4.7V58l8.2,4.7h11.6l8.2-4.7v-6.7L31.4,46.6z M37.4,57.5l-6.9,4h-9.8l-6.9-4v-5.6
				l6.9-4l9.8,0l6.9,4V57.5z"/>
		</g>
		<g>
			<g>
				<path class="st4" d="M29.3,53.1l2.6-2.5c0.9-0.8,1.8-1.6,2.6-2.4l0,0l0,0l3-0.7l3-0.7l0.1,0l0.1,0c0.9,0.3,1.7,0.6,2.6,1
					l1.3,0.5c0.4,0.2,0.9,0.3,1.3,0.5l0.1,0l0,0.1l0.3,1.1c0.1,0.4,0.2,0.8,0.3,1.2c-0.2-0.4-0.3-0.7-0.5-1.1L45.7,49l0.1,0.1
					c-0.4-0.1-0.9-0.3-1.3-0.5l-1.3-0.5c-0.9-0.3-1.7-0.6-2.6-1l0.1,0l-3,0.7l-3,0.6l0.1,0c-0.9,0.8-1.8,1.6-2.7,2.4L29.3,53.1z"/>
				<g>
					<polygon class="st3" points="47.1,51.3 47.4,51.1 47.1,51.1 47.1,50.8 46.9,50.9 46.7,50.6 46.6,50.9 46.3,50.8 46.3,51.1 
						46,51.1 46.3,51.3 46,51.6 46.3,51.6 46.3,51.9 46.6,51.8 46.7,52.1 46.9,51.8 47.1,51.9 47.1,51.6 47.4,51.6 					"/>
					<polygon class="st5" points="47,51.3 47.1,51.2 46.9,51.2 46.9,51 46.8,51.1 46.7,50.9 46.6,51.1 46.5,51 46.5,51.2 46.3,51.2 
						46.5,51.3 46.3,51.5 46.5,51.5 46.5,51.7 46.6,51.6 46.7,51.8 46.8,51.6 46.9,51.7 46.9,51.5 47.1,51.5 					"/>
				</g>
			</g>
			<g>
				<path class="st4" d="M31.9,55.8c0.5-0.3,0.9-0.6,1.4-1c0.5-0.3,0.9-0.6,1.4-0.9c0.9-0.6,1.9-1.2,2.8-1.8l0.1,0l0.1,0
					c1.7,0.4,3.5,0.9,5.2,1.4l0.1,0l0,0l1.3,1.8c0.4,0.6,0.8,1.2,1.2,1.8c-0.5-0.6-0.9-1.1-1.4-1.7l-1.4-1.7l0.1,0.1
					c-1.7-0.4-3.5-0.8-5.2-1.3l0.2,0c-1,0.6-1.9,1.2-2.9,1.7c-0.5,0.3-1,0.6-1.5,0.8C32.9,55.3,32.4,55.6,31.9,55.8z"/>
				<g>
					<polygon class="st3" points="46.1,57.1 46.4,56.9 46,56.8 46.1,56.5 45.8,56.7 45.7,56.4 45.5,56.7 45.3,56.5 45.3,56.8 
						45,56.9 45.2,57.1 45,57.3 45.3,57.4 45.3,57.6 45.5,57.5 45.7,57.8 45.8,57.5 46.1,57.6 46,57.4 46.4,57.3 					"/>
					<polygon class="st5" points="45.9,57.1 46.1,57 45.9,56.9 45.9,56.8 45.8,56.8 45.7,56.7 45.6,56.8 45.4,56.8 45.5,56.9 
						45.3,57 45.4,57.1 45.3,57.2 45.5,57.2 45.4,57.4 45.6,57.3 45.7,57.5 45.8,57.3 45.9,57.4 45.9,57.2 46.1,57.2 					"/>
				</g>
			</g>
			<g>
				<path class="st4" d="M31.1,59.3c0.6-0.4,1.2-0.8,1.8-1.1l1.8-1.1l0.1,0l0.1,0c1,0.3,2,0.6,2.9,0.9l0,0l0,0
					c1.4,1,2.9,2.1,4.3,3.2l0,0l0,0.1l0.5,2.1c0.2,0.7,0.3,1.4,0.5,2.2c-0.2-0.7-0.4-1.4-0.7-2.1l-0.6-2.1l0.1,0.1
					c-1.5-1-2.9-2.1-4.3-3.2l0.1,0c-1-0.3-1.9-0.6-2.9-1l0.1,0l-1.9,1C32.4,58.7,31.8,59,31.1,59.3z"/>
				<g>
					<polygon class="st3" points="43.7,65.6 43.9,65.4 43.6,65.3 43.6,65 43.4,65.2 43.2,64.9 43.1,65.2 42.8,65 42.9,65.3 
						42.5,65.4 42.8,65.6 42.5,65.8 42.9,65.9 42.8,66.2 43.1,66 43.2,66.3 43.4,66 43.6,66.2 43.6,65.9 43.9,65.8 					"/>
					<polygon class="st5" points="43.5,65.6 43.6,65.5 43.4,65.4 43.5,65.3 43.3,65.4 43.2,65.2 43.1,65.4 43,65.3 43,65.4 
						42.8,65.5 43,65.6 42.8,65.7 43,65.8 43,65.9 43.1,65.8 43.2,66 43.3,65.8 43.5,65.9 43.4,65.8 43.6,65.7 					"/>
				</g>
			</g>
			<g>
				<path class="st4" d="M29.1,60.8c0.6,0,1.1-0.1,1.7-0.1l1.7-0.1l0.1,0l0,0c1,0.8,1.9,1.6,2.8,2.4l0.1,0l0,0.1
					c0.2,1.6,0.5,3.2,0.6,4.8l0,0l0,0l-0.7,1.7c-0.2,0.6-0.5,1.1-0.7,1.7c0.2-0.6,0.4-1.2,0.5-1.7l0.6-1.7l0,0.1
					c-0.3-1.6-0.5-3.2-0.7-4.8l0.1,0.1c-0.9-0.8-1.9-1.7-2.8-2.5l0.1,0l-1.7-0.1C30.2,60.9,29.7,60.8,29.1,60.8z"/>
				<g>
					<polygon class="st3" points="35.3,71.5 35.5,71.3 35.2,71.3 35.3,71 35,71.1 34.9,70.8 34.7,71.1 34.4,71 34.5,71.3 34.2,71.3 
						34.4,71.5 34.2,71.8 34.5,71.8 34.4,72.1 34.7,72 34.9,72.3 35,72 35.3,72.1 35.2,71.8 35.5,71.8 					"/>
					<polygon class="st5" points="35.1,71.5 35.2,71.4 35.1,71.4 35.1,71.2 34.9,71.3 34.9,71.1 34.8,71.3 34.6,71.2 34.6,71.4 
						34.5,71.4 34.6,71.5 34.5,71.7 34.6,71.7 34.6,71.9 34.8,71.8 34.9,72 34.9,71.8 35.1,71.9 35.1,71.7 35.2,71.7 					"/>
				</g>
			</g>
			<g>
				<path class="st4" d="M26.7,68.4c0.1-0.8,0.2-1.6,0.4-2.5c0.1-0.8,0.3-1.6,0.4-2.5l0,0c-0.2-1.4-0.4-2.8-0.5-4.3l0.1,0.1
					c-0.4-0.3-0.8-0.7-1.2-1.1l0.3,0l-0.3,0.4c-0.1,0.1-0.2,0.2-0.3,0.3c0-0.2,0.1-0.3,0.1-0.4l0.2-0.4l0.1-0.2L26,58
					c0.4,0.3,0.9,0.7,1.3,1l0.1,0.1l0,0.1c0.2,1.4,0.3,2.8,0.4,4.3l0,0l0,0c-0.2,0.8-0.3,1.6-0.5,2.4C27.1,66.8,26.9,67.6,26.7,68.4
					z"/>
				<g>
					<polygon class="st3" points="27.1,68.4 27.4,68.2 27.1,68.1 27.1,67.8 26.8,68 26.7,67.7 26.5,68 26.3,67.8 26.3,68.1 26,68.2 
						26.3,68.4 26,68.6 26.3,68.7 26.3,68.9 26.5,68.8 26.7,69.1 26.8,68.8 27.1,68.9 27.1,68.7 27.4,68.6 					"/>
					<polygon class="st5" points="26.9,68.4 27.1,68.2 26.9,68.2 26.9,68.1 26.8,68.1 26.7,68 26.6,68.1 26.4,68.1 26.5,68.2 
						26.3,68.2 26.4,68.4 26.3,68.5 26.5,68.5 26.4,68.7 26.6,68.6 26.7,68.8 26.8,68.6 26.9,68.7 26.9,68.5 27.1,68.5 					"/>
				</g>
			</g>
			<g>
				<path class="st4" d="M18.7,69c-0.2-0.8-0.3-1.7-0.5-2.6c-0.2-0.9-0.3-1.7-0.4-2.6l0,0l0,0c0.7-1.4,1.4-2.7,2.2-4.1l0-0.1l0.1,0
					c0.6-0.3,1.3-0.6,2-0.8l0.1,0l0.1,0l0.6,0.5c0.2,0.2,0.4,0.3,0.6,0.5c-0.2-0.1-0.5-0.2-0.7-0.3L22,59.1l0.2,0
					c-0.6,0.3-1.3,0.6-2,0.9l0.1-0.1c-0.7,1.3-1.5,2.7-2.3,4l0-0.1c0.1,0.9,0.2,1.7,0.3,2.6C18.5,67.3,18.6,68.1,18.7,69z"/>
				<g>
					<polygon class="st3" points="19,69 19.3,68.8 19,68.7 19,68.4 18.7,68.6 18.6,68.3 18.4,68.6 18.2,68.4 18.2,68.7 17.9,68.8 
						18.2,69 17.9,69.2 18.2,69.3 18.2,69.5 18.4,69.4 18.6,69.7 18.7,69.4 19,69.5 19,69.3 19.3,69.2 					"/>
					<polygon class="st5" points="18.8,69 19,68.8 18.8,68.8 18.8,68.7 18.7,68.7 18.6,68.6 18.5,68.7 18.3,68.7 18.4,68.8 
						18.2,68.8 18.3,69 18.2,69.1 18.4,69.1 18.3,69.3 18.5,69.2 18.6,69.4 18.7,69.2 18.8,69.3 18.8,69.1 19,69.1 					"/>
				</g>
			</g>
			<g>
				<path class="st4" d="M7.7,65.7c0-0.8,0.1-1.7,0.2-2.5c0.1-0.8,0.1-1.7,0.2-2.5l0,0l0,0c0.7-0.7,1.3-1.4,2-2l2-2l0,0l0.1,0
					c0.8-0.1,1.6-0.2,2.5-0.3l1.2-0.1c0.4,0,0.8-0.1,1.2-0.1l0.1,0l0.1,0.1l1.2,1.6c0.4,0.6,0.8,1.1,1.2,1.7c-0.5-0.5-0.9-1-1.3-1.5
					L17,56.1l0.2,0.1c-0.4,0.1-0.8,0.1-1.2,0.2l-1.2,0.2c-0.8,0.1-1.6,0.2-2.5,0.3l0.1-0.1l-2,2c-0.7,0.7-1.3,1.3-2,2l0-0.1
					c-0.1,0.8-0.2,1.7-0.3,2.5C7.9,64.1,7.8,64.9,7.7,65.7z"/>
				<g>
					<polygon class="st3" points="8.1,65.7 8.4,65.5 8.1,65.5 8.1,65.2 7.9,65.3 7.7,65 7.6,65.3 7.3,65.2 7.3,65.5 7,65.5 
						7.3,65.7 7,66 7.3,66 7.3,66.3 7.6,66.2 7.7,66.5 7.9,66.2 8.1,66.3 8.1,66 8.4,66 					"/>
					<polygon class="st5" points="8,65.7 8.1,65.6 7.9,65.6 8,65.4 7.8,65.5 7.7,65.3 7.6,65.5 7.5,65.4 7.5,65.6 7.3,65.6 
						7.5,65.7 7.3,65.9 7.5,65.9 7.5,66.1 7.6,66 7.7,66.2 7.8,66 8,66.1 7.9,65.9 8.1,65.9 					"/>
				</g>
			</g>
			<g>
				<path class="st4" d="M0.7,57.3l1-2.7c0.3-0.9,0.7-1.8,1-2.7l0,0l0.1,0c0.8-0.4,1.6-0.7,2.4-1.1l2.4-1.1l0,0l0.1,0
					c0.8,0.1,1.7,0.1,2.5,0.2l1.2,0.1c0.4,0,0.8,0.1,1.2,0.1l0,0l0,0l2,1.5c0.7,0.5,1.4,1,2,1.6c-0.7-0.5-1.4-0.9-2.1-1.4l-2.1-1.4
					l0.1,0c-0.4,0-0.8-0.1-1.2-0.1L10,50.3c-0.8-0.1-1.7-0.1-2.5-0.2l0.1,0l-2.4,1.1c-0.8,0.4-1.6,0.7-2.4,1l0.1-0.1
					c-0.4,0.9-0.7,1.8-1.1,2.6L0.7,57.3z"/>
				<g>
					<polygon class="st3" points="1.1,57.3 1.3,57.1 1,57 1.1,56.8 0.8,56.9 0.7,56.6 0.5,56.9 0.3,56.8 0.3,57 0,57.1 0.2,57.3 
						0,57.5 0.3,57.6 0.3,57.9 0.5,57.7 0.7,58 0.8,57.7 1.1,57.9 1,57.6 1.3,57.5 					"/>
					<polygon class="st5" points="0.9,57.3 1.1,57.2 0.9,57.2 0.9,57 0.8,57.1 0.7,56.9 0.6,57.1 0.4,57 0.5,57.2 0.3,57.2 
						0.4,57.3 0.3,57.4 0.5,57.5 0.4,57.6 0.6,57.6 0.7,57.7 0.8,57.6 0.9,57.6 0.9,57.5 1.1,57.4 					"/>
				</g>
			</g>
			<g>
				<path class="st4" d="M5.7,47c0.7-0.4,1.4-0.9,2.1-1.3c0.7-0.4,1.4-0.8,2.2-1.3l0,0l0,0c0.9-0.1,1.7-0.1,2.6-0.2l2.6-0.2l0.1,0
					l0.1,0c0.6,0.4,1.3,0.7,1.9,1.1l1,0.6c0.3,0.2,0.6,0.4,1,0.6l0,0l0,0l1.3,2.2c0.4,0.7,0.8,1.5,1.2,2.2c-0.5-0.7-0.9-1.4-1.4-2.1
					l-1.4-2.2l0.1,0.1c-0.3-0.2-0.6-0.4-1-0.5l-1-0.6c-0.7-0.4-1.3-0.7-1.9-1.1l0.1,0l-2.6,0.1c-0.9,0-1.7,0.1-2.6,0.1l0.1,0
					c-0.7,0.4-1.5,0.8-2.2,1.2C7.2,46.2,6.4,46.6,5.7,47z"/>
				<g>
					<polygon class="st3" points="6.2,46.8 6.3,46.7 6.2,46.7 6.2,46.5 6.1,46.6 6,46.4 5.9,46.6 5.7,46.5 5.8,46.7 5.6,46.7 
						5.7,46.8 5.6,47 5.8,47 5.7,47.1 5.9,47.1 6,47.2 6.1,47.1 6.2,47.1 6.2,47 6.3,47 					"/>
					<polygon class="st5" points="6.1,46.8 6.2,46.7 6.1,46.7 6.1,46.6 6,46.7 6,46.6 5.9,46.7 5.8,46.6 5.8,46.7 5.7,46.7 
						5.8,46.8 5.7,46.9 5.8,46.9 5.8,47 5.9,47 6,47.1 6,47 6.1,47 6.1,46.9 6.2,46.9 					"/>
				</g>
			</g>
			<g>
				<path class="st4" d="M21.3,45.4c-0.1-0.4-0.1-0.9-0.2-1.3c-0.1-0.4-0.1-0.9-0.2-1.3l0-0.1l0.1-0.1c0.6-0.4,1.3-0.8,1.9-1.1
					l0.2-0.1l0.1,0.2c0.4,0.9,0.8,1.8,1.2,2.7l0,0l0,0l0.1,2.5c0,0.8,0,1.7,0,2.5c-0.1-0.8-0.2-1.7-0.2-2.5l-0.2-2.5l0,0.1
					c-0.5-0.9-0.9-1.8-1.3-2.7l0.3,0.1c-0.6,0.4-1.3,0.7-1.9,1l0.1-0.1c0,0.4,0.1,0.9,0.1,1.3C21.3,44.5,21.3,44.9,21.3,45.4z"/>
				<g>
					<polygon class="st3" points="21.6,45.3 21.8,45.2 21.6,45.2 21.6,45 21.5,45.1 21.4,44.9 21.3,45.1 21.1,45 21.2,45.2 21,45.2 
						21.1,45.3 21,45.5 21.2,45.5 21.1,45.7 21.3,45.6 21.4,45.7 21.5,45.6 21.6,45.7 21.6,45.5 21.8,45.5 					"/>
					<polygon class="st5" points="21.5,45.3 21.6,45.3 21.5,45.2 21.5,45.2 21.4,45.2 21.4,45.1 21.3,45.2 21.2,45.2 21.3,45.2 
						21.2,45.3 21.2,45.3 21.2,45.4 21.3,45.4 21.2,45.5 21.3,45.5 21.4,45.6 21.4,45.5 21.5,45.5 21.5,45.4 21.6,45.4 					"/>
				</g>
			</g>
			<g>
				<path class="st4" d="M27.5,50.4c0.3-0.4,0.6-0.8,0.9-1.2c0.3-0.4,0.6-0.8,0.9-1.2c0.6-0.8,1.2-1.5,1.8-2.3l0-0.1l0.1,0
					c1.3-0.3,2.6-0.6,4-0.8l0.1,0l0.1,0l1.2,0.8c0.4,0.3,0.8,0.6,1.2,0.9c-0.4-0.2-0.9-0.5-1.3-0.7L35,45.1l0.1,0
					c-1.3,0.3-2.6,0.6-4,0.9l0.1-0.1c-0.6,0.8-1.2,1.5-1.9,2.2c-0.3,0.4-0.6,0.7-1,1.1C28.1,49.6,27.8,50,27.5,50.4z"/>
				<g>
					<polygon class="st3" points="37.9,46.6 38.1,46.4 37.8,46.4 37.9,46.2 37.7,46.3 37.6,46.1 37.4,46.3 37.2,46.2 37.3,46.4 
						37,46.4 37.2,46.6 37,46.8 37.3,46.8 37.2,47 37.4,46.9 37.6,47.2 37.7,46.9 37.9,47 37.8,46.8 38.1,46.8 					"/>
					<polygon class="st5" points="37.8,46.6 37.9,46.5 37.7,46.5 37.7,46.4 37.6,46.4 37.6,46.3 37.5,46.4 37.4,46.4 37.4,46.5 
						37.3,46.5 37.4,46.6 37.3,46.7 37.4,46.7 37.4,46.8 37.5,46.8 37.6,46.9 37.6,46.8 37.7,46.8 37.7,46.7 37.9,46.7 					"/>
				</g>
			</g>
		</g>
	</g>
</g>
</svg>
