<?xml version="1.0" encoding="utf-8"?>
<!-- Generator: Adobe Illustrator 24.0.3, SVG Export Plug-In . SVG Version: 6.00 Build 0)  -->
<svg version="1.1" id="レイヤー_1" xmlns="http://www.w3.org/2000/svg" xmlns:xlink="http://www.w3.org/1999/xlink" x="0px"
	 y="0px" viewBox="0 0 1096.3 114.6" style="enable-background:new 0 0 1096.3 114.6;" xml:space="preserve">
<style type="text/css">
	.st0{opacity:0.8;}
	.st1{fill:#FFFFFF;}
</style>
<g class="st0">
	<g>
		<path class="st1" d="M36.3,29.3c0.1-8-0.6-15.8-9.8-15.8c-5.6,0-9.2,2.3-9.2,8.3c0,6.8,4.3,9.4,9.5,12.7
			c5.5,3.5,15.6,10.1,20.2,14.6c5.7,5.6,7.5,10.9,7.5,18.7c0,16.9-11.2,25.7-27.5,25.7C7.1,93.5,0,82.4,0,66.4v-6.5h16.7v5.2
			c-0.4,8.7,2.3,15,10.5,15c7,0,10.4-3.7,10.4-10.5c0-5.2-2.4-8.8-6.7-11.8c-8.7-6.8-19.5-11.7-26.3-20.6c-2.7-4-4.3-8.9-4.3-13.7
			C0.2,8.3,8.8,0,26.4,0C53,0,52.2,20.5,52.4,29.3H36.3z"/>
		<path class="st1" d="M99.6,81.4h-0.2c-2.4,8-6.9,11.7-14.4,11.8c-12.3,0-15-6.3-15-17.5V24.3h15.5v45.9c0,3-0.1,6.3,1.5,8.9
			c1.3,1.4,2.7,2.1,4.8,2.1c7.3,0,7.1-8.2,7.1-13.4V24.3h15.5v67.1H99.6V81.4z"/>
		<path class="st1" d="M144.3,69.3c-1.2,12.4,3.6,12,7.1,12c4.4,0,7.5-3.2,6.4-7.5c-0.2-3.8-4.6-6-7.6-8l-8.4-5.8
			c-7.7-5.4-12.7-11.5-12.7-21.2c0-10.4,8.2-16.3,23.1-16.3c15,0,21.9,7.9,21.5,22.3h-15.5c0.4-7.5-1.8-10.4-7.1-10.4
			c-3.7,0-6.5,1.7-6.5,5.5c0,3.9,2.9,5.7,5.8,7.7l12.6,8.6c3.9,2.3,10.1,8.7,10.6,13.2c1.3,11.7-1.5,23.8-23,23.8
			c-8.2,0-23.6-3.5-21.8-23.9H144.3z"/>
		<path class="st1" d="M213.6,91.6c-9.2,1.1-22,1.9-22-10.6V35.6h-6.3V24.3h6.2V5.8h15.6v18.4h6.5v11.3h-6.5v41.7
			c0.4,2.9,4.6,2.5,6.5,2.3V91.6z"/>
		<path class="st1" d="M259,91.4c-1.1-2.1-1.2-4.5-1-6.9h-0.2c-1.8,2.7-3.8,5-6.2,6.4c-2.3,1.4-4.8,2.3-7.4,2.3
			c-12.5,0-18-6.3-18-20.1c0-15.4,10.8-19,23-24c6.5-2.7,8.9-5.7,7.6-11.2c-0.7-3-3.1-3.5-7.3-3.5c-7,0-8.2,3.7-8.1,9.8h-14.8
			c-0.1-12.7,4-21.7,23.4-21.7c21.1,0,22.4,11.1,22.1,19.9V82c0,3.2,0.5,6.3,1.3,9.4H259z M256.8,56.1c-3.8,2.6-8.4,5.2-12.5,8.6
			c-2.3,1.9-2.6,5.2-2.6,8.1c0,5.1,1.5,8.6,7.3,8.6c9.2,0,7.5-11.5,7.9-18V56.1z"/>
		<path class="st1" d="M290.7,16.2v-14h15.5v14H290.7z M290.7,91.4V24.3h15.5v67.1H290.7z"/>
		<path class="st1" d="M339.4,31.2h0.2c3.5-7.7,10.4-8.7,13.9-8.7c8.8,0,15.9,5.1,15.5,17.1v51.8h-15.5V46.6
			c0-6.5-0.7-10.8-6.5-11.1c-5.8-0.2-7.9,5.2-7.6,12.4v43.4h-15.5V24.3h15.5V31.2z"/>
		<path class="st1" d="M416.7,91.4c-1.1-2.1-1.2-4.5-1-6.9h-0.2c-1.8,2.7-3.8,5-6.2,6.4c-2.3,1.4-4.8,2.3-7.4,2.3
			c-12.5,0-18-6.3-18-20.1c0-15.4,10.8-19,23-24c6.5-2.7,8.9-5.7,7.6-11.2c-0.7-3-3.1-3.5-7.3-3.5c-7,0-8.2,3.7-8.1,9.8h-14.8
			c-0.1-12.7,4-21.7,23.4-21.7c21.1,0,22.4,11.1,22.1,19.9V82c0,3.2,0.5,6.3,1.3,9.4H416.7z M414.5,56.1c-3.8,2.6-8.4,5.2-12.5,8.6
			c-2.3,1.9-2.6,5.2-2.6,8.1c0,5.1,1.5,8.6,7.3,8.6c9.2,0,7.5-11.5,7.9-18V56.1z"/>
		<path class="st1" d="M447.8,2.1h15.5v21.4c0,2.1-0.2,4.3-0.4,7.5h0.2c3.1-6.4,7.3-8.7,13.8-8.6c10,0.2,15.7,5.4,16.1,23.8v24.3
			c-0.4,10.7-3,22.6-16.1,22.6c-6.4-0.4-10.7-2.3-14.2-8.9h-0.2v7.1h-14.8V2.1z M463.3,69.4c0,7.7,2.5,11.9,7.5,11.9
			c4.8,0,6.4-5.1,6.8-11.5V47.4c-0.5-6.7,0.2-13-7-13s-7.5,9.5-7.3,14.9V69.4z"/>
		<path class="st1" d="M510.4,91.4V2.1h15.5v89.3H510.4z"/>
		<path class="st1" d="M542.6,47.4c-0.7-15.8,7.4-24.9,22.6-24.9c21.5,0,23.8,11.2,23.8,29.5v9h-30.9v9.8c0.1,8.8,3.5,10.5,8.1,10.5
			c5.7,0,7.4-4.2,7.1-12.6h15.5c0.6,15-5.6,24.5-21.4,24.5c-17.9,0-25.1-8.4-24.8-28.2V47.4z M573.5,49.1v-5.8
			c-0.1-6.8-1.9-8.9-8.1-8.9c-7.7,0-7.4,6-7.4,12v2.7H573.5z"/>
		<path class="st1" d="M643.9,91.4V2.1h15.5v89.3H643.9z"/>
		<path class="st1" d="M677.8,16.2v-14h15.5v14H677.8z M677.8,91.4V24.3h15.5v67.1H677.8z"/>
		<path class="st1" d="M707.4,35.6V24.3h6v-6.7c0-12.1,5-15.5,16.3-15.5h5.8v12.4c-1.2-0.4-2.5-0.7-3.5-0.7c-2.3,0-3.2,1.1-3.2,2.6
			v7.9h6.7v11.3h-6.7v55.8h-15.5V35.6H707.4z"/>
		<path class="st1" d="M747.9,47.4c-0.7-15.8,7.4-24.9,22.6-24.9c21.5,0,23.8,11.2,23.8,29.5v9h-30.9v9.8c0.1,8.8,3.5,10.5,8.1,10.5
			c5.7,0,7.4-4.2,7.1-12.6h15.5c0.6,15-5.6,24.5-21.4,24.5c-17.9,0-25.1-8.4-24.8-28.2V47.4z M778.8,49.1v-5.8
			c-0.1-6.8-1.9-8.9-8.1-8.9c-7.7,0-7.4,6-7.4,12v2.7H778.8z"/>
		<path class="st1" d="M872.8,47.6v-7.5c-0.2-3.7-2-5.7-5.4-5.7c-6,0-6,6.8-5.8,15v15.8c-0.4,13.1,1.2,15.5,5.8,16.1
			c4.8-0.1,4.9-4.5,5.4-9.9v-6.2h15.5v6.2c0,14-5.8,21.8-21.2,21.8c-13.7,0-21.5-7.3-20.9-25.1V46.3c-0.1-18.8,9.2-23.8,20.9-23.8
			c15.6,0,21.3,9.8,21.2,19.8v5.4H872.8z"/>
		<path class="st1" d="M914.6,24.3l6.8,35.6c1.1,6,1.7,11.9,2.3,17.9h0.2c0.5-5.8,1.3-11.7,2.4-17.4l6.8-36.1h15.7l-16.3,68.1
			c-3.9,15.2-4.3,24.8-25.7,21.7v-12c2.5,0,9.2,1.3,9.2-3c0-2.4-0.8-6.2-1.4-8.6l-16.2-66.2H914.6z"/>
		<path class="st1" d="M986.1,47.6v-7.5c-0.2-3.7-2-5.7-5.4-5.7c-6,0-6,6.8-5.8,15v15.8c-0.4,13.1,1.2,15.5,5.8,16.1
			c4.8-0.1,4.9-4.5,5.4-9.9v-6.2h15.5v6.2c0,14-5.8,21.8-21.2,21.8c-13.7,0-21.5-7.3-20.9-25.1V46.3c-0.1-18.8,9.2-23.8,20.9-23.8
			c15.6,0,21.3,9.8,21.2,19.8v5.4H986.1z"/>
		<path class="st1" d="M1017.7,91.4V2.1h15.5v89.3H1017.7z"/>
		<path class="st1" d="M1049.8,47.4c-0.7-15.8,7.4-24.9,22.6-24.9c21.5,0,23.8,11.2,23.8,29.5v9h-30.9v9.8
			c0.1,8.8,3.5,10.5,8.1,10.5c5.7,0,7.4-4.2,7.1-12.6h15.5c0.6,15-5.6,24.5-21.4,24.5c-17.9,0-25.1-8.4-24.8-28.2V47.4z
			 M1080.8,49.1v-5.8c-0.1-6.8-1.9-8.9-8.1-8.9c-7.7,0-7.4,6-7.4,12v2.7H1080.8z"/>
	</g>
</g>
</svg>
