<?xml version="1.0" encoding="utf-8"?>
<!-- Generator: Adobe Illustrator 24.0.3, SVG Export Plug-In . SVG Version: 6.00 Build 0)  -->
<svg version="1.1" id="レイヤー_1" xmlns="http://www.w3.org/2000/svg" xmlns:xlink="http://www.w3.org/1999/xlink" x="0px"
	 y="0px" viewBox="0 0 458.2 458.2" style="enable-background:new 0 0 458.2 458.2;" xml:space="preserve">
<style type="text/css">
	.st0{fill:#005991;}
	.st1{fill:#FF5000;}
	.st2{fill:#C60F28;}
	.st3{fill:#008937;}
</style>
<g>
	<path class="st0" d="M420.5,158.2c-4.2-11.4-9.4-22.4-15.5-32.7l-0.1-0.1c-0.7-1.1-1.4-2.3-2.1-3.5l-0.3-0.4
		c-0.2-0.3-0.3-0.6-0.5-0.8c-0.4-0.6-0.7-1.2-1.1-1.8l-0.5-0.7c-0.5-0.7-1-1.5-1.4-2.2l-0.6-0.8c-15.5-23-35.3-42.4-58.7-57.5
		c-0.4-0.3-0.9-0.6-1.3-0.8l-1.3-0.8c-0.4-0.3-0.9-0.6-1.3-0.8c-23.7-14.5-49.7-24-77.2-28l-0.9-0.1c-0.9-0.1-1.8-0.2-2.7-0.4
		l-0.6-0.1c-0.7-0.1-1.4-0.2-2.2-0.3l-1.5-0.2c-1.4-0.1-2.7-0.3-4.1-0.4l-0.1,0c-11.9-1-24.1-0.9-36.2,0.2L207.9,1
		c13.5-1.3,27.2-1.3,40.6-0.2c1.6,0.1,3.2,0.3,4.7,0.5l0.5,0.1c0.4,0,0.8,0.1,1.2,0.1c0.8,0.1,1.6,0.2,2.5,0.3l0.7,0.1
		c1,0.1,2.1,0.3,3.1,0.4l1.1,0.2c30.9,4.5,60,15.1,86.7,31.5c0.5,0.3,1.1,0.7,1.6,1l1.2,0.7c0.5,0.3,1.1,0.7,1.6,1
		c26.2,17,48.4,38.7,65.8,64.5l0.6,0.9c0.5,0.8,1.1,1.7,1.6,2.5l0.5,0.8c0.4,0.7,0.9,1.3,1.3,2c0.2,0.3,0.4,0.7,0.6,1l0.3,0.4
		c0.8,1.3,1.6,2.7,2.4,4l0.1,0.2c6.8,11.5,12.6,23.9,17.4,36.7L420.5,158.2z"/>
	<path class="st1" d="M308.6,443.9l-8.7-23.4c11.4-4.2,22.4-9.4,32.8-15.5l0.1-0.1c1.2-0.7,2.3-1.4,3.5-2.1l0.3-0.2
		c0.3-0.2,0.6-0.4,0.9-0.6c0.7-0.4,1.3-0.8,2-1.3l0.2-0.1c0.8-0.5,1.7-1.1,2.5-1.6l0.8-0.6c23-15.5,42.4-35.3,57.5-58.6
		c0.3-0.4,0.6-0.9,0.8-1.3l0.8-1.2c0.3-0.5,0.6-0.9,0.9-1.4c14.5-23.7,24-49.7,28-77.2l0.1-1c0.1-0.9,0.2-1.9,0.4-2.8l0.1-0.5
		c0.1-0.7,0.2-1.5,0.3-2.2l0.2-1.5c0.1-1.3,0.3-2.7,0.4-4.1c1-12,1-24.2-0.2-36.3l24.9-2.3c1.3,13.5,1.3,27.2,0.2,40.6
		c-0.1,1.6-0.3,3.2-0.5,4.7l-0.2,1.7c-0.1,0.8-0.2,1.7-0.3,2.5l-0.1,0.5c-0.1,1.1-0.3,2.1-0.4,3.2l-0.2,1.1
		c-4.5,30.9-15.1,60-31.5,86.7c-0.3,0.6-0.7,1.1-1.1,1.7l-0.7,1c-0.3,0.6-0.7,1.1-1,1.6c-17,26.2-38.7,48.4-64.5,65.8l-0.9,0.6
		c-0.9,0.6-1.9,1.2-2.8,1.8l-0.2,0.1c-0.7,0.5-1.5,1-2.3,1.4c-0.4,0.2-0.8,0.5-1.1,0.7l-0.3,0.2c-1.3,0.8-2.6,1.6-4,2.4l-0.2,0.1
		C333.6,433.4,321.3,439.2,308.6,443.9z"/>
	<path class="st2" d="M228.8,458.2c-6.4,0-12.8-0.3-19.2-0.8c-1.6-0.1-3.2-0.3-4.7-0.5l-1.7-0.2c-0.8-0.1-1.7-0.2-2.5-0.3l-0.5-0.1
		c-1.1-0.1-2.1-0.3-3.2-0.4l-1.1-0.2c-30.9-4.5-60-15.1-86.7-31.5c-0.5-0.3-1.1-0.7-1.6-1l-1.2-0.7c-0.5-0.3-1.1-0.7-1.6-1
		c-26.2-17-48.4-38.7-65.8-64.5l-0.6-0.9c-0.6-0.8-1.1-1.7-1.7-2.6l-0.4-0.6c-0.5-0.7-0.9-1.4-1.4-2.1c-0.2-0.3-0.4-0.7-0.6-1
		l-0.2-0.4c-0.8-1.3-1.6-2.7-2.4-4l-0.1-0.1c-6.8-11.6-12.7-24-17.4-36.7l23.4-8.7c4.2,11.4,9.4,22.4,15.5,32.8
		c0.7,1.3,1.5,2.4,2.2,3.6l0.8,1.3c0.4,0.6,0.8,1.3,1.2,1.9l0.3,0.5c0.5,0.8,1,1.5,1.5,2.3l0.6,0.8c15.5,23,35.3,42.4,58.7,57.5
		c0.4,0.3,0.9,0.5,1.3,0.8l1.3,0.8c0.4,0.3,0.9,0.5,1.3,0.8c23.7,14.5,49.7,24,77.2,28l1,0.1c0.9,0.1,1.9,0.2,2.8,0.4l0.5,0.1
		c0.7,0.1,1.5,0.2,2.2,0.3l1.5,0.2c1.3,0.1,2.7,0.3,4.1,0.4c12,1,24.2,1,36.3-0.2l2.3,24.9C243.1,457.8,236,458.2,228.8,458.2z"/>
	<path class="st3" d="M1,250.3c-1.3-13.5-1.3-27.2-0.2-40.6c0.1-1.6,0.3-3.2,0.5-4.7l0.1-0.5c0-0.4,0.1-0.8,0.1-1.2
		c0.1-0.8,0.2-1.6,0.3-2.4l0.1-0.8c0.1-1,0.3-2,0.4-3l0.2-1.1c4.5-30.9,15.1-60,31.5-86.7c0.3-0.6,0.7-1.1,1-1.6l0.7-1.1
		c0.3-0.5,0.7-1.1,1-1.6c17-26.3,38.7-48.4,64.5-65.8l0.9-0.6c0.9-0.6,1.7-1.1,2.6-1.7l0.6-0.4c0.7-0.4,1.4-0.9,2.1-1.3
		c0.3-0.2,0.7-0.4,1-0.6l0.4-0.3c1.3-0.8,2.7-1.6,4-2.4l0.1-0.1c11.6-6.8,23.9-12.7,36.7-17.4l8.7,23.4
		c-11.4,4.2-22.4,9.4-32.8,15.5l-0.1,0.1c-1.1,0.7-2.3,1.4-3.5,2.1l-1.3,0.8c-0.6,0.4-1.2,0.8-1.8,1.1l-0.6,0.4
		c-0.8,0.5-1.5,1-2.3,1.5l-0.8,0.6c-23,15.5-42.4,35.3-57.5,58.6c-0.3,0.4-0.6,0.9-0.8,1.3L56,121c-0.3,0.4-0.6,0.9-0.8,1.3
		c-14.5,23.7-24,49.7-28,77.2l-0.1,0.9c-0.1,0.9-0.2,1.8-0.4,2.7l-0.1,0.8c-0.1,0.7-0.2,1.4-0.3,2.1l-0.2,1.5
		c-0.1,1.3-0.3,2.7-0.4,4.1l0,0.1c-1,12-1,24.2,0.2,36.2L1,250.3z"/>
</g>
<polygon class="st0" points="439.8,180.1 403.5,151.3 452.4,135.5 "/>
<polygon class="st2" points="18.4,278.1 54.6,306.8 5.8,322.6 "/>
<polygon class="st3" points="180.1,18.4 151.3,54.6 135.5,5.8 "/>
<polygon class="st1" points="278.1,439.8 306.8,403.5 322.6,452.4 "/>
<path class="st2" d="M66,432l0-9c3.9,0,7.9-0.4,11.7-1.1l0.1,0c0.4-0.1,0.8-0.2,1.2-0.2l1.4-0.3c0.3-0.1,0.5-0.1,0.8-0.2l0.3-0.1
	c8.8-2.2,16.8-6,24.1-11.4l1.2-0.9l5.6,7.1l-0.8,0.6c-0.2,0.1-0.3,0.3-0.5,0.4c-8.2,6.2-17.4,10.5-27.3,13l-0.4,0.1
	c-0.3,0.1-0.6,0.1-0.9,0.2l-0.3,0.1c-0.3,0.1-0.5,0.1-0.8,0.2l-0.6,0.1c-0.5,0.1-1,0.2-1.5,0.3l-0.1,0C74.9,431.5,70.4,431.9,66,432
	z"/>
<polygon class="st2" points="57,427.1 74.9,415.1 75,439.1 "/>
</svg>
