<?xml version="1.0" encoding="utf-8"?>
<!-- Generator: Adobe Illustrator 24.0.3, SVG Export Plug-In . SVG Version: 6.00 Build 0)  -->
<svg version="1.1" id="レイヤー_1" xmlns="http://www.w3.org/2000/svg" xmlns:xlink="http://www.w3.org/1999/xlink" x="0px"
	 y="0px" viewBox="0 0 63.2 40" style="enable-background:new 0 0 63.2 40;" xml:space="preserve">
<style type="text/css">
	.st0{fill:#6B7886;}
	.st1{fill:#444F5C;}
	.st2{fill:#EAEAEA;}
	.st3{fill:#C3C6C5;}
	.st4{fill:#A8ABAB;}
	.st5{fill:#D9DADA;}
	.st6{fill:#ABACAD;}
	.st7{fill:#DABC8D;}
	.st8{fill:url(#SVGID_1_);}
	.st9{fill:url(#SVGID_2_);}
	.st10{fill:#927042;}
	.st11{fill:#4B391B;}
	.st12{fill:#F6F7E1;}
	.st13{fill:url(#SVGID_3_);}
	.st14{fill:url(#SVGID_4_);}
	.st15{fill:url(#SVGID_5_);}
	.st16{fill:url(#SVGID_6_);}
	.st17{fill:url(#SVGID_7_);}
	.st18{fill:url(#SVGID_8_);}
	.st19{fill:url(#SVGID_9_);}
	.st20{fill:url(#SVGID_10_);}
	.st21{fill:url(#SVGID_11_);}
	.st22{fill:url(#SVGID_12_);}
	.st23{fill:url(#SVGID_13_);}
	.st24{fill:url(#SVGID_14_);}
	.st25{fill:url(#SVGID_15_);}
	.st26{fill:url(#SVGID_16_);}
	.st27{fill:url(#SVGID_17_);}
	.st28{fill:url(#SVGID_18_);}
	.st29{fill:url(#SVGID_19_);}
	.st30{fill:url(#SVGID_20_);}
	.st31{fill:url(#SVGID_21_);}
	.st32{fill:url(#SVGID_22_);}
	.st33{fill:url(#SVGID_23_);}
	.st34{fill:url(#SVGID_24_);}
	.st35{fill:#1E2530;}
	.st36{fill:#2E3742;}
	.st37{fill:#181E29;}
	.st38{fill:#797A7A;}
	.st39{fill:url(#SVGID_25_);}
	.st40{fill:#475260;}
	.st41{fill:#37414D;}
	.st42{fill:url(#SVGID_26_);}
	.st43{fill:url(#SVGID_27_);}
	.st44{fill:url(#SVGID_28_);}
	.st45{fill:url(#SVGID_29_);}
	.st46{fill:#AFB0B1;}
	.st47{fill:#C7C9C8;}
	.st48{fill:#969898;}
	.st49{fill:#E2E2E2;}
	.st50{fill:#686969;}
	.st51{fill:url(#SVGID_30_);}
	.st52{fill:url(#SVGID_31_);}
	.st53{fill:url(#SVGID_32_);}
	.st54{fill:url(#SVGID_33_);}
	.st55{fill:url(#SVGID_34_);}
	.st56{fill:#E4E2E3;}
	.st57{fill:#8F9090;}
	.st58{fill:#ABACAC;}
	.st59{fill:#4B83B5;}
	.st60{fill:#7C7D7E;}
	.st61{fill:#7AABDB;}
	.st62{fill:#2E5C80;}
	.st63{fill:url(#SVGID_35_);}
	.st64{fill:url(#SVGID_36_);}
	.st65{fill:#BADEF2;}
	.st66{fill:#485361;}
	.st67{fill:url(#SVGID_37_);}
	.st68{fill:#B1CBE9;}
	.st69{fill:#6B9F80;}
	.st70{fill:#287661;}
	.st71{fill:#BFBFBF;}
	.st72{fill:#999999;}
	.st73{fill:#F0F0F0;}
	.st74{fill:#EB730C;}
	.st75{fill:#F29F00;}
	.st76{fill:#525252;}
	.st77{fill:#A2746E;}
</style>
<g>
	<g>
		<g>
			<g>
				<path class="st0" d="M62.5,18.3c0.1,0,0.4,0,0.4-0.1v-1c0-0.1-0.1-0.2-0.2-0.2l-15.4-6.1c-0.1,0-0.2,0-0.2,0.1v1
					c0,0.1,0.1,0.2,0.2,0.2l12.9,5.1v0.8L47.3,13c-0.1,0-0.2,0-0.2,0.1v1c0,0.1,0.1,0.2,0.2,0.2l15.1,6.1c0.2,0.1,0.4-0.1,0.4-0.2
					v-1c0-0.1-0.1-0.2-0.2-0.2l-1.4-0.5v-0.8L62.5,18.3z"/>
				<path class="st1" d="M62.5,18.3c0.1,0,0.2,0,0.2-0.1v-1c0-0.1-0.1-0.2-0.2-0.2l-15.4-6.1c-0.1,0-0.2,0-0.2,0.1v1
					c0,0.1,0.1,0.2,0.2,0.2l12.9,5.1v0.8L47.1,13c-0.1,0-0.2,0-0.2,0.1v1c0,0.1,0.1,0.2,0.2,0.2l15.4,6.1c0.1,0,0.2,0,0.2-0.1v-1
					c0-0.1-0.1-0.2-0.2-0.2l-1.4-0.5v-0.8L62.5,18.3z"/>
			</g>
			<polygon class="st2" points="47.3,3 31.6,9.3 31.6,9.3 15.9,15.5 31.6,21.8 47.3,15.5 63,9.3 			"/>
			<polygon class="st3" points="47.3,10.1 15.9,22.6 15.9,16.4 47.3,3.8 			"/>
			<polygon class="st4" points="54.1,12.8 47.3,10.1 47.3,3.8 61.9,9.7 			"/>
			<g>
				<polygon class="st5" points="47.3,10.1 52.8,12.3 31.6,20.9 30.5,20.5 30.5,16.8 				"/>
				<g>
					<path class="st6" d="M46.9,10.9c0.3-0.1,0.6-0.1,0.8-0.1c0,0,0,0,0,0c0-0.1,0-0.1,0-0.1c-0.1-0.1-0.5,0-0.8,0.1l-16.4,6.6v0.1
						L46.9,10.9z"/>
					<path class="st3" d="M47.7,10.8C47.7,10.8,47.7,10.8,47.7,10.8c-0.2-0.1-0.5,0-0.8,0.1l-16.4,6.6v0.3L47.4,11
						C47.6,11,47.7,10.9,47.7,10.8z"/>
					<path class="st6" d="M48.2,11.5c0.3-0.1,0.6-0.1,0.8-0.1c0,0,0,0,0,0c0-0.1,0-0.1,0-0.1c-0.1-0.1-0.5,0-0.8,0.1l-17.7,7.1v0.1
						L48.2,11.5z"/>
					<path class="st3" d="M49,11.4C49,11.4,49,11.4,49,11.4c-0.2-0.1-0.5,0-0.8,0.1l-17.7,7.1v0.3l18.3-7.3
						C48.9,11.5,49,11.5,49,11.4z"/>
					<path class="st6" d="M49.6,12c0.3-0.1,0.6-0.1,0.8-0.1c0,0,0,0,0,0c0-0.1,0-0.1,0-0.1c-0.1-0.1-0.5,0-0.8,0.1l-19.1,7.6v0.1
						L49.6,12z"/>
					<path class="st3" d="M50.3,11.9C50.3,11.9,50.3,11.9,50.3,11.9c-0.2-0.1-0.5,0-0.8,0.1l-19.1,7.6v0.3l19.6-7.8
						C50.2,12.1,50.3,12,50.3,11.9z"/>
					<path class="st6" d="M50.9,12.5c0.3-0.1,0.6-0.1,0.8-0.1c0,0,0,0,0,0c0-0.1,0-0.1,0-0.1c-0.1-0.1-0.5,0-0.8,0.1l-20.3,8.1
						l0.1,0.1L50.9,12.5z"/>
					<path class="st3" d="M51.7,12.5C51.6,12.4,51.6,12.4,51.7,12.5c-0.2-0.1-0.5,0-0.8,0.1l-20.1,8l0.4,0.2l20.2-8.1
						C51.5,12.6,51.6,12.5,51.7,12.5z"/>
				</g>
			</g>
		</g>
		<g>
			<polygon class="st7" points="39.7,8.2 47.2,5.2 52.7,7.4 45.3,10.4 			"/>
			<linearGradient id="SVGID_1_" gradientUnits="userSpaceOnUse" x1="49.6301" y1="13.5454" x2="48.993" y2="11.2884">
				<stop  offset="0" style="stop-color:#927042"/>
				<stop  offset="5.780447e-02" style="stop-color:#957343"/>
				<stop  offset="0.6413" style="stop-color:#AD8B4E"/>
				<stop  offset="1" style="stop-color:#B69452"/>
			</linearGradient>
			<polygon class="st8" points="52.7,12.2 45.3,15.2 45.3,10.4 52.7,7.4 			"/>
			<linearGradient id="SVGID_2_" gradientUnits="userSpaceOnUse" x1="43.314" y1="9.6039" x2="41.6722" y2="13.8043">
				<stop  offset="0" style="stop-color:#D2AD76"/>
				<stop  offset="0.5898" style="stop-color:#BD9B65"/>
				<stop  offset="1" style="stop-color:#B4935E"/>
			</linearGradient>
			<polygon class="st9" points="45.3,15.2 39.7,13 39.7,8.2 45.3,10.4 			"/>
			<g>
				<path class="st10" d="M42.1,10.1c-0.1,0-0.2-0.2-0.2-0.3c0,0,0-0.1,0-0.1c-0.1,0-0.1,0.1-0.1,0.1C41.8,10,41.9,10.1,42.1,10.1
					l0.6,0.3c0.1,0,0.1,0,0.1,0c0,0,0,0-0.1,0L42.1,10.1z"/>
				<path class="st11" d="M42.7,10L42,9.7c0,0,0,0-0.1,0c0,0,0,0.1,0,0.1c0,0.1,0.1,0.2,0.2,0.3l0.7,0.3c0,0,0,0,0.1,0
					c0,0,0-0.1,0-0.1C42.8,10.2,42.8,10,42.7,10z"/>
			</g>
			<polygon class="st12" points="42.1,9.1 49.5,6.1 50.2,6.4 42.7,9.4 			"/>
			<g>
				<polygon class="st12" points="42.7,9.4 42.1,9.1 42.1,9.5 42.1,9.5 42.1,9.6 42.1,9.6 42.1,9.5 42.2,9.6 42.2,9.6 42.2,9.5 
					42.2,9.6 42.2,9.6 42.2,9.6 42.3,9.6 42.3,9.6 42.3,9.6 42.3,9.6 42.3,9.6 42.3,9.6 42.4,9.7 42.4,9.7 42.4,9.6 42.4,9.7 
					42.4,9.7 42.5,9.6 42.5,9.7 42.5,9.7 42.5,9.7 42.5,9.7 42.5,9.7 42.6,9.7 42.6,9.7 42.6,9.7 42.6,9.7 42.6,9.8 42.6,9.8 
					42.7,9.7 42.7,9.8 42.7,9.8 42.7,9.7 42.7,9.8 42.7,9.8 				"/>
			</g>
		</g>
		<g>
			<polygon class="st7" points="45.6,10.6 53.1,7.6 58.6,9.8 51.2,12.8 			"/>
			<linearGradient id="SVGID_3_" gradientUnits="userSpaceOnUse" x1="55.5416" y1="15.947" x2="54.9045" y2="13.69">
				<stop  offset="0" style="stop-color:#927042"/>
				<stop  offset="5.780447e-02" style="stop-color:#957343"/>
				<stop  offset="0.6413" style="stop-color:#AD8B4E"/>
				<stop  offset="1" style="stop-color:#B69452"/>
			</linearGradient>
			<polygon class="st13" points="58.6,14.6 51.2,17.6 51.2,12.8 58.6,9.8 			"/>
			<linearGradient id="SVGID_4_" gradientUnits="userSpaceOnUse" x1="49.2254" y1="12.0058" x2="47.5837" y2="16.2059">
				<stop  offset="0" style="stop-color:#D2AD76"/>
				<stop  offset="0.5898" style="stop-color:#BD9B65"/>
				<stop  offset="1" style="stop-color:#B4935E"/>
			</linearGradient>
			<polygon class="st14" points="51.2,17.6 45.6,15.4 45.6,10.6 51.2,12.8 			"/>
			<g>
				<path class="st10" d="M48,12.5c-0.1,0-0.2-0.2-0.2-0.3c0,0,0-0.1,0-0.1c-0.1,0-0.1,0.1-0.1,0.1C47.7,12.4,47.8,12.5,48,12.5
					l0.6,0.3c0.1,0,0.1,0,0.1,0c0,0,0,0-0.1,0L48,12.5z"/>
				<path class="st11" d="M48.6,12.4l-0.7-0.3c0,0,0,0-0.1,0c0,0,0,0.1,0,0.1c0,0.1,0.1,0.2,0.2,0.3l0.7,0.3c0,0,0,0,0.1,0
					c0,0,0-0.1,0-0.1C48.7,12.6,48.7,12.4,48.6,12.4z"/>
			</g>
			<polygon class="st12" points="48,11.5 55.4,8.5 56.1,8.8 48.6,11.8 			"/>
			<g>
				<polygon class="st12" points="48.6,11.8 48,11.5 48,11.9 48,11.9 48,12 48,12 48.1,11.9 48.1,12 48.1,12 48.1,11.9 48.1,12 
					48.1,12 48.2,12 48.2,12 48.2,12 48.2,12 48.2,12 48.2,12 48.3,12 48.3,12.1 48.3,12.1 48.3,12 48.3,12.1 48.3,12.1 48.4,12 
					48.4,12.1 48.4,12.1 48.4,12.1 48.4,12.1 48.4,12.1 48.5,12.1 48.5,12.1 48.5,12.1 48.5,12.1 48.5,12.2 48.5,12.2 48.6,12.1 
					48.6,12.2 48.6,12.2 48.6,12.1 48.6,12.2 48.6,12.2 				"/>
			</g>
		</g>
		<g>
			<polygon class="st7" points="31.9,11.3 39.3,8.3 44.9,10.5 37.4,13.5 			"/>
			<linearGradient id="SVGID_5_" gradientUnits="userSpaceOnUse" x1="41.7486" y1="16.7113" x2="41.1114" y2="14.4543">
				<stop  offset="0" style="stop-color:#927042"/>
				<stop  offset="5.780447e-02" style="stop-color:#957343"/>
				<stop  offset="0.6413" style="stop-color:#AD8B4E"/>
				<stop  offset="1" style="stop-color:#B69452"/>
			</linearGradient>
			<polygon class="st15" points="44.9,15.4 37.4,18.4 37.4,13.5 44.9,10.5 			"/>
			<linearGradient id="SVGID_6_" gradientUnits="userSpaceOnUse" x1="35.4324" y1="12.7697" x2="33.7906" y2="16.9701">
				<stop  offset="0" style="stop-color:#D2AD76"/>
				<stop  offset="0.5898" style="stop-color:#BD9B65"/>
				<stop  offset="1" style="stop-color:#B4935E"/>
			</linearGradient>
			<polygon class="st16" points="37.4,18.4 31.9,16.2 31.9,11.3 37.4,13.5 			"/>
			<g>
				<path class="st10" d="M34.2,13.3c-0.1,0-0.2-0.2-0.2-0.3c0,0,0-0.1,0-0.1c-0.1,0-0.1,0.1-0.1,0.1C33.9,13.1,34,13.3,34.2,13.3
					l0.6,0.3c0.1,0,0.1,0,0.1,0c0,0,0,0-0.1,0L34.2,13.3z"/>
				<path class="st11" d="M34.8,13.2l-0.7-0.3c0,0,0,0-0.1,0c0,0,0,0.1,0,0.1c0,0.1,0.1,0.2,0.2,0.3l0.7,0.3c0,0,0,0,0.1,0
					c0,0,0-0.1,0-0.1C34.9,13.3,34.9,13.2,34.8,13.2z"/>
			</g>
			<polygon class="st12" points="34.2,12.3 41.7,9.3 42.3,9.5 34.9,12.5 			"/>
			<g>
				<polygon class="st12" points="34.9,12.5 34.2,12.3 34.2,12.7 34.2,12.7 34.2,12.7 34.2,12.7 34.3,12.7 34.3,12.7 34.3,12.7 
					34.3,12.7 34.3,12.8 34.3,12.8 34.4,12.7 34.4,12.8 34.4,12.8 34.4,12.7 34.4,12.8 34.4,12.8 34.5,12.8 34.5,12.8 34.5,12.8 
					34.5,12.8 34.5,12.8 34.5,12.8 34.6,12.8 34.6,12.9 34.6,12.9 34.6,12.8 34.6,12.9 34.6,12.9 34.7,12.8 34.7,12.9 34.7,12.9 
					34.7,12.9 34.7,12.9 34.7,12.9 34.8,12.9 34.8,12.9 34.8,12.9 34.8,12.9 34.9,13 34.9,13 				"/>
			</g>
		</g>
		<g>
			<polygon class="st7" points="37.8,13.7 45.2,10.7 50.8,12.9 43.3,15.9 			"/>
			<linearGradient id="SVGID_7_" gradientUnits="userSpaceOnUse" x1="47.6602" y1="19.1128" x2="47.0231" y2="16.8558">
				<stop  offset="0" style="stop-color:#927042"/>
				<stop  offset="5.780447e-02" style="stop-color:#957343"/>
				<stop  offset="0.6413" style="stop-color:#AD8B4E"/>
				<stop  offset="1" style="stop-color:#B69452"/>
			</linearGradient>
			<polygon class="st17" points="50.8,17.8 43.3,20.8 43.3,15.9 50.8,12.9 			"/>
			<linearGradient id="SVGID_8_" gradientUnits="userSpaceOnUse" x1="41.3441" y1="15.1715" x2="39.7023" y2="19.3717">
				<stop  offset="0" style="stop-color:#D2AD76"/>
				<stop  offset="0.5898" style="stop-color:#BD9B65"/>
				<stop  offset="1" style="stop-color:#B4935E"/>
			</linearGradient>
			<polygon class="st18" points="43.3,20.8 37.8,18.6 37.8,13.7 43.3,15.9 			"/>
			<g>
				<path class="st10" d="M40.1,15.7c-0.1,0-0.2-0.2-0.2-0.3c0,0,0-0.1,0-0.1c-0.1,0-0.1,0.1-0.1,0.1C39.8,15.5,39.9,15.7,40.1,15.7
					l0.6,0.3c0.1,0,0.1,0,0.1,0c0,0,0,0-0.1,0L40.1,15.7z"/>
				<path class="st11" d="M40.7,15.6L40,15.3c0,0,0,0-0.1,0c0,0,0,0.1,0,0.1c0,0.1,0.1,0.2,0.2,0.3l0.7,0.3c0,0,0,0,0.1,0
					c0,0,0-0.1,0-0.1C40.9,15.7,40.8,15.6,40.7,15.6z"/>
			</g>
			<polygon class="st12" points="40.1,14.7 47.6,11.7 48.2,11.9 40.8,14.9 			"/>
			<g>
				<polygon class="st12" points="40.8,14.9 40.1,14.7 40.1,15.1 40.1,15.1 40.1,15.1 40.1,15.1 40.2,15.1 40.2,15.1 40.2,15.1 
					40.2,15.1 40.2,15.2 40.2,15.2 40.3,15.1 40.3,15.2 40.3,15.2 40.3,15.1 40.4,15.2 40.4,15.2 40.4,15.2 40.4,15.2 40.4,15.2 
					40.4,15.2 40.5,15.2 40.5,15.2 40.5,15.2 40.5,15.3 40.5,15.3 40.5,15.2 40.6,15.3 40.6,15.3 40.6,15.2 40.6,15.3 40.6,15.3 
					40.6,15.3 40.7,15.3 40.7,15.3 40.7,15.3 40.7,15.3 40.7,15.3 40.7,15.3 40.8,15.4 40.8,15.4 				"/>
			</g>
		</g>
		<g>
			<polygon class="st7" points="23.9,14.5 31.4,11.5 36.9,13.7 29.5,16.7 			"/>
			<linearGradient id="SVGID_9_" gradientUnits="userSpaceOnUse" x1="33.8378" y1="19.9163" x2="33.2006" y2="17.6593">
				<stop  offset="0" style="stop-color:#927042"/>
				<stop  offset="5.780447e-02" style="stop-color:#957343"/>
				<stop  offset="0.6413" style="stop-color:#AD8B4E"/>
				<stop  offset="1" style="stop-color:#B69452"/>
			</linearGradient>
			<polygon class="st19" points="36.9,18.6 29.5,21.6 29.5,16.7 36.9,13.7 			"/>
			<linearGradient id="SVGID_10_" gradientUnits="userSpaceOnUse" x1="27.5216" y1="15.9751" x2="25.8799" y2="20.1752">
				<stop  offset="0" style="stop-color:#D2AD76"/>
				<stop  offset="0.5898" style="stop-color:#BD9B65"/>
				<stop  offset="1" style="stop-color:#B4935E"/>
			</linearGradient>
			<polygon class="st20" points="29.5,21.6 23.9,19.4 23.9,14.5 29.5,16.7 			"/>
			<g>
				<path class="st10" d="M26.3,16.5c-0.1,0-0.2-0.2-0.2-0.3c0,0,0-0.1,0-0.1c-0.1,0-0.1,0.1-0.1,0.1C26,16.4,26.1,16.5,26.3,16.5
					l0.6,0.3c0.1,0,0.1,0,0.1,0c0,0,0,0-0.1,0L26.3,16.5z"/>
				<path class="st11" d="M26.9,16.4l-0.7-0.3c0,0,0,0-0.1,0c0,0,0,0.1,0,0.1c0,0.1,0.1,0.2,0.2,0.3l0.7,0.3c0,0,0,0,0.1,0
					c0,0,0-0.1,0-0.1C27,16.5,27,16.4,26.9,16.4z"/>
			</g>
			<polygon class="st12" points="26.3,15.5 33.7,12.5 34.4,12.7 26.9,15.7 			"/>
			<g>
				<polygon class="st12" points="26.9,15.7 26.3,15.5 26.3,15.9 26.3,15.9 26.3,15.9 26.3,15.9 26.3,15.9 26.4,15.9 26.4,15.9 
					26.4,15.9 26.4,16 26.4,16 26.5,15.9 26.5,16 26.5,16 26.5,15.9 26.5,16 26.5,16 26.6,16 26.6,16 26.6,16 26.6,16 26.6,16 
					26.6,16 26.7,16 26.7,16.1 26.7,16.1 26.7,16 26.7,16.1 26.7,16.1 26.8,16 26.8,16.1 26.8,16.1 26.8,16.1 26.8,16.1 26.8,16.1 
					26.9,16.1 26.9,16.1 26.9,16.1 26.9,16.1 26.9,16.2 26.9,16.2 				"/>
			</g>
		</g>
		<g>
			<polygon class="st7" points="29.9,16.9 37.3,13.9 42.9,16.1 35.4,19.1 			"/>
			<linearGradient id="SVGID_11_" gradientUnits="userSpaceOnUse" x1="39.7494" y1="22.3182" x2="39.1123" y2="20.0612">
				<stop  offset="0" style="stop-color:#927042"/>
				<stop  offset="5.780447e-02" style="stop-color:#957343"/>
				<stop  offset="0.6413" style="stop-color:#AD8B4E"/>
				<stop  offset="1" style="stop-color:#B69452"/>
			</linearGradient>
			<polygon class="st21" points="42.9,21 35.4,24 35.4,19.1 42.9,16.1 			"/>
			<linearGradient id="SVGID_12_" gradientUnits="userSpaceOnUse" x1="33.4333" y1="18.377" x2="31.7916" y2="22.5771">
				<stop  offset="0" style="stop-color:#D2AD76"/>
				<stop  offset="0.5898" style="stop-color:#BD9B65"/>
				<stop  offset="1" style="stop-color:#B4935E"/>
			</linearGradient>
			<polygon class="st22" points="35.4,24 29.9,21.8 29.9,16.9 35.4,19.1 			"/>
			<g>
				<path class="st10" d="M32.2,18.9c-0.1,0-0.2-0.2-0.2-0.3c0,0,0-0.1,0-0.1c-0.1,0-0.1,0.1-0.1,0.1C31.9,18.8,32,18.9,32.2,18.9
					l0.6,0.3c0.1,0,0.1,0,0.1,0c0,0,0,0-0.1,0L32.2,18.9z"/>
				<path class="st11" d="M32.8,18.8l-0.7-0.3c0,0,0,0-0.1,0c0,0,0,0.1,0,0.1c0,0.1,0.1,0.2,0.2,0.3l0.7,0.3c0,0,0,0,0.1,0
					c0,0,0-0.1,0-0.1C32.9,18.9,32.9,18.8,32.8,18.8z"/>
			</g>
			<polygon class="st12" points="32.2,17.9 39.7,14.9 40.3,15.1 32.9,18.1 			"/>
			<g>
				<polygon class="st12" points="32.9,18.1 32.2,17.9 32.2,18.3 32.2,18.3 32.2,18.3 32.2,18.3 32.3,18.3 32.3,18.3 32.3,18.3 
					32.3,18.3 32.3,18.4 32.3,18.4 32.4,18.3 32.4,18.4 32.4,18.4 32.4,18.3 32.4,18.4 32.4,18.4 32.5,18.4 32.5,18.4 32.5,18.4 
					32.5,18.4 32.5,18.4 32.5,18.4 32.6,18.4 32.6,18.5 32.6,18.5 32.6,18.4 32.6,18.5 32.6,18.5 32.7,18.4 32.7,18.5 32.7,18.5 
					32.7,18.5 32.7,18.5 32.7,18.5 32.8,18.5 32.8,18.5 32.8,18.5 32.8,18.5 32.9,18.6 32.9,18.6 				"/>
			</g>
		</g>
		<g>
			<polygon class="st7" points="39.7,3 47.2,0 52.7,2.2 45.3,5.2 			"/>
			<linearGradient id="SVGID_13_" gradientUnits="userSpaceOnUse" x1="49.6301" y1="8.3873" x2="48.993" y2="6.1305">
				<stop  offset="0" style="stop-color:#927042"/>
				<stop  offset="5.780447e-02" style="stop-color:#957343"/>
				<stop  offset="0.6413" style="stop-color:#AD8B4E"/>
				<stop  offset="1" style="stop-color:#B69452"/>
			</linearGradient>
			<polygon class="st23" points="52.7,7.1 45.3,10.1 45.3,5.2 52.7,2.2 			"/>
			<linearGradient id="SVGID_14_" gradientUnits="userSpaceOnUse" x1="43.3139" y1="4.4461" x2="41.6722" y2="8.6462">
				<stop  offset="0" style="stop-color:#D2AD76"/>
				<stop  offset="0.5898" style="stop-color:#BD9B65"/>
				<stop  offset="1" style="stop-color:#B4935E"/>
			</linearGradient>
			<polygon class="st24" points="45.3,10.1 39.7,7.9 39.7,3 45.3,5.2 			"/>
			<g>
				<path class="st10" d="M42.1,4.9c-0.1,0-0.2-0.2-0.2-0.3c0,0,0-0.1,0-0.1c-0.1,0-0.1,0.1-0.1,0.1C41.8,4.8,41.9,4.9,42.1,4.9
					l0.6,0.3c0.1,0,0.1,0,0.1,0c0,0,0,0-0.1,0L42.1,4.9z"/>
				<path class="st11" d="M42.7,4.8L42,4.6c0,0,0,0-0.1,0c0,0,0,0.1,0,0.1c0,0.1,0.1,0.2,0.2,0.3l0.7,0.3c0,0,0,0,0.1,0
					c0,0,0-0.1,0-0.1C42.8,5,42.8,4.9,42.7,4.8z"/>
			</g>
			<polygon class="st12" points="42.1,3.9 49.5,0.9 50.2,1.2 42.7,4.2 			"/>
			<g>
				<polygon class="st12" points="42.7,4.2 42.1,3.9 42.1,4.4 42.1,4.3 42.1,4.4 42.1,4.4 42.1,4.4 42.2,4.4 42.2,4.4 42.2,4.4 
					42.2,4.4 42.2,4.4 42.2,4.4 42.3,4.5 42.3,4.5 42.3,4.4 42.3,4.5 42.3,4.5 42.3,4.4 42.4,4.5 42.4,4.5 42.4,4.5 42.4,4.5 
					42.4,4.5 42.5,4.5 42.5,4.5 42.5,4.5 42.5,4.5 42.5,4.6 42.5,4.6 42.6,4.5 42.6,4.6 42.6,4.6 42.6,4.5 42.6,4.6 42.6,4.6 
					42.7,4.6 42.7,4.6 42.7,4.6 42.7,4.6 42.7,4.6 42.7,4.6 				"/>
			</g>
		</g>
		<g>
			<polygon class="st7" points="45.6,5.4 53.1,2.4 58.6,4.6 51.2,7.6 			"/>
			<linearGradient id="SVGID_15_" gradientUnits="userSpaceOnUse" x1="55.5416" y1="10.789" x2="54.9045" y2="8.5321">
				<stop  offset="0" style="stop-color:#927042"/>
				<stop  offset="5.780447e-02" style="stop-color:#957343"/>
				<stop  offset="0.6413" style="stop-color:#AD8B4E"/>
				<stop  offset="1" style="stop-color:#B69452"/>
			</linearGradient>
			<polygon class="st25" points="58.6,9.5 51.2,12.5 51.2,7.6 58.6,4.6 			"/>
			<linearGradient id="SVGID_16_" gradientUnits="userSpaceOnUse" x1="49.2254" y1="6.8479" x2="47.5838" y2="11.0479">
				<stop  offset="0" style="stop-color:#D2AD76"/>
				<stop  offset="0.5898" style="stop-color:#BD9B65"/>
				<stop  offset="1" style="stop-color:#B4935E"/>
			</linearGradient>
			<polygon class="st26" points="51.2,12.5 45.6,10.3 45.6,5.4 51.2,7.6 			"/>
			<g>
				<path class="st10" d="M48,7.3c-0.1,0-0.2-0.2-0.2-0.3c0,0,0-0.1,0-0.1c-0.1,0-0.1,0.1-0.1,0.1C47.7,7.2,47.8,7.3,48,7.3l0.6,0.3
					c0.1,0,0.1,0,0.1,0c0,0,0,0-0.1,0L48,7.3z"/>
				<path class="st11" d="M48.6,7.2L47.9,7c0,0,0,0-0.1,0c0,0,0,0.1,0,0.1c0,0.1,0.1,0.2,0.2,0.3l0.7,0.3c0,0,0,0,0.1,0
					c0,0,0-0.1,0-0.1C48.7,7.4,48.7,7.3,48.6,7.2z"/>
			</g>
			<polygon class="st12" points="48,6.3 55.4,3.3 56.1,3.6 48.6,6.6 			"/>
			<g>
				<polygon class="st12" points="48.6,6.6 48,6.3 48,6.8 48,6.7 48,6.8 48,6.8 48.1,6.8 48.1,6.8 48.1,6.8 48.1,6.8 48.1,6.8 
					48.1,6.8 48.2,6.8 48.2,6.9 48.2,6.9 48.2,6.8 48.2,6.9 48.2,6.9 48.3,6.8 48.3,6.9 48.3,6.9 48.3,6.9 48.3,6.9 48.3,6.9 
					48.4,6.9 48.4,6.9 48.4,6.9 48.4,6.9 48.4,7 48.4,7 48.5,6.9 48.5,7 48.5,7 48.5,6.9 48.5,7 48.5,7 48.6,7 48.6,7 48.6,7 
					48.6,7 48.6,7 48.6,7 				"/>
			</g>
		</g>
		<g>
			<polygon class="st7" points="31.9,6.2 39.3,3.2 44.9,5.4 37.4,8.4 			"/>
			<linearGradient id="SVGID_17_" gradientUnits="userSpaceOnUse" x1="41.7486" y1="11.553" x2="41.1114" y2="9.2959">
				<stop  offset="0" style="stop-color:#927042"/>
				<stop  offset="5.780447e-02" style="stop-color:#957343"/>
				<stop  offset="0.6413" style="stop-color:#AD8B4E"/>
				<stop  offset="1" style="stop-color:#B69452"/>
			</linearGradient>
			<polygon class="st27" points="44.9,10.2 37.4,13.2 37.4,8.4 44.9,5.4 			"/>
			<linearGradient id="SVGID_18_" gradientUnits="userSpaceOnUse" x1="35.4324" y1="7.6118" x2="33.7907" y2="11.8119">
				<stop  offset="0" style="stop-color:#D2AD76"/>
				<stop  offset="0.5898" style="stop-color:#BD9B65"/>
				<stop  offset="1" style="stop-color:#B4935E"/>
			</linearGradient>
			<polygon class="st28" points="37.4,13.2 31.9,11 31.9,6.2 37.4,8.4 			"/>
			<g>
				<path class="st10" d="M34.2,8.1C34.1,8.1,34,8,34,7.8c0,0,0-0.1,0-0.1c-0.1,0-0.1,0.1-0.1,0.1C33.9,8,34,8.1,34.2,8.1l0.6,0.3
					c0.1,0,0.1,0,0.1,0c0,0,0,0-0.1,0L34.2,8.1z"/>
				<path class="st11" d="M34.8,8l-0.7-0.3c0,0,0,0-0.1,0c0,0,0,0.1,0,0.1c0,0.1,0.1,0.2,0.2,0.3l0.7,0.3c0,0,0,0,0.1,0
					c0,0,0-0.1,0-0.1C34.9,8.2,34.9,8,34.8,8z"/>
			</g>
			<polygon class="st12" points="34.2,7.1 41.7,4.1 42.3,4.4 34.9,7.4 			"/>
			<g>
				<polygon class="st12" points="34.9,7.4 34.2,7.1 34.2,7.5 34.2,7.5 34.2,7.6 34.2,7.6 34.3,7.5 34.3,7.6 34.3,7.6 34.3,7.5 
					34.3,7.6 34.3,7.6 34.4,7.6 34.4,7.6 34.4,7.6 34.4,7.6 34.4,7.6 34.4,7.6 34.5,7.6 34.5,7.7 34.5,7.7 34.5,7.6 34.5,7.7 
					34.5,7.7 34.6,7.6 34.6,7.7 34.6,7.7 34.6,7.7 34.6,7.7 34.6,7.7 34.7,7.7 34.7,7.7 34.7,7.7 34.7,7.7 34.7,7.8 34.7,7.8 
					34.8,7.7 34.8,7.8 34.8,7.8 34.8,7.7 34.9,7.8 34.9,7.8 				"/>
			</g>
		</g>
		<g>
			<polygon class="st7" points="37.8,8.6 45.2,5.6 50.8,7.8 43.3,10.8 			"/>
			<linearGradient id="SVGID_19_" gradientUnits="userSpaceOnUse" x1="47.6602" y1="13.9549" x2="47.0231" y2="11.6979">
				<stop  offset="0" style="stop-color:#927042"/>
				<stop  offset="5.780447e-02" style="stop-color:#957343"/>
				<stop  offset="0.6413" style="stop-color:#AD8B4E"/>
				<stop  offset="1" style="stop-color:#B69452"/>
			</linearGradient>
			<polygon class="st29" points="50.8,12.6 43.3,15.6 43.3,10.8 50.8,7.8 			"/>
			<linearGradient id="SVGID_20_" gradientUnits="userSpaceOnUse" x1="41.344" y1="10.0138" x2="39.7024" y2="14.2138">
				<stop  offset="0" style="stop-color:#D2AD76"/>
				<stop  offset="0.5898" style="stop-color:#BD9B65"/>
				<stop  offset="1" style="stop-color:#B4935E"/>
			</linearGradient>
			<polygon class="st30" points="43.3,15.6 37.8,13.4 37.8,8.6 43.3,10.8 			"/>
			<g>
				<path class="st10" d="M40.1,10.5c-0.1,0-0.2-0.2-0.2-0.3c0,0,0-0.1,0-0.1c-0.1,0-0.1,0.1-0.1,0.1C39.8,10.4,39.9,10.5,40.1,10.5
					l0.6,0.3c0.1,0,0.1,0,0.1,0c0,0,0,0-0.1,0L40.1,10.5z"/>
				<path class="st11" d="M40.7,10.4L40,10.1c0,0,0,0-0.1,0c0,0,0,0.1,0,0.1c0,0.1,0.1,0.2,0.2,0.3l0.7,0.3c0,0,0,0,0.1,0
					c0,0,0-0.1,0-0.1C40.9,10.6,40.8,10.4,40.7,10.4z"/>
			</g>
			<polygon class="st12" points="40.1,9.5 47.6,6.5 48.2,6.8 40.8,9.8 			"/>
			<g>
				<polygon class="st12" points="40.8,9.8 40.1,9.5 40.1,9.9 40.1,9.9 40.1,10 40.1,10 40.2,9.9 40.2,10 40.2,10 40.2,9.9 40.2,10 
					40.2,10 40.3,10 40.3,10 40.3,10 40.3,10 40.4,10 40.4,10 40.4,10 40.4,10.1 40.4,10.1 40.4,10 40.5,10.1 40.5,10.1 40.5,10 
					40.5,10.1 40.5,10.1 40.5,10.1 40.6,10.1 40.6,10.1 40.6,10.1 40.6,10.1 40.6,10.1 40.6,10.1 40.7,10.2 40.7,10.2 40.7,10.1 
					40.7,10.2 40.7,10.2 40.7,10.1 40.8,10.2 40.8,10.2 				"/>
			</g>
		</g>
		<g>
			<polygon class="st7" points="23.9,9.4 31.4,6.4 36.9,8.6 29.5,11.6 			"/>
			<linearGradient id="SVGID_21_" gradientUnits="userSpaceOnUse" x1="33.8377" y1="14.7584" x2="33.2006" y2="12.5014">
				<stop  offset="0" style="stop-color:#927042"/>
				<stop  offset="5.780447e-02" style="stop-color:#957343"/>
				<stop  offset="0.6413" style="stop-color:#AD8B4E"/>
				<stop  offset="1" style="stop-color:#B69452"/>
			</linearGradient>
			<polygon class="st31" points="36.9,13.4 29.5,16.4 29.5,11.6 36.9,8.6 			"/>
			<linearGradient id="SVGID_22_" gradientUnits="userSpaceOnUse" x1="27.5216" y1="10.8171" x2="25.8799" y2="15.0173">
				<stop  offset="0" style="stop-color:#D2AD76"/>
				<stop  offset="0.5898" style="stop-color:#BD9B65"/>
				<stop  offset="1" style="stop-color:#B4935E"/>
			</linearGradient>
			<polygon class="st32" points="29.5,16.4 23.9,14.2 23.9,9.4 29.5,11.6 			"/>
			<g>
				<path class="st10" d="M26.3,11.3c-0.1,0-0.2-0.2-0.2-0.3c0,0,0-0.1,0-0.1c-0.1,0-0.1,0.1-0.1,0.1C26,11.2,26.1,11.3,26.3,11.3
					l0.6,0.3c0.1,0,0.1,0,0.1,0c0,0,0,0-0.1,0L26.3,11.3z"/>
				<path class="st11" d="M26.9,11.2l-0.7-0.3c0,0,0,0-0.1,0c0,0,0,0.1,0,0.1c0,0.1,0.1,0.2,0.2,0.3l0.7,0.3c0,0,0,0,0.1,0
					c0,0,0-0.1,0-0.1C27,11.4,27,11.2,26.9,11.2z"/>
			</g>
			<polygon class="st12" points="26.3,10.3 33.7,7.3 34.4,7.6 26.9,10.6 			"/>
			<g>
				<polygon class="st12" points="26.9,10.6 26.3,10.3 26.3,10.7 26.3,10.7 26.3,10.8 26.3,10.8 26.3,10.7 26.4,10.8 26.4,10.8 
					26.4,10.7 26.4,10.8 26.4,10.8 26.5,10.8 26.5,10.8 26.5,10.8 26.5,10.8 26.5,10.8 26.5,10.8 26.6,10.8 26.6,10.9 26.6,10.9 
					26.6,10.8 26.6,10.9 26.6,10.9 26.7,10.9 26.7,10.9 26.7,10.9 26.7,10.9 26.7,10.9 26.7,10.9 26.8,10.9 26.8,10.9 26.8,10.9 
					26.8,10.9 26.8,11 26.8,11 26.9,10.9 26.9,11 26.9,11 26.9,11 26.9,11 26.9,11 				"/>
			</g>
		</g>
		<g>
			<polygon class="st7" points="29.9,11.8 37.3,8.8 42.9,11 35.4,14 			"/>
			<linearGradient id="SVGID_23_" gradientUnits="userSpaceOnUse" x1="39.7494" y1="17.1604" x2="39.1123" y2="14.9033">
				<stop  offset="0" style="stop-color:#927042"/>
				<stop  offset="5.780447e-02" style="stop-color:#957343"/>
				<stop  offset="0.6413" style="stop-color:#AD8B4E"/>
				<stop  offset="1" style="stop-color:#B69452"/>
			</linearGradient>
			<polygon class="st33" points="42.9,15.8 35.4,18.8 35.4,14 42.9,11 			"/>
			<linearGradient id="SVGID_24_" gradientUnits="userSpaceOnUse" x1="33.4334" y1="13.2187" x2="31.7915" y2="17.4193">
				<stop  offset="0" style="stop-color:#D2AD76"/>
				<stop  offset="0.5898" style="stop-color:#BD9B65"/>
				<stop  offset="1" style="stop-color:#B4935E"/>
			</linearGradient>
			<polygon class="st34" points="35.4,18.8 29.9,16.6 29.9,11.8 35.4,14 			"/>
			<g>
				<path class="st10" d="M32.2,13.7c-0.1,0-0.2-0.2-0.2-0.3c0,0,0-0.1,0-0.1c-0.1,0-0.1,0.1-0.1,0.1C31.9,13.6,32,13.7,32.2,13.7
					l0.6,0.3c0.1,0,0.1,0,0.1,0c0,0,0,0-0.1,0L32.2,13.7z"/>
				<path class="st11" d="M32.8,13.6l-0.7-0.3c0,0,0,0-0.1,0c0,0,0,0.1,0,0.1c0,0.1,0.1,0.2,0.2,0.3l0.7,0.3c0,0,0,0,0.1,0
					c0,0,0-0.1,0-0.1C32.9,13.8,32.9,13.7,32.8,13.6z"/>
			</g>
			<polygon class="st12" points="32.2,12.7 39.7,9.7 40.3,10 32.9,13 			"/>
			<g>
				<polygon class="st12" points="32.9,13 32.2,12.7 32.2,13.1 32.2,13.1 32.2,13.2 32.2,13.2 32.3,13.1 32.3,13.2 32.3,13.2 
					32.3,13.2 32.3,13.2 32.3,13.2 32.4,13.2 32.4,13.2 32.4,13.2 32.4,13.2 32.4,13.2 32.4,13.2 32.5,13.2 32.5,13.3 32.5,13.3 
					32.5,13.2 32.5,13.3 32.5,13.3 32.6,13.3 32.6,13.3 32.6,13.3 32.6,13.3 32.6,13.3 32.6,13.3 32.7,13.3 32.7,13.3 32.7,13.3 
					32.7,13.3 32.7,13.4 32.7,13.4 32.8,13.3 32.8,13.4 32.8,13.4 32.8,13.4 32.9,13.4 32.9,13.4 				"/>
			</g>
		</g>
		<g>
			<path class="st35" d="M3.5,19.6l-2.7,0.3l0,0c0,0,0,0,0,0c0,0,0,0,0-0.1v-0.2L1,19.7c0.1,0,0.2-0.1,0.2-0.2v-2.9
				c0-0.2-0.1-0.4-0.2-0.4L0.2,16C0.1,15.9,0,16,0,16.2v2.9c0,0.2,0.1,0.4,0.2,0.4l0.2,0.1v0.3c0,0.2,0.1,0.3,0.2,0.4
				c0.1,0,0.1,0.1,0.2,0.1c0,0,0.1,0,0.1,0l2.7-0.3L3.5,19.6z"/>
			<polygon class="st36" points="60.9,20.1 24.5,34.8 24.5,27.6 60.9,13 			"/>
			<polygon class="st36" points="58.8,21.8 22.4,36.4 22.4,28.4 58.8,13.8 			"/>
			<polygon class="st37" points="30.3,34.7 26.9,33.3 25.7,27.9 29.2,29.3 			"/>
			<polygon class="st3" points="59.7,21.6 59.4,21.7 56.2,20.2 54.3,16.7 57.7,18.1 			"/>
			<polygon class="st38" points="59.4,21.7 56,20.3 54.1,16.7 57.5,18.1 			"/>
			<g>
				<g>
					
						<linearGradient id="SVGID_25_" gradientUnits="userSpaceOnUse" x1="-6.302" y1="31.155" x2="-8.743" y2="39.5109" gradientTransform="matrix(1 0 -6.470000e-02 1 34.4311 0)">
						<stop  offset="0" style="stop-color:#475260"/>
						<stop  offset="2.578374e-02" style="stop-color:#545F6C"/>
						<stop  offset="0.1025" style="stop-color:#75808B"/>
						<stop  offset="0.1758" style="stop-color:#8D98A2"/>
						<stop  offset="0.2434" style="stop-color:#9CA6AF"/>
						<stop  offset="0.3" style="stop-color:#A1ABB4"/>
						<stop  offset="0.3652" style="stop-color:#949FA9"/>
						<stop  offset="0.4862" style="stop-color:#717E8B"/>
						<stop  offset="0.6483" style="stop-color:#3A4A5B"/>
						<stop  offset="0.7" style="stop-color:#27384B"/>
						<stop  offset="0.8195" style="stop-color:#293A4D"/>
						<stop  offset="0.8784" style="stop-color:#314154"/>
						<stop  offset="0.924" style="stop-color:#3E4E5F"/>
						<stop  offset="0.9626" style="stop-color:#505F6F"/>
						<stop  offset="0.9968" style="stop-color:#687684"/>
						<stop  offset="1" style="stop-color:#6B7886"/>
					</linearGradient>
					<path class="st39" d="M28.9,34.2c-0.2-1.5-1-2.5-2-2.8v0l-1.6-0.6v0c-0.6-0.2-1.3-0.2-2.1,0.1c-1.9,0.8-3.2,3.2-2.9,5.5
						c0.2,1.4,0.9,2.4,1.8,2.7l0,0l0.1,0c0,0,0,0,0,0l1.8,0.7l0,0c0.6,0.2,1.3,0.2,2-0.1C27.9,39,29.2,36.5,28.9,34.2z"/>
					<path class="st40" d="M28.7,34.3c0.3,2.1-0.9,4.4-2.7,5.1c-1.7,0.7-3.3-0.4-3.6-2.5c-0.3-2.1,0.9-4.4,2.7-5.1
						C26.8,31.1,28.4,32.3,28.7,34.3z"/>
					<path class="st41" d="M28.4,34.5c0.2,1.8-0.8,3.8-2.3,4.4c-1.5,0.6-2.9-0.3-3.1-2.2c-0.2-1.8,0.8-3.8,2.3-4.4
						C26.7,31.7,28.1,32.7,28.4,34.5z"/>
					<path class="st0" d="M28.2,34.6c0.2,1.7-0.8,3.6-2.2,4.1c-1.4,0.6-2.7-0.3-2.9-2c-0.2-1.7,0.8-3.6,2.2-4.1
						C26.7,32,28,32.9,28.2,34.6z"/>
					<path class="st40" d="M28.1,34.6c0.2,1.6-0.7,3.4-2.1,4c-1.3,0.6-2.6-0.3-2.8-1.9c-0.2-1.6,0.7-3.4,2.1-4
						C26.6,32.1,27.9,33,28.1,34.6z"/>
					<path class="st41" d="M27.9,34.7c0.2,1.5-0.7,3.2-1.9,3.7c-1.2,0.5-2.4-0.3-2.6-1.8c-0.2-1.5,0.7-3.2,1.9-3.7
						C26.6,32.3,27.7,33.2,27.9,34.7z"/>
					
						<linearGradient id="SVGID_26_" gradientUnits="userSpaceOnUse" x1="-9.3447" y1="34.1106" x2="-9.6747" y2="35.9621" gradientTransform="matrix(1 0 -6.470000e-02 1 34.4311 0)">
						<stop  offset="0" style="stop-color:#37414D"/>
						<stop  offset="1" style="stop-color:#131620"/>
					</linearGradient>
					<path class="st42" d="M25.6,30.9c0,0,0,0-0.1,0c-0.1,0-0.2-0.1-0.4-0.1c-0.2,0-0.4,0-0.6,0c-0.2,0-0.5,0.1-0.7,0.2
						c-0.1,0-0.1,0.1-0.2,0.1c-0.1,0-0.1,0.1-0.2,0.1c-0.1,0.1-0.3,0.2-0.4,0.2c-0.3,0.2-0.5,0.4-0.8,0.7c-0.2,0.3-0.4,0.6-0.6,0.9
						c-0.2,0.3-0.3,0.7-0.4,1c-0.1,0.4-0.2,0.7-0.3,1.1c-0.1,0.4-0.1,0.7,0,1.1c0,0.7,0.2,1.3,0.4,1.8c0.1,0.2,0.2,0.5,0.4,0.6
						c0.1,0.2,0.3,0.3,0.4,0.4c0.1,0.1,0.2,0.2,0.3,0.2c0,0,0.1,0,0.1,0c0,0,0,0,0,0s0,0,0,0c0,0-0.1,0-0.1,0
						c-0.1,0-0.2-0.1-0.3-0.2c-0.1-0.1-0.3-0.2-0.4-0.4c-0.1-0.2-0.3-0.4-0.4-0.6c-0.1-0.2-0.2-0.5-0.3-0.8c-0.1-0.3-0.1-0.6-0.2-1
						c0-0.3,0-0.7,0-1.1c0-0.4,0.1-0.7,0.3-1.1c0.1-0.4,0.3-0.7,0.5-1c0.2-0.3,0.4-0.6,0.6-0.9c0.2-0.3,0.5-0.5,0.8-0.7
						c0.1-0.1,0.3-0.2,0.4-0.2c0.1,0,0.1-0.1,0.2-0.1c0.1,0,0.1-0.1,0.2-0.1c0.3-0.1,0.5-0.2,0.8-0.2c0.2,0,0.4,0,0.6,0
						c0.2,0,0.3,0.1,0.4,0.1C25.5,30.9,25.6,30.9,25.6,30.9L25.6,30.9z"/>
					
						<linearGradient id="SVGID_27_" gradientUnits="userSpaceOnUse" x1="-8.8115" y1="34.2057" x2="-9.1415" y2="36.0573" gradientTransform="matrix(1 0 -6.470000e-02 1 34.4311 0)">
						<stop  offset="0" style="stop-color:#37414D"/>
						<stop  offset="1" style="stop-color:#131620"/>
					</linearGradient>
					<path class="st43" d="M26.1,31.1c0,0,0,0-0.1,0c-0.1,0-0.2-0.1-0.4-0.1c-0.2,0-0.4,0-0.6,0c-0.2,0-0.5,0.1-0.7,0.2
						c-0.1,0-0.1,0.1-0.2,0.1c-0.1,0-0.1,0.1-0.2,0.1c-0.1,0.1-0.3,0.2-0.4,0.2c-0.3,0.2-0.5,0.4-0.7,0.7c-0.2,0.3-0.4,0.6-0.6,0.9
						c-0.2,0.3-0.3,0.7-0.4,1c-0.1,0.4-0.2,0.7-0.3,1.1c-0.1,0.4-0.1,0.7,0,1.1c0,0.3,0.1,0.7,0.1,1c0.1,0.3,0.2,0.6,0.3,0.8
						c0.1,0.2,0.2,0.5,0.4,0.6c0.1,0.2,0.3,0.3,0.4,0.4c0.1,0.1,0.2,0.2,0.3,0.2c0,0,0.1,0,0.1,0c0,0,0,0,0,0s0,0,0,0
						c0,0-0.1,0-0.1,0c-0.1,0-0.2-0.1-0.3-0.2c-0.1-0.1-0.3-0.2-0.4-0.4c-0.1-0.2-0.3-0.4-0.4-0.6c-0.1-0.2-0.2-0.5-0.3-0.8
						c-0.1-0.3-0.1-0.6-0.2-1c0-0.3,0-0.7,0-1.1c0-0.4,0.1-0.7,0.3-1.1c0.1-0.4,0.3-0.7,0.5-1c0.2-0.3,0.4-0.6,0.6-0.9
						c0.2-0.3,0.5-0.5,0.8-0.7c0.1-0.1,0.3-0.2,0.4-0.2c0.1,0,0.1-0.1,0.2-0.1c0.1,0,0.1-0.1,0.2-0.1c0.3-0.1,0.5-0.1,0.8-0.2
						c0.2,0,0.4,0,0.6,0c0.2,0,0.3,0.1,0.4,0.1C26,31.1,26.1,31.1,26.1,31.1L26.1,31.1z"/>
					
						<linearGradient id="SVGID_28_" gradientUnits="userSpaceOnUse" x1="-8.4523" y1="34.2699" x2="-8.7823" y2="36.1213" gradientTransform="matrix(1 0 -6.470000e-02 1 34.4311 0)">
						<stop  offset="0" style="stop-color:#37414D"/>
						<stop  offset="1" style="stop-color:#131620"/>
					</linearGradient>
					<path class="st44" d="M26.4,31.2L26.4,31.2L26.4,31.2c-0.2-0.1-0.5-0.1-0.7-0.1c-0.2,0-0.5,0-0.7,0.1c-0.2,0.1-0.5,0.2-0.7,0.3
						c-0.2,0.1-0.4,0.3-0.6,0.4c-0.2,0.2-0.4,0.3-0.5,0.5c-0.2,0.2-0.3,0.4-0.5,0.6c-0.3,0.4-0.5,0.9-0.6,1.3
						c-0.2,0.5-0.3,1-0.3,1.4c0,0.2,0,0.5,0,0.7c0,0.2,0,0.5,0.1,0.7c0.1,0.5,0.3,0.9,0.5,1.3c0.1,0.2,0.3,0.4,0.4,0.6
						c0.2,0.2,0.4,0.3,0.6,0.4c-0.2-0.1-0.4-0.2-0.6-0.4c-0.2-0.2-0.3-0.3-0.5-0.5c-0.3-0.4-0.4-0.9-0.5-1.3c0-0.1,0-0.2-0.1-0.4
						c0-0.1,0-0.2,0-0.4c0-0.2,0-0.5,0-0.7c0-0.5,0.1-1,0.3-1.5c0.2-0.5,0.4-0.9,0.7-1.4c0.3-0.4,0.6-0.8,1-1.1
						c0.2-0.2,0.4-0.3,0.7-0.4c0.2-0.1,0.5-0.2,0.7-0.3c0.2-0.1,0.5-0.1,0.7-0.1c0.1,0,0.2,0,0.4,0C26.2,31.1,26.3,31.2,26.4,31.2
						L26.4,31.2L26.4,31.2z"/>
					
						<linearGradient id="SVGID_29_" gradientUnits="userSpaceOnUse" x1="-8.069" y1="34.3381" x2="-8.399" y2="36.1896" gradientTransform="matrix(1 0 -6.470000e-02 1 34.4311 0)">
						<stop  offset="0" style="stop-color:#37414D"/>
						<stop  offset="1" style="stop-color:#131620"/>
					</linearGradient>
					<path class="st45" d="M26.7,31.4L26.7,31.4L26.7,31.4c-0.1-0.1-0.2-0.1-0.3-0.1c-0.1,0-0.2,0-0.4,0c-0.2,0-0.5,0-0.7,0.1
						c-0.2,0.1-0.5,0.2-0.7,0.3c-0.2,0.1-0.4,0.3-0.6,0.4c-0.4,0.3-0.7,0.7-1,1.1c-0.3,0.4-0.5,0.9-0.6,1.4c-0.2,0.5-0.3,1-0.3,1.5
						c0,0.2,0,0.5,0,0.7c0,0.2,0.1,0.5,0.1,0.7c0.1,0.5,0.3,0.9,0.5,1.3c0.1,0.2,0.3,0.4,0.4,0.6c0.2,0.2,0.4,0.3,0.6,0.4
						c-0.2-0.1-0.4-0.2-0.6-0.4c-0.2-0.2-0.3-0.3-0.5-0.5c-0.3-0.4-0.4-0.9-0.5-1.3C22,37.2,22,36.9,22,36.7c0-0.2,0-0.5,0-0.7
						c0-0.5,0.1-1,0.3-1.5c0.2-0.5,0.4-0.9,0.7-1.4c0.3-0.4,0.6-0.8,1-1.1c0.2-0.2,0.4-0.3,0.6-0.4c0.2-0.1,0.5-0.2,0.7-0.3
						c0.2-0.1,0.5-0.1,0.7-0.1c0.1,0,0.2,0,0.4,0C26.5,31.3,26.6,31.3,26.7,31.4L26.7,31.4L26.7,31.4z"/>
				</g>
				<path class="st46" d="M27.7,35.4c-0.1,1.4-1.1,2.7-2.2,2.9c-1.1,0.1-2-0.9-1.9-2.4c0.1-1.4,1.1-2.7,2.2-2.9
					C27,32.9,27.8,33.9,27.7,35.4z"/>
				<path class="st47" d="M27.6,35.4c-0.1,1.3-1,2.6-2.1,2.7c-1.1,0.1-1.8-0.9-1.7-2.2c0.1-1.3,1-2.6,2.1-2.7
					C26.9,33.1,27.7,34,27.6,35.4z"/>
				<path class="st48" d="M26.4,35.6c0,0.5-0.4,0.9-0.8,1c-0.4,0-0.7-0.3-0.6-0.8c0-0.5,0.4-0.9,0.8-1
					C26.2,34.7,26.5,35.1,26.4,35.6z"/>
				<path class="st47" d="M26.5,35.6c0,0.5-0.4,0.9-0.8,1c-0.4,0-0.7-0.3-0.6-0.8c0-0.5,0.4-0.9,0.8-1
					C26.2,34.8,26.5,35.1,26.5,35.6z"/>
				<g>
					<path class="st49" d="M26.2,35.1c0.1,0.1,0.1,0.3,0.1,0.4c0,0.4-0.3,0.7-0.6,0.7c-0.1,0-0.2,0-0.3-0.1c0.1,0.1,0.2,0.2,0.4,0.2
						c0.3,0,0.5-0.4,0.6-0.7C26.4,35.4,26.3,35.2,26.2,35.1z"/>
					<path class="st47" d="M25.8,36.3c0.3,0,0.5-0.4,0.6-0.7c0-0.2,0-0.3-0.1-0.4C26.1,35.1,26,35,25.9,35c-0.3,0-0.5,0.4-0.6,0.7
						c0,0.2,0,0.3,0.1,0.4C25.5,36.3,25.6,36.3,25.8,36.3z"/>
				</g>
				<g>
					<path class="st48" d="M25.9,33.8c0,0,0,0.1,0,0.1c0,0.1-0.1,0.3-0.2,0.3c0,0,0,0-0.1,0c0,0.1,0.1,0.1,0.2,0.1
						c0.1,0,0.2-0.1,0.2-0.3C26,33.9,26,33.8,25.9,33.8z"/>
					<path class="st48" d="M25,34.4c0,0.1,0,0.2,0,0.3c-0.1,0.1-0.1,0.1-0.2,0.1c0,0,0,0,0,0c0.1,0.1,0.2,0.1,0.3,0
						C25.1,34.7,25.1,34.5,25,34.4C25,34.4,25,34.4,25,34.4z"/>
					<path class="st48" d="M24.7,35.8c0-0.1,0-0.2-0.1-0.2C24.6,35.6,24.6,35.6,24.7,35.8c-0.1,0.1-0.2,0.2-0.3,0.2c0,0,0,0-0.1,0
						c0,0.1,0.1,0.1,0.2,0.1C24.6,36,24.7,35.9,24.7,35.8z"/>
					<path class="st48" d="M24.9,36.6c0,0.1,0,0.2,0,0.3C24.8,37,24.7,37,24.6,37c0,0,0,0,0,0c0.1,0.1,0.2,0.1,0.3,0
						C25,36.9,25,36.8,24.9,36.6C24.9,36.6,24.9,36.6,24.9,36.6z"/>
					<path class="st48" d="M25.7,37c0,0,0,0.1,0,0.1c0,0.1-0.1,0.3-0.2,0.3c0,0,0,0-0.1,0c0,0.1,0.1,0.1,0.2,0.1
						c0.1,0,0.2-0.1,0.2-0.3C25.8,37.1,25.8,37,25.7,37z"/>
					<path class="st48" d="M26.6,36.4c0,0.1,0,0.2,0,0.3c-0.1,0.1-0.1,0.1-0.2,0.1c0,0,0,0,0,0c0.1,0.1,0.2,0.1,0.3,0
						C26.7,36.7,26.7,36.5,26.6,36.4C26.6,36.4,26.6,36.4,26.6,36.4z"/>
					<path class="st48" d="M27,35.2c0,0,0,0.1,0,0.1c0,0.1-0.1,0.3-0.2,0.3c0,0,0,0-0.1,0c0,0.1,0.1,0.1,0.2,0.1
						c0.1,0,0.2-0.1,0.2-0.3C27.1,35.3,27.1,35.3,27,35.2z"/>
					<path class="st48" d="M26.7,34.5c-0.1,0.1-0.1,0.1-0.2,0.1c0,0,0,0,0,0C26.6,34.7,26.7,34.7,26.7,34.5c0.2,0,0.2-0.2,0.1-0.3
						c0,0,0,0-0.1-0.1C26.8,34.3,26.8,34.4,26.7,34.5z"/>
					<path class="st50" d="M25.9,34c0-0.1,0-0.1,0-0.1c0,0,0,0-0.1,0c-0.1,0-0.2,0.1-0.2,0.3c0,0.1,0,0.1,0,0.1c0,0,0,0,0.1,0
						C25.8,34.2,25.9,34.1,25.9,34z"/>
					<path class="st50" d="M25,34.7c0.1-0.1,0.1-0.2,0-0.3c-0.1,0-0.1,0-0.2,0.1c-0.1,0.1-0.1,0.2,0,0.3
						C24.8,34.8,24.9,34.8,25,34.7z"/>
					<path class="st50" d="M24.6,35.7c0-0.1,0-0.1,0-0.1c0,0,0,0-0.1,0c-0.1,0-0.2,0.1-0.2,0.3c0,0.1,0,0.1,0,0.1c0,0,0,0,0.1,0
						C24.5,35.9,24.6,35.8,24.6,35.7z"/>
					<path class="st50" d="M24.8,36.9c0.1-0.1,0.1-0.2,0-0.3c-0.1,0-0.1,0-0.2,0.1c-0.1,0.1-0.1,0.2,0,0.3
						C24.7,37,24.8,37,24.8,36.9z"/>
					<path class="st50" d="M25.7,37.1c0-0.1,0-0.1,0-0.1c0,0,0,0-0.1,0c-0.1,0-0.2,0.1-0.2,0.3c0,0.1,0,0.1,0,0.1c0,0,0,0,0.1,0
						C25.6,37.4,25.7,37.2,25.7,37.1z"/>
					<path class="st50" d="M26.5,36.7c0.1-0.1,0.1-0.2,0-0.3c-0.1,0-0.1,0-0.2,0.1c-0.1,0.1-0.1,0.2,0,0.3
						C26.4,36.8,26.5,36.8,26.5,36.7z"/>
					<path class="st50" d="M27,35.4c0-0.1,0-0.1,0-0.1c0,0,0,0-0.1,0c-0.1,0-0.2,0.1-0.2,0.3c0,0.1,0,0.1,0,0.1c0,0,0,0,0.1,0
						C26.9,35.6,27,35.5,27,35.4z"/>
					<path class="st50" d="M26.5,34.3c-0.1,0.1-0.1,0.2,0,0.3c0.1,0,0.1,0,0.2-0.1c0.1-0.1,0.1-0.2,0-0.3
						C26.7,34.2,26.6,34.2,26.5,34.3z"/>
				</g>
				<g>
					<path class="st49" d="M26,33.3c0.4-0.1,0.8,0.1,1.1,0.4C26.8,33.3,26.4,33.1,26,33.3c-1.1,0-2.1,1.2-2.2,2.6
						c-0.1,0.8,0.2,1.5,0.6,1.9c-0.4-0.4-0.6-1-0.5-1.8C24,34.6,24.9,33.4,26,33.3z"/>
				</g>
			</g>
			<g>
				<g>
					
						<linearGradient id="SVGID_30_" gradientUnits="userSpaceOnUse" x1="22.8873" y1="19.2277" x2="20.4462" y2="27.5837" gradientTransform="matrix(1 0 -6.470000e-02 1 34.4311 0)">
						<stop  offset="0" style="stop-color:#475260"/>
						<stop  offset="2.578374e-02" style="stop-color:#545F6C"/>
						<stop  offset="0.1025" style="stop-color:#75808B"/>
						<stop  offset="0.1758" style="stop-color:#8D98A2"/>
						<stop  offset="0.2434" style="stop-color:#9CA6AF"/>
						<stop  offset="0.3" style="stop-color:#A1ABB4"/>
						<stop  offset="0.3652" style="stop-color:#949FA9"/>
						<stop  offset="0.4862" style="stop-color:#717E8B"/>
						<stop  offset="0.6483" style="stop-color:#3A4A5B"/>
						<stop  offset="0.7" style="stop-color:#27384B"/>
						<stop  offset="0.8195" style="stop-color:#293A4D"/>
						<stop  offset="0.8784" style="stop-color:#314154"/>
						<stop  offset="0.924" style="stop-color:#3E4E5F"/>
						<stop  offset="0.9626" style="stop-color:#505F6F"/>
						<stop  offset="0.9968" style="stop-color:#687684"/>
						<stop  offset="1" style="stop-color:#6B7886"/>
					</linearGradient>
					<path class="st51" d="M58.9,22.3c-0.2-1.5-1-2.5-2-2.8v0l-1.6-0.6l0,0c-0.6-0.2-1.3-0.2-2.1,0.1c-1.9,0.8-3.2,3.2-2.9,5.5
						c0.2,1.4,0.9,2.4,1.8,2.7l0,0l0.1,0c0,0,0,0,0,0l1.8,0.7v0c0.6,0.2,1.3,0.2,2-0.1C57.9,27,59.2,24.6,58.9,22.3z"/>
					<path class="st40" d="M58.6,22.4c0.3,2.1-0.9,4.4-2.7,5.1c-1.7,0.7-3.3-0.4-3.6-2.5c-0.3-2.1,0.9-4.4,2.7-5.1
						C56.8,19.2,58.4,20.3,58.6,22.4z"/>
					<path class="st41" d="M58.3,22.6c0.2,1.8-0.8,3.8-2.3,4.4c-1.5,0.6-2.9-0.3-3.1-2.2c-0.2-1.8,0.8-3.8,2.3-4.4
						C56.7,19.8,58.1,20.8,58.3,22.6z"/>
					<path class="st0" d="M58.1,22.7c0.2,1.7-0.8,3.6-2.2,4.1c-1.4,0.6-2.7-0.3-2.9-2c-0.2-1.7,0.8-3.6,2.2-4.1
						C56.6,20.1,57.9,21,58.1,22.7z"/>
					<path class="st40" d="M58,22.7c0.2,1.6-0.7,3.4-2.1,4c-1.3,0.6-2.6-0.3-2.8-1.9c-0.2-1.6,0.7-3.4,2.1-4
						C56.6,20.2,57.8,21.1,58,22.7z"/>
					<path class="st41" d="M57.9,22.8c0.2,1.5-0.7,3.2-1.9,3.7c-1.2,0.5-2.4-0.3-2.6-1.8c-0.2-1.5,0.7-3.2,1.9-3.7
						C56.5,20.4,57.7,21.2,57.9,22.8z"/>
					
						<linearGradient id="SVGID_31_" gradientUnits="userSpaceOnUse" x1="19.8446" y1="22.1838" x2="19.5146" y2="24.0353" gradientTransform="matrix(1 0 -6.470000e-02 1 34.4311 0)">
						<stop  offset="0" style="stop-color:#37414D"/>
						<stop  offset="1" style="stop-color:#131620"/>
					</linearGradient>
					<path class="st52" d="M55.5,19c0,0,0,0-0.1,0c-0.1,0-0.2-0.1-0.4-0.1c-0.2,0-0.4,0-0.6,0c-0.2,0-0.5,0.1-0.7,0.2
						c-0.1,0-0.1,0.1-0.2,0.1c-0.1,0-0.1,0.1-0.2,0.1c-0.1,0.1-0.3,0.2-0.4,0.2c-0.3,0.2-0.5,0.4-0.8,0.7c-0.2,0.3-0.4,0.6-0.6,0.9
						c-0.2,0.3-0.3,0.7-0.5,1c-0.1,0.4-0.2,0.7-0.3,1.1c-0.1,0.4-0.1,0.7,0,1.1c0,0.7,0.2,1.3,0.4,1.8c0.1,0.2,0.2,0.5,0.4,0.6
						c0.1,0.2,0.3,0.3,0.4,0.4c0.1,0.1,0.2,0.2,0.3,0.2c0,0,0.1,0,0.1,0c0,0,0,0,0,0s0,0,0,0c0,0-0.1,0-0.1,0
						c-0.1,0-0.2-0.1-0.3-0.2c-0.1-0.1-0.3-0.2-0.4-0.4c-0.1-0.2-0.3-0.4-0.4-0.6c-0.1-0.2-0.2-0.5-0.3-0.8c-0.1-0.3-0.1-0.6-0.2-1
						c0-0.3,0-0.7,0-1.1c0-0.4,0.1-0.7,0.3-1.1c0.1-0.4,0.3-0.7,0.5-1c0.2-0.3,0.4-0.6,0.6-0.9c0.2-0.3,0.5-0.5,0.8-0.7
						c0.1-0.1,0.3-0.2,0.4-0.2c0.1,0,0.1-0.1,0.2-0.1c0.1,0,0.1-0.1,0.2-0.1c0.3-0.1,0.5-0.2,0.8-0.2c0.2,0,0.4,0,0.6,0
						c0.2,0,0.3,0.1,0.4,0.1C55.5,19,55.5,19,55.5,19L55.5,19z"/>
					
						<linearGradient id="SVGID_32_" gradientUnits="userSpaceOnUse" x1="20.3775" y1="22.2784" x2="20.0476" y2="24.1299" gradientTransform="matrix(1 0 -6.470000e-02 1 34.4311 0)">
						<stop  offset="0" style="stop-color:#37414D"/>
						<stop  offset="1" style="stop-color:#131620"/>
					</linearGradient>
					<path class="st53" d="M56,19.2c0,0,0,0-0.1,0c-0.1,0-0.2-0.1-0.4-0.1c-0.2,0-0.4,0-0.6,0c-0.2,0-0.5,0.1-0.7,0.2
						c-0.1,0-0.1,0.1-0.2,0.1c-0.1,0-0.1,0.1-0.2,0.1c-0.1,0.1-0.3,0.2-0.4,0.2c-0.3,0.2-0.5,0.4-0.7,0.7c-0.2,0.3-0.4,0.6-0.6,0.9
						c-0.2,0.3-0.3,0.7-0.4,1c-0.1,0.4-0.2,0.7-0.3,1.1c-0.1,0.4-0.1,0.7,0,1.1c0,0.3,0.1,0.7,0.1,1c0.1,0.3,0.2,0.6,0.3,0.8
						c0.1,0.2,0.2,0.5,0.4,0.6c0.1,0.2,0.3,0.3,0.4,0.4c0.1,0.1,0.2,0.2,0.3,0.2c0,0,0.1,0,0.1,0c0,0,0,0,0,0s0,0,0,0
						c0,0-0.1,0-0.1,0c-0.1,0-0.2-0.1-0.3-0.2c-0.1-0.1-0.3-0.2-0.4-0.4c-0.1-0.2-0.3-0.4-0.4-0.6c-0.1-0.2-0.2-0.5-0.3-0.8
						c-0.1-0.3-0.1-0.6-0.2-1c0-0.3,0-0.7,0-1.1c0-0.4,0.1-0.7,0.3-1.1c0.1-0.4,0.3-0.7,0.5-1c0.2-0.3,0.4-0.6,0.6-0.9
						c0.2-0.3,0.5-0.5,0.8-0.7c0.1-0.1,0.3-0.2,0.4-0.2c0.1,0,0.1-0.1,0.2-0.1c0.1,0,0.1-0.1,0.2-0.1c0.3-0.1,0.5-0.1,0.8-0.2
						c0.2,0,0.4,0,0.6,0c0.2,0,0.3,0.1,0.4,0.1C56,19.2,56,19.2,56,19.2L56,19.2z"/>
					
						<linearGradient id="SVGID_33_" gradientUnits="userSpaceOnUse" x1="20.7372" y1="22.3426" x2="20.4072" y2="24.1941" gradientTransform="matrix(1 0 -6.470000e-02 1 34.4311 0)">
						<stop  offset="0" style="stop-color:#37414D"/>
						<stop  offset="1" style="stop-color:#131620"/>
					</linearGradient>
					<path class="st54" d="M56.3,19.3L56.3,19.3L56.3,19.3c-0.2-0.1-0.5-0.1-0.7-0.1c-0.2,0-0.5,0-0.7,0.1c-0.2,0.1-0.5,0.2-0.7,0.3
						c-0.2,0.1-0.4,0.3-0.6,0.4c-0.2,0.2-0.4,0.3-0.5,0.5c-0.2,0.2-0.3,0.4-0.5,0.6c-0.3,0.4-0.5,0.9-0.6,1.3
						c-0.2,0.5-0.3,1-0.3,1.4c0,0.2,0,0.5,0,0.7c0,0.2,0,0.5,0.1,0.7c0.1,0.5,0.3,0.9,0.5,1.3c0.1,0.2,0.3,0.4,0.4,0.6
						c0.2,0.2,0.4,0.3,0.6,0.4c-0.2-0.1-0.4-0.2-0.6-0.4c-0.2-0.2-0.3-0.3-0.5-0.5c-0.3-0.4-0.4-0.9-0.5-1.3c0-0.1-0.1-0.2-0.1-0.4
						c0-0.1,0-0.2,0-0.4c0-0.2,0-0.5,0-0.7c0-0.5,0.1-1,0.3-1.5c0.2-0.5,0.4-0.9,0.7-1.4c0.3-0.4,0.6-0.8,1-1.1
						c0.2-0.2,0.4-0.3,0.7-0.4c0.2-0.1,0.5-0.2,0.7-0.3c0.2-0.1,0.5-0.1,0.7-0.1c0.1,0,0.2,0,0.4,0C56.1,19.2,56.2,19.2,56.3,19.3
						L56.3,19.3L56.3,19.3z"/>
					
						<linearGradient id="SVGID_34_" gradientUnits="userSpaceOnUse" x1="21.1202" y1="22.4111" x2="20.7902" y2="24.2625" gradientTransform="matrix(1 0 -6.470000e-02 1 34.4311 0)">
						<stop  offset="0" style="stop-color:#37414D"/>
						<stop  offset="1" style="stop-color:#131620"/>
					</linearGradient>
					<path class="st55" d="M56.7,19.4L56.7,19.4L56.7,19.4c-0.1-0.1-0.2-0.1-0.3-0.1c-0.1,0-0.2,0-0.4,0c-0.2,0-0.5,0-0.7,0.1
						c-0.2,0.1-0.5,0.2-0.7,0.3c-0.2,0.1-0.4,0.3-0.6,0.4c-0.4,0.3-0.7,0.7-1,1.1c-0.3,0.4-0.5,0.9-0.6,1.4C52.1,23,52,23.5,52,24
						c0,0.2,0,0.5,0,0.7c0,0.2,0.1,0.5,0.1,0.7c0.1,0.5,0.3,0.9,0.5,1.3c0.1,0.2,0.3,0.4,0.4,0.6c0.2,0.2,0.4,0.3,0.6,0.4
						c-0.2-0.1-0.4-0.2-0.6-0.4c-0.2-0.2-0.3-0.3-0.5-0.5c-0.3-0.4-0.4-0.9-0.5-1.3C52,25.3,52,25,51.9,24.8c0-0.2,0-0.5,0-0.7
						c0-0.5,0.1-1,0.3-1.5c0.2-0.5,0.4-0.9,0.7-1.4c0.3-0.4,0.6-0.8,1-1.1c0.2-0.2,0.4-0.3,0.6-0.4c0.2-0.1,0.5-0.2,0.7-0.3
						c0.2-0.1,0.5-0.1,0.7-0.1c0.1,0,0.2,0,0.4,0C56.5,19.3,56.6,19.4,56.7,19.4L56.7,19.4L56.7,19.4z"/>
				</g>
				<path class="st46" d="M57.7,23.4c-0.1,1.4-1.1,2.7-2.2,2.9c-1.1,0.1-2-0.9-1.9-2.4c0.1-1.4,1.1-2.7,2.2-2.9
					C56.9,20.9,57.8,22,57.7,23.4z"/>
				<path class="st47" d="M57.6,23.5c-0.1,1.3-1,2.6-2.1,2.7c-1.1,0.1-1.8-0.9-1.7-2.2c0.1-1.3,1-2.6,2.1-2.7
					C56.9,21.1,57.7,22.1,57.6,23.5z"/>
				<path class="st48" d="M56.4,23.6c0,0.5-0.4,0.9-0.8,1c-0.4,0-0.7-0.3-0.6-0.8c0-0.5,0.4-0.9,0.8-1
					C56.1,22.8,56.4,23.1,56.4,23.6z"/>
				<path class="st47" d="M56.5,23.7c0,0.5-0.4,0.9-0.8,1c-0.4,0-0.7-0.3-0.6-0.8c0-0.5,0.4-0.9,0.8-1
					C56.2,22.8,56.5,23.2,56.5,23.7z"/>
				<g>
					<path class="st49" d="M56.2,23.2c0.1,0.1,0.1,0.3,0.1,0.4c0,0.4-0.3,0.7-0.6,0.7c-0.1,0-0.2,0-0.3-0.1c0.1,0.1,0.2,0.2,0.4,0.2
						c0.3,0,0.5-0.4,0.6-0.7C56.3,23.5,56.3,23.3,56.2,23.2z"/>
					<path class="st47" d="M55.7,24.4c0.3,0,0.5-0.4,0.6-0.7c0-0.2,0-0.3-0.1-0.4c-0.1-0.1-0.2-0.1-0.3-0.1c-0.3,0-0.5,0.4-0.6,0.7
						c0,0.2,0,0.3,0.1,0.4C55.5,24.3,55.6,24.4,55.7,24.4z"/>
				</g>
				<g>
					<path class="st48" d="M55.9,21.9c0,0,0,0.1,0,0.1c0,0.1-0.1,0.3-0.2,0.3c0,0,0,0-0.1,0c0,0.1,0.1,0.1,0.2,0.1
						c0.1,0,0.2-0.1,0.2-0.3C56,22,55.9,21.9,55.9,21.9z"/>
					<path class="st48" d="M55,22.5c0,0.1,0,0.2,0,0.3c-0.1,0.1-0.1,0.1-0.2,0.1c0,0,0,0,0,0c0.1,0.1,0.2,0.1,0.3,0
						C55.1,22.8,55.1,22.6,55,22.5C55,22.5,55,22.5,55,22.5z"/>
					<path class="st48" d="M54.6,23.8c0-0.1,0-0.2-0.1-0.2C54.5,23.7,54.6,23.7,54.6,23.8c-0.1,0.1-0.2,0.2-0.3,0.2c0,0,0,0-0.1,0
						c0,0.1,0.1,0.1,0.2,0.1C54.5,24.1,54.6,24,54.6,23.8z"/>
					<path class="st48" d="M54.8,24.7c0,0.1,0,0.2,0,0.3c-0.1,0.1-0.1,0.1-0.2,0.1c0,0,0,0,0,0c0.1,0.1,0.2,0.1,0.3,0
						C54.9,25,55,24.8,54.8,24.7C54.9,24.7,54.8,24.7,54.8,24.7z"/>
					<path class="st48" d="M55.7,25c0,0,0,0.1,0,0.1c0,0.1-0.1,0.3-0.2,0.3c0,0,0,0-0.1,0c0,0.1,0.1,0.1,0.2,0.1
						c0.1,0,0.2-0.1,0.2-0.3C55.8,25.2,55.7,25.1,55.7,25z"/>
					<path class="st48" d="M56.6,24.5c0,0.1,0,0.2,0,0.3c-0.1,0.1-0.1,0.1-0.2,0.1c0,0,0,0,0,0c0.1,0.1,0.2,0.1,0.3,0
						C56.7,24.8,56.7,24.6,56.6,24.5C56.6,24.5,56.6,24.5,56.6,24.5z"/>
					<path class="st48" d="M57,23.3c0,0,0,0.1,0,0.1c0,0.1-0.1,0.3-0.2,0.3c0,0,0,0-0.1,0c0,0.1,0.1,0.1,0.2,0.1
						c0.1,0,0.2-0.1,0.2-0.3C57.1,23.4,57.1,23.3,57,23.3z"/>
					<path class="st48" d="M56.7,22.6c-0.1,0.1-0.1,0.1-0.2,0.1c0,0,0,0,0,0C56.5,22.8,56.7,22.8,56.7,22.6c0.2,0,0.2-0.2,0.1-0.3
						c0,0,0,0-0.1-0.1C56.7,22.3,56.7,22.5,56.7,22.6z"/>
					<path class="st50" d="M55.9,22c0-0.1,0-0.1,0-0.1c0,0,0,0-0.1,0c-0.1,0-0.2,0.1-0.2,0.3c0,0.1,0,0.1,0,0.1c0,0,0,0,0.1,0
						C55.8,22.3,55.9,22.2,55.9,22z"/>
					<path class="st50" d="M54.9,22.8c0.1-0.1,0.1-0.2,0-0.3c-0.1,0-0.1,0-0.2,0.1c-0.1,0.1-0.1,0.2,0,0.3
						C54.8,22.9,54.9,22.9,54.9,22.8z"/>
					<path class="st50" d="M54.6,23.8c0-0.1,0-0.1,0-0.1c0,0,0,0-0.1,0c-0.1,0-0.2,0.1-0.2,0.3c0,0.1,0,0.1,0,0.1c0,0,0,0,0.1,0
						C54.4,24,54.5,23.9,54.6,23.8z"/>
					<path class="st50" d="M54.8,25c0.1-0.1,0.1-0.2,0-0.3c-0.1,0-0.1,0-0.2,0.1c-0.1,0.1-0.1,0.2,0,0.3
						C54.6,25.1,54.7,25.1,54.8,25z"/>
					<path class="st50" d="M55.7,25.2c0-0.1,0-0.1,0-0.1c0,0,0,0-0.1,0c-0.1,0-0.2,0.1-0.2,0.3c0,0.1,0,0.1,0,0.1c0,0,0,0,0.1,0
						C55.6,25.4,55.7,25.3,55.7,25.2z"/>
					<path class="st50" d="M56.5,24.8c0.1-0.1,0.1-0.2,0-0.3c-0.1,0-0.1,0-0.2,0.1c-0.1,0.1-0.1,0.2,0,0.3
						C56.4,24.9,56.5,24.9,56.5,24.8z"/>
					<path class="st50" d="M57,23.5c0-0.1,0-0.1,0-0.1c0,0,0,0-0.1,0c-0.1,0-0.2,0.1-0.2,0.3c0,0.1,0,0.1,0,0.1c0,0,0,0,0.1,0
						C56.9,23.7,57,23.6,57,23.5z"/>
					<path class="st50" d="M56.5,22.3c-0.1,0.1-0.1,0.2,0,0.3c0.1,0,0.1,0,0.2-0.1c0.1-0.1,0.1-0.2,0-0.3
						C56.6,22.2,56.6,22.3,56.5,22.3z"/>
				</g>
				<g>
					<path class="st49" d="M55.9,21.4c0.4-0.1,0.8,0.1,1.1,0.4C56.7,21.4,56.3,21.2,55.9,21.4c-1.1,0-2.1,1.2-2.2,2.6
						c-0.1,0.8,0.2,1.5,0.6,1.9c-0.4-0.4-0.6-1-0.5-1.8C54,22.7,54.9,21.5,55.9,21.4z"/>
				</g>
			</g>
			<polygon class="st56" points="16.4,28.1 3.1,33.4 3.1,20 8.3,8.5 16.4,5.3 			"/>
			<polygon class="st3" points="51.6,24 51.3,24.1 49.2,18.7 52.6,20.1 			"/>
			<polygon class="st57" points="51.3,24.1 47.8,22.7 48.9,18.8 52.3,20.2 			"/>
			<polygon class="st38" points="49.2,23.3 52.3,20.2 48,21.9 47.8,22.7 			"/>
			<polygon class="st58" points="31.6,28.5 15.9,22.2 15.9,15.5 31.6,21.8 			"/>
			<polygon class="st3" points="63,15.9 31.6,28.5 31.6,21.8 63,9.3 			"/>
			<polygon class="st59" points="62.3,15.4 32.5,27.3 32.5,23.8 62.3,11.9 			"/>
			<path class="st60" d="M14,19.5l3.7,5.7l0.3,9.4l3.7-1.5c-0.1-0.4,1.2-3.5,4.8-3.9c0.6-0.1,3.6-2.2,4.1-1.3l0.6,0.2v-6.7
				l-14.8-5.9L14,19.5z"/>
			<polygon class="st61" points="17.2,39 3.1,33.4 3.1,20 17.2,25.6 			"/>
			<polygon class="st2" points="8.3,8.5 16.4,5.3 30.5,10.9 22.4,14.1 			"/>
			<polygon class="st59" points="8.3,8.5 3.1,20 17.2,25.6 22.4,14.1 			"/>
			<polygon class="st4" points="8.3,9.3 3.6,19.7 16.9,25.1 21.6,14.6 			"/>
			<polygon class="st62" points="8.3,9.3 3.6,19.7 16.9,25.1 21.6,14.6 			"/>
			<polygon class="st62" points="3.6,19.7 3.4,20.1 16.7,25.4 16.9,25.1 			"/>
			<path class="st62" d="M3.4,20.1l0,2c0,0,0.2,1.4,6.4,3.9c6.2,2.5,7,1.4,7,1.4l0-2L3.4,20.1z"/>
			<g>
				<linearGradient id="SVGID_35_" gradientUnits="userSpaceOnUse" x1="4.4131" y1="17.1901" x2="20.7351" y2="17.1901">
					<stop  offset="3.107940e-02" style="stop-color:#003354"/>
					<stop  offset="0.2717" style="stop-color:#002948"/>
					<stop  offset="0.6677" style="stop-color:#001D39"/>
					<stop  offset="1" style="stop-color:#001934"/>
				</linearGradient>
				<polygon class="st63" points="15,12.7 15,15 5.4,18.9 9.2,10.4 8.6,10.1 4.4,19.4 16.6,24.2 20.7,15 				"/>
				<linearGradient id="SVGID_36_" gradientUnits="userSpaceOnUse" x1="4.4131" y1="14.6473" x2="20.7347" y2="14.6473">
					<stop  offset="3.107940e-02" style="stop-color:#003354"/>
					<stop  offset="0.2717" style="stop-color:#002948"/>
					<stop  offset="0.6677" style="stop-color:#001D39"/>
					<stop  offset="1" style="stop-color:#001934"/>
				</linearGradient>
				<polygon class="st64" points="15,15 15,12.7 9.2,10.4 5.4,18.9 				"/>
				<polygon class="st65" points="12.9,13.2 12.9,11.9 9.2,10.4 5.8,17.8 5.8,17.8 6.8,17.5 8,17.8 12.3,16.1 12.5,13.9 13.1,13.6 
									"/>
			</g>
			<g>
				<path class="st59" d="M25.9,29.7c0.6-0.1,1.1,0,1.5,0.9l3.1-1.3V10.9l-8.1,3.2l-5.2,11.5V39l3.7-1.5
					C21,33.2,22.3,30.1,25.9,29.7z"/>
				<polygon class="st61" points="8.3,8.5 16.4,5.3 30.5,10.9 22.4,14.1 				"/>
				<path class="st62" d="M25.9,29.6c-3.6,0.3-4.9,3.5-5,7.9h0.8c0,0-0.3-5.9,3.7-6.8c0,0,0.4-0.1,0.6,0c0.5,0.1,1,0.2,1,0.2
					l0.9-0.5C27.8,30.1,26.6,29.6,25.9,29.6z"/>
			</g>
			<g>
				<polygon class="st36" points="48,27.1 34.2,32.6 34.2,29.2 48,23.7 				"/>
				<polygon class="st66" points="38.7,30.3 34.5,32 34.5,29.5 38.7,27.8 				"/>
				<polygon class="st66" points="43.2,28.6 39,30.2 39,27.7 43.2,26 				"/>
				<polygon class="st66" points="47.6,26.8 43.5,28.4 43.5,25.9 47.6,24.3 				"/>
				<polygon class="st35" points="32.5,31.9 34.2,32.6 34.2,29.2 32.5,28.5 				"/>
				<polygon class="st1" points="46.2,23 48,23.7 34.2,29.2 32.5,28.5 				"/>
			</g>
			<polygon class="st62" points="30.6,29.5 27,30.9 26.5,30.6 30.5,29 30.6,29.1 			"/>
			<polygon class="st62" points="23.1,14.9 18.3,25.7 29.7,21.2 29.7,12.3 			"/>
			<linearGradient id="SVGID_37_" gradientUnits="userSpaceOnUse" x1="27.2254" y1="16.3284" x2="25.3463" y2="19.9139">
				<stop  offset="3.107940e-02" style="stop-color:#003354"/>
				<stop  offset="0.2717" style="stop-color:#002948"/>
				<stop  offset="0.6677" style="stop-color:#001D39"/>
				<stop  offset="1" style="stop-color:#001934"/>
			</linearGradient>
			<polygon class="st67" points="23.6,15.4 29,13.2 29,20.8 19.4,24.6 			"/>
			<polygon class="st62" points="18.6,38.4 18.3,38.6 18.3,25.7 18.6,25.6 			"/>
			<polygon class="st62" points="29.7,29.4 29.3,29.5 29.3,21.3 29.7,21.2 			"/>
			<g>
				<g>
					<path class="st0" d="M49.9,26.2V26l0,0c0-0.2-0.2-0.3-0.4-0.3C49.4,25.6,48,25,48,25v0.5l0,0l0,0l0,0l1.2,0.5c0,0,0,0,0.1,0
						c0,0,0,0,0,0l-16.1,6.4c-0.3,0.1-0.6,0-0.6,0l-2-0.8L30,31.9v0.2h0l0,0l2.4,0.9c0,0,0.4,0.1,0.7,0l16.5-6.6
						C49.8,26.3,49.9,26.3,49.9,26.2z"/>
					<path class="st41" d="M48.6,24.4v2c0,0.1,0.1,0.1,0.2,0.1c0.1,0,0.2-0.1,0.2-0.1v-2H48.6z"/>
					<path class="st41" d="M48,23.4v2c0,0.1,0.1,0.1,0.2,0.1c0.1,0,0.2-0.1,0.2-0.1v-2H48z"/>
					<path class="st41" d="M41.1,27.4v2c0,0.1,0.1,0.1,0.2,0.1c0.1,0,0.2-0.1,0.2-0.1v-2H41.1z"/>
					<path class="st41" d="M44.8,25.9v2c0,0.1,0.1,0.1,0.2,0.1c0.1,0,0.2-0.1,0.2-0.1v-2H44.8z"/>
					<path class="st41" d="M37.3,28.9v2c0,0.1,0.1,0.1,0.2,0.1c0.1,0,0.2-0.1,0.2-0.1v-2H37.3z"/>
					<path class="st41" d="M33.6,30.4v2c0,0.1,0.1,0.1,0.2,0.1c0.1,0,0.2-0.1,0.2-0.1v-2H33.6z"/>
					<path class="st41" d="M30.9,30.2v2c0,0.1,0.1,0.1,0.2,0.1c0.1,0,0.2-0.1,0.2-0.1v-2H30.9z"/>
					<path class="st0" d="M48.6,24.3v2c0,0.1,0.1,0.1,0.2,0.1c0.1,0,0.2-0.1,0.2-0.1v-2H48.6z"/>
					<path class="st0" d="M48,23.3v2c0,0.1,0.1,0.1,0.2,0.1c0.1,0,0.2-0.1,0.2-0.1v-2H48z"/>
					<path class="st0" d="M41.1,27.3v2c0,0.1,0.1,0.1,0.2,0.1c0.1,0,0.2-0.1,0.2-0.1v-2H41.1z"/>
					<path class="st0" d="M44.8,25.8v2c0,0.1,0.1,0.1,0.2,0.1c0.1,0,0.2-0.1,0.2-0.1v-2H44.8z"/>
					<path class="st0" d="M37.3,28.8v2c0,0.1,0.1,0.1,0.2,0.1c0.1,0,0.2-0.1,0.2-0.1v-2H37.3z"/>
					<path class="st0" d="M33.6,30.3v2c0,0.1,0.1,0.1,0.2,0.1c0.1,0,0.2-0.1,0.2-0.1v-2H33.6z"/>
					<path class="st0" d="M30.9,30.1v2c0,0.1,0.1,0.1,0.2,0.1c0.1,0,0.2-0.1,0.2-0.1v-2H30.9z"/>
				</g>
				<path class="st41" d="M30.9,30.1v0.6c0,0.1,0.1,0.1,0.2,0.1c0.1,0,0.2-0.1,0.2-0.1v-0.6H30.9z"/>
				<path class="st41" d="M33.6,30.3V31c0,0.1,0.1,0.1,0.2,0.1c0.1,0,0.2-0.1,0.2-0.1v-0.6H33.6z"/>
				<path class="st41" d="M37.3,28.8v0.6c0,0.1,0.1,0.1,0.2,0.1c0.1,0,0.2-0.1,0.2-0.1v-0.6H37.3z"/>
				<path class="st41" d="M41.1,27.3V28c0,0.1,0.1,0.1,0.2,0.1c0.1,0,0.2-0.1,0.2-0.1v-0.6H41.1z"/>
				<path class="st41" d="M44.8,25.8v0.6c0,0.1,0.1,0.1,0.2,0.1c0.1,0,0.2-0.1,0.2-0.1v-0.6H44.8z"/>
				<path class="st41" d="M48.6,24.3v0.6c0,0.1,0.1,0.1,0.2,0.1c0.1,0,0.2-0.1,0.2-0.1v-0.6H48.6z"/>
				<path class="st41" d="M48,23.3v0.6c0,0.1,0.1,0.1,0.2,0.1c0.1,0,0.2-0.1,0.2-0.1v-0.6H48z"/>
				<path class="st0" d="M49.9,24.1v-0.2l0,0c0-0.2-0.2-0.3-0.4-0.3c-0.1-0.1-2-0.8-2-0.8L47.2,23v0.2h0l0,0l2,0.8c0,0,0,0,0.1,0
					c0,0,0,0,0,0l-16.1,6.4c-0.3,0.1-0.6,0-0.6,0l-2-0.8L30,29.9v0.2h0l0,0l2.4,0.9c0,0,0.4,0.1,0.7,0l16.5-6.6
					C49.8,24.3,49.9,24.2,49.9,24.1z"/>
			</g>
			<g>
				<path class="st62" d="M29,23L28.9,23v0.3c0,0.1-0.1,0.2-0.2,0.3l-1.6,0.6v0.1c0,0.1,0.1,0.2,0.2,0.1l1.8-0.7
					c0.1,0,0.2-0.2,0.2-0.3v-0.3C29.2,23,29.1,22.9,29,23z"/>
				<path class="st2" d="M28.9,23.3V23l-1.6,0.6c-0.1,0-0.2,0.2-0.2,0.3v0.3l1.6-0.6C28.8,23.5,28.9,23.4,28.9,23.3z"/>
			</g>
			<path class="st68" d="M18.3,38.8c0,0,0,0.1-0.1,0.1l-0.8,0.3c-0.2,0.1-0.4,0-0.4,0L3.2,33.8l-0.3-0.2c-0.1,0-0.1-0.1-0.1-0.1V30
				c0,0,0-0.1,0.1-0.2c0.1-0.1,0.2-0.1,0.2-0.1l0,0.2L3.3,30l13.6,5.4c0,0,0.2,0.1,0.4,0l0.5-0.2c0,0,0.1-0.1,0.4,0.1
				C18.1,35.7,18.2,38.7,18.3,38.8L18.3,38.8z"/>
			<path class="st61" d="M3,33.9L3.2,34l13.7,5.5c0,0,0.2,0.1,0.4,0l0.8-0.3c0.1,0,0.1-0.1,0.1-0.1v-3.5c0-0.2-0.2-0.2-0.2-0.2
				l-0.8,0.3c-0.2,0.1-0.4,0-0.4,0L3.3,30.2L2.8,30v3.8C2.8,33.7,2.8,33.9,3,33.9z"/>
			<g>
				<path class="st62" d="M4.8,32.6l-0.5-1.2L4,31.3c0,0-0.5-0.2-0.3,0.2l0.5,1.2c0,0,0.1,0.2,0.3,0.3l2.8,1.1
					C7.7,34.4,7.7,34,7.7,34v0l-2.6-1C4.9,32.9,4.8,32.6,4.8,32.6z"/>
				<path class="st35" d="M4.3,31.5l0.5,1.2c0,0,0.1,0.2,0.3,0.3l2.6,1v-1.1L4.3,31.5z"/>
			</g>
			<path class="st62" d="M12.3,35.4L12.3,35.4v-0.7l-0.7-0.3v1.1v0c0,0,0,0.4,0.4,0.6l3,1.2c0.2,0.1,0.3,0,0.3,0l0.1-0.2L12.7,36
				C12.3,35.8,12.3,35.4,12.3,35.4z"/>
			<path class="st35" d="M15.5,35.9l-0.3-0.1l-2.9-1.1v0.7v0c0,0,0,0.4,0.4,0.6l2.8,1.1l0.4-0.6C16,36.1,15.5,35.9,15.5,35.9z"/>
			<polygon class="st69" points="8.2,35 11,36.2 11.1,36.2 11.1,34.2 8.2,33 8.1,33.1 			"/>
			<polygon class="st70" points="8.1,35.1 11,36.2 11,34.2 8.1,33.1 			"/>
			<g>
				<path class="st62" d="M7.4,30.4c-0.2-0.1-0.3-0.1-0.3-0.1c0.1,0.4,0,0.8,0,0.8l4.9,2c0,0,0-0.1,0.1-0.2l-4.7-1.9
					C7.5,30.9,7.5,30.7,7.4,30.4z"/>
				<path class="st62" d="M7.3,29.2c0-0.1,0-0.1,0-0.2l-0.4-0.2c0,0,0.1,0.3,0.2,0.5c0,0.2,0.1,0.4,0.1,0.4l5.6,2.2
					c0,0,0.1-0.1,0.1-0.2l-5.4-2.2C7.4,29.6,7.3,29.4,7.3,29.2z"/>
				<path class="st35" d="M12.4,32.3c0,0-3.8-1.5-5-2c0,0.3,0,0.5,0,0.5l4.7,1.9c0-0.1,0.1-0.2,0.1-0.2
					C12.3,32.4,12.4,32.3,12.4,32.3z"/>
				<path class="st35" d="M13.1,31.4l-5.9-2.4c0,0.1,0,0.1,0,0.2c0,0.2,0.1,0.4,0.1,0.4l5.4,2.2c0,0,0.1-0.1,0.1-0.1
					C13,31.5,13.1,31.4,13.1,31.4z"/>
			</g>
			<g>
				<g>
					<path class="st59" d="M13.1,32.9c0,0,0.2-0.4,0.4-0.8L13.3,32c-0.4,0.5-0.7,1.2-0.7,1.2l4.6,1.8l0.7-0.3c0.1,0,0.1-0.1,0.2-0.2
						l-0.4,0.1L13.1,32.9z"/>
					<path class="st71" d="M18.1,32.9c0,0,0,0.1,0,0.1l0,0V32.9z"/>
				</g>
			</g>
			<g>
				<path class="st35" d="M17.2,33.5l-3.7-1.3c-0.3,0.4-0.4,0.8-0.4,0.8l4.1,1.6l0.7-1.1v-0.3L17.2,33.5z"/>
				<path class="st72" d="M18.1,34.5V33l0,0c0,0.1-0.1,0.1-0.2,0.2l-0.1,0v0.3l-0.7,1.1l0.5,0.2l0.4-0.1
					C18.1,34.6,18.1,34.5,18.1,34.5z"/>
			</g>
			<path class="st72" d="M14.6,33c0.1-0.1,0.1-0.2,0.1-0.4c0-0.3-0.2-0.5-0.3-0.5v0h0c0,0,0,0,0,0L14,32l0,0.1
				c-0.1,0.1-0.2,0.3-0.1,0.4c0,0.3,0.2,0.5,0.4,0.5l0,0.2L14.6,33C14.6,33.1,14.6,33,14.6,33L14.6,33L14.6,33z"/>
			<path class="st71" d="M14.5,32.7c0,0.4-0.2,0.7-0.4,0.7c-0.3,0-0.5-0.3-0.6-0.7c0-0.4,0.2-0.7,0.4-0.7
				C14.2,32,14.5,32.3,14.5,32.7z"/>
			<path class="st73" d="M14.4,32.7c0,0.3-0.1,0.5-0.3,0.5c-0.2,0-0.4-0.2-0.4-0.5c0-0.3,0.1-0.5,0.3-0.5
				C14.2,32.2,14.4,32.4,14.4,32.7z"/>
			<path class="st72" d="M15.8,33.5c0.1-0.1,0.1-0.2,0.1-0.4c0-0.3-0.2-0.5-0.3-0.5h0l0,0c0,0,0,0,0,0l-0.3-0.1l0,0.1
				c-0.1,0.1-0.2,0.3-0.1,0.4c0,0.3,0.2,0.5,0.4,0.5l0,0.2L15.8,33.5C15.8,33.5,15.8,33.5,15.8,33.5L15.8,33.5L15.8,33.5z"/>
			<path class="st71" d="M15.7,33.2c0,0.4-0.2,0.7-0.4,0.7c-0.3,0-0.5-0.3-0.6-0.7c0-0.4,0.2-0.7,0.4-0.7
				C15.4,32.5,15.7,32.8,15.7,33.2z"/>
			<path class="st73" d="M15.7,33.1c0,0.3-0.1,0.5-0.3,0.5c-0.2,0-0.4-0.2-0.4-0.5c0-0.3,0.1-0.5,0.3-0.5
				C15.5,32.7,15.6,32.9,15.7,33.1z"/>
			<path class="st72" d="M17,34c0.1-0.1,0.1-0.2,0.1-0.4c0-0.3-0.2-0.5-0.3-0.5v0l0,0c0,0,0,0,0,0L16.5,33l0,0.1
				c-0.1,0.1-0.2,0.3-0.1,0.4c0,0.3,0.2,0.5,0.4,0.5l0,0.2L17,34C17,34,17,34,17,34L17,34L17,34z"/>
			<path class="st71" d="M16.9,33.7c0,0.4-0.2,0.7-0.4,0.7c-0.3,0-0.5-0.3-0.6-0.7c0-0.4,0.2-0.7,0.4-0.7
				C16.6,33,16.9,33.3,16.9,33.7z"/>
			<path class="st73" d="M16.9,33.6c0,0.3-0.1,0.5-0.3,0.5c-0.2,0-0.4-0.2-0.4-0.5c0-0.3,0.1-0.5,0.3-0.5
				C16.7,33.2,16.8,33.4,16.9,33.6z"/>
			<path class="st72" d="M14,31.6C14,31.6,14,31.6,14,31.6c-0.3,0-0.5,0.2-0.8,0.5l2.6,0.9l0-0.2l-2.3-0.8
				C13.7,31.8,13.9,31.6,14,31.6z"/>
			<g>
				<path class="st74" d="M17.9,33l-0.7,0.3l-1.3-0.5l0,0.2l1.3,0.5l0.7-0.3c0.2-0.1,0.2-0.3,0.2-0.3v0C18.1,32.9,18,33,17.9,33z"/>
				<path class="st75" d="M17.9,31.4l-0.7,0.3c0,0-0.4,0-1,0l-0.3,1.2l1.3,0.5l0.7-0.3c0.1,0,0.1-0.1,0.1-0.1v-1.3
					C18.1,31.3,17.9,31.4,17.9,31.4z"/>
			</g>
			<path class="st74" d="M17.2,32l0.6-0.2c0,0,0.2-0.1,0.2,0.2v0.9c0-0.1,0-0.2,0-0.2v-0.9c0-0.3-0.2-0.2-0.2-0.2l-0.6,0.2l-0.8,0
				c0,0,0.2,0.2,0.3,0.2C16.8,31.9,17.2,32,17.2,32z"/>
			<g>
				<path class="st71" d="M14,31.6c-0.2,0.1-0.3,0.2-0.4,0.4l2.3,0.8l0.3-1.1C15.4,31.6,14.5,31.6,14,31.6z"/>
			</g>
			<path class="st71" d="M18,33.7v0.7c0,0,0,0.2-0.2,0.3c-0.2,0.1-0.4,0.2-0.4,0.2l0.1-0.3l0.3-0.1c0,0,0.1,0,0.1-0.1
				c0-0.1,0-0.5,0-0.5L18,33.7z"/>
			<path class="st72" d="M14.5,31.6l-0.4,0.5c0.1,0,0.2,0,0.2,0l0.3-0.5L14.5,31.6z"/>
			<path class="st72" d="M15.1,31.6l-0.5,0.6c0.1,0,0.2,0,0.2,0l0.5-0.6L15.1,31.6z"/>
			<path class="st72" d="M15.7,31.6l-0.6,0.8c0.1,0,0.2,0,0.2,0l0.6-0.7L15.7,31.6z"/>
			<path class="st59" d="M3,29c0,0-0.1,0-0.1-0.1v0.4c0,0.3,0.2,0.3,0.2,0.3l3.6,1.4c0-0.3,0-0.5,0-0.8c0,0.1,0,0.1,0,0.2L3,29z"/>
			<g>
				<path class="st71" d="M3.1,28.8v-0.6l0,0l-0.2-0.1v0.8C3,29,3,29,3,29l0.5,0.2c0,0,0,0-0.1,0C3.1,29,3.1,28.8,3.1,28.8z"/>
				<path class="st35" d="M6.6,30.2c0-0.3-0.1-0.5-0.1-0.7l-3.4-1.3l0,0v0.6c0,0,0,0.2,0.3,0.4c0,0,0,0,0.1,0l3.1,1.2
					C6.6,30.3,6.6,30.2,6.6,30.2z"/>
			</g>
			<path class="st72" d="M5.5,29.4c0.1-0.1,0.1-0.2,0.1-0.4c0-0.3-0.2-0.5-0.3-0.5l0,0h0c0,0,0,0,0,0l-0.3-0.1l0,0.1
				c-0.1,0.1-0.2,0.3-0.1,0.4c0,0.3,0.2,0.5,0.4,0.5l0,0.2L5.5,29.4C5.5,29.5,5.5,29.4,5.5,29.4L5.5,29.4L5.5,29.4z"/>
			<path class="st71" d="M5.4,29.1c0,0.4-0.2,0.7-0.4,0.7c-0.3,0-0.5-0.3-0.6-0.7c0-0.4,0.2-0.7,0.4-0.7C5.1,28.4,5.4,28.8,5.4,29.1
				z"/>
			<path class="st73" d="M5.4,29.1c0,0.3-0.1,0.5-0.3,0.5c-0.2,0-0.4-0.2-0.4-0.5c0-0.3,0.1-0.5,0.3-0.5C5.2,28.6,5.3,28.8,5.4,29.1
				z"/>
			<path class="st72" d="M4.3,29c0.1-0.1,0.1-0.2,0.1-0.4c0-0.3-0.2-0.5-0.3-0.5l0,0l0,0c0,0,0,0,0,0L3.7,28l0,0.1
				c-0.1,0.1-0.2,0.3-0.1,0.4c0,0.3,0.2,0.5,0.4,0.5l0,0.2L4.3,29C4.3,29,4.3,29,4.3,29L4.3,29L4.3,29z"/>
			<path class="st71" d="M4.2,28.7c0,0.4-0.2,0.7-0.4,0.7c-0.3,0-0.5-0.3-0.6-0.7c0-0.4,0.2-0.7,0.4-0.7C3.9,28,4.2,28.3,4.2,28.7z"
				/>
			<path class="st73" d="M4.2,28.6c0,0.3-0.1,0.5-0.3,0.5c-0.2,0-0.4-0.2-0.4-0.5c0-0.3,0.1-0.5,0.3-0.5C4,28.2,4.1,28.4,4.2,28.6z"
				/>
			<g>
				<path class="st71" d="M4,28.3l2.5,1c-0.1-0.4-0.3-0.5-0.3-0.5s-1.4-1.1-2.4-1.8l0,0L4,28.3z"/>
				<path class="st72" d="M4,28.5l2.5,1c0-0.1,0-0.1-0.1-0.2l-2.5-1L4,28.5z"/>
				<path class="st75" d="M4,28.3l-0.2-1.4c-0.4-0.3-0.7-0.5-0.7-0.5c-0.1-0.1-0.2,0.1-0.2,0.1v1.4v0.2L4,28.5L4,28.3z"/>
			</g>
			<g>
				<polygon class="st72" points="6.1,28.9 6.1,28.9 6.1,28.9 				"/>
				<path class="st72" d="M6.5,30.1L6.6,30c0,0,0,0,0-0.1C6.6,30,6.5,30.1,6.5,30.1z"/>
				<polygon class="st76" points="6.5,30.2 6.5,30.2 6.5,30.2 				"/>
				<path class="st76" d="M6.5,30.1L6.5,30.1C6.5,30.2,6.5,30.2,6.5,30.1z"/>
				<path class="st71" d="M6.6,29.7c0,0.1-0.1,0.2-0.2,0.3c0,0-0.1,0-0.1,0c-0.2,0-0.4-0.2-0.4-0.5c0-0.1,0-0.2,0-0.3l-0.2-0.1
					c-0.1,0.1-0.1,0.3-0.1,0.5c0,0.2,0.1,0.3,0.1,0.4c0.1,0.2,0.3,0.3,0.4,0.3c0.1,0,0.1,0,0.2-0.1c0,0,0.1,0,0.1-0.1c0,0,0,0,0,0
					l0,0c0-0.1,0.1-0.1,0.1-0.2C6.6,29.9,6.6,29.8,6.6,29.7z"/>
				<path class="st73" d="M6.5,29.5l-0.4-0.2l-0.1-0.1c0,0.1-0.1,0.2,0,0.3c0,0.3,0.2,0.5,0.4,0.5c0,0,0.1,0,0.1,0
					c0.1,0,0.2-0.1,0.2-0.3C6.5,29.6,6.5,29.6,6.5,29.5z"/>
			</g>
			<path class="st72" d="M4.4,27.4l0.2,1.1c-0.1-0.1-0.2-0.2-0.2-0.2l-0.2-1L4.4,27.4z"/>
			<path class="st72" d="M5,27.9l0.2,0.8C5.1,28.6,5,28.5,5,28.5l-0.2-0.8L5,27.9z"/>
			<path class="st72" d="M5.6,28.3l0.1,0.6c-0.1-0.1-0.2-0.2-0.2-0.2l-0.1-0.5L5.6,28.3z"/>
			<path class="st74" d="M3.2,28L4,28.3l0,0.2l-0.8-0.3C3,28.1,3,28,3,28v-1.4l0.1,0.1v1.2C3.2,27.9,3.2,28,3.2,28z"/>
			<path class="st35" d="M19,24.7c-0.1-0.1-0.2-0.1-0.2,0l-1.7,1.7c-0.1,0.1-0.1,0.1-0.2,0.1c0,0,0-0.1,0-0.3v-0.4l0.2,0.1
				c0.1,0,0.2-0.1,0.2-0.2v-2.9c0-0.2-0.1-0.4-0.2-0.4l-0.8-0.2c-0.1,0-0.2,0.1-0.2,0.2v2.9c0,0.2,0.1,0.4,0.2,0.4l0.3,0.1v0.5
				c0,0.1,0,0.5,0.3,0.6c0,0,0.1,0,0.1,0c0.2,0,0.4-0.2,0.4-0.2L19,25C19.1,24.9,19.1,24.8,19,24.7z"/>
			<polygon class="st62" points="21.7,33.6 18.6,34.9 18.6,34.6 21.7,33.3 			"/>
			<path class="st75" d="M20.5,35c0,0.1,0,0.1-0.1,0.1l-0.9,0.4c0,0-0.1,0-0.1-0.1v-0.2c0-0.1,0-0.1,0.1-0.1l0.9-0.4
				c0,0,0.1,0,0.1,0.1V35z"/>
			<polygon class="st2" points="30.5,21.4 31.6,21.8 63,9.3 61.7,8.7 30.7,21.3 			"/>
			<polygon class="st2" points="30.5,20.5 32.8,21.3 31.6,21.8 30.5,21.4 			"/>
		</g>
	</g>
	<polygon class="st3" points="63.2,9.4 31.8,21.9 31.6,21.8 63,9.3 	"/>
	<polygon class="st4" points="63.2,10 31.8,22.6 31.8,21.9 63.2,9.4 	"/>
	<path class="st77" d="M56.9,12.8c-0.1,0-0.1,0-0.1-0.1c0-0.1,0-0.1,0.1-0.1c0.1,0,0.2-0.1,0.2-0.2l-2.3-6.2L43.6,1.4
		c-0.1,0,0-0.1,0-0.1c0.1-0.1,0.2,0,0.3,0l11,4.7C55,6,55,6,55,6.1l2.3,6.3c0,0,0,0.1,0,0.1C57.3,12.5,57.2,12.7,56.9,12.8
		C56.9,12.8,56.9,12.8,56.9,12.8z"/>
	<path class="st77" d="M49.3,15.8c-0.1,0-0.1,0-0.1-0.1c0-0.1,0-0.1,0.1-0.1c0.1,0,0.2-0.1,0.2-0.2l-2.3-6.2L36.2,4.4
		c-0.1,0,0-0.1,0-0.1c0.1-0.1,0.2,0,0.3,0L47.4,9c0,0,0.1,0,0.1,0.1l2.3,6.3c0,0,0,0.1,0,0.1C49.8,15.4,49.7,15.7,49.3,15.8
		C49.4,15.8,49.3,15.8,49.3,15.8z"/>
	<path class="st77" d="M41.4,19c-0.1,0-0.1,0-0.1-0.1c0-0.1,0-0.1,0.1-0.1c0.1,0,0.2-0.1,0.2-0.2l-2.3-6.2L28.2,7.6
		c-0.1,0,0-0.1,0-0.1c0.1-0.1,0.2,0,0.3,0l10.9,4.7c0,0,0.1,0,0.1,0.1l2.3,6.3c0,0,0,0.1,0,0.1C41.9,18.6,41.8,18.9,41.4,19
		C41.4,19,41.4,19,41.4,19z"/>
</g>
</svg>
