<?xml version="1.0" encoding="utf-8"?>
<!-- Generator: Adobe Illustrator 24.0.3, SVG Export Plug-In . SVG Version: 6.00 Build 0)  -->
<svg version="1.1" id="レイヤー_1" xmlns="http://www.w3.org/2000/svg" xmlns:xlink="http://www.w3.org/1999/xlink" x="0px"
	 y="0px" viewBox="0 0 238.6 95.1" style="enable-background:new 0 0 238.6 95.1;" xml:space="preserve">
<style type="text/css">
	.st0{fill:#FFFFFF;}
	.st1{clip-path:url(#SVGID_4_);fill:#FFFFFF;}
	.st2{fill:none;stroke:#FFFFFF;stroke-miterlimit:10;}
	.st3{fill:#E30012;}
</style>
<g>
	<g>
		<g>
			<g>
				<rect x="159.6" y="6.1" class="st0" width="9.2" height="28.2"/>
				<path class="st0" d="M191.4,6.1H176v28.2h16.5c8,0,12.2-6.8,12.2-14.1C204.7,12.4,201.9,6.1,191.4,6.1z M189,30.2h-3.8v-20h4.1
					c4.9,0,6.6,4.6,6.6,10C195.9,24.8,194.7,30.2,189,30.2z"/>
				<path class="st0" d="M109.5,6.1H94v28.2h16.5c8,0,12.2-6.8,12.2-14.1C122.7,12.4,119.9,6.1,109.5,6.1z M107.1,30.2h-3.8v-20h4.1
					c4.9,0,6.6,4.6,6.6,10C113.9,24.8,112.8,30.2,107.1,30.2z"/>
				<path class="st0" d="M224.1,5.5c-9.4,0-14.5,6.5-14.5,14.9c0,7.3,5.6,14.5,14.6,14.5c9,0,14.4-7.1,14.4-14.5
					C238.6,12,233.4,5.5,224.1,5.5z M224.1,29.9c-3.7,0-6-4.7-6-9.6c0-5.6,2.1-9.9,5.9-9.9s6,4.3,6,9.9
					C230,25.2,227.8,29.9,224.1,29.9z"/>
				<path class="st0" d="M145,34.3h9.6L143.8,6.1h-3h-5.2l-10.9,28.2h5.2l2-5.1H143L145,34.3z M133.4,25.1l3.9-10.2l4.1,10.2H133.4z
					"/>
			</g>
			<polygon class="st0" points="119.8,43.1 119.8,39.3 94,39.3 94,67.5 103.2,67.5 119.8,67.5 119.8,63.7 103.2,63.7 103.2,55.4 
				116.2,55.4 116.2,51.6 103.2,51.6 103.2,43.1 			"/>
			<path class="st0" d="M182,60.2c-0.3-3.2-1-5.5-5.2-6.5c4.5-1.3,6.2-4,6.2-6.8c0-4.3-3-7.7-12.3-7.7h-12.8v28.2h9.2V55.2
				c4.4,0,5.7,0.2,5.8,5.3c0.1,2.3,0.2,5.2,1,7h9.9C182.9,66.4,182.2,63.7,182,60.2z M167.9,51.9h-0.8v-8.9h2.4c3.8,0,5.7,2,5.7,4.5
				C175.2,49.8,173.8,51.9,167.9,51.9z"/>
			<path class="st0" d="M145,67.5h9.6l-10.9-28.2h-3h-5.2l-10.9,28.2h5.2l2-5.1H143L145,67.5z M133.4,58.3l3.9-10.2l4.1,10.2H133.4z
				"/>
			<g>
				<path class="st0" d="M201.2,43.1v24.4h-8.7V43.1h-6.8v-3.6h22.4v3.6H201.2z"/>
				<path class="st0" d="M219.7,55.4v12.1h-7.6v-28h7.6v12.1h9.5V39.5h7.6v28h-7.6V55.4H219.7z"/>
			</g>
		</g>
	</g>
	<g>
		<path class="st0" d="M2.4,86c-0.5,0-1.3,0-1.3-1c0-1,0.8-1,1.3-1h4.9v-2.4c0-0.5,0-1.3,1-1.3c1.1,0,1.1,0.8,1.1,1.3V84h4.8h0.4
			c0.4,0,0.9,0.3,0.9,1c0,1-0.8,1-1.3,1H9.5c0.1,1.1,0.6,3.7,4.6,6.3c0.2,0.1,1.3,0.7,1.5,0.9c0.1,0.1,0.2,0.3,0.2,0.6
			c0,0.5-0.4,1.1-1.1,1.1c-0.9,0-2.7-1.4-3-1.7c-2.3-1.8-3-3.4-3.3-4.1c-0.2,0.6-0.6,2.1-2.8,3.9c-1.4,1.2-2.9,1.9-3.5,1.9
			c-0.6,0-1-0.4-1-1.1c0-0.7,0.5-0.9,0.8-1.1c1.1-0.5,3-1.4,4.3-3.7c0.6-1,0.7-1.9,0.9-3H2.4z"/>
		<path class="st0" d="M18.2,82.2c0-0.3,0-0.7,0.4-1.1c0.3-0.3,0.9-0.4,1-0.4h10.7c0.8,0,1.4,0.5,1.4,1.4v11.1c0,1.1-0.4,1.7-2,1.7
			c-0.5,0-1.9,0-2.3-0.3c-0.4-0.3-0.4-0.6-0.4-0.7c0-0.4,0.2-1.1,0.9-1.1c0.2,0,0.5,0,0.5,0.1c0.6,0.1,1,0.1,1,0.1
			c0.4,0,0.4-0.1,0.4-0.6V83c0-0.3-0.2-0.5-0.5-0.5h-8.8c-0.4,0-0.4,0.3-0.4,0.5v10.7c0,0.6,0,1.3-1,1.3c-0.9,0-0.9-0.4-0.9-1.3
			V82.2z M27.4,83.4c0.7,0,1.3,0,1.3,0.9c0,0.2-0.1,0.5-0.3,0.8c-0.2,0.1-0.4,0.1-0.9,0.1h-5.1c-0.7,0-1.3,0-1.3-0.9
			c0-0.2,0.1-0.5,0.3-0.8c0.2-0.1,0.4-0.1,0.9-0.1H27.4z M26.9,86.1c1.2,0,1.5,1,1.5,1.2v3.1c0,0.3-0.3,1.2-1.5,1.2h-4
			c-1.2,0-1.5-1-1.5-1.2v-3.1c0-0.3,0.3-1.2,1.5-1.2H26.9z M23.3,89.6c0,0.3,0.2,0.4,0.4,0.4h2.3c0.1,0,0.4,0,0.4-0.4v-1.3
			c0-0.3-0.2-0.4-0.4-0.4h-2.3c-0.1,0-0.4,0-0.4,0.4V89.6z"/>
		<path class="st0" d="M45.4,86.3h-4.2c-0.7,0-1.3,0-1.3-0.8c0-0.9,0.5-0.9,1.3-0.9h2.3v-1.1h-1.7c-0.7,0-1.3,0-1.3-0.8
			c0-0.9,0.6-0.9,1.3-0.9h1.7c0-0.9,0-1.5,0.9-1.5c1,0,1,0.5,1,1.5h1.7c0.6,0,1.3,0,1.3,0.8c0,0.9-0.6,0.9-1.3,0.9h-1.7v1.1h2.1
			c0.7,0,1.3,0,1.3,0.8c0,0.9-0.5,0.9-1.5,0.9v1c0.8,0,0.9,0,1,0.1c0.3,0.2,0.4,0.4,0.4,0.7c0,1-0.5,1-1.4,1v4
			c0,1.6-1.2,1.8-2.2,1.8c-0.4,0-1.7-0.1-2-0.2c-0.3-0.2-0.5-0.5-0.5-0.8c0-0.4,0.3-0.9,0.9-0.9c0.1,0,0.4,0,0.5,0.1
			c0.3,0,0.8,0.1,0.9,0.1c0.4,0,0.4-0.1,0.4-0.7v-3.2h-4.3c-0.7,0-0.8,0-1.1-0.3c-0.2,0.2-0.8,0.3-1.2,0.4v4.4c0,0.7,0,1.3-0.8,1.3
			c-1,0-1-0.5-1-1.3v-3.9c-0.4,0.1-1.7,0.4-2,0.4c-0.2,0-0.8,0-0.8-1c0-0.4,0.2-0.8,0.5-0.9c0,0,2.1-0.4,2.3-0.4v-2.8h-0.9
			c-0.3,1.3-0.3,1.5-0.4,1.7c-0.1,0.1-0.3,0.3-0.6,0.3c-0.2,0-0.9,0-0.9-0.9c0-0.2,0.2-0.9,0.2-1c0.2-0.8,0.2-1.1,0.3-2.6
			c0-0.4,0.1-1.1,0.9-1.1c0.8,0,0.8,0.6,0.8,0.9c0,0.1,0,0.4,0,0.9H37v-1.6c0-0.7,0-1.3,0.8-1.3c1,0,1,0.5,1,1.3v1.6
			c0.7,0,1.3,0,1.3,0.8c0,1-0.5,1-1.3,1v2.4c0.2-0.1,0.4-0.1,0.6-0.1c0.4,0,0.6,0.2,0.7,0.3c0.2-0.2,0.4-0.2,1.1-0.2h4.3V86.3z
			 M43.1,90.3c0.7,1,0.7,1,0.7,1.3c0,0.2-0.2,0.9-1,0.9c-0.4,0-0.6-0.3-0.8-0.5c-0.1-0.2-0.7-1.1-0.8-1.3C41,90.4,41,90.3,41,90.2
			c0-0.3,0.1-0.5,0.3-0.7c0.2-0.2,0.4-0.2,0.6-0.2C42.4,89.3,42.6,89.6,43.1,90.3z"/>
		<path class="st0" d="M52.4,82.7c-0.5,0-1.2,0-1.2-0.9c0-0.9,0.7-0.9,1.2-0.9h3.4c0.6,0,1.3,0,1.3,0.9c0,0.9-0.7,0.9-1.3,0.9h-1.3
			c-0.1,0.6-0.1,1-0.2,1.3h0.9c1,0,1.6,0.6,1.6,1.6c0,0.7-0.3,3.3-1.2,5.5c-0.7,1.6-1.9,3.2-2.4,3.7c-0.3,0.3-0.6,0.4-0.8,0.4
			c-0.3,0-0.5-0.1-0.7-0.3c-0.1-0.1-0.2-0.3-0.2-0.6c0-0.5,0-0.6,1-1.6c0.9-0.9,1.3-2.1,1.6-2.7c-0.2-0.1-1.2-0.9-1.3-1
			c-0.2-0.2-0.3-0.5-0.3-0.8c-0.1,0.1-0.4,0.3-0.7,0.3c-0.2,0-0.9-0.1-0.9-0.8c0-0.4,0.2-0.6,0.3-0.9c0.9-1.5,1.3-3,1.4-4H52.4z
			 M53.7,85.8c-0.3,0.7-0.5,1.2-0.7,1.6c0.1,0,0.1,0,0.3,0c0.4,0,0.6,0.2,1.3,0.7c0.3-1.1,0.4-1.9,0.4-2c0-0.2-0.1-0.2-0.4-0.2H53.7
			z M58.2,88c-0.6,0-0.8,0-1.1-0.3c-0.2-0.2-0.2-0.5-0.2-0.6c0-0.3,0.1-0.6,0.4-0.8c0.2-0.2,0.4-0.2,0.9-0.2h2v-1.9h-1.1
			c-0.4,1.3-0.5,1.6-1.2,1.6c-0.4,0-0.9-0.3-0.9-0.9c0-0.2,0.1-0.5,0.2-0.8c0.3-1.1,0.5-1.9,0.7-3c0-0.3,0.2-0.7,0.8-0.7
			c0.5,0,1,0.2,1,0.8c0,0.3-0.1,0.7-0.1,0.9h0.7v-0.9c0-0.7,0-1.3,0.9-1.3c1,0,1,0.5,1,1.3v0.9h2c0.5,0,1.3,0,1.3,1c0,1-0.8,1-1.3,1
			h-2v1.9h2.2c0.6,0,0.8,0,1.1,0.3c0.2,0.2,0.2,0.5,0.2,0.7c0,0.3-0.1,0.6-0.4,0.8C65,88,64.8,88,64.3,88h-1
			c0.5,1.2,1.1,2.4,1.8,3.5c0.5,0.8,0.6,0.9,0.6,1.2c0,0.6-0.4,0.9-1,0.9c-0.5,0-0.8-0.3-1.1-0.8c-0.3-0.6-1.2-2.2-1.6-3.3v4.1
			c0,0.7,0,1.3-0.9,1.3c-1,0-1-0.5-1-1.3v-4c-0.5,1.2-1.2,2.2-1.9,3.3c-0.4,0.6-0.8,0.9-1.2,0.9c-0.4,0-0.9-0.4-0.9-1
			c0-0.4,0.2-0.6,0.7-1.2c0.8-0.9,1.9-2.8,2.3-3.7H58.2z"/>
		<path class="st0" d="M73.4,81.7c0-0.4,0.5-1.1,1.2-1.1h6c0.7,0,1.3,0.4,1.3,1v11.7c0,1.5-1,1.6-2.3,1.6c-0.1,0-1.3,0-1.7-0.2
			c-0.1-0.1-0.4-0.3-0.4-0.7c0-0.5,0.2-1,0.8-1c0.1,0,0.4,0,0.5,0c0.3,0,0.6,0,0.8,0c0.3,0,0.5,0,0.5-0.3V82.7
			c0-0.1-0.1-0.3-0.3-0.3h-4.7c-0.1,0-0.3,0-0.3,0.3v10.9c0,0.7,0,1.3-0.8,1.3s-0.8-0.6-0.8-1.3V83.4c-0.1,0.1-0.3,0.4-0.7,0.4
			c-0.3,0-0.5-0.1-1.4-0.9c-0.1-0.1-0.3-0.4-0.4-0.4c0,0-0.1,0-0.1,0c-0.1,0-0.1,0-0.3,0.1c-0.8,0.7-1.5,1.4-2,1.4
			c-0.5,0-0.9-0.5-0.9-1.1c0-0.4,0.1-0.5,0.7-0.9c0.7-0.5,1-0.8,1.3-1.1c0.4-0.4,0.7-0.7,1.2-0.7c0.3,0,0.4,0.1,1,0.6
			c0.4,0.4,1.2,1,1.7,1.3V81.7z M71.4,86.9h0.5c0.7,0,0.8,0,1.1,0.2c0.1,0.1,0.2,0.3,0.2,0.6c0,0.9-0.6,0.9-1.3,0.9h-0.5v3.9
			l0.4-0.1c0.4-0.1,0.5-0.1,0.6-0.1c0.3,0,0.8,0.2,0.8,0.9c0,0.7-0.5,0.8-1.2,0.9l-2.9,0.4c-0.5,0.1-0.5,0.1-0.6,0.1
			c-0.5,0-0.8-0.4-0.8-1c0-0.3,0.2-0.5,0.2-0.5c0.2-0.1,0.4-0.2,0.9-0.3l0.9-0.1v-0.4v-3.7H69c-0.7,0-0.8,0-1.1-0.2
			c-0.1-0.1-0.2-0.3-0.2-0.6c0-0.9,0.6-0.9,1.3-0.9h0.8v-1.1h-0.4c-0.7,0-0.8,0-1.1-0.2c-0.1-0.1-0.2-0.3-0.2-0.6
			c0-0.9,0.6-0.9,1.3-0.9h2.4c0.7,0,0.8,0,1.1,0.2c0.1,0.1,0.2,0.3,0.2,0.6c0,0.9-0.6,0.9-1.3,0.9h-0.4V86.9z M68.3,89.3
			c0.2,0,0.5,0.2,0.6,0.3c0.2,0.3,0.5,1.8,0.5,2c0,0.3-0.2,0.7-0.6,0.7c-0.2,0-0.6-0.2-0.6-0.4c-0.1-0.4-0.4-1.7-0.4-2
			C67.8,89.8,67.9,89.3,68.3,89.3z M72.4,89.4c0.1-0.1,0.2-0.2,0.4-0.2c0.1,0,0.5,0,0.5,0.5c0,0.4-0.2,1.3-0.5,1.8
			c-0.1,0.2-0.3,0.3-0.6,0.3c-0.4,0-0.5-0.3-0.5-0.6C72.1,89.7,72.2,89.5,72.4,89.4z M78.5,89.7v0.4h0.3c0.1,0,0.1,0,0.1-0.1v-1.1
			c0-0.8,0-1.2,0.5-1.2c0.5,0,0.5,0.4,0.5,1.2v1.8c0,0.9-0.9,1.1-0.9,1.1h-2.4c-0.7,0-1-0.7-1-1v-1.8c0-0.9,0-1.2,0.5-1.2
			c0.5,0,0.5,0.3,0.5,1.2v1c0,0.1,0,0.2,0.1,0.2h0.3v-0.4v-2.6h-0.3c-0.7,0-0.8,0-1.1-0.2c-0.1-0.1-0.2-0.3-0.2-0.6
			c0-0.9,0.6-0.9,0.9-0.9c-0.1-0.2-0.2-0.7-0.3-0.8c0-0.1-0.2-0.6-0.2-0.8c0-0.3,0.3-0.6,0.7-0.6c0.4,0,0.6,0.2,0.7,0.4
			c0.2,0.5,0.4,1.2,0.4,1.4c0,0.2-0.1,0.3-0.1,0.4H78c0-0.2,0.4-1.7,0.4-1.7c0.1-0.4,0.2-0.6,0.7-0.6c0.4,0,0.8,0.3,0.8,0.8
			c0,0.3-0.1,0.6-0.3,1.6c0.2,0.1,0.5,0.3,0.5,0.8c0,0.8-0.6,0.8-1.3,0.8h-0.3V89.7z"/>
		<path class="st0" d="M87.6,85.5c0.6,0,1.2,0,1.2,0.9c0,0.9-0.6,0.9-1.2,0.9v3.6c0.5-0.1,0.5-0.1,0.6-0.1c0.5,0,0.8,0.4,0.8,0.9
			c0,0.7-0.6,0.9-1.4,1.1c-0.4,0.1-1.9,0.5-2.4,0.5c-0.8,0-0.9-0.6-0.9-0.9c0-0.5,0.2-0.8,0.6-0.9c0.1,0,0.8-0.2,0.9-0.2v-4
			c-0.7,0-1.3,0-1.3-0.9c0-0.9,0.6-0.9,1.3-0.9v-2.8c-0.8,0-1.4,0-1.4-0.9S85,81,85.7,81h2.1c0.7,0,1.3,0,1.3,0.9s-0.6,0.9-1.4,0.9
			V85.5z M94.6,93.6c0,0.7,0,1.3-0.8,1.3c-1,0-1-0.5-1-1.3v-1.5c-1.1,1.1-3.1,2.3-3.6,2.3c-0.7,0-0.8-0.7-0.8-0.9
			c0-0.5,0.4-0.7,0.7-0.8c1.1-0.6,2.2-1.2,3.1-2.2h-0.9c-0.5,0-0.8,0-1.1-0.3c-0.2-0.2-0.4-0.5-0.4-0.7v-1.8c0-0.4,0.4-0.9,0.9-0.9
			h6.9c0.4,0,0.9,0.5,0.9,0.9v1.8c0,0.3-0.2,0.6-0.4,0.8c0.4-0.1,1.1,0.2,1.1,0.9c0,0.4-0.1,0.6-1.1,1.4c0.1,0.1,0.8,0.4,0.9,0.5
			c0.4,0.2,0.4,0.6,0.4,0.7c0,0.3-0.3,1-0.8,1c-0.6,0-2.7-1.2-3.6-2.5V93.6z M90.1,86.3c-0.7,0-0.8,0-1.1-0.2
			c-0.1-0.1-0.2-0.3-0.2-0.6c0-0.1,0-0.4,0.4-0.7c0.2-0.1,0.4-0.1,0.9-0.1h7.7c0.7,0,0.8,0,1.1,0.2c0.1,0.1,0.2,0.3,0.2,0.6
			c0,0.1,0,0.4-0.4,0.7c-0.2,0.1-0.4,0.1-0.9,0.1H90.1z M97.6,80.6c0.3,0,1,0.3,1,1v1.5c0,0.7-0.7,1-1,1h-7.3c-0.3,0-1-0.3-1-1v-1.5
			c0-0.7,0.7-1,1-1H97.6z M91.3,82.1c-0.3,0-0.3,0-0.3,0.4c0,0.2,0.1,0.2,0.3,0.2H92v-0.6H91.3z M96.3,89.1c0.3,0,0.3-0.1,0.3-0.4
			c0-0.2,0-0.3-0.3-0.3h-4.7c-0.3,0-0.3,0-0.3,0.4c0,0.2,0,0.3,0.3,0.3H96.3z M93.5,82.7h1v-0.6h-1V82.7z M95.4,90.5
			c0.3,0.4,0.5,0.6,0.9,1c0.1-0.1,0.7-0.7,1.2-1c-0.2,0-0.2,0.1-0.6,0.1H95.4z M96,82.7h0.8c0.2,0,0.2,0,0.2-0.4
			c0-0.2-0.1-0.2-0.2-0.2H96V82.7z"/>
		<path class="st0" d="M104.4,90.6c0.4-0.1,0.6-0.1,0.7-0.1c0.3,0,0.7,0.2,0.7,0.9c0,0.1,0,0.6-0.5,0.8c-0.4,0.2-2.9,0.7-3.4,0.7
			c-0.6,0-1-0.4-1-0.9c0-0.8,0.7-1,1.6-1.1V86c-0.8,0-0.9,0-1.1-0.1c-0.3-0.2-0.4-0.4-0.4-0.7c0-0.3,0-0.6,0.4-0.8
			c0.2-0.1,0.3-0.1,1.1-0.1V82c0-0.7,0-1.3,0.9-1.3c1,0,1,0.5,1,1.3v2.2c0.6,0,0.8,0,1,0.1c0.3,0.2,0.4,0.4,0.4,0.7
			c0,0.9-0.5,0.9-1.3,0.9V90.6z M107.8,91.7c-1,0-1.3-0.8-1.3-1.3v-3.3c0-0.6,0.5-1.3,1.3-1.3h6c1,0,1.3,0.8,1.3,1.3v3.3
			c0,0.6-0.5,1.3-1.3,1.3h-0.6v0.9c0,0.3,0,0.5,0.3,0.5h0.5c0.3,0,0.3-0.2,0.4-0.6c0.1-0.2,0.3-0.3,0.6-0.3c0.6,0,1,0.5,1,0.9
			c0,0.1-0.1,0.7-0.2,1c-0.2,0.4-0.7,0.8-1.4,0.8h-1.4c-0.8,0-1.1,0-1.4-0.2c-0.3-0.2-0.4-0.6-0.4-0.8v-1.9H110
			c-0.6,2.7-3,3.3-3.6,3.3c-0.1,0-0.9,0-0.9-0.8c0-0.7,0.6-0.9,0.8-1c1.3-0.5,1.6-0.7,1.8-1.5H107.8z M114.2,81.2
			c0.7,0,0.8,0,1.1,0.2c0.2,0.2,0.2,0.4,0.2,0.6c0,0.3-0.1,0.5-0.4,0.7c-0.2,0.1-0.4,0.1-0.9,0.1h-0.5l-0.3,0.8h1.1
			c0.7,0,0.8,0,1.1,0.2c0.1,0.2,0.2,0.4,0.2,0.6c0,0.4-0.2,0.6-0.4,0.7c-0.2,0.1-0.4,0.1-0.9,0.1h-7.3c-0.7,0-0.8,0-1.1-0.2
			c-0.2-0.2-0.2-0.4-0.2-0.6c0-0.4,0.2-0.6,0.4-0.7c0.2-0.1,0.4-0.1,0.9-0.1h1l-0.3-0.8h-0.4c-0.7,0-0.8,0-1.1-0.2
			c-0.2-0.2-0.2-0.4-0.2-0.6c0-0.3,0.1-0.5,0.4-0.7c0.2-0.1,0.4-0.1,0.9-0.1h2.3c0-0.3,0-1,0.9-1c0.8,0,1.1,0.1,1.1,1H114.2z
			 M113.2,87.8c0-0.3-0.2-0.3-0.4-0.3h-4.1c-0.2,0-0.4,0-0.4,0.3v0.3h4.9V87.8z M108.3,89.5v0.4c0,0.3,0.2,0.3,0.4,0.3h4.1
			c0.2,0,0.4,0,0.4-0.3v-0.4H108.3z M109.9,83.6h1.5l0.3-0.8h-2L109.9,83.6z"/>
		<path class="st0" d="M121.2,83.8c-0.9,0-1.1,0-1.4-0.3c-0.2-0.2-0.3-0.5-0.3-0.8c0-0.5,0.3-0.8,0.5-0.9c0.2-0.2,0.5-0.2,1.2-0.2
			h6.4c0.5,0,1,0.1,1.4,0.3c0.7,0.4,0.7,1.2,0.7,1.4c0,0.4-0.2,2.3-2,4.8c0.9,0.7,1.6,1.3,2.9,2.7c1.4,1.5,1.6,1.9,1.6,2.4
			c0,0.6-0.6,1.1-1.2,1.1c-0.4,0-0.7-0.2-0.9-0.5c-1.1-1.4-2.3-2.8-3.7-3.9c-2.8,2.9-6.1,4.4-6.9,4.4c-0.5,0-1.1-0.5-1.1-1.2
			c0-0.7,0.5-0.9,0.9-1.1c1.3-0.5,3.7-1.7,5.6-3.7c2.1-2.2,2.4-4.2,2.4-4.3c0-0.3-0.1-0.3-0.5-0.3H121.2z"/>
		<path class="st0" d="M142.6,86.1c1,1.2,3.2,3.7,4.3,5.6c0.2,0.3,0.2,0.5,0.2,0.7c0,0.5-0.4,1.1-1.1,1.1c-0.6,0-0.8-0.4-0.9-0.6
			c-0.2-0.3-0.9-1.2-2.8-3.7c-2.5-2.9-2.9-3.4-3.4-3.8c-0.2-0.1-0.5-0.2-0.7-0.2c-0.6,0-0.8,0.3-3.4,3.3c-0.2,0.2-0.5,0.4-0.9,0.4
			c-0.7,0-1.2-0.6-1.2-1.2c0-0.4,0.2-0.6,0.3-0.7c1.9-2.1,2.7-3,3.9-3.8c0.3-0.2,0.7-0.5,1.4-0.5C139.1,82.7,140,83.2,142.6,86.1z
			 M144.4,84.8c-1,0-1.8-0.8-1.8-1.8c0-1,0.8-1.8,1.8-1.8s1.8,0.8,1.8,1.8C146.2,84,145.4,84.8,144.4,84.8z M144.4,82.2
			c-0.4,0-0.8,0.4-0.8,0.8c0,0.4,0.4,0.8,0.8,0.8s0.8-0.4,0.8-0.8C145.2,82.6,144.9,82.2,144.4,82.2z"/>
		<path class="st0" d="M153,88.6c-0.4,0-0.4,0-2-1c-1.4-0.8-1.6-0.9-1.7-1.1c-0.1-0.1-0.1-0.3-0.1-0.5c0-0.6,0.5-1,1-1
			c0.5,0,1.5,0.6,2.1,0.9c1.5,0.9,1.7,1.1,1.7,1.6C154,88.2,153.5,88.6,153,88.6z M150.3,94.1c-0.3-0.2-0.5-0.6-0.5-1
			c0-0.4,0.3-1.2,1-1.2c0.1,0,0.6,0,0.6,0c0.9,0,4-0.2,6.3-2.4c1.2-1.1,2.3-2.6,2.9-4.1c0.3-0.7,0.8-0.7,1-0.7
			c0.8,0,1.2,0.5,1.2,1.1c0,0.5-1,3.1-3.7,5.5c-3,2.6-6.5,2.9-7.9,2.9C150.8,94.3,150.5,94.3,150.3,94.1z M155.5,82.8
			c0.3,0.3,0.5,0.5,0.5,0.9c0,0.6-0.5,1.1-1.1,1.1c-0.3,0-0.5-0.1-1.7-0.9c-0.2-0.2-1.1-0.7-1.4-0.9c-0.1-0.1-0.6-0.3-0.6-0.9
			c0-0.6,0.6-1.2,1.2-1.1C153.1,81.1,155.2,82.5,155.5,82.8z"/>
		<path class="st0" d="M168.8,85.2c-0.1-0.5-0.1-0.7-0.1-0.9c0-0.8,0.8-0.9,1.1-0.9c0.3,0,0.6,0.2,0.7,0.3c0.2,0.2,0.3,0.5,0.4,1.2
			l0.2,1.1l4.3-0.7c0.1,0,0.2,0,0.4,0c0.7,0,1.7,0.3,1.7,1.7c0,1.3-1.2,2.8-1.4,3c-0.4,0.5-1.3,1.3-1.9,1.3c-0.9,0-1-0.8-1-1
			c0-0.4,0.1-0.5,1.3-1.5c0.3-0.2,1-1,1-1.4c0-0.2-0.1-0.2-0.3-0.1l-3.7,0.6l0.9,5.3c0.1,0.6,0.1,0.7,0.1,0.9c0,0.8-0.6,1-1,1
			c-0.8,0-0.9-0.6-1.1-1.5l-1-5.3l-1.7,0.3c-0.6,0.1-0.6,0.1-0.8,0.1c-1,0-1-0.8-1-1c0-0.4,0.3-0.7,0.4-0.7c0.2-0.2,0.5-0.2,1.2-0.3
			l1.6-0.3L168.8,85.2z"/>
		<path class="st0" d="M181.4,93.3c-0.4,0.5-0.7,0.6-1,0.6c-0.6,0-1.2-0.4-1.2-1.1c0-0.3,0.2-0.6,0.4-0.9c0.8-1.1,2-2.9,2-6.8
			c0-0.4,0-2.1,0-2.3c0-0.7,0.4-1,1.1-1c1,0,1.1,0.8,1.1,0.9c0,0.2,0,2.3,0,2.7C183.8,85.5,183.8,90.2,181.4,93.3z M188,90.7
			c0,0.4,0,0.4,0.1,0.4c0.3,0,1.9-0.8,2.7-2.6c0.4-1,0.6-1.7,0.7-2.3c0.1-0.5,0.4-0.8,1-0.8c0.7,0,1.1,0.5,1.1,1
			c0,0.4-0.4,2.9-2,4.9c-0.9,1.1-2.5,2.5-4.2,2.5c-1.6,0-1.6-1.2-1.6-1.9v-8.9c0-0.9,0-1.1,0.3-1.4c0.1-0.2,0.4-0.3,0.8-0.3
			c0.5,0,0.7,0.2,0.9,0.3c0.3,0.3,0.3,0.5,0.3,1.4V90.7z"/>
		<path class="st0" d="M205,82.7c0-0.9,0-1.1,0.3-1.4c0.1-0.1,0.3-0.3,0.8-0.3c0.2,0,0.6,0,0.9,0.5c0.2,0.2,0.2,0.5,0.2,1.2v1.5h1.4
			c0.9,0,1.1,0,1.4,0.3c0.1,0.1,0.3,0.4,0.3,0.8c0,0.4-0.2,0.7-0.5,0.9c-0.2,0.2-0.5,0.2-1.2,0.2h-1.4v0.8c0,2.1-0.1,4.5-2.9,6.3
			c-1.6,1-3.1,1.2-3.5,1.2c-0.7,0-1.1-0.5-1.1-1.2s0.6-0.9,0.9-1c2-0.5,2.5-0.6,3.3-1.4c0.8-0.8,1.2-2,1.2-3.8v-0.9h-4v1.4
			c0,0.9,0,1.1-0.3,1.4c-0.1,0.1-0.3,0.3-0.8,0.3c-0.3,0-0.7-0.1-0.9-0.5c-0.2-0.2-0.2-0.5-0.2-1.2v-1.4h-1.5c-0.9,0-1.1,0-1.4-0.3
			c-0.1-0.1-0.3-0.4-0.3-0.8c0-0.4,0.2-0.7,0.5-0.9c0.2-0.2,0.5-0.2,1.2-0.2h1.5v-1.5c0-0.9,0-1.1,0.3-1.4c0.1-0.1,0.3-0.3,0.8-0.3
			c0.3,0,0.7,0.1,0.9,0.5c0.2,0.2,0.2,0.5,0.2,1.2v1.5h4V82.7z"/>
		<path class="st0" d="M220.9,92.7c0,0.9,0,1.1-0.3,1.4c-0.1,0.1-0.4,0.3-0.8,0.3c-0.6,0-0.8-0.1-0.9-0.3c-0.3-0.3-0.3-0.5-0.3-1.4
			v-5.4c-2.4,1.3-5.2,2.1-5.7,2.1c-0.6,0-1.1-0.5-1.1-1.2c0-0.8,0.6-1,1.2-1.1c1.5-0.4,3.9-1,6.9-3.3c0.9-0.7,1.8-1.6,2.6-2.5
			c0.1-0.2,0.4-0.4,0.8-0.4c0.5,0,1.2,0.5,1.2,1.2c0,0.4-0.2,0.6-0.3,0.8c-0.9,1-2.2,2.2-3.2,3V92.7z"/>
		<path class="st0" d="M231.7,92.9c0,0.9,0,1.1-0.3,1.4c-0.1,0.1-0.4,0.3-0.8,0.3c-0.6,0-0.7-0.1-0.9-0.3c-0.3-0.3-0.3-0.6-0.3-1.4
			V82.4c0-0.9,0-1.1,0.3-1.4c0.1-0.1,0.4-0.3,0.8-0.3c0.6,0,0.7,0.1,0.9,0.3c0.3,0.3,0.3,0.6,0.3,1.4V85c1.5,0.3,3.7,1.1,5.2,1.7
			c0.8,0.4,1.4,0.6,1.4,1.3c0,0.6-0.4,1.2-1.1,1.2c-0.2,0-0.3,0-1.6-0.6c-1.3-0.6-2.6-1-3.9-1.4V92.9z"/>
	</g>
	<g>
		<g>
			<g>
				<defs>
					
						<ellipse id="SVGID_1_" transform="matrix(0.3771 -0.9262 0.9262 0.3771 -11.0699 56.5406)" cx="36.5" cy="36.5" rx="36" ry="36"/>
				</defs>
				<clipPath id="SVGID_2_">
					<use xlink:href="#SVGID_1_"  style="overflow:visible;"/>
				</clipPath>
			</g>
		</g>
		<g>
			<g>
				<defs>
					
						<ellipse id="SVGID_3_" transform="matrix(0.3771 -0.9262 0.9262 0.3771 -11.0699 56.5406)" cx="36.5" cy="36.5" rx="36" ry="36"/>
				</defs>
				<clipPath id="SVGID_4_">
					<use xlink:href="#SVGID_3_"  style="overflow:visible;"/>
				</clipPath>
				<path class="st1" d="M38.9,0.3c0.2,0.2,0.1,0,0.2,0c0.2,0,0.3,0,0.3,0.1c0.1,0.1,0,0.1,0,0.1c-0.1,0-0.1,0.1,0,0.2
					C39.5,0.9,39.6,1,39.9,1c0.3,0,0.6,0,0.8,0.1c0.2,0.1,0.3,0.2,0.1,0.2c-0.2,0-0.2-0.1-0.2,0.1c0,0.1,0,0.1-0.3,0.1
					s-0.5-0.1-0.7,0c-0.2,0-0.1,0.2-0.3,0.2c-0.2,0-0.4,0-0.5,0.1c-0.1,0.1-0.2,0.1-0.4,0.1c-0.2,0-0.3,0-0.5,0
					c-0.2,0-0.1,0.1-0.2,0.1c-0.1,0-0.2-0.1-0.3,0C37.4,2,37.5,2,37.2,2c-0.3,0-0.2,0-0.3,0c-0.1,0.1-0.2,0.1-0.6,0.1
					c-0.4,0-0.5-0.1-0.7-0.1C35.4,2,35.3,2,35.5,2c0.1-0.1,0-0.2,0-0.1c-0.1,0.1-0.2,0.1-0.2,0c-0.1,0-0.1-0.1-0.1-0.1
					c0-0.1-0.1,0-0.1,0c0,0.1-0.1,0.1-0.2,0.1c-0.1,0,0.1,0.1-0.2,0.2c-0.2,0-0.4,0.1-0.4-0.2c0-0.2,0.1-0.2,0-0.4
					c-0.1-0.2-0.2-0.1-0.3-0.1c-0.1,0.1-0.1-0.1-0.3-0.1c-0.2,0-0.2,0-0.2-0.1c0,0,0.2-0.1,0-0.1c-0.2,0-0.3,0-0.3-0.1
					c-0.1,0-0.1,0-0.2,0c-0.1,0-0.1-0.1-0.1-0.2c0.1-0.1,0.3-0.1-0.1-0.2c-0.3,0-0.7,0-0.2-0.2c0.5-0.2,0.7-0.1,1.3-0.2
					c0.6-0.1,1.2-0.2,2.7-0.2C38.1,0.2,38.7,0.2,38.9,0.3z M41.5,1.6c-0.3,0-0.5,0-0.6,0c-0.1,0-0.1,0.1-0.6,0.1
					c-0.5,0-0.6,0-0.9,0.1c-0.3,0.1-0.4,0-0.6,0.1c-0.2,0-0.2,0.1,0.1,0.2c0.3,0.1,0.5,0.2,0.8,0.2c0.3,0,0.4-0.1,0.5,0
					c0.1,0.1,0.1,0.2,0.3,0.1c0.2,0,0.2,0,0.3,0c0.2,0,0.2,0,0.3,0c0.1,0,0.1-0.1,0-0.2c-0.1-0.1-0.1-0.2,0.1-0.1
					c0.2,0.1,0.2,0.2,0.1,0.2c-0.1,0.1,0,0.2,0.3,0.1c0.3-0.1,0.4-0.1,0.6-0.1c0.2,0,0.1,0,0.3-0.1c0.2-0.1,0.3,0,0.3-0.1
					c0-0.1,0-0.1-0.2-0.1c-0.2,0-0.3-0.1-0.2-0.2c0.1-0.1,0.1,0,0.3,0.1C42.9,2,43,2.2,43.2,2.1c0.1,0,0.3-0.1,0.4,0.1
					c0.1,0.1,0.2,0.2,0.3,0.2c0.1,0,0.1-0.1,0.1-0.2c-0.1-0.1,0-0.1,0.2-0.1c0.1,0,0.2,0.1,0.2,0.2c0,0.1,0,0.1-0.2,0.1
					c-0.1,0-0.1,0.2,0.1,0.2c0.2,0.1,0.3-0.1,0.3,0.1c0,0.1,0,0.2,0.2,0.1c0.2-0.1,0.2-0.2,0.3-0.2c0.1,0,0-0.2-0.1-0.2
					c-0.2,0-0.1-0.1-0.2-0.1c0-0.1-0.3-0.1-0.4-0.1c-0.1-0.1-0.2-0.1-0.4-0.3c-0.2-0.1-0.4-0.1-0.7-0.2c-0.3-0.1-0.2-0.1-0.5-0.1
					c-0.3,0-0.3,0.1-0.1,0.1C43,1.6,43,1.7,43.3,1.7c0.2,0.1,0.4,0.1,0.4,0.2c0,0.1-0.1,0.1-0.4,0c-0.3-0.1-0.3-0.1-0.5-0.2
					c-0.2-0.1-0.2-0.1-0.4-0.1c-0.3,0-0.3,0-0.5,0.1C41.6,1.6,41.5,1.6,41.5,1.6z M42.5,2.6C42.7,2.6,42.7,2.5,42.5,2.6
					C42.4,2.5,42.4,2.6,42.5,2.6z M43.1,2.3c-0.1,0-0.2,0.1-0.1,0.2c0.1,0.1,0.2,0.1,0.2,0c0.1-0.1,0.2-0.1,0.3-0.1
					c0.1-0.1,0-0.2-0.2-0.1C43.2,2.3,43.2,2.3,43.1,2.3z M43.2,2.6c-0.1,0.1-0.1,0.2,0,0.2c0.1,0,0.2,0,0.3,0c0.1-0.1,0.1,0,0.2,0
					c0.1,0,0.1-0.1,0.1-0.1c-0.1-0.1,0,0,0-0.1c0-0.1-0.1-0.1-0.3-0.1C43.4,2.5,43.3,2.5,43.2,2.6z M44.3,2.9c0.1,0,0-0.1,0.1-0.1
					c0.1,0,0.1-0.1-0.1-0.1C44.1,2.7,44.2,2.8,44.3,2.9z M43.9,2.6C43.9,2.6,43.9,2.5,43.9,2.6C43.8,2.6,43.8,2.6,43.9,2.6z M44.3,3
					c-0.1,0-0.1-0.1-0.2-0.1c-0.1,0-0.2,0.1-0.1,0.1c0.1,0,0.1,0,0.2,0.1C44.2,3.2,44.2,3.1,44.3,3c0.1,0.1,0.2,0.1,0.3,0.2
					c0.1,0.1,0.1,0,0.2,0c0.1,0,0.1,0,0-0.1C44.7,3,44.6,3,44.4,3C44.4,3,44.4,3,44.3,3z M45,2.9c-0.2,0-0.1,0.1,0,0.2
					c0.2,0,0.2,0,0.4,0c0.1,0,0.1-0.1,0.2,0c0.1,0.1,0,0.1-0.1,0.1c-0.1,0,0,0.1-0.1,0.1c-0.1,0-0.1-0.1-0.1-0.1
					c-0.1,0,0,0.1-0.1,0.1c-0.1,0-0.2-0.1-0.2,0c-0.1,0.1,0.1,0.1,0.5,0.3c0.4,0.2,0.5,0.2,0.6,0.3c0.2,0,0.1-0.1,0.1-0.3
					c0-0.1,0.1-0.1,0.2,0c0.1,0,0.1-0.1,0-0.2c-0.1-0.1-0.2-0.1-0.1-0.1c0,0,0.1,0,0.3,0.1c0.1,0.1,0.2,0,0-0.1
					C46.3,3.1,46.2,3.2,46,3c-0.2-0.1-0.2-0.2-0.4-0.3c-0.1-0.1-0.1-0.1-0.2,0C45.3,2.8,45.2,2.9,45,2.9z M47.7,2.6
					c0.1,0.1,0,0.2-0.3,0.3c-0.3,0-0.5,0-0.7,0c-0.2-0.1-0.1-0.1-0.3-0.1c-0.2,0-0.2,0-0.1,0.1C46.6,3,46.7,3,46.9,3.1
					c0.2,0.1,0.4,0,0.5,0.2c0.1,0.2-0.1,0.2-0.3,0.3c-0.2,0-0.2,0.1-0.2,0.3c0.1,0.3,0.2,0.3,0.6,0.3c0.3,0,0.3,0.1,0.6,0.2
					c0.3,0.1,0.3,0.1,0.6,0.1c0.4,0,0.5,0,0.3-0.1c-0.3-0.2-0.4-0.2-0.6-0.3C48.3,4,48.4,4,48.5,4c0.2,0,0.2,0,0.2-0.1
					c0-0.1,0.1,0,0.2,0.1C49,4.1,49,4.1,49.1,4c0.1,0,0-0.1-0.1-0.2c0-0.1,0.1,0,0.3,0.1c0.1,0.2,0.1,0.1,0.3,0.1
					c0.2,0,0.1-0.1,0.1-0.2c0-0.1,0.1,0,0.2,0c0.1,0,0.3,0,0-0.2c-0.3-0.1-0.4-0.2-0.6-0.4C49,3.2,49.1,3.2,48.9,3
					c-0.2-0.2-0.2-0.2-0.3-0.3c-0.1-0.1,0-0.2,0.2,0C49,2.9,49.1,3,49.3,3.2c0.3,0.2,0.3,0.2,0.6,0.3c0.3,0,0.6,0.1,0.4,0.1
					c-0.3,0-0.2,0,0,0.2c0.2,0.2,0.3,0.4,0.1,0.3c-0.2-0.1-0.5-0.2-0.4,0c0.1,0.2,0.2,0.2,0,0.3c-0.2,0.1-0.2,0.2,0.1,0.2
					c0.2,0,0.3,0.2,0.2,0.3c-0.1,0.1-0.2,0-0.5,0c-0.2,0-0.3,0.1,0,0.3c0.3,0.2,0.3,0.2,0.4,0.4c0.1,0.2,0.1,0.2,0.2,0.4
					c0.2,0.2-0.1,0.2-0.2,0.3c-0.2,0.1-0.1,0.1-0.3,0.2c-0.2,0-0.1,0.2-0.2,0.3c-0.2,0.1-0.1,0.3-0.5,0.3c-0.4,0-0.3,0.1-0.6,0.2
					c-0.2,0.1-0.1,0.3,0,0.6c0.1,0.4,0.1,0.4,0.3,0.5c0.2,0.2,0.2,0.3,0,0.4c-0.2,0.1,0,0.2,0.3,0.2c0.3,0.1,0.5,0.1,0.8,0.1
					c0.2,0.1,0.3,0,0.6,0c0.3-0.1,0.3,0,0.3,0.2c0,0.2-0.2,0.3-0.3,0.2c-0.1-0.1-0.2-0.1-0.3,0c-0.1,0.1,0,0.2,0,0.5
					c0,0.2,0.1,0.3,0.2,0.3c0.2,0,0.2-0.1,0.3,0c0.1,0.1,0.2,0.2,0.4,0.1c0.3-0.1,0.2-0.2,0.3-0.3c0.1-0.2,0-0.3,0.2-0.3
					c0.2,0.1,0.1,0.2,0.3,0.2c0.2,0.1,0.4,0.3,0.2,0.5c-0.1,0.2-0.2,0.1-0.3,0.2c-0.1,0-0.1,0.2,0.1,0.3c0.2,0.1,0.3,0.2,0.4,0.5
					c0.1,0.3,0.2,0.1,0.5,0.3c0.3,0.2,0.3,0.2,0.6,0.3c0.3,0.1,0.4-0.1,0.7,0c0.3,0.1,0.2,0.2,0.4,0.2c0.2,0,0.1-0.2,0.3-0.2
					c0.2,0,0.1-0.1,0.3-0.1c0.2,0,0.1-0.1,0.3,0.1c0.2,0.2,0.3,0.4,0.4,0.6c0.2,0.2,0.1,0.1,0.1,0.4c0,0.3,0.1,0.3,0.1,0.4
					c-0.1,0.1-0.1,0.1-0.1,0.3c0.1,0.2,0.2,0.3,0.1,0.4c-0.1,0.1-0.2,0.1-0.1,0.3c0,0.2,0.1,0.2,0.2,0.1c0.1-0.1,0-0.2,0-0.3
					c0-0.2,0-0.2,0-0.4c0-0.2,0.1-0.2,0.1-0.4c-0.1-0.2,0.1-0.3,0-0.5c-0.1-0.2-0.1-0.2-0.1-0.4c0-0.2-0.1-0.2-0.2-0.5
					c-0.1-0.3-0.1-0.5-0.2-0.6c-0.1-0.2-0.1-0.1-0.3-0.2c-0.2-0.1-0.2-0.1-0.3-0.3c-0.1-0.2,0-0.3,0.2-0.3c0.2,0.1,0.1,0.1,0.2,0.1
					c0.1,0,0.1-0.1-0.1-0.3c-0.1-0.2-0.2-0.2-0.1-0.2c0.1,0,0.1-0.1-0.1-0.2c-0.2-0.1-0.4-0.2-0.3-0.3c0.1-0.1,0.2-0.1,0.3,0
					c0.1,0.2,0.1,0.2,0.2-0.1c0.1-0.3,0.2-0.1,0.2-0.3c0-0.2,0.1-0.2,0.2-0.2c0.1,0,0.1,0,0.2-0.1c0.1-0.1,0.2-0.1,0.4,0
					c0.3,0.1,0.3,0,0.5,0c0.2,0,0.4,0,0.7,0.2c0.3,0.2,0.4,0,0.7,0.2c0.3,0.2,0.4,0.2,0.5,0.2c0.1-0.1,0-0.1-0.1-0.2
					c-0.1-0.1-0.1-0.2,0.1-0.2c0.2,0,0.3,0.2,0.5,0.3c0.2,0.1,0.3,0,0.5,0.1c0.2,0.1,0.3,0.1,0.6,0.1c0.2,0.1,0.4,0,0.6,0
					c0.3,0,0.6,0.2,0.8,0.4c0.2,0.2,0,0.2,0.4,0.5c0.4,0.3,0.9,0.6,1.4,1.2c0.6,0.5,1.3,1.2,2,1.9c0.7,0.7,1.1,1,1.3,1.2
					c0.2,0.1,0.1,0-0.1-0.3c-0.3-0.3-1.2-1.5-2-2.2c-0.7-0.8-1.3-1.4-1.8-1.9c-0.5-0.5-1.5-1.4-2.7-2.4c-1.2-1-2.7-1.9-3.3-2.3
					c-0.6-0.3-2-1.3-3.4-1.9c-1.3-0.6-3.8-1.4-4.8-1.8c-1-0.4-1.3-0.6-1.6-0.7c-0.3-0.1-0.3,0-0.2,0.1c0.1,0.1,0.3,0.2,0,0.1
					c-0.3-0.1-0.5-0.2-0.7-0.2c-0.3-0.1-0.2,0-0.6-0.1c-0.3,0-0.4-0.1-0.5-0.2c-0.1-0.1,0.2,0,0.3,0c0.1,0,0-0.1-0.4-0.2
					c-0.4,0-0.4-0.1-0.9-0.2c-0.4,0-0.4-0.1-0.8-0.1C43,0.6,43,0.6,42.7,0.6c-0.3-0.1-0.1-0.1-0.5-0.1c-0.4,0-0.5,0-0.2,0.1
					c0.3,0.1,0.4,0.2,0.6,0.3C42.8,1,42.9,0.9,43,1c0.1,0.1,0.1,0.2,0.2,0.3c0.1,0.1,0.1,0.1,0.3,0.1c0.1,0,0.1-0.1,0-0.1
					c-0.1,0,0-0.1,0.2,0c0.2,0,0.5,0.1,0.2,0.1c-0.3,0-0.3,0.1-0.1,0.1c0.2,0,0.2,0,0.3,0.1c0.1,0.1,0.1,0.1,0.2,0.1
					c0.1,0,0.1,0.1,0.3,0.1c0.2,0,0.3,0,0.5,0c0.2,0,0.4,0.1,0.6,0c0.2,0,0.4,0,0.2-0.1c-0.2-0.1-0.1-0.1,0.2-0.1
					c0.3,0,0.4,0,0.4,0.1c0.1,0.1,0,0.2-0.1,0.3c-0.2,0.1-0.4,0.1-0.7,0.1c-0.3,0-0.2,0-0.5-0.1c-0.3-0.1-0.5-0.1-0.4,0
					c0.1,0.1,0.2,0.1,0.4,0.2c0.3,0.1,0.2,0.1,0.3,0.2c0.1,0.1,0.2,0.1,0.4,0.2c0.2,0.1,0.5,0,0.5,0c0.1,0.1,0.1,0.2,0.2,0.1
					c0.1,0,0.1-0.2,0.3-0.2c0.1,0-0.1-0.1,0.2-0.2C47.4,2.3,47.6,2.4,47.7,2.6z M45.7,9.4c0.1-0.1,0.3-0.2,0.4-0.4
					c0.2-0.2-0.2-0.3-0.5-0.1C45.3,9.3,45.5,9.5,45.7,9.4z M60.2,10.3c0.1,0,0-0.1-0.2-0.2c-0.2-0.1-0.4-0.1-0.6-0.2
					c-0.2-0.1-0.3-0.1-0.2,0.1C59.5,10.1,60.1,10.3,60.2,10.3z M56.6,12.1c0.2,0,0-0.5-0.3-0.7c-0.3-0.2-0.2-0.2-0.2,0.1
					C56.2,11.9,56.4,12.1,56.6,12.1z M53.1,12.5c0.3,0.1,0.3-0.3,0.1-0.3C52.9,12.2,52.8,12.4,53.1,12.5z M56.1,14.9
					C56.2,14.9,56.2,14.8,56.1,14.9C55.9,14.9,56,15,56.1,14.9z M56,15.3c0.1,0,0.1,0,0.1,0.3c0.1,0.2,0.1,0.1,0.1-0.2
					c0-0.2,0-0.4-0.2-0.3C55.8,15.1,55.9,15.3,56,15.3z M55.8,15.5c0,0.1,0.1,0.1,0.1,0.2c0,0.1,0.1,0.3,0.1,0.1
					C56.1,15.6,56,15.4,55.8,15.5C55.8,15.4,55.8,15.4,55.8,15.5z M55.8,16.1c0.1,0,0.1-0.1,0.1-0.1C55.8,16,55.7,16.1,55.8,16.1z
					 M55.7,16.4c0.1,0,0.1-0.1,0-0.1C55.6,16.2,55.7,16.3,55.7,16.4z M55.5,16.6C55.4,16.6,55.3,16.7,55.5,16.6
					C55.5,16.8,55.5,16.7,55.5,16.6z M55.3,17c0.1-0.1,0-0.2-0.1-0.1C55.2,16.9,55.2,17,55.3,17z M55.1,16.9c0-0.1-0.1-0.1-0.1,0.1
					c0,0.2,0,0.2-0.1,0.2c-0.1,0.1,0.1,0.1,0.2,0C55.1,17,55.1,16.9,55.1,16.9z M54.6,17.5c0.1-0.1,0.1-0.3,0-0.2
					C54.5,17.4,54.5,17.6,54.6,17.5z M54.2,17.7c0.1,0,0.1-0.2,0-0.1C54.1,17.6,54.1,17.7,54.2,17.7z M53.2,18c0.1,0,0.1-0.1,0-0.1
					C53.1,17.9,53.1,18,53.2,18z M53.1,18.3C53.2,18.3,53.2,18.2,53.1,18.3C52.9,18.2,53,18.3,53.1,18.3z M52.6,18.2
					c0-0.1-0.1-0.2-0.1,0C52.4,18.3,52.6,18.4,52.6,18.2z M50.8,18.3c0.2,0,0.2-0.2,0-0.2C50.7,18.1,50.7,18.3,50.8,18.3z
					 M51.2,18.5c0.1,0,0.1-0.2,0-0.2C51.1,18.3,51.1,18.4,51.2,18.5z M48.1,17.6c-0.2-0.2-0.3-0.1-0.1,0.1
					C48.2,18.1,48.3,17.8,48.1,17.6z M46.4,15.3c0.1,0,0-0.1,0.1-0.3c0.1-0.1,0.1-0.2,0.1,0c0,0.2,0,0.2,0.2,0.1
					c0.1,0,0.1-0.2,0.1-0.4c0.1-0.1,0.4-0.3,0.6-0.1c0.3,0.2,0.3,0.2,0.3,0c0-0.2,0.1-0.2,0.1-0.5c0.1-0.3,0.3-0.4,0.4-0.6
					c0.1-0.3,0.2-0.2,0.2-0.4c0.1-0.2,0.1-0.2,0.4-0.2c0.3,0,0.2-0.2-0.1-0.3c-0.2-0.2-0.6-0.3-0.7-0.5c-0.1-0.1-0.1-0.2,0-0.4
					c0.1-0.2,0-0.2-0.2-0.4c-0.2-0.2-0.1-0.3,0-0.2c0.1,0,0.3,0.1,0.2,0c-0.1-0.1,0.1-0.2,0.3,0c0.2,0.2,0.3,0.1,0.3,0
					c0.1-0.1,0.3-0.1,0.4,0c0.1,0.1,0.1,0.1,0.4,0.2c0.3,0,0.4,0.1,0.5,0c0.1-0.1-0.1-0.3-0.3-0.4c-0.2-0.2-0.1-0.1,0-0.2
					c0.1-0.1,0.1-0.3-0.1-0.3c-0.2-0.1-0.3-0.2-0.6-0.2c-0.3,0-0.4,0.1-0.2,0.3c0.1,0.2-0.1,0-0.3-0.2c-0.2-0.2-0.4-0.1-0.8-0.2
					c-0.4-0.1-0.6,0-1,0c-0.4,0-0.7-0.1-1.3-0.1c-0.6,0-0.7,0.1-0.7,0.3c0,0.3-0.1,0.2-0.2,0c-0.1-0.2-0.3-0.1-0.3,0.1
					c-0.1,0.2-0.3,0.2-0.7,0.3c-0.4,0-0.4,0-0.7-0.1c-0.2-0.2-0.3-0.2-0.6-0.3c-0.3-0.1-0.6-0.1-1,0.2c-0.4,0.2-0.4,0.2-0.6,0
					c-0.1-0.2-0.3-0.1-0.5-0.3c-0.2-0.2-0.3-0.3-0.6-0.2c-0.2,0.1-0.5,0-0.8-0.1c-0.3-0.1-0.4-0.1-0.3-0.1c0.1,0,0.2,0,0.1-0.2
					c-0.1-0.2-0.2-0.1-0.4-0.2c-0.2-0.1-0.3,0-0.3,0.3c0,0.3,0.1,0.1,0,0.4c-0.1,0.3-0.2,0.3-0.5,0.4c-0.3,0.1-0.5,0.1-0.7,0.1
					c-0.2-0.1-0.2-0.2-0.3,0c-0.1,0.2,0,0.3-0.2,0.3c-0.2,0-0.3-0.1-0.4-0.5c-0.1-0.4,0-0.2,0.1-0.4c0.1-0.3-0.1-0.2-0.5-0.4
					c-0.4-0.2-0.5-0.1-0.6,0.1c0,0.2-0.2,0.2-0.5,0.1c-0.3,0-0.4-0.1-0.3-0.2c0.1-0.1,0.1-0.1-0.1-0.2c-0.2-0.1-0.4-0.1-0.6-0.1
					c-0.2,0-0.2-0.2,0-0.2c0.2,0,0.1-0.1,0-0.2c-0.2,0-0.1-0.2,0.1-0.2c0.1,0,0.2,0,0.4-0.2c0.2-0.2,0.1-0.4-0.1-0.5
					c-0.2-0.1-0.3,0-0.5,0c-0.2,0,0.1-0.2,0-0.4c-0.1-0.2-0.2-0.2-0.5-0.1c-0.3,0.1-0.4,0.3-0.8,0.3c-0.3,0-0.2-0.1-0.5-0.2
					c-0.3,0-0.5,0-0.8,0c-0.3,0-0.2,0-0.6,0c-0.4,0-0.5,0-0.5,0.2c0,0.2-0.2,0.1-0.4,0.1c-0.3,0-0.3-0.2-0.5-0.3
					c-0.3,0-0.2,0-0.4,0.3c-0.2,0.3-0.2,0.4-0.4,0.4c-0.1,0,0-0.1,0-0.3c0-0.2,0-0.2-0.2-0.2c-0.2,0-0.2,0,0-0.1
					c0.1-0.1,0.2-0.3,0-0.3c-0.2,0-0.1,0.2-0.4,0.3c-0.3,0.1-0.5,0.2-0.6,0.2c-0.1-0.1,0-0.2,0.3-0.3c0.3-0.1,0.4-0.1,0.5-0.2
					C27.3,7.1,27.2,7,27,7c-0.2,0-0.2,0.1-0.6,0.2c-0.3,0.1-0.5,0-0.8,0.1c-0.3,0.1-0.4,0.2-0.7,0.6c-0.3,0.4-0.4,0.5-0.5,0.3
					c-0.1-0.2,0-0.2,0.1-0.4c0.1-0.3,0.1-0.2,0.1-0.4c0-0.2,0-0.2,0.2-0.4c0.1-0.2,0-0.3-0.2-0.1c-0.2,0.2-0.3,0.2-0.5,0.5
					c-0.3,0.3-0.4,0-0.3,0c0.1-0.1,0.2-0.2,0.1-0.2c-0.1,0-0.1,0.1-0.2-0.1c-0.1-0.2-0.3-0.2-0.1-0.2c0.2,0,0.3-0.1,0-0.2
					c-0.3-0.1-0.3,0-0.4-0.2c-0.1-0.1-0.4-0.1-0.2-0.2c0.1-0.1,0.2,0,0.4-0.2c0.2-0.2,0.1-0.3-0.1-0.1c-0.2,0.2-0.5,0.1-0.8,0.3
					c-0.3,0.2-0.3,0.1-0.4-0.1c-0.1-0.2-0.3-0.2-0.4,0c-0.2,0.2-0.3,0.3-0.4,0.2c-0.1-0.1,0.1-0.2,0.2-0.3c0.2-0.2-0.1-0.2-0.3,0
					c-0.2,0.2-0.2,0.3-0.3,0.2C20.8,6.1,20.9,6,21,6c0.1-0.1,0.2-0.1,0.4-0.3c0.2-0.1,0.2-0.2,0.4-0.2c0.2,0,0.3-0.1,0.5-0.2
					c0.2-0.2,0.5-0.3,0.3-0.1c-0.2,0.2-0.2,0.2-0.5,0.5c-0.3,0.3,0,0.3,0.3,0.3c0.3,0,0.2-0.1,0.6-0.3c0.4-0.1,0.6-0.1,0.9-0.1
					c0.3,0,0.4-0.3,0.6-0.4c0.3-0.1,0.5-0.2,0.9-0.2c0.4,0,0.2-0.3,0.1-0.4c-0.2-0.1-0.2,0-0.4,0c-0.1,0-0.2-0.1-0.4,0.1
					c-0.2,0.2-0.5,0.2-0.5,0.1c0-0.1,0.1-0.1,0.2-0.1c0.1,0,0.1-0.2,0.2-0.3c0.1-0.1,0.2-0.1,0.3,0c0.1,0.1,0.3-0.1,0.4-0.3
					c0.2-0.1,0.2-0.2,0.2-0.4c0-0.2,0.2-0.2,0.1-0.3c-0.1-0.2-0.4-0.1-0.6,0c-0.3,0-0.5-0.1-0.8,0c-0.4,0.1-0.7,0.1-0.5,0
					c0.1-0.1,0.2-0.2,0-0.2c-0.2,0-0.4,0.1-0.7,0.2c-0.3,0.1-0.5,0.1-0.9,0.3c-0.4,0.2-0.6,0.4-0.9,0.5c-0.3,0.1-0.4,0-0.8,0.3
					c-0.4,0.3-0.6,0.2-1.1,0.6c-0.5,0.4-0.1,0.5,0,0.3c0.1-0.1,0.1-0.2,0.4-0.3c0.3-0.2,0.4-0.1,0.7-0.1s0.4-0.3,0.6-0.4
					c0.2-0.1,0.7-0.2,1-0.3c0.3,0,0.1,0,0.4,0.1c0.3,0.1,0.3-0.1,0.6-0.1c0.2,0,0.3,0.1,0,0.3c-0.3,0.2-0.3,0.1-0.6,0.1
					c-0.4,0-0.3-0.1-0.6,0c-0.3,0.1-0.6,0-1.1,0.4c-0.5,0.3-0.6,0.4-0.6,0.7c-0.1,0.3-0.4,0.3-0.5,0.5c-0.2,0.2-0.2-0.2,0-0.4
					c0.2-0.2,0.2-0.2,0.1-0.3c-0.1-0.1-0.3,0-0.6,0.4c-0.4,0.4-0.4,0.2-0.4,0.2c0-0.1,0.2-0.2,0.3-0.4c0.1-0.1-0.2-0.1-0.5,0.1
					C18,5.9,17.8,6,17.7,6c-0.1-0.1,0.1-0.2,0.1-0.2c0.1-0.1,0.5-0.4,0.7-0.5c0.2-0.2-0.1,0-1.5,0.9c-1.9,1.2-4.4,3.2-5.6,4.3
					C10.3,11.5,9.8,12,9,13c-0.9,1.2-1.3,1.6-1.4,1.9c-0.1,0.4,0.2,0.1,0,0.3c-0.2,0.2-0.9,0.6-2,2.3c-1.1,1.8-2.1,3.5-2.8,5.3
					c-0.8,1.8-1.3,3.4-1.6,4.5c-0.3,1-0.7,2-0.6,2.6c0.1,0.6,0.2,0.5,0.3,0.3c0-0.2,0-0.2,0.1-0.1C1,30.4,1.3,30.3,1.3,30
					c0.1-0.3,0.2-0.2,0.3,0c0.1,0.2,0.2,0.2,0.3,0c0-0.2,0.1-0.3,0.1-0.1c0.1,0.2,0.1,0.1,0.2-0.1c0.1-0.3,0.2-0.3,0.2-0.1
					c0,0.2,0.2,0,0.2-0.3c0.1-0.3,0.1-0.4,0.2-0.2C2.9,29.3,2.9,29.2,3,29c0.1-0.3,0.3-0.3,0.5-0.6c0.2-0.3,0.2-0.7,0.1-1.3
					c0-0.6,0.1-0.9,0.4-1.4c0.2-0.5,0-0.4-0.2-0.2c-0.2,0.3-0.3,0.5-0.5,0.2c-0.1-0.2-0.2-0.3-0.1-0.6c0.1-0.3,0.2-0.5,0.4-0.8
					c0.1-0.3,0-0.3,0-0.3s0.1-0.2,0.2-0.6c0.2-0.4,0.4-1.2,0.6-1.6c0.2-0.4,0.4-0.4,0.2,0.1c-0.2,0.4-0.1,0.4-0.4,1
					C4,23.4,4.1,23.5,4,24.3c-0.1,0.8,0.1,0.7,0.3,0.6c0.2-0.1,0.2,0.1,0,0.4c-0.2,0.3-0.1,0.4-0.1,0.9c0.1,0.4,0.1,0.3,0.2,0.7
					c0.1,0.4,0.4,0.4,0.7,0.9c0.3,0.5,0.3,0.2,0.4,0.7c0,0.5,0,1-0.1,1.8c0,0.8,0,0.4-0.1,1.1c-0.1,0.7,0.2,0.7,0.4,0.7
					c0.2,0,0.3,0,0.2,0.3c-0.1,0.3-0.2,0.3-0.4,1.4c-0.2,1.1-0.3,1.5-0.3,3.6c0,2,0.1,2.7,0.2,3.4c0.1,0.6,0.5,0.5,0.5,0.2
					c0-0.3,0.4-0.2,0.5,0.2c0.2,0.4,0,0.4-0.1,1.3c-0.1,0.9,0.1,0.8,0.3,0.8C7,43.2,7.1,43,7,42.4C7,41.9,7,41.6,6.9,41.1
					c-0.1-0.4-0.2-0.5-0.2-1.1c0-0.6,0.2-0.7,0.3-1c0.2-0.3,0.2-0.7,0.2-1.1c0-0.4,0.1-0.6,0.2-0.7c0.2-0.1,0.1,0.1,0.2,0.1
					c0.1,0,0-0.1,0.2-0.1c0.2,0,0.2,0.1,0.3,0c0.2-0.1,0-0.3,0.2-0.4c0.2-0.1,0.2-0.1,0.5-0.2c0.3-0.1,0.4-0.3,0.7-0.5
					c0.3-0.2,0.2-0.2,0.7-0.2c0.5,0,0.5-0.2,0.5-0.5c0-0.3,0.3-0.4,0.5-0.3c0.2,0.2,0.1,0.1,0.4,0.3c0.4,0.1,0.2,0.1,0.6,0.3
					c0.4,0.3,0.4,0.2,0.5-0.1c0.1-0.3,0.2-0.4,0.2-0.2c0,0.2,0,0.4,0,1c0,0.6,0.2,0.6,0.3,0.7c0.1,0.1,0.2,0.1,0.2,0.3
					c-0.1,0.2,0,0.3,0,0.5c0.1,0.2,0.1,0.5,0.1,1c0,0.5-0.1,0.3-0.2,0.6c-0.2,0.3,0,0.3,0.2,0.6c0.2,0.3,0.3,0.2,0.5,0.1
					c0.1-0.1,0.2-0.1,0.4-0.3c0.2-0.2,0.5-0.1,0.5,0.3c0,0.4,0,1,0.1,1.6c0,0.5,0.2,0.2,0.2,0.6c0,0.4-0.1,0.6,0,1
					c0,0.3-0.2,0.2-0.2,0.6c0,0.4-0.1,0.5-0.2,0.8c-0.1,0.3-0.1,0.6,0.1,0.8c0.1,0.2,0.1-0.1,0.2,0.1c0.1,0.2,0.4,0.8,0.6,1.1
					c0.2,0.3,0.1,0.4,0,0.9c-0.1,0.5,0.1,0.6,0.3,0.9c0.2,0.3,0,0.2,0.2,0.5c0.2,0.3,0.5,0.7,0.4,0.6c-0.2-0.2-0.4-0.3-0.7-0.5
					c-0.3-0.1-0.3-0.2-0.4-0.5c-0.2-0.3-0.5-0.5-0.7-0.9c-0.3-0.4-0.2-0.4-0.3-0.7c-0.1-0.3-0.3-0.2-0.5-0.3
					c-0.2-0.1-0.3-0.1-0.6-0.4c-0.3-0.3-0.2,0.1-0.1,0.5c0.2,0.4,0.1,0.3,0.5,0.7c0.4,0.5,0.4,0.5,0.5,0.8c0.1,0.3,0.1,0.3,0.4,0.6
					c0.3,0.3,0.3,0.4,0.3,0.7c0,0.3,0,0.3,0.4,0.8c0.3,0.5,0.2,0.4,0.5,0.9c0.3,0.5,0.1,0.4,0.4,0.9c0.2,0.5,0.4,0.6,0.8,1.1
					c0.3,0.5,1,1,1.4,1.3c0.4,0.2,0.4,0.2,0.4-0.1c0-0.3,0.1-0.8,0.2-1c0-0.2,0.2-0.2,0.3-0.3c0.2-0.1,0-0.2-0.3-0.4
					c-0.2-0.2-0.1-0.3-0.2-0.5c-0.2-0.2-0.3-0.2-0.4,0.1c-0.1,0.3-0.2,0.1-0.2-0.1c0-0.2,0-0.3-0.1-0.4c-0.2-0.1-0.3-0.2-0.5-0.2
					c-0.2-0.1-0.2-0.4-0.1-0.4c0.1-0.1,0.1-0.2,0.1-0.4c-0.1-0.2,0.1-0.2,0.3-0.2c0.2,0,0.3,0,0.1-0.2c-0.1-0.2-0.2-0.3-0.3-0.6
					c-0.1-0.4-0.1-0.2-0.3-0.6c-0.2-0.4,0-0.4,0-0.9c0-0.4,0-0.6-0.2-0.9c-0.3-0.3-0.5-0.8-0.7-1c-0.2-0.2-0.3-0.1-0.5-0.3
					c-0.1-0.2-0.1-0.4-0.1-0.7c0-0.3-0.2-0.2-0.2-0.4c0-0.2,0-0.4-0.2-0.5c-0.2-0.1-0.1-0.4,0-0.6c0.1-0.2,0.2-0.6,0.4-0.8
					c0.2-0.3,0.2-0.3,0.2-0.7c0-0.4,0.2-0.4,0.4-0.3c0.2,0.1,0.1,0.2,0.1,0.5c-0.1,0.3,0.3,0.2,0.5,0.3c0.2,0.1,0.1,0.2,0.3,0.4
					c0.2,0.1,0.2,0.2,0.2,0.5c0,0.3,0,0.3,0.2,0.4c0.2,0.1,0.2,0.1,0.1,0.2c-0.1,0.1,0.3,0.1,0.5,0.3c0.2,0.2,0.3,0.3,0.1,0.8
					c-0.2,0.5,0.1,0.5,0.3,0.3c0.1-0.2,0.2-0.2,0.4-0.2c0.2,0,0.4-0.1,0.5-0.4c0.1-0.3,0.2-0.2,0.5-0.3c0.3-0.1,0.8-0.3,0.9-0.5
					c0.1-0.2,0.2-0.6,0.2-1c0-0.4,0-0.9-0.1-1.3c-0.1-0.5-0.1-0.4-0.3-0.7c-0.2-0.3-0.3-0.4-0.5-0.7c-0.2-0.3-0.2-0.4-0.2-0.7
					c-0.1-0.3-0.3-0.1-0.3-0.4c0-0.3,0.1-0.6,0.4-0.9c0.3-0.2,0.2-0.3,0.5-0.4c0.3-0.1,0.3-0.2,0.6-0.3c0.3-0.1,0.5,0.1,0.6,0.2
					c0.1,0.1,0.3,0.1,0.3,0.3c0,0.2-0.1,0.2,0,0.5c0.1,0.3-0.2,0.3-0.4,0.3c-0.2,0-0.3,0.1-0.5,0.4c-0.2,0.3,0.2,0.5,0.4,0.6
					c0.3,0.1,0.4,0,0.6-0.3c0.2-0.2,0.2-0.3,0.3-0.4c0.2-0.2,0-0.2-0.1-0.5c-0.1-0.3,0.1-0.4,0.2-0.6c0.1-0.2,0.1,0,0.7-0.1
					c0.5,0,0.7-0.1,1-0.2c0.3-0.1,0.3-0.1,0.6-0.3c0.3-0.2,0.2,0.1,0.7,0.1c0.5,0,0.6-0.2,0.9-0.3c0.3-0.2,0.7-0.4,1-0.7
					c0.3-0.3,0.3-0.3,0.6-0.4c0.2-0.1,0.1-0.3,0.2-0.6c0.1-0.3,0.1-0.3,0.4-0.6c0.2-0.3,0.4-0.3,0.7-0.6c0.3-0.3,0.2-0.4,0.3-0.6
					c0.2-0.2,0.2-0.1,0.3-0.7c0.1-0.5,0.1-0.7,0-0.9c-0.1-0.2-0.1-0.3-0.1-0.6c0.1-0.3,0.1-0.5,0.1-0.9c-0.1-0.4-0.2-0.6-0.4-0.4
					c-0.3,0.2-0.3,0.1-0.5-0.2c-0.2-0.3-0.2-0.3,0-0.5c0.2-0.2,0.2-0.3,0.5-0.5c0.3-0.2,0.6-0.4,0.8-0.3c0.2,0.1,0.3,0.1,0.3-0.1
					c0-0.2,0-0.3-0.3-0.3c-0.2,0-0.3,0-0.3-0.2c0-0.2-0.1-0.3-0.3-0.1c-0.2,0.2-0.4,0.3-0.6,0.4c-0.2,0.1-0.3-0.2-0.1-0.2
					c0.2,0,0.2-0.2,0-0.3s0-0.1-0.1-0.2c-0.1-0.1-0.3,0-0.3-0.2s0.2-0.3,0.4-0.4c0.2,0,0.1-0.3,0.5-0.5c0.4-0.2,0.4-0.2,0.7-0.4
					c0.3-0.2,0.3-0.1,0.4,0.1c0.1,0.2,0.1,0.2-0.2,0.4c-0.3,0.2,0,0.2-0.1,0.4c-0.1,0.2-0.2,0.5,0,0.4c0.2-0.1,0.2-0.2,0.6-0.4
					c0.4-0.2,0.7-0.3,0.9-0.2c0.2,0.1,0.4,0.1,0.5,0.2c0.1,0.1,0.1,0.3-0.1,0.7c-0.1,0.2,0,0.3,0.1,0.3c0,0,0.4,0.1,0.5,0.4
					c0.1,0.3-0.2,0.3-0.2,0.4c0,0.1,0.1,0.2,0.2,0.3c0.1,0.2-0.5,1-0.4,1.1c0.1,0.1,0.4,0.2,0.7,0.1c0.1,0,0.2-0.2,0.4-0.3
					c0.2-0.1,0.2,0,0.6-0.2c0.3-0.1,0.4-0.6,0.2-1.4c-0.1-0.5-0.7-1.1-0.8-1.2c0-0.1-0.1-0.3,0.1-0.4c0.2-0.2,0.4-0.2,0.7-0.4
					c0.3-0.2,0.4-0.3,0.5-0.6c0.1-0.3,0.1-0.3,0.3-0.4c0.2-0.1,0.2-0.1,0.3-0.2c0.1-0.1,0.1,0,0.3-0.2c0.2-0.2,0.2-0.3,0.4-0.1
					c0.1,0.2,0.3,0.3,0.5,0.2c0.2-0.1,0.6-0.1,0.9-0.5c0.3-0.3,0.3-0.4,0.6-0.8c0.3-0.3,0.4-0.4,0.6-0.7c0.2-0.2,0.2-0.2,0.4-0.6
					c0.2-0.4,0.3-0.4,0.5-0.7c0.2-0.3,0.2-0.5,0.2-0.9c0-0.4,0-0.6,0.1-1c0.1-0.3,0.5-0.1,0.6,0.3c0.1,0.5,0,0.8,0.1,1.2
					c0.1,0.4,0.1,0.8,0,1.3c0,0.5,0.2,0.3,0.2,0.1c0-0.2,0-0.2,0.1-0.2c0.1,0,0.3,0,0.4,0.2c0.1,0.2,0.1,0.2,0.1-0.1
					c0-0.2-0.1-0.1-0.2-0.4c-0.1-0.2-0.3-0.2-0.4-0.5c0-0.2,0.2-0.5,0.2-0.7c0.1-0.3,0.2-0.2,0.3-0.1c0.2,0.1,0.2,0.1,0.1-0.1
					c-0.1-0.3-0.2-0.2-0.2-0.5c-0.1-0.3-0.3-0.5-0.4-0.8c-0.1-0.3,0-0.5-0.1-0.7c-0.1-0.3,0-0.3-0.1-0.6c-0.1-0.3-0.2-0.3-0.3-0.1
					c-0.1,0.2,0.1,0.1,0.1,0.3c0,0.2-0.1,0.2-0.3,0.2c-0.2,0-0.3-0.1-0.5-0.2c-0.2-0.2-0.2-0.3-0.5-0.3c-0.3,0.1-0.2,0.4-0.3,0.4
					c-0.2,0-0.2,0-0.3-0.2c0-0.2-0.1-0.2-0.1,0c-0.1,0.2-0.3,0-0.2-0.2c0.1-0.2,0-0.2-0.2-0.2c-0.2,0-0.3,0-0.3-0.1
					c0-0.1,0.1-0.2,0.3-0.3c0.2-0.1,0.3-0.3,0.5-0.5c0.2-0.2,0.3-0.5,0.5-0.6c0.2-0.1,0.4-0.3,0.5-0.5c0-0.2,0.1-0.3,0.3-0.4
					c0.2-0.2,0.4-0.4,0.7-0.4c0.3,0,0.4-0.1,0.6-0.1c0.2,0,0.3-0.1,0.4,0c0.2,0.1,0.5,0,0.6-0.1c0.1-0.2,0.2-0.2,0.3-0.1
					c0.2,0,0.2,0.1,0.4,0.1c0.2-0.1,0.4,0,0.2,0.1c-0.2,0.1-0.1,0.2,0.1,0.2c0.2,0,0.3,0,0.4-0.1c0.1-0.1,0.1-0.1,0.3-0.1
					c0.2,0,0.3-0.2,0.1-0.2c-0.1,0-0.2,0-0.2-0.2c0-0.2,0.1-0.4,0.2-0.5c0.1-0.2,0.1-0.5,0.3-0.6c0.2-0.1,0.3-0.1,0.5-0.1
					c0.2,0,0.3,0,0.3,0.1c0,0.2,0.1,0.2,0.2,0.4c0.1,0.2,0.2,0,0.3-0.2c0.1-0.2,0.3-0.3,0.2-0.6c-0.1-0.3,0.1-0.3,0.1-0.2
					c0,0.2,0.2,0.3,0.2,0.6c0,0.3-0.1,0.2-0.2,0.4c-0.2,0.2,0,0.3-0.1,0.5c-0.1,0.2-0.2,0.2-0.2,0.6c-0.1,0.4-0.2,0.4-0.5,0.6
					c-0.2,0.2-0.1,0.3-0.1,0.4c0,0.2-0.2,0.2-0.2,0.7c0,0.5,0.3,0.8,0.6,1.4c0.3,0.6,0.5,0.9,0.6,1.2c0.1,0.3,0.2,0.2,0.3-0.1
					c0.1-0.3,0.2-0.2,0.3-0.5c0.1-0.2-0.2-0.3-0.1-0.5c0-0.2,0.2-0.3,0.4-0.2c0.2,0.1,0.2,0,0-0.2c-0.1-0.2-0.2-0.2-0.2-0.4
					s0.1-0.3,0.3-0.3c0.2,0,0.3-0.2,0.1-0.3c-0.2-0.1-0.2-0.2-0.2-0.4c0-0.2,0.1-0.3,0.2-0.2c0.1,0.1,0.1,0.1,0.1-0.1
					c0-0.2-0.1-0.2-0.3-0.3c-0.1-0.1-0.1-0.3-0.1-0.4c0-0.2-0.2-0.2-0.2-0.1c-0.1,0.2-0.2-0.1-0.2-0.2c0-0.2,0-0.2,0.1-0.3
					c0-0.1,0.1-0.2,0-0.3c-0.1-0.1,0-0.2,0.1-0.2C46.2,15.2,46.3,15.3,46.4,15.3z M46.5,15.8c0-0.2-0.1-0.3-0.2-0.1
					C46.1,16.3,46.4,16,46.5,15.8z M50.8,11.5c0.1,0,0.1-0.1,0.3-0.1c0.2,0,0.3-0.1,0.2-0.1c-0.1-0.1-0.3-0.1-0.5,0.1
					C50.5,11.5,50.7,11.6,50.8,11.5z M39.4,9c0.2,0,0.3,0,0.3-0.1c0-0.1-0.1-0.1-0.5-0.2c-0.4,0-0.3,0.1-0.1,0.2
					C39.1,8.9,39.2,8.9,39.4,9z M38.4,8.6c-0.1,0-0.1-0.1-0.2-0.1c-0.2,0-0.1,0.1-0.2,0.1c-0.1,0-0.1-0.2-0.3-0.1
					c-0.2,0-0.3,0.2-0.3,0.4C37.5,9,37.5,9,37.7,9C37.9,9.1,37.9,9,38,9c0.1,0,0.1,0,0.2,0c0.1,0,0.2,0,0.4-0.1
					c0.2-0.2,0.2-0.3-0.1-0.3C38.4,8.5,38.5,8.6,38.4,8.6z M37.2,8.8c0.1,0,0.1-0.2,0-0.2C37.1,8.6,37.1,8.8,37.2,8.8z M33.6,7.3
					c0.1,0,0-0.2-0.1-0.1C33.4,7.3,33.5,7.4,33.6,7.3z M32.7,7c-0.2,0.1-0.1,0.2,0.1,0.1c0.2,0,0.3,0,0.5,0s0.3-0.1,0.3-0.2
					c0-0.2-0.1-0.3-0.3-0.2C33,6.8,32.9,6.9,32.7,7z M33.3,6.3c0-0.1,0-0.1,0.1-0.2c0.1,0,0.1-0.1,0.1-0.2c0-0.1-0.2-0.1-0.3-0.1
					C33.1,5.9,33,6,32.8,6.1c-0.2,0.1-0.2,0-0.3,0.1c-0.1,0.1,0,0.2,0.1,0.2c0.1,0,0.1,0.1,0,0.1c-0.1,0.1,0.1,0.2,0.2,0.2
					c0.1,0.1,0.2,0.1,0.4-0.1c0.1-0.1,0.2-0.1,0.2-0.2C33.4,6.4,33.3,6.4,33.3,6.3z M31.1,4.5c-0.1-0.1-0.2-0.1-0.3,0.1
					c0,0.2,0,0.3,0.1,0.2c0.1-0.1,0.1-0.1,0.2,0c0.1,0.1,0.1,0,0.2,0.1c0.1,0.1,0.1,0.1,0.3,0c0.2-0.1,0-0.1-0.1-0.1
					c-0.2,0,0-0.2,0.2-0.2c0.2,0,0.2-0.1,0.1-0.1c-0.1,0-0.3-0.1-0.6,0C31.2,4.6,31.2,4.6,31.1,4.5z M30.7,4.3
					c-0.2,0.2,0,0.3,0.1,0.2c0.1-0.1,0.1-0.1,0.2-0.1c0.1,0.1,0,0.1,0.2,0.1c0.1,0,0.2-0.2,0-0.4C31.2,4,30.9,4.1,30.7,4.3z
					 M30.5,2.7c-0.2,0-0.3-0.1-0.7,0c-0.4,0.1-0.2,0.2,0.1,0.2c0.3,0,0.4,0,0.4,0.1C30.3,3,30.2,3,29.9,3c-0.3,0-0.4,0.1-0.2,0.1
					c0.2,0,0.3,0,0.5,0c0.2,0,0.3-0.1,0.5-0.1c0.2-0.1,0.3,0,0.2,0c-0.2,0.1-0.1,0.2,0.1,0.2c0.2,0,0.3,0,0.4-0.1
					c0.2-0.1,0.1-0.3,0.2-0.4c0.2-0.1,0.1-0.3-0.2-0.2c-0.3,0-0.4,0.1-0.6,0.2C30.6,2.7,30.7,2.7,30.5,2.7z M25.6,6.3
					C25.8,6.2,26.1,6,27,5.9c0.9-0.1,1.1-0.1,1.4,0C28.7,6,29,6.1,29.2,6c0.2-0.1,0.1-0.2-0.3-0.2c-0.3,0-0.1-0.2-0.8-0.2
					c-0.7-0.1-1.3,0.1-1.9,0.2c-0.7,0.1-1,0.2-1.2,0.5c-0.2,0.3,0,0.4,0.3,0.2C25.2,6.5,25.4,6.4,25.6,6.3z M23.8,6.4
					c0.1,0,0.1,0,0.2-0.1c0.1-0.1,0.1-0.2-0.1-0.1C23.6,6.2,23.6,6.3,23.8,6.4z M45.5,20.9c0.1-0.1,0-0.2-0.1-0.1
					c-0.1,0.2,0,0.2-0.2,0.3c-0.1,0.1-0.1,0.2,0,0.2C45.4,21.3,45.4,21,45.5,20.9z M39.8,25.6c0,0.1,0,0.2,0,0.3
					c0,0.1-0.2,0.2-0.3,0.1c-0.1-0.1-0.2,0-0.2,0c0.1,0,0.1,0.1,0.1,0.2c0.1,0.1-0.1,0.1-0.3,0.2c-0.1,0.1-0.1,0.2,0,0.3
					c0.1,0.1,0.1,0.1,0.1,0.2c0,0.1,0.1,0.2,0.1,0.1c0.1-0.1,0.1-0.2,0.2-0.1c0.1,0,0.3,0,0.2-0.1c-0.1-0.1-0.2-0.1-0.3-0.2
					c-0.1-0.1,0-0.2,0.1-0.3c0.1-0.1,0.2-0.1,0.2,0.1c0,0.2,0.1,0.1,0.2,0c0.1-0.1,0.1-0.2,0.2-0.1c0.2,0.1,0.3,0.2,0.4,0.3
					c0.2,0.1,0.3,0.1,0.3,0c0-0.1,0-0.1,0.1-0.3c0.1-0.2,0.2-0.3,0.4-0.3c0.2,0,0.3,0,0.4-0.1c0.2-0.1,0.1-0.1-0.1-0.2
					c-0.2-0.1-0.1-0.2-0.1-0.3c0-0.1,0.1-0.3,0-0.1c-0.1,0.1-0.2,0.1-0.5,0.1c-0.2,0-0.4-0.2-0.6-0.4c-0.2-0.2-0.2-0.4-0.4-0.4
					c-0.2-0.1-0.2,0.1-0.1,0.3c0,0.2,0.1,0.4,0,0.7C39.9,25.5,39.9,25.5,39.8,25.6z M42.4,24.9c-0.1,0.1,0,0.2,0.2,0
					c0.1-0.2,0.1-0.1,0.3-0.3c0.2-0.1,0.1-0.2-0.2-0.1C42.5,24.6,42.4,24.8,42.4,24.9z M41.8,25.3c-0.1,0.1,0,0.2,0,0.1
					c0-0.1,0.1-0.1,0.2-0.2c0.1-0.1,0.1-0.2,0-0.1C41.9,25.1,41.9,25.2,41.8,25.3z M43.1,24.4c0.1-0.1,0.1-0.2,0-0.1
					C42.9,24.3,43,24.4,43.1,24.4z M43.6,24c0.1-0.2,0.1-0.3,0-0.2C43.4,24,43.5,24.2,43.6,24z M39.4,27.2c-0.1,0,0,0.2-0.1,0.2
					c-0.1,0.1-0.1,0.1-0.1,0.3c0,0.2,0.1,0.3,0.1,0.4c0,0.1,0,0.2-0.1,0.5c-0.1,0.3-0.1,0.4-0.2,0.6c-0.1,0.2-0.3,0.2-0.3,0.3
					c-0.1,0.1-0.1,0.2-0.2,0.3c-0.2,0.1-0.3,0.1-0.4,0.2c-0.1,0.1-0.3,0.1-0.3,0c0-0.1,0-0.2,0.1-0.2c0.1,0,0-0.2-0.1-0.1
					c-0.1,0-0.1,0.1-0.2,0.3c0,0.2,0,0.1-0.2,0.4c-0.2,0.2-0.2,0.3-0.2,0.5c0,0.2-0.3,0.2-0.4,0.1c-0.1-0.1-0.1-0.1-0.3,0
					c-0.2,0-0.6,0.1-0.9,0.1c-0.3,0-0.3,0.2-0.5,0.4c-0.1,0.2-0.3,0.3-0.5,0.4c-0.2,0.1,0,0.2,0.1,0.2c0.2,0,0.2,0.1,0.4,0
					c0.1,0,0.1-0.1,0.2-0.1c0.2,0,0.3-0.1,0.5-0.2c0.2,0,0.2,0,0.4-0.1c0.2-0.1,0.3-0.1,0.4-0.1c0.2,0,0.3,0.1,0.2,0.2
					c-0.1,0.2-0.1,0.2,0,0.3c0.1,0.1,0,0.2,0.1,0.2c0.2,0,0.3,0.1,0.2-0.1c0-0.1,0-0.1,0.1-0.3c0.1-0.2,0.1-0.1,0.3-0.2
					c0.2,0,0.1-0.1,0-0.2c-0.1-0.1-0.1-0.1,0-0.3c0.1-0.1,0.1-0.2,0.1,0c0,0.2,0,0.1,0.1,0.1c0.1,0,0.1-0.1,0.1,0
					c0,0.1,0.2,0.1,0.3,0.1c0.1,0,0.2,0,0.3-0.2c0.1-0.2,0.2-0.2,0.2,0.1c0,0.2,0.1,0.1,0.1,0c0-0.2,0-0.2,0.2-0.3
					c0.1-0.1,0.1,0,0.2-0.2c0.1-0.2,0.2,0,0.1,0.1c-0.1,0.2-0.1,0.3,0.1,0.2c0.1-0.1,0.2-0.2,0.2-0.3c0.1-0.1,0.1-0.1,0-0.2
					c-0.1-0.1,0-0.1,0-0.4c0-0.3,0.1-0.4,0.1-0.7c0-0.3,0-0.4,0.1-0.5c0.1-0.1,0.1-0.1,0.2-0.3c0-0.2,0.2-0.3,0.2-0.6
					c0-0.3-0.2-0.4-0.3-0.5c-0.1-0.1,0-0.3,0-0.4c0-0.1-0.2-0.1-0.2-0.1c-0.1,0.1-0.1,0.1,0.1,0.1c0.1,0,0.1,0.1,0,0.2
					c-0.1,0.1-0.2,0.1-0.2-0.1C39.5,27.3,39.5,27.2,39.4,27.2z M38.5,29.3c0.1-0.1,0.1-0.2,0-0.1C38.4,29.3,38.5,29.4,38.5,29.3z
					 M35.8,30.4c0.1,0,0.1-0.2,0-0.1C35.7,30.3,35.7,30.4,35.8,30.4z M35.4,32c-0.1,0.1-0.1,0.2-0.1,0.4c0,0.2,0.2,0.3,0.2,0.2
					c0-0.1,0.1-0.2,0.1-0.3c0.1-0.1,0.3-0.2,0.4-0.1c0,0.1,0.1,0.1,0.2,0c0-0.1,0-0.1,0.2-0.2c0.1-0.1,0-0.2-0.1-0.2
					c-0.1,0-0.2-0.1-0.3-0.1c-0.1,0-0.2,0.2-0.3,0.2C35.7,31.8,35.5,31.9,35.4,32z M36.6,31.6c0.1,0,0.1-0.2,0.1-0.2
					C36.6,31.5,36.6,31.6,36.6,31.6z M34,32c-0.1,0-0.3,0.1-0.3,0.2c0.1,0.1,0,0.2,0.1,0.3c0.1,0.1,0.1,0.1,0.3,0
					c0.1-0.1,0.2,0.1,0.1,0.3c-0.1,0.2-0.1,0.2-0.1,0.5c0,0.3,0.1,0.4,0.2,0.2c0-0.2,0.1-0.1,0.1,0.1c0,0.2,0.1,0.2,0.2,0
					c0.1-0.2,0.2-0.2,0.2-0.4c0-0.2,0-0.2,0.1-0.5c0.1-0.2,0.1-0.3,0-0.5c-0.1-0.2-0.3-0.1-0.3-0.2c-0.1-0.1-0.1-0.2-0.3,0
					C34.2,32,34.2,32,34,32z M34.3,34.2c0.1-0.1,0.1-0.3,0.1-0.3C34.3,34,34.2,34.3,34.3,34.2z M33.5,35.6c0.1-0.1,0.1-0.3-0.1-0.2
					C33.2,35.6,33.4,35.7,33.5,35.6z M32.7,36.6c0.1-0.3,0-0.3-0.1-0.1C32.4,36.7,32.5,36.8,32.7,36.6z M30.9,37.7
					c0.1,0,0.1-0.2,0-0.1C30.8,37.6,30.9,37.7,30.9,37.7z M30.1,37.9c0.2,0.1,0.3-0.2,0-0.2C29.9,37.7,29.9,37.9,30.1,37.9z
					 M27.8,38.5c-0.1,0.4,0.2,0.4,0.3,0.6c0.1,0.2,0.2,0.2,0.2,0.1c0-0.2,0-0.2,0.1-0.4c0.1-0.2,0.3-0.4,0.4-0.8
					c0.2-0.4,0.3-0.7,0.1-0.8c-0.2-0.1-0.2,0-0.7,0.4C28,37.8,27.9,38.1,27.8,38.5z M27.6,42.6c-0.1,0.3,0,0.4-0.1,0.4
					c-0.1,0-0.1-0.1-0.2-0.2c-0.1,0-0.1,0.2,0,0.6c0.1,0.4,0.1,0.4,0.2,0.5c0.1,0.1,0.1,0.2,0.2,0.1c0.1,0,0.1-0.2,0.2-0.1
					c0.1,0.1,0.1,0.2-0.1,0.2c-0.2,0.1-0.1,0.2,0,0.3c0.1,0.1,0.2,0,0.2,0.1c0,0.1,0.2,0.1,0.3,0c0.1-0.1,0.2,0,0.3-0.1
					c0.1,0-0.1-0.1-0.1-0.3c0-0.2,0-0.3-0.1-0.4c-0.1-0.1-0.1-0.2,0-0.3c0.1-0.1,0.1-0.3,0.2-0.4c0.1-0.1,0.3-0.1,0.4-0.3
					c0.1-0.2,0.1-0.4,0-0.5c-0.1-0.2-0.1-0.3,0-0.4c0.1-0.1,0.1-0.3-0.1-0.2c-0.2,0.1-0.2,0-0.4-0.2c-0.2-0.1-0.5-0.1-0.6,0.4
					C27.6,42.2,27.7,42.3,27.6,42.6z M27.8,45.4c0.1,0.3,0.3,0.1,0.3-0.1s-0.1-0.4-0.3-0.5c-0.3-0.2-0.4-0.1-0.2,0.2
					C27.6,44.9,27.7,45.1,27.8,45.4z M27.2,45.7c0.1-0.1-0.1-0.5-0.1-0.4C27,45.6,27.2,45.9,27.2,45.7z M28.4,45
					c0.1,0.1,0.1-0.2,0-0.2C28.3,44.7,28.3,44.9,28.4,45z M28.5,45.5c0.1,0,0.1-0.2,0-0.2C28.4,45.3,28.4,45.5,28.5,45.5z
					 M28.8,45.6c0.1,0,0-0.1,0-0.1C28.7,45.5,28.8,45.6,28.8,45.6z M28.4,46.5c-0.1,0.2,0.1,0.3,0.1,0.1c0.1-0.1,0.1-0.1,0.2,0.1
					c0,0.1,0.2,0.1,0.1-0.1c0-0.1,0-0.2,0.2-0.3c0.1-0.1,0.1-0.2,0-0.2c-0.1,0-0.2-0.1-0.3-0.1c-0.1-0.1-0.2-0.1-0.3-0.2
					c-0.1-0.1-0.1,0,0,0.2C28.4,46.1,28.5,46.3,28.4,46.5z M26.6,46.5c-0.2,0.1-0.2,0.2-0.4,0.3c-0.2,0.2-0.5,0.4-0.8,0.6
					c-0.2,0.2-0.2,0.7-0.1,0.5c0-0.2,0.1-0.3,0.3-0.4s0.3-0.3,0.5-0.4c0.2-0.1,0.2-0.3,0.4-0.4c0.2-0.1,0.3-0.2,0.5-0.2
					c0.2,0,0.2-0.1,0-0.1c-0.1,0-0.2-0.1-0.2-0.4c0-0.2-0.1-0.2-0.2,0.1C26.7,46.3,26.7,46.4,26.6,46.5z M29.2,44.9
					c0.1,0.1,0,0.2,0.2,0.3c0.1,0.1,0.1,0,0.2,0.2c0.1,0.1,0.2,0.2,0.2,0.1c0-0.1,0-0.1-0.1-0.2c-0.1-0.1,0-0.1-0.2-0.2
					c-0.2-0.1-0.1-0.2,0.1-0.2c0.2,0,0.1-0.1-0.1-0.1c-0.2-0.1-0.2,0.2-0.3,0c-0.1-0.1,0-0.2-0.1-0.3c-0.1-0.1-0.2,0-0.4,0.1
					c-0.2,0.1-0.2,0.1-0.1,0.2c0.1,0.1,0.1,0.1,0.2,0.2c0.1,0.2,0.1,0.1,0.1-0.1c-0.1-0.2,0-0.2,0.1-0.1
					C28.9,44.6,29.1,44.7,29.2,44.9z M29.9,44.8c0.1,0,0-0.3-0.1-0.3C29.7,44.6,29.8,44.8,29.9,44.8z M29.3,45.8
					c0.1-0.1,0.2,0.1,0.3,0.2c0.2,0.1,0-0.2-0.2-0.3c-0.2-0.1-0.2-0.2-0.3,0C29.1,45.7,29.3,45.9,29.3,45.8z M30.2,46.1
					c0.1,0.2,0,0.3-0.2,0.3c-0.1,0-0.1-0.1-0.1-0.2c0-0.1-0.1-0.2-0.1,0.1c-0.1,0.2,0,0.2,0.1,0.3c0.1,0.2,0.1,0,0.2,0.3
					c0,0.2,0,0.2,0.2,0.2c0.2,0,0.1-0.1,0-0.2c-0.1-0.1-0.1-0.1-0.1-0.3c0-0.2,0.1-0.2,0.3-0.1c0.2,0.1,0.2-0.1,0.1-0.2
					c-0.1-0.1,0-0.2,0-0.3c0-0.2,0-0.2-0.1-0.3c-0.1-0.1-0.2-0.1-0.4-0.1c-0.2,0-0.2-0.1-0.2,0.1C29.9,45.7,30.2,45.9,30.2,46.1z
					 M29.2,47.2C29,47.4,29,47.4,29,47.2c0-0.2,0.1-0.3,0.2-0.4c0.1-0.1,0.1-0.3-0.1-0.3c-0.1,0-0.2,0.1-0.2,0.3
					c-0.1,0.3-0.1,0.3-0.3,0.3c-0.2,0-0.1,0.2,0,0.3c0.1,0.2,0.2,0,0.2,0.1c0,0.1,0.1,0.2,0.2,0.1c0.1-0.1,0-0.1,0.1-0.2
					c0.1-0.1,0.1-0.3,0.3-0.4c0.1-0.1,0.1-0.1,0.2-0.3c0-0.2-0.1-0.3-0.2,0C29.4,46.9,29.3,47,29.2,47.2z M29.7,47.4
					c0.3,0,0.2-0.4,0-0.3C29.4,47.1,29.5,47.4,29.7,47.4z M30.7,47.1c0-0.2,0-0.3-0.1,0C30.5,47.3,30.6,47.3,30.7,47.1z M31,47.3
					C31,47.1,30.9,47.1,31,47.3C30.8,47.3,30.9,47.4,31,47.3z M30.5,47.8c-0.1,0.1-0.2,0.2-0.2,0.1c-0.1-0.1-0.1-0.2-0.2,0
					c0,0.2,0,0.2-0.2,0.2c-0.2,0-0.2,0.2-0.4,0.2c-0.2,0-0.1-0.2-0.2-0.3c-0.1-0.1-0.2,0-0.3,0.1c-0.1,0.1-0.2,0.1-0.4,0.2
					c-0.2,0-0.1,0.1-0.2,0.3c-0.1,0.2-0.1,0.1-0.1,0.3c0,0.2,0.1,0,0.2-0.1c0.1-0.1,0.1-0.3,0.2-0.3c0.1,0,0.1,0,0.1,0.2
					c0,0.2,0.1,0,0.2-0.1c0.1-0.1,0.1,0,0.2,0.1c0.1,0.1,0.1-0.1,0.2-0.2c0.1,0,0.2,0.1,0.3,0.3c0.1,0.2,0.1,0.1,0,0.4
					c-0.1,0.3,0,0.3,0.2,0.5c0.2,0.2,0.3,0.3,0.4,0.2c0.1-0.1,0.1,0,0.1,0.1c0,0.2,0.1,0.2,0.1,0.1c0-0.1,0-0.1,0.1-0.2
					c0.1-0.1,0.1-0.1-0.1-0.3c-0.2-0.2-0.1-0.2,0-0.3c0.1-0.1,0.1,0,0.2-0.1c0.1-0.1,0.1-0.2,0.1,0c0,0.2,0.2,0.3,0.2,0.2
					c0.1-0.2,0.1-0.1,0.2-0.4c0.1-0.3-0.1-0.2-0.1-0.4c0-0.2,0-0.2-0.1-0.2c-0.1-0.1-0.1-0.2,0-0.2c0.1,0,0.1-0.1-0.1-0.2
					c-0.1-0.1-0.1-0.2-0.3-0.3c-0.1-0.1-0.2-0.1-0.2,0.1C30.5,47.5,30.6,47.7,30.5,47.8z M28.3,49.2c0.1,0,0.1-0.2,0-0.2
					C28.1,49.1,28.2,49.2,28.3,49.2z M27.7,49.5c0.1,0,0.1-0.2,0-0.2C27.6,49.4,27.6,49.5,27.7,49.5z M27.1,50c0.2,0,0.1-0.3,0-0.2
					C26.9,49.8,26.9,50,27.1,50z M31.4,50.9c0-0.2-0.1-0.3-0.1-0.1C31.2,51,31.3,51.1,31.4,50.9z M30.5,51.3c0.1,0,0.1-0.2,0-0.1
					C30.4,51.2,30.4,51.3,30.5,51.3z M25.1,48.7c-0.1,0-0.1-0.2-0.2-0.2c-0.1,0,0,0.2-0.2,0.4c-0.2,0.3-0.1,0.3-0.3,0.3
					c-0.2,0.1-0.1,0.2-0.3,0.3c-0.1,0.1-0.2,0-0.3,0c-0.2,0-0.2,0.2-0.4,0.2c-0.2,0-0.1,0.1-0.3,0.3c-0.2,0.3-0.4,0.5-0.6,0.5
					c-0.2,0-0.6-0.1-0.8,0c-0.2,0.1-0.1,0.2-0.1,0.5c0,0.3-0.2,0.2-0.5,0.1c-0.3-0.1-0.3-0.2-0.5-0.3c-0.1-0.1-0.2,0.1-0.4,0.4
					c-0.2,0.2-0.1,0.3,0,0.5c0.1,0.2,0.1,0.2,0.1,0.4c-0.1,0.2,0,0.3,0.1,0.4c0.1,0.2,0.1,0.3,0.2,0.2c0.1-0.1,0.1-0.1,0.2,0
					c0.1,0.1,0.1,0.4,0,0.8c0,0.4,0.2,0.4,0.6,0.4c0.4,0,0.4,0,0.4,0.2c0,0.2,0.1,0.2,0.2,0.1c0.1-0.1,0.2-0.1,0.2,0
					c0.1,0.1,0.2,0,0.3-0.2c0.1-0.1,0,0,0.2,0.1c0.1,0.1,0.1,0.1,0.4,0.1c0.2,0,0.4,0.1,0.4,0.4c0,0.3,0.1,0.3,0.3,0.2
					c0.2-0.1,0.3-0.1,0.5-0.2c0.2,0,0.1,0.2,0.2,0.3c0.1,0.1,0.2-0.1,0.2-0.4c0-0.2-0.1-0.1-0.1-0.3c0-0.2,0.2-0.1,0.2-0.4
					c0-0.3-0.1-0.2-0.1-0.4c0-0.2,0.2-0.2,0.4-0.3c0.2-0.1,0.3-0.1,0.2-0.4c-0.1-0.3,0-0.4,0.1-0.5c0.1-0.1,0.4-0.1,0.6,0
					c0.2,0.1,0.3-0.1,0.2-0.1c-0.1-0.1-0.2-0.2-0.4-0.4c-0.2-0.2-0.3-0.3-0.2-0.3c0.1-0.1,0.1-0.1,0-0.2c-0.1-0.1-0.2,0-0.2-0.3
					c0-0.2,0-0.5,0.1-0.7c0.1-0.1,0.3-0.1,0.5-0.1c0.3,0.1,0.2-0.1,0-0.2c-0.1-0.1-0.3-0.1-0.3-0.1c0-0.1,0.1-0.2,0.3-0.2
					c0.2,0,0.3,0,0.3-0.1c0-0.1,0-0.1-0.3-0.2c-0.2-0.1-0.2-0.1-0.3-0.3c-0.1-0.1-0.3-0.1-0.4-0.2c-0.1-0.1,0.1-0.2,0-0.3
					c-0.1-0.1-0.2-0.1-0.2-0.4c0-0.2-0.1-0.3-0.2,0C25.2,48.5,25.2,48.6,25.1,48.7z M19.9,49.5c0-0.3-0.1-0.3-0.2-0.1
					C19.7,49.6,19.9,49.7,19.9,49.5z M19.7,53.8c0.4,0.1,0.3-0.5,0-0.5C19.4,53.3,19.3,53.7,19.7,53.8z M18.4,55.2
					c-0.2,0-0.1,0.2,0.2,0.3c0.3,0.1,0.2,0.1,0.3,0.2c0.1,0.1,0,0.2,0.3,0.2c0.3,0.1,0.2,0.2,0.6,0.3c0.4,0.2,0.4,0,0.9,0.2
					c0.5,0.1,0.4,0.2,0.8,0.4c0.4,0.2,0.6,0.2,1.1,0.3c0.4,0.1,0.2-0.1,0.4,0c0.2,0.1,0.5,0.2,0.7,0.4c0.2,0.1,0.1,0,0-0.1
					c-0.1-0.1,0.1-0.1,0-0.2c-0.1-0.1-0.1-0.2-0.5-0.3c-0.4-0.1-0.6-0.1-0.5-0.3c0-0.1,0.2-0.1,0.5-0.1c0.3,0,0.3-0.1-0.1-0.2
					c-0.4-0.1-0.5-0.1-0.9-0.2c-0.4-0.2-0.3-0.3-0.6-0.3c-0.2-0.1-0.1,0.2-0.3,0.2c-0.2,0-0.4,0-0.7-0.1c-0.3-0.1-0.2-0.2-0.6-0.4
					c-0.4-0.2-0.6-0.2-0.9-0.4c-0.3-0.2-0.5-0.1-0.4,0.1C18.6,55.2,18.6,55.2,18.4,55.2z M24,57.4c0.1,0.1,0,0.1,0.2,0.1
					c0.1,0,0-0.1,0.2-0.1c0.2,0,0-0.1-0.3-0.2C23.8,57.2,23.9,57.4,24,57.4z M24.8,57.8c0.2,0,0.2-0.3,0-0.3
					C24.5,57.4,24.6,57.8,24.8,57.8z M25.7,57.9c0.3,0,0.2-0.1,0-0.2c-0.3-0.1-0.3-0.2-0.5-0.1C24.9,57.9,25.4,58,25.7,57.9z
					 M25.9,57.5c-0.1-0.1-0.1,0-0.3-0.1c-0.1,0-0.1,0.1,0.1,0.2c0.2,0,0.2,0,0.4,0.2c0.1,0.1,0.1,0.1,0.3,0.1c0.1,0,0.3-0.2,0.1-0.3
					C26.2,57.6,25.9,57.6,25.9,57.5z M27.1,58.6c0.2,0.1,0.2,0.2,0.4,0.2c0.2,0,0-0.2-0.2-0.3c-0.2-0.1-0.3-0.3-0.6-0.3
					c-0.3,0-0.2,0.1-0.1,0.3C26.7,58.5,26.9,58.5,27.1,58.6z M28.1,58.2c0.3,0,0.6-0.2,0.3-0.2c-0.4,0-0.5-0.1-1-0.2
					C27,57.7,26.9,57.9,27,58C27,58,27.8,58.2,28.1,58.2z M29,58c0.1,0,0.1-0.1-0.1-0.1c-0.2,0-0.1,0.2-0.1,0.2
					C28.8,58.2,28.9,58,29,58z M29.2,58.1c0.1,0,0.1-0.1,0-0.1C29,58,29.1,58.1,29.2,58.1z M30.2,58.1c0.2,0,0.1-0.1-0.2-0.2
					c-0.3,0-0.3,0.1-0.2,0.1C29.8,58.1,30,58.1,30.2,58.1z M31.2,57.9c0.2-0.1,0-0.2-0.3-0.1C30.6,57.9,31,57.9,31.2,57.9z
					 M30.3,58.4c-0.1,0.1-0.2,0.1-0.5,0.2c-0.3,0.1-0.4,0.2-0.4,0.4c0,0.3,0.3,0.2,0.6,0.1c0.3-0.1,0.3-0.3,0.5-0.4
					c0.2-0.1,0.4-0.1,0.6-0.1c0.2,0,0.1-0.1,0.3-0.1c0.2,0,0.4-0.1,0.2-0.2c-0.1,0-0.3,0-0.8,0C30.5,58.2,30.4,58.3,30.3,58.4z
					 M27.7,52.8c0.3,0.1,0.4-0.1,0.9,0.1C29,53,29,53,29.2,53.1c0.3,0.1,0.5,0,0.6-0.2c0.1-0.2,0.3-0.2,0.4-0.4
					c0.1-0.2-0.1-0.2-0.3,0c-0.2,0.2-0.3,0.3-0.6,0.3c-0.3,0-0.2,0-0.5-0.1c-0.3-0.1-0.3-0.1-0.6-0.1c-0.3-0.1-0.4,0-0.5-0.2
					c-0.1-0.2-0.2-0.2-0.3,0c-0.1,0.2-0.1,0.2-0.4,0.3c-0.3,0-0.2,0.2-0.2,0.4c0,0.2-0.1,0.3-0.2,0.5c-0.1,0.2-0.1,0.2-0.2,0.6
					c-0.1,0.4,0,0.1-0.2,0.3c-0.2,0.2,0,0.4,0.1,0.5c0.1,0.1,0.1,0,0.3,0.1c0.1,0.2,0.1,0.4,0,0.7c-0.1,0.3,0,0.5,0.2,0.5
					c0.2,0,0.2-0.3,0.3-0.5c0-0.3,0-0.4,0-0.6c0-0.2-0.1-0.2-0.1-0.3c0.1-0.1,0.2-0.3,0.3-0.3c0.1,0,0.3,0.2,0.2,0.4
					c-0.1,0.3,0,0.3,0.2,0.4c0.2,0.1,0.2,0.2,0.2,0.4c0,0.2,0.2,0.2,0.3,0.1c0.1-0.1,0.1-0.1,0.3-0.1c0.2,0,0.2,0,0.1-0.1
					c-0.1-0.1-0.2-0.1-0.3-0.4c-0.1-0.2,0.1-0.3-0.1-0.4c-0.2-0.1-0.3-0.3-0.4-0.5c-0.2-0.2,0.1-0.2,0.2-0.2
					c0.2-0.1,0.3-0.1,0.4-0.2c0.1-0.1,0.3-0.3,0.1-0.3c-0.2,0-0.4,0.1-0.5,0.1c-0.2,0-0.2-0.1-0.3,0.1c-0.1,0.2-0.3,0.1-0.4,0
					c-0.2-0.1,0-0.2-0.1-0.3c-0.1-0.1-0.2-0.2-0.2-0.3c0-0.1,0-0.4,0.2-0.6C27.2,52.7,27.4,52.7,27.7,52.8z M28.8,53.7
					c0,0,0.1,0,0.2,0.1c0.1,0.1,0.1-0.2-0.1-0.3C28.7,53.5,28.8,53.7,28.8,53.7z M28.9,54.1c0.2,0,0.3-0.2,0-0.2
					C28.7,53.9,28.7,54.1,28.9,54.1z M29.2,54.2c0.1,0,0.1-0.2,0-0.2C29.1,54,29.1,54.2,29.2,54.2z M29,55.7c0-0.1-0.1-0.1-0.1,0
					C28.8,55.8,29,55.7,29,55.7z M28.6,56c-0.1,0-0.1,0.2-0.1,0.3c0.1,0.1,0.1,0,0.1-0.1c0.1-0.1,0.1,0.1,0,0.2
					c0,0.2,0.1,0.1,0.1,0.1c0-0.1,0-0.1,0.1-0.1c0.1,0,0-0.1-0.1-0.2C28.8,56,28.9,56.1,29,56c0-0.1,0,0-0.2-0.1
					C28.8,55.9,28.7,56,28.6,56z M30.2,54.4c0.2,0,0.1-0.2-0.2-0.2c-0.3,0-0.3,0.1-0.2,0.1C29.8,54.4,30,54.4,30.2,54.4z M30.9,55.3
					c-0.1,0.1,0.1,0.3,0.3,0.3s0.4-0.1,0.3-0.2c-0.1-0.1-0.1-0.2-0.4-0.2C31.2,55.2,31,55.2,30.9,55.3z M31.9,54.5
					c0.2,0.1,0.2-0.2,0-0.2C31.7,54.2,31.7,54.4,31.9,54.5z M31.7,53.6c-0.1,0-0.1,0.1-0.1,0.2c0.1,0.1,0.1,0,0.2-0.1
					C31.8,53.7,31.8,53.6,31.7,53.6z M31.9,53.4c0,0.2,0.1,0.2,0.1,0.3c0.1,0.1,0.1,0.2,0.2,0.3c0.1,0,0-0.1-0.1-0.2
					c0-0.1-0.2-0.2-0.1-0.3c0-0.1,0-0.2,0.2-0.2c0.1,0.1,0.2,0.1,0.3,0c0.1-0.1,0-0.1-0.1-0.2c-0.1,0-0.2-0.2,0-0.2
					c0.2,0,0.2,0,0.2-0.2c0-0.2,0-0.3-0.1-0.2c-0.1,0.1-0.2,0.3-0.3,0.3c-0.1,0.1-0.2,0.1-0.3,0.1c-0.1,0.1-0.1,0.1,0,0.2
					C31.9,53.3,31.9,53.4,31.9,53.4z M32.4,52.1c0.1-0.2,0-0.2-0.2,0C32.2,52.2,32.4,52.2,32.4,52.1z M31.8,52.8
					c0.1,0,0.2-0.1,0.2-0.3c0-0.2,0-0.3-0.2-0.1C31.7,52.6,31.7,52.8,31.8,52.8z M33.5,54.7c0.2,0,0.2-0.2,0-0.2
					C33.1,54.6,33.3,54.7,33.5,54.7z M32.7,55.4c0.1,0,0,0.1,0.2,0.1c0.2,0,0.2,0,0.2-0.1c0-0.1,0-0.1,0.2,0c0.2,0,0.3,0.1,0.5,0.3
					c0.2,0.2,0.2-0.1,0.1-0.2c-0.2-0.2-0.2-0.2-0.5-0.3c-0.3-0.1-0.3-0.1-0.5-0.1c-0.2,0-0.3,0-0.6,0c-0.3,0-0.3,0.1-0.2,0.1
					c0.1,0.1,0.1,0,0.2,0.1c0.1,0.1,0,0.2-0.2,0.1c-0.2,0,0.1,0.1,0.3,0.1c0.2,0,0.1-0.2,0.2-0.2C32.5,55.4,32.6,55.4,32.7,55.4z
					 M34.1,53.3c0-0.1,0-0.2-0.1-0.1C34,53.3,34.1,53.4,34.1,53.3z M33.6,53.7c0.1,0.1,0.2,0.1,0.4,0.1c0.2-0.1,0.2-0.2,0-0.2
					C33.7,53.5,33.5,53.6,33.6,53.7z M33.7,54.1c0.1,0.1,0,0.1,0.2,0.2c0.2,0.1,0.1,0.1,0.4,0.1c0.3,0,0.3,0,0.3,0.2
					c0,0.2,0.2,0.2,0.4,0.2c0.2,0,0.7,0,0.9,0c0.2,0,0.1-0.2,0.1-0.5c0-0.2-0.1-0.3-0.3-0.4c-0.3-0.1-0.4-0.1-0.7-0.2
					c-0.3-0.1-0.4,0.2-0.5,0.2c-0.2,0-0.2-0.1-0.3,0.1c-0.1,0.1-0.1,0.2-0.2,0.1c0-0.1-0.1-0.2-0.3-0.2C33.6,53.9,33.6,54,33.7,54.1
					z M35.6,55.1c-0.2-0.1-0.2-0.1-0.4,0.1c-0.2,0.1-0.1,0-0.3,0c-0.2-0.1-0.3,0.1-0.1,0.1c0.2,0.1,0.1,0,0.2,0.1
					c0.1,0.1,0.2,0.2,0.2,0.5c0,0.3,0.3,0,0.4-0.2c0.1-0.2,0.1,0,0.3,0.2c0.2,0.2,0.2,0.1,0.4,0.2c0.2,0.1,0.4,0.2,1.1,0.4
					c0.7,0.1,0.6,0.2,1.1,0.6c0.5,0.4,0.5,0.5,0.6,0.8c0.1,0.3,0,0.2-0.1,0.1c-0.2-0.1-0.4-0.1-0.6,0.2c-0.2,0.3-0.4,0.3,0,0.4
					c0.4,0.1,0.5,0,0.7-0.1c0.2-0.2,0.4-0.1,0.7,0c0.3,0.1,0.3,0.4,0.7,0.5c0.4,0.1,0.2,0,0.3,0c0.2,0,0.4,0.2,0.6,0.1
					c0.1-0.1,0.2-0.3,0.4-0.4c0.2-0.1,0.2,0.1,0.4,0c0.2-0.1,0.2-0.2,0.2-0.4c0.1-0.2,0.2-0.1,0.2-0.2c0.1-0.1,0.1-0.1,0.3,0
					c0.2,0.1,0.4,0.1,0.6,0.1c0.3,0,0.3,0.3,0.8,0.7C44.8,59,45,59,45.2,59c0.3,0,0.6,0,0.8,0c0.1,0-0.1,0.2,0.3,0.2
					c0.2,0,0.3-0.1,0.2-0.2c-0.1-0.1-0.2-0.1-0.3-0.1c-0.2-0.1-0.2-0.1-0.3-0.2c-0.2-0.1,0-0.2-0.1-0.3c-0.1-0.1,0,0.1-0.4,0
					c-0.3-0.1-0.2-0.2-0.5-0.5c-0.3-0.3-0.3-0.2-0.5-0.5c-0.1-0.3-0.1-0.3,0.2-0.3c0.3,0,0.3,0.1,0.3-0.1c0-0.2-0.2-0.2-0.5-0.3
					c-0.3-0.1-0.3-0.1-0.6-0.2c-0.3-0.1-0.1-0.2-0.2-0.4c-0.1-0.2-0.3-0.2-0.7-0.4c-0.4-0.2-0.5-0.2-1.2-0.3
					c-0.7-0.1-0.9-0.4-1.3-0.4c-0.4,0-0.6-0.1-1-0.2c-0.5-0.1-0.6-0.3-1-0.3c-0.3,0-0.3,0.2-0.5,0.3c-0.2,0.2-0.3,0-0.5,0.2
					c-0.1,0.2-0.3,0.3-0.5,0.4c-0.2,0.2-0.5,0.1-0.6-0.1c-0.1-0.1-0.2-0.3-0.3-0.4c-0.1-0.1-0.2-0.1-0.3,0
					C35.8,55.2,35.8,55.3,35.6,55.1z M36.3,57.7c0.2,0,0.3-0.3,0.2-0.6c-0.1-0.3-0.1-0.5-0.3-0.2C36,57.2,36.1,57.6,36.3,57.7z
					 M34.1,58c0,0.1-0.1,0-0.2,0.3c-0.1,0.2,0.1,0.1,0.2,0c0.1-0.1,0.2-0.2,0.3-0.4c0.1-0.2,0-0.3-0.2-0.1
					C34.3,57.8,34.1,57.8,34.1,58z M33.3,58.1c0.1,0,0.1-0.2-0.1-0.2C33,57.9,33.1,58.1,33.3,58.1z M37.2,54.3
					c0,0.1,0.2,0.1,0.3,0.1c0.1,0-0.1-0.2-0.3-0.3c-0.2-0.1-0.3-0.1-0.2,0.1C37.1,54.1,37.2,54.2,37.2,54.3z M37.5,54.7
					c0.3,0,0.1-0.2-0.3-0.1C36.9,54.6,37.2,54.7,37.5,54.7z M44.4,54.6c0.4,0,0.4-0.2,0-0.2C44,54.5,44.1,54.6,44.4,54.6 M46.8,54.6
					c-0.3-0.1-0.5-0.1-0.4,0.1c0.1,0.1,0.3,0,0.5,0.1c0.3,0.1,0.5,0.2,0.8,0.3c0.3,0.2,0.3,0.1,0.3,0.4c0,0.3,0.3,0.4,0.2,0.1
					c0-0.3,0-0.3-0.4-0.5C47.4,54.8,46.8,54.6,46.8,54.6z M47.4,55.5c-0.1,0-0.2,0.1-0.1,0.2c0.1,0.1,0.1,0.1,0.3,0.2
					c0.2,0.1,0.2,0,0.2-0.2c0-0.2-0.1-0.3-0.2-0.2C47.5,55.5,47.5,55.5,47.4,55.5z M46.8,56.3c-0.2,0.1-0.2,0.1-0.4,0.1
					c-0.3,0-0.6,0-1,0c-0.4,0-0.1,0.1,0.1,0.2c0.2,0.1,0.3,0,0.5,0.1c0.2,0.1,0.4,0,0.6-0.1c0.2-0.1,0.3-0.2,0.5-0.2
					c0.2,0,0.1-0.2,0.3-0.3c0.2-0.1,0.3,0,0.3-0.1c0-0.1-0.1-0.2-0.3-0.2C47,55.9,47,56.1,46.8,56.3z M49.6,56.5
					c0.1,0.2,0.2,0.2,0.3,0.1c0.1-0.1,0.1-0.2,0-0.3c-0.1-0.1-0.1-0.1-0.3-0.3c-0.2-0.2-0.3-0.2-0.2,0.1
					C49.3,56.2,49.5,56.3,49.6,56.5z M50.8,56.8c0.2,0.1,0.3,0,0.2-0.1c-0.2,0-0.1-0.1-0.4-0.2c-0.3-0.1-0.4-0.1-0.2,0.1
					C50.4,56.6,50.6,56.7,50.8,56.8z M52.2,57.1c0.1-0.1-0.1-0.2-0.5-0.3c-0.3-0.1-0.3-0.1-0.1,0.1C51.8,57,52.1,57.2,52.2,57.1z
					 M51,57.4c0.1,0.1,0.2,0.1,0.2,0c0-0.1-0.2-0.3-0.4-0.3c-0.2-0.1-0.3,0-0.1,0.2C50.8,57.3,50.9,57.3,51,57.4z M53,57.5
					c0.3,0.2,0.3,0.1,0.2-0.1c-0.1-0.1-0.1-0.1-0.2-0.3c-0.1-0.2-0.2-0.4-0.2,0C52.7,57.1,52.7,57.3,53,57.5z M52.7,57.8
					c0.2,0,0-0.2-0.4-0.2c-0.3,0-0.3,0.1,0,0.2C52.3,57.8,52.6,57.8,52.7,57.8z M53.6,58.2c0.1,0,0.1-0.2-0.1-0.2
					c-0.2,0-0.4,0-0.2,0.1C53.3,58.1,53.5,58.2,53.6,58.2z M56,60.1c0.1-0.1,0.1-0.3-0.1-0.4c-0.2-0.1-0.1-0.3-0.2,0
					C55.7,60,55.9,60.2,56,60.1z M56.1,60.4c0.1,0,0.2-0.2,0-0.2C55.9,60.2,56,60.4,56.1,60.4z M56.4,60.9c0.1,0,0.1-0.2-0.1-0.2
					C56.2,60.8,56.3,61,56.4,60.9z M56.4,59.9c0.1,0,0.1-0.1,0-0.1C56.2,59.8,56.3,59.9,56.4,59.9z M56.7,61.4c0.1,0,0.1-0.2,0-0.1
					C56.6,61.3,56.6,61.4,56.7,61.4z M56.7,61.7c0.1,0,0.1-0.2,0-0.1C56.5,61.6,56.6,61.7,56.7,61.7z M60.8,59.5
					c-0.3,0.3,0.1,0.2,0.5,0c0.3-0.2,0.3-0.5,0-0.4C61,59.3,61.1,59.2,60.8,59.5z M61.6,58.8c0.1,0.1,0.2,0,0.5-0.3
					c0.2-0.2,0.2-0.3-0.1-0.2C61.8,58.5,61.5,58.7,61.6,58.8z M54.4,62.8c-0.4-0.3-0.6-0.3-0.5,0c0.1,0.3,0.5,0.3,0.9,0.5
					c0.4,0.2,0.7,0.1,0.3-0.1C54.7,63,54.4,62.8,54.4,62.8z M55.5,62.6C55.6,62.6,55.5,62.5,55.5,62.6
					C55.4,62.6,55.4,62.7,55.5,62.6z M55.7,68.5c-0.2,0.2-0.3,0.3-0.6,0.4c-0.3,0.1-0.1,0.2,0.1,0.2c0.2-0.1,0.1,0.1-0.1,0.2
					c-0.2,0.2-0.3,0.2-0.1,0.2c0.2,0,0.4-0.2,0.9-0.6c0.5-0.4,0.2-0.2,0.4-0.4c0.2-0.2,0.4-0.2,0.7-0.4c0.3-0.2,0.2-0.3,0.1-0.3
					c-0.1,0-0.1,0.1-0.4,0.3c-0.3,0.2-0.5,0.2-0.4,0c0.1-0.1,0-0.3-0.1-0.2c-0.1,0.1-0.2,0.2-0.2,0.1s0.1-0.1,0.1-0.3
					c0-0.2-0.1-0.2-0.3-0.2c-0.2,0-0.2-0.1-0.2,0.1c0,0.2,0.2,0.3,0.2,0.5C55.9,68.2,55.9,68.4,55.7,68.5z M53.3,70.4
					c-0.6,0.3-1.4,0.6-2,1c-0.7,0.4-0.7,0.5-0.3,0.4c0.4-0.1,0.4,0,0.9-0.3c0.6-0.3,0.7-0.4,0.7-0.4s0.1-0.1,0.5-0.3
					c0.4-0.3,1.1-0.6,1.4-0.8c0.3-0.3,0.2-0.3,0.1-0.2c-0.2,0.1-0.2,0.1-0.2,0.1c0-0.1,0-0.1-0.3,0.1C54.1,69.7,53.9,70,53.3,70.4z
					 M42.9,61.5c-0.1-0.1-0.1,0-0.3-0.2c-0.2-0.1-0.3,0.2-0.5-0.1c-0.2-0.2-0.2-0.1-0.1-0.3c0.1-0.3,0-0.2-0.1-0.4
					c-0.1-0.2-0.1-0.2-0.2-0.4c-0.1-0.2,0-0.4-0.2-0.4c-0.3,0-0.3,0.2-0.3,0.4c-0.1,0.2-0.2,0.2-0.3,0.6c0,0.4-0.1,0.3-0.1,0.8
					c0,0.6,0,0.6-0.3,1.1c-0.3,0.4-0.4,0.6-0.8,0.6c-0.3,0-0.4-0.1-0.5-0.3c-0.2-0.2-0.4-0.1-0.7-0.3c-0.3-0.2-0.2-0.2-0.6-0.3
					c-0.4-0.1-0.4-0.1-0.7-0.3c-0.3-0.2-0.4-0.2-0.3-0.4c0.1-0.2,0-0.2,0.2-0.3c0.1-0.1,0-0.2,0.2-0.4c0.1-0.1,0.1-0.2,0.3-0.3
					c0.2-0.1,0.3-0.2,0.2-0.3c-0.2-0.1-0.2,0.1-0.4,0.2c-0.2,0.1-0.1-0.1-0.4-0.2c-0.3-0.1-0.2,0.1-0.5,0c-0.3-0.1-0.3,0-0.7-0.1
					c-0.4-0.1-0.4-0.2-0.8-0.3c-0.4-0.1-0.5-0.1-0.9-0.1c-0.4,0-0.6,0.2-0.5,0.3c0.1,0.1,0.3,0,0.6,0c0.3,0,0.1-0.1,0.3-0.1
					c0.2,0,0.4,0,0.5,0.2c0.1,0.2,0,0.1-0.4,0.1c-0.3,0-0.7,0-0.9,0.2c-0.2,0.2-0.4,0.3-0.2,0.4c0.1,0.2-0.1,0.2-0.4,0.4
					c-0.3,0.2-0.3,0.1-0.4,0.3c-0.2,0.2-0.4,0.4-0.5,0.2c-0.1-0.2,0-0.2-0.2-0.4c-0.2-0.2-0.2-0.2-0.5-0.2c-0.3-0.1-0.1,0.1-0.2,0.2
					c-0.2,0.1-0.1-0.1-0.2,0c-0.2,0.1-0.1,0.2-0.3,0.2c-0.2,0-0.3,0.1-0.3,0.2c0,0.1-0.2,0.1-0.5,0.2c-0.2,0.1,0.1,0.3-0.1,0.5
					c-0.1,0.2-0.2-0.1-0.4-0.2c-0.2-0.1,0,0.2,0,0.4c0,0.2-0.1,0.2-0.3,0c-0.1-0.2-0.2-0.2-0.4-0.1c-0.2,0.1-0.1,0.3-0.1,0.4
					c0.1,0.1,0,0.2-0.2,0.3c-0.2,0.1-0.1,0.3-0.3,0.4c-0.3,0.2-0.2,0.1-0.7,0.1c-0.5,0-0.7,0.1-1,0.1c-0.3,0.1-0.9-0.1-1.2,0
					c-0.3,0.1-0.4,0.3-0.7,0.3c-0.3,0-0.2,0.3-0.3,0.3c-0.1,0-0.1-0.3-0.2-0.2c-0.1,0.1-0.1,0.3,0,0.4c0.1,0.2-0.1,0.2-0.1,0.4
					c0,0.2,0,0.3,0.3,0.6c0.3,0.2,0.3,0.6,0.2,0.5c-0.1,0-0.3-0.1-0.1,0.1c0.2,0.2,0.5,0.6,0.8,0.9c0.4,0.4,0.1,0.2,0.4,0.6
					c0.2,0.4,0.4,0.5,0.5,0.5c0.1,0.1,0.2,0.4,0.1,0.7c0,0.3-0.1,0-0.2,0.1c0,0.1,0.1,0.1,0.3,0.2c0.2,0,0.1,0.1,0.3,0.2
					c0.2,0.1,0.8,0.2,1.2,0.1c0.3-0.1,0.5-0.2,0.6-0.3c0.2-0.1,0.8,0,1.1,0.1c0.3,0.1,0.5,0.2,0.9,0c0.3-0.2,0.1-0.2,0.4-0.3
					c0.3-0.1,0.3,0,0.5-0.1c0.2-0.1,0.4,0.1,1.1,0c0.7-0.1,0.4-0.1,0.7-0.1c0.3,0,0.7,0,0.9,0c0.2,0,0.5,0.1,0.8,0.2
					c0.3,0.1,0.3,0,0.4,0.1c0.2,0.1,0.2,0.1,0.5,0.1c0.3,0,0.1,0,0.3,0.1c0.2,0,0.2,0.1,0.1,0.1c-0.1,0,0.1,0.1,0.3,0.2
					c0.1,0,0.3,0.2,0.4,0.5c0.2,0.2,0.2,0.2,0.3,0c0.1-0.2,0.3-0.2,0.5-0.3c0.1,0,0.3-0.1,0.5-0.3c0.2-0.2,0.2,0,0.1,0.2
					c-0.1,0.2-0.1,0.1-0.1,0.2c0,0.2-0.1,0.2-0.3,0.2c-0.2,0,0.1,0.1,0.3,0c0.2-0.1,0.1-0.1,0.2-0.2c0.1-0.1,0.2,0.1,0.2,0.3
					c0.1,0.2,0,0.1-0.2,0.2c-0.2,0.1-0.2,0-0.4,0c-0.2,0-0.3,0-0.3,0.1c0,0.1,0.1,0,0.4,0c0.3,0,0.1,0,0.5-0.2
					c0.4-0.2,0.2,0,0.4,0.1c0.2,0.1,0.2,0.2,0.2,0.4c0,0.2,0.3,0.2,0.5,0.3c0.3,0.1,0.4,0,0.7,0c0.3,0.1,0.4,0.1,0.8,0
					c0.4-0.1,0.5-0.3,0.6-0.2c0.2,0.1,0.3,0.3,0.7,0.2c0.4-0.1,0.5-0.2,0.8-0.3c0.3-0.2,0.5,0,0.9-0.2c0.4-0.2,0.3-0.4,0.6-0.8
					c0.3-0.4,0.6-0.7,1-1c0.4-0.3,0.5-0.4,0.7-0.7c0.3-0.4,0.3-0.5,0.5-0.8c0.1-0.3,0.1-0.3,0-0.5c-0.1-0.2,0-0.2,0-0.6
					c0-0.3,0.1-0.3,0.2-0.5c0.2-0.1,0.2-0.2,0.1-0.3c-0.1-0.1,0,0.1-0.2,0.3c-0.1,0.2-0.8-0.3-1-0.4c-0.2-0.2-0.1-0.2-0.2-0.5
					c-0.2-0.2-0.3,0-0.6,0c-0.2-0.1-0.2-0.4-0.3-0.6c-0.1-0.3-0.5-0.4-0.9-0.5c-0.4-0.1-0.6-0.3-0.7-0.6c-0.1-0.3,0-0.3-0.1-0.5
					c-0.1-0.2-0.3-0.4-0.2-0.7C43.2,61.7,43.1,61.6,42.9,61.5z M37.7,61.5c0.2,0,0.2-0.3,0-0.3C37.5,61.2,37.5,61.5,37.7,61.5z
					 M41.8,71.9c-0.4,0-0.3,0.1-0.1,0.2c0.1,0.1,0.1,0.2,0.3,0.4c0.2,0.2,0.4,0,0.7-0.1c0.2-0.1,0.3-0.2,0.5-0.4
					c0.2-0.2-0.1-0.2-0.3-0.1C42.6,72,42.2,71.9,41.8,71.9z M43.3,71.6c0.1,0,0.1-0.2,0-0.2C43.1,71.5,43.1,71.6,43.3,71.6z
					 M-0.1,32.8c-0.2,1.3-0.3,3.5-0.1,2.5c0.2-1,0.7-2.3,0.8-2.7c0.1-0.4-0.3-0.6-0.4-1.7C0.2,30.9,0.1,31.5-0.1,32.8z"/>
			</g>
		</g>
		<g>
			<g>
				<defs>
					
						<ellipse id="SVGID_5_" transform="matrix(0.3771 -0.9262 0.9262 0.3771 -11.0699 56.5406)" cx="36.5" cy="36.5" rx="36" ry="36"/>
				</defs>
				<clipPath id="SVGID_6_">
					<use xlink:href="#SVGID_5_"  style="overflow:visible;"/>
				</clipPath>
			</g>
		</g>
	</g>
	<ellipse transform="matrix(0.3771 -0.9262 0.9262 0.3771 -11.0699 56.5406)" class="st2" cx="36.5" cy="36.5" rx="36" ry="36"/>
	<polygon class="st3" points="70.8,1.4 75.2,15.2 89.7,15.2 78,23.6 82.4,37.4 70.8,28.9 59.1,37.4 63.5,23.6 51.9,15.2 66.3,15.2 	
		"/>
</g>
</svg>
