<?xml version="1.0" encoding="utf-8"?>
<!-- Generator: Adobe Illustrator 24.0.3, SVG Export Plug-In . SVG Version: 6.00 Build 0)  -->
<svg version="1.1" id="レイヤー_1" xmlns="http://www.w3.org/2000/svg" xmlns:xlink="http://www.w3.org/1999/xlink" x="0px"
	 y="0px" viewBox="0 0 150.6 40" style="enable-background:new 0 0 150.6 40;" xml:space="preserve">
<style type="text/css">
	.st0{fill:#FFFFFF;}
	.st1{fill:#E20012;}
</style>
<g>
	<path class="st0" d="M55.2,15.3v-3.4c0-0.7,0.5-1.2,1.2-1.2h0.1c0.7,0,1.2,0.5,1.2,1.2v3.4"/>
	<g>
		<path class="st0" d="M106.3,15.6c0.6,0,1.1-0.5,1.1-1.1l0,0c0-0.6-0.5-1.1-1.1-1.1h-9.7c-0.6,0-1.1,0.5-1.1,1.1l0,0
			c0,0.6,0.5,1.1,1.1,1.1H106.3z"/>
	</g>
	<path class="st0" d="M117.3,14.6c0.6,0,1.1-0.5,1.1-1.1l0,0c0-0.6-0.5-1.1-1.1-1.1h-6.4c-0.6,0-1.1,0.5-1.1,1.1l0,0
		c0,0.6,0.5,1.1,1.1,1.1H117.3z"/>
	<g>
		<g>
			<path class="st0" d="M65.3,17.8c0.7,0,1.2-0.5,1.2-1.2v-0.1c0-0.7-0.5-1.2-1.2-1.2H47.6c-0.7,0-1.2,0.5-1.2,1.2v0.1
				c0,0.7,0.5,1.2,1.2,1.2H65.3z"/>
		</g>
		<path class="st0" d="M54.9,17.8c0,1.9-3.3,7.8-7.6,11.1c-0.5,0.4-0.7,1.1-0.3,1.7l0.1,0.1c0.4,0.5,1.1,0.7,1.7,0.3
			c1-0.6,8.3-7.6,8.7-13.2"/>
		<path class="st0" d="M58.4,17.8c0,1.9,3.3,7.8,7.6,11.1c0.5,0.4,0.7,1.1,0.3,1.7l-0.1,0.1c-0.4,0.5-1.1,0.7-1.7,0.3
			c-1-0.6-8.3-7.6-8.7-13.2"/>
		<path class="st0" d="M84,11.8c1.8,0,2.3,1.5,2.3,2.5v15.7c0,0.7-0.5,1.2-1.2,1.2H85c-0.7,0-1.2-0.5-1.2-1.2V14.9c0-0.4-0.3-1-1-1
			H71.2c-0.7,0-1,0.7-1,1v15.1c0,0.7-0.5,1.2-1.2,1.2h-0.1c-0.7,0-1.2-0.5-1.2-1.2V14.3c0-1,0.6-2.5,2.3-2.5H84z"/>
		<path class="st0" d="M72.7,28.7c-0.7,0-1.2-0.5-1.2-1.2v-7.1c0-0.7,0.5-1.2,1.2-1.2h8.6c0.7,0,1.2,0.5,1.2,1.2v7.1
			c0,0.7-0.5,1.2-1.2,1.2H72.7z M74.3,21.3c-0.3,0-0.6,0.3-0.6,0.6v4.2c0,0.3,0.3,0.6,0.6,0.6h5.4c0.3,0,0.6-0.3,0.6-0.6v-4.2
			c0-0.3-0.3-0.6-0.6-0.6H74.3z"/>
		<g>
			<path class="st0" d="M81.8,17.7c0.6,0,1.1-0.5,1.1-1.1l0,0c0-0.6-0.5-1.1-1.1-1.1h-9.7c-0.6,0-1.1,0.5-1.1,1.1l0,0
				c0,0.6,0.5,1.1,1.1,1.1H81.8z"/>
		</g>
		<g>
			<path class="st0" d="M94,12.5c0-0.7-0.5-1.2-1.2-1.2h-0.1c-0.7,0-1.2,0.5-1.2,1.2v17.7c0,0.7,0.5,1.2,1.2,1.2h0.1
				c0.7,0,1.2-0.5,1.2-1.2V12.5z"/>
		</g>
		<path class="st0" d="M90,20.2c-0.3,0.8-0.7,1-1.3,1l0,0c-0.6-0.1-1.1-0.6-1-1.3c0.9-2.4,1.1-4.4,1.2-6.3c0.1-0.6,0.7-1,1.3-1l0,0
			c0.6,0.1,1,0.7,1,1.3C91.2,14.7,90.8,17.8,90,20.2z"/>
		<path class="st0" d="M89.7,25.8c-0.8,0.2-1.2,0.1-1.5-0.4l0,0c-0.3-0.5-0.2-1.3,0.4-1.5c2.5-0.8,4.2-1.8,5.7-2.9
			c0.5-0.3,1.2-0.1,1.5,0.4l0,0c0.3,0.5,0.1,1.2-0.4,1.5C94.8,23.4,92.1,25.1,89.7,25.8z"/>
		<path class="st0" d="M90.5,18.1h4.1c0.6,0,1.1-0.5,1.1-1.1l0,0c0-0.6-0.5-1.1-1.1-1.1h-4.1V18.1z"/>
		<path class="st0" d="M107.2,19.4c0.6,0,1.1-0.5,1.1-1.1l0,0c0-0.6-0.5-1.1-1.1-1.1H96c-0.6,0-1.1,0.5-1.1,1.1l0,0
			c0,0.6,0.5,1.1,1.1,1.1H107.2z"/>
		<path class="st0" d="M107.2,23.3c0.6,0,1.1-0.5,1.1-1.1l0,0c0-0.6-0.5-1.1-1.1-1.1H96c-0.6,0-1.1,0.5-1.1,1.1l0,0
			c0,0.6,0.5,1.1,1.1,1.1H107.2z"/>
		<path class="st0" d="M100.1,17.1v-4.7c0-0.7,0.5-1.2,1.2-1.2h0.1c0.7,0,1.2,0.5,1.2,1.2v4.7"/>
		<path class="st0" d="M105.7,19.4l0,9c0,2.8-2.2,2.9-3.5,2.8c-1.8-0.1-3.1-0.4-3-1.6c0.1-0.8,0.7-1,0.9-1c0.7,0,0.6,0.2,1.5,0.3
			l0.9,0c0.5,0,0.7-0.5,0.7-1.4v-8.2"/>
		<path class="st0" d="M100.7,26.1c0.3,0.7,0.2,1.2-0.3,1.6l0,0c-0.5,0.3-1.2,0.3-1.6-0.3c-0.5-1.1-0.3-0.7-1.6-2.2
			c-0.3-0.5-0.2-1.2,0.3-1.6l0,0c0.5-0.3,1.2-0.2,1.6,0.3C99.7,24.5,100.1,24.8,100.7,26.1z"/>
		<path class="st0" d="M127.6,16.7c0.6,0,1.1-0.5,1.1-1.1l0,0c0-0.6-0.5-1.1-1.1-1.1h-7.7c-0.6,0-1.1,0.5-1.1,1.1l0,0
			c0,0.6,0.5,1.1,1.1,1.1H127.6z"/>
		<path class="st0" d="M124.6,30.3c0,0.7-0.5,1.2-1.2,1.2h-0.1c-0.7,0-1.2-0.5-1.2-1.2V12.4c0-0.7,0.5-1.2,1.2-1.2h0.1
			c0.7,0,1.2,0.5,1.2,1.2V30.3z"/>
		<path class="st0" d="M128.3,21.5c0.6,0,1.1-0.5,1.1-1.1l0,0c0-0.6-0.5-1.1-1.1-1.1h-9.9c-0.6,0-1.1,0.5-1.1,1.1l0,0
			c0,0.6,0.5,1.1,1.1,1.1H128.3z"/>
		<path class="st0" d="M121.6,21.6c-1.4,2.4-2.8,4.6-5.3,6.7c-0.5,0.4-0.7,1.1-0.3,1.7l0.1,0.1c0.4,0.5,1.1,0.7,1.7,0.3
			c1.6-1,4.3-4.4,6.5-8.9"/>
		<path class="st0" d="M124.9,21.5c1,2.2,2.4,4.5,4.1,6.3c0.5,0.5,0.5,1.2,0,1.7l-0.1,0.1c-0.5,0.5-1.2,0.5-1.7,0
			c-0.6-0.5-3.3-4.1-5-8.1"/>
		<path class="st0" d="M114,16.2h2.1c1.8,0,1.6,1.7,1.6,2.4c-0.5,7.1-3.5,10.5-5.8,12.1c-0.5,0.5-1.2,0.4-1.7,0l-0.1-0.1
			c-0.5-0.5-0.4-1.2,0-1.7c3.8-2.2,5.4-8.4,5.1-10.3h-1.9"/>
		<path class="st0" d="M111.6,14.6c0,2.5-0.5,5.5-2.2,7.4c-0.3,0.6-0.1,1.3,0.5,1.6l0.1,0.1c0.6,0.3,1.3,0.1,1.6-0.5
			c1.2-1.7,2.5-4.5,2.3-8.5"/>
		<path class="st0" d="M113.9,25l-2-2.1c0.2-0.3,1.2-1.9,1.2-2.1l1.7,1.7"/>
		<path class="st0" d="M119.6,17.7c-0.4,0.7-0.8,0.9-1.4,0.8l0,0c-0.6-0.2-1.1-0.7-0.8-1.4c1.2-2.3,1.2-2.3,1.6-4.2
			c0.2-0.6,0.8-0.9,1.4-0.8l0,0c0.6,0.2,0.9,0.8,0.8,1.4C121,14.3,120.8,15.4,119.6,17.7z"/>
		<polygon class="st1" points="42.9,15 26.3,15 21.5,0 16.6,15 0,15 13.4,25 8.6,40 21.5,30.4 34.4,40 29.5,25 		"/>
		<path class="st0" d="M141.8,13.9c-1.2,0-1-0.1-1,1.2v14.6c0,0.7-0.4,1.2-1,1.2h-0.1c-0.5,0-1-0.5-1-1.2V12.8c0-0.7,0.4-1.2,1-1.2
			h9.7c0.7,0,1.2,0.5,1.2,1.2v16.9c0,0.7-0.5,1.2-1.2,1.2h-0.1c-0.7,0-1.2-0.5-1.2-1.2V15.1c0-1.3,0.1-1.2-1.2-1.2H141.8z"/>
		<path class="st0" d="M145.4,19.4v7.5h0.8v-5.7c0-0.3,0.3-0.6,0.6-0.6l0,0c0.3,0,0.6,0.3,0.6,0.6v6.7c0,0.5-0.4,1.1-1,1.1h-3.8
			c-0.6,0-1-0.6-1-1.1v-6.7c0-0.3,0.3-0.6,0.6-0.6l0,0c0.3,0,0.6,0.3,0.6,0.6v5.7h0.8v-7.5"/>
		<rect x="140.8" y="17.2" class="st0" width="7.3" height="2.1"/>
		<path class="st0" d="M142.2,17.2l-0.5-1.2c-0.2-0.5-0.1-1.2,0.4-1.3l0.3-0.1c0.5-0.1,1,0.1,1.1,0.6l0.8,2"/>
		<path class="st0" d="M146.8,17.2l0.6-1.3c0.2-0.5,0-1.1-0.5-1.3l-0.3-0.1c-0.5-0.1-1.1,0.3-1.2,0.7l-0.7,1.9"/>
		<rect x="134" y="18.7" class="st0" width="2.1" height="9.7"/>
		<path class="st0" d="M137.3,22.1c0.6,0,1-0.4,1-1l0,0c0-0.6-0.4-1-1-1h-5.1c-0.6,0-1,0.4-1,1l0,0c0,0.6,0.4,1,1,1H137.3z"/>
		<path class="st0" d="M132.4,31c-0.7,0.1-1.2-0.1-1.3-0.8l0-0.1c-0.1-0.6,0.4-1.3,1.1-1.4c1.7-0.2,3.9-0.6,5-1.2
			c0.5-0.3,1-0.2,1.3,0.3l0,0c0.5,0.9,0.2,1.3-0.5,1.8C137.1,29.9,133.1,30.9,132.4,31z"/>
		<path class="st0" d="M137.3,18.8c0.5,0,0.9-0.4,0.9-1l0,0c0-0.6-0.4-1-0.9-1h-4.6c-0.5,0-0.9,0.4-0.9,1l0,0c0,0.6,0.4,1,0.9,1
			H137.3z"/>
		<path class="st0" d="M135.7,13.8c0.2,0.3,1.1,1.4,1.6,1.9c0.4,0.3,1,0.3,1.3-0.1l0,0c0.4-0.4,0.5-1.1,0.1-1.4
			c-0.3-0.3-1.9-2.1-2.5-2.7c-0.8-0.8-1.7-0.6-2.2,0.1c-1.3,1.9-2.1,2.6-3,3.4c-0.5,0.5-0.5,1.2,0,1.7l0.1,0.1
			c0.5,0.5,1.2,0.5,1.7,0c0.5-0.5,2-2.7,2.3-3C135.4,13.5,135.5,13.6,135.7,13.8z"/>
		<path class="st0" d="M133.7,26.6c0,0.6-0.3,0.9-0.8,0.9c-0.5,0-0.9-0.4-1-0.9c0-0.5-0.2-1.9-0.4-2.4c-0.2-0.6,0.2-1,0.7-1.1
			c0.5-0.1,0.8,0,1,0.7C133.5,24.5,133.7,26,133.7,26.6z"/>
		<path class="st0" d="M137.2,23.7c-0.1,0.3-0.4,1.5-0.5,1.9c-0.1,0.4,0,0.7,0.3,0.8c0.3,0.1,0.7,0.2,0.9-0.4
			c0.2-0.4,0.5-1.8,0.6-2.1c0.1-0.5,0-0.7-0.4-0.8C137.5,23,137.3,23.1,137.2,23.7z"/>
		<g>
			<path class="st0" d="M25.9,16.7c1.1,0,1.5,1,1.5,1.6V28c0,0.4-0.3,0.8-0.8,0.8h-0.1c-0.4,0-0.8-0.3-0.8-0.8v-9
				c0-0.2-0.2-0.7-0.6-0.7h-7.3c-0.4,0-0.6,0.4-0.6,0.7v9c0,0.4-0.3,0.8-0.8,0.8h-0.1c-0.4,0-0.8-0.3-0.8-0.8v-9.7
				c0-0.6,0.4-1.6,1.5-1.6H25.9z"/>
			<path class="st0" d="M19.3,27.5c-0.3,0-0.6-0.3-0.6-0.6v-3.6c0-0.3,0.3-0.6,0.6-0.6h4.3c0.3,0,0.6,0.3,0.6,0.6v3.6
				c0,0.3-0.3,0.6-0.6,0.6H19.3z M20.4,24.1c-0.1,0-0.2,0.1-0.2,0.2V26c0,0.1,0.1,0.2,0.2,0.2h2.2c0.1,0,0.2-0.1,0.2-0.2v-1.7
				c0-0.1-0.1-0.2-0.2-0.2H20.4z"/>
			<g>
				<path class="st0" d="M24,21.3c0.4,0,0.7-0.3,0.7-0.7l0,0c0-0.4-0.3-0.7-0.7-0.7h-5c-0.4,0-0.7,0.3-0.7,0.7l0,0
					c0,0.4,0.3,0.7,0.7,0.7H24z"/>
			</g>
		</g>
	</g>
</g>
</svg>
