<?xml version="1.0" encoding="utf-8"?>
<!-- Generator: Adobe Illustrator 24.0.3, SVG Export Plug-In . SVG Version: 6.00 Build 0)  -->
<svg version="1.1" id="レイヤー_1" xmlns="http://www.w3.org/2000/svg" xmlns:xlink="http://www.w3.org/1999/xlink" x="0px"
	 y="0px" viewBox="0 0 491.3 61" style="enable-background:new 0 0 491.3 61;" xml:space="preserve">
<style type="text/css">
	.st0{fill:#0096D6;}
	.st1{fill:#58B131;}
	.st2{fill:#D7A600;}
	.st3{fill:#C60F28;}
	.st4{fill:#00973B;}
	.st5{fill:#427935;}
	.st6{fill:#FABD00;}
	.st7{fill:#E83819;}
	.st8{fill:#F5A200;}
	.st9{fill:#0075BA;}
	.st10{fill:#970B31;}
	.st11{fill:#00A6D9;}
	.st12{fill:#ED6A02;}
	.st13{fill:#E5001E;}
	.st14{fill:#DC007A;}
	.st15{fill:#003067;}
	.st16{fill:#D39200;}
	.st17{fill:#004C88;}
</style>
<g>
	<g>
		<path class="st0" d="M287.8,52.7c-2.1,2.6-5.2,4.6-9.1,6.1c-3.9,1.4-8.3,2.2-13.1,2.2c-5,0-9.4-1-13.2-3.2
			c-3.8-2.2-6.7-5.3-8.8-9.5c-2.1-4.2-3.2-9-3.3-14.7l0-3.9c0-5.8,0.9-10.8,2.8-15.1c1.9-4.2,4.7-7.5,8.4-9.8
			c3.7-2.3,8-3.4,12.9-3.5c6.9,0,12.3,1.6,16.2,4.8c3.9,3.3,6.2,8,7,14.3l-11.6,0.1c-0.6-3.3-1.7-5.7-3.6-7.3
			c-1.8-1.5-4.3-2.3-7.5-2.3c-4.1,0-7.1,1.6-9.3,4.6c-2.1,3.1-3.1,7.6-3.1,13.6l0,3.7c0,6.1,1.2,10.7,3.6,13.8
			c2.3,3.1,5.7,4.6,10.2,4.6c4.5,0,7.7-1,9.6-2.9l-0.1-10l-10.9,0.1l-0.1-8.8l22.8-0.2L287.8,52.7z"/>
		<path class="st0" d="M386.5,47.4l-21,0.1l-3.9,12l-12.7,0.1l21.2-58.2l11.1-0.1l22.1,57.9l-12.7,0.1L386.5,47.4z M368.7,37.9
			l14.5-0.1l-7.4-21.7L368.7,37.9z"/>
		<path class="st0" d="M418.8,49.6l25.4-0.2l0.1,9.6l-37.3,0.3l-0.4-58l12-0.1L418.8,49.6z"/>
		<path class="st0" d="M479.3,43.5c0-2.3-0.8-4-2.4-5.2c-1.6-1.2-4.5-2.5-8.6-3.8c-4.2-1.3-7.4-2.6-9.9-3.9
			c-6.6-3.5-9.9-8.3-10-14.3c0-3.1,0.8-5.9,2.6-8.4c1.7-2.5,4.3-4.4,7.6-5.8c3.3-1.4,7-2.1,11.1-2.1c4.1,0,7.8,0.7,11.1,2.2
			c3.3,1.5,5.8,3.6,7.6,6.3c1.8,2.7,2.7,5.8,2.8,9.3l-12,0.1c0-2.7-0.9-4.7-2.6-6.2c-1.7-1.5-4-2.2-7.1-2.2c-2.9,0-5.2,0.7-6.8,1.9
			c-1.6,1.2-2.4,2.9-2.4,4.9c0,1.9,1,3.5,2.9,4.7c1.9,1.3,4.7,2.4,8.4,3.5c6.8,2,11.8,4.5,14.9,7.5c3.1,3,4.7,6.8,4.7,11.3
			c0,5-1.8,9-5.6,11.9c-3.8,2.9-8.9,4.3-15.3,4.4c-4.5,0-8.5-0.8-12.2-2.4c-3.7-1.6-6.5-3.8-8.4-6.7c-1.9-2.8-2.9-6.1-3-9.9l12-0.1
			c0,6.4,3.9,9.6,11.5,9.5c2.8,0,5.1-0.6,6.6-1.8C478.5,47.2,479.3,45.6,479.3,43.5z"/>
	</g>
	<g id="XMLID_1_">
		<path id="XMLID_18_" class="st1" d="M307.2,22.7c0.7-1.2,1.6-2.4,2.6-3.4l-8.7-9.5c-2.2,2.1-4,4.5-5.5,7.2L307.2,22.7z"/>
		<path id="XMLID_17_" class="st2" d="M328.4,16c1.3,0.6,2.5,1.4,3.6,2.3l8.7-9.5c-2.3-2-4.9-3.6-7.7-4.8L328.4,16z"/>
		<path id="XMLID_16_" class="st3" d="M348.3,18.8l-11.5,5.7c0.5,1.3,0.9,2.6,1.2,4.1l12.8-1.2C350.3,24.4,349.5,21.5,348.3,18.8"/>
		<path id="XMLID_15_" class="st4" d="M335.9,22.9l11.5-5.7c-1.4-2.6-3.2-5.1-5.4-7.1l-8.7,9.5C334.4,20.5,335.2,21.7,335.9,22.9"/>
		<path id="XMLID_14_" class="st5" d="M304.9,31.1c0-0.3,0-0.5,0-0.8l-12.8-1.1c0,0.6-0.1,1.3-0.1,1.9c0,2.5,0.3,4.8,0.9,7.1
			l12.4-3.5C305,33.5,304.9,32.3,304.9,31.1"/>
		<path id="XMLID_13_" class="st6" d="M334.3,41.6c-0.9,1.1-2,2.1-3.1,2.9l6.8,10.9c2.5-1.7,4.7-3.8,6.6-6.1L334.3,41.6z"/>
		<path id="XMLID_12_" class="st7" d="M338.1,31.1c0,1.2-0.1,2.4-0.4,3.5l12.4,3.6c0.6-2.3,0.9-4.6,0.9-7.1c0-0.6,0-1.2-0.1-1.8
			l-12.8,1.2C338.1,30.7,338.1,30.9,338.1,31.1"/>
		<path id="XMLID_11_" class="st8" d="M308.9,41.8l-10.2,7.8c1.9,2.3,4.2,4.4,6.7,6.1l6.8-10.9C310.9,43.9,309.8,42.9,308.9,41.8"/>
		<path id="XMLID_10_" class="st9" d="M305.1,28.5c0.2-1.4,0.6-2.8,1.2-4.1l-11.5-5.7c-1.3,2.7-2.1,5.6-2.5,8.7L305.1,28.5z"/>
		<path id="XMLID_9_" class="st10" d="M336.4,56.5l-6.7-10.9c-1.2,0.7-2.5,1.2-3.9,1.6l2.4,12.6C331,59.1,333.8,58,336.4,56.5"/>
		<path id="XMLID_8_" class="st11" d="M337.2,36.4c-0.4,1.3-1.1,2.6-1.8,3.7l10.3,7.7c1.7-2.4,3-5,3.9-7.9L337.2,36.4z"/>
		<path id="XMLID_7_" class="st12" d="M323.9,47.5c-0.8,0.1-1.6,0.2-2.4,0.2c-0.7,0-1.3,0-1.9-0.1l-2.4,12.6
			c1.4,0.2,2.8,0.3,4.3,0.3c1.6,0,3.2-0.1,4.8-0.4L323.9,47.5z"/>
		<path id="XMLID_6_" class="st13" d="M322.6,14.5c1.4,0.1,2.8,0.4,4.1,0.8l4.6-12c-2.7-1-5.7-1.5-8.7-1.7V14.5z"/>
		<path id="XMLID_5_" class="st14" d="M317.7,47.3c-1.4-0.3-2.8-0.9-4.1-1.5l-6.8,10.9c2.6,1.5,5.4,2.6,8.5,3.2L317.7,47.3z"/>
		<path id="XMLID_4_" class="st15" d="M316.5,15.2c1.3-0.4,2.7-0.7,4.2-0.7V1.6c-3.1,0.1-6.1,0.6-8.8,1.6L316.5,15.2z"/>
		<path id="XMLID_3_" class="st16" d="M307.7,40.4c-0.8-1.2-1.5-2.5-2-3.9L293.4,40c0.9,2.9,2.3,5.7,4.1,8.2L307.7,40.4z"/>
		<path id="XMLID_2_" class="st17" d="M311.2,18.1c1.1-0.9,2.3-1.6,3.6-2.2l-4.6-12c-2.8,1.2-5.3,2.7-7.6,4.6L311.2,18.1z"/>
	</g>
	<path class="st0" d="M13.5,20.5c0-0.9-0.3-1.6-0.9-2c-0.6-0.5-1.7-1-3.3-1.5c-1.6-0.5-2.8-1-3.8-1.5C2.3,13.9,0.7,11.7,0.7,9
		c0-1.4,0.4-2.6,1.2-3.6c0.8-1,1.9-1.9,3.4-2.4C6.8,2.3,8.4,2,10.3,2C12,2,13.6,2.3,15,3c1.4,0.6,2.5,1.5,3.3,2.7
		c0.8,1.2,1.2,2.5,1.2,4h-5.9c0-1-0.3-1.8-0.9-2.3c-0.6-0.6-1.5-0.8-2.5-0.8c-1.1,0-1.9,0.2-2.5,0.7C7,7.7,6.7,8.3,6.7,9
		c0,0.6,0.3,1.2,1,1.7c0.7,0.5,1.9,1,3.6,1.6c1.7,0.5,3.1,1.1,4.2,1.8c2.7,1.5,4,3.7,4,6.4c0,2.2-0.8,3.9-2.4,5.1
		c-1.6,1.2-3.9,1.9-6.7,1.9c-2,0-3.8-0.4-5.4-1.1c-1.6-0.7-2.8-1.7-3.7-3C0.4,22.1,0,20.7,0,19.1h6c0,1.3,0.3,2.3,1,2.9
		c0.7,0.6,1.8,0.9,3.3,0.9c1,0,1.8-0.2,2.3-0.6C13.3,21.9,13.5,21.3,13.5,20.5z"/>
	<path class="st0" d="M42.3,2.3v16.2c0,1.8-0.4,3.4-1.2,4.8c-0.8,1.3-1.9,2.4-3.4,3.1c-1.5,0.7-3.2,1.1-5.2,1.1
		c-3,0-5.4-0.8-7.1-2.3c-1.7-1.6-2.6-3.7-2.6-6.4V2.3h6v16.4c0.1,2.7,1.3,4.1,3.8,4.1c1.2,0,2.2-0.3,2.8-1c0.6-0.7,1-1.8,1-3.3V2.3
		H42.3z"/>
	<path class="st0" d="M59.1,20.5c0-0.9-0.3-1.6-0.9-2c-0.6-0.5-1.7-1-3.3-1.5c-1.6-0.5-2.8-1-3.8-1.5c-3.2-1.6-4.8-3.7-4.8-6.5
		c0-1.4,0.4-2.6,1.2-3.6c0.8-1,1.9-1.9,3.4-2.4C52.4,2.3,54,2,55.9,2c1.8,0,3.4,0.3,4.8,1c1.4,0.6,2.5,1.5,3.3,2.7
		c0.8,1.2,1.2,2.5,1.2,4h-5.9c0-1-0.3-1.8-0.9-2.3c-0.6-0.6-1.5-0.8-2.5-0.8c-1.1,0-1.9,0.2-2.5,0.7c-0.6,0.5-0.9,1.1-0.9,1.8
		c0,0.6,0.3,1.2,1,1.7c0.7,0.5,1.9,1,3.6,1.6c1.7,0.5,3.1,1.1,4.2,1.8c2.7,1.5,4,3.7,4,6.4c0,2.2-0.8,3.9-2.4,5.1
		c-1.6,1.2-3.9,1.9-6.7,1.9c-2,0-3.8-0.4-5.4-1.1c-1.6-0.7-2.8-1.7-3.7-3c-0.8-1.3-1.2-2.7-1.2-4.3h6c0,1.3,0.3,2.3,1,2.9
		c0.7,0.6,1.8,0.9,3.3,0.9c1,0,1.8-0.2,2.3-0.6C58.8,21.9,59.1,21.3,59.1,20.5z"/>
	<path class="st0" d="M87.9,7h-7.4v20.1h-6V7h-7.3V2.3h20.7V7z"/>
	<path class="st0" d="M102.8,22.5h-8.2l-1.4,4.6h-6.4l9.1-24.7h5.6l9.1,24.7h-6.4L102.8,22.5z M96,17.9h5.3l-2.7-8.6L96,17.9z"/>
	<path class="st0" d="M119.1,27.1h-5.9V2.3h5.9V27.1z"/>
	<path class="st0" d="M144.3,27.1h-5.9l-8.8-15.4v15.4h-6V2.3h6l8.7,15.4V2.3h5.9V27.1z"/>
	<path class="st0" d="M162.8,22.5h-8.2l-1.4,4.6h-6.4l9.1-24.7h5.6l9.1,24.7h-6.4L162.8,22.5z M156,17.9h5.3l-2.7-8.6L156,17.9z"/>
	<path class="st0" d="M172.8,27.1V2.3h8.9c3.2,0,5.6,0.6,7.3,1.7c1.7,1.2,2.5,2.9,2.5,5.1c0,1.3-0.3,2.4-0.9,3.3
		c-0.6,0.9-1.5,1.6-2.6,2c1.3,0.3,2.3,1,3,1.9c0.7,0.9,1,2.1,1,3.4c0,2.4-0.8,4.2-2.3,5.5c-1.5,1.2-3.8,1.8-6.8,1.9H172.8z
		 M178.7,12.7h3.1c1.3,0,2.2-0.2,2.8-0.7c0.6-0.5,0.8-1.2,0.8-2.1c0-1-0.3-1.8-0.9-2.3c-0.6-0.5-1.6-0.7-2.9-0.7h-2.9V12.7z
		 M178.7,16.6v5.9h3.9c1.1,0,1.9-0.2,2.5-0.7c0.6-0.5,0.9-1.2,0.9-2.1c0-2.1-1-3.1-3.1-3.1H178.7z"/>
	<path class="st0" d="M201.5,22.5h10.4v4.6h-16.3V2.3h6V22.5z"/>
	<path class="st0" d="M230.1,16.6h-9.4v5.9h11.1v4.6h-17V2.3h17.1V7h-11.1v5.2h9.4V16.6z"/>
	<path class="st0" d="M0.8,60.5V36.3h7.8c2.1,0,4.1,0.5,5.8,1.5c1.7,1,3,2.3,4,4.1c1,1.8,1.4,3.8,1.5,6v1.1c0,2.2-0.5,4.2-1.4,6
		c-0.9,1.8-2.3,3.1-4,4.1c-1.7,1-3.6,1.5-5.7,1.5H0.8z M6.6,40.8V56h2c1.7,0,3-0.6,3.9-1.8c0.9-1.2,1.3-3,1.3-5.3v-1
		c0-2.3-0.4-4.1-1.3-5.3s-2.2-1.8-3.9-1.8H6.6z"/>
	<path class="st0" d="M36.5,50.2H28V56h10.2v4.5H22.1V36.3h16.1v4.5H28v5.1h8.6V50.2z"/>
	<path class="st0" d="M51,53.9l4.8-17.6h6.5l-8.2,24.2h-6.4l-8.1-24.2h6.5L51,53.9z"/>
	<path class="st0" d="M78.5,50.2H70V56h10.2v4.5h-16V36.3h16v4.5H70v5.1h8.5V50.2z"/>
	<path class="st0" d="M88,56h9.2v4.5H82.1V36.3H88V56z"/>
	<path class="st0" d="M119,48.9c0,2.4-0.4,4.5-1.3,6.3c-0.9,1.8-2.1,3.2-3.7,4.2c-1.6,1-3.5,1.5-5.5,1.5c-2.1,0-3.9-0.5-5.5-1.4
		c-1.6-0.9-2.8-2.3-3.7-4.1c-0.9-1.8-1.4-3.8-1.4-6.1v-1.4c0-2.4,0.4-4.5,1.3-6.3c0.9-1.8,2.1-3.2,3.7-4.2c1.6-1,3.5-1.5,5.6-1.5
		c2.1,0,3.9,0.5,5.5,1.5c1.6,1,2.9,2.4,3.8,4.2c0.9,1.8,1.3,3.9,1.4,6.2V48.9z M113,47.9c0-2.4-0.4-4.2-1.2-5.5
		c-0.8-1.2-2-1.9-3.5-1.9c-2.9,0-4.5,2.2-4.6,6.6l0,1.8c0,2.4,0.4,4.2,1.2,5.5c0.8,1.3,2,1.9,3.5,1.9c1.5,0,2.6-0.6,3.4-1.9
		c0.8-1.3,1.2-3.1,1.2-5.4V47.9z"/>
	<path class="st0" d="M127.1,52.3v8.2h-5.8V36.3h9.7c1.9,0,3.5,0.3,4.9,1c1.4,0.7,2.5,1.7,3.3,2.9c0.8,1.3,1.2,2.7,1.2,4.3
		c0,2.4-0.8,4.3-2.5,5.7c-1.7,1.4-4,2.1-7,2.1H127.1z M127.1,47.8h3.8c1.1,0,2-0.3,2.6-0.8c0.6-0.6,0.9-1.4,0.9-2.4
		c0-1.1-0.3-2-0.9-2.7c-0.6-0.7-1.4-1-2.5-1h-3.9V47.8z"/>
	<path class="st0" d="M150.2,36.3l5.4,16.9l5.4-16.9h7.7v24.2h-5.9v-5.7l0.6-11.6l-5.9,17.2h-3.9l-5.9-17.3l0.6,11.6v5.7h-5.8V36.3
		H150.2z"/>
	<path class="st0" d="M185.7,50.2h-8.6V56h10.3v4.5h-16.1V36.3h16.1v4.5h-10.3v5.1h8.6V50.2z"/>
	<path class="st0" d="M209.6,60.5h-5.8l-8.6-15.1v15.1h-5.8V36.3h5.8l8.6,15.1V36.3h5.8V60.5z"/>
	<path class="st0" d="M231.8,40.8h-7.3v19.7h-5.8V40.8h-7.1v-4.5h20.3V40.8z"/>
</g>
</svg>
