<?xml version="1.0" encoding="utf-8"?>
<!-- Generator: Adobe Illustrator 24.0.3, SVG Export Plug-In . SVG Version: 6.00 Build 0)  -->
<svg version="1.1" xmlns="http://www.w3.org/2000/svg" xmlns:xlink="http://www.w3.org/1999/xlink" x="0px" y="0px"
	 viewBox="0 0 117.1 117.1" style="enable-background:new 0 0 117.1 117.1;" xml:space="preserve">
<style type="text/css">
	.st0{clip-path:url(#SVGID_4_);fill:#FFFFFF;}
	.st1{fill:none;}
	.st2{fill:#FFFFFF;}
	.st3{fill:#E30012;}
</style>
<g id="earth">
	<g>
		<g>
			<g>
				<g>
					<defs>
						
							<ellipse id="SVGID_1_" transform="matrix(0.3771 -0.9262 0.9262 0.3771 -17.7582 90.7014)" cx="58.6" cy="58.6" rx="36" ry="36"/>
					</defs>
					<clipPath id="SVGID_2_">
						<use xlink:href="#SVGID_1_"  style="overflow:visible;"/>
					</clipPath>
				</g>
			</g>
			<g>
				<g>
					<defs>
						
							<ellipse id="SVGID_3_" transform="matrix(0.3771 -0.9262 0.9262 0.3771 -17.7582 90.7014)" cx="58.6" cy="58.6" rx="36" ry="36"/>
					</defs>
					<clipPath id="SVGID_4_">
						<use xlink:href="#SVGID_3_"  style="overflow:visible;"/>
					</clipPath>
					<path class="st0" d="M60.9,22.4c0.2,0.2,0.1,0,0.2,0c0.2,0,0.3,0,0.3,0.1c0.1,0.1,0,0.1,0,0.1c-0.1,0-0.1,0.1,0,0.2
						c0.1,0.2,0.2,0.2,0.5,0.2c0.3,0,0.6,0,0.8,0.1c0.2,0.1,0.3,0.2,0.1,0.2c-0.2,0-0.2-0.1-0.2,0.1c0,0.1,0,0.1-0.3,0.1
						s-0.5-0.1-0.7,0c-0.2,0-0.1,0.2-0.3,0.2c-0.2,0-0.4,0-0.5,0.1c-0.1,0.1-0.2,0.1-0.4,0.1c-0.2,0-0.3,0-0.5,0
						c-0.2,0-0.1,0.1-0.2,0.1c-0.1,0-0.2-0.1-0.3,0c-0.1,0.1-0.1,0.1-0.3,0.1c-0.3,0-0.2,0-0.3,0c-0.1,0.1-0.2,0.1-0.6,0.1
						c-0.4,0-0.5-0.1-0.7-0.1c-0.2,0-0.2-0.1-0.1-0.1c0.1-0.1,0-0.2,0-0.1c-0.1,0.1-0.2,0.1-0.2,0c-0.1,0-0.1-0.1-0.1-0.1
						c0-0.1-0.1,0-0.1,0c0,0.1-0.1,0.1-0.2,0.1c-0.1,0,0.1,0.1-0.2,0.2c-0.2,0-0.4,0.1-0.4-0.2c0-0.2,0.1-0.2,0-0.4
						c-0.1-0.2-0.2-0.1-0.3-0.1c-0.1,0.1-0.1-0.1-0.3-0.1c-0.2,0-0.2,0-0.2-0.1c0,0,0.2-0.1,0-0.1c-0.2,0-0.3,0-0.3-0.1
						c-0.1,0-0.1,0-0.2,0c-0.1,0-0.1-0.1-0.1-0.2c0.1-0.1,0.3-0.1-0.1-0.2c-0.3,0-0.7,0-0.2-0.2c0.5-0.2,0.7-0.1,1.3-0.2
						c0.6-0.1,1.2-0.2,2.7-0.2C60.2,22.2,60.7,22.2,60.9,22.4z M63.6,23.7c-0.3,0-0.5,0-0.6,0c-0.1,0-0.1,0.1-0.6,0.1
						c-0.5,0-0.6,0-0.9,0.1c-0.3,0.1-0.4,0-0.6,0.1c-0.2,0-0.2,0.1,0.1,0.2c0.3,0.1,0.5,0.2,0.8,0.2c0.3,0,0.4-0.1,0.5,0
						c0.1,0.1,0.1,0.2,0.3,0.1c0.2,0,0.2,0,0.3,0c0.2,0,0.2,0,0.3,0c0.1,0,0.1-0.1,0-0.2c-0.1-0.1-0.1-0.2,0.1-0.1
						c0.2,0.1,0.2,0.2,0.1,0.2c-0.1,0.1,0,0.2,0.3,0.1c0.3-0.1,0.4-0.1,0.6-0.1c0.2,0,0.1,0,0.3-0.1c0.2-0.1,0.3,0,0.3-0.1
						c0-0.1,0-0.1-0.2-0.1c-0.2,0-0.3-0.1-0.2-0.2c0.1-0.1,0.1,0,0.3,0.1c0.2,0.1,0.3,0.2,0.6,0.1c0.1,0,0.3-0.1,0.4,0.1
						c0.1,0.1,0.2,0.2,0.3,0.2c0.1,0,0.1-0.1,0.1-0.2c-0.1-0.1,0-0.1,0.2-0.1c0.1,0,0.2,0.1,0.2,0.2c0,0.1,0,0.1-0.2,0.1
						c-0.1,0-0.1,0.2,0.1,0.2c0.2,0.1,0.3-0.1,0.3,0.1c0,0.1,0,0.2,0.2,0.1c0.2-0.1,0.2-0.2,0.3-0.2c0.1,0,0-0.2-0.1-0.2
						c-0.2,0-0.1-0.1-0.2-0.1c0-0.1-0.3-0.1-0.4-0.1c-0.1-0.1-0.2-0.1-0.4-0.3c-0.2-0.1-0.4-0.1-0.7-0.2c-0.3-0.1-0.2-0.1-0.5-0.1
						c-0.3,0-0.3,0.1-0.1,0.1c0.2,0.1,0.3,0.1,0.5,0.2c0.2,0.1,0.4,0.1,0.4,0.2c0,0.1-0.1,0.1-0.4,0c-0.3-0.1-0.3-0.1-0.5-0.2
						c-0.2-0.1-0.2-0.1-0.4-0.1c-0.3,0-0.3,0-0.5,0.1C63.6,23.7,63.6,23.7,63.6,23.7z M64.6,24.7C64.7,24.7,64.7,24.6,64.6,24.7
						C64.5,24.6,64.5,24.7,64.6,24.7z M65.2,24.4c-0.1,0-0.2,0.1-0.1,0.2c0.1,0.1,0.2,0.1,0.2,0c0.1-0.1,0.2-0.1,0.3-0.1
						c0.1-0.1,0-0.2-0.2-0.1C65.3,24.3,65.3,24.3,65.2,24.4z M65.3,24.7c-0.1,0.1-0.1,0.2,0,0.2c0.1,0,0.2,0,0.3,0
						c0.1-0.1,0.1,0,0.2,0c0.1,0,0.1-0.1,0.1-0.1c-0.1-0.1,0,0,0-0.1c0-0.1-0.1-0.1-0.3-0.1C65.5,24.5,65.4,24.6,65.3,24.7z
						 M66.3,24.9c0.1,0,0-0.1,0.1-0.1c0.1,0,0.1-0.1-0.1-0.1C66.2,24.8,66.2,24.9,66.3,24.9z M65.9,24.7C66,24.7,66,24.6,65.9,24.7
						C65.8,24.6,65.9,24.7,65.9,24.7z M66.3,25.1c-0.1,0-0.1-0.1-0.2-0.1c-0.1,0-0.2,0.1-0.1,0.1c0.1,0,0.1,0,0.2,0.1
						C66.3,25.3,66.3,25.2,66.3,25.1c0.1,0.1,0.2,0.1,0.3,0.2c0.1,0.1,0.1,0,0.2,0c0.1,0,0.1,0,0-0.1c-0.1-0.1-0.1-0.1-0.3-0.1
						C66.4,25.1,66.4,25.1,66.3,25.1z M67.1,24.9c-0.2,0-0.1,0.1,0,0.2c0.2,0,0.2,0,0.4,0c0.1,0,0.1-0.1,0.2,0
						c0.1,0.1,0,0.1-0.1,0.1c-0.1,0,0,0.1-0.1,0.1c-0.1,0-0.1-0.1-0.1-0.1c-0.1,0,0,0.1-0.1,0.1c-0.1,0-0.2-0.1-0.2,0
						c-0.1,0.1,0.1,0.1,0.5,0.3c0.4,0.2,0.5,0.2,0.6,0.3c0.2,0,0.1-0.1,0.1-0.3c0-0.1,0.1-0.1,0.2,0c0.1,0,0.1-0.1,0-0.2
						c-0.1-0.1-0.2-0.1-0.1-0.1c0,0,0.1,0,0.3,0.1c0.1,0.1,0.2,0,0-0.1c-0.1-0.1-0.2-0.1-0.4-0.2c-0.2-0.1-0.2-0.2-0.4-0.3
						c-0.1-0.1-0.1-0.1-0.2,0C67.4,24.9,67.3,24.9,67.1,24.9z M69.8,24.7c0.1,0.1,0,0.2-0.3,0.3c-0.3,0-0.5,0-0.7,0
						c-0.2-0.1-0.1-0.1-0.3-0.1c-0.2,0-0.2,0-0.1,0.1c0.2,0.1,0.3,0.1,0.5,0.1c0.2,0.1,0.4,0,0.5,0.2c0.1,0.2-0.1,0.2-0.3,0.3
						c-0.2,0-0.2,0.1-0.2,0.3c0.1,0.3,0.2,0.3,0.6,0.3c0.3,0,0.3,0.1,0.6,0.2c0.3,0.1,0.3,0.1,0.6,0.1c0.4,0,0.5,0,0.3-0.1
						c-0.3-0.2-0.4-0.2-0.6-0.3c-0.2,0-0.1-0.1,0.1-0.1c0.2,0,0.2,0,0.2-0.1c0-0.1,0.1,0,0.2,0.1c0.1,0.1,0.1,0.1,0.2,0
						c0.1,0,0-0.1-0.1-0.2c0-0.1,0.1,0,0.3,0.1c0.1,0.2,0.1,0.1,0.3,0.1c0.2,0,0.1-0.1,0.1-0.2c0-0.1,0.1,0,0.2,0c0.1,0,0.3,0,0-0.2
						c-0.3-0.1-0.4-0.2-0.6-0.4c-0.3-0.2-0.2-0.2-0.3-0.3c-0.2-0.2-0.2-0.2-0.3-0.3c-0.1-0.1,0-0.2,0.2,0c0.3,0.2,0.3,0.3,0.6,0.6
						c0.3,0.2,0.3,0.2,0.6,0.3c0.3,0,0.6,0.1,0.4,0.1c-0.3,0-0.2,0,0,0.2c0.2,0.2,0.3,0.4,0.1,0.3c-0.2-0.1-0.5-0.2-0.4,0
						c0.1,0.2,0.2,0.2,0,0.3c-0.2,0.1-0.2,0.2,0.1,0.2c0.2,0,0.3,0.2,0.2,0.3c-0.1,0.1-0.2,0-0.5,0c-0.2,0-0.3,0.1,0,0.3
						c0.3,0.2,0.3,0.2,0.4,0.4c0.1,0.2,0.1,0.2,0.2,0.4c0.2,0.2-0.1,0.2-0.2,0.3c-0.2,0.1-0.1,0.1-0.3,0.2c-0.2,0-0.1,0.2-0.2,0.3
						c-0.2,0.1-0.1,0.3-0.5,0.3c-0.4,0-0.3,0.1-0.6,0.2c-0.2,0.1-0.1,0.3,0,0.6c0.1,0.4,0.1,0.4,0.3,0.5c0.2,0.2,0.2,0.3,0,0.4
						c-0.2,0.1,0,0.2,0.3,0.2c0.3,0.1,0.5,0.1,0.8,0.1c0.2,0.1,0.3,0,0.6,0c0.3-0.1,0.3,0,0.3,0.2c0,0.2-0.2,0.3-0.3,0.2
						c-0.1-0.1-0.2-0.1-0.3,0c-0.1,0.1,0,0.2,0,0.5c0,0.2,0.1,0.3,0.2,0.3c0.2,0,0.2-0.1,0.3,0c0.1,0.1,0.2,0.2,0.4,0.1
						c0.3-0.1,0.2-0.2,0.3-0.3c0.1-0.2,0-0.3,0.2-0.3c0.2,0.1,0.1,0.2,0.3,0.2c0.2,0.1,0.4,0.3,0.2,0.5c-0.1,0.2-0.2,0.1-0.3,0.2
						c-0.1,0-0.1,0.2,0.1,0.3c0.2,0.1,0.3,0.2,0.4,0.5c0.1,0.3,0.2,0.1,0.5,0.3c0.3,0.2,0.3,0.2,0.6,0.3c0.3,0.1,0.4-0.1,0.7,0
						c0.3,0.1,0.2,0.2,0.4,0.2c0.2,0,0.1-0.2,0.3-0.2s0.1-0.1,0.3-0.1c0.2,0,0.1-0.1,0.3,0.1c0.2,0.2,0.3,0.4,0.4,0.6
						c0.2,0.2,0.1,0.1,0.1,0.4c0,0.3,0.1,0.3,0.1,0.4c-0.1,0.1-0.1,0.1-0.1,0.3c0.1,0.2,0.2,0.3,0.1,0.4c-0.1,0.1-0.2,0.1-0.1,0.3
						c0,0.2,0.1,0.2,0.2,0.1c0.1-0.1,0-0.2,0-0.3c0-0.2,0-0.2,0-0.4c0-0.2,0.1-0.2,0.1-0.4c-0.1-0.2,0.1-0.3,0-0.5
						c-0.1-0.2-0.1-0.2-0.1-0.4c0-0.2-0.1-0.2-0.2-0.5c-0.1-0.3-0.1-0.5-0.2-0.6c-0.1-0.2-0.1-0.1-0.3-0.2c-0.2-0.1-0.2-0.1-0.3-0.3
						c-0.1-0.2,0-0.3,0.2-0.3c0.2,0.1,0.1,0.1,0.2,0.1c0.1,0,0.1-0.1-0.1-0.3c-0.1-0.2-0.2-0.2-0.1-0.2c0.1,0,0.1-0.1-0.1-0.2
						c-0.2-0.1-0.4-0.2-0.3-0.3c0.1-0.1,0.2-0.1,0.3,0c0.1,0.2,0.1,0.2,0.2-0.1c0.1-0.3,0.2-0.1,0.2-0.3c0-0.2,0.1-0.2,0.2-0.2
						c0.1,0,0.1,0,0.2-0.1c0.1-0.1,0.2-0.1,0.4,0c0.3,0.1,0.3,0,0.5,0c0.2,0,0.4,0,0.7,0.2c0.3,0.2,0.4,0,0.7,0.2
						c0.3,0.2,0.4,0.2,0.5,0.2c0.1-0.1,0-0.1-0.1-0.2c-0.1-0.1-0.1-0.2,0.1-0.2c0.2,0,0.3,0.2,0.5,0.3c0.2,0.1,0.3,0,0.5,0.1
						c0.2,0.1,0.3,0.1,0.6,0.1c0.2,0.1,0.4,0,0.6,0c0.3,0,0.6,0.2,0.8,0.4c0.2,0.2,0,0.2,0.4,0.5c0.4,0.3,0.9,0.6,1.4,1.2
						c0.6,0.5,1.3,1.2,2,1.9c0.7,0.7,1.1,1,1.3,1.2c0.2,0.1,0.1,0-0.1-0.3c-0.3-0.3-1.2-1.5-2-2.2c-0.7-0.8-1.3-1.4-1.8-1.9
						c-0.5-0.5-1.5-1.4-2.7-2.4c-1.2-1-2.7-1.9-3.3-2.3c-0.6-0.3-2-1.3-3.4-1.9c-1.3-0.6-3.8-1.4-4.8-1.8c-1-0.4-1.3-0.6-1.6-0.7
						c-0.3-0.1-0.3,0-0.2,0.1c0.1,0.1,0.3,0.2,0,0.1c-0.3-0.1-0.5-0.2-0.7-0.2c-0.3-0.1-0.2,0-0.6-0.1c-0.3,0-0.4-0.1-0.5-0.2
						c-0.1-0.1,0.2,0,0.3,0c0.1,0,0-0.1-0.4-0.2c-0.4,0-0.4-0.1-0.9-0.2c-0.4,0-0.4-0.1-0.8-0.1c-0.4-0.1-0.5-0.1-0.8-0.2
						c-0.3-0.1-0.1-0.1-0.5-0.1c-0.4,0-0.5,0-0.2,0.1c0.3,0.1,0.4,0.2,0.6,0.3c0.2,0.1,0.3,0,0.4,0.2c0.1,0.1,0.1,0.2,0.2,0.3
						c0.1,0.1,0.1,0.1,0.3,0.1c0.1,0,0.1-0.1,0-0.1c-0.1,0,0-0.1,0.2,0c0.2,0,0.5,0.1,0.2,0.1c-0.3,0-0.3,0.1-0.1,0.1
						c0.2,0,0.2,0,0.3,0.1c0.1,0.1,0.1,0.1,0.2,0.1c0.1,0,0.1,0.1,0.3,0.1c0.2,0,0.3,0,0.5,0c0.2,0,0.4,0.1,0.6,0
						c0.2,0,0.4,0,0.2-0.1c-0.2-0.1-0.1-0.1,0.2-0.1c0.3,0,0.4,0,0.4,0.1c0.1,0.1,0,0.2-0.1,0.3c-0.2,0.1-0.4,0.1-0.7,0.1
						c-0.3,0-0.2,0-0.5-0.1c-0.3-0.1-0.5-0.1-0.4,0c0.1,0.1,0.2,0.1,0.4,0.2c0.3,0.1,0.2,0.1,0.3,0.2c0.1,0.1,0.2,0.1,0.4,0.2
						c0.2,0.1,0.5,0,0.5,0c0.1,0.1,0.1,0.2,0.2,0.1c0.1,0,0.1-0.2,0.3-0.2c0.1,0-0.1-0.1,0.2-0.2C69.5,24.4,69.6,24.5,69.8,24.7z
						 M67.7,31.4c0.1-0.1,0.3-0.2,0.4-0.4c0.2-0.2-0.2-0.3-0.5-0.1C67.3,31.3,67.6,31.5,67.7,31.4z M82.3,32.3c0.1,0,0-0.1-0.2-0.2
						c-0.2-0.1-0.4-0.1-0.6-0.2c-0.2-0.1-0.3-0.1-0.2,0.1C81.5,32.2,82.1,32.3,82.3,32.3z M78.6,34.2c0.2,0,0-0.5-0.3-0.7
						c-0.3-0.2-0.2-0.2-0.2,0.1C78.2,33.9,78.4,34.2,78.6,34.2z M75.2,34.5c0.3,0.1,0.3-0.3,0.1-0.3C75,34.2,74.9,34.5,75.2,34.5z
						 M78.2,37C78.3,36.9,78.3,36.8,78.2,37C78,36.9,78,37.1,78.2,37z M78.1,37.3c0.1,0,0.1,0,0.1,0.3c0.1,0.2,0.1,0.1,0.1-0.2
						c0-0.2,0-0.4-0.2-0.3C77.9,37.1,78,37.3,78.1,37.3z M77.9,37.6c0,0.1,0.1,0.1,0.1,0.2c0,0.1,0.1,0.3,0.1,0.1
						C78.1,37.7,78.1,37.5,77.9,37.6C77.9,37.5,77.9,37.5,77.9,37.6z M77.9,38.2c0.1,0,0.1-0.1,0.1-0.1C77.9,38,77.8,38.2,77.9,38.2
						z M77.8,38.4c0.1,0,0.1-0.1,0-0.1C77.7,38.3,77.7,38.4,77.8,38.4z M77.5,38.7C77.5,38.7,77.4,38.7,77.5,38.7
						C77.5,38.8,77.6,38.7,77.5,38.7z M77.4,39c0.1-0.1,0-0.2-0.1-0.1C77.2,39,77.2,39.1,77.4,39z M77.1,38.9c0-0.1-0.1-0.1-0.1,0.1
						c0,0.2,0,0.2-0.1,0.2c-0.1,0.1,0.1,0.1,0.2,0C77.1,39.1,77.1,38.9,77.1,38.9z M76.7,39.6c0.1-0.1,0.1-0.3,0-0.2
						C76.5,39.4,76.5,39.6,76.7,39.6z M76.3,39.8c0.1,0,0.1-0.2,0-0.1C76.1,39.7,76.1,39.8,76.3,39.8z M75.2,40.1
						c0.1,0,0.1-0.1,0-0.1C75.1,40,75.1,40.1,75.2,40.1z M75.1,40.4C75.2,40.4,75.2,40.3,75.1,40.4C75,40.3,75,40.3,75.1,40.4z
						 M74.6,40.3c0-0.1-0.1-0.2-0.1,0C74.5,40.4,74.6,40.4,74.6,40.3z M72.9,40.4c0.2,0,0.2-0.2,0-0.2
						C72.7,40.2,72.7,40.3,72.9,40.4z M73.3,40.5c0.1,0,0.1-0.2,0-0.2C73.1,40.4,73.2,40.5,73.3,40.5z M70.1,39.6
						c-0.2-0.2-0.3-0.1-0.1,0.1C70.3,40.1,70.4,39.9,70.1,39.6z M68.4,37.4c0.1,0,0-0.1,0.1-0.3c0.1-0.1,0.1-0.2,0.1,0
						c0,0.2,0,0.2,0.2,0.1c0.1,0,0.1-0.2,0.1-0.4c0.1-0.1,0.4-0.3,0.6-0.1c0.3,0.2,0.3,0.2,0.3,0c0-0.2,0.1-0.2,0.1-0.5
						c0.1-0.3,0.3-0.4,0.4-0.6c0.1-0.3,0.2-0.2,0.2-0.4C70.7,35,70.8,35,71,35c0.3,0,0.2-0.2-0.1-0.3c-0.2-0.2-0.6-0.3-0.7-0.5
						c-0.1-0.1-0.1-0.2,0-0.4c0.1-0.2,0-0.2-0.2-0.4c-0.2-0.2-0.1-0.3,0-0.2c0.1,0,0.3,0.1,0.2,0c-0.1-0.1,0.1-0.2,0.3,0
						c0.2,0.2,0.3,0.1,0.3,0c0.1-0.1,0.3-0.1,0.4,0c0.1,0.1,0.1,0.1,0.4,0.2c0.3,0,0.4,0.1,0.5,0c0.1-0.1-0.1-0.3-0.3-0.4
						c-0.2-0.2-0.1-0.1,0-0.2c0.1-0.1,0.1-0.3-0.1-0.3c-0.2-0.1-0.3-0.2-0.6-0.2c-0.3,0-0.4,0.1-0.2,0.3c0.1,0.2-0.1,0-0.3-0.2
						c-0.2-0.2-0.4-0.1-0.8-0.2c-0.4-0.1-0.6,0-1,0c-0.4,0-0.7-0.1-1.3-0.1c-0.6,0-0.7,0.1-0.7,0.3c0,0.3-0.1,0.2-0.2,0
						c-0.1-0.2-0.3-0.1-0.3,0.1c-0.1,0.2-0.3,0.2-0.7,0.3c-0.4,0-0.4,0-0.7-0.1c-0.2-0.2-0.3-0.2-0.6-0.3c-0.3-0.1-0.6-0.1-1,0.2
						c-0.4,0.2-0.4,0.2-0.6,0c-0.1-0.2-0.3-0.1-0.5-0.3C62,32,61.8,31.9,61.6,32c-0.2,0.1-0.5,0-0.8-0.1c-0.3-0.1-0.4-0.1-0.3-0.1
						c0.1,0,0.2,0,0.1-0.2c-0.1-0.2-0.2-0.1-0.4-0.2c-0.2-0.1-0.3,0-0.3,0.3c0,0.3,0.1,0.1,0,0.4c-0.1,0.3-0.2,0.3-0.5,0.4
						c-0.3,0.1-0.5,0.1-0.7,0.1c-0.2-0.1-0.2-0.2-0.3,0c-0.1,0.2,0,0.3-0.2,0.3c-0.2,0-0.3-0.1-0.4-0.5c-0.1-0.4,0-0.2,0.1-0.4
						c0.1-0.3-0.1-0.2-0.5-0.4c-0.4-0.2-0.5-0.1-0.6,0.1c0,0.2-0.2,0.2-0.5,0.1c-0.3,0-0.4-0.1-0.3-0.2c0.1-0.1,0.1-0.1-0.1-0.2
						c-0.2-0.1-0.4-0.1-0.6-0.1c-0.2,0-0.2-0.2,0-0.2c0.2,0,0.1-0.1,0-0.2c-0.2,0-0.1-0.2,0.1-0.2c0.1,0,0.2,0,0.4-0.2
						c0.2-0.2,0.1-0.4-0.1-0.5c-0.2-0.1-0.3,0-0.5,0c-0.2,0,0.1-0.2,0-0.4c-0.1-0.2-0.2-0.2-0.5-0.1c-0.3,0.1-0.4,0.3-0.8,0.3
						c-0.3,0-0.2-0.1-0.5-0.2c-0.3,0-0.5,0-0.8,0c-0.3,0-0.2,0-0.6,0c-0.4,0-0.5,0-0.5,0.2c0,0.2-0.2,0.1-0.4,0.1
						c-0.3,0-0.3-0.2-0.5-0.3c-0.3,0-0.2,0-0.4,0.3c-0.2,0.3-0.2,0.4-0.4,0.4c-0.1,0,0-0.1,0-0.3c0-0.2,0-0.2-0.2-0.2
						c-0.2,0-0.2,0,0-0.1c0.1-0.1,0.2-0.3,0-0.3c-0.2,0-0.1,0.2-0.4,0.3c-0.3,0.1-0.5,0.2-0.6,0.2c-0.1-0.1,0-0.2,0.3-0.3
						c0.3-0.1,0.4-0.1,0.5-0.2c0.1-0.1,0-0.2-0.2-0.3c-0.2,0-0.2,0.1-0.6,0.2c-0.3,0.1-0.5,0-0.8,0.1c-0.3,0.1-0.4,0.2-0.7,0.6
						c-0.3,0.4-0.4,0.5-0.5,0.3c-0.1-0.2,0-0.2,0.1-0.4c0.1-0.3,0.1-0.2,0.1-0.4c0-0.2,0-0.2,0.2-0.4c0.1-0.2,0-0.3-0.2-0.1
						c-0.2,0.2-0.3,0.2-0.5,0.5c-0.3,0.3-0.4,0-0.3,0c0.1-0.1,0.2-0.2,0.1-0.2c-0.1,0-0.1,0.1-0.2-0.1c-0.1-0.2-0.3-0.2-0.1-0.2
						c0.2,0,0.3-0.1,0-0.2c-0.3-0.1-0.3,0-0.4-0.2c-0.1-0.1-0.4-0.1-0.2-0.2c0.1-0.1,0.2,0,0.4-0.2c0.2-0.2,0.1-0.3-0.1-0.1
						c-0.2,0.2-0.5,0.1-0.8,0.3c-0.3,0.2-0.3,0.1-0.4-0.1c-0.1-0.2-0.3-0.2-0.4,0c-0.2,0.2-0.3,0.3-0.4,0.2
						c-0.1-0.1,0.1-0.2,0.2-0.3c0.2-0.2-0.1-0.2-0.3,0c-0.2,0.2-0.2,0.3-0.3,0.2c-0.1-0.1,0-0.1,0.1-0.2c0.1-0.1,0.2-0.1,0.4-0.3
						c0.2-0.1,0.2-0.2,0.4-0.2c0.2,0,0.3-0.1,0.5-0.2c0.2-0.2,0.5-0.3,0.3-0.1c-0.2,0.2-0.2,0.2-0.5,0.5C44,28,44.2,28,44.6,28
						c0.3,0,0.2-0.1,0.6-0.3c0.4-0.1,0.6-0.1,0.9-0.1c0.3,0,0.4-0.3,0.6-0.4c0.3-0.1,0.5-0.2,0.9-0.2c0.4,0,0.2-0.3,0.1-0.4
						c-0.2-0.1-0.2,0-0.4,0c-0.1,0-0.2-0.1-0.4,0.1c-0.2,0.2-0.5,0.2-0.5,0.1c0-0.1,0.1-0.1,0.2-0.1c0.1,0,0.1-0.2,0.2-0.3
						c0.1-0.1,0.2-0.1,0.3,0c0.1,0.1,0.3-0.1,0.4-0.3c0.2-0.1,0.2-0.2,0.2-0.4c0-0.2,0.2-0.2,0.1-0.3c-0.1-0.2-0.4-0.1-0.6,0
						c-0.3,0-0.5-0.1-0.8,0c-0.4,0.1-0.7,0.1-0.5,0c0.1-0.1,0.2-0.2,0-0.2c-0.2,0-0.4,0.1-0.7,0.2c-0.3,0.1-0.5,0.1-0.9,0.3
						c-0.4,0.2-0.6,0.4-0.9,0.5c-0.3,0.1-0.4,0-0.8,0.3c-0.4,0.3-0.6,0.2-1.1,0.6c-0.5,0.4-0.1,0.5,0,0.3c0.1-0.1,0.1-0.2,0.4-0.3
						c0.3-0.2,0.4-0.1,0.7-0.1c0.3,0,0.4-0.3,0.6-0.4c0.2-0.1,0.7-0.2,1-0.3c0.3,0,0.1,0,0.4,0.1c0.3,0.1,0.3-0.1,0.6-0.1
						c0.2,0,0.3,0.1,0,0.3c-0.3,0.2-0.3,0.1-0.6,0.1c-0.4,0-0.3-0.1-0.6,0c-0.3,0.1-0.6,0-1.1,0.4c-0.5,0.3-0.6,0.4-0.6,0.7
						c-0.1,0.3-0.4,0.3-0.5,0.5c-0.2,0.2-0.2-0.2,0-0.4c0.2-0.2,0.2-0.2,0.1-0.3c-0.1-0.1-0.3,0-0.6,0.4c-0.4,0.4-0.4,0.2-0.4,0.2
						c0-0.1,0.2-0.2,0.3-0.4c0.1-0.1-0.2-0.1-0.5,0.1c-0.3,0.2-0.5,0.3-0.5,0.3c-0.1-0.1,0.1-0.2,0.1-0.2c0.1-0.1,0.5-0.4,0.7-0.5
						c0.2-0.2-0.1,0-1.5,0.9c-1.9,1.2-4.4,3.2-5.6,4.3c-1.2,1.1-1.7,1.6-2.5,2.6c-0.9,1.2-1.3,1.6-1.4,1.9c-0.1,0.4,0.2,0.1,0,0.3
						c-0.2,0.2-0.9,0.6-2,2.3c-1.1,1.8-2.1,3.5-2.8,5.3c-0.8,1.8-1.3,3.4-1.6,4.5c-0.3,1-0.7,2-0.6,2.6c0.1,0.6,0.2,0.5,0.3,0.3
						c0-0.2,0-0.2,0.1-0.1c0.1,0.2,0.3,0.1,0.4-0.2c0.1-0.3,0.2-0.2,0.3,0c0.1,0.2,0.2,0.2,0.3,0c0-0.2,0.1-0.3,0.1-0.1
						c0.1,0.2,0.1,0.1,0.2-0.1c0.1-0.3,0.2-0.3,0.2-0.1c0,0.2,0.2,0,0.2-0.3c0.1-0.3,0.1-0.4,0.2-0.2c0.1,0.2,0.1,0.1,0.2-0.2
						c0.1-0.3,0.3-0.3,0.5-0.6c0.2-0.3,0.2-0.7,0.1-1.3c0-0.6,0.1-0.9,0.4-1.4c0.2-0.5,0-0.4-0.2-0.2c-0.2,0.3-0.3,0.5-0.5,0.2
						c-0.1-0.2-0.2-0.3-0.1-0.6c0.1-0.3,0.2-0.5,0.4-0.8c0.1-0.3,0-0.3,0-0.3s0.1-0.2,0.2-0.6c0.2-0.4,0.4-1.2,0.6-1.6
						c0.2-0.4,0.4-0.4,0.2,0.1c-0.2,0.4-0.1,0.4-0.4,1c-0.3,0.5-0.2,0.7-0.3,1.5c-0.1,0.8,0.1,0.7,0.3,0.6c0.2-0.1,0.2,0.1,0,0.4
						c-0.2,0.3-0.1,0.4-0.1,0.9c0.1,0.4,0.1,0.3,0.2,0.7c0.1,0.4,0.4,0.4,0.7,0.9c0.3,0.5,0.3,0.2,0.4,0.7c0,0.5,0,1-0.1,1.8
						c0,0.8,0,0.4-0.1,1.1c-0.1,0.7,0.2,0.7,0.4,0.7c0.2,0,0.3,0,0.2,0.3c-0.1,0.3-0.2,0.3-0.4,1.4c-0.2,1.1-0.3,1.5-0.3,3.6
						c0,2,0.1,2.7,0.2,3.4c0.1,0.6,0.5,0.5,0.5,0.2c0-0.3,0.4-0.2,0.5,0.2c0.2,0.4,0,0.4-0.1,1.3c-0.1,0.9,0.1,0.8,0.3,0.8
						c0.3,0,0.4-0.3,0.3-0.8c-0.1-0.5-0.1-0.9-0.2-1.3c-0.1-0.4-0.2-0.5-0.2-1.1c0-0.6,0.2-0.7,0.3-1c0.2-0.3,0.2-0.7,0.2-1.1
						c0-0.4,0.1-0.6,0.2-0.7c0.2-0.1,0.1,0.1,0.2,0.1c0.1,0,0-0.1,0.2-0.1c0.2,0,0.2,0.1,0.3,0c0.2-0.1,0-0.3,0.2-0.4
						c0.2-0.1,0.2-0.1,0.5-0.2c0.3-0.1,0.4-0.3,0.7-0.5c0.3-0.2,0.2-0.2,0.7-0.2c0.5,0,0.5-0.2,0.5-0.5c0-0.3,0.3-0.4,0.5-0.3
						c0.2,0.2,0.1,0.1,0.4,0.3c0.4,0.1,0.2,0.1,0.6,0.3c0.4,0.3,0.4,0.2,0.5-0.1c0.1-0.3,0.2-0.4,0.2-0.2c0,0.2,0,0.4,0,1
						c0,0.6,0.2,0.6,0.3,0.7c0.1,0.1,0.2,0.1,0.2,0.3c-0.1,0.2,0,0.3,0,0.5c0.1,0.2,0.1,0.5,0.1,1c0,0.5-0.1,0.3-0.2,0.6
						c-0.2,0.3,0,0.3,0.2,0.6c0.2,0.3,0.3,0.2,0.5,0.1c0.1-0.1,0.2-0.1,0.4-0.3c0.2-0.2,0.5-0.1,0.5,0.3c0,0.4,0,1,0.1,1.6
						c0,0.5,0.2,0.2,0.2,0.6c0,0.4-0.1,0.6,0,1c0,0.3-0.2,0.2-0.2,0.6c0,0.4-0.1,0.5-0.2,0.8c-0.1,0.3-0.1,0.6,0.1,0.8
						c0.1,0.2,0.1-0.1,0.2,0.1c0.1,0.2,0.4,0.8,0.6,1.1c0.2,0.3,0.1,0.4,0,0.9c-0.1,0.5,0.1,0.6,0.3,0.9c0.2,0.3,0,0.2,0.2,0.5
						c0.2,0.3,0.5,0.7,0.4,0.6c-0.2-0.2-0.4-0.3-0.7-0.5c-0.3-0.1-0.3-0.2-0.4-0.5c-0.2-0.3-0.5-0.5-0.7-0.9
						c-0.3-0.4-0.2-0.4-0.3-0.7C36.1,69,35.9,69,35.7,69c-0.2-0.1-0.3-0.1-0.6-0.4c-0.3-0.3-0.2,0.1-0.1,0.5
						c0.2,0.4,0.1,0.3,0.5,0.7c0.4,0.5,0.4,0.5,0.5,0.8c0.1,0.3,0.1,0.3,0.4,0.6c0.3,0.3,0.3,0.4,0.3,0.7c0,0.3,0,0.3,0.4,0.8
						c0.3,0.5,0.2,0.4,0.5,0.9c0.3,0.5,0.1,0.4,0.4,0.9c0.2,0.5,0.4,0.6,0.8,1.1c0.3,0.5,1,1,1.4,1.3c0.4,0.2,0.4,0.2,0.4-0.1
						c0-0.3,0.1-0.8,0.2-1c0-0.2,0.2-0.2,0.3-0.3c0.2-0.1,0-0.2-0.3-0.4c-0.2-0.2-0.1-0.3-0.2-0.5c-0.2-0.2-0.3-0.2-0.4,0.1
						c-0.1,0.3-0.2,0.1-0.2-0.1c0-0.2,0-0.3-0.1-0.4c-0.2-0.1-0.3-0.2-0.5-0.2c-0.2-0.1-0.2-0.4-0.1-0.4c0.1-0.1,0.1-0.2,0.1-0.4
						c-0.1-0.2,0.1-0.2,0.3-0.2c0.2,0,0.3,0,0.1-0.2c-0.1-0.2-0.2-0.3-0.3-0.6c-0.1-0.4-0.1-0.2-0.3-0.6c-0.2-0.4,0-0.4,0-0.9
						c0-0.4,0-0.6-0.2-0.9c-0.3-0.3-0.5-0.8-0.7-1c-0.2-0.2-0.3-0.1-0.5-0.3c-0.1-0.2-0.1-0.4-0.1-0.7c0-0.3-0.2-0.2-0.2-0.4
						c0-0.2,0-0.4-0.2-0.5c-0.2-0.1-0.1-0.4,0-0.6c0.1-0.2,0.2-0.6,0.4-0.8c0.2-0.3,0.2-0.3,0.2-0.7c0-0.4,0.2-0.4,0.4-0.3
						c0.2,0.1,0.1,0.2,0.1,0.5c-0.1,0.3,0.3,0.2,0.5,0.3c0.2,0.1,0.1,0.2,0.3,0.4c0.2,0.1,0.2,0.2,0.2,0.5c0,0.3,0,0.3,0.2,0.4
						c0.2,0.1,0.2,0.1,0.1,0.2c-0.1,0.1,0.3,0.1,0.5,0.3c0.2,0.2,0.3,0.3,0.1,0.8c-0.2,0.5,0.1,0.5,0.3,0.3c0.1-0.2,0.2-0.2,0.4-0.2
						c0.2,0,0.4-0.1,0.5-0.4c0.1-0.3,0.2-0.2,0.5-0.3c0.3-0.1,0.8-0.3,0.9-0.5c0.1-0.2,0.2-0.6,0.2-1c0-0.4,0-0.9-0.1-1.3
						c-0.1-0.5-0.1-0.4-0.3-0.7c-0.2-0.3-0.3-0.4-0.5-0.7c-0.2-0.3-0.2-0.4-0.2-0.7c-0.1-0.3-0.3-0.1-0.3-0.4c0-0.3,0.1-0.6,0.4-0.9
						c0.3-0.2,0.2-0.3,0.5-0.4c0.3-0.1,0.3-0.2,0.6-0.3c0.3-0.1,0.5,0.1,0.6,0.2c0.1,0.1,0.3,0.1,0.3,0.3c0,0.2-0.1,0.2,0,0.5
						c0.1,0.3-0.2,0.3-0.4,0.3c-0.2,0-0.3,0.1-0.5,0.4c-0.2,0.3,0.2,0.5,0.4,0.6c0.3,0.1,0.4,0,0.6-0.3c0.2-0.2,0.2-0.3,0.3-0.4
						c0.2-0.2,0-0.2-0.1-0.5c-0.1-0.3,0.1-0.4,0.2-0.6c0.1-0.2,0.1,0,0.7-0.1c0.5,0,0.7-0.1,1-0.2c0.3-0.1,0.3-0.1,0.6-0.3
						c0.3-0.2,0.2,0.1,0.7,0.1c0.5,0,0.6-0.2,0.9-0.3c0.3-0.2,0.7-0.4,1-0.7c0.3-0.3,0.3-0.3,0.6-0.4c0.2-0.1,0.1-0.3,0.2-0.6
						c0.1-0.3,0.1-0.3,0.4-0.6c0.2-0.3,0.4-0.3,0.7-0.6c0.3-0.3,0.2-0.4,0.3-0.6c0.2-0.2,0.2-0.1,0.3-0.7c0.1-0.5,0.1-0.7,0-0.9
						c-0.1-0.2-0.1-0.3-0.1-0.6c0.1-0.3,0.1-0.5,0.1-0.9c-0.1-0.4-0.2-0.6-0.4-0.4c-0.3,0.2-0.3,0.1-0.5-0.2c-0.2-0.3-0.2-0.3,0-0.5
						c0.2-0.2,0.2-0.3,0.5-0.5c0.3-0.2,0.6-0.4,0.8-0.3c0.2,0.1,0.3,0.1,0.3-0.1c0-0.2,0-0.3-0.3-0.3c-0.2,0-0.3,0-0.3-0.2
						c0-0.2-0.1-0.3-0.3-0.1c-0.2,0.2-0.4,0.3-0.6,0.4c-0.2,0.1-0.3-0.2-0.1-0.2c0.2,0,0.2-0.2,0-0.3s0-0.1-0.1-0.2
						c-0.1-0.1-0.3,0-0.3-0.2s0.2-0.3,0.4-0.4c0.2,0,0.1-0.3,0.5-0.5c0.4-0.2,0.4-0.2,0.7-0.4c0.3-0.2,0.3-0.1,0.4,0.1
						c0.1,0.2,0.1,0.2-0.2,0.4c-0.3,0.2,0,0.2-0.1,0.4c-0.1,0.2-0.2,0.5,0,0.4c0.2-0.1,0.2-0.2,0.6-0.4c0.4-0.2,0.7-0.3,0.9-0.2
						c0.2,0.1,0.4,0.1,0.5,0.2c0.1,0.1,0.1,0.3-0.1,0.7c-0.1,0.2,0,0.3,0.1,0.3c0,0,0.4,0.1,0.5,0.4c0.1,0.3-0.2,0.3-0.2,0.4
						c0,0.1,0.1,0.2,0.2,0.3c0.1,0.2-0.5,1-0.4,1.1c0.1,0.1,0.4,0.2,0.7,0.1c0.1,0,0.2-0.2,0.4-0.3c0.2-0.1,0.2,0,0.6-0.2
						c0.3-0.1,0.4-0.6,0.2-1.4c-0.1-0.5-0.7-1.1-0.8-1.2c0-0.1-0.1-0.3,0.1-0.4c0.2-0.2,0.4-0.2,0.7-0.4c0.3-0.2,0.4-0.3,0.5-0.6
						c0.1-0.3,0.1-0.3,0.3-0.4c0.2-0.1,0.2-0.1,0.3-0.2c0.1-0.1,0.1,0,0.3-0.2c0.2-0.2,0.2-0.3,0.4-0.1c0.1,0.2,0.3,0.3,0.5,0.2
						c0.2-0.1,0.6-0.1,0.9-0.5c0.3-0.3,0.3-0.4,0.6-0.8c0.3-0.3,0.4-0.4,0.6-0.7c0.2-0.2,0.2-0.2,0.4-0.6c0.2-0.4,0.3-0.4,0.5-0.7
						c0.2-0.3,0.2-0.5,0.2-0.9c0-0.4,0-0.6,0.1-1c0.1-0.3,0.5-0.1,0.6,0.3c0.1,0.5,0,0.8,0.1,1.2c0.1,0.4,0.1,0.8,0,1.3
						c0,0.5,0.2,0.3,0.2,0.1c0-0.2,0-0.2,0.1-0.2c0.1,0,0.3,0,0.4,0.2c0.1,0.2,0.1,0.2,0.1-0.1c0-0.2-0.1-0.1-0.2-0.4
						c-0.1-0.2-0.3-0.2-0.4-0.5c0-0.2,0.2-0.5,0.2-0.7c0.1-0.3,0.2-0.2,0.3-0.1c0.2,0.1,0.2,0.1,0.1-0.1c-0.1-0.3-0.2-0.2-0.2-0.5
						c-0.1-0.3-0.3-0.5-0.4-0.8c-0.1-0.3,0-0.5-0.1-0.7c-0.1-0.3,0-0.3-0.1-0.6c-0.1-0.3-0.2-0.3-0.3-0.1c-0.1,0.2,0.1,0.1,0.1,0.3
						c0,0.2-0.1,0.2-0.3,0.2c-0.2,0-0.3-0.1-0.5-0.2c-0.2-0.2-0.2-0.3-0.5-0.3c-0.3,0.1-0.2,0.4-0.3,0.4c-0.2,0-0.2,0-0.3-0.2
						c0-0.2-0.1-0.2-0.1,0c-0.1,0.2-0.3,0-0.2-0.2c0.1-0.2,0-0.2-0.2-0.2c-0.2,0-0.3,0-0.3-0.1c0-0.1,0.1-0.2,0.3-0.3
						c0.2-0.1,0.3-0.3,0.5-0.5c0.2-0.2,0.3-0.5,0.5-0.6c0.2-0.1,0.4-0.3,0.5-0.5c0-0.2,0.1-0.3,0.3-0.4c0.2-0.2,0.4-0.4,0.7-0.4
						c0.3,0,0.4-0.1,0.6-0.1c0.2,0,0.3-0.1,0.4,0c0.2,0.1,0.5,0,0.6-0.1c0.1-0.2,0.2-0.2,0.3-0.1c0.2,0,0.2,0.1,0.4,0.1
						c0.2-0.1,0.4,0,0.2,0.1c-0.2,0.1-0.1,0.2,0.1,0.2c0.2,0,0.3,0,0.4-0.1c0.1-0.1,0.1-0.1,0.3-0.1c0.2,0,0.3-0.2,0.1-0.2
						c-0.1,0-0.2,0-0.2-0.2c0-0.2,0.1-0.4,0.2-0.5c0.1-0.2,0.1-0.5,0.3-0.6c0.2-0.1,0.3-0.1,0.5-0.1c0.2,0,0.3,0,0.3,0.1
						c0,0.2,0.1,0.2,0.2,0.4c0.1,0.2,0.2,0,0.3-0.2c0.1-0.2,0.3-0.3,0.2-0.6c-0.1-0.3,0.1-0.3,0.1-0.2c0,0.2,0.2,0.3,0.2,0.6
						c0,0.3-0.1,0.2-0.2,0.4c-0.2,0.2,0,0.3-0.1,0.5c-0.1,0.2-0.2,0.2-0.2,0.6c-0.1,0.4-0.2,0.4-0.5,0.6c-0.2,0.2-0.1,0.3-0.1,0.4
						c0,0.2-0.2,0.2-0.2,0.7c0,0.5,0.3,0.8,0.6,1.4c0.3,0.6,0.5,0.9,0.6,1.2c0.1,0.3,0.2,0.2,0.3-0.1c0.1-0.3,0.2-0.2,0.3-0.5
						c0.1-0.2-0.2-0.3-0.1-0.5c0-0.2,0.2-0.3,0.4-0.2c0.2,0.1,0.2,0,0-0.2c-0.1-0.2-0.2-0.2-0.2-0.4s0.1-0.3,0.3-0.3
						c0.2,0,0.3-0.2,0.1-0.3c-0.2-0.1-0.2-0.2-0.2-0.4c0-0.2,0.1-0.3,0.2-0.2c0.1,0.1,0.1,0.1,0.1-0.1c0-0.2-0.1-0.2-0.3-0.3
						c-0.1-0.1-0.1-0.3-0.1-0.4c0-0.2-0.2-0.2-0.2-0.1c-0.1,0.2-0.2-0.1-0.2-0.2c0-0.2,0-0.2,0.1-0.3c0-0.1,0.1-0.2,0-0.3
						c-0.1-0.1,0-0.2,0.1-0.2C68.3,37.3,68.3,37.3,68.4,37.4z M68.5,37.8c0-0.2-0.1-0.3-0.2-0.1C68.1,38.3,68.5,38,68.5,37.8z
						 M72.8,33.6c0.1,0,0.1-0.1,0.3-0.1c0.2,0,0.3-0.1,0.2-0.1c-0.1-0.1-0.3-0.1-0.5,0.1C72.6,33.5,72.7,33.6,72.8,33.6z M61.4,31
						c0.2,0,0.3,0,0.3-0.1c0-0.1-0.1-0.1-0.5-0.2c-0.4,0-0.3,0.1-0.1,0.2C61.2,30.9,61.3,31,61.4,31z M60.4,30.6
						c-0.1,0-0.1-0.1-0.2-0.1c-0.2,0-0.1,0.1-0.2,0.1c-0.1,0-0.1-0.2-0.3-0.1c-0.2,0-0.3,0.2-0.3,0.4c0.1,0.2,0.1,0.2,0.3,0.2
						c0.2,0.1,0.1-0.1,0.3,0c0.1,0,0.1,0,0.2,0c0.1,0,0.2,0,0.4-0.1c0.2-0.2,0.2-0.3-0.1-0.3C60.5,30.6,60.6,30.6,60.4,30.6z
						 M59.2,30.8c0.1,0,0.1-0.2,0-0.2C59.1,30.7,59.1,30.8,59.2,30.8z M55.6,29.4c0.1,0,0-0.2-0.1-0.1
						C55.5,29.3,55.5,29.4,55.6,29.4z M54.7,29c-0.2,0.1-0.1,0.2,0.1,0.1c0.2,0,0.3,0,0.5,0s0.3-0.1,0.3-0.2c0-0.2-0.1-0.3-0.3-0.2
						C55.1,28.9,54.9,29,54.7,29z M55.4,28.4c0-0.1,0-0.1,0.1-0.2c0.1,0,0.1-0.1,0.1-0.2c0-0.1-0.2-0.1-0.3-0.1
						c-0.2,0.1-0.3,0.1-0.5,0.2c-0.2,0.1-0.2,0-0.3,0.1c-0.1,0.1,0,0.2,0.1,0.2c0.1,0,0.1,0.1,0,0.1c-0.1,0.1,0.1,0.2,0.2,0.2
						c0.1,0.1,0.2,0.1,0.4-0.1c0.1-0.1,0.2-0.1,0.2-0.2C55.5,28.4,55.4,28.4,55.4,28.4z M53.1,26.6c-0.1-0.1-0.2-0.1-0.3,0.1
						c0,0.2,0,0.3,0.1,0.2c0.1-0.1,0.1-0.1,0.2,0c0.1,0.1,0.1,0,0.2,0.1c0.1,0.1,0.1,0.1,0.3,0c0.2-0.1,0-0.1-0.1-0.1
						c-0.2,0,0-0.2,0.2-0.2c0.2,0,0.2-0.1,0.1-0.1c-0.1,0-0.3-0.1-0.6,0C53.2,26.6,53.2,26.6,53.1,26.6z M52.8,26.4
						c-0.2,0.2,0,0.3,0.1,0.2c0.1-0.1,0.1-0.1,0.2-0.1c0.1,0.1,0,0.1,0.2,0.1c0.1,0,0.2-0.2,0-0.4C53.2,26.1,53,26.1,52.8,26.4z
						 M52.5,24.8c-0.2,0-0.3-0.1-0.7,0c-0.4,0.1-0.2,0.2,0.1,0.2c0.3,0,0.4,0,0.4,0.1c0,0.1-0.1,0.1-0.4,0.1c-0.3,0-0.4,0.1-0.2,0.1
						c0.2,0,0.3,0,0.5,0c0.2,0,0.3-0.1,0.5-0.1c0.2-0.1,0.3,0,0.2,0c-0.2,0.1-0.1,0.2,0.1,0.2c0.2,0,0.3,0,0.4-0.1
						c0.2-0.1,0.1-0.3,0.2-0.4c0.2-0.1,0.1-0.3-0.2-0.2c-0.3,0-0.4,0.1-0.6,0.2C52.7,24.8,52.7,24.8,52.5,24.8z M47.6,28.3
						c0.2-0.1,0.5-0.3,1.4-0.3c0.9-0.1,1.1-0.1,1.4,0c0.3,0.1,0.6,0.2,0.8,0.1c0.2-0.1,0.1-0.2-0.3-0.2c-0.3,0-0.1-0.2-0.8-0.2
						c-0.7-0.1-1.3,0.1-1.9,0.2c-0.7,0.1-1,0.2-1.2,0.5c-0.2,0.3,0,0.4,0.3,0.2C47.3,28.6,47.4,28.4,47.6,28.3z M45.8,28.4
						c0.1,0,0.1,0,0.2-0.1c0.1-0.1,0.1-0.2-0.1-0.1C45.7,28.3,45.7,28.4,45.8,28.4z M67.5,42.9c0.1-0.1,0-0.2-0.1-0.1
						c-0.1,0.2,0,0.2-0.2,0.3c-0.1,0.1-0.1,0.2,0,0.2C67.4,43.3,67.4,43,67.5,42.9z M61.9,47.6c0,0.1,0,0.2,0,0.3
						c0,0.1-0.2,0.2-0.3,0.1c-0.1-0.1-0.2,0-0.2,0c0.1,0,0.1,0.1,0.1,0.2c0.1,0.1-0.1,0.1-0.3,0.2c-0.1,0.1-0.1,0.2,0,0.3
						c0.1,0.1,0.1,0.1,0.1,0.2c0,0.1,0.1,0.2,0.1,0.1c0.1-0.1,0.1-0.2,0.2-0.1c0.1,0,0.3,0,0.2-0.1c-0.1-0.1-0.2-0.1-0.3-0.2
						c-0.1-0.1,0-0.2,0.1-0.3c0.1-0.1,0.2-0.1,0.2,0.1c0,0.2,0.1,0.1,0.2,0c0.1-0.1,0.1-0.2,0.2-0.1c0.2,0.1,0.3,0.2,0.4,0.3
						c0.2,0.1,0.3,0.1,0.3,0c0-0.1,0-0.1,0.1-0.3c0.1-0.2,0.2-0.3,0.4-0.3c0.2,0,0.3,0,0.4-0.1c0.2-0.1,0.1-0.1-0.1-0.2
						c-0.2-0.1-0.1-0.2-0.1-0.3c0-0.1,0.1-0.3,0-0.1c-0.1,0.1-0.2,0.1-0.5,0.1c-0.2,0-0.4-0.2-0.6-0.4c-0.2-0.2-0.2-0.4-0.4-0.4
						c-0.2-0.1-0.2,0.1-0.1,0.3c0,0.2,0.1,0.4,0,0.7C62,47.6,61.9,47.5,61.9,47.6z M64.4,47c-0.1,0.1,0,0.2,0.2,0
						c0.1-0.2,0.1-0.1,0.3-0.3c0.2-0.1,0.1-0.2-0.2-0.1C64.6,46.7,64.5,46.8,64.4,47z M63.8,47.3c-0.1,0.1,0,0.2,0,0.1
						c0-0.1,0.1-0.1,0.2-0.2c0.1-0.1,0.1-0.2,0-0.1C64,47.1,63.9,47.2,63.8,47.3z M65.1,46.4c0.1-0.1,0.1-0.2,0-0.1
						C64.9,46.4,65,46.5,65.1,46.4z M65.6,46.1c0.1-0.2,0.1-0.3,0-0.2C65.4,46.1,65.5,46.2,65.6,46.1z M61.5,49.3
						c-0.1,0,0,0.2-0.1,0.2c-0.1,0.1-0.1,0.1-0.1,0.3c0,0.2,0.1,0.3,0.1,0.4c0,0.1,0,0.2-0.1,0.5c-0.1,0.3-0.1,0.4-0.2,0.6
						c-0.1,0.2-0.3,0.2-0.3,0.3c-0.1,0.1-0.1,0.2-0.2,0.3c-0.2,0.1-0.3,0.1-0.4,0.2c-0.1,0.1-0.3,0.1-0.3,0c0-0.1,0-0.2,0.1-0.2
						c0.1,0,0-0.2-0.1-0.1c-0.1,0-0.1,0.1-0.2,0.3c0,0.2,0,0.1-0.2,0.4c-0.2,0.2-0.2,0.3-0.2,0.5c0,0.2-0.3,0.2-0.4,0.1
						c-0.1-0.1-0.1-0.1-0.3,0c-0.2,0-0.6,0.1-0.9,0.1c-0.3,0-0.3,0.2-0.5,0.4c-0.1,0.2-0.3,0.3-0.5,0.4c-0.2,0.1,0,0.2,0.1,0.2
						c0.2,0,0.2,0.1,0.4,0c0.1,0,0.1-0.1,0.2-0.1c0.2,0,0.3-0.1,0.5-0.2c0.2,0,0.2,0,0.4-0.1c0.2-0.1,0.3-0.1,0.4-0.1
						c0.2,0,0.3,0.1,0.2,0.2c-0.1,0.2-0.1,0.2,0,0.3c0.1,0.1,0,0.2,0.1,0.2c0.2,0,0.3,0.1,0.2-0.1c0-0.1,0-0.1,0.1-0.3
						c0.1-0.2,0.1-0.1,0.3-0.2c0.2,0,0.1-0.1,0-0.2c-0.1-0.1-0.1-0.1,0-0.3c0.1-0.1,0.1-0.2,0.1,0c0,0.2,0,0.1,0.1,0.1
						c0.1,0,0.1-0.1,0.1,0c0,0.1,0.2,0.1,0.3,0.1c0.1,0,0.2,0,0.3-0.2c0.1-0.2,0.2-0.2,0.2,0.1c0,0.2,0.1,0.1,0.1,0
						c0-0.2,0-0.2,0.2-0.3c0.1-0.1,0.1,0,0.2-0.2c0.1-0.2,0.2,0,0.1,0.1c-0.1,0.2-0.1,0.3,0.1,0.2c0.1-0.1,0.2-0.2,0.2-0.3
						c0.1-0.1,0.1-0.1,0-0.2c-0.1-0.1,0-0.1,0-0.4c0-0.3,0.1-0.4,0.1-0.7c0-0.3,0-0.4,0.1-0.5c0.1-0.1,0.1-0.1,0.2-0.3
						c0-0.2,0.2-0.3,0.2-0.6c0-0.3-0.2-0.4-0.3-0.5c-0.1-0.1,0-0.3,0-0.4c0-0.1-0.2-0.1-0.2-0.1c-0.1,0.1-0.1,0.1,0.1,0.1
						c0.1,0,0.1,0.1,0,0.2c-0.1,0.1-0.2,0.1-0.2-0.1C61.6,49.4,61.6,49.3,61.5,49.3z M60.6,51.4c0.1-0.1,0.1-0.2,0-0.1
						C60.4,51.3,60.5,51.4,60.6,51.4z M57.9,52.5c0.1,0,0.1-0.2,0-0.1C57.7,52.4,57.8,52.5,57.9,52.5z M57.5,54.1
						c-0.1,0.1-0.1,0.2-0.1,0.4c0,0.2,0.2,0.3,0.2,0.2c0-0.1,0.1-0.2,0.1-0.3c0.1-0.1,0.3-0.2,0.4-0.1c0,0.1,0.1,0.1,0.2,0
						c0-0.1,0-0.1,0.2-0.2c0.1-0.1,0-0.2-0.1-0.2c-0.1,0-0.2-0.1-0.3-0.1c-0.1,0-0.2,0.2-0.3,0.2C57.7,53.9,57.6,53.9,57.5,54.1z
						 M58.7,53.7c0.1,0,0.1-0.2,0.1-0.2C58.6,53.5,58.6,53.7,58.7,53.7z M56.1,54.1c-0.1,0-0.3,0.1-0.3,0.2c0.1,0.1,0,0.2,0.1,0.3
						c0.1,0.1,0.1,0.1,0.3,0c0.1-0.1,0.2,0.1,0.1,0.3c-0.1,0.2-0.1,0.2-0.1,0.5c0,0.3,0.1,0.4,0.2,0.2c0-0.2,0.1-0.1,0.1,0.1
						c0,0.2,0.1,0.2,0.2,0c0.1-0.2,0.2-0.2,0.2-0.4c0-0.2,0-0.2,0.1-0.5c0.1-0.2,0.1-0.3,0-0.5c-0.1-0.2-0.3-0.1-0.3-0.2
						c-0.1-0.1-0.1-0.2-0.3,0C56.3,54.1,56.2,54.1,56.1,54.1z M56.4,56.3c0.1-0.1,0.1-0.3,0.1-0.3C56.3,56,56.3,56.3,56.4,56.3z
						 M55.6,57.6c0.1-0.1,0.1-0.3-0.1-0.2C55.3,57.6,55.5,57.7,55.6,57.6z M54.7,58.6c0.1-0.3,0-0.3-0.1-0.1
						C54.4,58.8,54.6,58.9,54.7,58.6z M53,59.7c0.1,0,0.1-0.2,0-0.1C52.9,59.6,52.9,59.7,53,59.7z M52.2,60c0.2,0.1,0.3-0.2,0-0.2
						C51.9,59.8,51.9,59.9,52.2,60z M49.8,60.5c-0.1,0.4,0.2,0.4,0.3,0.6c0.1,0.2,0.2,0.2,0.2,0.1c0-0.2,0-0.2,0.1-0.4
						c0.1-0.2,0.3-0.4,0.4-0.8c0.2-0.4,0.3-0.7,0.1-0.8c-0.2-0.1-0.2,0-0.7,0.4C50.1,59.9,49.9,60.1,49.8,60.5z M49.7,64.6
						c-0.1,0.3,0,0.4-0.1,0.4c-0.1,0-0.1-0.1-0.2-0.2c-0.1,0-0.1,0.2,0,0.6c0.1,0.4,0.1,0.4,0.2,0.5c0.1,0.1,0.1,0.2,0.2,0.1
						c0.1,0,0.1-0.2,0.2-0.1c0.1,0.1,0.1,0.2-0.1,0.2c-0.2,0.1-0.1,0.2,0,0.3c0.1,0.1,0.2,0,0.2,0.1c0,0.1,0.2,0.1,0.3,0
						c0.1-0.1,0.2,0,0.3-0.1c0.1,0-0.1-0.1-0.1-0.3c0-0.2,0-0.3-0.1-0.4c-0.1-0.1-0.1-0.2,0-0.3c0.1-0.1,0.1-0.3,0.2-0.4
						c0.1-0.1,0.3-0.1,0.4-0.3c0.1-0.2,0.1-0.4,0-0.5c-0.1-0.2-0.1-0.3,0-0.4c0.1-0.1,0.1-0.3-0.1-0.2c-0.2,0.1-0.2,0-0.4-0.2
						c-0.2-0.1-0.5-0.1-0.6,0.4C49.7,64.3,49.7,64.4,49.7,64.6z M49.9,67.4c0.1,0.3,0.3,0.1,0.3-0.1s-0.1-0.4-0.3-0.5
						c-0.3-0.2-0.4-0.1-0.2,0.2C49.6,67,49.8,67.2,49.9,67.4z M49.3,67.8c0.1-0.1-0.1-0.5-0.1-0.4C49.1,67.7,49.2,67.9,49.3,67.8z
						 M50.5,67c0.1,0.1,0.1-0.2,0-0.2C50.4,66.8,50.4,67,50.5,67z M50.5,67.5c0.1,0,0.1-0.2,0-0.2C50.4,67.4,50.4,67.5,50.5,67.5z
						 M50.9,67.6c0.1,0,0-0.1,0-0.1C50.8,67.5,50.8,67.6,50.9,67.6z M50.4,68.5c-0.1,0.2,0.1,0.3,0.1,0.1c0.1-0.1,0.1-0.1,0.2,0.1
						c0,0.1,0.2,0.1,0.1-0.1c0-0.1,0-0.2,0.2-0.3c0.1-0.1,0.1-0.2,0-0.2c-0.1,0-0.2-0.1-0.3-0.1c-0.1-0.1-0.2-0.1-0.3-0.2
						c-0.1-0.1-0.1,0,0,0.2C50.5,68.2,50.5,68.3,50.4,68.5z M48.6,68.6c-0.2,0.1-0.2,0.2-0.4,0.3c-0.2,0.2-0.5,0.4-0.8,0.6
						c-0.2,0.2-0.2,0.7-0.1,0.5c0-0.2,0.1-0.3,0.3-0.4c0.2-0.2,0.3-0.3,0.5-0.4c0.2-0.1,0.2-0.3,0.4-0.4c0.2-0.1,0.3-0.2,0.5-0.2
						c0.2,0,0.2-0.1,0-0.1c-0.1,0-0.2-0.1-0.2-0.4c0-0.2-0.1-0.2-0.2,0.1C48.7,68.4,48.8,68.4,48.6,68.6z M51.2,66.9
						c0.1,0.1,0,0.2,0.2,0.3c0.1,0.1,0.1,0,0.2,0.2c0.1,0.1,0.2,0.2,0.2,0.1c0-0.1,0-0.1-0.1-0.2c-0.1-0.1,0-0.1-0.2-0.2
						c-0.2-0.1-0.1-0.2,0.1-0.2c0.2,0,0.1-0.1-0.1-0.1c-0.2-0.1-0.2,0.2-0.3,0c-0.1-0.1,0-0.2-0.1-0.3c-0.1-0.1-0.2,0-0.4,0.1
						c-0.2,0.1-0.2,0.1-0.1,0.2c0.1,0.1,0.1,0.1,0.2,0.2c0.1,0.2,0.1,0.1,0.1-0.1c-0.1-0.2,0-0.2,0.1-0.1
						C51,66.7,51.2,66.8,51.2,66.9z M51.9,66.9c0.1,0,0-0.3-0.1-0.3C51.8,66.6,51.8,66.9,51.9,66.9z M51.4,67.8
						c0.1-0.1,0.2,0.1,0.3,0.2c0.2,0.1,0-0.2-0.2-0.3c-0.2-0.1-0.2-0.2-0.3,0C51.2,67.8,51.3,67.9,51.4,67.8z M52.3,68.1
						c0.1,0.2,0,0.3-0.2,0.3c-0.1,0-0.1-0.1-0.1-0.2c0-0.1-0.1-0.2-0.1,0.1c-0.1,0.2,0,0.2,0.1,0.3c0.1,0.2,0.1,0,0.2,0.3
						c0,0.2,0,0.2,0.2,0.2c0.2,0,0.1-0.1,0-0.2c-0.1-0.1-0.1-0.1-0.1-0.3c0-0.2,0.1-0.2,0.3-0.1c0.2,0.1,0.2-0.1,0.1-0.2
						c-0.1-0.1,0-0.2,0-0.3c0-0.2,0-0.2-0.1-0.3c-0.1-0.1-0.2-0.1-0.4-0.1c-0.2,0-0.2-0.1-0.2,0.1C51.9,67.8,52.2,68,52.3,68.1z
						 M51.2,69.3c-0.1,0.2-0.1,0.2-0.1-0.1c0-0.2,0.1-0.3,0.2-0.4c0.1-0.1,0.1-0.3-0.1-0.3c-0.1,0-0.2,0.1-0.2,0.3
						c-0.1,0.3-0.1,0.3-0.3,0.3c-0.2,0-0.1,0.2,0,0.3c0.1,0.2,0.2,0,0.2,0.1c0,0.1,0.1,0.2,0.2,0.1c0.1-0.1,0-0.1,0.1-0.2
						s0.1-0.3,0.3-0.4c0.1-0.1,0.1-0.1,0.2-0.3c0-0.2-0.1-0.3-0.2,0C51.5,68.9,51.3,69,51.2,69.3z M51.8,69.4c0.3,0,0.2-0.4,0-0.3
						C51.5,69.2,51.5,69.4,51.8,69.4z M52.7,69.2c0-0.2,0-0.3-0.1,0C52.5,69.3,52.7,69.4,52.7,69.2z M53,69.3
						C53.1,69.2,53,69.2,53,69.3C52.9,69.4,53,69.4,53,69.3z M52.6,69.9c-0.1,0.1-0.2,0.2-0.2,0.1c-0.1-0.1-0.1-0.2-0.2,0
						c0,0.2,0,0.2-0.2,0.2c-0.2,0-0.2,0.2-0.4,0.2c-0.2,0-0.1-0.2-0.2-0.3c-0.1-0.1-0.2,0-0.3,0.1c-0.1,0.1-0.2,0.1-0.4,0.2
						c-0.2,0-0.1,0.1-0.2,0.3c-0.1,0.2-0.1,0.1-0.1,0.3c0,0.2,0.1,0,0.2-0.1c0.1-0.1,0.1-0.3,0.2-0.3c0.1,0,0.1,0,0.1,0.2
						c0,0.2,0.1,0,0.2-0.1c0.1-0.1,0.1,0,0.2,0.1c0.1,0.1,0.1-0.1,0.2-0.2c0.1,0,0.2,0.1,0.3,0.3c0.1,0.2,0.1,0.1,0,0.4
						c-0.1,0.3,0,0.3,0.2,0.5c0.2,0.2,0.3,0.3,0.4,0.2c0.1-0.1,0.1,0,0.1,0.1c0,0.2,0.1,0.2,0.1,0.1c0-0.1,0-0.1,0.1-0.2
						c0.1-0.1,0.1-0.1-0.1-0.3c-0.2-0.2-0.1-0.2,0-0.3c0.1-0.1,0.1,0,0.2-0.1c0.1-0.1,0.1-0.2,0.1,0c0,0.2,0.2,0.3,0.2,0.2
						c0.1-0.2,0.1-0.1,0.2-0.4c0.1-0.3-0.1-0.2-0.1-0.4c0-0.2,0-0.2-0.1-0.2c-0.1-0.1-0.1-0.2,0-0.2c0.1,0,0.1-0.1-0.1-0.2
						c-0.1-0.1-0.1-0.2-0.3-0.3c-0.1-0.1-0.2-0.1-0.2,0.1C52.6,69.6,52.6,69.7,52.6,69.9z M50.4,71.3c0.1,0,0.1-0.2,0-0.2
						C50.2,71.1,50.2,71.3,50.4,71.3z M49.7,71.6c0.1,0,0.1-0.2,0-0.2C49.6,71.4,49.6,71.6,49.7,71.6z M49.1,72c0.2,0,0.1-0.3,0-0.2
						C48.9,71.9,49,72.1,49.1,72z M53.4,73c0-0.2-0.1-0.3-0.1-0.1C53.2,73.1,53.4,73.2,53.4,73z M52.6,73.4c0.1,0,0.1-0.2,0-0.1
						C52.4,73.2,52.5,73.4,52.6,73.4z M47.1,70.7c-0.1,0-0.1-0.2-0.2-0.2c-0.1,0,0,0.2-0.2,0.4c-0.2,0.3-0.1,0.3-0.3,0.3
						c-0.2,0.1-0.1,0.2-0.3,0.3c-0.1,0.1-0.2,0-0.3,0c-0.2,0-0.2,0.2-0.4,0.2c-0.2,0-0.1,0.1-0.3,0.3c-0.2,0.3-0.4,0.5-0.6,0.5
						c-0.2,0-0.6-0.1-0.8,0c-0.2,0.1-0.1,0.2-0.1,0.5c0,0.3-0.2,0.2-0.5,0.1c-0.3-0.1-0.3-0.2-0.5-0.3c-0.1-0.1-0.2,0.1-0.4,0.4
						c-0.2,0.2-0.1,0.3,0,0.5c0.1,0.2,0.1,0.2,0.1,0.4c-0.1,0.2,0,0.3,0.1,0.4c0.1,0.2,0.1,0.3,0.2,0.2c0.1-0.1,0.1-0.1,0.2,0
						c0.1,0.1,0.1,0.4,0,0.8c0,0.4,0.2,0.4,0.6,0.4c0.4,0,0.4,0,0.4,0.2c0,0.2,0.1,0.2,0.2,0.1c0.1-0.1,0.2-0.1,0.2,0
						c0.1,0.1,0.2,0,0.3-0.2c0.1-0.1,0,0,0.2,0.1c0.1,0.1,0.1,0.1,0.4,0.1c0.2,0,0.4,0.1,0.4,0.4c0,0.3,0.1,0.3,0.3,0.2
						c0.2-0.1,0.3-0.1,0.5-0.2c0.2,0,0.1,0.2,0.2,0.3c0.1,0.1,0.2-0.1,0.2-0.4c0-0.2-0.1-0.1-0.1-0.3c0-0.2,0.2-0.1,0.2-0.4
						c0-0.3-0.1-0.2-0.1-0.4c0-0.2,0.2-0.2,0.4-0.3c0.2-0.1,0.3-0.1,0.2-0.4c-0.1-0.3,0-0.4,0.1-0.5c0.1-0.1,0.4-0.1,0.6,0
						c0.2,0.1,0.3-0.1,0.2-0.1c-0.1-0.1-0.2-0.2-0.4-0.4c-0.2-0.2-0.3-0.3-0.2-0.3c0.1-0.1,0.1-0.1,0-0.2c-0.1-0.1-0.2,0-0.2-0.3
						c0-0.2,0-0.5,0.1-0.7c0.1-0.1,0.3-0.1,0.5-0.1c0.3,0.1,0.2-0.1,0-0.2c-0.1-0.1-0.3-0.1-0.3-0.1c0-0.1,0.1-0.2,0.3-0.2
						c0.2,0,0.3,0,0.3-0.1c0-0.1,0-0.1-0.3-0.2c-0.2-0.1-0.2-0.1-0.3-0.3c-0.1-0.1-0.3-0.1-0.4-0.2c-0.1-0.1,0.1-0.2,0-0.3
						c-0.1-0.1-0.2-0.1-0.2-0.4c0-0.2-0.1-0.3-0.2,0C47.2,70.6,47.2,70.7,47.1,70.7z M42,71.5c0-0.3-0.1-0.3-0.2-0.1
						C41.7,71.7,42,71.8,42,71.5z M41.7,75.8c0.4,0.1,0.3-0.5,0-0.5C41.4,75.3,41.4,75.8,41.7,75.8z M40.4,77.3
						c-0.2,0-0.1,0.2,0.2,0.3c0.3,0.1,0.2,0.1,0.3,0.2c0.1,0.1,0,0.2,0.3,0.2c0.3,0.1,0.2,0.2,0.6,0.3c0.4,0.2,0.4,0,0.9,0.2
						c0.5,0.1,0.4,0.2,0.8,0.4c0.4,0.2,0.6,0.2,1.1,0.3c0.4,0.1,0.2-0.1,0.4,0c0.2,0.1,0.5,0.2,0.7,0.4c0.2,0.1,0.1,0,0-0.1
						c-0.1-0.1,0.1-0.1,0-0.2c-0.1-0.1-0.1-0.2-0.5-0.3c-0.4-0.1-0.6-0.1-0.5-0.3c0-0.1,0.2-0.1,0.5-0.1c0.3,0,0.3-0.1-0.1-0.2
						c-0.4-0.1-0.5-0.1-0.9-0.2c-0.4-0.2-0.3-0.3-0.6-0.3c-0.2-0.1-0.1,0.2-0.3,0.2c-0.2,0-0.4,0-0.7-0.1c-0.3-0.1-0.2-0.2-0.6-0.4
						c-0.4-0.2-0.6-0.2-0.9-0.4c-0.3-0.2-0.5-0.1-0.4,0.1C40.7,77.3,40.6,77.3,40.4,77.3z M46,79.5c0.1,0.1,0,0.1,0.2,0.1
						c0.1,0,0-0.1,0.2-0.1c0.2,0,0-0.1-0.3-0.2C45.8,79.3,45.9,79.4,46,79.5z M46.9,79.8c0.2,0,0.2-0.3,0-0.3
						C46.6,79.5,46.6,79.8,46.9,79.8z M47.7,80c0.3,0,0.2-0.1,0-0.2c-0.3-0.1-0.3-0.2-0.5-0.1C47,79.9,47.5,80,47.7,80z M48,79.6
						c-0.1-0.1-0.1,0-0.3-0.1c-0.1,0-0.1,0.1,0.1,0.2c0.2,0,0.2,0,0.4,0.2c0.1,0.1,0.1,0.1,0.3,0.1c0.1,0,0.3-0.2,0.1-0.3
						C48.2,79.7,48,79.6,48,79.6z M49.1,80.7c0.2,0.1,0.2,0.2,0.4,0.2c0.2,0,0-0.2-0.2-0.3c-0.2-0.1-0.3-0.3-0.6-0.3
						c-0.3,0-0.2,0.1-0.1,0.3C48.8,80.6,48.9,80.5,49.1,80.7z M50.1,80.2c0.3,0,0.6-0.2,0.3-0.2c-0.4,0-0.5-0.1-1-0.2
						C49,79.8,49,80,49.1,80C49.1,80,49.8,80.2,50.1,80.2z M51,80.1c0.1,0,0.1-0.1-0.1-0.1c-0.2,0-0.1,0.2-0.1,0.2
						C50.9,80.2,50.9,80.1,51,80.1z M51.3,80.2c0.1,0,0.1-0.1,0-0.1C51.1,80.1,51.2,80.2,51.3,80.2z M52.2,80.2
						c0.2,0,0.1-0.1-0.2-0.2c-0.3,0-0.3,0.1-0.2,0.1C51.9,80.2,52.1,80.2,52.2,80.2z M53.2,79.9c0.2-0.1,0-0.2-0.3-0.1
						C52.6,80,53,80,53.2,79.9z M52.3,80.4c-0.1,0.1-0.2,0.1-0.5,0.2c-0.3,0.1-0.4,0.2-0.4,0.4c0,0.3,0.3,0.2,0.6,0.1
						c0.3-0.1,0.3-0.3,0.5-0.4c0.2-0.1,0.4-0.1,0.6-0.1c0.2,0,0.1-0.1,0.3-0.1c0.2,0,0.4-0.1,0.2-0.2c-0.1,0-0.3,0-0.8,0
						C52.5,80.3,52.4,80.3,52.3,80.4z M49.8,74.8c0.3,0.1,0.4-0.1,0.9,0.1c0.4,0.1,0.4,0.2,0.6,0.2c0.3,0.1,0.5,0,0.6-0.2
						c0.1-0.2,0.3-0.2,0.4-0.4c0.1-0.2-0.1-0.2-0.3,0c-0.2,0.2-0.3,0.3-0.6,0.3c-0.3,0-0.2,0-0.5-0.1c-0.3-0.1-0.3-0.1-0.6-0.1
						c-0.3-0.1-0.4,0-0.5-0.2c-0.1-0.2-0.2-0.2-0.3,0c-0.1,0.2-0.1,0.2-0.4,0.3c-0.3,0-0.2,0.2-0.2,0.4c0,0.2-0.1,0.3-0.2,0.5
						c-0.1,0.2-0.1,0.2-0.2,0.6c-0.1,0.4,0,0.1-0.2,0.3c-0.2,0.2,0,0.4,0.1,0.5c0.1,0.1,0.1,0,0.3,0.1c0.1,0.2,0.1,0.4,0,0.7
						c-0.1,0.3,0,0.5,0.2,0.5c0.2,0,0.2-0.3,0.3-0.5c0-0.3,0-0.4,0-0.6c0-0.2-0.1-0.2-0.1-0.3c0.1-0.1,0.2-0.3,0.3-0.3
						c0.1,0,0.3,0.2,0.2,0.4c-0.1,0.3,0,0.3,0.2,0.4c0.2,0.1,0.2,0.2,0.2,0.4c0,0.2,0.2,0.2,0.3,0.1c0.1-0.1,0.1-0.1,0.3-0.1
						c0.2,0,0.2,0,0.1-0.1c-0.1-0.1-0.2-0.1-0.3-0.4c-0.1-0.2,0.1-0.3-0.1-0.4c-0.2-0.1-0.3-0.3-0.4-0.5c-0.2-0.2,0.1-0.2,0.2-0.2
						c0.2-0.1,0.3-0.1,0.4-0.2c0.1-0.1,0.3-0.3,0.1-0.3c-0.2,0-0.4,0.1-0.5,0.1c-0.2,0-0.2-0.1-0.3,0.1c-0.1,0.2-0.3,0.1-0.4,0
						c-0.2-0.1,0-0.2-0.1-0.3c-0.1-0.1-0.2-0.2-0.2-0.3c0-0.1,0-0.4,0.2-0.6C49.3,74.8,49.5,74.8,49.8,74.8z M50.9,75.8
						c0,0,0.1,0,0.2,0.1c0.1,0.1,0.1-0.2-0.1-0.3C50.8,75.6,50.9,75.7,50.9,75.8z M50.9,76.2c0.2,0,0.3-0.2,0-0.2
						C50.8,76,50.8,76.1,50.9,76.2z M51.2,76.3c0.1,0,0.1-0.2,0-0.2C51.1,76.1,51.2,76.2,51.2,76.3z M51,77.7c0-0.1-0.1-0.1-0.1,0
						C50.8,77.8,51,77.8,51,77.7z M50.6,78c-0.1,0-0.1,0.2-0.1,0.3c0.1,0.1,0.1,0,0.1-0.1c0.1-0.1,0.1,0.1,0,0.2
						c0,0.2,0.1,0.1,0.1,0.1c0-0.1,0-0.1,0.1-0.1c0.1,0,0-0.1-0.1-0.2C50.9,78.1,51,78.1,51,78c0-0.1,0,0-0.2-0.1
						C50.8,78,50.7,78,50.6,78z M52.3,76.5c0.2,0,0.1-0.2-0.2-0.2c-0.3,0-0.3,0.1-0.2,0.1C51.9,76.5,52.1,76.5,52.3,76.5z
						 M52.9,77.3c-0.1,0.1,0.1,0.3,0.3,0.3c0.3,0.1,0.4-0.1,0.3-0.2c-0.1-0.1-0.1-0.2-0.4-0.2C53.2,77.3,53,77.2,52.9,77.3z
						 M54,76.5c0.2,0.1,0.2-0.2,0-0.2C53.8,76.3,53.7,76.5,54,76.5z M53.7,75.7c-0.1,0-0.1,0.1-0.1,0.2c0.1,0.1,0.1,0,0.2-0.1
						C53.9,75.8,53.9,75.7,53.7,75.7z M53.9,75.4c0,0.2,0.1,0.2,0.1,0.3c0.1,0.1,0.1,0.2,0.2,0.3c0.1,0,0-0.1-0.1-0.2
						c0-0.1-0.2-0.2-0.1-0.3c0-0.1,0-0.2,0.2-0.2c0.1,0.1,0.2,0.1,0.3,0c0.1-0.1,0-0.1-0.1-0.2c-0.1,0-0.2-0.2,0-0.2
						c0.2,0,0.2,0,0.2-0.2c0-0.2,0-0.3-0.1-0.2c-0.1,0.1-0.2,0.3-0.3,0.3C54,75,54,75,53.9,75.1c-0.1,0.1-0.1,0.1,0,0.2
						C54,75.3,53.9,75.4,53.9,75.4z M54.5,74.1c0.1-0.2,0-0.2-0.2,0C54.2,74.3,54.4,74.3,54.5,74.1z M53.9,74.8
						c0.1,0,0.2-0.1,0.2-0.3c0-0.2,0-0.3-0.2-0.1C53.7,74.6,53.8,74.8,53.9,74.8z M55.5,76.8c0.2,0,0.2-0.2,0-0.2
						C55.2,76.6,55.3,76.8,55.5,76.8z M54.7,77.4c0.1,0,0,0.1,0.2,0.1c0.2,0,0.2,0,0.2-0.1c0-0.1,0-0.1,0.2,0c0.2,0,0.3,0.1,0.5,0.3
						c0.2,0.2,0.2-0.1,0.1-0.2c-0.2-0.2-0.2-0.2-0.5-0.3c-0.3-0.1-0.3-0.1-0.5-0.1c-0.2,0-0.3,0-0.6,0c-0.3,0-0.3,0.1-0.2,0.1
						c0.1,0.1,0.1,0,0.2,0.1c0.1,0.1,0,0.2-0.2,0.1c-0.2,0,0.1,0.1,0.3,0.1c0.2,0,0.1-0.2,0.2-0.2C54.6,77.5,54.7,77.4,54.7,77.4z
						 M56.2,75.3c0-0.1,0-0.2-0.1-0.1C56,75.3,56.2,75.5,56.2,75.3z M55.7,75.7c0.1,0.1,0.2,0.1,0.4,0.1c0.2-0.1,0.2-0.2,0-0.2
						C55.7,75.6,55.6,75.6,55.7,75.7z M55.8,76.2c0.1,0.1,0,0.1,0.2,0.2c0.2,0.1,0.1,0.1,0.4,0.1c0.3,0,0.3,0,0.3,0.2
						c0,0.2,0.2,0.2,0.4,0.2c0.2,0,0.7,0,0.9,0c0.2,0,0.1-0.2,0.1-0.5c0-0.2-0.1-0.3-0.3-0.4c-0.3-0.1-0.4-0.1-0.7-0.2
						c-0.3-0.1-0.4,0.2-0.5,0.2c-0.2,0-0.2-0.1-0.3,0.1c-0.1,0.1-0.1,0.2-0.2,0.1c0-0.1-0.1-0.2-0.3-0.2
						C55.7,76,55.7,76.1,55.8,76.2z M57.7,77.2c-0.2-0.1-0.2-0.1-0.4,0.1c-0.2,0.1-0.1,0-0.3,0c-0.2-0.1-0.3,0.1-0.1,0.1
						c0.2,0.1,0.1,0,0.2,0.1c0.1,0.1,0.2,0.2,0.2,0.5c0,0.3,0.3,0,0.4-0.2c0.1-0.2,0.1,0,0.3,0.2c0.2,0.2,0.2,0.1,0.4,0.2
						c0.2,0.1,0.4,0.2,1.1,0.4c0.7,0.1,0.6,0.2,1.1,0.6c0.5,0.4,0.5,0.5,0.6,0.8c0.1,0.3,0,0.2-0.1,0.1c-0.2-0.1-0.4-0.1-0.6,0.2
						c-0.2,0.3-0.4,0.3,0,0.4c0.4,0.1,0.5,0,0.7-0.1c0.2-0.2,0.4-0.1,0.7,0c0.3,0.1,0.3,0.4,0.7,0.5c0.4,0.1,0.2,0,0.3,0
						c0.2,0,0.4,0.2,0.6,0.1c0.1-0.1,0.2-0.3,0.4-0.4c0.2-0.1,0.2,0.1,0.4,0c0.2-0.1,0.2-0.2,0.2-0.4c0.1-0.2,0.2-0.1,0.2-0.2
						c0.1-0.1,0.1-0.1,0.3,0c0.2,0.1,0.4,0.1,0.6,0.1c0.3,0,0.3,0.3,0.8,0.7c0.5,0.4,0.6,0.4,0.9,0.4c0.3,0,0.6,0,0.8,0
						c0.1,0-0.1,0.2,0.3,0.2c0.2,0,0.3-0.1,0.2-0.2c-0.1-0.1-0.2-0.1-0.3-0.1c-0.2-0.1-0.2-0.1-0.3-0.2c-0.2-0.1,0-0.2-0.1-0.3
						c-0.1-0.1,0,0.1-0.4,0c-0.3-0.1-0.2-0.2-0.5-0.5c-0.3-0.3-0.3-0.2-0.5-0.5c-0.1-0.3-0.1-0.3,0.2-0.3c0.3,0,0.3,0.1,0.3-0.1
						c0-0.2-0.2-0.2-0.5-0.3c-0.3-0.1-0.3-0.1-0.6-0.2c-0.3-0.1-0.1-0.2-0.2-0.4C65.5,78,65.4,78,65,77.8c-0.4-0.2-0.5-0.2-1.2-0.3
						c-0.7-0.1-0.9-0.4-1.3-0.4c-0.4,0-0.6-0.1-1-0.2c-0.5-0.1-0.6-0.3-1-0.3c-0.3,0-0.3,0.2-0.5,0.3c-0.2,0.2-0.3,0-0.5,0.2
						c-0.1,0.2-0.3,0.3-0.5,0.4c-0.2,0.2-0.5,0.1-0.6-0.1c-0.1-0.1-0.2-0.3-0.3-0.4c-0.1-0.1-0.2-0.1-0.3,0
						C57.9,77.2,57.8,77.3,57.7,77.2z M58.4,79.7c0.2,0,0.3-0.3,0.2-0.6c-0.1-0.3-0.1-0.5-0.3-0.2C58.1,79.3,58.1,79.7,58.4,79.7z
						 M56.1,80c0,0.1-0.1,0-0.2,0.3c-0.1,0.2,0.1,0.1,0.2,0c0.1-0.1,0.2-0.2,0.3-0.4c0.1-0.2,0-0.3-0.2-0.1
						C56.3,79.8,56.1,79.9,56.1,80z M55.3,80.2c0.1,0,0.1-0.2-0.1-0.2C55.1,80,55.2,80.1,55.3,80.2z M59.3,76.4
						c0,0.1,0.2,0.1,0.3,0.1c0.1,0-0.1-0.2-0.3-0.3c-0.2-0.1-0.3-0.1-0.2,0.1C59.1,76.2,59.2,76.2,59.3,76.4z M59.6,76.8
						c0.3,0,0.1-0.2-0.3-0.1C59,76.7,59.3,76.8,59.6,76.8z M66.4,76.7c0.4,0,0.4-0.2,0-0.2C66,76.5,66.1,76.7,66.4,76.7 M68.8,76.6
						c-0.3-0.1-0.5-0.1-0.4,0.1c0.1,0.1,0.3,0,0.5,0.1c0.3,0.1,0.5,0.2,0.8,0.3c0.3,0.2,0.3,0.1,0.3,0.4c0,0.3,0.3,0.4,0.2,0.1
						c0-0.3,0-0.3-0.4-0.5C69.5,76.9,68.8,76.6,68.8,76.6z M69.5,77.5c-0.1,0-0.2,0.1-0.1,0.2s0.1,0.1,0.3,0.2
						c0.2,0.1,0.2,0,0.2-0.2c0-0.2-0.1-0.3-0.2-0.2C69.6,77.5,69.5,77.6,69.5,77.5z M68.9,78.3c-0.2,0.1-0.2,0.1-0.4,0.1
						c-0.3,0-0.6,0-1,0c-0.4,0-0.1,0.1,0.1,0.2c0.2,0.1,0.3,0,0.5,0.1c0.2,0.1,0.4,0,0.6-0.1c0.2-0.1,0.3-0.2,0.5-0.2
						c0.2,0,0.1-0.2,0.3-0.3c0.2-0.1,0.3,0,0.3-0.1c0-0.1-0.1-0.2-0.3-0.2C69.1,78,69.1,78.2,68.9,78.3z M71.6,78.6
						c0.1,0.2,0.2,0.2,0.3,0.1c0.1-0.1,0.1-0.2,0-0.3c-0.1-0.1-0.1-0.1-0.3-0.3c-0.2-0.2-0.3-0.2-0.2,0.1
						C71.4,78.2,71.6,78.4,71.6,78.6z M72.8,78.8c0.2,0.1,0.3,0,0.2-0.1c-0.2,0-0.1-0.1-0.4-0.2c-0.3-0.1-0.4-0.1-0.2,0.1
						C72.5,78.6,72.6,78.8,72.8,78.8z M74.3,79.2c0.1-0.1-0.1-0.2-0.5-0.3c-0.3-0.1-0.3-0.1-0.1,0.1C73.8,79.1,74.2,79.2,74.3,79.2z
						 M73.1,79.5c0.1,0.1,0.2,0.1,0.2,0c0-0.1-0.2-0.3-0.4-0.3c-0.2-0.1-0.3,0-0.1,0.2C72.8,79.3,72.9,79.4,73.1,79.5z M75.1,79.6
						c0.3,0.2,0.3,0.1,0.2-0.1c-0.1-0.1-0.1-0.1-0.2-0.3c-0.1-0.2-0.2-0.4-0.2,0C74.8,79.2,74.8,79.3,75.1,79.6z M74.8,79.8
						c0.2,0,0-0.2-0.4-0.2c-0.3,0-0.3,0.1,0,0.2C74.4,79.8,74.6,79.9,74.8,79.8z M75.6,80.2c0.1,0,0.1-0.2-0.1-0.2
						c-0.2,0-0.4,0-0.2,0.1C75.3,80.1,75.5,80.2,75.6,80.2z M78,82.1c0.1-0.1,0.1-0.3-0.1-0.4c-0.2-0.1-0.1-0.3-0.2,0
						C77.7,82,77.9,82.2,78,82.1z M78.2,82.5c0.1,0,0.2-0.2,0-0.2C78,82.3,78,82.4,78.2,82.5z M78.5,83c0.1,0,0.1-0.2-0.1-0.2
						C78.3,82.8,78.4,83,78.5,83z M78.4,81.9c0.1,0,0.1-0.1,0-0.1C78.3,81.8,78.3,81.9,78.4,81.9z M78.7,83.4c0.1,0,0.1-0.2,0-0.1
						C78.6,83.3,78.6,83.4,78.7,83.4z M78.7,83.8c0.1,0,0.1-0.2,0-0.1C78.6,83.7,78.6,83.8,78.7,83.8z M82.9,81.6
						c-0.3,0.3,0.1,0.2,0.5,0c0.3-0.2,0.3-0.5,0-0.4C83.1,81.4,83.2,81.3,82.9,81.6z M83.7,80.9c0.1,0.1,0.2,0,0.5-0.3
						c0.2-0.2,0.2-0.3-0.1-0.2C83.8,80.5,83.6,80.8,83.7,80.9z M76.4,84.9c-0.4-0.3-0.6-0.3-0.5,0c0.1,0.3,0.5,0.3,0.9,0.5
						c0.4,0.2,0.7,0.1,0.3-0.1C76.7,85,76.4,84.9,76.4,84.9z M77.6,84.7C77.7,84.6,77.6,84.5,77.6,84.7
						C77.4,84.6,77.5,84.8,77.6,84.7z M77.8,90.6c-0.2,0.2-0.3,0.3-0.6,0.4c-0.3,0.1-0.1,0.2,0.1,0.2c0.2-0.1,0.1,0.1-0.1,0.2
						c-0.2,0.2-0.3,0.2-0.1,0.2c0.2,0,0.4-0.2,0.9-0.6c0.5-0.4,0.2-0.2,0.4-0.4c0.2-0.2,0.4-0.2,0.7-0.4c0.3-0.2,0.2-0.3,0.1-0.3
						c-0.1,0-0.1,0.1-0.4,0.3c-0.3,0.2-0.5,0.2-0.4,0c0.1-0.1,0-0.3-0.1-0.2c-0.1,0.1-0.2,0.2-0.2,0.1s0.1-0.1,0.1-0.3
						c0-0.2-0.1-0.2-0.3-0.2c-0.2,0-0.2-0.1-0.2,0.1c0,0.2,0.2,0.3,0.2,0.5C78,90.2,78,90.4,77.8,90.6z M75.3,92.4
						c-0.6,0.3-1.4,0.6-2,1c-0.7,0.4-0.7,0.5-0.3,0.4c0.4-0.1,0.4,0,0.9-0.3c0.6-0.3,0.7-0.4,0.7-0.4s0.1-0.1,0.5-0.3
						c0.4-0.3,1.1-0.6,1.4-0.8c0.3-0.3,0.2-0.3,0.1-0.2c-0.2,0.1-0.2,0.1-0.2,0.1c0-0.1,0-0.1-0.3,0.1
						C76.1,91.8,75.9,92.1,75.3,92.4z M65,83.6c-0.1-0.1-0.1,0-0.3-0.2c-0.2-0.1-0.3,0.2-0.5-0.1C64,83.1,64,83.3,64.1,83
						c0.1-0.3,0-0.2-0.1-0.4c-0.1-0.2-0.1-0.2-0.2-0.4c-0.1-0.2,0-0.4-0.2-0.4c-0.3,0-0.3,0.2-0.3,0.4c-0.1,0.2-0.2,0.2-0.3,0.6
						c0,0.4-0.1,0.3-0.1,0.8c0,0.6,0,0.6-0.3,1.1c-0.3,0.4-0.4,0.6-0.8,0.6c-0.3,0-0.4-0.1-0.5-0.3c-0.2-0.2-0.4-0.1-0.7-0.3
						c-0.3-0.2-0.2-0.2-0.6-0.3c-0.4-0.1-0.4-0.1-0.7-0.3c-0.3-0.2-0.4-0.2-0.3-0.4c0.1-0.2,0-0.2,0.2-0.3c0.1-0.1,0-0.2,0.2-0.4
						c0.1-0.1,0.1-0.2,0.3-0.3c0.2-0.1,0.3-0.2,0.2-0.3c-0.2-0.1-0.2,0.1-0.4,0.2c-0.2,0.1-0.1-0.1-0.4-0.2c-0.3-0.1-0.2,0.1-0.5,0
						c-0.3-0.1-0.3,0-0.7-0.1c-0.4-0.1-0.4-0.2-0.8-0.3c-0.4-0.1-0.5-0.1-0.9-0.1c-0.4,0-0.6,0.2-0.5,0.3c0.1,0.1,0.3,0,0.6,0
						c0.3,0,0.1-0.1,0.3-0.1c0.2,0,0.4,0,0.5,0.2c0.1,0.2,0,0.1-0.4,0.1c-0.3,0-0.7,0-0.9,0.2c-0.2,0.2-0.4,0.3-0.2,0.4
						c0.1,0.2-0.1,0.2-0.4,0.4c-0.3,0.2-0.3,0.1-0.4,0.3c-0.2,0.2-0.4,0.4-0.5,0.2c-0.1-0.2,0-0.2-0.2-0.4c-0.2-0.2-0.2-0.2-0.5-0.2
						c-0.3-0.1-0.1,0.1-0.2,0.2c-0.2,0.1-0.1-0.1-0.2,0c-0.2,0.1-0.1,0.2-0.3,0.2c-0.2,0-0.3,0.1-0.3,0.2c0,0.1-0.2,0.1-0.5,0.2
						c-0.2,0.1,0.1,0.3-0.1,0.5c-0.1,0.2-0.2-0.1-0.4-0.2c-0.2-0.1,0,0.2,0,0.4c0,0.2-0.1,0.2-0.3,0c-0.1-0.2-0.2-0.2-0.4-0.1
						c-0.2,0.1-0.1,0.3-0.1,0.4c0.1,0.1,0,0.2-0.2,0.3c-0.2,0.1-0.1,0.3-0.3,0.4c-0.3,0.2-0.2,0.1-0.7,0.1c-0.5,0-0.7,0.1-1,0.1
						c-0.3,0.1-0.9-0.1-1.2,0c-0.3,0.1-0.4,0.3-0.7,0.3c-0.3,0-0.2,0.3-0.3,0.3c-0.1,0-0.1-0.3-0.2-0.2c-0.1,0.1-0.1,0.3,0,0.4
						c0.1,0.2-0.1,0.2-0.1,0.4c0,0.2,0,0.3,0.3,0.6c0.3,0.2,0.3,0.6,0.2,0.5c-0.1,0-0.3-0.1-0.1,0.1c0.2,0.2,0.5,0.6,0.8,0.9
						c0.4,0.4,0.1,0.2,0.4,0.6c0.2,0.4,0.4,0.5,0.5,0.5c0.1,0.1,0.2,0.4,0.1,0.7c0,0.3-0.1,0-0.2,0.1c0,0.1,0.1,0.1,0.3,0.2
						c0.2,0,0.1,0.1,0.3,0.2c0.2,0.1,0.8,0.2,1.2,0.1c0.3-0.1,0.5-0.2,0.6-0.3c0.2-0.1,0.8,0,1.1,0.1c0.3,0.1,0.5,0.2,0.9,0
						c0.3-0.2,0.1-0.2,0.4-0.3c0.3-0.1,0.3,0,0.5-0.1c0.2-0.1,0.4,0.1,1.1,0c0.7-0.1,0.4-0.1,0.7-0.1c0.3,0,0.7,0,0.9,0
						c0.2,0,0.5,0.1,0.8,0.2c0.3,0.1,0.3,0,0.4,0.1c0.2,0.1,0.2,0.1,0.5,0.1c0.3,0,0.1,0,0.3,0.1c0.2,0,0.2,0.1,0.1,0.1
						c-0.1,0,0.1,0.1,0.3,0.2c0.1,0,0.3,0.2,0.4,0.5c0.2,0.2,0.2,0.2,0.3,0c0.1-0.2,0.3-0.2,0.5-0.3c0.1,0,0.3-0.1,0.5-0.3
						c0.2-0.2,0.2,0,0.1,0.2c-0.1,0.2-0.1,0.1-0.1,0.2c0,0.2-0.1,0.2-0.3,0.2c-0.2,0,0.1,0.1,0.3,0c0.2-0.1,0.1-0.1,0.2-0.2
						c0.1-0.1,0.2,0.1,0.2,0.3c0.1,0.2,0,0.1-0.2,0.2c-0.2,0.1-0.2,0-0.4,0c-0.2,0-0.3,0-0.3,0.1c0,0.1,0.1,0,0.4,0
						c0.3,0,0.1,0,0.5-0.2c0.4-0.2,0.2,0,0.4,0.1c0.2,0.1,0.2,0.2,0.2,0.4c0,0.2,0.3,0.2,0.5,0.3c0.3,0.1,0.4,0,0.7,0
						c0.3,0.1,0.4,0.1,0.8,0c0.4-0.1,0.5-0.3,0.6-0.2c0.2,0.1,0.3,0.3,0.7,0.2c0.4-0.1,0.5-0.2,0.8-0.3c0.3-0.2,0.5,0,0.9-0.2
						c0.4-0.2,0.3-0.4,0.6-0.8c0.3-0.4,0.6-0.7,1-1c0.4-0.3,0.5-0.4,0.7-0.7c0.3-0.4,0.3-0.5,0.5-0.8c0.1-0.3,0.1-0.3,0-0.5
						c-0.1-0.2,0-0.2,0-0.6c0-0.3,0.1-0.3,0.2-0.5c0.2-0.1,0.2-0.2,0.1-0.3c-0.1-0.1,0,0.1-0.2,0.3c-0.1,0.2-0.8-0.3-1-0.4
						c-0.2-0.2-0.1-0.2-0.2-0.5c-0.2-0.2-0.3,0-0.6,0c-0.2-0.1-0.2-0.4-0.3-0.6c-0.1-0.3-0.5-0.4-0.9-0.5c-0.4-0.1-0.6-0.3-0.7-0.6
						c-0.1-0.3,0-0.3-0.1-0.5c-0.1-0.2-0.3-0.4-0.2-0.7C65.3,83.8,65.1,83.7,65,83.6z M59.7,83.5c0.2,0,0.2-0.3,0-0.3
						C59.5,83.2,59.5,83.5,59.7,83.5z M63.9,93.9c-0.4,0-0.3,0.1-0.1,0.2c0.1,0.1,0.1,0.2,0.3,0.4c0.2,0.2,0.4,0,0.7-0.1
						c0.2-0.1,0.3-0.2,0.5-0.4c0.2-0.2-0.1-0.2-0.3-0.1C64.7,94,64.2,94,63.9,93.9z M65.3,93.7c0.1,0,0.1-0.2,0-0.2
						C65.1,93.5,65.2,93.7,65.3,93.7z M21.9,54.8c-0.2,1.3-0.3,3.5-0.1,2.5c0.2-1,0.7-2.3,0.8-2.7c0.1-0.4-0.3-0.6-0.4-1.7
						C22.2,53,22.1,53.5,21.9,54.8z"/>
				</g>
			</g>
			<g>
				<g>
					<defs>
						
							<ellipse id="SVGID_5_" transform="matrix(0.3771 -0.9262 0.9262 0.3771 -17.7582 90.7014)" cx="58.6" cy="58.6" rx="36" ry="36"/>
					</defs>
					<clipPath id="SVGID_6_">
						<use xlink:href="#SVGID_5_"  style="overflow:visible;"/>
					</clipPath>
				</g>
			</g>
		</g>
	</g>
	
		<ellipse transform="matrix(0.3862 -0.9224 0.9224 0.3862 -18.0704 89.9502)" class="st1" cx="58.6" cy="58.6" rx="58.6" ry="58.6"/>
</g>
<g id="star">
	<path class="st2" d="M58.6,95.1c-20.1,0-36.5-16.4-36.5-36.5c0-20.1,16.4-36.5,36.5-36.5s36.5,16.4,36.5,36.5
		C95.1,78.7,78.7,95.1,58.6,95.1z M58.6,23.1C39,23.1,23.1,39,23.1,58.6S39,94.1,58.6,94.1s35.5-15.9,35.5-35.5S78.1,23.1,58.6,23.1
		z"/>
	<polygon class="st3" points="91.3,24.5 95.8,38.2 110.2,38.2 98.5,46.7 103,60.4 91.3,51.9 79.6,60.4 84.1,46.7 72.4,38.2 
		86.9,38.2 	"/>
</g>
</svg>
