<?xml version="1.0" encoding="utf-8"?>
<!-- Generator: Adobe Illustrator 24.0.3, SVG Export Plug-In . SVG Version: 6.00 Build 0)  -->
<svg version="1.1" id="レイヤー_1" xmlns="http://www.w3.org/2000/svg" xmlns:xlink="http://www.w3.org/1999/xlink" x="0px"
	 y="0px" viewBox="0 0 693.4 68.1" style="enable-background:new 0 0 693.4 68.1;" xml:space="preserve">
<style type="text/css">
	.st0{fill:#FFFFFF;}
</style>
<g>
	<g>
		<path class="st0" d="M0,36.2c0-4.5,0.8-8.7,2.5-12.5c1.7-3.9,3.9-7.2,6.9-10.1c2.9-2.9,6.4-5.1,10.5-6.8c4.1-1.6,8.6-2.4,13.5-2.4
			c4.9,0,9.3,0.8,13.4,2.4c4.1,1.6,7.6,3.9,10.6,6.8c3,2.9,5.3,6.3,6.9,10.1c1.7,3.9,2.5,8,2.5,12.5s-0.8,8.7-2.5,12.5
			c-1.7,3.9-4,7.2-6.9,10.1s-6.5,5.1-10.6,6.8c-4.1,1.6-8.6,2.4-13.4,2.4c-4.9,0-9.4-0.8-13.5-2.4c-4.1-1.6-7.6-3.9-10.5-6.8
			C6.4,56,4.1,52.6,2.5,48.8C0.8,44.9,0,40.7,0,36.2z M16.4,36.2c0,2.4,0.5,4.6,1.4,6.6c0.9,2,2.1,3.8,3.7,5.3
			c1.5,1.5,3.3,2.7,5.4,3.5c2.1,0.8,4.2,1.2,6.5,1.2c2.3,0,4.5-0.4,6.5-1.2c2.1-0.8,3.9-2,5.4-3.5c1.6-1.5,2.8-3.3,3.7-5.3
			c0.9-2,1.4-4.2,1.4-6.6c0-2.4-0.5-4.6-1.4-6.6c-0.9-2-2.1-3.8-3.7-5.3c-1.6-1.5-3.4-2.7-5.4-3.5c-2.1-0.8-4.2-1.2-6.5-1.2
			c-2.3,0-4.5,0.4-6.5,1.2c-2.1,0.8-3.9,2-5.4,3.5c-1.5,1.5-2.8,3.3-3.7,5.3C16.9,31.6,16.4,33.8,16.4,36.2z"/>
		<path class="st0" d="M89.7,66.4H74V6.1h25c6.8,0,12,1.8,15.6,5.3c3.6,3.5,5.4,8.5,5.4,14.9c0,6.4-1.8,11.4-5.4,14.9
			c-3.6,3.5-8.8,5.3-15.6,5.3h-9.3V66.4z M89.7,33.8h5.2c5.8,0,8.6-2.5,8.6-7.5c0-5-2.9-7.5-8.6-7.5h-5.2V33.8z"/>
		<path class="st0" d="M159.4,19.4h-18.6v10.1h17.6v13.3h-17.6v10.4h18.6v13.3H125V6.1h34.3V19.4z"/>
		<path class="st0" d="M168.7,66.4V6.1h15.7l29,36.9V6.1h15.6v60.3h-15.6l-29-36.9v36.9H168.7z"/>
		<path class="st0" d="M280.3,37.4v29h-14.5v-29h-4.8V25.4h4.8V13h14.5v12.3h8.2v12.1H280.3z"/>
		<path class="st0" d="M292.6,0h14.5v30.6c2-2.4,4-4,6-4.8c2-0.8,4.4-1.2,7.1-1.2c5.2,0,9.1,1.4,11.7,4.3c2.6,2.9,4,6.7,4,11.6v26.1
			h-14.5V45.7c0-2.1-0.2-3.8-0.5-5c-0.3-1.3-0.9-2.3-1.6-3c-1.3-1.1-2.8-1.7-4.6-1.7c-2.5,0-4.3,0.7-5.6,2.2c-1.3,1.5-2,3.6-2,6.3
			v21.9h-14.5V0z"/>
		<path class="st0" d="M356.2,48.3c0,6.2,2.9,9.4,8.8,9.4c3.1,0,5.5-1.3,7.1-3.8h14c-2.8,9.4-9.9,14.1-21.2,14.1
			c-3.5,0-6.6-0.5-9.5-1.6s-5.3-2.5-7.4-4.4c-2.1-1.9-3.6-4.2-4.8-6.9c-1.1-2.7-1.7-5.7-1.7-9c0-3.4,0.5-6.5,1.6-9.2
			c1.1-2.7,2.6-5.1,4.6-7c2-1.9,4.4-3.4,7.2-4.4c2.8-1,6-1.6,9.5-1.6c3.5,0,6.6,0.5,9.4,1.6c2.8,1,5.1,2.5,7,4.5
			c1.9,2,3.4,4.4,4.4,7.2c1,2.9,1.5,6.1,1.5,9.6v1.5H356.2z M373.1,39.9c-0.5-2-1.5-3.7-3-4.9c-1.5-1.2-3.3-1.8-5.4-1.8
			c-2.2,0-4.1,0.6-5.5,1.8c-1.4,1.2-2.3,2.8-2.7,5H373.1z"/>
		<path class="st0" d="M420.3,6.1h23.2c4.1,0,8,0.8,11.6,2.5c3.6,1.7,6.7,3.9,9.4,6.6c2.7,2.7,4.8,5.9,6.4,9.6
			c1.5,3.7,2.3,7.5,2.3,11.5c0,3.9-0.8,7.7-2.3,11.4c-1.5,3.7-3.6,6.9-6.3,9.6c-2.7,2.8-5.8,5-9.4,6.6c-3.6,1.7-7.5,2.5-11.6,2.5
			h-23.2V6.1z M435.9,53.1h3.6c2.7,0,5.1-0.4,7.3-1.3c2.1-0.9,3.9-2,5.4-3.5c1.5-1.5,2.6-3.3,3.4-5.3c0.8-2.1,1.2-4.3,1.2-6.8
			c0-2.4-0.4-4.6-1.2-6.7c-0.8-2.1-1.9-3.9-3.4-5.4c-1.5-1.5-3.3-2.7-5.4-3.5c-2.1-0.9-4.5-1.3-7.2-1.3h-3.6V53.1z"/>
		<path class="st0" d="M477.2,36.2c0-4.5,0.8-8.7,2.5-12.5c1.7-3.9,3.9-7.2,6.9-10.1c2.9-2.9,6.4-5.1,10.5-6.8
			c4.1-1.6,8.6-2.4,13.5-2.4c4.9,0,9.3,0.8,13.4,2.4c4.1,1.6,7.6,3.9,10.6,6.8c3,2.9,5.3,6.3,6.9,10.1c1.7,3.9,2.5,8,2.5,12.5
			s-0.8,8.7-2.5,12.5c-1.7,3.9-4,7.2-6.9,10.1s-6.5,5.1-10.6,6.8c-4.1,1.6-8.6,2.4-13.4,2.4c-4.9,0-9.4-0.8-13.5-2.4
			c-4.1-1.6-7.6-3.9-10.5-6.8c-2.9-2.9-5.2-6.3-6.9-10.1C478,44.9,477.2,40.7,477.2,36.2z M493.6,36.2c0,2.4,0.5,4.6,1.4,6.6
			c0.9,2,2.1,3.8,3.7,5.3c1.5,1.5,3.3,2.7,5.4,3.5c2.1,0.8,4.2,1.2,6.5,1.2c2.3,0,4.5-0.4,6.5-1.2c2.1-0.8,3.9-2,5.4-3.5
			c1.6-1.5,2.8-3.3,3.7-5.3c0.9-2,1.4-4.2,1.4-6.6c0-2.4-0.5-4.6-1.4-6.6c-0.9-2-2.1-3.8-3.7-5.3c-1.6-1.5-3.4-2.7-5.4-3.5
			c-2.1-0.8-4.2-1.2-6.5-1.2c-2.3,0-4.5,0.4-6.5,1.2c-2.1,0.8-3.9,2-5.4,3.5c-1.5,1.5-2.8,3.3-3.7,5.3
			C494.1,31.6,493.6,33.8,493.6,36.2z"/>
		<path class="st0" d="M548.1,36.2c0-4.5,0.8-8.7,2.5-12.5c1.7-3.9,3.9-7.2,6.9-10.1c2.9-2.9,6.4-5.1,10.5-6.8
			c4.1-1.6,8.6-2.4,13.5-2.4c4.9,0,9.3,0.8,13.4,2.4c4.1,1.6,7.6,3.9,10.6,6.8c3,2.9,5.3,6.3,6.9,10.1c1.7,3.9,2.5,8,2.5,12.5
			s-0.8,8.7-2.5,12.5c-1.7,3.9-4,7.2-6.9,10.1c-3,2.9-6.5,5.1-10.6,6.8c-4.1,1.6-8.6,2.4-13.4,2.4c-4.9,0-9.4-0.8-13.5-2.4
			c-4.1-1.6-7.6-3.9-10.5-6.8c-2.9-2.9-5.2-6.3-6.9-10.1C548.9,44.9,548.1,40.7,548.1,36.2z M564.5,36.2c0,2.4,0.5,4.6,1.4,6.6
			c0.9,2,2.1,3.8,3.7,5.3c1.5,1.5,3.3,2.7,5.4,3.5c2.1,0.8,4.2,1.2,6.5,1.2c2.3,0,4.5-0.4,6.5-1.2c2.1-0.8,3.9-2,5.4-3.5
			c1.6-1.5,2.8-3.3,3.7-5.3c0.9-2,1.4-4.2,1.4-6.6c0-2.4-0.5-4.6-1.4-6.6c-0.9-2-2.1-3.8-3.7-5.3c-1.6-1.5-3.4-2.7-5.4-3.5
			c-2.1-0.8-4.2-1.2-6.5-1.2c-2.3,0-4.5,0.4-6.5,1.2c-2.1,0.8-3.9,2-5.4,3.5c-1.5,1.5-2.8,3.3-3.7,5.3
			C564.9,31.6,564.5,33.8,564.5,36.2z"/>
		<path class="st0" d="M672.3,66.4h-19.5l-15-23.2v23.2h-15.7V6.1h24.4c3.4,0,6.3,0.5,8.8,1.5c2.5,1,4.6,2.3,6.2,4
			c1.6,1.7,2.9,3.7,3.7,5.9c0.8,2.2,1.2,4.6,1.2,7.2c0,4.6-1.1,8.3-3.3,11.2c-2.2,2.9-5.5,4.8-9.8,5.8L672.3,66.4z M637.8,33h3
			c3.1,0,5.5-0.6,7.1-1.9c1.7-1.3,2.5-3.1,2.5-5.5c0-2.4-0.8-4.2-2.5-5.5c-1.7-1.3-4-1.9-7.1-1.9h-3V33z"/>
		<path class="st0" d="M674.7,58.7c0-1.3,0.2-2.5,0.7-3.6c0.5-1.1,1.1-2.1,2-3c0.9-0.9,1.9-1.5,3-2c1.1-0.5,2.4-0.7,3.6-0.7
			c1.3,0,2.5,0.2,3.6,0.7c1.1,0.5,2.1,1.1,3,2c0.9,0.9,1.5,1.9,2,3c0.5,1.1,0.7,2.4,0.7,3.6c0,1.3-0.2,2.5-0.7,3.6
			c-0.5,1.1-1.1,2.1-2,3c-0.9,0.9-1.9,1.5-3,2c-1.1,0.5-2.4,0.7-3.6,0.7c-1.3,0-2.5-0.2-3.6-0.7c-1.1-0.5-2.1-1.1-3-2
			c-0.9-0.9-1.5-1.9-2-3C675,61.2,674.7,60,674.7,58.7z M676.6,45.9V6.1h15v39.8H676.6z"/>
	</g>
</g>
</svg>
