<?xml version="1.0" encoding="utf-8"?>
<!-- Generator: Adobe Illustrator 24.0.3, SVG Export Plug-In . SVG Version: 6.00 Build 0)  -->
<svg version="1.1" id="レイヤー_1" xmlns="http://www.w3.org/2000/svg" xmlns:xlink="http://www.w3.org/1999/xlink" x="0px"
	 y="0px" viewBox="0 0 52.4 66.7" style="enable-background:new 0 0 52.4 66.7;" xml:space="preserve">
<style type="text/css">
	.st0{fill:#FBED21;}
</style>
<g>
	<g>
		<path class="st0" d="M0,28.5V0h6.1c1.1,0,2.1,0.1,3,0.4c0.9,0.3,1.6,0.8,2.3,1.6c0.7,0.7,1.2,1.6,1.4,2.6s0.4,2.4,0.4,4.1
			c0,1.3-0.1,2.4-0.2,3.2c-0.1,0.9-0.5,1.7-0.9,2.5c-0.6,0.9-1.3,1.7-2.2,2.2c-0.9,0.5-2.2,0.8-3.7,0.8H4.1v11.1H0z M4.1,3.8v9.7h2
			c0.8,0,1.5-0.1,1.9-0.4c0.5-0.2,0.8-0.6,1-1c0.2-0.4,0.3-0.9,0.4-1.5s0.1-1.2,0.1-2c0-0.7,0-1.3,0-1.9c0-0.6-0.1-1.1-0.4-1.6
			c-0.2-0.5-0.5-0.8-1-1C7.6,4,7,3.8,6.2,3.8H4.1z"/>
		<path class="st0" d="M16,4.1V0h4.1v4.1H16z M16,28.5V8.2h4.1v20.3H16z"/>
		<path class="st0" d="M27.8,22.6c0,0.6,0.2,1.1,0.5,1.5c0.4,0.3,0.8,0.5,1.5,0.5c0.8,0,1.3-0.2,1.5-0.7c0.3-0.5,0.4-0.9,0.5-1.4
			h4.1c0,1.8-0.5,3.2-1.6,4.3c-0.5,0.6-1.2,1-1.9,1.3c-0.7,0.3-1.6,0.5-2.5,0.5c-1.3,0-2.4-0.3-3.3-0.8c-0.9-0.5-1.6-1.2-2.1-2.1
			c-0.3-0.5-0.5-1.1-0.6-1.8c-0.1-0.7-0.2-1.5-0.2-2.3V15c0-0.8,0.1-1.6,0.2-2.3c0.1-0.7,0.3-1.3,0.6-1.8c0.5-0.9,1.2-1.6,2.1-2.1
			c0.9-0.5,2-0.8,3.3-0.8c0.9,0,1.8,0.2,2.5,0.5s1.4,0.8,1.9,1.3c1.1,1.2,1.6,2.8,1.6,4.7h-4.1c0-0.8-0.2-1.4-0.5-1.8
			c-0.4-0.4-0.8-0.6-1.5-0.6s-1.1,0.2-1.5,0.6c-0.4,0.4-0.5,1-0.5,1.7V22.6z"/>
		<path class="st0" d="M38.3,28.5V0h4.1v17h0.1l4.9-8.8h4.1l-4.8,8.2l5.8,12H48l-3.7-8.8l-2,3.1v5.7H38.3z"/>
		<path class="st0" d="M18.6,38.2v20.3h-4.1v-2h-0.1c-0.4,0.6-0.9,1.2-1.5,1.6c-0.6,0.4-1.4,0.6-2.3,0.6c-0.5,0-1-0.1-1.5-0.3
			c-0.5-0.2-1-0.5-1.4-0.9c-0.4-0.4-0.7-0.9-1-1.5c-0.2-0.6-0.4-1.4-0.4-2.3V38.2h4.1v14c0,0.7,0.2,1.3,0.5,1.8
			c0.3,0.4,0.8,0.6,1.5,0.6c0.8,0,1.3-0.2,1.6-0.7c0.3-0.5,0.4-1.2,0.4-2.1V38.2H18.6z"/>
		<path class="st0" d="M22,66.7V38.2h4.1V40c0.5-0.6,1-1.1,1.6-1.5c0.5-0.4,1.3-0.6,2.3-0.6c1.7,0,2.9,0.6,3.6,1.9
			c0.2,0.5,0.4,1,0.5,1.7c0.1,0.7,0.2,1.6,0.2,2.7V52c0,1.5,0,2.6-0.1,3.2c-0.2,1.3-0.8,2.3-1.8,3c-0.5,0.3-1.3,0.5-2.3,0.5
			c-0.8,0-1.5-0.2-2.1-0.5c-0.6-0.4-1.2-0.9-1.6-1.5h-0.1v10H22z M30.1,44.8c0-0.8-0.2-1.5-0.5-2c-0.3-0.5-0.8-0.8-1.5-0.8
			c-0.6,0-1.1,0.2-1.5,0.7c-0.4,0.5-0.6,1.1-0.6,1.8v7.9c0,0.6,0.2,1.2,0.6,1.6c0.4,0.4,0.9,0.6,1.5,0.6c0.8,0,1.3-0.2,1.6-0.7
			c0.3-0.5,0.4-1,0.4-1.7V44.8z"/>
		<path class="st0" d="M39.7,51.4L38.1,30h5.1l-1.6,21.4H39.7z M38.6,58.5v-4.1h4.1v4.1H38.6z"/>
	</g>
</g>
</svg>
