<?xml version="1.0" encoding="utf-8"?>
<!-- Generator: Adobe Illustrator 24.0.3, SVG Export Plug-In . SVG Version: 6.00 Build 0)  -->
<svg version="1.1" id="レイヤー_1" xmlns="http://www.w3.org/2000/svg" xmlns:xlink="http://www.w3.org/1999/xlink" x="0px"
	 y="0px" viewBox="0 0 628.8 37" style="enable-background:new 0 0 628.8 37;" xml:space="preserve">
<style type="text/css">
	.st0{fill:#FFFFFF;}
</style>
<g>
	<g>
		<path class="st0" d="M18,4.5c1.1,0.2,2,0.2,2.2,0.2c0.4,0,0.6,0,1.1-0.2c0.8-0.3,1.1-0.3,1.3-0.3c1,0,1.8,0.8,1.8,1.8
			c0,1.1-1.5,2.2-2,2.5c-1.1,0.8-2.4,1.6-5.4,2.9c0.4,0.3,2,1.8,2.4,2.1c2.9,2.8,5.4,5.3,6.2,6.6c0.2,0.4,0.6,1.1,0.6,1.7
			c0,2-1.2,3.7-2.3,3.7c-0.6,0-0.6,0-3.1-1.7c-1-0.7-4.8-2.5-9.3-2.5c-5.6,0-7.1,3-7.1,4.8c0,2.8,2.8,4.1,4.2,4.4
			c1.5,0.3,3,0.4,4.5,0.4c0.6,0,3.5-0.2,4-0.2c3.6,0,4,2.4,4,2.8c0,2-2.7,2-3.8,2c-3.4,0-6.8-0.4-9.4-1.5c-2-0.9-5.3-2.9-5.3-6.6
			c0-1.8,0.8-4.2,2.5-5.6c2-1.5,5-2.1,8.4-2.1c2.6,0,4.9,0.3,6.4,0.6c0.1,0,0.3,0.1,0.5,0.1c0.2,0,0.6-0.1,0.6-0.4
			c0-0.5-3.8-5-6.5-7.6c-2.4,0.8-5.4,1.8-8.5,1.8c-3.2,0-5.7-1.7-6-4.8c0.6,0.5,2.2,1.9,5.2,1.9c2.8,0,5-0.7,6.5-1.2
			C9.6,8.5,8.6,8,7.8,7.6c-1.6-0.9-2-1.4-2-2.3c0-1.6,2-3.7,3.4-3.7c0.5,0,1.8,0.4,3.4,1.3c-0.2,0.1-1.4,0.3-1.6,0.4
			c-0.8,0.3-0.9,0.8-0.9,1c0,0.4,0.2,0.7,0.6,1.1C11.8,6.6,12.2,7,14.5,9c2.1-0.9,4.8-2.6,4.8-3.3C19.4,5.4,19.2,5.2,18,4.5L18,4.5z
			"/>
		<path class="st0" d="M61,36c2.8-0.7,5.4-2.2,7.6-4.2c2.1-2,3.4-4.2,3.4-7.3c0-2-0.7-4.8-3.2-6.3c-0.6-0.3-1.2-0.6-1.6-0.7
			c-1.6,4.3-6.5,9.4-7.5,10.3c0.8,1.2,1,1.6,1,2.3c0,1.2-0.8,2.5-1.7,2.5c-1.4,0-2.1-1.7-2.5-2.4c-2.1,1.5-5.1,3.6-7.7,3.6
			c-1.6,0-2.2-1.3-2.4-1.9C46,31,45.9,31,45.2,30.2c-0.4-0.4-0.7-0.9-0.7-1.9c0-2.5,3.1-7.4,10.4-10.7c0.1-1.2,0.2-2.4,0.6-5.5
			c-1.6,0.3-2.6,0.4-3.8,0.4c-1.9,0-3.2-0.2-4.5-1.5c-1-1-1.2-1.6-1.2-2c1.8,0.8,4.4,0.8,4.6,0.8c0.4,0,2.2,0,5.4-0.6
			c0.6-3.3,0.6-3.5,0.6-4.2c0-2-1-2.3-3.1-3c0.4-0.4,1.4-1.2,2.9-1.2c2.5,0,5,1.6,5,2.9c0,0.6-0.1,0.8-0.9,2.3
			c-0.3,0.6-0.7,1.5-1,2.3c0.8-0.2,2.3-0.7,4.1-1.6c0.7-0.4,1-0.5,1.5-0.5c1.1,0,3.1,1,3.1,2.1c0,0.8-1,1.2-1.7,1.5
			c-1.9,0.7-5.3,1.4-8,1.8c-0.4,1.6-0.7,2.9-0.9,5c1.5-0.4,3.1-0.8,5.8-1c-0.2-0.8-0.3-1.1-0.9-2c2.4-0.2,3.9,0.7,4.6,2.2
			c1,0.2,2.8,0.5,5,1.7c2.6,1.6,4.4,4.4,4.4,7.6c0,3.2-1.8,10-15.6,11.2V36z M54.8,19.1c-5.6,3.4-7.2,8.6-7.2,9.9
			c0,0.5,0.1,1.8,1.7,1.8c0.6,0,3.1-0.5,6.4-3.1C54.9,24.5,54.7,22,54.8,19.1z M58.4,25.2c1.1-1.2,3.9-4.6,5-8.3
			c-2.6,0-4.3,0.4-5.9,0.9C57.4,21.1,57.8,23.3,58.4,25.2z"/>
		<path class="st0" d="M95.3,25.2c2.9,0.6,5.5,1.2,7.9,3.1c2,1.6,2.6,3.2,2.6,4.6c0,1.4-1.1,2.8-2.7,2.8c-1.7,0-2.2-1.2-3.1-3.5
			c-1.6-4-3.8-5.8-4.9-6.6L95.3,25.2z"/>
		<path class="st0" d="M141.1,35.6c4-4.1,6.1-9.8,6.4-14c0.1-1.1,0.2-6,0.2-7c-3,0.1-5.2,0.4-7.4,0.8c0,1.2,0.1,6.5,0.1,7.6
			c0,1.9,0,2.8-1.4,2.8c-1.8,0-2.3-2.4-2.3-3.2c0-0.5,0.3-2.6,0.3-3c0-1.5,0.1-2.5,0.1-3.5c-0.7,0.2-3.7,0.9-4.8,1.4
			c-0.9,0.5-1,0.5-1.4,0.5c-1.4,0-3.3-2.4-3.3-4.4c0-0.2,0-1.5,0.5-2.4c1,1.7,1.6,2.7,3.6,2.7c0.8,0,4.6-0.5,5.3-0.6
			c-0.1-6.8-0.3-6.9-3.7-7.8c0.6-0.5,1.6-1.2,3-1.2c1.1,0,3,0.6,4.2,1.5c0.4,0.3,0.4,0.6,0.4,1c0,0.4-0.5,1.8-0.5,2.2
			c-0.1,0.8-0.2,2.4-0.2,4c3.6-0.4,4.6-0.5,7.4-0.7c0.1-2.6,0.1-4,0.1-4.2c0-2.9-0.3-3.9-3.6-4.4c1.1-0.7,2-1.2,3.1-1.2
			c0.8,0,5.2,0.6,5.2,2.5c0,0.4-0.5,1.8-0.5,2.1c0,0.2-0.4,1.9-0.5,5.1c1.1,0,3-0.1,4-0.3c0.3-0.1,1.6-0.4,1.8-0.4
			c0.9,0,2.7,0.7,3.9,1.7c0.4,0.4,0.6,0.7,0.6,1.2c0,1.5-0.9,1.5-1.7,1.5c-0.4,0-5.3-0.9-6.3-1c-1.1-0.1-1.8-0.2-2.4-0.2
			c-0.2,7.9-0.3,11-3.4,15.4c-1.9,2.7-3.9,4.3-6.8,5.9L141.1,35.6z"/>
		<path class="st0" d="M173.8,32.7c8.1-4,14.3-12.3,17.7-17.4c1.2-1.9,2.6-4.3,3.3-6.7c-0.6,0.1-7.7,1.7-9.4,2.5
			c-0.2,0.1-1.4,0.7-1.6,0.8s-0.5,0.2-0.8,0.2c-1,0-3.3-2.4-3.3-4.9c0-0.8,0.1-1.4,0.4-2.2c1.3,2.1,2.3,2.8,3.8,2.8
			c1.6,0,10-0.9,11.4-1.8c0.2-0.1,1-0.9,1.2-1c0.2-0.1,0.3-0.2,0.5-0.2c0.4,0,2,1.4,2.4,1.8c1.5,1.3,1.7,1.6,1.7,2
			c0,0.4-0.2,0.6-1,0.9c-0.7,0.4-1,0.6-1.4,1.2c-2.1,3.9-3.1,5.7-5.6,9c5.4,2,8.6,4.8,9.7,5.9c1.1,1.1,2.2,2.4,2.2,4.2
			c0,1.5-0.8,2.7-2.2,2.7c-1,0-1.6-0.8-2-1.6c-3.5-5.7-4.9-7.9-8.2-10.6c-0.6,0.8-2,2.5-4.2,4.5c-3.4,3.2-8.6,6.9-14.4,8.1
			L173.8,32.7z"/>
		<path class="st0" d="M224.4,35c5.5-4.2,9.6-13.9,9.6-17c0-1-0.2-1.2-0.7-1.6c-4.3,0.6-5.3,1-7.7,2c-0.6,0.2-1,0.4-1.4,0.4
			c-1.1,0-2.2-1.4-2.4-1.7c-0.3-0.3-1.4-1.7-1.4-3.2c0-0.8,0.2-1.3,0.4-1.8c0.9,1.3,1.8,2.6,4,2.6h0.3c6.1-0.6,12.1-1.3,18.2-1.9
			c0.8-0.2,0.8-0.2,2.2-0.6c0.3-0.1,0.7-0.2,1-0.2c1.2,0,4.6,0.9,4.6,3c0,1.4-1.1,1.4-1.5,1.4c-0.3,0-4-0.4-4.6-0.5
			c-0.9-0.1-1.7-0.1-2.8-0.1c-2.1,0-4.1,0.2-5.3,0.3c0.3,0.2,1.8,1.2,2.1,1.4c0.2,0.1,0.4,0.4,0.4,0.6c0,0.3-0.2,0.5-0.7,1
			c-0.2,0.2-0.4,0.6-0.7,1.5c-2.1,6.6-7.1,13-13.4,14.7L224.4,35z M230.9,6c1.7,0,5.1-0.3,8-1.2c0.6-0.2,1.5-0.4,1.8-0.4
			c1.2,0,3.6,0.6,3.6,2c0,1.6-1.4,1.6-3.7,1.7c-2.8,0.1-3,0.1-10.1,1c-0.3,0-0.6,0.1-0.9,0.1c-2.4,0-3.4-2.7-3.4-3.9
			c0-0.3,0-0.5,0.1-0.9C227.6,5.9,229.9,6,230.9,6z"/>
		<path class="st0" d="M273.7,35.7c4.1-2.8,9-7.7,9.8-20.2c-1.6,0.2-5.8,0.6-8.7,2c-0.6,0.3-0.9,0.5-1.5,0.5c-1.3,0-2.9-1.6-3.7-3
			c-0.5-0.9-0.6-1.6-0.6-2.6c0-0.9,0.1-1.2,0.2-1.7c1.6,2.8,4,2.8,4.9,2.8c0.8,0,4.2-0.3,5.3-0.4c1.4-0.1,2.8-0.2,4.2-0.4
			c0-1.9,0-5.6-0.2-6.8c-0.3-1.5-2.3-1.8-3.3-2c1.5-1.5,3.1-1.5,3.4-1.5c1.6,0,3.7,1.1,4.7,2c0.2,0.2,0.5,0.4,0.5,1
			c0,0.4-0.2,0.7-0.4,1.1c-0.5,0.7-0.5,0.9-0.6,2.7c0,0.5,0,2.8-0.1,3.2c0.8-0.1,6-0.5,6.3-0.6c0.4-0.1,2.1-0.7,2.4-0.7
			c1,0,4.5,1.2,4.5,3.2c0,1.4-1.3,1.4-1.8,1.4c-0.3,0-0.6,0-0.9-0.1c-4.1-0.5-4.5-0.5-5.8-0.5c-2.2,0-3.6,0-4.8,0.1
			c-0.2,3-0.5,5.9-1.3,8.7c-1.1,4-5,10.1-12.3,12.1L273.7,35.7z"/>
		<path class="st0" d="M321.5,34c5.2-2.6,9.6-7.6,11.5-10.4c2.8-4,5.4-10,5.8-13.3c-3.4,0.2-13.9,1.8-15.9,2.8
			c-0.6,0.3-0.8,0.4-1.2,0.4c-0.5,0-0.9-0.3-1.3-0.6c-1.3-1.2-2.6-2.8-2.6-4.6c0-1.1,0.4-1.8,0.6-2.2c1.9,3,3.8,3,4.8,3
			c1,0,8.6-0.5,12.7-1c1.2-0.2,2.8-0.4,3.7-1c0.9-0.6,1-0.6,1.2-0.6c0.4,0,0.6,0.2,2.2,1.7c1.9,1.8,1.9,2,1.9,2.4
			c0,0.7-0.6,1-1.2,1.3c-0.9,0.4-1,0.6-1.5,2.1c-2,5.8-4.8,10.5-8.5,13.9c-3.2,2.9-7.7,5.6-12.2,6.4L321.5,34z M348.6,7.6
			c0,0.6-0.4,1.6-1.3,1.6s-1.5-0.8-2.2-1.9c-0.4-0.5-1.6-2.4-3.8-3.7C344.5,3.5,348.6,5.1,348.6,7.6z M351.7,4.8
			c0,0.8-0.4,1.5-1.2,1.5c-0.7,0-1-0.4-2.1-1.7c-0.4-0.4-1.8-2.1-4.2-3.5C348.2,1,351.7,2.4,351.7,4.8z"/>
		<path class="st0" d="M363.7,33.1c2.7-2.6,4.7-5.8,6-9.3c1.7-4.4,1.8-9.4,1.8-10.9c0-2.5-0.7-2.7-3.3-3.5c1.6-0.8,2.3-1.1,3.2-1.1
			c1.5,0,3.7,1.2,4.3,1.8c0.2,0.2,0.4,0.4,0.4,0.9c0,0.3-0.5,1.6-0.6,1.8c-0.2,0.6-0.5,3.6-0.6,4.2c-0.8,5-1.9,8.8-5.6,12.6
			c-2.5,2.6-4.5,3.4-5.4,3.8L363.7,33.1z M397.5,13.8c-1.5,4.2-4.8,8.9-8.2,11.9c-1.2,1.1-1.7,1.4-5.6,4.5c-0.3,0.2-1.7,1.4-2,1.6
			c-0.1,0.1-0.3,0.2-0.5,0.2c-1,0-3-3.5-3-4.5c0-0.3,0.5-1.6,0.5-1.8c0.4-1.6,0.5-8.7,0.5-9.9c0-1,0-6.7-0.4-7.9
			c-0.3-1.3-2.2-1.7-3.2-2c0.6-0.4,1.6-1.2,2.8-1.2c1.4,0,5.3,1.4,5.3,2.9c0,0.4-0.6,2.1-0.7,2.4c-0.4,1.7-0.8,12.4-0.8,14.8
			c0,0.4,0,0.6,0.4,0.6c1.5,0,9.5-5.7,14.6-12L397.5,13.8z"/>
		<path class="st0" d="M422.4,9.2c0.6-1.8,1.2-3.7,1.2-4.8c0-0.9-0.4-1.7-2.9-2.2c0.3-0.3,1.4-1.3,2.9-1.3s3.4,0.9,4.4,1.8
			c0.3,0.2,0.4,0.6,0.4,1c0,0.7-0.2,1-0.8,2c-0.5,0.8-0.6,0.9-1.4,2.5c0.5-0.2,1.8-0.6,3-1.2c1.9-0.9,1.9-0.9,2.4-0.9
			c0.8,0,2.8,0.7,2.8,1.9c0,0.7-0.6,1-0.9,1.2c-2.4,0.9-4.9,1.4-8.8,2.2c-0.4,0.9-3.8,7.9-5,10.5c-1.1,2.5-2.8,5.4-3.7,6.1
			c-0.3,0.2-0.6,0.3-0.8,0.3c-0.6,0-1.8-0.7-1.8-2.4c0-1.2,0.5-1.7,1.3-2.8c0.3-0.4,4.4-6.5,6.5-11c-0.8,0.2-1.6,0.3-2.7,0.3
			c-3.8,0-5.1-2.2-5.1-3.6c0-0.3,0.1-0.6,0.2-0.9c1.1,1.6,3.4,1.7,4.8,1.7C420.2,9.6,421.5,9.3,422.4,9.2L422.4,9.2z M436.1,12
			c5,0,8.2,3,8.2,5.2c0,0.2,0,1-0.5,1.4c-0.2,0.2-0.6,0.4-1.1,0.4c-0.8,0-1.5-0.4-2.1-0.8c-0.9-0.6-1.8-1.1-3.2-1.1
			c-3.9,0-3.9,3.8-3.9,4.8c0,2,0.4,3.6,0.6,4.6c3.4,0.6,5.4,2,6.1,2.5c1,0.8,1.8,1.6,1.8,2.9c0,1.1-0.7,2.1-1.7,2.1
			c-1,0-2.4-1.2-3.1-1.7c-1.4-1.2-2.2-1.6-2.7-1.8c-0.1,0.7-0.2,2.6-1.8,3.8c-1.7,1.3-3.8,1.5-4.8,1.5c-3,0-7-1.5-7-4.9
			c0-3.4,3.5-5,7.9-5c0.7,0,1.2,0,1.7,0.1c-0.1-1.3-0.1-1.8-0.1-2.6c0-4.3,2.4-6.2,5.9-7.2c0.2-0.1,1.4-0.2,1.6-0.3
			c0.2-0.1,0.2-0.3,0.2-0.4c0-0.6-2-2-5.6-2.7C433.1,12.4,434.3,12,436.1,12z M426.7,28.2c-0.8,0-4.3,0.1-4.3,2.4s4,2.3,4.2,2.3
			c3.9,0,4-3,4-4C429.9,28.6,428.8,28.2,426.7,28.2z"/>
		<path class="st0" d="M489.9,16.6l1.7-3c0.1-0.2,0.3-0.5,0.6-0.5c0.2,0,0.4,0.2,0.8,0.4l3.6,3c0.2,0.2,0.4,0.4,0.4,0.6
			c0,0.4-0.3,0.4-0.6,0.4h-14.8c3.8,5.7,10.4,10.2,16.1,11.3v0.3c-2.2,1-3.4,2-4.6,4.3c-7.1-3.5-11.5-12.3-12.1-15.9
			c0,5.6,0.3,15.9,0.3,16.8v0c0,2.3-2.2,2.6-2.8,2.6c-0.5,0-1.9,0-1.9-1.8c0-0.9,0.4-11.2,0.4-12.9c-4.5,6-11.2,10.3-16,11.7v-0.3
			c4.9-3.2,11.5-11.6,13.6-16.1h-8.3c-2.4,0-3.3,0.1-4.3,0.3l-0.6-1.5c2.5,0.2,5.3,0.2,5.7,0.2h9.9c0-3.6,0-4-0.1-7.6H469
			c-2.4,0-3.3,0.1-4.3,0.3l-0.6-1.5c2.5,0.2,5.3,0.2,5.7,0.2h7c0-1.2-0.1-4.5-0.1-4.8c-0.1-1.3-0.4-2.2-0.7-3.3l5.6,1.4
			c0.2,0,0.8,0.2,0.8,0.7c0,0.5-0.8,0.9-1.4,1.2v4.8h5.8l1.7-2.8c0.1-0.2,0.4-0.5,0.6-0.5c0.2,0,0.6,0.3,0.7,0.4l3.2,2.8
			c0.2,0.2,0.4,0.4,0.4,0.6c0,0.4-0.3,0.4-0.6,0.4h-11.9c0,3.1,0,3.5,0,7.6H489.9z"/>
		<path class="st0" d="M533.9,18.6c1.8-2.8,3.8-8.4,4-10.1l4.8,2.5c0.3,0.2,0.5,0.3,0.5,0.5c0,0.4-0.2,0.5-2,1c-3.8,4-4.9,5-6.5,6.1
			h6.6l1.9-2.6c0.1-0.1,0.4-0.5,0.6-0.5c0.2,0,0.4,0.1,0.8,0.4l3.2,2.6c0.2,0.2,0.4,0.3,0.4,0.6c0,0.4-0.4,0.4-0.6,0.4h-15.2
			c3.8,4.9,10.3,8.8,16,9.6l0.1,0.3c-1.8,0.7-3.3,2.4-4.3,4.4c-5.2-2.5-9.8-8.2-12-13c0,4.3,0,5.8,0,8.7c0,0.7,0.2,3.8,0.2,4.5
			c0,0.8,0,1.5-0.8,2.2c-0.5,0.4-1,0.7-1.7,0.7c-2,0-2-1.2-2-2.3s0.3-5.8,0.4-6.8c0.1-2.1,0.1-3.4,0.1-5.2
			c-3.3,4.5-9.4,9.6-15.8,11.5l-0.2-0.3c6.6-4.4,12.1-12.5,13-14.4h-7.8c-2.4,0-3.3,0.1-4.3,0.3l-0.7-1.5c2.5,0.2,5.3,0.2,5.7,0.2
			h10c0-6.2,0-6.9-0.1-11h-8.5c-2.4,0-3.3,0.1-4.3,0.3l-0.6-1.5c2.5,0.2,5.3,0.2,5.7,0.2h7.8c-0.1-4.3-0.1-4.7-0.8-6.4l5.5,1.2
			c0.2,0,0.7,0.2,0.7,0.5c0,0.4-0.8,0.9-1.3,1.2c0,0.5-0.1,2.3-0.1,3.5h7l1.8-2.6c0.3-0.4,0.5-0.5,0.6-0.5c0.2,0,0.6,0.3,0.7,0.4
			l3,2.6c0.2,0.2,0.4,0.3,0.4,0.6c0,0.4-0.3,0.4-0.6,0.4h-12.8c0,4.7,0,5.4,0,11H533.9z M518,8.9c1.2,0.4,3.9,1.4,5.5,3.1
			c1,1,1.4,2,1.4,2.9c0,1.3-0.8,2.6-2.3,2.6c-1.7,0-2-1.4-2.1-2.1c-0.3-1.7-0.9-4.2-2.6-6.3L518,8.9z"/>
		<path class="st0" d="M566.1,17.2c1.2,0,2.7-1.3,3.8-2.2c0.6-0.6,3.5-3,4.1-3.6c2-1.6,2.5-1.8,3.6-1.8c1.6,0,2.6,0.8,4.1,2.1
			c8.4,7.5,11.8,9,15.9,10.8c0.9,0.4,3.8,1.6,3.8,4.3c0,0.6-0.3,2.1-1.8,2.1c-1.8,0-6.7-3.4-8.7-5c-2.1-1.6-3.1-2.5-11.4-10.6
			c-0.2-0.2-1-0.8-1.8-0.8c-1,0-1.9,0.8-5,4.8c-0.9,1.2-1.2,1.8-1.8,2.7c-0.5,0.8-1.4,2.4-2.6,2.4c-0.5,0-4.6-1.2-4.6-4.6
			c0-0.8,0.2-1.2,0.4-1.7C564.4,16.4,565.2,17.2,566.1,17.2z"/>
		<path class="st0" d="M617.2,29.6c0-3.2,2.6-5.9,5.8-5.9c3.2,0,5.8,2.7,5.8,5.9s-2.5,5.9-5.8,5.9C619.7,35.5,617.2,32.8,617.2,29.6
			z M618.9,29.6c0,2.3,1.8,4.1,4,4.1s4.1-1.8,4.1-4.1c0-2.3-1.8-4.1-4.1-4.1S618.9,27.4,618.9,29.6z"/>
	</g>
</g>
</svg>
