<?xml version="1.0" encoding="utf-8"?>
<!-- Generator: Adobe Illustrator 24.0.3, SVG Export Plug-In . SVG Version: 6.00 Build 0)  -->
<svg version="1.1" id="レイヤー_1" xmlns="http://www.w3.org/2000/svg" xmlns:xlink="http://www.w3.org/1999/xlink" x="0px"
	 y="0px" viewBox="0 0 1162.7 93.5" style="enable-background:new 0 0 1162.7 93.5;" xml:space="preserve">
<style type="text/css">
	.st0{opacity:0.8;}
	.st1{fill:#FFFFFF;}
</style>
<g class="st0">
	<g>
		<path class="st1" d="M36.3,29.3c0.1-8-0.6-15.8-9.8-15.8c-5.6,0-9.2,2.3-9.2,8.3c0,6.8,4.3,9.4,9.5,12.7
			c5.5,3.5,15.6,10.1,20.2,14.6c5.7,5.6,7.5,10.9,7.5,18.7c0,16.9-11.2,25.7-27.5,25.7C7.1,93.5,0,82.4,0,66.4v-6.5h16.7v5.2
			c-0.4,8.7,2.3,15,10.5,15c7,0,10.4-3.7,10.4-10.5c0-5.2-2.4-8.8-6.7-11.8c-8.7-6.8-19.5-11.7-26.3-20.6c-2.7-4-4.3-8.9-4.3-13.7
			C0.2,8.3,8.8,0,26.4,0C53,0,52.2,20.5,52.4,29.3H36.3z"/>
		<path class="st1" d="M91.2,81.4H91c-2.4,8-6.9,11.7-14.4,11.8c-12.3,0-15-6.3-15-17.5V24.3h15.5v45.9c0,3-0.1,6.3,1.5,8.9
			c1.3,1.4,2.7,2.1,4.8,2.1c7.3,0,7.1-8.2,7.1-13.4V24.3H106v67.1H91.2V81.4z"/>
		<path class="st1" d="M127.7,69.3c-1.2,12.4,3.6,12,7.1,12c4.4,0,7.5-3.2,6.4-7.5c-0.2-3.8-4.6-6-7.6-8l-8.4-5.8
			c-7.7-5.4-12.7-11.5-12.7-21.2c0-10.4,8.2-16.3,23.1-16.3c15,0,21.9,7.9,21.5,22.3h-15.5c0.4-7.5-1.8-10.4-7.1-10.4
			c-3.7,0-6.5,1.7-6.5,5.5c0,3.9,2.9,5.7,5.8,7.7l12.6,8.6c3.9,2.3,10.1,8.7,10.6,13.2c1.3,11.7-1.5,23.8-23,23.8
			c-8.2,0-23.6-3.5-21.8-23.9H127.7z"/>
		<path class="st1" d="M188.6,91.6c-9.2,1.1-22,1.9-22-10.6V35.6h-6.3V24.3h6.2V5.8h15.6v18.4h6.5v11.3h-6.5v41.7
			c0.4,2.9,4.6,2.5,6.5,2.3V91.6z"/>
		<path class="st1" d="M225.7,91.4c-1.1-2.1-1.2-4.5-1-6.9h-0.2c-1.8,2.7-3.8,5-6.2,6.4c-2.3,1.4-4.8,2.3-7.4,2.3
			c-12.5,0-18-6.3-18-20.1c0-15.4,10.8-19,23-24c6.5-2.7,8.9-5.7,7.6-11.2c-0.7-3-3.1-3.5-7.3-3.5c-7,0-8.2,3.7-8.1,9.8h-14.8
			c-0.1-12.7,4-21.7,23.4-21.7c21.1,0,22.4,11.1,22.1,19.9V82c0,3.2,0.5,6.3,1.3,9.4H225.7z M223.5,56.1c-3.8,2.6-8.4,5.2-12.5,8.6
			c-2.3,1.9-2.6,5.2-2.6,8.1c0,5.1,1.5,8.6,7.3,8.6c9.2,0,7.5-11.5,7.9-18V56.1z"/>
		<path class="st1" d="M249.1,16.2v-14h15.5v14H249.1z M249.1,91.4V24.3h15.5v67.1H249.1z"/>
		<path class="st1" d="M289.4,31.2h0.2c3.5-7.7,10.4-8.7,13.9-8.7c8.8,0,15.9,5.1,15.5,17.1v51.8h-15.5V46.6
			c0-6.5-0.7-10.8-6.5-11.1c-5.8-0.2-7.9,5.2-7.6,12.4v43.4h-15.5V24.3h15.5V31.2z"/>
		<path class="st1" d="M358.3,91.4c-1.1-2.1-1.2-4.5-1-6.9h-0.2c-1.8,2.7-3.8,5-6.2,6.4c-2.3,1.4-4.8,2.3-7.4,2.3
			c-12.5,0-18-6.3-18-20.1c0-15.4,10.8-19,23-24c6.5-2.7,8.9-5.7,7.6-11.2c-0.7-3-3.1-3.5-7.3-3.5c-7,0-8.2,3.7-8.1,9.8h-14.8
			c-0.1-12.7,4-21.7,23.4-21.7c21.1,0,22.4,11.1,22.1,19.9V82c0,3.2,0.5,6.3,1.3,9.4H358.3z M356.2,56.1c-3.8,2.6-8.4,5.2-12.5,8.6
			c-2.3,1.9-2.6,5.2-2.6,8.1c0,5.1,1.5,8.6,7.3,8.6c9.2,0,7.5-11.5,7.9-18V56.1z"/>
		<path class="st1" d="M381.2,2.1h15.5v21.4c0,2.1-0.2,4.3-0.4,7.5h0.2c3.1-6.4,7.3-8.7,13.8-8.6c10,0.2,15.7,5.4,16.1,23.8v24.3
			c-0.4,10.7-3,22.6-16.1,22.6c-6.4-0.4-10.7-2.3-14.2-8.9h-0.2v7.1h-14.8V2.1z M396.6,69.4c0,7.7,2.5,11.9,7.5,11.9
			c4.8,0,6.4-5.1,6.8-11.5V47.4c-0.5-6.7,0.2-13-7-13s-7.5,9.5-7.3,14.9V69.4z"/>
		<path class="st1" d="M435.4,91.4V2.1h15.5v89.3H435.4z"/>
		<path class="st1" d="M459.3,47.4c-0.7-15.8,7.4-24.9,22.6-24.9c21.5,0,23.8,11.2,23.8,29.5v9h-30.9v9.8c0.1,8.8,3.5,10.5,8.1,10.5
			c5.7,0,7.4-4.2,7.1-12.6h15.5c0.6,15-5.6,24.5-21.4,24.5c-17.9,0-25.1-8.4-24.8-28.2V47.4z M490.2,49.1v-5.8
			c-0.1-6.8-1.9-8.9-8.1-8.9c-7.7,0-7.4,6-7.4,12v2.7H490.2z"/>
		<path class="st1" d="M542.7,91.4V2.1h46.9v13.1h-30.2v22.5h27.8v13.1h-27.8v27.5h30.2v13.1H542.7z"/>
		<path class="st1" d="M611.9,31.2h0.2c3.5-7.7,10.4-8.7,13.9-8.7c8.8,0,15.9,5.1,15.5,17.1v51.8H626V46.6c0-6.5-0.7-10.8-6.5-11.1
			s-7.9,5.2-7.6,12.4v43.4h-15.5V24.3h15.5V31.2z"/>
		<path class="st1" d="M644.9,24.3h16.7l6.5,37.6c1.3,6.1,1.9,16.7,2.1,19.9h0.2c0.2-3.2,0.8-13.8,2.1-19.9l6.7-37.6h16.1
			l-15.5,67.1h-19.3L644.9,24.3z"/>
		<path class="st1" d="M700.8,16.2v-14h15.5v14H700.8z M700.8,91.4V24.3h15.5v67.1H700.8z"/>
		<path class="st1" d="M740.4,36.2h0.2c1.9-4.9,3.8-7.6,6.1-9.5c4.4-3.7,7.4-3.5,9.6-3.6v18.3c-8.6-0.8-15.1,1.3-15.4,11.2v38.8
			h-15.5V24.3h14.9V36.2z"/>
		<path class="st1" d="M760.4,60.2c0.1-23,0.4-37.7,23.7-37.7c23,0,23.1,14.8,23.2,37.7c0.1,23.3-3.2,33.3-23.2,33
			C763.8,93.5,760.3,83.5,760.4,60.2z M775.9,69.5c0,8.2,0.7,11.8,8.2,11.8c7.1,0,7.7-3.6,7.7-11.8V47.1c0-6.3,0-12.7-7.7-12.7
			c-8.2,0-8.2,6.4-8.2,12.7V69.5z"/>
		<path class="st1" d="M830.6,31.2h0.2c3.5-7.7,10.4-8.7,13.9-8.7c8.8,0,15.9,5.1,15.5,17.1v51.8h-15.5V46.6
			c0-6.5-0.7-10.8-6.5-11.1s-7.9,5.2-7.6,12.4v43.4h-15.5V24.3h15.5V31.2z"/>
		<path class="st1" d="M884.8,31.2h0.2c3.5-7.4,9.8-8.4,14.8-8.7c5.7-0.1,13.3,2.4,14.3,8.7h0.2c3-5.8,7.9-8.7,15.5-8.7
			c11.4,0,16.4,7.1,16.4,14.3v54.6h-15.5V46.1c0-6.1-0.6-12-7.4-11.7c-6.7,0.4-7.9,5-7.9,12.9v44.2H900V45.2c0-6-0.5-10.9-7.6-10.8
			c-7.3,0.1-7.6,5.5-7.6,12.9v44.2h-15.5V24.3h15.5V31.2z"/>
		<path class="st1" d="M954.3,47.4c-0.7-15.8,7.4-24.9,22.6-24.9c21.5,0,23.8,11.2,23.8,29.5v9h-30.9v9.8c0.1,8.8,3.5,10.5,8.1,10.5
			c5.7,0,7.4-4.2,7.1-12.6h15.5c0.6,15-5.6,24.5-21.4,24.5c-17.9,0-25.1-8.4-24.8-28.2V47.4z M985.2,49.1v-5.8
			c-0.1-6.8-1.9-8.9-8.1-8.9c-7.7,0-7.4,6-7.4,12v2.7H985.2z"/>
		<path class="st1" d="M1024.1,31.2h0.2c3.5-7.7,10.4-8.7,13.9-8.7c8.8,0,15.9,5.1,15.5,17.1v51.8h-15.5V46.6
			c0-6.5-0.7-10.8-6.5-11.1s-7.9,5.2-7.6,12.4v43.4h-15.5V24.3h15.5V31.2z"/>
		<path class="st1" d="M1086.8,91.6c-9.2,1.1-22,1.9-22-10.6V35.6h-6.3V24.3h6.2V5.8h15.6v18.4h6.5v11.3h-6.5v41.7
			c0.4,2.9,4.6,2.5,6.5,2.3V91.6z"/>
		<path class="st1" d="M1123.8,91.4c-1.1-2.1-1.2-4.5-1-6.9h-0.2c-1.8,2.7-3.8,5-6.2,6.4c-2.3,1.4-4.8,2.3-7.4,2.3
			c-12.5,0-18-6.3-18-20.1c0-15.4,10.8-19,23-24c6.5-2.7,8.9-5.7,7.6-11.2c-0.7-3-3.1-3.5-7.3-3.5c-7,0-8.2,3.7-8.1,9.8h-14.8
			c-0.1-12.7,4-21.7,23.4-21.7c21.1,0,22.4,11.1,22.1,19.9V82c0,3.2,0.5,6.3,1.3,9.4H1123.8z M1121.7,56.1
			c-3.8,2.6-8.4,5.2-12.5,8.6c-2.3,1.9-2.6,5.2-2.6,8.1c0,5.1,1.5,8.6,7.3,8.6c9.2,0,7.5-11.5,7.9-18V56.1z"/>
		<path class="st1" d="M1147.2,91.4V2.1h15.5v89.3H1147.2z"/>
	</g>
</g>
</svg>
